<?xml version="1.0" standalone="no"?>
<!DOCTYPE svg PUBLIC "-//W3C//DTD SVG 1.1//EN" "http://www.w3.org/Graphics/SVG/1.1/DTD/svg11.dtd" >
<svg xmlns="http://www.w3.org/2000/svg" xmlns:xlink="http://www.w3.org/1999/xlink" version="1.1">
<metadata></metadata>
<defs>
<font id="venti_cfthin_oblique" horiz-adv-x="850" >
<font-face units-per-em="2048" ascent="1638" descent="-410" />
<missing-glyph horiz-adv-x="437" />
<glyph unicode="&#xfb01;" horiz-adv-x="985" d="M62 826v17q3 16 18 16h172l19 182q19 175 126 265.5t263 90.5q114 0 203 -66q15 -9 8 -19l-14 -19q-8 -11 -19 -3q-80 62 -182 62q-34 0 -69 -5.5t-81.5 -25.5t-83 -52t-66 -91t-37.5 -137l-19 -182l537 -2q2 2 10 2h21q8 0 11 -2.5t3 -11.5l-89 -831q-1 -6 -2 -8.5 t-3.5 -4t-6.5 -1.5h-26q-13 0 -10 16l85 798h-535l-83 -797q0 -17 -14 -17h-24q-11 0 -11 19l83 795h-173q-8 0 -10 2.5t-1 9.5z" />
<glyph unicode="&#xfb02;" horiz-adv-x="1062" d="M83 826l2 17q2 9 5 12.5t12 3.5h170l20 182q19 176 126 268.5t264 92.5q160 0 278 -112l8 85q0 8 3 10.5t11 2.5h21q9 0 11.5 -2t2.5 -11l-144 -1359q-2 -10 -4.5 -13t-11.5 -3h-19q-16 0 -12 17l129 1220q-115 120 -276 120q-34 0 -69.5 -6t-82 -26.5t-83 -53.5 t-66 -92.5t-38.5 -137.5l-19 -182h314q7 0 9 -2.5t2 -9.5l-2 -21q-2 -12 -14 -12h-314l-83 -797q0 -17 -14 -17h-23q-13 0 -10 19l81 795h-172q-8 0 -10.5 2.5t-1.5 9.5z" />
<glyph horiz-adv-x="0" />
<glyph horiz-adv-x="682" />
<glyph unicode=" "  horiz-adv-x="437" />
<glyph unicode="&#x09;" horiz-adv-x="437" />
<glyph unicode="&#xa0;" horiz-adv-x="437" />
<glyph unicode="!" horiz-adv-x="289" d="M43 38q1 17 15 29.5t31 12.5t27.5 -12.5t8.5 -29.5q-1 -17 -14 -27.5t-31 -10.5t-28 10.5t-9 27.5zM116 557l84 807l1 16q0 8 9 8h33q9 0 7 -8l-2 -16l-85 -807q0 -7 -7 -7h-33q-7 0 -7 7z" />
<glyph unicode="&#x22;" horiz-adv-x="456" d="M82 897l48 446q0 7 2 9t9 2h27q6 0 7.5 -2t1.5 -9l-50 -447q-2 -11 -12 -11h-23q-10 0 -10 12zM387 897l47 446q0 11 10 11h30q8 0 8 -11l-52 -447q-2 -11 -10 -11h-24q-12 0 -9 12z" />
<glyph unicode="#" horiz-adv-x="1148" d="M49 481l3 24q0 9 10 9h261l99 402h-252q-9 0 -9 11l4 24q0 9 9 9h258l103 418q2 10 13 10h23q11 0 9 -10l-104 -418h343l103 418q2 10 13 10h23q11 0 9 -10l-104 -418h253q7 0 7 -9l-4 -26q0 -9 -6 -9h-261l-99 -402h248q9 0 9 -11l-2 -21q-3 -12 -10 -12h-255l-115 -461 q-3 -9 -14 -9h-24q-9 0 -5 9l113 461h-342l-115 -461q-3 -9 -14 -9h-24q-8 0 -5 9l113 461h-252q-7 0 -8.5 2t-1.5 9zM366 514h344l99 402h-344z" />
<glyph unicode="$" horiz-adv-x="1091" d="M45.5 203.5q-0.5 3.5 6.5 13.5l14 12q12 12 26 -2l10 -12q11 -12 23 -24.5t33.5 -32t45 -36.5t55.5 -35t65.5 -31t76 -21.5t85.5 -8.5q90 0 164.5 22t122.5 56t83 78t51 86t20 83q5 44 -5 82.5t-27 66.5t-50 55t-61 43.5t-74.5 35.5t-75.5 29t-79 26t-71 23 q-46 16 -78 28.5t-71 31t-65 37t-52 44.5t-40 54.5t-21 66t-3 81.5q7 67 37.5 127.5t83.5 112t137.5 83t189.5 35.5l14 137q0 9 11 9h31q7 0 7 -9l-14 -137q48 -2 95 -14.5t80.5 -26.5t70.5 -36.5t54.5 -35.5t43 -34t26.5 -22q7 -5 0 -17l-18 -19q-9 -13 -17 -5q-1 1 -18 16 t-37 31.5t-54.5 37.5t-71 37t-86 27.5t-99.5 11.5q-180 0 -291 -86.5t-126 -218.5q-3 -32 1 -60.5t12.5 -51t26.5 -43.5t34 -36.5t44.5 -31.5t49 -26t56 -23.5t57 -20.5t60 -19.5t58.5 -19.5q43 -15 64.5 -23t61.5 -24.5t61.5 -28.5t54 -32t50 -38t38.5 -44t30 -53t14 -61 t1 -72q-16 -153 -148 -260.5t-329 -111.5l-16 -144q0 -9 -8 -9h-32q-8 0 -8 9l17 146q-229 13 -395 207q-3 3 -4 5q-8 7 -8.5 10.5z" />
<glyph unicode="%" horiz-adv-x="958" d="M5 26l898 1297q13 17 26 17h15q9 0 12 -4t-3 -12l-899 -1298q-6 -8 -8 -10.5t-6.5 -4.5t-11.5 -2h-16q-19 0 -7 17zM146 1305q2 9 11.5 17.5t19.5 8.5q11 0 18 -8t5 -18q-4 -28 -30 -28q-11 0 -18 8t-6 20zM772 49q2 9 11 17.5t19 8.5q12 0 19 -8t5 -18q-4 -28 -29 -28 q-11 0 -18.5 8t-6.5 20z" />
<glyph unicode="&#x26;" horiz-adv-x="1176" d="M-67.5 328q-4.5 106 48.5 193q86 146 316 250q84 37 132.5 60.5t120.5 67.5t110 82t62.5 91.5t15.5 109.5q-11 64 -44 109t-77.5 63t-97 23t-102.5 -9q-88 -19 -152.5 -84.5t-82.5 -148.5q-4 -23 -4.5 -46t3.5 -44.5t9 -39t15 -37.5t17 -33.5t20 -32t19.5 -27.5t19.5 -26 q19 -26 16 -41t-33 -30q-70 95 -82 114q-59 88 -58 191.5t63 186.5q63 83 134.5 117t166.5 40q68 4 129 -16t110 -74t61 -136q18 -134 -77 -238.5t-357 -223.5l378 -484q130 163 273 488q4 9 14 15.5t19 6.5h78q7 0 7 -8q-1 -4 -5.5 -14.5t-6.5 -15.5q-5 -8 -12 -8h-49 q-148 -324 -286 -499q7 -8 29 -36t39 -45t45.5 -39.5t66.5 -35t83 -15.5q13 0 13 -11l-2 -24q0 -11 -14 -11q-23 0 -45.5 3.5t-39.5 7t-37 14t-31.5 15t-30.5 20.5t-25.5 20.5t-25.5 25t-22 23.5t-23 26l-20 24q-118 -123 -247 -161q-59 -17 -123 -20t-128.5 7.5 t-123.5 43.5t-99 85q-66 85 -70.5 191zM21 219q32 -67 96 -109t135.5 -54.5t143.5 -1.5q180 26 298 165l-390 500q-192 -81 -274.5 -216.5t-8.5 -283.5z" />
<glyph unicode="'" horiz-adv-x="150" d="M82 897l48 446q0 7 2 9t9 2h27q6 0 7.5 -2t1.5 -9l-50 -447q-2 -11 -12 -11h-23q-10 0 -10 12z" />
<glyph unicode="(" horiz-adv-x="697" d="M83 663q38 366 196.5 585t435.5 272q7 0 7 -12l-3 -29q0 -5 -11 -7q-125 -21 -226.5 -89.5t-172 -175.5t-115 -244t-62.5 -300q-23 -220 12 -389t135.5 -280t262.5 -140q7 -3 5 -7l-4 -33q0 -8 -10 -8q-265 52 -376.5 272t-73.5 585z" />
<glyph unicode=")" horiz-adv-x="697" d="M-31 -186l3 33q2 4 9 7q249 43 396 258.5t182 550.5q24 219 -10.5 388.5t-135 281t-260.5 139.5q-9 3 -9 4q-1 1 0 3l4 29q0 12 8 12q267 -52 378 -271t73 -586q-38 -365 -195.5 -585t-434.5 -272q-5 0 -6.5 1.5t-1.5 6.5z" />
<glyph unicode="*" horiz-adv-x="711" d="M104 908q-6 12 7 19l250 139l-219 139q-13 6 -5 17l21 28q7 9 10.5 9.5t10.5 -4.5l208 -149l19 267q1 6 1.5 8.5t1.5 4.5t3 2h6h35q10 0 12 -2t0 -13l-35 -267l238 149q6 4 9.5 4.5t6 -1.5t5.5 -8l14 -28q3 -5 2.5 -8t-3 -4.5t-8.5 -4.5l-248 -139l220 -139q12 -7 4 -19 l-19 -26q-7 -8 -10.5 -9.5t-10.5 3.5l-208 148l-21 -267q-2 -9 -4.5 -11.5t-11.5 -2.5h-33q-8 0 -9.5 2.5t-0.5 11.5l36 269l-241 -150q-12 -10 -17 6z" />
<glyph unicode="+" horiz-adv-x="1060" d="M127 651l1 21q0 9 3.5 11.5t12.5 2.5h371l39 371q3 14 14 14h22q14 0 11 -14l-39 -371h372q8 0 10 -2.5t2 -11.5l-2 -21q-3 -14 -17 -14h-370l-38 -370q-3 -15 -14 -15h-23q-13 0 -10 15l38 370h-373q-13 0 -10 14z" />
<glyph unicode="," horiz-adv-x="262" d="M-5 -272q39 68 57 152q10 43 14 101q-26 0 -38.5 13.5t-8.5 47.5q2 37 13 48.5t48 11.5q35 0 41 -10t4 -50q-7 -68 -31 -160q-27 -88 -71 -156q-10 -14 -18 -14l-7 2q-13 0 -3 14z" />
<glyph unicode="-" horiz-adv-x="744" d="M69 432v21q0 12 16 12h576q9 0 11.5 -2t2.5 -10v-21q0 -9 -2.5 -11.5t-11.5 -2.5h-576q-9 0 -12.5 2.5t-3.5 11.5z" />
<glyph unicode="." horiz-adv-x="223" d="M78 30q0 14 11 24t24 10t23 -10t10 -24t-10 -23.5t-23 -9.5t-24 9.5t-11 23.5z" />
<glyph unicode="/" horiz-adv-x="588" d="M5 19l543 1352q10 17 21 17h18q19 0 12 -17l-545 -1352q-4 -19 -21 -19h-16q-15 0 -12 19z" />
<glyph unicode="0" horiz-adv-x="1194" d="M92 661q15 146 57 268.5t111.5 219t175 151t237.5 54.5t227 -54.5t145 -151t66.5 -219t1.5 -268.5q-15 -144 -57 -264.5t-112 -215.5t-176.5 -148.5t-238.5 -53.5t-226 53.5t-143.5 148.5t-66 215.5t-1.5 264.5zM136.5 463q3.5 -94 31.5 -173.5t73.5 -137t120.5 -90 t174 -32.5q121 0 217 49.5t158 137.5t99.5 199t51.5 245q9 106 5.5 201.5t-31 176t-73 139.5t-120 92t-171.5 33q-122 0 -218.5 -50t-159 -140t-100 -202.5t-52.5 -249.5q-9 -104 -5.5 -198z" />
<glyph unicode="1" horiz-adv-x="362" d="M116 1135q0 5 5 7q70 29 117.5 84.5t61.5 104.5q0 5 14 5h19q7 0 9 -1.5t2 -8.5l-139 -1314q-2 -12 -14 -12h-23q-8 0 -10.5 2.5t-1.5 9.5l120 1142l-144 -48q-9 -3 -11 5z" />
<glyph unicode="2" horiz-adv-x="987" d="M31 12l4 28l652 597q104 95 154.5 170.5t61.5 173.5q14 135 -86.5 232t-247.5 97q-120 0 -228.5 -66t-173.5 -152q-2 -4 -8 -4t-8 4l-16 15q-7 5 0 18q87 113 204 173.5t237 60.5q163 0 276 -112t94 -272q-18 -175 -179 -324l-654 -602h718q7 0 7 -11l-3 -28 q-2 -10 -12 -10h-781q-14 0 -11 12z" />
<glyph unicode="3" horiz-adv-x="1018" d="M42 224q-5 13 1 19l25 17q10 7 14 -1q54 -106 158 -166t222 -60q99 0 177 33t123.5 87t70 111.5t31.5 117.5q7 64 -8.5 124.5t-50 110t-95.5 79t-139 29.5q-103 0 -215 -46q-16 -6 -25 3l-12 17q-7 10 2 20l614 569h-739q-14 0 -14 12l4 23q3 13 14 13h779q15 0 12 -13 l-3 -40q0 -7 -9 -16l-564 -521q82 29 177 25q106 -1 185.5 -57.5t115.5 -143.5t25 -185q-19 -180 -149.5 -291t-320.5 -111q-125 0 -233 60.5t-173 180.5z" />
<glyph unicode="4" horiz-adv-x="1015" d="M62 460l2 21q0 3 7 8q123 78 226 189t158 235q46 102 82.5 225.5t45.5 206.5q0 9 9 9h33q7 0 7 -7q-14 -135 -64 -284t-117 -261q-102 -165 -290 -309h495l14 132q0 7 9 10l33 14q8 3 8 -7l-15 -149h206q17 0 14 -14l-3 -19q0 -14 -14 -14h-209l-45 -432q-3 -14 -17 -14 h-17q-17 0 -14 14l45 432h-576q-13 0 -13 14z" />
<glyph unicode="5" horiz-adv-x="996" d="M40 236l28 21q6 4 12 -2q54 -106 154 -164t222 -58q86 0 158.5 32t119 84t74 112.5t34.5 122.5q16 152 -73 259t-227 107q-99 0 -185 -38.5t-178 -121.5l-35 9q-16 4 -16 17l75 707q3 13 16 13q172 -7 354 -7q179 0 340 7q15 0 12 -13v-20q-3 -15 -17 -15 q-207 -9 -337 -9q-131 0 -318 9l-66 -632q92 77 178 110.5t189 33.5q104 0 187 -58.5t124 -155.5t29 -208q-17 -165 -148.5 -280t-297.5 -115q-133 0 -241 63t-165 174q-6 10 -2 16z" />
<glyph unicode="6" horiz-adv-x="1056" d="M73 392q-6 89 2 188q13 116 51 227.5t101.5 210t145.5 173.5t189.5 118.5t225.5 44.5q12 0 12 -9l-3 -29q-3 -7 -11 -7q-93 0 -177.5 -27.5t-149 -74.5t-119.5 -110.5t-93 -134t-65.5 -146t-41.5 -145.5t-17 -133q59 129 183.5 214t273.5 85q177 0 287 -124t91 -302 q-18 -178 -159 -303t-329 -125q-92 0 -165 30.5t-119.5 85t-76.5 129.5t-36 164zM132 429q-11 -106 28.5 -198.5t123 -148.5t190.5 -56q103 0 199.5 50t162 138t75.5 192q17 161 -79 272.5t-258 111.5q-101 0 -200 -51t-165.5 -135t-76.5 -175z" />
<glyph unicode="7" horiz-adv-x="1010" d="M87 6q0 6 2 8l869 1270h-814q-12 0 -12 12l5 28q0 9 11 9h860q10 0 7 -10l-1 -32q-1 -1 -3 -6.5t-4 -8.5l-859 -1266q-6 -10 -16 -10h-40q-5 0 -5 6z" />
<glyph unicode="8" horiz-adv-x="1029" d="M50 347q-16 -160 90 -262t310 -102q203 0 330 102t143 262q8 74 -18 139t-71.5 106.5t-99 65t-101.5 24.5l25 4q37 10 75 27t77.5 45t71.5 62t55 81t28 99q17 158 -87.5 256t-283.5 98q-180 0 -304.5 -98t-141.5 -256q-7 -65 13.5 -121t59 -93.5t82 -62.5t89.5 -37l21 -4 q-48 0 -106.5 -23.5t-113 -65t-95 -107t-48.5 -139.5zM101 347q13 122 128.5 216.5t291.5 94.5q89 0 160.5 -27t115 -71.5t64 -100t14.5 -112.5q-17 -150 -136 -233t-283 -83q-108 0 -191 35t-129 107.5t-35 173.5zM196 1001q14 132 125 218t269 86q155 0 247 -86t79 -218 q-13 -117 -128 -206.5t-262 -89.5q-148 0 -245 89.5t-85 206.5z" />
<glyph unicode="9" horiz-adv-x="1056" d="M175 925q18 178 159.5 303.5t328.5 125.5q92 0 165 -30.5t119.5 -85t76.5 -129.5t36.5 -164t-1.5 -188q-13 -116 -51 -227.5t-101.5 -210t-145.5 -173.5t-189.5 -118.5t-226.5 -44.5q-5 0 -8 1.5t-2 6.5l3 30q0 7 11 7q108 0 203.5 37t165.5 99t126 140.5t91 166 t54.5 170t22.5 157.5q-61 -129 -185.5 -213.5t-271.5 -84.5q-179 0 -289 123.5t-91 301.5zM222 930q-17 -161 80 -272t257 -111q102 0 201 51t165 135t76 175q11 106 -28.5 198t-122 148t-189.5 56q-158 0 -290 -111.5t-149 -268.5z" />
<glyph unicode=":" horiz-adv-x="475" d="M130 207q4 28 25.5 47.5t47.5 19.5q27 0 44 -19.5t15 -47.5q-2 -27 -24 -46t-49 -19t-44 19t-15 46zM186 722q4 26 25.5 45t47.5 19t42.5 -19t14.5 -45q-2 -28 -23 -48t-48 -20t-44 19.5t-15 48.5z" />
<glyph unicode=";" horiz-adv-x="1015" d="M123 -111q43 82 58 154q9 38 13 101q-27 0 -38.5 13t-7.5 48q4 39 14 50t46 11q35 0 42 -11t3 -50q-3 -59 -31 -160q-24 -80 -71 -158q-10 -14 -19 -14l-5 2q-12 3 -4 14zM186 722q4 26 25.5 45t47.5 19t42.5 -19t14.5 -45q-2 -28 -23 -48t-48 -20t-44 19.5t-15 48.5z " />
<glyph unicode="&#x3c;" horiz-adv-x="881" d="M73 635q-3 -5 9 -12l642 -418q8 -8 12 3l2 30q3 9 -7 15l-599 394l687 400q2 2 5 8l2 31q2 7 0 8.5t-9 -2.5l-730 -422q-12 -7 -12 -10z" />
<glyph unicode="=" horiz-adv-x="1041" d="M89 392l3 21q3 14 16 14h789q15 0 12 -14l-3 -21q0 -12 -14 -12h-790q-13 0 -13 12zM137 856l4 20q2 14 15 14h790q8 0 10.5 -2.5t1.5 -11.5l-3 -20q0 -13 -13 -13h-789q-16 0 -16 13z" />
<glyph unicode="&#x3e;" horiz-adv-x="881" d="M62 203.5q1 -2.5 4 -2t7 3.5l729 420q12 7 14 10l1 25q0 4 -10 10l-644 422q-6 6 -9 -6l-3 -31q-2 -5 3 -8l603 -400l-681 -394q-7 -4 -10 -15l-4 -30q-1 -2 0 -4.5z" />
<glyph unicode="?" horiz-adv-x="805" d="M97 1177q-2 5 4 15q81 102 185.5 154.5t216.5 54.5q75 0 139 -21q78 -25 126.5 -89t59 -139.5t-16 -154t-87.5 -131.5q-50 -42 -105.5 -75t-90.5 -50t-67 -40.5t-50 -60t-24 -93.5q0 -14 -16 -14h-22q-11 0 -11 14l6 45q5 43 30 79.5t62 62.5t81 50.5t88 51t81 57t63 75 t32 98.5q5 41 0.5 79.5t-24 77.5t-52 67.5t-88.5 46.5t-129 18q-63 0 -123 -20.5t-105 -53t-75.5 -63t-52.5 -60.5q-9 -7 -14 -2zM271 42q2 17 16.5 30t31.5 13q18 0 28.5 -13t8.5 -30q-2 -18 -15.5 -31t-31.5 -13q-17 0 -28.5 13t-9.5 31z" />
<glyph unicode="@" horiz-adv-x="2025" d="M92 491q27 252 170.5 463.5t372 336t491.5 124.5q157 0 293.5 -47.5t232 -127.5t162 -181.5t93.5 -213t16 -218.5q-9 -88 -28.5 -170t-58 -166.5t-91.5 -146.5t-134 -101.5t-179 -39.5q-92 0 -135 37t-51 114q-38 -29 -83 -50q-2 -1 -21.5 -11t-31 -15.5t-35 -16 t-43.5 -17.5t-45.5 -15t-52 -13t-52.5 -7q-45 -4 -91 2.5t-91 24t-76 54.5t-36 89q-6 66 18.5 115t67.5 82.5t139.5 64t189.5 51t262 51.5q21 129 -40.5 201.5t-188.5 74.5q-145 3 -335 -87q-18 -7 -22 2l-6 18q-5 12 11 20q192 96 361 92q156 -4 222 -88.5t47 -230.5 l-16 -135q-6 -59 -8.5 -105.5t-2.5 -82t6 -61.5t11 -44t18 -30t22 -18t29 -9t32 -3.5t37 -0.5q79 0 145.5 30.5t114.5 82.5t84 124t56.5 152.5t30.5 170.5q10 102 -14.5 207t-86 202t-151.5 172.5t-222.5 121t-287.5 45.5q-185 0 -356.5 -69.5t-299 -187t-211 -278.5 t-102.5 -338q-13 -121 7 -241t75.5 -230t139.5 -196.5t208 -143.5t273 -69q12 -1 15 -4t1 -10l-2 -29q-2 -10 -36 -5q-127 13 -238 57t-193.5 111t-146 153.5t-100 185.5t-50.5 206t-3 215zM647 154q23 -56 91 -81q100 -38 251.5 10.5t247.5 117.5q-3 78 23 294 q-35 -7 -107.5 -20.5t-115 -22.5t-105.5 -23.5t-102.5 -29t-81 -34t-66 -43t-33.5 -51.5q-25 -61 -2 -117z" />
<glyph unicode="A" horiz-adv-x="1506" d="M12 12l793 1371q8 14 19 14h28q12 0 16 -14l507 -1371q3 -12 -7 -12h-33q-11 0 -14 10l-111 306h-969l-177 -306q-7 -10 -14 -10h-34q-11 0 -4 12zM267 363h924l-358 979z" />
<glyph unicode="B" horiz-adv-x="1176" d="M45 12l144 1363q0 9 2.5 11t11.5 2h533q170 0 264 -98q79 -83 79 -205q0 -22 -3 -45q-14 -128 -87 -217.5t-175 -119.5q134 -29 202 -124q58 -80 57 -182q0 -19 -2 -39q-17 -158 -151 -258t-325 -100h-539q-14 0 -11 12zM101 49h503q207 0 328 120q93 92 95 214v5 q0 120 -92 199q-100 86 -274 86h-494zM172 722h474q183 0 293 121q87 95 90 220v8q0 120 -83 196q-83 73 -222 73h-486z" />
<glyph unicode="C" horiz-adv-x="1385" d="M83 693q15 145 85.5 276.5t176.5 226t244 150t284 55.5q140 0 261.5 -49.5t208.5 -140.5q19 -22 12 -29l-20 -17q-13 -10 -25 1q-62 71 -173.5 127.5t-251.5 56.5q-135 0 -254 -41t-204 -108t-149 -153.5t-99 -176.5t-45 -178q-4 -34 -4 -69q0 -54 10 -110 q16 -90 62 -176.5t117.5 -152.5t182.5 -106.5t246 -40.5q244 0 457 182q18 16 23 15q3 -1 6 -4l17 -19q6 -9 -17 -31q-225 -193 -510 -193q-146 0 -272.5 55t-212.5 149q-87 94 -129 225q-31 97 -31 201q0 37 4 75z" />
<glyph unicode="D" horiz-adv-x="1395" d="M45 12l144 1363q0 9 2.5 11t11.5 2h477q142 0 256.5 -38.5t188.5 -103.5t121 -153q46 -87 62 -185q9 -57 9 -117q0 -42 -5 -86q-11 -105 -47 -205t-101.5 -191t-152.5 -159.5t-208 -109t-261 -40.5h-486q-14 0 -11 12zM101 49h460q123 0 232 37t189.5 100.5t141.5 147.5 t96 178t44 193q4 38 4 76q0 58 -10 114q-16 92 -59 173t-110.5 141.5t-168.5 95.5t-224 35h-463z" />
<glyph unicode="E" horiz-adv-x="1164" d="M71 12l144 1363q0 9 3 11t13 2h883q10 0 13 -2.5t3 -10.5l-4 -21q-1 -6 -2 -8.5t-4 -4t-9 -1.5h-847l-66 -630h559q10 0 13 -3t1 -14l-2 -16q0 -10 -3.5 -13t-12.5 -3h-560l-66 -612h847q17 0 14 -18l-2 -15q-2 -11 -5 -13.5t-13 -2.5h-886q-14 0 -11 12z" />
<glyph unicode="F" horiz-adv-x="1024" d="M24 14l144 1361q0 9 2.5 11t11.5 2h856q16 0 16 -13l-4 -21q-1 -6 -2 -8.5t-4.5 -4t-10.5 -1.5h-820l-65 -630h532q9 0 12 -3.5t2 -13.5l-1 -16q-1 -11 -4 -13.5t-12 -2.5h-535l-69 -649q-3 -12 -14 -12h-23q-15 0 -12 14z" />
<glyph unicode="G" horiz-adv-x="1385" d="M83 693q15 145 85.5 276.5t176.5 226t244 150t284 55.5q140 0 261.5 -49.5t208.5 -140.5q19 -22 12 -29l-20 -17q-13 -10 -25 1q-62 71 -173.5 127.5t-251.5 56.5q-135 0 -254 -41t-204 -108t-149 -153.5t-99 -176.5t-45 -178q-4 -34 -4 -69q0 -55 10 -110 q16 -91 62 -177t117.5 -152t182.5 -106.5t246 -40.5q244 0 457 182l20 207h-435q-8 0 -10.5 2.5t-1.5 9.5l1 21q0 10 3.5 13t12.5 3h470q12 0 14.5 -3t1.5 -15l-26 -248q0 -12 -21 -29q-225 -193 -510 -193q-146 0 -272.5 55t-212.5 149t-129 225q-31 97 -31 201q0 37 4 75z " />
<glyph unicode="H" horiz-adv-x="1393" d="M68 16l144 1359q0 9 2.5 11t12.5 2h19q9 0 11.5 -2t2.5 -11l-69 -663h1036l69 663q0 9 2.5 11t10.5 2h19q11 0 14 -2t3 -11l-144 -1363q-3 -12 -14 -12h-22q-16 0 -13 14l70 649h-1036l-70 -647q-1 -7 -2 -10t-4 -4.5t-9 -1.5h-19q-10 0 -13 3.5t-1 12.5z" />
<glyph unicode="I" horiz-adv-x="336" d="M80 12q-3 -12 10 -12h28q11 0 14 12l144 1363q0 8 -3 10.5t-11 2.5h-24q-9 0 -11.5 -2t-2.5 -11z" />
<glyph unicode="J" horiz-adv-x="454" d="M-69 -514q-8 14 3 18q224 110 250 340l156 1503q2 6 2.5 15t1.5 13q0 8 2.5 10.5t12.5 2.5h21q11 0 14 -3t2 -12l-162 -1547q-19 -123 -93 -216.5t-181 -145.5q-19 -9 -22 1z" />
<glyph unicode="K" horiz-adv-x="1039" d="M35 16l137 1305l5 54q0 13 12 13h23q10 0 13.5 -3t3.5 -12l-71 -663l790 670q2 1 7.5 4.5t9.5 3.5h43q5 0 7 -3t0.5 -7.5t-7.5 -8.5l-781 -663l684 -687q7 -7 3 -13t-13 -6h-31q-10 0 -20 10l-692 693l-73 -687q-1 -6 -2.5 -9.5t-4 -5t-7.5 -1.5h-26q-13 0 -10 16z" />
<glyph unicode="L" horiz-adv-x="1022" d="M52 16l144 1359q0 9 2.5 11t13.5 2h22q9 0 11.5 -2t2.5 -11l-140 -1326h772q8 0 10 -3t2 -13l-3 -19q-1 -9 -4 -11.5t-10 -2.5h-809q-14 0 -14 16z" />
<glyph unicode="M" horiz-adv-x="1857" d="M62 16l145 1359q0 5 0.5 7.5t2.5 4t7 1.5h31q11 0 16 -8l604 -1297l878 1297q5 8 17 8h32q11 0 8 -17l-142 -1355q-2 -9 -5 -12.5t-12 -3.5h-23q-15 0 -12 16l134 1274l-861 -1266q-8 -15 -19 -15h-4q-11 0 -19 15l-590 1266l-135 -1274q-2 -10 -5 -13t-13 -3h-19 q-19 0 -16 16z" />
<glyph unicode="N" horiz-adv-x="1435" d="M68 12l144 1364q0 12 10 12h24q13 0 20 -13l935 -1297l137 1302q0 8 9 8h31q9 0 9 -8l-144 -1371q-3 -9 -12 -9h-21q-10 0 -23 17l-934 1295l-137 -1300q-3 -12 -14 -12h-24q-13 0 -10 12z" />
<glyph unicode="O" horiz-adv-x="1621" d="M99 694q-4 -41 -4 -80q0 -150 62 -278q79 -162 233.5 -255t350.5 -93q194 0 368 93t286.5 255.5t133.5 357.5q4 38 4 75q1 104 -31 201q-42 131 -128 225.5t-212.5 150t-271.5 55.5q-195 0 -370 -94t-287.5 -256.5t-133.5 -356.5zM149 694q20 181 125.5 332t267.5 237.5 t343 86.5q135 0 252 -51t197 -138.5t120 -209.5q29 -90 29 -187q0 -34 -4 -70q-19 -181 -124 -332t-266.5 -237.5t-342.5 -86.5q-135 0 -252.5 51t-198 138.5t-120.5 209.5q-30 90 -29 188q-1 34 3 69z" />
<glyph unicode="P" horiz-adv-x="1150" d="M59 16l144 1359q0 9 2.5 11t13.5 2h487q121 0 211.5 -40.5t138.5 -106.5t68 -141q14 -53 13 -108q0 -23 -2 -46q-7 -63 -30 -124.5t-66 -120t-101.5 -103t-142.5 -71.5t-182 -27h-450l-52 -484q-2 -10 -4.5 -13t-11.5 -3h-22q-10 0 -13 3.5t-1 12.5zM168 548h460 q99 0 183 34t140 91t90.5 127t43.5 146q2 22 2 43q0 39 -7 75q-11 57 -40 107t-73.5 87.5t-110 59.5t-144.5 22h-460z" />
<glyph unicode="Q" horiz-adv-x="1612" d="M35 694q21 194 133.5 356.5t287.5 256.5t370 94q145 0 271.5 -55.5t212 -150t128.5 -225.5q31 -97 31 -201q0 -37 -4 -75q-15 -148 -85.5 -279t-181.5 -228l3 -6l71 -141q58 -114 78 -134q21 -21 -1 -33l-23 -12q-13 -9 -24 9l-150 281q-214 -163 -475 -163 q-196 0 -350.5 93t-233.5 255q-62 129 -62 278q0 39 4 80zM85 694q-4 -35 -4 -69q0 -98 30 -188q40 -122 120.5 -209.5t198 -138.5t252.5 -51q72 0 125 12q-49 27 -71 72q-18 36 -18 73q0 10 1 20q9 85 71 140t144 55q134 0 208 -127l31 -54q101 90 164.5 210t77.5 255 q4 35 4 70q0 97 -29 187q-40 122 -120 209.5t-197 138.5t-252 51q-181 0 -343 -86.5t-267.5 -237.5t-125.5 -332zM762 210q-1 -10 -1 -20q0 -82 91 -131q151 36 278 135l-33 63q-57 104 -175 104q-59 0 -106 -43.5t-54 -107.5z" />
<glyph unicode="R" horiz-adv-x="1187" d="M45 16l144 1359q0 9 2.5 11t13.5 2h477q103 0 184.5 -27t131.5 -71t82 -103q30 -59 40 -119q5 -35 6 -71q0 -26 -3 -53q-7 -72 -36.5 -140.5t-80.5 -131.5t-134 -107t-186 -58l317 -495q3 -5 1 -8.5t-8 -3.5h-34q-10 0 -18 14l-314 488l-40 -2h-442l-51 -484 q-1 -7 -2.5 -10t-5 -4.5t-11.5 -1.5h-19q-10 0 -13 3.5t-1 12.5zM153 548h451q105 0 192.5 34t144.5 91t91.5 127t43.5 146q2 20 2 39q0 55 -15 107q-20 70 -65.5 125.5t-126 89t-184.5 33.5h-451z" />
<glyph unicode="S" horiz-adv-x="1072" d="M43 201q-12 15 0 25l13 14q15 12 26 -2l23 -25q23 -25 55.5 -52t78.5 -56.5t110 -49t132 -19.5q89 0 162.5 20.5t121 53t81.5 76t50.5 85.5t21.5 85q1 12 1 24q0 44 -17 82q-22 48 -51.5 79t-94 63.5t-105 47.5t-123.5 43q-47 16 -70 24q-56 20 -98.5 39.5t-88 49.5 t-73.5 63.5t-44 81.5q-12 36 -11 77q0 13 1 27q7 68 39 127.5t87.5 109t144 78.5t199.5 29q199 0 381 -156q6 -4 8 -6q13 -12 4 -24l-16 -17q-6 -12 -16 -2q-1 1 -14 12.5t-29 24t-40.5 30t-55 32.5t-65 28t-77 21t-85.5 8q-181 0 -290.5 -82.5t-124.5 -212.5q-2 -14 -1 -28 q0 -30 7 -56q11 -38 36 -67.5t60.5 -54.5t82.5 -46t98.5 -40.5t111.5 -40.5q27 -9 41 -14q39 -14 67 -25t68 -30t68 -38t57.5 -47t47 -58t26.5 -70q6 -26 5 -54q0 -15 -1 -32q-18 -155 -153.5 -260.5t-338.5 -105.5q-246 0 -428 205q-3 4 -5 6z" />
<glyph unicode="T" horiz-adv-x="1221" d="M156 1354l2 19q1 10 4.5 12.5t12.5 2.5h1036q9 0 11.5 -2.5t1.5 -12.5l-2 -19q-3 -14 -14 -14h-495l-139 -1324q-1 -7 -2 -10t-3.5 -4.5t-7.5 -1.5h-21q-11 0 -14.5 3.5t-1.5 13.5l139 1323h-493q-17 0 -14 14z" />
<glyph unicode="U" horiz-adv-x="1331" d="M113 517q-3 -27 -3 -53q0 -72 20 -142q28 -94 87 -169t157.5 -120t220.5 -45q123 0 233 45t186.5 119.5t125.5 169t61 195.5l90 858q0 9 -2 11t-10 2h-24q-10 0 -13 -2t-3 -11l-88 -830q-11 -108 -53 -196.5t-99.5 -144.5t-128.5 -95t-138 -55t-130 -16q-62 0 -124.5 16 t-124.5 55t-107 95q-46 56 -68 144q-15 59 -15 128q0 33 4 69l88 830q0 9 -2.5 11t-12.5 2h-21q-11 0 -13.5 -2t-2.5 -11z" />
<glyph unicode="V" horiz-adv-x="1426" d="M126 1382q2 6 8 6h31q7 0 10 -4.5t7 -17.5l472 -1310l748 1310q1 2 3 5q11 16 18 17h33q4 0 6 -2.5t1 -8t-5 -13.5l-785 -1359q-9 -12 -19 -12h-14q-10 0 -13 12l-500 1361q-3 10 -1 16z" />
<glyph unicode="W" horiz-adv-x="1949" d="M124 1382q2 6 8 6h31q7 0 10.5 -4.5t7.5 -17.5l472 -1310l289 508l-295 804q-3 12 -0.5 18t7.5 6h32q3 0 4.5 -0.5t3 -1.5t2.5 -2t2 -3.5t1.5 -4t1.5 -5.5t2 -6l271 -751l427 748q6 10 8 13.5t5.5 6t8.5 2.5h33q3 0 4.5 -2.5t1 -8.5t-5.5 -13l-462 -802l181 -503 l748 1310q5 10 8 13.5t6.5 6.5t8.5 3h33q13 0 0 -24l-785 -1359q-9 -12 -19 -12h-14q-11 0 -14 12l-184 500l-290 -504q-9 -12 -19 -12h-14q-12 0 -15 12l-500 1361q-3 10 -1 16z" />
<glyph unicode="X" horiz-adv-x="1207" d="M-7 0q-5 0 1 9q3 4 4 7l585 677l-449 689q-2 6 3 6h47q6 0 9 -6l425 -650l560 650q4 6 11 6h45q5 0 3 -6l-595 -689l443 -677q11 -16 1 -16h-45q-10 0 -17 16l-415 637l-550 -637q-12 -16 -21 -16h-45z" />
<glyph unicode="Y" horiz-adv-x="1265" d="M97 1382q-4 6 2 6h43q7 0 11 -6l474 -750l635 750q4 6 10 6h42q3 0 4 -2t-2 -4l-667 -795l-61 -571q-3 -16 -15 -16h-21q-17 0 -14 17l61 570z" />
<glyph unicode="Z" horiz-adv-x="1095" d="M-2 16l4 24l1032 1300h-880q-8 0 -10 2.5t0 12.5l2 20q0 9 2.5 11t11.5 2h932q8 0 10.5 -2.5t1.5 -12.5l-2 -24l-1033 -1300h893q9 0 10.5 -2.5t1.5 -11.5l-2 -19q-3 -16 -19 -16h-941q-11 0 -13 3t-1 13z" />
<glyph unicode="[" horiz-adv-x="621" d="M-23 -259l193 1825l2 19q3 8 10 8h464q11 0 8 -8l-3 -30q0 -9 -7 -9h-429l-189 -1780h429q10 0 7 -9l-2 -29q0 -9 -12 -9h-464q-7 0 -7 9v13z" />
<glyph unicode="\" horiz-adv-x="571" d="M141 1371q-3 17 15 17h18q13 0 17 -17l259 -1352q3 -19 -16 -19h-16q-10 0 -12 3.5t-5 15.5z" />
<glyph unicode="]" horiz-adv-x="621" d="M-23 -272l2 29q3 9 12 9h424l189 1780h-427q-9 0 -9 9l4 30q3 8 10 8h464q11 0 8 -8l-3 -39l-188 -1780l-3 -38q0 -9 -12 -9h-464q-7 0 -7 9z" />
<glyph unicode="^" horiz-adv-x="1050" d="M64 786q-8 -8 4 -8h34q8 0 11 3l498 646l361 -641q5 -8 14 -8h31q11 0 7 10l-384 686q-6 10 -10 10h-24q-2 0 -12 -10z" />
<glyph unicode="_" horiz-adv-x="952" d="M69 -14q0 9 3.5 11.5t12.5 2.5h786q8 0 10 -2.5t2 -11.5v-17q0 -14 -12 -14h-786q-16 0 -16 14v17z" />
<glyph unicode="`" horiz-adv-x="546" d="M154 1387q-8 -8 6 -14l345 -260q8 -5 14 5l16 21q5 9 0 12l-346 264q-10 7 -17 -2z" />
<glyph unicode="a" d="M30 208q-2 -14 -2 -27q0 -79 56 -131q66 -60 192 -59q104 0 192 28.5t200 86.5q-1 -18 -3 -51.5t-2 -39t3 -15.5h30q16 0 16 26q4 212 46 514q6 39 6 74q0 102 -50 168q-68 88 -223 88q-94 0 -191 -26t-173 -65q-13 -6 -9 -22l7 -16q4 -10 21 -2q179 85 343 85 q125 0 183 -74q44 -55 45 -149q0 -31 -5 -66q-119 -20 -203 -36.5t-164.5 -38t-132.5 -45t-94 -54t-62.5 -68.5t-25.5 -85zM78 210q11 108 158 170q96 40 347 89q105 21 122 24q-28 -197 -35 -337q-204 -121 -384 -121q-98 0 -158 43q-51 37 -52 108q1 11 2 24z" />
<glyph unicode="b" horiz-adv-x="961" d="M43 10l134 1283q3 28 7 80q3 15 12 15h24q16 0 13 -17l-63 -606q150 103 328 103q78 0 148 -31t120.5 -86t75.5 -137q17 -57 17 -122q0 -28 -3 -58q-19 -190 -139.5 -317t-301.5 -127q-88 0 -173 33.5t-141 87.5l-9 -90q-3 -21 -24 -21h-18q-10 0 -7 10zM108 163 q138 -128 302 -128q158 0 269 113t128 286q3 27 3 53q0 62 -17 116q-24 76 -71.5 123t-109 72t-128.5 25q-168 0 -319 -111z" />
<glyph unicode="c" horiz-adv-x="881" d="M47 429q21 189 160 315.5t321 126.5q101 0 181.5 -45t125.5 -114q8 -16 -2 -23l-19 -14q-10 -7 -17 7q-43 63 -111 103.5t-153 40.5q-82 0 -152.5 -25t-119.5 -65.5t-85.5 -93.5t-56 -106.5t-24.5 -106.5q-2 -20 -2 -40q0 -31 5 -65q8 -54 33.5 -107t66.5 -93.5 t107 -65.5t148 -25q156 0 312 172q13 13 23 2l10 -14q7 -5 7 -8.5t-5 -10.5q-76 -83 -169.5 -134.5t-196.5 -51.5q-182 0 -294 126q-96 108 -96 262q0 26 3 53z" />
<glyph unicode="d" horiz-adv-x="947" d="M50 432q13 128 83.5 229t169.5 153t204 52q177 0 305 -101l56 528q3 28 7 80q3 15 12 15h24q15 0 12 -17l-140 -1361q-3 -10 -12 -10h-18q-22 0 -19 21l9 88q-66 -54 -158 -87.5t-181 -33.5q-121 0 -206.5 60t-122.5 160q-28 76 -28 165q0 29 3 59zM99 432q-3 -29 -3 -55 q0 -135 76 -231q90 -114 248 -113q161 0 330 128l57 549q-131 111 -297 111q-67 0 -134.5 -25t-126.5 -71.5t-100 -123t-50 -169.5z" />
<glyph unicode="e" horiz-adv-x="963" d="M47 430q-3 -27 -3 -53q0 -153 97 -261q113 -126 296 -126q203 0 372 187q10 10 2 21l-9 9q-9 12 -23 -2q-155 -170 -336 -170q-88 0 -158.5 32.5t-110.5 84.5q-42 52 -62 114q-18 54 -18 109q0 8 1 16h743q14 0 20.5 0.5t16.5 4.5t14.5 14t6.5 27q3 26 3 50 q0 148 -94 257q-109 127 -288 127t-314.5 -128t-155.5 -313zM95 434q7 64 36 130.5t79 126t129 97.5t173 38q64 0 117.5 -18.5t90 -49.5t64 -70.5t41.5 -84t19 -87.5q3 -24 3 -47q0 -18 -2 -35h-750z" />
<glyph unicode="f" horiz-adv-x="742" d="M62 826v17q3 16 18 16h172l19 182q19 175 126 265.5t263 90.5q114 0 203 -66q15 -9 8 -19l-14 -19q-8 -11 -19 -3q-80 62 -182 62q-34 0 -69 -5.5t-81.5 -25.5t-83 -52t-66 -91t-37.5 -137l-19 -182h313q7 0 9 -2.5t1 -9.5l-2 -21q-2 -8 -3.5 -10t-8.5 -2h-314l-83 -797 q0 -17 -14 -17h-24q-11 0 -11 19l83 795h-173q-8 0 -10 2.5t-1 9.5z" />
<glyph unicode="g" horiz-adv-x="1050" d="M74 205q37 25 79 25q27 0 55 -10q-37 38 -62 103q-19 52 -19 113q0 15 1 31q12 169 135.5 285t288.5 116q54 0 148 -8q62 -5 143 -5q41 0 86 1q10 0 10 -7l-4 -37q-39 -5 -97 -5q-38 0 -85 2q59 -37 95.5 -86.5t46.5 -94.5t13 -91q2 -17 2 -32q0 -25 -4 -45 q-18 -164 -139 -262q-119 -97 -281 -97h-7q-128 2 -236 80q-33 11 -63 11q-33 0 -62 -14q-57 -25 -57 -79q1 -54 63 -82.5t185 -42.5q344 -41 354 -43q46 -7 79.5 -14.5t73.5 -25t63 -40.5t35 -62q6 -21 6 -45q0 -20 -5 -43q-16 -81 -69 -143.5t-127.5 -99.5t-159.5 -55 q-81 -17 -165 -17h-9q-90 2 -161.5 21.5t-123.5 56.5t-75 98q-15 39 -15 87q0 24 4 51q15 89 73.5 149t141.5 90q-100 10 -160 49q-59 38 -59 105q0 70 64 112zM66 -305q-4 -22 -4 -42q0 -43 16 -78q23 -52 72.5 -82t111.5 -44.5t135 -14.5q179 0 312.5 74t154.5 192 q3 18 3 35q0 49 -29 79q-39 39 -161 61q-62 11 -352 45q-6 1 -13 1q-24 0 -55 -11q-40 -14 -80 -41t-72 -73.5t-39 -100.5zM175 476q-2 -17 -2 -34q0 -112 81 -196q93 -96 230 -98h4q159 0 256 88q99 90 117 240q2 21 2 41q0 124 -76 207q-88 95 -230 95 q-147 0 -256.5 -96.5t-125.5 -246.5z" />
<glyph unicode="h" horiz-adv-x="977" d="M42 16q-2 -9 1 -12.5t13 -3.5h17q9 0 12 3.5t5 12.5l66 619q99 87 197 136.5t215 49.5q148 1 214 -79q56 -68 57 -171q0 -17 -2 -36l-56 -516q0 -11 2 -15t12 -4h21q12 0 12 17l15 137l42 396q2 23 3 45q0 125 -80 193q-92 80 -240 80q-207 0 -407 -175l72 678 q3 17 -13 17h-24q-11 0 -14 -15q0 -32 -5 -75z" />
<glyph unicode="i" horiz-adv-x="296" d="M45 16q-3 -16 11 -16h26q9 0 12 14l87 831q1 8 -2 11t-11 3h-22q-8 0 -10 -2.5t-2 -11.5zM186 1347q2 14 12 23.5t26 9.5q13 0 21.5 -9.5t6.5 -23.5t-12 -24.5t-24.5 -10.5t-23 10.5t-6.5 24.5z" />
<glyph unicode="j" horiz-adv-x="262" d="M-148.5 -342.5q-1.5 -2.5 0.5 -9.5l9 -26q0 -7 14 -4q40 14 67.5 32t42.5 34t24.5 43t12 44.5t6.5 54.5l104 1017q3 16 -12 16h-21q-13 0 -16 -16l-106 -1017q-9 -82 -28 -110t-90 -54q-6 -2 -7.5 -4.5zM142 1347q2 14 12.5 23.5t26.5 9.5q13 0 21 -9.5t6 -23.5 q-2 -15 -12 -25t-24 -10t-23 10.5t-7 24.5z" />
<glyph unicode="k" horiz-adv-x="810" d="M43 16l134 1282q7 66 7 75q3 15 12 15h24q16 0 13 -17l-98 -928l511 409q10 7 17 7h43q15 0 6 -12l-518 -411l481 -424q5 -12 -7 -12h-45q-14 0 -19 9l-470 420l-44 -413q-1 -7 -2 -10t-4 -4.5t-9 -1.5h-19q-16 0 -13 16z" />
<glyph unicode="l" horiz-adv-x="314" d="M71 17q-3 -17 14 -17h19q13 0 16 16l142 1359q1 8 -1.5 10.5t-10.5 2.5h-23q-8 0 -10 -2t-2 -11z" />
<glyph unicode="m" horiz-adv-x="1721" d="M43 16l89 831q0 12 10 12h25q7 0 10.5 -4.5t1.5 -9.5l-16 -154q200 180 406 180q114 0 198.5 -50.5t110.5 -148.5q42 38 79.5 66t93.5 62t121.5 52.5t134.5 18.5q148 0 240 -82q78 -70 78 -194q0 -22 -2 -45l-42 -396q-2 -21 -6.5 -67.5t-7.5 -69.5q0 -17 -14 -17h-19 q-10 0 -12 3.5t-2 11.5v4l54 516q2 21 2 41q0 100 -54 168q-66 80 -215 80q-120 0 -220.5 -53t-201.5 -144q2 -18 2 -37.5t-2 -39.5l-40 -396l-15 -137q0 -17 -13 -17h-20q-10 0 -12 4t-2 15l55 516q2 18 2 36q0 105 -56 173q-66 80 -215 80q-117 0 -216.5 -51.5 t-196.5 -139.5l-64 -617q0 -16 -12 -16h-28q-9 0 -9 16z" />
<glyph unicode="n" horiz-adv-x="984" d="M43 16l89 831q0 12 10 12h25q7 0 10.5 -4.5t1.5 -9.5l-16 -154q202 177 406 177q148 0 240 -80q78 -69 79 -193q0 -22 -3 -45l-40 -396l-15 -137q0 -17 -13 -17h-20q-10 0 -12 4t-2 15l55 516q2 18 2 36q0 103 -56 171q-66 80 -215 79q-117 0 -217 -50.5t-196 -137.5 l-64 -617q0 -16 -12 -16h-28q-9 0 -9 16z" />
<glyph unicode="o" horiz-adv-x="1001" d="M43 429q-3 -25 -3 -50q0 -151 102 -261q118 -128 302 -128q119 0 226.5 58t178 159.5t83.5 221.5q3 26 3 51q-1 154 -101 264q-116 128 -298 129q-185 0 -329.5 -128.5t-163.5 -315.5zM94 429q18 161 144.5 279t292.5 118q108 0 193 -56q84 -55 126 -146q33 -73 34 -155 q0 -20 -2 -40q-16 -156 -142.5 -274.5t-289.5 -118.5q-110 0 -196 56t-128 146q-34 74 -34 155q0 18 2 36z" />
<glyph unicode="p" horiz-adv-x="961" d="M-10 -500l131 1264q3 31 7 79q3 16 13 16h24q15 0 12 -17l-9 -77q154 103 330 103q78 0 148 -31t120.5 -86t75.5 -137q17 -58 17 -122q0 -28 -3 -58q-19 -190 -139.5 -317t-301.5 -127q-88 0 -173 33.5t-141 87.5l-63 -600q-3 -21 -24 -21h-17q-7 0 -7 10zM106 163 q138 -128 304 -128q158 0 269 113t128 286q3 27 3 53q0 62 -17 116q-24 76 -71.5 123t-109 72t-128.5 25q-170 0 -321 -111z" />
<glyph unicode="q" horiz-adv-x="944" d="M68 432q14 128 82.5 229t166 153t202.5 52q173 0 305 -101l7 73q3 21 23 21h19q9 0 9 -10l-132 -1264q-2 -12 -3.5 -26t-3 -29.5t-2.5 -24.5q0 -15 -12 -15h-24q-12 0 -12 17l62 602q-66 -54 -158 -87.5t-180 -33.5q-120 0 -205 60.5t-120 159.5q-27 75 -27 163 q0 30 3 61zM116 432q-3 -29 -3 -57q0 -135 73 -229q88 -113 246 -113q163 0 328 128l57 549q-128 111 -295 111q-67 0 -134 -25t-124.5 -71.5t-98 -123t-49.5 -169.5z" />
<glyph unicode="r" horiz-adv-x="666" d="M52 16l89 831q0 12 10 12h24q14 0 14 -14l-12 -106q128 127 278 127q99 0 196 -68q9 -7 5 -14l-21 -26q-5 -5 -15 -1q-49 34 -90 49t-93 15q-132 0 -265 -142l-71 -663q0 -16 -12 -16h-28q-9 0 -9 16z" />
<glyph unicode="s" horiz-adv-x="786" d="M26 101q0 5 4 7l19 19q5 11 15 3q3 -4 15 -13.5t37 -24.5t55 -27.5t72.5 -22t86.5 -9.5q142 0 211 52t77 123q1 6 1 13q1 28 -11 51q-14 29 -36 48.5t-59 37t-67.5 27.5t-72.5 21q-149 40 -219 94q-63 48 -63 128q0 9 1 18q11 98 96 161.5t225 63.5q79 0 154.5 -31 t118.5 -62q7 -4 3 -14l-16 -21q-9 -7 -19 -2q-82 47 -131.5 66t-114.5 19q-77 0 -132 -19.5t-82 -50.5t-38.5 -57t-14.5 -53q-1 -6 -1 -12q0 -26 12 -50q14 -28 34 -47.5t57 -37t64.5 -26.5t70.5 -22q54 -15 90 -27t79.5 -33t68 -44t40.5 -57q12 -26 12 -55q0 -10 -2 -20 q-12 -109 -102 -168t-239 -59q-93 0 -172.5 34t-121.5 70q-5 4 -5 9z" />
<glyph unicode="t" horiz-adv-x="623" d="M92 823l2 19q0 9 14 12q33 1 48 2.5t32.5 12t24 23t16 46.5t14.5 70.5t14 107.5q0 14 10 14h25q7 0 7 -9v-3l-28 -259h260q12 0 12 -12l-1 -24q-3 -11 -16 -11h-227q-20 0 -35 5l-51 -489q-9 -94 -11 -158q0 -6 -1 -11q0 -56 24 -88q26 -35 89 -35q71 0 144 25q28 9 31 1 l4 -17q3 -12 -19 -21q-90 -33 -162 -33q-83 0 -120.5 38.5t-37.5 109.5q0 3 -1 7q0 69 10 165l54 501h-115q-13 0 -10 11z" />
<glyph unicode="u" horiz-adv-x="961" d="M50 309l42 394q2 21 6.5 67.5t7.5 69.5q7 18 12 19h21q17 0 14 -21l-54 -513q-2 -22 -3 -43q0 -98 55 -166q66 -82 215 -81q117 0 215.5 50.5t197.5 138.5l64 618q3 17 13 17h26q11 0 8 -17l-86 -832q-3 -10 -11 -10h-28q-4 0 -6.5 4t-1.5 8l15 155q-204 -179 -406 -179 q-70 0 -129.5 19.5t-105 57.5t-67.5 101q-16 45 -17 99q0 21 3 44z" />
<glyph unicode="v" horiz-adv-x="978" d="M62 854l339 -854q4 -10 16 -10h13q10 0 14 10l516 854q2 5 -5 5h-39q-10 0 -12 -5l-474 -786l-312 786q-2 5 -10 5h-40q-6 0 -6 -1q-1 -2 0 -4z" />
<glyph unicode="w" horiz-adv-x="1348" d="M70 856.5q0 1.5 1 2t4 0.5h43q4 0 7 -7l184 -781l361 772q9 9 14 9h33q10 0 10 -9l202 -772l347 781q0 1 1 3q1 4 7 4h44q4 0 1 -7l-383 -842q-6 -10 -17 -10h-13q-11 0 -13 10l-209 776l-371 -776q-6 -10 -18 -10h-12q-12 0 -14 10l-208 842q-1 3 -1 4.5z" />
<glyph unicode="x" horiz-adv-x="888" d="M28 3q-2 3 2 7l364 419l-276 420q-2 4 0 7t7 3h35q10 0 15 -9l255 -388l341 388q5 9 12 9h40q13 0 3 -10l-368 -420l280 -419q7 -10 -6 -10h-39q-7 0 -11 9l-259 387l-336 -387q-9 -9 -18 -9h-34q-5 0 -7 3z" />
<glyph unicode="y" horiz-adv-x="918" d="M-69 -524q-8 8 5 22q121 123 251 284.5t200 293.5l-298 773q-4 10 3 10h43q5 0 9 -7l276 -718l422 715q7 10 14 10h38q12 0 5 -12l-455 -772q-201 -338 -482 -615q-9 -11 -16 0z" />
<glyph unicode="z" horiz-adv-x="808" d="M24 4q-2 4 2 8l31 40l608 759h-528q-7 0 -8.5 1.5t-1.5 8.5l3 28q2 10 11 10h600q7 0 7 -9v-5l-26 -33l-609 -763h529q6 0 7.5 -2t1.5 -9l-2 -28q-2 -10 -12 -10h-606q-5 0 -7 4z" />
<glyph unicode="{" horiz-adv-x="800" d="M71 621q0 -10 11 -10q2 -1 19 -7.5t24 -9.5t23.5 -11t25 -14.5t20.5 -16.5t17.5 -20.5t9.5 -24t3 -28.5l-24 -226q-12 -119 8 -215t62 -157.5t102.5 -103t124 -58.5t131.5 -18q6 0 9 7l2 32q2 8 -6 8q-87 1 -157 27.5t-116.5 72t-75.5 107.5t-38.5 133.5t-0.5 149.5 l22 208q4 41 -6 76t-27.5 56t-39.5 35.5t-41 20.5t-33 6l1 21q13 0 33.5 6.5t46 21.5t48 37t39.5 57t21 76l26 241q10 95 46 176t96 144t149 99.5t197 37.5q4 0 8 9l4 27q0 9 -7 9q-69 0 -134.5 -13.5t-135.5 -50t-124.5 -92.5t-95 -149t-52.5 -212l-27 -257 q-3 -29 -27.5 -56t-54.5 -43t-54.5 -25.5t-33.5 -9.5q-11 0 -11 -10z" />
<glyph unicode="|" horiz-adv-x="395" d="M75 -330l218 2074q2 9 4.5 11.5t11.5 2.5h21q8 0 10.5 -2.5t1.5 -11.5l-219 -2074q0 -15 -15 -15h-21q-9 0 -10.5 2.5t-1.5 12.5z" />
<glyph unicode="}" horiz-adv-x="800" d="M-24 -292q-3 -7 5 -7q68 1 135.5 18t137.5 58.5t125 103t96 157.5t53 215l24 226q1 12 5.5 23t9 20t15 18t17 15t20.5 13.5t20.5 11t22.5 10t20 8t20.5 7.5t17.5 6q12 0 12 10l7 63q0 10 -12 10q-9 0 -31.5 9.5t-49 25.5t-44.5 43t-15 56l27 257q12 119 -9 212t-63 149 t-104.5 92.5t-125 50t-131.5 13.5q-7 0 -7 -9l-4 -27q-4 -9 7 -9q86 -1 156 -24.5t116.5 -65.5t76.5 -99.5t40 -125t3 -142.5l-26 -241q-4 -41 6 -76t27.5 -57t39 -37t40.5 -21.5t33 -6.5l-2 -21q-19 0 -45.5 -10.5t-57.5 -31.5t-54.5 -61t-29.5 -91l-21 -208 q-11 -98 -48 -185t-97 -155.5t-150 -108.5t-198 -41q-7 0 -9 -8z" />
<glyph unicode="~" horiz-adv-x="857" d="M24 495q-2 -3 2 -6q5 -7 19 -22q3 -3 9 2q1 1 12.5 13t16.5 16.5t19 16.5t23 18t24.5 15.5t29 14t31 8t35.5 3.5q27 0 50 -6.5t41.5 -20t30 -23.5t26.5 -27t18 -20q2 -2 18.5 -19t27 -25t31 -20.5t46 -18t56.5 -5.5q36 0 72 12t61.5 29t46 34t30.5 29l11 12q3 3 0 5 l-20 19q-3 5 -7 0l-1 -1q-65 -74 -145 -94q-23 -5 -44 -5q-28 0 -51 5.5t-43.5 20t-29 20.5t-26.5 27l-19 22q-23 26 -42 42.5t-55.5 32t-77.5 15.5q-36 0 -73 -12.5t-63 -30t-47.5 -34.5t-32.5 -29z" />
<glyph unicode="&#xa1;" horiz-adv-x="289" d="M2 -517l1 17l87 807q0 7 7 7h33q5 0 5 -7l-81 -807l-2 -17q0 -7 -10 -7h-33q-7 0 -7 7zM127 824q2 17 15 28.5t30 11.5t27.5 -11.5t8.5 -28.5t-15 -28.5t-30 -11.5t-27.5 11.5t-8.5 28.5z" />
<glyph unicode="&#xa2;" horiz-adv-x="1037" d="M68 434q21 190 166.5 323t331.5 133q22 0 78 -7l45 101q3 8 10 5l25 -10q6 -4 3 -11l-43 -95q135 -42 201 -151q5 -15 -3 -19l-19 -16q-11 -6 -18 7q-63 99 -179 137l-348 -775q74 -33 166 -33q181 0 333 180q14 11 18 2l15 -14q7 -9 -1 -19q-78 -87 -176 -141t-203 -54 q-91 0 -171 37l-63 -141q-7 -7 -12 -5l-24 12q-8 3 -6 9l66 144q-100 59 -152.5 165.5t-39.5 235.5zM113 434q-9 -96 32 -198.5t134 -159.5l346 764q-28 5 -54 5q-86 0 -160.5 -27.5t-125.5 -71t-89.5 -99t-58 -109.5t-24.5 -104z" />
<glyph unicode="&#xa3;" horiz-adv-x="1039" d="M83 9l4 29q82 100 150 226.5t79 224.5q4 49 0 94h-221q-10 0 -10 11l4 24q0 12 10 12h212q-7 42 -23 76l-35 84q-23 52 -33 79t-17.5 67t-4.5 79q10 117 77 209t168.5 140.5t217.5 48.5q61 0 114.5 -12.5t88 -29t67 -42t46.5 -40.5t31 -36q10 -10 2 -14l-21 -19 q-10 -7 -14 -5q-1 1 -18 20t-41 39t-59.5 42t-88 36t-112.5 14q-163 0 -277 -102.5t-129 -237.5q0 -29 -1.5 -45t4.5 -40.5t9 -37.5t12.5 -35.5t15 -35t16.5 -35.5t17 -37q29 -59 40 -130h389q10 0 10 -12l-5 -24q0 -7 -2 -9t-9 -2h-378q3 -38 -2 -101 q-13 -119 -85.5 -246.5t-132.5 -188.5h685q7 0 7 -11l-3 -27q-3 -9 -11 -9h-734q-12 0 -9 9z" />
<glyph unicode="&#xa4;" horiz-adv-x="1083" d="M45 358q-5 5 4 10l140 128q-99 131 -81 302q18 177 149 308l-115 128q-5 5 0 10l23 21q5 3 12 -1l113 -129q144 120 321 120q175 0 293 -118l139 127q7 4 11 1l19 -21q3 -3 -4 -10l-137 -127q107 -133 89 -309q-18 -171 -150 -303l113 -127q9 -6 2 -10l-23 -21 q-6 -6 -10 1l-113 127q-144 -123 -325 -123q-180 0 -300 125l-140 -129q-6 -10 -11 -1zM151 802q-18 -174 88.5 -295.5t281.5 -121.5q111 0 212 55.5t167 151.5t79 210q18 172 -91.5 290.5t-280.5 118.5q-175 0 -306.5 -118t-149.5 -291z" />
<glyph unicode="&#xa5;" horiz-adv-x="1254" d="M99 1382q-4 6 3 6h42q6 0 10 -6l476 -750l632 750q4 6 10 6h42q2 0 3.5 -2t-0.5 -4l-668 -795l-7 -72h278q9 0 12 -3t2 -10l-2 -21q0 -12 -16 -12h-279l-19 -177h279q17 0 14 -14l-3 -21q-2 -12 -16 -12h-278l-24 -229q-3 -16 -16 -16h-20q-17 0 -14 17l24 228h-278 q-9 0 -11.5 2.5t-0.5 9.5l2 21q3 14 16 14h276l19 177h-276q-14 0 -14 12l3 21q1 5 2.5 7.5t4 4t7.5 1.5h278l7 72z" />
<glyph unicode="&#xa6;" horiz-adv-x="395" d="M75 -330l88 832q0 9 2.5 11t11.5 2h21q6 0 8.5 -0.5t4 -3.5t1.5 -9l-89 -832q0 -15 -15 -15h-21q-9 0 -10.5 2.5t-1.5 12.5zM207 916l86 832q2 9 4.5 11.5t11.5 2.5h21q8 0 10.5 -2.5t1.5 -11.5l-87 -832q-1 -9 -4 -12t-11 -3h-21q-9 0 -11.5 3t-0.5 12z" />
<glyph unicode="&#xa7;" horiz-adv-x="1089" d="M-14 -314q-5 8 2 21l19 17q8 8 14 4q22 -28 52.5 -56.5t82.5 -66t123.5 -61t147.5 -23.5q107 0 204 39.5t165.5 120t79.5 184.5q5 47 -9.5 88t-39 70t-65.5 55t-78 42t-89 31.5t-86 23t-80 16.5q-78 15 -136 36t-111 58.5t-77.5 98.5t-15.5 142q9 88 48 150t123 112 q-65 38 -96.5 95.5t-21.5 147.5q7 69 42.5 135.5t95.5 122.5t152 90t200 34q195 0 381 -164q4 -3 6 -5q11 -9 3 -19l-21 -20q-5 -9 -15 -2q-172 163 -372 163q-164 0 -286.5 -96.5t-136.5 -238.5q-4 -39 2.5 -71.5t18.5 -56t37.5 -44.5t46.5 -34t58 -27t60 -20.5t66 -18.5 t62 -18q176 -51 250 -87q202 -99 188 -277q-1 -3 -1 -6q-18 -173 -153 -272q113 -93 99 -234q-16 -156 -158.5 -274.5t-336.5 -118.5q-255 0 -438 208q-2 1 -2.5 2t-1.5 2zM137 526q-7 -62 13 -111t51.5 -77.5t87 -51.5t96 -33t103.5 -22q187 -37 295 -103q132 92 147 243 q5 43 -7.5 81t-32 65.5t-57.5 53.5t-68 42t-81.5 34t-79 25.5t-78.5 21.5q-30 8 -44 12q-120 34 -168 54q-160 -63 -177 -234z" />
<glyph unicode="&#xa8;" horiz-adv-x="735" d="M158 1342q2 16 14.5 27t28.5 11q18 0 28.5 -11t8.5 -27q-1 -17 -14 -28.5t-30 -11.5t-27.5 11.5t-8.5 28.5zM654 1342q2 16 15 27t29 11q18 0 28 -11t8 -27q-2 -17 -14 -28.5t-29 -11.5t-27.5 11.5t-9.5 28.5z" />
<glyph unicode="&#xa9;" horiz-adv-x="1568" d="M80 699q15 146 85.5 278.5t176 228.5t244 152.5t284.5 56.5t272.5 -56.5t212 -152.5t128 -228.5t27.5 -278.5q-21 -195 -134 -359.5t-287.5 -260t-369.5 -95.5q-146 0 -272.5 56.5t-212 152t-127.5 228t-27 278.5zM137 701q-15 -134 24.5 -256t118.5 -210t195.5 -140.5 t249.5 -52.5q178 0 338.5 88.5t265 240t124.5 330.5q19 178 -54 329.5t-214.5 239t-318.5 87.5q-179 0 -340 -87.5t-265.5 -239t-123.5 -329.5zM476 710q14 136 120.5 232t241.5 96q74 0 135.5 -34.5t95.5 -87.5q3 -10 -2 -13l-31 -23q-3 -2 -5 -2h-2.5t-2 2.5t-2.5 4.5 q-26 44 -74.5 71.5t-109.5 27.5q-73 0 -132.5 -27.5t-95 -70.5t-56 -88t-25.5 -88q-3 -34 2.5 -70.5t22.5 -74t45 -67t74.5 -48t105.5 -18.5q125 0 226 118q8 6 14 2l22 -19q5 -3 0 -16q-127 -140 -274 -140q-135 0 -221 97t-72 236z" />
<glyph unicode="&#xaa;" d="M30 208q-11 -98 54.5 -157.5t191.5 -59.5q104 0 192 28.5t200 86.5q-1 -18 -3 -51.5t-2 -39t3 -15.5h30q16 0 16 26q4 212 46 514q23 153 -44.5 241.5t-222.5 88.5q-94 0 -191 -26t-173 -65q-13 -6 -9 -22l7 -16q4 -10 21 -2q179 85 343 85q125 0 183.5 -73.5 t39.5 -215.5q-119 -20 -203 -36.5t-164.5 -38t-132.5 -45t-94 -54t-62.5 -68.5t-25.5 -85zM78 210q11 108 158 170q96 40 347 89q105 21 122 24q-28 -197 -35 -337q-204 -121 -384 -121q-98 0 -158 43t-50 132z" />
<glyph unicode="&#xab;" horiz-adv-x="796" d="M57 399q-2 -17 5 -26l247 -352q5 -5 9 -5h46q4 0 5.5 2t-1.5 6l-262 377l342 364q2 2 1 5.5t-3 3.5h-43q-9 0 -12 -5l-323 -346q-9 -7 -11 -24zM333 399q-2 -17 5 -26l247 -350q7 -7 9 -7h46q11 0 6 8l-266 377l344 364q0 9 -4 9h-41q-10 0 -13 -3l-322 -348 q-9 -7 -11 -24z" />
<glyph unicode="&#xac;" horiz-adv-x="1041" d="M75 653l1 20q0 13 18 13h862q7 0 9 -2.5t2 -10.5l-2 -20v-2l-42 -387q0 -14 -15 -14h-19q-8 0 -10.5 3t-2.5 11l40 375h-829q-15 0 -12 14z" />
<glyph unicode="&#xad;" horiz-adv-x="744" d="M69 432v21q0 12 16 12h576q9 0 11.5 -2t2.5 -10v-21q0 -9 -2.5 -11.5t-11.5 -2.5h-576q-9 0 -12.5 2.5t-3.5 11.5z" />
<glyph unicode="&#xae;" horiz-adv-x="1039" d="M80 1126q23 204 182.5 348.5t364.5 144.5q135 0 241.5 -66t160 -179.5t38.5 -247.5q-14 -135 -91.5 -248.5t-198 -179.5t-255.5 -66t-241.5 66t-160.5 179.5t-40 248.5zM118 1125q-13 -123 37 -228t148.5 -166t222.5 -61q189 0 336 133.5t167 321.5q21 189 -98.5 322.5 t-307.5 133.5q-190 0 -337 -133t-168 -323zM378 894l51 468q0 5 4.5 9.5t9.5 4.5h204q68 0 108 -46.5t33 -104.5q-4 -52 -43.5 -95.5t-95.5 -55.5l97 -177q5 -14 -10 -14h-24q-5 0 -9 6l-99 182h-163l-19 -177q0 -4 -4 -7.5t-8 -3.5h-19q-5 0 -9 3.5t-4 7.5zM444 1113h169 q73 0 109 55.5t12 111t-99 55.5h-168z" />
<glyph unicode="&#xaf;" horiz-adv-x="888" d="M142 1290l2 20q0 13 12 13h724q14 0 14 -13l-2 -20q-3 -13 -17 -13h-722q-14 0 -11 13z" />
<glyph unicode="&#xb0;" horiz-adv-x="683" d="M198 1161q7 82 74 141.5t150 59.5q84 0 138 -59.5t46 -141.5q-9 -86 -76 -147t-152 -61q-84 0 -136.5 60.5t-43.5 147.5zM238 1161q-8 -68 34.5 -117.5t109.5 -49.5q69 0 122.5 49.5t61.5 117.5q7 66 -36.5 114t-111.5 48q-67 0 -121 -48.5t-59 -113.5z" />
<glyph unicode="&#xb1;" horiz-adv-x="1024" d="M42 14l1 19q0 14 18 14h789q7 0 9 -2t2 -10l-2 -21q-2 -14 -16 -14h-789q-8 0 -10.5 2.5t-1.5 11.5zM123 795l4 22q0 13 12 13h371l40 371q2 14 16 14h21q9 0 11 -2.5t1 -11.5l-40 -371h370q15 0 15 -13l-3 -22q-2 -12 -16 -12h-370l-40 -372q0 -14 -15 -14h-21 q-12 0 -12 14l40 372h-372q-9 0 -11 2.5t-1 9.5z" />
<glyph unicode="&#xb2;" horiz-adv-x="987" d="M31 12l4 28l652 597q104 95 154.5 170.5t61.5 173.5q14 135 -86.5 232t-247.5 97q-120 0 -228.5 -66t-173.5 -152q-2 -4 -8 -4t-8 4l-16 15q-7 5 0 18q87 113 204 173.5t237 60.5q163 0 276 -112t94 -272q-18 -175 -179 -324l-654 -602h718q7 0 7 -11l-3 -28 q-2 -10 -12 -10h-781q-14 0 -11 12z" />
<glyph unicode="&#xb3;" horiz-adv-x="1018" d="M42 224q-5 13 1 19l25 17q10 7 14 -1q54 -106 158 -166t222 -60q99 0 177 33t123.5 87t70 111.5t31.5 117.5q7 64 -8.5 124.5t-50 110t-95.5 79t-139 29.5q-103 0 -215 -46q-16 -6 -25 3l-12 17q-7 10 2 20l614 569h-739q-14 0 -14 12l4 23q3 13 14 13h779q15 0 12 -13 l-3 -40q0 -7 -9 -16l-564 -521q82 29 177 25q106 -1 185.5 -57.5t115.5 -143.5t25 -185q-19 -180 -149.5 -291t-320.5 -111q-125 0 -233 60.5t-173 180.5z" />
<glyph unicode="&#xb4;" horiz-adv-x="616" d="M123 1139l12 -21q5 -9 14 -5l399 260q13 6 11 14l-16 26q-4 10 -15 2l-401 -264q-8 -5 -4 -12z" />
<glyph unicode="&#xb6;" horiz-adv-x="1565" d="M115 951q8 77 45.5 153.5t98 140t150 103.5t190.5 40h953q18 0 15 -17l-1 -12q-3 -19 -20 -19h-253l-141 -1324q-3 -16 -15 -16h-21q-15 0 -12 16l140 1324h-368l-140 -1324q-3 -16 -16 -16h-21q-15 0 -12 16l52 484h-234q-102 0 -182.5 39t-127.5 103.5t-68 144.5 t-12 164zM164 933q-12 -154 75 -262q100 -124 294 -124h210l85 793h-214q-206 0 -335 -140q-103 -113 -115 -267z" />
<glyph unicode="&#xb7;" horiz-adv-x="241" d="M87 524q0 13 10.5 24t23.5 11t23 -11t10 -24q0 -14 -10 -24.5t-23 -10.5t-23.5 10.5t-10.5 24.5z" />
<glyph unicode="&#xb8;" horiz-adv-x="588" d="M-31 -456l8 8q2 1 5 3.5t4 3.5t3.5 2.5t3.5 1.5h3t3.5 -1.5t2.5 -4.5q23 -32 64 -56.5t90 -24.5q92 0 151 54t66 133q8 78 -37 132t-131 54q-46 0 -80.5 -17t-77.5 -58q-16 -14 -23 -7l-12 14q-4 3 0 7l7 11l153 201h45l-97 -128q40 17 92 17q91 0 149.5 -65.5 t49.5 -160.5q-11 -93 -84.5 -160t-168.5 -67q-63 0 -112.5 27t-76.5 68q-4 10 0 13z" />
<glyph unicode="&#xb9;" horiz-adv-x="362" d="M116 1135q0 5 5 7q70 29 117.5 84.5t61.5 104.5q0 5 14 5h19q7 0 9 -1.5t2 -8.5l-139 -1314q-2 -12 -14 -12h-23q-8 0 -10.5 2.5t-1.5 9.5l120 1142l-144 -48q-9 -3 -11 5z" />
<glyph unicode="&#xba;" horiz-adv-x="1001" d="M43 429q-19 -183 98.5 -311t302.5 -128q119 0 226.5 58t178 159.5t83.5 221.5q19 187 -97.5 315.5t-298.5 128.5q-185 0 -329.5 -128.5t-163.5 -315.5zM94 429q18 161 144.5 279t292.5 118q108 0 193 -55.5t126.5 -146.5t31.5 -195q-16 -156 -142.5 -274.5t-289.5 -118.5 q-110 0 -196 56t-127.5 146t-32.5 191z" />
<glyph unicode="&#xbb;" horiz-adv-x="796" d="M26 24q-5 -8 4 -8h46q4 0 9 7l323 350q9 9 10.5 26t-5.5 24l-250 348q-3 3 -10 3h-44q-3 0 -3 -9l264 -364zM302 24q-5 -8 3 -8h47q4 0 9 5l323 352q9 9 10.5 26t-5.5 24l-250 346q-3 5 -12 5h-42q-3 0 -4 -3.5t1 -5.5l264 -364z" />
<glyph unicode="&#xbc;" horiz-adv-x="1287" d="M87 1191q0 3 3 5q66 29 106.5 83.5t48.5 102.5q0 5 8 5h19q13 0 13 -9v-590q0 -10 -14 -10h-18h-5t-4 0.5t-2.5 2l-1 3t-0.5 4.5v423l-138 -46q-6 -2 -8 3zM229 19l745 1352q2 2 4 5l3 4.5t2.5 3.5t3 2.5t3.5 1t4 0.5h13q21 0 14 -17l-749 -1354q-1 -3 -2.5 -5.5t-2.5 -4 t-2 -3.5t-2 -2.5t-3 -1t-5 -0.5h-14q-20 0 -12 19zM807 194v28q0 1 4 5q51 33 93 85t61 111q35 102 35 195q0 5 5 5h33q3 0 3 -3q0 -60 -18 -134.5t-42 -124.5q-34 -69 -110 -134h186v61q0 5 3 5l35 7q5 0 5 -3v-70h96q4 0 4.5 -0.5t0.5 -4.5v-28q0 -10 -5 -10h-96v-179 q0 -5 -7 -5h-29q-7 0 -7 5v179h-245q-5 0 -5 10z" />
<glyph unicode="&#xbd;" horiz-adv-x="1286" d="M87 1191q0 3 3 5q66 29 106.5 83.5t48.5 102.5q0 5 8 5h19q13 0 13 -9v-590q0 -10 -14 -10h-18h-5t-4 0.5t-2.5 2l-1 3t-0.5 4.5v423l-138 -46q-6 -2 -8 3zM229 19l745 1352q2 2 4 5l3 4.5t2.5 3.5t3 2.5t3.5 1t4 0.5h13q21 0 14 -17l-749 -1354q-1 -3 -2.5 -5.5t-2.5 -4 t-2 -3.5t-2 -2.5t-3 -1t-5 -0.5h-14q-20 0 -12 19zM812 5v26l4 4l265 272q51 56 63 80q15 30 15 66q0 55 -46.5 95t-112.5 40q-96 0 -155 -90q-4 -3 -7 0l-22 17q-4 5 -2 7q56 86 147.5 104.5t163.5 -36.5q69 -53 74 -130.5t-64 -150.5l-257 -266h313q3 0 3 -3v-35 q0 -5 -3 -5h-374q-5 0 -5 5z" />
<glyph unicode="&#xbe;" horiz-adv-x="1272" d="M73 871q-4 4 0 7l22 21q4 4 7 0q53 -85 142.5 -97t149.5 57q26 28 27 77.5t-23.5 92t-77 62.5t-133.5 -11l-1 1l-2 5l-19 20q-3 3 0 5l241 234h-314q-7 0 -7 7v28q4 8 7 8h359q7 0 7 -8v-37q0 -3 -2 -5l-213 -205q52 10 98 -6t73.5 -50.5t42 -76.5t7.5 -86.5t-35 -78.5 q-41 -49 -106 -67t-135 8t-115 95zM229 19l746 1352q5 8 6 10t4.5 4.5t8.5 2.5h14q20 0 13 -17l-747 -1354q-3 -3 -5 -7.5t-3.5 -6t-4 -2.5t-6.5 -1h-12q-22 0 -14 19zM807 194v28q0 1 4 5q51 33 93 85t61 111q35 102 35 195q0 5 5 5h33q5 0 5 -3q0 -60 -18 -134t-43 -125 q-35 -72 -111 -134h186v61q0 5 3 5l37 7q3 0 3 -3v-70h96q7 0 7 -5v-28q0 -10 -7 -10h-96v-179q0 -5 -7 -5h-29q-7 0 -7 5v179h-245q-5 0 -5 10z" />
<glyph unicode="&#xbf;" horiz-adv-x="798" d="M-44.5 -175q-10.5 75 16 154t87.5 132q50 42 105.5 75t90.5 50t67 40t50 59.5t24 93.5q0 9 2.5 11.5t9.5 2.5h24q7 0 9.5 -2.5t2.5 -11.5l-5 -45q-6 -59 -51 -105t-105.5 -79t-121 -68.5t-107 -91.5t-54.5 -130q-6 -52 5 -99.5t41 -92t93.5 -71.5t153.5 -27 q64 0 124 20.5t105 53t76 63.5t53 62q9 9 12 0l21 -20q3 -3 -2 -16q-108 -134 -253.5 -182.5t-287.5 -3.5q-78 25 -126.5 89t-59 139zM427 935q2 18 15.5 32t31.5 14q17 0 28.5 -14t9.5 -32q-2 -17 -16.5 -29t-32.5 -12t-28 12t-8 29z" />
<glyph unicode="&#xc0;" horiz-adv-x="1506" d="M12 12l793 1371q8 14 19 14h28q12 0 16 -14l507 -1371q3 -12 -7 -12h-33q-11 0 -14 10l-111 306h-969l-177 -306q-7 -10 -14 -10h-34q-11 0 -4 12zM267 363h924l-358 979zM684 1855l17 26q7 10 18 2l345 -264q5 -3 0 -12l-16 -21q-6 -10 -14 -5l-345 260q-13 6 -5 14z " />
<glyph unicode="&#xc1;" horiz-adv-x="1506" d="M12 12l793 1371q8 14 19 14h28q12 0 16 -14l507 -1371q3 -12 -7 -12h-33q-11 0 -14 10l-111 306h-969l-177 -306q-7 -10 -14 -10h-34q-11 0 -4 12zM267 363h924l-358 979zM620 1607q-4 7 3 12l401 264q12 8 16 -2l15 -26q2 -9 -10 -14l-399 -260q-9 -4 -14 5z" />
<glyph unicode="&#xc2;" horiz-adv-x="1506" d="M12 12l793 1371q8 14 19 14h28q12 0 16 -14l507 -1371q3 -12 -7 -12h-33q-11 0 -14 10l-111 306h-969l-177 -306q-7 -10 -14 -10h-34q-11 0 -4 12zM267 363h924l-358 979zM498 1550l4 31q1 1 3 6.5t4 7.5l352 260q11 7 27 7t25 -7l297 -260q7 -7 3 -14l-2 -31 q-3 -11 -13 -5l-316 269l-372 -269q-5 -3 -9 -1.5t-3 6.5z" />
<glyph unicode="&#xc3;" horiz-adv-x="1506" d="M12 12l793 1371q8 14 19 14h28q12 0 16 -14l507 -1371q3 -12 -7 -12h-33q-11 0 -14 10l-111 306h-969l-177 -306q-7 -10 -14 -10h-34q-11 0 -4 12zM267 363h924l-358 979zM479 1703q-5 5 2 12q4 5 10.5 13t29.5 28t47 35.5t61.5 28.5t75.5 13q51 0 91.5 -16.5t68 -40.5 t53.5 -48t60.5 -40.5t76.5 -16.5q104 0 193 89q1 1 3.5 2t4.5 1t2 -1l18 -19q3 -3 -2 -11q-3 -5 -10 -12t-28.5 -26.5t-45.5 -34t-60.5 -26.5t-74.5 -12q-52 0 -91.5 17t-65.5 40.5t-51.5 47.5t-61.5 41t-82 17t-91 -20.5t-62 -35.5t-43 -41q-7 -7 -14 -2z" />
<glyph unicode="&#xc4;" horiz-adv-x="1506" d="M12 12l793 1371q8 14 19 14h28q12 0 16 -14l507 -1371q3 -12 -7 -12h-33q-11 0 -14 10l-111 306h-969l-177 -306q-7 -10 -14 -10h-34q-11 0 -4 12zM267 363h924l-358 979zM595 1810q2 16 15 27t29 11q18 0 28 -11t8 -27q-2 -17 -14 -28.5t-29 -11.5t-27.5 11.5t-9.5 28.5 zM1092 1810q2 16 14.5 27t28.5 11q18 0 28.5 -11t8.5 -27q-1 -17 -14 -28.5t-30 -11.5t-27.5 11.5t-8.5 28.5z" />
<glyph unicode="&#xc5;" horiz-adv-x="1506" d="M12 12l793 1371q8 14 19 14h28q12 0 16 -14l507 -1371q3 -12 -7 -12h-33q-11 0 -14 10l-111 306h-969l-177 -306q-7 -10 -14 -10h-34q-11 0 -4 12zM267 363h924l-358 979zM663 1668q9 85 75 144t151 59q83 0 136 -59t44 -144q-9 -87 -74.5 -147t-149.5 -60q-85 0 -138 60 t-44 147zM706 1668q-7 -68 35.5 -115t108.5 -47q68 0 120 46.5t59 115.5q7 67 -35 113.5t-109 46.5q-66 0 -119 -47t-60 -113z" />
<glyph unicode="&#xc6;" horiz-adv-x="1990" d="M-52 12l1017 1361q11 15 21 15h918q9 0 11.5 -2.5t2.5 -10.5l-2 -21q-3 -14 -17 -14h-847l-66 -630h560q9 0 11.5 -3.5t1.5 -13.5l-2 -16q0 -10 -3.5 -13t-12.5 -3h-560l-66 -612h847q9 0 12 -3.5t3 -14.5l-3 -15q-2 -10 -4.5 -13t-11.5 -3h-888q-7 0 -9 2q-5 3 -5 10 l24 222h-710l-167 -224q-6 -10 -13 -10h-39q-10 0 -3 12zM207 283h676l113 1055z" />
<glyph unicode="&#xc7;" horiz-adv-x="1385" d="M83 693q15 145 85.5 276.5t176.5 226t244 150t284 55.5q140 0 261.5 -49.5t208.5 -140.5q19 -22 12 -29l-20 -17q-13 -10 -25 1q-62 71 -173.5 127.5t-251.5 56.5q-135 0 -254 -41t-204 -108t-149 -153.5t-99 -176.5t-45 -178q-10 -89 6 -179.5t62 -176.5t117.5 -152 t182.5 -106.5t246 -40.5q244 0 457 182q18 16 23 15q3 -1 6 -4l17 -19q6 -9 -17 -31q-225 -193 -510 -193l-44 2l-88 -118q40 17 92 17q91 0 149.5 -65.5t49.5 -160.5q-11 -93 -84.5 -160t-168.5 -67q-63 0 -112.5 27t-76.5 68q-4 10 0 13l9 8q2 2 4.5 4t4 3t3.5 2.5 t3.5 1.5t3 -0.5t3 -1.5t2.5 -4q23 -32 64 -56.5t90 -24.5q92 0 151 54t66 133q8 78 -37 132t-131 54q-46 0 -80.5 -17t-77.5 -58q-16 -14 -23 -7l-12 14q-4 3 0 7l7 11l148 194q-265 32 -424.5 230.5t-131.5 469.5z" />
<glyph unicode="&#xc8;" horiz-adv-x="1164" d="M71 12l144 1363q0 9 3 11t13 2h883q10 0 13 -2.5t3 -10.5l-4 -21q-1 -6 -2 -8.5t-4 -4t-9 -1.5h-847l-66 -630h559q10 0 13 -3t1 -14l-2 -16q0 -10 -3.5 -13t-12.5 -3h-560l-66 -612h847q17 0 14 -18l-2 -15q-2 -11 -5 -13.5t-13 -2.5h-886q-14 0 -11 12zM522 1857l18 26 q7 9 17 2l346 -264q5 -3 0 -12l-16 -21q-6 -10 -14 -5l-345 260q-14 6 -6 14z" />
<glyph unicode="&#xc9;" horiz-adv-x="1164" d="M71 12l144 1363q0 9 3 11t13 2h883q10 0 13 -2.5t3 -10.5l-4 -21q-1 -6 -2 -8.5t-4 -4t-9 -1.5h-847l-66 -630h559q10 0 13 -3t1 -14l-2 -16q0 -10 -3.5 -13t-12.5 -3h-560l-66 -612h847q17 0 14 -18l-2 -15q-2 -11 -5 -13.5t-13 -2.5h-886q-14 0 -11 12zM456 1609 q-4 7 4 12l401 264q11 8 15 -2l16 -26q2 -9 -10 -14l-400 -260q-8 -3 -13 5z" />
<glyph unicode="&#xca;" horiz-adv-x="1164" d="M71 12l144 1363q0 9 3 11t13 2h883q10 0 13 -2.5t3 -10.5l-4 -21q-1 -6 -2 -8.5t-4 -4t-9 -1.5h-847l-66 -630h559q10 0 13 -3t1 -14l-2 -16q0 -10 -3.5 -13t-12.5 -3h-560l-66 -612h847q17 0 14 -18l-2 -15q-2 -11 -5 -13.5t-13 -2.5h-886q-14 0 -11 12zM335 1552l3 31 q1 1 3 6.5t4 7.5l353 260q10 7 26.5 7t25.5 -7l297 -260q7 -7 3 -14l-2 -31q-4 -12 -14 -6l-315 269l-372 -269q-5 -2 -9 -0.5t-3 6.5z" />
<glyph unicode="&#xcb;" horiz-adv-x="1164" d="M71 12l144 1363q0 9 3 11t13 2h883q10 0 13 -2.5t3 -10.5l-4 -21q-1 -6 -2 -8.5t-4 -4t-9 -1.5h-847l-66 -630h559q10 0 13 -3t1 -14l-2 -16q0 -10 -3.5 -13t-12.5 -3h-560l-66 -612h847q17 0 14 -18l-2 -15q-2 -11 -5 -13.5t-13 -2.5h-886q-14 0 -11 12zM432 1812 q2 16 15 27t29 11q18 0 28 -11t8 -27q-2 -17 -14 -28.5t-29 -11.5t-27.5 11.5t-9.5 28.5zM929 1812q2 16 14.5 27t28.5 11q18 0 28 -11t8 -27q-2 -17 -14 -28.5t-29 -11.5t-27.5 11.5t-8.5 28.5z" />
<glyph unicode="&#xcc;" horiz-adv-x="336" d="M80 12q-3 -12 10 -12h28q11 0 14 12l144 1363q0 8 -3 10.5t-11 2.5h-24q-9 0 -11.5 -2t-2.5 -11zM97 1845q-8 -8 5 -14l346 -260q8 -5 14 5l15 21q5 9 0 12l-345 264q-10 7 -17 -2z" />
<glyph unicode="&#xcd;" horiz-adv-x="336" d="M31 1597l12 -21q5 -9 14 -5l399 260q13 6 11 14l-16 26q-4 10 -15 2l-401 -264q-8 -5 -4 -12zM80 12q-3 -12 10 -12h28q11 0 14 12l144 1363q0 8 -3 10.5t-11 2.5h-24q-9 0 -11.5 -2t-2.5 -11z" />
<glyph unicode="&#xce;" horiz-adv-x="336" d="M-90 1538q-1 -5 3 -6.5t9 1.5l371 269l316 -269q11 -6 14 5l2 31q4 6 -4 14l-296 260q-9 7 -26 7t-27 -7l-352 -260q-2 -2 -4 -7.5t-3 -6.5zM80 12q-3 -12 10 -12h28q11 0 14 12l144 1363q0 8 -3 10.5t-11 2.5h-24q-9 0 -11.5 -2t-2.5 -11z" />
<glyph unicode="&#xcf;" horiz-adv-x="336" d="M7 1800q2 16 14.5 27t28.5 11q18 0 28.5 -11t8.5 -27q-1 -17 -14 -28.5t-30 -11.5t-27.5 11.5t-8.5 28.5zM80 12q-3 -12 10 -12h28q11 0 14 12l144 1363q0 8 -3 10.5t-11 2.5h-24q-9 0 -11.5 -2t-2.5 -11zM503 1800q2 16 15 27t29 11q18 0 28 -11t8 -27q-2 -17 -14 -28.5 t-29 -11.5t-27.5 11.5t-9.5 28.5z" />
<glyph unicode="&#xd0;" horiz-adv-x="1411" d="M35 684v17q0 18 14 18h92l69 656q0 9 2.5 11t11.5 2h477q142 0 256.5 -38.5t188.5 -103.5t120.5 -153t62 -185.5t4.5 -202.5t-47.5 -205t-101.5 -191t-152.5 -159.5t-208.5 -109t-261 -40.5h-486q-13 0 -10 12l69 658h-88q-12 0 -12 14zM121 49h460q123 0 232 37 t189.5 100.5t141.5 147.5t96 178t44 193q13 124 -16 236t-96 202t-184.5 143.5t-270.5 53.5h-464l-64 -621h403q13 0 10 -13v-24q0 -12 -12 -12h-404z" />
<glyph unicode="&#xd1;" horiz-adv-x="1435" d="M68 12l144 1364q0 12 10 12h24q13 0 20 -13l935 -1297l137 1302q0 8 9 8h31q9 0 9 -8l-144 -1371q-3 -9 -12 -9h-21q-10 0 -23 17l-934 1295l-137 -1300q-3 -12 -14 -12h-24q-13 0 -10 12zM450 1673l13 -17q8 -5 14 1q16 16 23 22.5t29 24t40 26.5t46.5 17t57.5 8 q46 0 82.5 -17t61.5 -40.5t51.5 -47.5t66 -41t91.5 -17q38 0 74 11.5t61 28t44.5 32.5t28.5 28l10 11q5 7 2 10l-17 19q0 1 -2 1t-5 -1t-4 -2q-88 -88 -192 -88q-42 0 -76.5 16.5t-61 40t-54 47.5t-68 40.5t-91.5 16.5q-38 0 -75 -12t-62.5 -29.5t-46 -35t-30.5 -29.5 l-10 -12q-7 -7 -1 -12z" />
<glyph unicode="&#xd2;" horiz-adv-x="1621" d="M99 694q-21 -195 58 -357.5t233.5 -255.5t350.5 -93q194 0 368 93t286.5 255.5t133.5 357.5q15 145 -27.5 276t-128 225.5t-212 150t-271.5 55.5q-195 0 -370 -94t-287.5 -256.5t-133.5 -356.5zM149 694q20 181 125.5 332t267.5 237.5t343 86.5q135 0 252 -51t197 -138.5 t119.5 -209.5t25.5 -257q-19 -181 -124 -332t-266.5 -237.5t-342.5 -86.5q-135 0 -252.5 51t-198 138.5t-120.5 209.5t-26 257zM736 1864q-8 -8 5 -14l345 -260q8 -5 14 5l16 21q5 9 0 12l-345 264q-11 8 -18 -2z" />
<glyph unicode="&#xd3;" horiz-adv-x="1621" d="M99 694q-21 -195 58 -357.5t233.5 -255.5t350.5 -93q194 0 368 93t286.5 255.5t133.5 357.5q15 145 -27.5 276t-128 225.5t-212 150t-271.5 55.5q-195 0 -370 -94t-287.5 -256.5t-133.5 -356.5zM149 694q20 181 125.5 332t267.5 237.5t343 86.5q135 0 252 -51t197 -138.5 t119.5 -209.5t25.5 -257q-19 -181 -124 -332t-266.5 -237.5t-342.5 -86.5q-135 0 -252.5 51t-198 138.5t-120.5 209.5t-26 257zM670 1616l12 -21q5 -9 14 -5l399 260q13 6 11 14l-16 26q-4 10 -16 2l-401 -264q-7 -4 -3 -12z" />
<glyph unicode="&#xd4;" horiz-adv-x="1621" d="M99 694q-21 -195 58 -357.5t233.5 -255.5t350.5 -93q194 0 368 93t286.5 255.5t133.5 357.5q15 145 -27.5 276t-128 225.5t-212 150t-271.5 55.5q-195 0 -370 -94t-287.5 -256.5t-133.5 -356.5zM149 694q20 181 125.5 332t267.5 237.5t343 86.5q135 0 252 -51t197 -138.5 t119.5 -209.5t25.5 -257q-19 -181 -124 -332t-266.5 -237.5t-342.5 -86.5q-135 0 -252.5 51t-198 138.5t-120.5 209.5t-26 257zM548 1557q-1 -5 3.5 -6.5t9.5 1.5l371 269l316 -269q11 -6 14 5l2 31q4 6 -4 14l-297 260q-9 8 -25 8t-27 -8l-352 -260q-2 -2 -4 -7.5t-3 -6.5z " />
<glyph unicode="&#xd5;" horiz-adv-x="1621" d="M99 694q-21 -195 58 -357.5t233.5 -255.5t350.5 -93q194 0 368 93t286.5 255.5t133.5 357.5q15 145 -27.5 276t-128 225.5t-212 150t-271.5 55.5q-195 0 -370 -94t-287.5 -256.5t-133.5 -356.5zM149 694q20 181 125.5 332t267.5 237.5t343 86.5q135 0 252 -51t197 -138.5 t119.5 -209.5t25.5 -257q-19 -181 -124 -332t-266.5 -237.5t-342.5 -86.5q-135 0 -252.5 51t-198 138.5t-120.5 209.5t-26 257zM529 1711l14 -17q7 -4 14 2q26 26 43 41t62 35.5t91 20.5t82.5 -17t61.5 -40.5t51.5 -47.5t66 -41t91.5 -17q38 0 74 11.5t61 28t44.5 32.5 t28.5 28l10 11q5 7 2 10l-17 19q0 1 -2.5 1t-5 -0.5t-3.5 -1.5q-89 -89 -192 -89q-42 0 -76.5 16.5t-61 40t-54 47.5t-68 40.5t-91.5 16.5q-38 0 -75 -12t-62.5 -29.5t-46 -35t-30.5 -29.5l-10 -12q-7 -7 -2 -12z" />
<glyph unicode="&#xd6;" horiz-adv-x="1621" d="M99 694q-21 -195 58 -357.5t233.5 -255.5t350.5 -93q194 0 368 93t286.5 255.5t133.5 357.5q15 145 -27.5 276t-128 225.5t-212 150t-271.5 55.5q-195 0 -370 -94t-287.5 -256.5t-133.5 -356.5zM149 694q20 181 125.5 332t267.5 237.5t343 86.5q135 0 252 -51t197 -138.5 t119.5 -209.5t25.5 -257q-19 -181 -124 -332t-266.5 -237.5t-342.5 -86.5q-135 0 -252.5 51t-198 138.5t-120.5 209.5t-26 257zM646 1819q2 16 14.5 27t28.5 11q18 0 28 -11t8 -27q-2 -17 -14 -28.5t-29 -11.5t-27.5 11.5t-8.5 28.5zM1142 1819q2 16 14.5 27t28.5 11 q18 0 28.5 -11t8.5 -27q-1 -17 -14 -28.5t-30 -11.5t-27.5 11.5t-8.5 28.5z" />
<glyph unicode="&#xd7;" horiz-adv-x="813" d="M85 382q-6 9 4 17l291 264l-238 264q-6 11 2 19l17 16q12 8 20 0l236 -266l291 266q11 8 19 0l12 -16q9 -9 -1 -19l-292 -264l234 -264q12 -8 0 -17l-15 -16q-7 -5 -10.5 -5t-8.5 7l-236 262l-290 -262q-12 -11 -19 -2z" />
<glyph unicode="&#xd8;" horiz-adv-x="1666" d="M95.5 -14.5q-0.5 1.5 6.5 9.5l174 175q-99 97 -146.5 233t-30.5 291q21 194 133.5 356.5t287.5 256.5t370 94q130 0 245 -44.5t203 -125.5l193 192q11 11 19 2l17 -17q8 -8 -1 -20l-193 -192q88 -98 129.5 -227.5t26.5 -274.5q-21 -195 -133.5 -357.5t-286.5 -255.5 t-368 -93q-250 0 -427 147l-175 -175q-10 -6 -11.5 -6t-7.5 6l-18 16q-6 8 -6.5 9.5zM149 694q-15 -143 29 -269.5t136 -216.5l986 986q-170 156 -415 156q-181 0 -343 -86.5t-267.5 -237.5t-125.5 -332zM352 174q166 -136 394 -136q181 0 342.5 86.5t266.5 237.5t124 332 q14 134 -24.5 254t-119.5 210z" />
<glyph unicode="&#xd9;" horiz-adv-x="1331" d="M113 517q-10 -101 17.5 -195.5t86.5 -169t157.5 -119.5t220.5 -45q123 0 233 45t186.5 119.5t125.5 169t61 195.5l90 858q0 9 -2 11t-10 2h-24q-10 0 -13 -2t-3 -11l-88 -830q-11 -108 -53 -196.5t-99.5 -144.5t-128.5 -95t-138 -55t-130 -16q-62 0 -124.5 16t-124.5 55 t-107 95t-67.5 144.5t-11.5 196.5l88 830q0 9 -2.5 11t-12.5 2h-21q-11 0 -13.5 -2t-2.5 -11zM588 1831q-8 -8 6 -14l345 -260q8 -5 14 5l15 21q5 9 0 12l-345 264q-10 7 -17 -2z" />
<glyph unicode="&#xda;" horiz-adv-x="1331" d="M113 517q-10 -101 17.5 -195.5t86.5 -169t157.5 -119.5t220.5 -45q123 0 233 45t186.5 119.5t125.5 169t61 195.5l90 858q0 9 -2 11t-10 2h-24q-10 0 -13 -2t-3 -11l-88 -830q-11 -108 -53 -196.5t-99.5 -144.5t-128.5 -95t-138 -55t-130 -16q-62 0 -124.5 16t-124.5 55 t-107 95t-67.5 144.5t-11.5 196.5l88 830q0 9 -2.5 11t-12.5 2h-21q-11 0 -13.5 -2t-2.5 -11zM522 1583l13 -21q5 -8 13 -5l400 260q12 5 10 14l-16 26q-4 10 -15 2l-401 -264q-8 -5 -4 -12z" />
<glyph unicode="&#xdb;" horiz-adv-x="1331" d="M113 517q-10 -101 17.5 -195.5t86.5 -169t157.5 -119.5t220.5 -45q123 0 233 45t186.5 119.5t125.5 169t61 195.5l90 858q0 9 -2 11t-10 2h-24q-10 0 -13 -2t-3 -11l-88 -830q-11 -108 -53 -196.5t-99.5 -144.5t-128.5 -95t-138 -55t-130 -16q-62 0 -124.5 16t-124.5 55 t-107 95t-67.5 144.5t-11.5 196.5l88 830q0 9 -2.5 11t-12.5 2h-21q-11 0 -13.5 -2t-2.5 -11zM401 1524q-1 -5 3 -6.5t9 1.5l371 269l316 -269q11 -6 14 5l2 31q4 7 -3 14l-297 260q-9 7 -25 7t-27 -7l-353 -260q-2 -2 -4 -7.5t-3 -6.5z" />
<glyph unicode="&#xdc;" horiz-adv-x="1331" d="M113 517q-10 -101 17.5 -195.5t86.5 -169t157.5 -119.5t220.5 -45q123 0 233 45t186.5 119.5t125.5 169t61 195.5l90 858q0 9 -2 11t-10 2h-24q-10 0 -13 -2t-3 -11l-88 -830q-11 -108 -53 -196.5t-99.5 -144.5t-128.5 -95t-138 -55t-130 -16q-62 0 -124.5 16t-124.5 55 t-107 95t-67.5 144.5t-11.5 196.5l88 830q0 9 -2.5 11t-12.5 2h-21q-11 0 -13.5 -2t-2.5 -11zM498 1786q2 16 15 27t29 11q18 0 28 -11t8 -27q-2 -17 -14 -28.5t-29 -11.5t-27.5 11.5t-9.5 28.5zM994 1786q2 16 15 27t29 11q18 0 28 -11t8 -27q-2 -17 -14 -28.5t-29 -11.5 t-27.5 11.5t-9.5 28.5z" />
<glyph unicode="&#xdd;" horiz-adv-x="1265" d="M97 1382q-4 6 2 6h43q7 0 11 -6l474 -750l635 750q4 6 10 6h42q3 0 4 -2t-2 -4l-667 -795l-61 -571q-3 -16 -15 -16h-21q-17 0 -14 17l61 570zM505 1585l12 -21q5 -9 14 -5l399 260q13 6 11 14l-16 26q-4 10 -16 2l-400 -264q-8 -5 -4 -12z" />
<glyph unicode="&#xde;" horiz-adv-x="1053" d="M68 16l144 1359q0 9 2.5 11t11.5 2h20q6 0 8.5 -0.5t4 -3.5t1.5 -9l-24 -236h365q109 0 194.5 -40t133.5 -104t69.5 -140.5t13.5 -153.5q-9 -85 -47 -164.5t-100.5 -144t-156 -103.5t-203.5 -39h-364l-25 -234q-3 -16 -15 -16h-21q-15 0 -12 16zM146 299h361 q209 -2 339 137q104 112 117 265q12 154 -74 262q-102 126 -299 127h-361z" />
<glyph unicode="&#xdf;" horiz-adv-x="1100" d="M24 9l99 921q24 228 154.5 346t336.5 118q190 0 298 -109.5t91 -286.5q-4 -42 -14.5 -76t-34 -73t-69 -70.5t-111.5 -51.5q249 -105 224 -356q-11 -98 -51.5 -171.5t-102.5 -116t-135 -63t-157 -20.5h-64q-10 0 -7 9l3 27q0 4 6.5 7.5t11.5 3.5q220 0 325 84.5t122 239.5 q7 69 -12 129t-64 108.5t-126.5 76.5t-191.5 28l2 35q4 10 9 10h83q280 4 306 240q7 66 -10.5 126.5t-57.5 110.5t-112 80t-166 30q-192 0 -305.5 -111t-135.5 -323l-95 -902q-3 -9 -9 -9h-34q-9 0 -6 9z" />
<glyph unicode="&#xe0;" d="M30 208q-11 -98 54.5 -157.5t191.5 -59.5q104 0 192 28.5t200 86.5q-1 -18 -3 -51.5t-2 -39t3 -15.5h30q16 0 16 26q4 212 46 514q23 153 -44.5 241.5t-222.5 88.5q-94 0 -191 -26t-173 -65q-13 -6 -9 -22l7 -16q4 -10 21 -2q179 85 343 85q125 0 183.5 -73.5 t39.5 -215.5q-119 -20 -203 -36.5t-164.5 -38t-132.5 -45t-94 -54t-62.5 -68.5t-25.5 -85zM78 210q11 108 158 170q96 40 347 89q105 21 122 24q-28 -197 -35 -337q-204 -121 -384 -121q-98 0 -158 43t-50 132zM326 1387q-8 -8 5 -14l346 -260q8 -5 14 5l15 21q5 9 0 12 l-345 264q-10 7 -17 -2z" />
<glyph unicode="&#xe1;" d="M30 208q-11 -98 54.5 -157.5t191.5 -59.5q104 0 192 28.5t200 86.5q-1 -18 -3 -51.5t-2 -39t3 -15.5h30q16 0 16 26q4 212 46 514q23 153 -44.5 241.5t-222.5 88.5q-94 0 -191 -26t-173 -65q-13 -6 -9 -22l7 -16q4 -10 21 -2q179 85 343 85q125 0 183.5 -73.5 t39.5 -215.5q-119 -20 -203 -36.5t-164.5 -38t-132.5 -45t-94 -54t-62.5 -68.5t-25.5 -85zM78 210q11 108 158 170q96 40 347 89q105 21 122 24q-28 -197 -35 -337q-204 -121 -384 -121q-98 0 -158 43t-50 132zM260 1139l12 -21q5 -9 14 -5l400 260q12 5 10 14l-16 26 q-4 10 -15 2l-401 -264q-8 -5 -4 -12z" />
<glyph unicode="&#xe2;" d="M30 208q-11 -98 54.5 -157.5t191.5 -59.5q104 0 192 28.5t200 86.5q-1 -18 -3 -51.5t-2 -39t3 -15.5h30q16 0 16 26q4 212 46 514q23 153 -44.5 241.5t-222.5 88.5q-94 0 -191 -26t-173 -65q-13 -6 -9 -22l7 -16q4 -10 21 -2q179 85 343 85q125 0 183.5 -73.5 t39.5 -215.5q-119 -20 -203 -36.5t-164.5 -38t-132.5 -45t-94 -54t-62.5 -68.5t-25.5 -85zM78 210q11 108 158 170q96 40 347 89q105 21 122 24q-28 -197 -35 -337q-204 -121 -384 -121q-98 0 -158 43t-50 132zM139 1081q-1 -5 3 -6.5t9 1.5l371 269l316 -269q11 -6 14 5 l2 32q4 5 -4 13l-296 261q-9 7 -25.5 7t-26.5 -7l-353 -261q-2 -2 -4 -7t-3 -6z" />
<glyph unicode="&#xe3;" d="M30 208q-11 -98 54.5 -157.5t191.5 -59.5q104 0 192 28.5t200 86.5q-1 -18 -3 -51.5t-2 -39t3 -15.5h30q16 0 16 26q4 212 46 514q23 153 -44.5 241.5t-222.5 88.5q-94 0 -191 -26t-173 -65q-13 -6 -9 -22l7 -16q4 -10 21 -2q179 85 343 85q125 0 183.5 -73.5 t39.5 -215.5q-119 -20 -203 -36.5t-164.5 -38t-132.5 -45t-94 -54t-62.5 -68.5t-25.5 -85zM78 210q11 108 158 170q96 40 347 89q105 21 122 24q-28 -197 -35 -337q-204 -121 -384 -121q-98 0 -158 43t-50 132zM120 1234l14 -17q8 -5 14 1q16 16 23 22.5t29 24t40 26.5 t46.5 17t57.5 8q46 0 82 -17t61.5 -41t51.5 -48t65.5 -41t91.5 -17q38 0 74 11.5t61 28t45 33t30 27.5l9 12q4 7 1 10l-17 19q0 1 -2 1t-4.5 -1t-3.5 -2q-88 -88 -193 -88q-42 0 -76.5 16.5t-61 40.5t-54 47.5t-68 40t-91.5 16.5q-38 0 -75 -12t-62.5 -29.5t-46 -35 t-30.5 -29.5l-10 -12q-7 -6 -1 -12z" />
<glyph unicode="&#xe4;" d="M30 208q-11 -98 54.5 -157.5t191.5 -59.5q104 0 192 28.5t200 86.5q-1 -18 -3 -51.5t-2 -39t3 -15.5h30q16 0 16 26q4 212 46 514q23 153 -44.5 241.5t-222.5 88.5q-94 0 -191 -26t-173 -65q-13 -6 -9 -22l7 -16q4 -10 21 -2q179 85 343 85q125 0 183.5 -73.5 t39.5 -215.5q-119 -20 -203 -36.5t-164.5 -38t-132.5 -45t-94 -54t-62.5 -68.5t-25.5 -85zM78 210q11 108 158 170q96 40 347 89q105 21 122 24q-28 -197 -35 -337q-204 -121 -384 -121q-98 0 -158 43t-50 132zM236 1342q2 16 14.5 27t28.5 11q18 0 28.5 -11t8.5 -27 q-1 -17 -14 -28.5t-30 -11.5t-27.5 11.5t-8.5 28.5zM732 1342q2 16 15 27t29 11q18 0 28 -11t8 -27q-2 -17 -14 -28.5t-29 -11.5t-27.5 11.5t-9.5 28.5z" />
<glyph unicode="&#xe5;" d="M30 208q-11 -98 54.5 -157.5t191.5 -59.5q104 0 192 28.5t200 86.5q-1 -18 -3 -51.5t-2 -39t3 -15.5h30q16 0 16 26q4 212 46 514q23 153 -44.5 241.5t-222.5 88.5q-94 0 -191 -26t-173 -65q-13 -6 -9 -22l7 -16q4 -10 21 -2q179 85 343 85q125 0 183.5 -73.5 t39.5 -215.5q-119 -20 -203 -36.5t-164.5 -38t-132.5 -45t-94 -54t-62.5 -68.5t-25.5 -85zM78 210q11 108 158 170q96 40 347 89q105 21 122 24q-28 -197 -35 -337q-204 -121 -384 -121q-98 0 -158 43t-50 132zM305 1199q9 85 75 144t151 59q84 0 137 -59.5t44 -143.5 q-9 -86 -74.5 -146t-149.5 -60q-85 0 -138.5 59.5t-44.5 146.5zM349 1199q-7 -68 35.5 -114.5t108.5 -46.5q68 0 120 46t59 115q7 67 -35 113.5t-109 46.5q-66 0 -119 -47t-60 -113z" />
<glyph unicode="&#xe6;" horiz-adv-x="1641" d="M30 208q5 47 25.5 85t62.5 68.5t94 54t132.5 45t164.5 38t203 36.5q19 142 -39.5 215.5t-183.5 73.5q-164 0 -343 -85q-17 -8 -21 2l-7 16q-4 16 9 22q76 39 173 65t191 26q133 0 202 -65.5t71 -183.5q63 114 172.5 182t236.5 68q179 0 288 -127t91 -307q-2 -17 -6.5 -27 t-14 -14t-15.5 -4.5t-20 -0.5h-744q-2 -63 18 -124.5t60.5 -114t110.5 -85t159 -32.5q182 0 335 170q15 13 23 2l9 -9q8 -11 -2 -21q-74 -84 -169 -135.5t-203 -51.5q-131 0 -229.5 68t-139.5 183q-8 -88 -12 -215q0 -26 -16 -26h-30q-3 10 -3 15.5t2 39t3 51.5 q-112 -58 -200 -86.5t-192 -28.5q-126 0 -191.5 59.5t-54.5 157.5zM78 210q-10 -89 50 -132t158 -43q180 0 384 121q7 140 35 337q-274 -55 -317 -65q-206 -51 -271 -128q-34 -39 -39 -90zM753 434h750q5 48 -2.5 99.5t-32 104.5t-62.5 94.5t-99 67.5t-137 26 q-94 0 -173 -38t-129 -97.5t-79 -126t-36 -130.5z" />
<glyph unicode="&#xe7;" horiz-adv-x="881" d="M47 429q21 189 160 315.5t321 126.5q101 0 181.5 -45t125.5 -114q8 -16 -2 -23l-19 -14q-10 -7 -17 7q-43 63 -111 103.5t-153 40.5q-82 0 -152.5 -25t-119.5 -65.5t-85.5 -93.5t-56 -106.5t-24.5 -106.5q-5 -52 3 -105.5t33.5 -106.5t66.5 -93.5t107 -65.5t148 -25 q156 0 312 172q13 13 23 2l10 -14q7 -5 7 -8.5t-5 -10.5q-165 -179 -352 -186l-89 -116q40 17 92 17q91 0 150 -66t50 -160q-11 -93 -85 -160t-169 -67q-63 0 -112.5 27t-76.5 68q-4 10 0 13l9 8q2 2 4.5 4t4 3t3.5 2.5t3.5 1.5t3 -0.5t3 -1.5t2.5 -4q23 -32 64.5 -56.5 t90.5 -24.5q92 0 151 54t66 133q8 78 -37 132t-132 54q-46 0 -80.5 -17t-77.5 -58q-11 -9 -13 -10t-9 3l-12 14q-4 3 0 7l7 11l144 191q-170 11 -272 134.5t-84 304.5z" />
<glyph unicode="&#xe8;" horiz-adv-x="963" d="M47 430q-19 -188 94 -314t296 -126q203 0 372 187q10 10 2 21l-9 9q-9 12 -23 -2q-155 -170 -336 -170q-88 0 -158.5 32.5t-111 85t-61 114t-17.5 124.5h743q14 0 20.5 0.5t16.5 4.5t14.5 14t6.5 27q18 180 -91 307t-288 127t-314.5 -128t-155.5 -313zM95 434 q7 64 36 130.5t79 126t129 97.5t173 38q64 0 117.5 -18.5t90 -49.5t64 -70.5t41.5 -84t19 -87.5t1 -82h-750zM370 1385q-8 -8 5 -14l345 -260q8 -5 14 5l16 21q5 9 0 12l-346 264q-10 7 -17 -2z" />
<glyph unicode="&#xe9;" horiz-adv-x="963" d="M47 430q-19 -188 94 -314t296 -126q203 0 372 187q10 10 2 21l-9 9q-9 12 -23 -2q-155 -170 -336 -170q-88 0 -158.5 32.5t-111 85t-61 114t-17.5 124.5h743q14 0 20.5 0.5t16.5 4.5t14.5 14t6.5 27q18 180 -91 307t-288 127t-314.5 -128t-155.5 -313zM95 434 q7 64 36 130.5t79 126t129 97.5t173 38q64 0 117.5 -18.5t90 -49.5t64 -70.5t41.5 -84t19 -87.5t1 -82h-750zM304 1137l12 -21q5 -9 14 -5l399 260q12 5 10 14l-15 26q-4 10 -16 2l-401 -264q-7 -5 -3 -12z" />
<glyph unicode="&#xea;" horiz-adv-x="963" d="M47 430q-19 -188 94 -314t296 -126q203 0 372 187q10 10 2 21l-9 9q-9 12 -23 -2q-155 -170 -336 -170q-88 0 -158.5 32.5t-111 85t-61 114t-17.5 124.5h743q14 0 20.5 0.5t16.5 4.5t14.5 14t6.5 27q18 180 -91 307t-288 127t-314.5 -128t-155.5 -313zM95 434 q7 64 36 130.5t79 126t129 97.5t173 38q64 0 117.5 -18.5t90 -49.5t64 -70.5t41.5 -84t19 -87.5t1 -82h-750zM182 1080q-1 -5 3 -6.5t9 0.5l372 269l316 -269q10 -6 14 6l1 31q4 7 -3 14l-297 260q-9 7 -25.5 7t-26.5 -7l-352 -260q-2 -2 -4 -7.5t-3 -6.5z" />
<glyph unicode="&#xeb;" horiz-adv-x="963" d="M47 430q-19 -188 94 -314t296 -126q203 0 372 187q10 10 2 21l-9 9q-9 12 -23 -2q-155 -170 -336 -170q-88 0 -158.5 32.5t-111 85t-61 114t-17.5 124.5h743q14 0 20.5 0.5t16.5 4.5t14.5 14t6.5 27q18 180 -91 307t-288 127t-314.5 -128t-155.5 -313zM95 434 q7 64 36 130.5t79 126t129 97.5t173 38q64 0 117.5 -18.5t90 -49.5t64 -70.5t41.5 -84t19 -87.5t1 -82h-750zM279 1340q2 16 15 27t29 11q18 0 28 -11t8 -27q-2 -17 -14 -28.5t-29 -11.5t-27.5 11.5t-9.5 28.5zM776 1340q2 16 14.5 27t28.5 11q18 0 28.5 -11t8.5 -27 q-1 -17 -14 -28.5t-30 -11.5t-27.5 11.5t-8.5 28.5z" />
<glyph unicode="&#xec;" horiz-adv-x="308" d="M38 1387q-8 -8 5 -14l346 -260q8 -5 14 5l15 21q5 9 0 12l-345 264q-10 7 -17 -2zM68 16q-3 -16 10 -16h26q9 0 12 14l89 831q0 9 -3 11.5t-11 2.5h-21q-9 0 -11.5 -2.5t-2.5 -11.5z" />
<glyph unicode="&#xed;" horiz-adv-x="308" d="M-28 1139l12 -21q5 -9 14 -5l399 260q13 6 11 14l-16 26q-4 10 -15 2l-401 -264q-8 -5 -4 -12zM68 16q-3 -16 10 -16h26q9 0 12 14l89 831q0 9 -3 11.5t-11 2.5h-21q-9 0 -11.5 -2.5t-2.5 -11.5z" />
<glyph unicode="&#xee;" horiz-adv-x="308" d="M-149 1081q-1 -5 3 -6.5t9 1.5l371 269l316 -269q11 -6 14 5l2 32q4 5 -4 13l-296 261q-9 7 -26 7t-27 -7l-352 -261q-2 -2 -4 -7t-3 -6zM68 16q-3 -16 10 -16h26q9 0 12 14l89 831q0 9 -3 11.5t-11 2.5h-21q-9 0 -11.5 -2.5t-2.5 -11.5z" />
<glyph unicode="&#xef;" horiz-adv-x="308" d="M-52 1342q2 16 14.5 27t28.5 11q18 0 28.5 -11t8.5 -27q-1 -17 -14 -28.5t-30 -11.5t-27.5 11.5t-8.5 28.5zM68 16q-3 -16 10 -16h26q9 0 12 14l89 831q0 9 -3 11.5t-11 2.5h-21q-9 0 -11.5 -2.5t-2.5 -11.5zM444 1342q2 16 15 27t29 11q18 0 28 -11t8 -27 q-2 -17 -14 -28.5t-29 -11.5t-27.5 11.5t-9.5 28.5z" />
<glyph unicode="&#xf0;" horiz-adv-x="1032" d="M68 418q2 176 123.5 297.5t296.5 121.5q146 0 265 -92.5t158 -222.5q17 187 -34 344.5t-152 268.5l-300 -165q-13 -7 -19 5l-7 11q-8 14 7 21l290 158q-77 76 -172.5 117t-192.5 41q-12 0 -12 8l4 30q0 8 12 8q124 0 228 -52.5t180 -125.5l106 57q12 7 19 -5l7 -12 q6 -14 -7 -20l-96 -52l14 -17q57 -68 94.5 -140.5t54.5 -147t22.5 -138t4.5 -140.5q-3 -171 -54.5 -302.5t-156 -208.5t-249.5 -77q-183 0 -308.5 127t-125.5 303zM115 415q0 -101 55 -189.5t145 -140.5t190 -52q152 0 264.5 117t112.5 267q1 148 -118 260.5t-276 112.5 q-150 0 -261 -111t-112 -264z" />
<glyph unicode="&#xf1;" horiz-adv-x="984" d="M43 16l89 831q0 12 10 12h25q7 0 10.5 -4.5t1.5 -9.5l-16 -154q202 177 406 177q148 0 240 -80.5t76 -237.5l-40 -396l-15 -137q0 -17 -13 -17h-20q-10 0 -12 4t-2 15l55 516q11 127 -54.5 206.5t-214.5 79.5q-117 0 -217 -50.5t-196 -137.5l-64 -617q0 -16 -12 -16h-28 q-9 0 -9 16zM160 1234q-6 6 1 12q4 5 10.5 13t29.5 28t47 35.5t61.5 28.5t75.5 13q51 0 91.5 -16.5t68 -40t54 -47.5t61 -40.5t76.5 -16.5q105 0 193 88q1 1 3.5 2t4.5 1t2 -1l17 -19q3 -3 -1 -10q-3 -5 -10 -12.5t-28.5 -26.5t-45.5 -34t-60.5 -27t-74.5 -12 q-52 0 -91.5 17t-65.5 41t-51.5 48t-61.5 41t-82 17q-36 0 -68 -10t-59 -29t-39 -29.5t-31 -29.5q-5 -6 -13 -1z" />
<glyph unicode="&#xf2;" horiz-adv-x="1001" d="M43 429q-19 -183 98.5 -311t302.5 -128q119 0 226.5 58t178 159.5t83.5 221.5q19 187 -97.5 315.5t-298.5 128.5q-185 0 -329.5 -128.5t-163.5 -315.5zM94 429q18 161 144.5 279t292.5 118q108 0 193 -55.5t126.5 -146.5t31.5 -195q-16 -156 -142.5 -274.5t-289.5 -118.5 q-110 0 -196 56t-127.5 146t-32.5 191zM391 1387q-8 -8 5 -14l345 -260q8 -5 14 5l16 21q5 9 0 12l-346 264q-10 7 -17 -2z" />
<glyph unicode="&#xf3;" horiz-adv-x="1001" d="M43 429q-19 -183 98.5 -311t302.5 -128q119 0 226.5 58t178 159.5t83.5 221.5q19 187 -97.5 315.5t-298.5 128.5q-185 0 -329.5 -128.5t-163.5 -315.5zM94 429q18 161 144.5 279t292.5 118q108 0 193 -55.5t126.5 -146.5t31.5 -195q-16 -156 -142.5 -274.5t-289.5 -118.5 q-110 0 -196 56t-127.5 146t-32.5 191zM325 1139l12 -21q5 -9 14 -5l399 260q12 5 10 14l-15 26q-4 10 -16 2l-401 -264q-8 -5 -3 -12z" />
<glyph unicode="&#xf4;" horiz-adv-x="1001" d="M43 429q-19 -183 98.5 -311t302.5 -128q119 0 226.5 58t178 159.5t83.5 221.5q19 187 -97.5 315.5t-298.5 128.5q-185 0 -329.5 -128.5t-163.5 -315.5zM94 429q18 161 144.5 279t292.5 118q108 0 193 -55.5t126.5 -146.5t31.5 -195q-16 -156 -142.5 -274.5t-289.5 -118.5 q-110 0 -196 56t-127.5 146t-32.5 191zM203 1081q-1 -5 3 -6.5t9 1.5l372 269l316 -269q10 -6 13 5l2 32q4 6 -3 13l-297 261q-9 7 -25.5 7t-26.5 -7l-353 -261q-2 -2 -3.5 -7t-2.5 -6z" />
<glyph unicode="&#xf5;" horiz-adv-x="1001" d="M43 429q-19 -183 98.5 -311t302.5 -128q119 0 226.5 58t178 159.5t83.5 221.5q19 187 -97.5 315.5t-298.5 128.5q-185 0 -329.5 -128.5t-163.5 -315.5zM94 429q18 161 144.5 279t292.5 118q108 0 193 -55.5t126.5 -146.5t31.5 -195q-16 -156 -142.5 -274.5t-289.5 -118.5 q-110 0 -196 56t-127.5 146t-32.5 191zM184 1234l14 -17q8 -5 14 1q16 16 23 22.5t29 24t40 26.5t46.5 17t57.5 8q46 0 82 -17t61.5 -41t51.5 -48t65.5 -41t91.5 -17q38 0 74 11.5t61 28t45 33t30 27.5l9 12q5 7 2 10l-18 19q0 1 -2 1t-4.5 -1t-3.5 -2q-88 -88 -193 -88 q-42 0 -76.5 16.5t-60.5 40.5t-53.5 47.5t-68 40t-91.5 16.5q-38 0 -75 -12t-62.5 -29.5t-46 -35t-30.5 -29.5l-10 -12q-7 -7 -2 -12z" />
<glyph unicode="&#xf6;" horiz-adv-x="1001" d="M43 429q-19 -183 98.5 -311t302.5 -128q119 0 226.5 58t178 159.5t83.5 221.5q19 187 -97.5 315.5t-298.5 128.5q-185 0 -329.5 -128.5t-163.5 -315.5zM94 429q18 161 144.5 279t292.5 118q108 0 193 -55.5t126.5 -146.5t31.5 -195q-16 -156 -142.5 -274.5t-289.5 -118.5 q-110 0 -196 56t-127.5 146t-32.5 191zM300 1342q2 16 15 27t29 11q18 0 28 -11t8 -27q-2 -17 -14 -28.5t-29 -11.5t-27.5 11.5t-9.5 28.5zM797 1342q2 16 14.5 27t28.5 11q18 0 28 -11t8 -27q-2 -17 -14 -28.5t-29 -11.5t-27.5 11.5t-8.5 28.5z" />
<glyph unicode="&#xf7;" horiz-adv-x="1076" d="M75 646l1 20q3 14 16 14h892q13 0 10 -14v-20q-3 -14 -15 -14h-890q-17 0 -14 14zM413 231q5 30 32 55t57 25t50 -25t16 -55q-2 -33 -27.5 -57.5t-56.5 -24.5q-30 0 -51.5 24.5t-19.5 57.5zM502 1074q5 31 31.5 55.5t56.5 24.5t50 -25t16 -55q-2 -33 -27 -57t-55 -24 q-31 0 -52.5 24t-19.5 57z" />
<glyph unicode="&#xf8;" horiz-adv-x="1117" d="M87.5 -23.5q-0.5 1.5 6.5 9.5l114 115q-64 61 -94 146t-20 182q21 188 164.5 316t328.5 128q170 0 283 -113l123 123q11 11 19 2l14 -14q8 -9 -2 -19l-123 -123q99 -125 81 -300q-13 -120 -83 -221.5t-177.5 -159.5t-226.5 -58q-146 0 -252 81l-116 -116 q-8 -7 -10.5 -6.5t-8.5 6.5l-14 14q-6 6 -6.5 7.5zM146 429q-8 -82 19 -158t83 -132l585 585q-100 102 -250 102q-166 0 -292.5 -118t-144.5 -279zM281 109q96 -73 219 -73q163 0 289.5 118.5t142.5 274.5q16 151 -69 262z" />
<glyph unicode="&#xf9;" horiz-adv-x="961" d="M50 309l42 394q2 21 6.5 67.5t7.5 69.5q7 18 12 19h21q17 0 14 -21l-54 -513q-14 -127 52 -208.5t215 -81.5q117 0 215.5 50.5t197.5 138.5l64 618q3 17 13 17h26q11 0 8 -17l-86 -832q-3 -10 -11 -10h-28q-4 0 -6.5 4t-1.5 8l15 155q-204 -179 -406 -179 q-70 0 -129.5 19.5t-105 57.5t-68 101t-13.5 143zM349 1387l17 26q7 10 18 2l345 -264q5 -3 0 -12l-16 -21q-6 -10 -14 -5l-345 260q-13 6 -5 14z" />
<glyph unicode="&#xfa;" horiz-adv-x="961" d="M50 309l42 394q2 21 6.5 67.5t7.5 69.5q7 18 12 19h21q17 0 14 -21l-54 -513q-14 -127 52 -208.5t215 -81.5q117 0 215.5 50.5t197.5 138.5l64 618q3 17 13 17h26q11 0 8 -17l-86 -832q-3 -10 -11 -10h-28q-4 0 -6.5 4t-1.5 8l15 155q-204 -179 -406 -179 q-70 0 -129.5 19.5t-105 57.5t-68 101t-13.5 143zM283 1139q-5 7 3 12l401 264q12 8 16 -2l16 -26q2 -8 -11 -14l-399 -260q-9 -4 -14 5z" />
<glyph unicode="&#xfb;" horiz-adv-x="961" d="M50 309l42 394q2 21 6.5 67.5t7.5 69.5q7 18 12 19h21q17 0 14 -21l-54 -513q-14 -127 52 -208.5t215 -81.5q117 0 215.5 50.5t197.5 138.5l64 618q3 17 13 17h26q11 0 8 -17l-86 -832q-3 -10 -11 -10h-28q-4 0 -6.5 4t-1.5 8l15 155q-204 -179 -406 -179 q-70 0 -129.5 19.5t-105 57.5t-68 101t-13.5 143zM161 1081l4 32q1 1 3 6t4 7l352 261q10 7 26.5 7t25.5 -7l297 -261q7 -7 3 -13l-1 -32q-3 -11 -14 -5l-316 269l-371 -269q-5 -3 -9.5 -1.5t-3.5 6.5z" />
<glyph unicode="&#xfc;" horiz-adv-x="961" d="M50 309l42 394q2 21 6.5 67.5t7.5 69.5q7 18 12 19h21q17 0 14 -21l-54 -513q-14 -127 52 -208.5t215 -81.5q117 0 215.5 50.5t197.5 138.5l64 618q3 17 13 17h26q11 0 8 -17l-86 -832q-3 -10 -11 -10h-28q-4 0 -6.5 4t-1.5 8l15 155q-204 -179 -406 -179 q-70 0 -129.5 19.5t-105 57.5t-68 101t-13.5 143zM259 1342q2 16 14.5 27t28.5 11q18 0 28 -11t8 -27q-2 -17 -14 -28.5t-29 -11.5t-27.5 11.5t-8.5 28.5zM755 1342q2 16 14.5 27t28.5 11q18 0 28.5 -11t8.5 -27q-1 -17 -14 -28.5t-30 -11.5t-27.5 11.5t-8.5 28.5z" />
<glyph unicode="&#xfd;" horiz-adv-x="918" d="M-69 -524q-8 8 5 22q121 123 251 284.5t200 293.5l-298 773q-4 10 3 10h43q5 0 9 -7l276 -718l422 715q7 10 14 10h38q12 0 5 -12l-455 -772q-201 -338 -482 -615q-9 -11 -16 0zM290 1139l12 -21q5 -9 14 -5l399 260q12 5 10 14l-15 26q-4 10 -16 2l-401 -264 q-7 -5 -3 -12z" />
<glyph unicode="&#xfe;" horiz-adv-x="985" d="M-10 -500l187 1793q3 28 7 80q3 15 12 15h24q16 0 13 -17l-65 -607q153 102 330 102q163 0 270.5 -121t87.5 -313q-19 -189 -140.5 -316.5t-302.5 -127.5q-88 0 -172 33.5t-140 87.5l-63 -598q-3 -21 -24 -21h-17q-7 0 -7 10zM106 161q138 -128 304 -128q158 0 269 113 t128 286q8 75 -6.5 139.5t-45.5 109.5t-75 77t-94.5 47.5t-103.5 15.5q-168 0 -319 -111z" />
<glyph unicode="&#xff;" horiz-adv-x="918" d="M-69 -524q-8 8 5 22q121 123 251 284.5t200 293.5l-298 773q-4 10 3 10h43q5 0 9 -7l276 -718l422 715q7 10 14 10h38q12 0 5 -12l-455 -772q-201 -338 -482 -615q-9 -11 -16 0zM266 1342q2 16 14.5 27t28.5 11q18 0 28 -11t8 -27q-2 -17 -14 -28.5t-29 -11.5t-27.5 11.5 t-8.5 28.5zM762 1342q2 16 14.5 27t28.5 11q18 0 28.5 -11t8.5 -27q-1 -17 -14 -28.5t-30 -11.5t-27.5 11.5t-8.5 28.5z" />
<glyph unicode="&#x152;" horiz-adv-x="2502" d="M99 694q21 194 133.5 356.5t287.5 256.5t370 94q225 0 393 -125t225 -327l45 426q0 8 3 10.5t11 2.5h885q16 0 16 -13l-3 -21q-2 -8 -5 -11t-13 -3h-847l-66 -630h561q9 0 12 -3.5t2 -13.5l-4 -16q0 -10 -2.5 -13t-11.5 -3h-562l-64 -612h847q9 0 11.5 -3.5t2.5 -14.5 l-2 -15q-1 -10 -4.5 -13t-12.5 -3h-889q-12 0 -9 12l45 424q-100 -202 -293.5 -325t-419.5 -123q-196 0 -350.5 93t-233.5 255.5t-58 357.5zM149 694q-14 -135 26 -257t120.5 -209.5t198 -138.5t252.5 -51q181 0 342.5 86.5t266.5 237.5t124 332q14 135 -25.5 257 t-119.5 209.5t-197 138.5t-252 51q-181 0 -343 -86.5t-267.5 -237.5t-125.5 -332z" />
<glyph unicode="&#x153;" horiz-adv-x="1820" d="M43 429q19 187 163.5 315.5t329.5 128.5q142 0 248.5 -81.5t138.5 -213.5q57 131 174 212t257 81q178 0 286 -127t90 -307q-2 -22 -11.5 -32.5t-17.5 -12t-26 -1.5h-745q-2 -63 18 -124.5t61 -114t111 -85t159 -32.5q182 0 337 170q12 12 22 2l7 -9q11 -11 -1 -21 q-165 -187 -370 -187q-144 0 -248 80.5t-134 212.5q-61 -130 -183.5 -211.5t-264.5 -81.5q-185 0 -302.5 128t-98.5 311zM94 429q-9 -101 32.5 -191t127.5 -146t196 -56q163 0 289.5 118.5t142.5 274.5q10 104 -31.5 195t-126.5 146.5t-193 55.5q-166 0 -292.5 -118 t-144.5 -279zM932 434h750q5 48 -2.5 99.5t-32 104.5t-62.5 94.5t-99 67.5t-137 26q-75 0 -140.5 -24t-111.5 -63t-81.5 -89.5t-55 -102t-26.5 -101.5z" />
<glyph unicode="&#x178;" horiz-adv-x="1265" d="M97 1382q-4 6 2 6h43q7 0 11 -6l474 -750l635 750q4 6 10 6h42q3 0 4 -2t-2 -4l-667 -795l-61 -571q-3 -16 -15 -16h-21q-17 0 -14 17l61 570zM481 1788q2 16 14.5 27t28.5 11q18 0 28.5 -11t8.5 -27q-1 -17 -14 -28.5t-30 -11.5t-27.5 11.5t-8.5 28.5zM977 1788 q2 16 15 27t29 11q18 0 28 -11t8 -27q-2 -17 -14 -28.5t-29 -11.5t-27.5 11.5t-9.5 28.5z" />
<glyph unicode="&#x2c6;" horiz-adv-x="892" d="M141 1081q-1 -5 3 -6.5t9 1.5l371 269l316 -269q11 -6 14 5l2 32q4 5 -4 13l-297 261q-9 7 -25.5 7t-26.5 -7l-352 -261q-2 -2 -4 -7t-3 -6z" />
<glyph unicode="&#x2dc;" horiz-adv-x="935" d="M137 1234l14 -17q8 -5 14 1q16 16 23 22.5t29 24t40 26.5t46.5 17t57.5 8q46 0 82 -17t61.5 -41t51.5 -48t65.5 -41t91.5 -17q38 0 74 11.5t61 28t45 33t29 27.5l10 12q5 7 2 10l-18 19q0 1 -2 1t-4.5 -1t-3.5 -2q-88 -88 -193 -88q-42 0 -76.5 16.5t-60.5 40.5 t-53.5 47.5t-68 40t-91.5 16.5q-38 0 -75 -12t-62.5 -29.5t-46 -35t-30.5 -29.5l-10 -12q-7 -7 -2 -12z" />
<glyph unicode="&#x2000;" horiz-adv-x="947" />
<glyph unicode="&#x2001;" horiz-adv-x="1895" />
<glyph unicode="&#x2002;" horiz-adv-x="947" />
<glyph unicode="&#x2003;" horiz-adv-x="1895" />
<glyph unicode="&#x2004;" horiz-adv-x="631" />
<glyph unicode="&#x2005;" horiz-adv-x="473" />
<glyph unicode="&#x2006;" horiz-adv-x="315" />
<glyph unicode="&#x2007;" horiz-adv-x="315" />
<glyph unicode="&#x2008;" horiz-adv-x="236" />
<glyph unicode="&#x2009;" horiz-adv-x="379" />
<glyph unicode="&#x200a;" horiz-adv-x="105" />
<glyph unicode="&#x2010;" horiz-adv-x="744" d="M69 432v21q0 12 16 12h576q9 0 11.5 -2t2.5 -10v-21q0 -9 -2.5 -11.5t-11.5 -2.5h-576q-9 0 -12.5 2.5t-3.5 11.5z" />
<glyph unicode="&#x2011;" horiz-adv-x="744" d="M69 432v21q0 12 16 12h576q9 0 11.5 -2t2.5 -10v-21q0 -9 -2.5 -11.5t-11.5 -2.5h-576q-9 0 -12.5 2.5t-3.5 11.5z" />
<glyph unicode="&#x2012;" horiz-adv-x="744" d="M69 432v21q0 12 16 12h576q9 0 11.5 -2t2.5 -10v-21q0 -9 -2.5 -11.5t-11.5 -2.5h-576q-9 0 -12.5 2.5t-3.5 11.5z" />
<glyph unicode="&#x2013;" horiz-adv-x="1214" d="M139 538v17q0 8 2.5 10.5t11.5 2.5h909q14 0 14 -13v-17q0 -9 -3 -11.5t-11 -2.5h-909q-9 0 -11.5 2.5t-2.5 11.5z" />
<glyph unicode="&#x2014;" horiz-adv-x="1617" d="M104 538v17q0 8 2.5 10.5t11.5 2.5h1380q15 0 15 -13v-17q0 -9 -3 -11.5t-12 -2.5h-1380q-9 0 -11.5 2.5t-2.5 11.5z" />
<glyph unicode="&#x2018;" horiz-adv-x="258" d="M119.5 1057q-1.5 13 0.5 35v3q3 57 29 160q26 86 73 158q8 15 18 12l6 -2q11 0 4 -14q-39 -65 -57 -152q-12 -63 -14 -101q26 0 38 -13t9 -48q-4 -38 -15 -49.5t-48 -11.5q-23 0 -32.5 5t-11 18z" />
<glyph unicode="&#x2019;" horiz-adv-x="225" d="M104 1050q42 71 57 153q10 44 14 100q-26 0 -38.5 13.5t-8.5 47.5q4 38 15 49.5t48 11.5q35 0 41 -10.5t2 -50.5q-3 -56 -29 -159q-29 -95 -73 -158q-7 -13 -17 -13l-7 2q-11 0 -4 14z" />
<glyph unicode="&#x201a;" horiz-adv-x="581" d="M-36 -285q40 69 57 153q10 43 14 101q-27 0 -39 13t-8 48q4 38 14.5 49t46.5 11q35 0 42 -10.5t3 -49.5q-3 -50 -32 -160q-28 -92 -71 -158q-10 -14 -17 -12l-7 1q-13 0 -3 14zM222 -285q42 80 57 153q10 43 14 101q-27 0 -39 13t-8 48q4 38 14.5 49t46.5 11 q32 0 39.5 -9t5.5 -39v-12q-3 -55 -31 -160q-24 -80 -71 -158q-10 -15 -19 -12l-5 1q-14 0 -4 14z" />
<glyph unicode="&#x201c;" horiz-adv-x="517" d="M126.5 1055.5q-1.5 12.5 0.5 34.5v3q4 61 29 160q26 86 73 158q7 14 17 14l7 -4q11 0 4 -13q-38 -60 -57 -153q-12 -63 -14 -101q26 0 38 -13t9 -48q-4 -37 -15 -48t-48 -11q-24 0 -33 4.5t-10.5 17zM385 1093q3 56 30 160q29 95 73 158q7 14 17 14l7 -4q10 0 3 -13 q-42 -66 -57 -153q-12 -49 -15 -101q27 0 39.5 -13t8.5 -48q-4 -38 -14.5 -48.5t-47.5 -10.5q-35 0 -41.5 10t-2.5 49z" />
<glyph unicode="&#x201d;" horiz-adv-x="517" d="M141 1050q40 69 57 153q10 44 14 100q-26 0 -38.5 13.5t-8.5 47.5q4 38 15 49.5t47 11.5q32 0 39 -9.5t5 -39.5v-12q-3 -54 -31 -159q-23 -82 -72 -158q-10 -13 -19 -13l-5 2q-10 0 -3 14zM397 1050q44 73 58 153q12 50 15 100q-54 0 -48 61q6 39 16 50t46 11 q35 0 41.5 -11t2.5 -50q-3 -51 -30 -159q-29 -95 -73 -158q-7 -13 -17 -13l-7 2q-11 0 -4 14z" />
<glyph unicode="&#x201e;" horiz-adv-x="590" d="M28 -285q40 69 57 153q10 43 14 101q-27 0 -39 13t-8 48q4 38 14.5 49t46.5 11q35 0 42 -10.5t3 -49.5q-3 -55 -31 -160q-28 -92 -71 -158q-10 -14 -18 -12l-7 1q-13 0 -3 14zM286 -285q44 83 58 153q10 43 14 101q-27 0 -39 13t-8 48q4 38 14 49t46 11q33 0 40.5 -9 t5.5 -39v-12q-3 -50 -32 -160q-25 -80 -71 -158q-10 -15 -19 -12l-5 1q-14 0 -4 14z" />
<glyph unicode="&#x2022;" horiz-adv-x="336" d="M87 436q0 32 26.5 58.5t58.5 26.5q31 0 54.5 -26.5t23.5 -58.5q0 -36 -23 -61.5t-55 -25.5q-33 0 -59 25.5t-26 61.5z" />
<glyph unicode="&#x2026;" horiz-adv-x="1098" d="M87 35q0 15 9.5 24.5t24.5 9.5q14 0 24.5 -10t10.5 -24q0 -15 -10 -25t-25 -10q-16 0 -25 9.5t-9 25.5zM515 35q0 14 10.5 24t24.5 10q16 0 25.5 -9.5t9.5 -24.5q0 -16 -9.5 -25.5t-25.5 -9.5q-15 0 -25 10t-10 25zM942 35q0 14 10.5 24t24.5 10q15 0 25 -9.5t10 -24.5 q0 -16 -9.5 -25.5t-25.5 -9.5q-15 0 -25 10t-10 25z" />
<glyph unicode="&#x202f;" horiz-adv-x="379" />
<glyph unicode="&#x2039;" horiz-adv-x="529" d="M65.5 399q-1.5 -17 5.5 -26l247 -352q5 -5 8 -5h47q4 0 5.5 2t-1.5 6l-262 377l341 364q2 2 1.5 5.5t-2.5 3.5h-44q-9 0 -12 -5l-323 -346q-9 -7 -10.5 -24z" />
<glyph unicode="&#x203a;" horiz-adv-x="529" d="M28 24q-8 -8 2 -8h48q2 0 7 5l325 352q9 9 10.5 26t-5.5 24l-252 346q-3 5 -12 5h-42q-3 0 -3 -9l264 -364z" />
<glyph unicode="&#x205f;" horiz-adv-x="473" />
<glyph unicode="&#x20ac;" horiz-adv-x="1395" d="M12 554l2 26q3 10 12 10h87q-2 44 3 109q4 52 21 113h-87q-10 0 -10 11l2 26q3 12 12 12h97q53 157 166 283t267.5 198.5t321.5 72.5q139 0 259.5 -51.5t209.5 -143.5q18 -20 10 -31l-12 -12q-12 -12 -24 1q-64 72 -176.5 131.5t-252.5 59.5q-110 0 -210.5 -29t-179 -78 t-144 -115t-110.5 -137.5t-73 -148.5h647q10 0 7 -12l-1 -26q0 -11 -11 -11h-658q-17 -54 -22 -113q-6 -64 -2 -109h658q12 0 9 -10l-2 -26q0 -11 -11 -11h-649q12 -78 41 -150.5t80.5 -139t120 -115.5t163.5 -78.5t206 -29.5q243 0 460 185q2 2 5.5 5t5 4.5t4 3t4 2t4 1 t4 -0.5t3.5 -3l12 -15q9 -9 -17 -33q-227 -193 -509 -193q-254 0 -432 157.5t-207 399.5h-95q-9 0 -9 11z" />
<glyph unicode="&#x2122;" horiz-adv-x="1174" d="M132 1359v16q2 13 16 13h376q8 0 10 -2t1 -11v-16q-2 -12 -14 -12h-167l-49 -465q-3 -14 -15 -14h-14q-15 0 -12 14l47 465h-167q-8 0 -10.5 2.5t-1.5 9.5zM569 882l52 494v6t1 3.5t3 2t5 0.5h24q11 0 16 -8l189 -445l295 445q5 8 18 8h24q9 0 9 -12l-53 -494 q-1 -6 -2 -8.5t-4 -4t-9 -1.5h-12q-17 0 -14 14l45 430l-281 -423q-8 -14 -19 -14h-4q-9 0 -17 14l-181 421l-43 -428q-2 -8 -4.5 -11t-11.5 -3h-12q-17 0 -14 14z" />
<glyph unicode="&#x25fc;" horiz-adv-x="859" d="M0 0v859h859v-859h-859z" />
<glyph unicode="&#xfb03;" horiz-adv-x="1574" d="M83 826l2 17q2 9 5 12.5t12 3.5h170l20 182q19 176 126 268.5t264 92.5q163 0 281 -116q105 111 285 111q114 0 203 -66q16 -9 9 -19l-14 -19q-8 -11 -19 -3q-80 62 -183 62q-34 0 -69 -5.5t-81.5 -25.5t-83 -52t-65.5 -91t-37 -137l-19 -182l536 -2q2 2 10 2h21 q8 0 11 -2.5t3 -11.5l-88 -831q-3 -14 -13 -14h-26q-13 0 -10 16l85 798h-535l-83 -797q0 -17 -14 -17h-24q-10 0 -10 19l83 795h-519l-83 -797q0 -17 -14 -17h-23q-13 0 -10 19l81 795h-172q-8 0 -10.5 2.5t-1.5 9.5zM321 859h519l19 182q13 127 78 214q-108 102 -258 102 q-34 0 -69.5 -6t-82 -26.5t-83 -53.5t-66 -92.5t-38.5 -137.5z" />
<glyph unicode="&#xfb04;" horiz-adv-x="1650" d="M83 826l2 17q2 9 5 12.5t12 3.5h170l20 182q19 176 126 268.5t264 92.5q90 0 165.5 -35.5t126.5 -90.5q105 126 296 126q160 0 278 -112l9 85q0 9 2 11t10 2h23q6 0 8.5 -0.5t3.5 -3.5t0 -9l-143 -1359q-3 -16 -15 -16h-19q-17 0 -14 17l130 1220q-115 120 -276 120 q-34 0 -69.5 -6t-81.5 -26.5t-83 -53.5t-66 -92.5t-38 -137.5l-20 -182h315q7 0 8.5 -2t1.5 -10l-2 -21q-2 -12 -14 -12h-314l-83 -797q0 -17 -14 -17h-23q-13 0 -10 19l82 795h-540l-83 -797q0 -17 -14 -17h-23q-13 0 -10 19l81 795h-172q-8 0 -10.5 2.5t-1.5 9.5zM321 859 h540l19 182q13 118 69 202q-114 114 -270 114q-34 0 -69.5 -6t-82 -26.5t-83 -53.5t-66 -92.5t-38.5 -137.5z" />
</font>
</defs>
</svg>
