<?xml version="1.0" standalone="no"?>
<!DOCTYPE svg PUBLIC "-//W3C//DTD SVG 1.1//EN" "http://www.w3.org/Graphics/SVG/1.1/DTD/svg11.dtd" >
<svg xmlns="http://www.w3.org/2000/svg">
<metadata></metadata>
<defs>
<font id="venti_cfmedium_oblique" horiz-adv-x="888" >
<font-face units-per-em="2048" ascent="1638" descent="-410" />
<missing-glyph horiz-adv-x="459" />
<glyph unicode="&#xfb01;" horiz-adv-x="1055" d="M62 753l6 70q4 36 41 36h127l19 186q19 173 126.5 262.5t267.5 89.5q117 0 208 -61q19 -13 9 -31l-40 -69q-12 -19 -31 -11q-81 49 -156 49q-27 0 -54.5 -5t-62 -20.5t-61.5 -39.5t-48 -66.5t-26 -97.5l-19 -186h561q20 0 20 -22l-86 -814q-3 -23 -21 -23h-68 q-43 0 -40 47l73 689h-453l-75 -712q-3 -24 -24 -24h-66q-43 0 -38 50l71 686h-144q-19 0 -16 17z" />
<glyph unicode="&#xfb02;" horiz-adv-x="1105" d="M76 753l7 70q5 36 40 36h127l19 182q19 176 128.5 268.5t272.5 92.5q134 0 253 -85l6 49q0 22 22 22h89q22 0 19 -22l-141 -1342q-3 -24 -24 -24h-64q-45 0 -40 49l119 1133q-111 97 -248 97q-29 0 -58.5 -5.5t-64.5 -22t-62.5 -42t-49 -69t-27.5 -99.5l-19 -182h252 q18 0 15 -17l-8 -87q-3 -19 -19 -19h-252l-75 -712q-3 -24 -24 -24h-66q-41 0 -38 50l73 686h-146q-19 0 -16 17z" />
<glyph horiz-adv-x="0" />
<glyph horiz-adv-x="682" />
<glyph unicode=" "  horiz-adv-x="459" />
<glyph unicode="&#x09;" horiz-adv-x="459" />
<glyph unicode="&#xa0;" horiz-adv-x="459" />
<glyph unicode="!" horiz-adv-x="383" d="M45 85q4 37 34.5 64.5t68.5 27.5q37 0 61 -27t20 -65q-4 -37 -34 -63.5t-68 -26.5q-37 0 -61.5 26.5t-20.5 63.5zM135 569l65 783l1 17q0 8 6 13.5t15 5.5h104q8 0 13.5 -6t4.5 -13l-2 -17l-99 -783q-4 -19 -19 -19h-71q-18 0 -18 19z" />
<glyph unicode="&#x22;" horiz-adv-x="550" d="M83 906l45 427q4 21 23 21h82q21 0 17 -21l-68 -427q-3 -21 -22 -21h-58q-9 0 -14.5 6t-4.5 15zM408 906l45 427q3 21 23 21h81q22 0 19 -21l-69 -427q-3 -21 -23 -21h-57q-8 0 -14 6t-5 15z" />
<glyph unicode="#" horiz-adv-x="1148" d="M47 463l5 52q3 20 23 20h230l89 355h-215q-19 0 -19 19l5 53q3 19 22 19h230l95 387q4 20 23 20h50q23 0 19 -20l-95 -387h291l96 387q4 20 24 20h50q22 0 18 -20l-96 -387h215q19 0 16 -19l-5 -53q0 -7 -6 -13t-13 -6h-229l-89 -355h212q20 0 17 -21l-3 -49 q-3 -21 -23 -21h-224l-106 -425q-5 -19 -22 -19h-52q-21 0 -16 19l104 425h-291l-106 -425q-8 -19 -25 -19h-50q-22 0 -17 19l106 425h-219q-19 0 -19 19zM397 535h294l87 355h-292z" />
<glyph unicode="$" horiz-adv-x="1098" d="M41.5 206q-1.5 6 8.5 21l58 58q21 21 43 3q3 -2 22.5 -22t37 -36.5t50 -40t65 -39.5t77.5 -27.5t92 -11.5q160 0 251 76.5t101 176.5q3 27 -1.5 52t-11.5 45t-24 39t-31 32.5t-41 29t-44 24.5t-50.5 22t-51 19.5t-54.5 19.5t-52 18q-63 23 -109 44.5t-95 54.5t-77.5 70 t-44.5 90t-9 116t35 123t77 112.5t127 89t174 46.5l12 128q3 20 23 20h95q17 0 14 -20l-12 -128q186 -22 331 -167q20 -17 4 -38l-54 -61q-18 -24 -40 -8q-3 2 -23 19.5t-36.5 30.5t-47.5 32.5t-60.5 32.5t-70 22.5t-81.5 9.5q-140 0 -227.5 -69.5t-98.5 -173.5 q-5 -45 10 -82t35 -60t69 -49t78.5 -37.5t98.5 -36.5l33 -12q47 -17 81 -31t78.5 -36t74.5 -43.5t61.5 -52.5t49 -65t26.5 -78.5t4 -94.5q-15 -144 -140 -253t-306 -126l-14 -132q0 -19 -19 -19h-95q-21 0 -18 19l14 134q-60 7 -116.5 28.5t-91.5 42t-73 53.5t-48 44.5 l-30 34.5q-11 11 -12.5 17z" />
<glyph unicode="%" horiz-adv-x="1081" d="M26 12.5q-4 7.5 5 20.5l904 1305q14 23 32 23h76q14 0 18.5 -7.5t-2.5 -20.5l-906 -1307q-15 -21 -33 -21h-77q-13 0 -17 7.5zM163 1243q2 30 27 51.5t55 21.5t49 -21.5t17 -51.5q-4 -31 -27 -52t-55 -21q-30 0 -49 21t-17 52zM786 115q2 30 27 51t55 21t49 -21t17 -51 q-4 -31 -28 -52t-54 -21q-31 0 -50.5 21t-15.5 52z" />
<glyph unicode="&#x26;" horiz-adv-x="1171" d="M-62.5 328.5q-4.5 107.5 46.5 197.5q76 138 278 238q-44 58 -90 128q-56 87 -50.5 191.5t69.5 186.5q64 84 140 119.5t176 37.5q110 2 192.5 -45t112.5 -155q80 -285 -359 -498l274 -358q87 126 189 365q4 13 15.5 21t24.5 8h157q22 0 17 -22q-22 -54 -28 -78 q-5 -18 -24 -18h-59q-106 -234 -207 -375q1 -1 22 -27t28 -33.5t29.5 -28.5t40 -30t45 -19t57.5 -13q12 0 18.5 -6.5t4.5 -15.5l-7 -71q-3 -25 -24 -25q-59 -2 -108.5 10.5t-88.5 38.5t-64.5 50.5t-56.5 60.5q-110 -106 -222 -139q-62 -18 -127.5 -22.5t-130.5 6t-123.5 43 t-97.5 84.5q-65 86 -69.5 193.5zM108 255q38 -72 118.5 -103t167.5 -20q148 21 248 128l-312 410q-152 -65 -217.5 -181.5t-4.5 -233.5zM259 1119q-14 -68 14.5 -127t85.5 -128q24 -29 -54 -80q63 30 109 54t105 62t95 72.5t60 79t20 88.5q-10 101 -85 142t-170 18 q-68 -15 -116.5 -65.5t-63.5 -115.5z" />
<glyph unicode="'" horiz-adv-x="225" d="M83 906l45 427q4 21 23 21h82q21 0 17 -21l-68 -427q-3 -21 -22 -21h-58q-9 0 -14.5 6t-4.5 15z" />
<glyph unicode="(" horiz-adv-x="720" d="M83 663q40 371 201 590.5t441 266.5q9 1 13.5 -4.5t2.5 -14.5l-7 -86q0 -15 -19 -18q-214 -33 -340.5 -226t-159.5 -508q-33 -318 52 -508t295 -223q19 -3 16 -17l-14 -92q0 -9 -6 -14t-15 -3q-268 47 -383 269t-77 588z" />
<glyph unicode=")" horiz-adv-x="720" d="M-28 -177l7 92q3 14 19 17q218 33 342.5 223t157.5 508q33 316 -52 508.5t-293 225.5q-18 3 -16 18l12 86q2 10 6.5 15t12.5 4q271 -47 386.5 -266.5t75.5 -590.5q-38 -366 -199.5 -588t-440.5 -269q-18 -3 -18 17z" />
<glyph unicode="*" horiz-adv-x="706" d="M99 915q-9 18 12 29l220 122l-194 121q-20 10 -7 30l30 40q17 19 33 7l178 -129l16 231q4 22 24 22h47q23 0 19 -22l-29 -231l205 129q21 12 31 -7l19 -40q12 -19 -10 -30l-219 -121l192 -122q20 -10 6 -29l-28 -40q-15 -21 -33 -7l-177 128l-19 -231q-3 -22 -24 -22h-47 q-22 0 -19 22l31 231l-207 -128q-19 -12 -29 7z" />
<glyph unicode="+" horiz-adv-x="1079" d="M121 606l9 85q1 12 6.5 16.5t17.5 4.5h332l35 333q2 12 7 16.5t17 4.5h85q12 0 16 -4.5t3 -16.5l-35 -333h332q12 0 16.5 -4.5t4.5 -16.5l-9 -85q-3 -21 -26 -21h-331l-35 -332q-3 -22 -24 -22h-84q-22 0 -19 22l35 332h-333q-23 0 -20 21z" />
<glyph unicode="," horiz-adv-x="347" d="M12 -267q27 28 44 50.5t34.5 62t22.5 83.5q2 11 3 31t2 26l-14 -2q-40 0 -63 25t-18 69q8 94 100 94q77 0 84 -70q3 -13 3 -29q0 -84 -33 -186q-36 -104 -123 -182q-14 -14 -24 -7l-16 17q-12 5 -2 18z" />
<glyph unicode="-" horiz-adv-x="730" d="M69 397v77q0 22 25 22h546q21 0 21 -22v-75q0 -22 -21 -22h-546q-25 0 -25 20z" />
<glyph unicode="." horiz-adv-x="331" d="M78 80q0 35 27 61.5t62 26.5t60.5 -26.5t25.5 -61.5q0 -36 -25.5 -61.5t-60.5 -25.5q-36 0 -62.5 25.5t-26.5 61.5z" />
<glyph unicode="/" horiz-adv-x="643" d="M-3 26l536 1338q12 24 29 24h82q12 0 18 -7t1 -17l-536 -1338q-8 -26 -30 -26h-81q-12 0 -16.5 7.5t-2.5 18.5z" />
<glyph unicode="0" horiz-adv-x="1204" d="M86.5 481.5q-5.5 86.5 5.5 179.5q15 146 57.5 268t113 219t177 151.5t239.5 54.5q134 0 229.5 -54.5t146 -151.5t67 -219t1.5 -268q-12 -114 -40.5 -213.5t-77.5 -186.5t-115 -149t-156.5 -97.5t-198.5 -35.5q-90 0 -163 25t-123 69.5t-87 107.5t-53.5 138.5t-22 162z M221.5 491q1.5 -81 23.5 -150.5t58.5 -120.5t100 -80t148.5 -29q104 0 184 44t130.5 122.5t80 173t41.5 210.5q7 91 6 173.5t-23 153.5t-58 123t-99 81.5t-146 29.5q-84 0 -153 -30t-117.5 -81t-84 -123.5t-56 -153t-30.5 -173.5q-7 -89 -5.5 -170z" />
<glyph unicode="1" horiz-adv-x="480" d="M115 1116q0 18 17 21q114 44 205 184l1 7q3 8 23 8h80q22 0 19 -20l-135 -1293q-3 -23 -25 -23h-90q-24 0 -21 23l111 1053l-159 -43q-18 -3 -21 15z" />
<glyph unicode="2" horiz-adv-x="1011" d="M30 21l5 40l605 599q91 88 139 158.5t56 153.5q12 107 -67.5 183.5t-199.5 76.5q-194 0 -353 -187q-7 -7 -15.5 -7t-13.5 7l-49 55q-13 13 2 33q88 112 206 170.5t242 58.5q110 0 201 -49.5t141.5 -140t37.5 -200.5q-16 -165 -167 -316l-536 -524h593q18 0 18 -21 l-11 -90q-1 -8 -13.5 -14.5t-22.5 -6.5h-779q-9 0 -14.5 6t-4.5 15z" />
<glyph unicode="3" horiz-adv-x="1043" d="M45 222q-11 19 4 31l71 59q17 14 29 -1q50 -86 139.5 -141t190.5 -55q76 0 137.5 26t99.5 68.5t59.5 90t26.5 96.5q11 107 -50 186t-178 79q-55 0 -175 -40q-16 -4 -26 9l-42 66q-11 16 4 31l507 478h-635q-11 0 -17.5 6.5t-5.5 15.5l9 87q3 22 26 22h767q24 0 21 -22 l-11 -97q-3 -19 -17 -35l-448 -420q88 14 167 -14q122 -24 189.5 -129t54.5 -234q-18 -173 -156 -287.5t-319 -114.5q-277 0 -422 239z" />
<glyph unicode="4" horiz-adv-x="1036" d="M57 404l9 85q4 14 10 18q125 86 229.5 204t166.5 251q89 192 109 373q3 19 21 19h101q20 0 17 -19q-15 -135 -63 -277t-112 -251q-101 -159 -271 -295h370l10 108q0 16 21 20l94 16q9 2 14 -4.5t3 -14.5l-14 -125h153q24 0 21 -23l-9 -85q-3 -22 -24 -22h-153l-38 -359 q-3 -23 -26 -23h-83q-24 0 -21 23l38 359h-552q-21 0 -21 22z" />
<glyph unicode="5" horiz-adv-x="1020" d="M43 215q-10 15 2 28l73 66q18 15 26 -2q48 -87 134.5 -139.5t191.5 -52.5q131 0 213.5 85t94.5 196q13 120 -59 205t-184 85q-135 0 -269 -110l-112 23q-23 6 -20 26l71 689q3 22 26 22q168 -7 352 -7t342 7q24 0 21 -22l-9 -83q-3 -25 -24 -25q-131 -8 -323 -8 q-153 0 -259 7l-50 -486q138 97 293 97q111 0 195.5 -60.5t123.5 -157t27 -206.5q-11 -111 -77.5 -205.5t-169.5 -149t-218 -54.5q-127 0 -236.5 60.5t-175.5 171.5z" />
<glyph unicode="6" horiz-adv-x="1062" d="M73 566q13 117 51 229.5t101.5 212.5t145.5 176t190 121.5t227 48.5q23 0 23 -19l-7 -87q-3 -17 -23 -17q-101 0 -190.5 -39.5t-152.5 -101.5t-111 -142t-74.5 -158.5t-35.5 -152.5q55 88 150.5 144t205.5 56q183 0 296 -123t94 -303q-18 -180 -159 -304t-334 -124 q-147 0 -243.5 77.5t-133.5 207t-20 298.5zM205 423q-13 -131 66 -225t210 -94q127 0 231.5 90t117.5 216q14 128 -64.5 217.5t-206.5 89.5q-127 0 -234.5 -89.5t-119.5 -204.5z" />
<glyph unicode="7" horiz-adv-x="1017" d="M73 9.5q-2 9.5 3 14.5l762 1179h-692q-9 0 -15 6t-6 15l10 90q3 21 23 21h845q21 0 18 -21l-4 -44q-3 -13 -10 -27l-788 -1231q-8 -12 -30 -12h-104q-10 0 -12 9.5z" />
<glyph unicode="8" horiz-adv-x="1034" d="M52 358q-18 -163 89.5 -269t309.5 -106t332 106t146 269q8 70 -13.5 132t-61 102t-84.5 65t-88 32l16 4q93 30 173.5 107.5t93.5 192.5q17 157 -88.5 259t-281.5 102t-301.5 -102t-142.5 -259q-6 -60 10.5 -112.5t49 -89t69 -61t76.5 -37.5l12 -4q-40 -5 -89.5 -30 t-98 -65.5t-85 -103.5t-43.5 -132zM181 359q11 106 104 186t234 80q140 0 215.5 -80t65.5 -186q-12 -120 -108.5 -190t-228.5 -70q-131 0 -212.5 70t-69.5 190zM274 994q11 103 99 174t210 71t195.5 -71t61.5 -174q-11 -94 -100.5 -166.5t-206.5 -72.5q-118 0 -194 72.5 t-65 166.5z" />
<glyph unicode="9" horiz-adv-x="1062" d="M175 925q18 180 159 304.5t334 124.5q146 0 242.5 -77.5t134 -207.5t19.5 -298q-13 -117 -50.5 -229.5t-101 -212.5t-145.5 -176t-190 -121.5t-228 -48.5q-11 0 -16.5 5t-4.5 14l7 87q0 7 7 12t16 5q85 0 161.5 27.5t135 74t106.5 106t80.5 127t53 132.5t27.5 126 q-55 -88 -150.5 -143.5t-205.5 -55.5q-183 0 -296.5 123t-94.5 302zM307 927q-13 -128 66 -217.5t207 -89.5q126 0 233.5 89t120.5 204q13 131 -66.5 225t-211.5 94q-126 0 -231 -90t-118 -215z" />
<glyph unicode=":" horiz-adv-x="475" d="M94 182q4 42 36 71.5t73 29.5q42 0 68.5 -29.5t21.5 -71.5q-4 -41 -37 -70t-74 -29t-67 28.5t-21 70.5zM149 715q5 41 38 71t73 30t67.5 -30t23.5 -71q-5 -42 -37.5 -71.5t-73.5 -29.5t-68 29.5t-23 71.5z" />
<glyph unicode=";" horiz-adv-x="794" d="M92 -175q95 99 106 203q1 10 2.5 29t2.5 28l-17 -2q-40 0 -64.5 26.5t-19.5 71.5q11 97 105 97q78 0 86 -68q6 -20 6 -35q0 -86 -35 -192q-41 -113 -129 -188q-14 -14 -26 -7l-15 19q-12 8 -2 18zM149 715q5 41 38 71t73 30t67.5 -30t23.5 -71q-5 -42 -37.5 -71.5 t-73.5 -29.5t-68 29.5t-23 71.5z" />
<glyph unicode="&#x3c;" horiz-adv-x="874" d="M73 635q-4 -13 10 -19l620 -403q9 -7 17.5 -1.5t10.5 17.5l8 83q2 12 -10 21l-489 313l558 317q8 5 11 18l8 85q2 13 -5 17.5t-19 -2.5l-703 -409q-15 -6 -15 -19z" />
<glyph unicode="=" horiz-adv-x="1041" d="M80 366l7 75q4 22 28 22h784q11 0 16.5 -5t4.5 -15l-9 -77q-3 -22 -24 -22h-786q-24 0 -21 22zM128 833l9 76q3 23 26 23h785q23 0 20 -23l-8 -74q0 -23 -23 -23h-786q-23 0 -23 21z" />
<glyph unicode="&#x3e;" horiz-adv-x="874" d="M64 229q-2 -12 6 -17t20 1l701 407q14 5 18 19l2 17q0 13 -13 19l-619 406q-7 6 -16 1.5t-10 -16.5l-9 -85q-3 -12 7 -18l491 -316l-555 -314q-12 -12 -14 -21z" />
<glyph unicode="?" horiz-adv-x="807" d="M97 1182q-10 14 4 28q171 196 401 196q80 0 154 -28q73 -27 118.5 -90.5t55 -138t-17.5 -153.5t-90 -133q-48 -41 -99 -74t-79 -48.5t-54 -37.5t-39 -54.5t-19 -86.5q0 -22 -24 -22h-80q-22 0 -19 22l7 75q5 48 44 89.5t92 74t106.5 67t94.5 82.5t48 105 q14 100 -43.5 168t-190.5 68q-155 0 -299 -163q-15 -14 -24 -2zM227 87q4 37 35 65.5t69 28.5q37 0 61.5 -28t20.5 -66t-34.5 -66t-67.5 -28t-62.5 28t-21.5 66z" />
<glyph unicode="@" horiz-adv-x="2025" d="M92 491q27 252 170.5 463.5t372 336t491.5 124.5q157 0 293.5 -47.5t232 -127.5t162 -181.5t93.5 -213t16 -218.5q-9 -88 -28.5 -170t-58.5 -166.5t-92.5 -146.5t-135 -101.5t-180.5 -39.5q-86 0 -128.5 36t-55.5 110l-10 12q-23 -32 -92 -71q-137 -76 -253 -83 q-47 -3 -93 4t-91 25t-75 57t-36 93q-4 35 -0.5 65.5t16 56t28 46.5t44 40t55 34t71 29.5t81.5 25.5t96 24t106 22t119 23q14 90 -31.5 141t-140.5 55q-141 8 -313 -73q-24 -13 -32 9l-16 64q-5 20 17 31q178 91 361 87q159 -4 231 -89t54 -232q-14 -99 -21 -174 q-2 -35 -2.5 -64t2 -52t6 -41t10 -31t13 -22t17 -15t19 -10t22.5 -5.5t24 -2t26 -0.5q77 0 138.5 39.5t101 109t64 154t35.5 185.5q9 92 -13 186t-77.5 181.5t-137.5 156t-202 109.5t-261 41q-170 0 -326 -62.5t-272.5 -170t-193 -255t-93.5 -311.5q-12 -112 7.5 -223 t71 -210.5t128.5 -178t186.5 -130t237.5 -63.5q22 -4 18 -24l-9 -87q-2 -16 -42 -12q-126 13 -235.5 57t-191.5 111t-145 153.5t-100 185.5t-50.5 206t-2.5 215zM723 195.5q16 -50.5 74 -70.5q82 -28 192.5 8.5t190.5 93.5q-2 47 18 223q-26 -5 -77.5 -14.5t-84 -16 t-79.5 -17t-78 -21t-63 -24t-51.5 -30t-28.5 -35.5q-29 -46 -13 -96.5z" />
<glyph unicode="A" horiz-adv-x="1515" d="M11 6q-1 2 -1 5q0 5 4 12l793 1359q11 15 23 15h24q15 0 19 -15l509 -1359q2 -6 2 -11q0 -12 -16 -12h-108q-16 0 -21 16l-95 258h-839l-149 -258q-11 -16 -24 -16h-109q-9 0 -12 6zM377 399h720l-280 764z" />
<glyph unicode="B" horiz-adv-x="1183" d="M45 23l142 1343q0 22 23 22h524q109 0 192.5 -51t122.5 -133q31 -65 31 -137q0 -19 -2 -38q-12 -106 -72 -186t-147 -119q115 -40 175 -134q49 -78 50 -173q0 -21 -3 -42q-18 -163 -153 -269t-312 -106h-552q-19 0 -19 18v5zM194 132h412q172 0 269 105q70 75 70 168 q0 9 -1 17q-7 106 -98 165q-76 50 -192 50h-406zM260 765h379q149 0 236 104q64 77 64 170q0 9 -1 19q-8 107 -93 161q-59 38 -147 38h-386z" />
<glyph unicode="C" horiz-adv-x="1390" d="M83 693q21 194 133.5 357t285.5 257t366 94q147 0 271 -54t211 -153q12 -13 12 -23q0 -8 -8 -13l-80 -61q-17 -14 -33 2q-59 68 -157.5 119t-219.5 51q-109 0 -208 -34t-173 -91t-131.5 -131t-90.5 -156t-42 -164q-3 -28 -3 -56q0 -55 10 -109q16 -82 58 -155.5t104 -130 t154 -89.5t201 -33q120 0 224.5 48.5t181.5 117.5q23 20 38 7l66 -60q16 -14 -10 -39q-229 -206 -524 -206q-144 0 -269.5 55t-211.5 149q-86 93 -128 224q-31 97 -31 202q0 37 4 75z" />
<glyph unicode="D" horiz-adv-x="1398" d="M45 23l142 1343q0 22 23 22h470q138 0 251 -39t188.5 -105.5t124.5 -154.5q48 -88 66 -186q11 -60 11 -122q0 -39 -4 -78q-12 -108 -50.5 -209.5t-106 -191t-156.5 -157t-209 -106.5t-257 -39h-474q-19 0 -19 18v5zM194 132h367q106 0 200.5 32t165.5 87t125 127.5 t85.5 155t40.5 169.5q3 32 3 63q-1 74 -19 144q-26 98 -85.5 176.5t-162 124.5t-235.5 46h-368z" />
<glyph unicode="E" horiz-adv-x="1162" d="M71 23l142 1343q0 22 25 22h868q22 0 22 -22l-10 -87q-3 -22 -26 -22h-754l-53 -509h465q24 0 21 -24l-9 -84q0 -22 -24 -22h-467l-51 -486h754q23 0 20 -24l-8 -84q-3 -24 -26 -24h-870q-19 0 -19 18v5z" />
<glyph unicode="F" horiz-adv-x="1032" d="M28 47l139 1319q3 22 24 22h847q22 0 22 -22l-10 -87q-3 -22 -26 -22h-734l-52 -509h444q26 0 23 -24l-9 -84q-3 -22 -26 -22h-446l-63 -595q-3 -23 -24 -23h-69q-40 0 -40 38v9z" />
<glyph unicode="G" horiz-adv-x="1390" d="M83 693q21 194 133.5 357t285.5 257t366 94q147 0 271 -54t211 -153q12 -13 12 -23q0 -8 -8 -13l-80 -61q-17 -14 -33 2q-59 68 -157.5 119t-219.5 51q-109 0 -208 -34t-173 -91t-131.5 -131t-90.5 -156t-42 -164q-3 -28 -3 -56q0 -55 10 -109q16 -82 58 -155.5t104 -130 t154 -89.5t201 -33q112 0 211 43t174 106l17 160h-366q-24 0 -21 21l11 85q0 24 22 24h479q26 0 23 -24l-33 -315q-3 -13 -17 -26q-229 -206 -524 -206q-144 0 -269.5 55t-211 148.5t-128.5 224.5q-31 97 -31 202q0 37 4 75z" />
<glyph unicode="H" horiz-adv-x="1407" d="M68 24l142 1342q3 22 24 22h91q23 0 20 -22l-64 -614h877l64 614q0 22 22 22h91q22 0 22 -22l-143 -1343q-3 -23 -22 -23h-69q-41 0 -41 38q0 4 1 9l61 569h-877l-62 -592q-3 -24 -26 -24h-89q-25 0 -22 24z" />
<glyph unicode="I" horiz-adv-x="416" d="M80 23v-5q0 -18 19 -18h90q21 0 24 23l141 1343q3 22 -21 22h-88q-23 0 -23 -22z" />
<glyph unicode="J" horiz-adv-x="492" d="M-62 -444q-2 5 -2 10q0 12 14 19q167 84 187 264l153 1451q2 17 2 62q-3 26 19 26h78q43 0 43 -41v-5l-158 -1505q-17 -124 -90 -220.5t-181 -149.5q-10 -5 -17 -5q-9 0 -14 10z" />
<glyph unicode="K" horiz-adv-x="1155" d="M42 23l133 1261q2 31 2 78q-3 26 17 26h80q44 0 44 -38v-5l-65 -614l700 644q13 13 28 13h105q19 0 23 -15q1 -4 1 -7q0 -11 -10 -21l-687 -630l613 -670q13 -14 4 -29.5t-29 -15.5h-98q-15 0 -28 14l-625 685l-71 -676q-3 -23 -25 -23h-93q-19 0 -19 18v5z" />
<glyph unicode="L" horiz-adv-x="1048" d="M52 23l142 1343q3 22 25 22h92q20 0 20 -22l-130 -1234h698q19 0 19 -19v-5l-9 -85q-3 -23 -24 -23h-814q-19 0 -19 23z" />
<glyph unicode="M" horiz-adv-x="1851" d="M62 24l143 1342q0 22 22 22h82q15 0 26 -15l548 -1125l787 1125q10 15 27 15h82q9 0 14.5 -7t4.5 -17l-141 -1340q-3 -24 -26 -24h-90q-24 0 -21 24l115 1087l-743 -1066q-13 -17 -29 -17h-6q-16 0 -26 17l-517 1066l-114 -1087q-3 -24 -26 -24h-89q-26 0 -23 24z" />
<glyph unicode="N" horiz-adv-x="1449" d="M68 23l142 1345q3 20 23 20h57q17 0 31 -19l824 -1119l119 1119q3 19 20 19h96q19 0 19 -19l-142 -1350q-3 -19 -23 -19h-36q-35 0 -77 54l-800 1078l-118 -1109q-3 -23 -24 -23h-90q-24 0 -21 23z" />
<glyph unicode="O" horiz-adv-x="1615" d="M99 694q-4 -38 -4 -75q-1 -105 31 -202q42 -131 128 -225t212.5 -149t271.5 -55q193 0 366.5 93t286 256t133.5 357q4 41 5 80q-1 148 -63 276q-78 162 -232 256.5t-347 94.5q-194 0 -368 -94t-286.5 -256.5t-133.5 -356.5zM234 694q17 156 109 288.5t234 209.5t298 77 q155 0 279 -77q124 -78 187 -210q50 -104 50 -223q0 -32 -4 -65q-16 -156 -107.5 -288.5t-231.5 -209t-295 -76.5q-156 0 -281 76q-126 78 -190 210q-52 106 -51 227q0 30 3 61z" />
<glyph unicode="P" horiz-adv-x="1174" d="M59 24l142 1342q3 22 25 22h503q113 0 202 -42t139 -109t72 -146q16 -56 17 -113q0 -23 -3 -46q-7 -65 -32.5 -129.5t-71 -124t-105 -105t-141 -72.5t-173.5 -27h-390l-47 -450q-3 -24 -22 -24h-94q-21 0 -21 19v5zM257 604h385q159 0 262 98t117 230q2 19 2 38 q1 62 -23 118q-30 72 -106 120.5t-184 48.5h-384z" />
<glyph unicode="Q" horiz-adv-x="1607" d="M35 694q21 194 133.5 356.5t286.5 256.5t368 94q193 0 347 -94t232 -257q62 -128 62 -276q0 -39 -4 -80q-15 -149 -88 -281.5t-187 -230.5l72 -142q48 -92 81 -125q11 -14 8.5 -25t-13.5 -17l-75 -43q-15 -9 -28 -9q-5 0 -10 1q-17 5 -26 24l-128 249 q-186 -107 -393 -107q-145 0 -271 55t-212 149t-128 225q-31 97 -31 201q0 38 4 76zM170 694q-3 -31 -3 -61q0 -121 51 -227q65 -133 190 -209.5t281 -76.5q35 0 42 1q-52 26 -75 70q-18 35 -18 74q0 10 1 20q9 87 77 145.5t159 58.5q136 0 217 -130l33 -59q82 78 134 179.5 t64 214.5q4 33 4 65q0 119 -50 223q-63 133 -187 210t-279 77q-156 0 -298 -77t-234 -209.5t-109 -288.5zM705 234q-1 -7 -1 -15q0 -57 65 -94q125 18 236 85l-26 54q-46 92 -146 92q-48 0 -85.5 -35.5t-42.5 -86.5z" />
<glyph unicode="R" horiz-adv-x="1213" d="M45 24l142 1342q0 22 25 22h510q94 0 171 -28t127 -74t82 -106q32 -58 43 -122q7 -39 7 -78q0 -25 -3 -50q-9 -92 -53.5 -179.5t-130.5 -160t-198 -99.5l287 -467q5 -10 -0.5 -17t-17.5 -7h-90q-31 0 -52 38l-264 436h-3h-398l-47 -450q-3 -24 -26 -24h-90q-21 0 -21 19 v5zM243 604h387q85 0 156.5 28t118 75.5t75 105.5t35.5 121q2 17 2 33q-1 44 -13 86q-16 57 -53 103t-102 73.5t-150 27.5h-388z" />
<glyph unicode="S" horiz-adv-x="1088" d="M45 233l56 57q24 22 43 3l22.5 -22.5t38 -36t50.5 -39t65.5 -39t77.5 -27t91 -11.5q161 0 251.5 73t102.5 175q3 29 -0.5 54t-16.5 46.5t-26.5 38.5t-39 33.5t-44.5 27.5t-53 25t-55 22t-60 22t-59 21q-84 33 -141 64t-110 76q-52 45 -76 105q-18 45 -18 98q0 18 2 37 q6 54 27 105t60 98.5t92.5 83t130.5 57t167 21.5q218 0 392 -165q13 -11 13 -23q0 -10 -9 -19l-51 -59q-19 -22 -39 -7q-1 1 -15 13.5t-23.5 20t-30 22.5t-38 25t-43.5 22.5t-50.5 20t-55.5 13t-62 5.5q-141 0 -229 -66t-99 -168q-3 -25 1 -47t10 -40t23 -36t29 -30.5 t40 -28t44.5 -24.5t54 -24t56 -22.5t62.5 -23.5q6 -2 8 -3q46 -18 78 -31.5t76 -36t73.5 -44t61 -52t48.5 -63.5q18 -34 27 -76q6 -27 6 -56q0 -16 -2 -34q-16 -155 -157.5 -264.5t-345.5 -109.5q-239 0 -422 197l-7 7q-10 12 -10 22q0 9 8 17z" />
<glyph unicode="T" horiz-adv-x="1235" d="M149 1279l9 85q3 24 26 24h1033q23 0 20 -22l-8 -87q-3 -22 -24 -22h-450l-130 -1233q-3 -24 -23 -24h-69q-42 0 -42 40v9l127 1208h-448q-24 0 -21 22z" />
<glyph unicode="U" horiz-adv-x="1334" d="M113 512q-3 -32 -3 -63q0 -105 38 -196q50 -118 167.5 -191.5t281.5 -73.5q166 0 301.5 73.5t213 191.5t93.5 259l88 854q3 22 -19 22h-92q-13 0 -19 -4.5t-7 -17.5l-89 -835q-11 -104 -56 -185.5t-110 -129.5t-138.5 -72t-149.5 -24q-75 0 -142 24t-122 72t-83 130 q-20 58 -19 127q0 28 3 58l88 835q3 22 -20 22h-91q-23 0 -26 -22z" />
<glyph unicode="V" horiz-adv-x="1438" d="M127 1359q-3 6 -3 11q0 6 4 10q6 8 16 8h116q10 0 14.5 -6t10.5 -21l395 -1113l632 1113q9 15 14.5 21t15.5 6h116q10 0 15 -8q2 -3 2 -8q0 -7 -5 -15l-781 -1347q-12 -17 -28 -17h-14q-17 0 -22 17z" />
<glyph unicode="W" horiz-adv-x="1964" d="M125 1359q-2 5 -2 10q0 7 3 11q6 8 16 8h117q16 0 24 -27l404 -1116l222 394l-267 722q-5 12 2 20.5t17 8.5h117q2 0 4 -0.5t4 -1.5l3 -1.5t2.5 -2.5t2 -3l2 -4t2 -4.5t2 -5.5t2.5 -5l199 -562l318 561q14 27 30 27h116q10 0 14.5 -8.5t-2.5 -22.5l-418 -720l139 -391 l638 1116q7 12 9.5 15.5t8 8t13.5 4.5h117q10 0 14 -8q1 -3 1 -7q0 -7 -5 -16l-788 -1347q-12 -17 -28 -17h-13q-8 0 -15 5t-8 12l-174 469l-272 -471q-12 -17 -28 -17h-14q-19 0 -24 17z" />
<glyph unicode="X" horiz-adv-x="1254" d="M-10 9q0 7 7 15l557 670l-420 677q-8 17 10 17h134q7 0 19 -17l350 -564l469 564q17 17 24 17h130q10 0 12 -5q1 -2 0 -4q0 -4 -3 -8l-562 -677l416 -670q5 -9 3 -16.5t-11 -7.5h-131q-3 0 -6 1t-5 2t-4 4t-3.5 4.5t-3.5 6t-4 6.5l-345 557l-462 -557q-2 -3 -6 -8t-6 -7 t-5 -4.5t-6 -3.5t-6 -1h-132q-10 0 -10 9z" />
<glyph unicode="Y" horiz-adv-x="1287" d="M95 1368q-2 4 -2 7t2 7q4 6 11 6h121q13 0 21 -17l398 -663l538 663q15 17 24 17h121q7 0 10 -6q1 -2 1 -4q0 -5 -4 -10l-635 -794l-59 -550q-3 -24 -24 -24h-68q-41 0 -41 40v9l55 525z" />
<glyph unicode="Z" horiz-adv-x="1115" d="M-2 23l5 31l4 5l901 1194h-750q-26 0 -21 24l9 89q0 22 24 22h937q24 0 21 -22l-2 -28l-1 -3l-903 -1200h760q24 0 21 -22l-7 -66q-5 -47 -54 -47h-923q-24 0 -21 23z" />
<glyph unicode="[" horiz-adv-x="621" d="M-24 -290l5 57l180 1720l7 61q3 19 21 19h446q19 0 16 -19l-9 -83q-3 -18 -19 -18h-345l-172 -1634h344q20 0 17 -20l-9 -83q-3 -17 -21 -17h-446q-18 0 -15 17z" />
<glyph unicode="\" horiz-adv-x="633" d="M134 1364q-2 10 5 17t19 7h82q19 0 24 -24l255 -1338q1 -10 -6 -18t-18 -8h-84q-11 0 -15 6t-7 20z" />
<glyph unicode="]" horiz-adv-x="621" d="M-24 -290l8 83q3 20 21 20h344l172 1634h-346q-18 0 -15 18l8 83q3 19 21 19h446q19 0 16 -19l-11 -101l-171 -1634l-11 -103q-3 -17 -21 -17h-446q-18 0 -15 17z" />
<glyph unicode="^" horiz-adv-x="1050" d="M64 785q4 -9 18 -9h78q17 0 21 10l418 526l305 -524q5 -12 19 -12h80q13 0 19.5 9.5t1.5 19.5l-377 656q-7 16 -19 16h-19q-11 0 -22 -16l-518 -656q-9 -11 -5 -20z" />
<glyph unicode="_" horiz-adv-x="945" d="M69 -23q0 23 25 23h760q22 0 22 -23v-52q0 -22 -22 -22h-760q-25 0 -25 22v52z" />
<glyph unicode="`" horiz-adv-x="574" d="M151 1342q-14 -19 5 -32l344 -229q18 -9 29 7l30 45q12 17 -2 25l-331 248q-18 16 -33 -4z" />
<glyph unicode="a" d="M31 219q-2 -16 -2 -31q0 -84 58 -136q68 -60 196 -61q104 0 180 26.5t165 79.5q2 -48 7 -72.5t21 -24.5h75q22 0 19 33q0 223 40 503q6 39 6 73q0 103 -54 171q-72 90 -227 90q-97 0 -197.5 -25.5t-173.5 -63.5q-22 -11 -16 -33l18 -57q4 -20 31 -9q174 78 309 78 q101 0 147 -56q35 -43 35 -115q0 -22 -3 -47q-104 -17 -176.5 -31.5t-148 -34.5t-125.5 -43t-92.5 -54t-64.5 -71t-27 -89zM161 220q5 47 35.5 80.5t105.5 59.5t120.5 36.5t161.5 33.5q46 9 69 14q-24 -161 -28 -253q-62 -39 -145 -69t-162 -30q-72 0 -118 32q-39 28 -40 80 q0 7 1 16z" />
<glyph unicode="b" horiz-adv-x="1003" d="M52 21l130 1241q2 17 2 99q0 27 17 27h80q21 0 31.5 -11.5t8.5 -31.5l-59 -561q133 84 283 84q77 0 145.5 -31t118.5 -86t75 -137q18 -59 18 -124q0 -26 -3 -53q-20 -191 -143 -319t-303 -128q-154 0 -264 93l-3 -29q-1 -24 -22.5 -39t-45.5 -15h-49q-8 0 -13 6t-4 15z M201 196q115 -85 243 -85t218.5 90.5t106.5 235.5q2 22 2 43q1 51 -13 94q-20 61 -59 97t-87.5 55t-101.5 19q-136 0 -260 -85z" />
<glyph unicode="c" horiz-adv-x="874" d="M47 429q21 186 163.5 314t324.5 128q92 0 166 -37.5t123 -99.5q7 -9 7 -17q0 -9 -8 -16l-52 -55q-17 -15 -32 3q-80 99 -211 99q-77 0 -142.5 -28.5t-108.5 -75t-69.5 -102t-33.5 -113.5q-1 -15 -2 -29q0 -42 12 -84q14 -56 48 -102t94 -74.5t137 -28.5q126 0 242 116 q20 14 34 -1l39 -54q13 -17 -4 -31q-157 -153 -333 -153q-181 0 -297 128q-99 109 -100 262q0 25 3 51z" />
<glyph unicode="d" horiz-adv-x="984" d="M50 436q13 126 83.5 226.5t168 152t201.5 51.5q150 0 264 -83l50 479q2 17 2 99q0 27 18 27h79q22 0 32 -12q9 -10 8 -25v-6l-137 -1324q-1 -9 -7.5 -15t-14.5 -6h-49q-24 0 -41.5 14.5t-15.5 39.5l3 28q-132 -94 -284 -94q-120 0 -207 60t-126 162q-30 78 -30 169 q0 28 3 57zM181 436q-3 -25 -3 -49q0 -111 62 -187q75 -92 204 -91q128 0 262 85l47 464q-112 85 -243 85q-53 0 -106 -18.5t-100.5 -54.5t-81 -97t-41.5 -137z" />
<glyph unicode="e" horiz-adv-x="956" d="M47 430q-3 -27 -3 -54q0 -155 96 -261q112 -125 297 -125q110 0 204 46.5t164 126.5q13 16 0 31l-19 30q-12 17 -36 2q-127 -118 -288 -118q-133 0 -209.5 78.5t-78.5 186.5h624q83 0 92 80q3 24 3 48q0 83 -33 157q-42 96 -132.5 154.5t-210.5 58.5 q-179 0 -314.5 -128.5t-155.5 -312.5zM184 476q7 45 31 91.5t62.5 87.5t97.5 67t127 26q69 0 123 -26.5t83.5 -68t43.5 -87.5q11 -36 11 -70q0 -10 -1 -20h-578z" />
<glyph unicode="f" horiz-adv-x="737" d="M62 753l6 70q4 36 41 36h127l19 186q19 173 126.5 262.5t267.5 89.5q117 0 208 -61q12 -9 12 -19q0 -6 -3 -12l-40 -69q-12 -19 -31 -11q-81 49 -156 49q-27 0 -54.5 -5t-62 -20.5t-61.5 -39.5t-48 -66.5t-26 -97.5l-19 -186h250q18 0 15 -17l-8 -87q-3 -19 -21 -19h-250 l-75 -712q-3 -24 -24 -24h-66q-39 0 -39 40q0 5 1 10l71 686h-144q-19 0 -16 17z" />
<glyph unicode="g" horiz-adv-x="1056" d="M10 78q4 74 66 116q42 29 95 29q25 0 53 -6q-42 30 -73 101q-25 57 -25 122q0 14 1 29q13 169 137 284t290 115q50 0 153 -12q72 -8 156 -8q37 0 76 2q21 0 21 -19l-12 -67q-26 -9 -141 -14q39 -30 64 -68.5t32.5 -74t10.5 -73.5v-25q0 -24 -3 -44q-18 -167 -141 -269 q-117 -97 -271 -97h-15q-99 2 -199 55q-29 8 -55 8t-50 -8q-45 -18 -46 -62q0 -44 48.5 -65.5t145.5 -33.5q61 -8 163 -20.5t142 -17.5q57 -8 98 -17t83 -28t66 -44.5t35 -67.5q6 -22 6 -48q0 -23 -5 -49q-12 -65 -48.5 -119t-89 -90t-118 -60.5t-134.5 -35.5 q-63 -10 -127 -10h-12q-89 2 -162 22.5t-125 58t-75 97.5q-14 37 -14 81q0 26 5 55q15 80 72.5 130.5t135.5 72.5q-95 13 -156 57q-58 42 -58 109v9zM149 -297q-3 -17 -3 -33q0 -34 12 -62q18 -39 57 -61t88 -32t110 -10q144 0 247.5 51.5t117.5 146.5q2 11 2 21 q0 41 -26 66q-33 32 -122 49q-86 15 -287 38q-8 1 -16 1q-50 0 -105 -43q-64 -50 -75 -132zM253 476q-1 -13 -1 -25q0 -88 62 -154q72 -75 179 -77h3q121 0 198 70q78 72 90 186q2 19 2 37q0 93 -57 157q-68 75 -179 75q-113 0 -198.5 -76t-98.5 -193z" />
<glyph unicode="h" horiz-adv-x="1004" d="M42 23v-5q0 -18 20 -18h86q23 0 26 23l60 576q166 144 325 144q113 -1 169 -61q46 -50 46 -129q0 -16 -2 -32l-48 -472v-9q0 -40 40 -40h74q22 0 19 28q4 75 7 126l42 391q2 22 2 43q0 124 -81 196q-95 84 -242 84q-164 0 -337 -134l64 611q2 20 -8.5 31.5t-31.5 11.5 h-79q-19 0 -19 -27q2 -30 2 -54.5t-2 -42.5z" />
<glyph unicode="i" horiz-adv-x="376" d="M45 47v-7q-1 -16 7 -27q10 -13 31 -13h68q20 0 23 23l85 814q3 22 -19 22h-89q-23 0 -23 -22zM179 1309q2 31 26.5 52.5t56.5 21.5q32 1 51 -21q16 -18 15 -43v-10q-2 -31 -26.5 -53t-55.5 -22q-32 0 -52 22q-16 18 -16 42q0 6 1 11z" />
<glyph unicode="j" horiz-adv-x="340" d="M-148 -359l35 -87q3 -10 13 -10q6 0 15 3q98 40 142.5 108.5t55.5 170.5l104 1011q3 22 -19 22h-89q-21 0 -24 -22l-104 -1011q-7 -67 -31 -100t-84 -59q-15 -6 -15 -19q0 -3 1 -7zM137 1309q2 31 26.5 52.5t56.5 21.5q30 0 50 -21q17 -18 17 -43q0 -5 -1 -10 q-2 -31 -26.5 -53t-56.5 -22q-31 0 -51 22q-16 17 -16 42q0 6 1 11z" />
<glyph unicode="k" horiz-adv-x="923" d="M52 23l130 1241q4 31 4 59q0 19 -2 38q0 27 17 27h80q21 0 31.5 -11.5t8.5 -31.5l-92 -882l437 384q12 12 28 12h101q15 0 19 -13q1 -3 1 -7q0 -9 -8 -18l-436 -375l413 -408q11 -13 4.5 -25.5t-23.5 -12.5h-100q-17 0 -28 14l-411 416l-42 -407q-3 -23 -26 -23h-85 q-24 0 -21 23z" />
<glyph unicode="l" horiz-adv-x="390" d="M71 49q-1 -5 -1 -9q0 -40 41 -40h64q22 0 25 24l140 1342q3 22 -19 22h-88q-23 0 -23 -22z" />
<glyph unicode="m" horiz-adv-x="1681" d="M43 23l87 815q0 8 6 14.5t15 6.5h66q20 0 31 -15.5t9 -34.5l-7 -71q166 133 337 133q102 0 182 -43t116 -125q52 45 98 77t124 61.5t157 29.5q145 1 240 -85q81 -73 81 -198q0 -21 -2 -43l-40 -391q-5 -44 -9 -126q2 -12 -3 -20t-14 -8h-76q-40 0 -40 43v6l48 472 q2 17 2 33q0 79 -46 130q-55 61 -168 61q-163 0 -329 -150q0 -33 -2 -50l-40 -391q-5 -44 -9 -126q3 -28 -17 -28h-75q-41 0 -41 41v8l50 472q1 14 1 28q-1 83 -47 135q-54 61 -167 61q-163 0 -327 -146l-59 -576q-4 -23 -22 -23h-92q-18 0 -18 23z" />
<glyph unicode="n" horiz-adv-x="1004" d="M43 23l87 815q0 8 6 14.5t15 6.5h66q20 0 31 -15.5t9 -34.5l-7 -73q165 132 337 132q147 0 241 -84q80 -72 80 -195q0 -21 -2 -44l-40 -391q-5 -44 -9 -126q3 -28 -17 -28h-75q-41 0 -41 41v8l50 472q1 14 1 28q-1 82 -47 134q-54 60 -167 60q-161 0 -327 -144l-59 -576 q-4 -23 -22 -23h-92q-18 0 -18 23z" />
<glyph unicode="o" horiz-adv-x="1001" d="M43 429q-3 -25 -3 -50q0 -151 102 -261q118 -128 301 -128q120 0 228 58t178 159t83 222q3 26 3 51q-1 154 -101 264q-116 128 -298 129q-185 0 -329.5 -128.5t-163.5 -315.5zM172 429q15 130 116 224.5t234 94.5q132 0 214 -94q70 -82 70 -190q0 -17 -2 -35 q-13 -127 -114.5 -221.5t-233.5 -94.5t-214 94q-71 82 -72 190q0 16 2 32z" />
<glyph unicode="p" horiz-adv-x="1003" d="M-2 -489l129 1221q2 19 2.5 36t-0.5 35.5t-1 27.5q0 28 18 28h80q21 0 31.5 -11.5t8.5 -31.5l-4 -32q133 84 283 84q77 0 145.5 -31t118.5 -86t75 -137q18 -59 18 -124q0 -26 -3 -53q-20 -191 -143 -319t-303 -128q-147 0 -264 92l-55 -538q-2 -24 -24 -39t-46 -15h-48 q-8 0 -13 6t-5 15zM201 196q115 -85 243 -85t218.5 90.5t106.5 235.5q2 22 2 43q0 51 -13 94q-20 61 -59 97t-87.5 55t-101.5 19q-136 0 -260 -85z" />
<glyph unicode="q" horiz-adv-x="985" d="M68 436q10 95 52.5 177t104.5 136.5t137.5 85.5t152.5 31q148 0 263 -82l1 21q2 24 23.5 39t44.5 15h49q19 0 19 -21l-129 -1222q-2 -17 -2 -98q2 -12 -3.5 -20t-15.5 -8h-79q-40 0 -40 38v5l57 547q-134 -92 -281 -92q-180 0 -276 128q-81 108 -81 259q0 30 3 61z M198 436q-3 -26 -3 -50q0 -111 60 -186q73 -91 201 -91q130 0 259 84l49 467q-110 83 -242 83q-42 0 -84 -11.5t-82.5 -36t-73 -59.5t-55 -87t-29.5 -113z" />
<glyph unicode="r" horiz-adv-x="725" d="M52 23l87 815q2 8 8 14.5t13 6.5h66q20 0 31.5 -15.5t9.5 -34.5l-5 -49q123 106 255 106q108 0 186 -57q13 -8 13 -18q0 -6 -4 -12l-58 -73q-12 -14 -29 -7q-76 44 -146 44q-136 0 -233 -134l-62 -586q0 -9 -7 -16t-16 -7h-92q-17 0 -17 23z" />
<glyph unicode="s" horiz-adv-x="803" d="M30 118l48 59q14 19 31 9q4 -6 31.5 -24.5t86 -39.5t118.5 -21q98 0 148.5 37.5t56.5 90.5q1 6 1 13q0 52 -46 81q-51 33 -156 61q-133 36 -199 94q-57 51 -56 128q0 12 1 24q11 101 98 171t230 70q136 0 273 -88q12 -9 12 -19q0 -5 -3 -11l-51 -62q-15 -15 -31 -7 q-91 50 -134 62q-39 11 -78 11q-52 0 -91 -13t-59 -35t-29.5 -42.5t-11.5 -41.5q-3 -24 7.5 -44.5t26 -34t44.5 -26.5t51.5 -21t58.5 -18q51 -14 88.5 -28t77.5 -35.5t64.5 -46.5t38.5 -61q10 -26 11 -55q0 -11 -2 -22q-12 -110 -108.5 -177.5t-246.5 -67.5q-94 0 -174.5 34 t-121.5 70q-9 7 -9 14q0 6 4 12z" />
<glyph unicode="t" horiz-adv-x="666" d="M83 753l4 26q0 15 14 25q89 40 136.5 100.5t93.5 208.5q5 17 18 17h21q8 0 10 -4t2 -15l-28 -252h215q10 0 16 -6t5 -16l-7 -84q-1 -9 -9 -15t-17 -6h-182q-17 0 -35 6l-43 -410q-6 -60 -6 -103v-13q1 -48 23.5 -72.5t72.5 -24.5q55 0 108 17q30 8 34 -12l9 -70 q2 -12 -21 -26q-68 -33 -161 -33q-130 0 -170 75q-27 52 -27 148q0 44 6 97l45 421h-108q-22 0 -19 21z" />
<glyph unicode="u" horiz-adv-x="989" d="M57 314l40 389q5 43 9 127q-3 29 17 29h75q42 0 42 -41v-9l-51 -471q-2 -17 -2 -32q0 -79 47 -130q56 -61 169 -61q161 0 324 145l61 575q3 24 23 24h90q17 0 17 -18v-6l-85 -814q-1 -9 -7 -15t-14 -6h-74q-14 0 -24.5 16.5t-8.5 32.5l7 72q-166 -133 -335 -133 q-69 0 -130 20.5t-107 60t-69 103.5q-17 46 -17 99q0 21 3 43z" />
<glyph unicode="v" horiz-adv-x="968" d="M62 842l325 -835q6 -17 23 -17h15q16 0 25 17l498 835q2 4 2 7q0 10 -16 10h-106q-13 0 -23 -17l-364 -629l-236 629q-4 17 -19 17h-110q-15 0 -15 -11q0 -3 1 -6z" />
<glyph unicode="w" horiz-adv-x="1385" d="M71 838q-2 5 -2 9q0 12 16 12h104q16 0 19 -14l158 -633l311 625q8 15 26 15h31q18 0 21 -15l182 -625l288 633q8 14 23 14h104q13 0 13 -9q0 -5 -3 -12l-397 -822q-11 -16 -26 -16h-17q-18 0 -23 16l-203 617l-333 -617q-11 -16 -26 -16h-19q-16 0 -19 16z" />
<glyph unicode="x" horiz-adv-x="937" d="M28 10q-1 3 -1 6q0 7 6 14l337 399l-254 401q-6 9 -0.5 19t16.5 10h101q16 0 24 -16l203 -329l274 329q12 16 24 16h105q9 1 13 -9q1 -3 1 -7q0 -6 -4 -13l-342 -401l257 -399q5 -10 -0.5 -20t-16.5 -10h-103q-12 0 -21 16l-206 326l-271 -326q-14 -16 -28 -16h-99 q-11 0 -15 10z" />
<glyph unicode="y" horiz-adv-x="968" d="M-47 -474q-6 7 -6 15q0 12 13 27q107 107 223 256t190 287l-291 726q-5 11 -1 16.5t14 5.5h108q13 0 21 -14l232 -602l349 599q7 17 25 17h102q19 0 19 -11q0 -5 -5 -13l-434 -734q-134 -226 -258.5 -385.5t-217.5 -246.5q-8 -7 -15 -7q-11 0 -21 14z" />
<glyph unicode="z" horiz-adv-x="841" d="M28 16q-3 7 -3 13q0 9 6 16l33 44l498 638h-430q-19 0 -19 21l10 90q3 21 23 21h607q17 -1 23 -15q3 -6 2 -12q0 -8 -4 -15l-26 -36l-507 -649h438q20 0 17 -21l-9 -90q-3 -21 -24 -21h-611q-17 0 -24 16z" />
<glyph unicode="{" horiz-adv-x="800" d="M68 590q-1 -7 4 -13t13 -6q76 -29 102 -54q36 -33 32 -78l-25 -226q-10 -100 2 -182.5t42.5 -139.5t72 -99t94.5 -66.5t104.5 -36.5t106.5 -14q6 0 12 5.5t7 12.5l5 66q2 13 1 15t-9 2q-171 12 -254 129t-64 293l23 208q5 51 -10 92.5t-41 64.5t-50 35.5t-43 15.5l1 21 q14 0 41 13t59 36.5t57.5 66.5t30.5 94l24 229q18 174 124 281.5t281 119.5q9 0 13 18l6 64q1 13 -2.5 16t-11.5 3q-55 0 -109 -10t-112 -32t-108 -62t-92.5 -95t-72 -136.5t-39.5 -181.5l-26 -245q-4 -38 -41.5 -71.5t-72.5 -48t-48 -14.5q-16 0 -20 -19z" />
<glyph unicode="|" horiz-adv-x="477" d="M75 -323l218 2060q3 21 25 21h85q23 0 20 -21l-216 -2060q-3 -22 -26 -22h-86q-12 0 -16 5t-4 17z" />
<glyph unicode="}" horiz-adv-x="800" d="M-26 -307q-1 -7 3 -12.5t11 -5.5q68 2 132.5 18.5t133.5 55.5t122.5 97.5t93.5 153t52 213.5l25 226q2 20 9.5 36.5t24.5 30.5t27.5 22t37 19t31 13t31.5 11q7 0 13.5 6t7.5 13l7 71q1 7 -4 13t-13 6q-9 0 -30.5 9.5t-46.5 25.5t-42.5 43t-14.5 56l26 245 q12 119 -8.5 212t-62 149t-102.5 92.5t-122.5 50t-128.5 13.5q-6 0 -9 -0.5t-6 -5t-4 -13.5l-5 -64q-4 -18 9 -18q172 -12 254.5 -119.5t64.5 -281.5l-24 -229q-5 -51 12 -94t43.5 -66.5t50.5 -36.5t38 -13l-2 -21q-15 -2 -35 -10t-45.5 -24.5t-47 -39t-38 -58t-21.5 -76.5 l-21 -208q-19 -176 -127 -293t-281 -129q-8 0 -10 -2.5t-4 -14.5z" />
<glyph unicode="~" horiz-adv-x="846" d="M26 469l40 -47q13 -13 24 3q1 1 11.5 13t14.5 16l15.5 15.5t19.5 17t21 14t24.5 12.5t26 7.5t29.5 3.5q25 0 49 -10t35 -18t32.5 -28t23.5 -22q3 -2 17.5 -16t20.5 -18.5t22.5 -15.5t29.5 -15.5t33.5 -8.5t43.5 -4q36 0 74 13.5t66.5 33t51.5 39t35 32.5l12 14q9 13 0 19 l-36 43q-12 15 -24 0q-7 -10 -19.5 -22.5t-35 -31t-52.5 -31t-60 -12.5q-27 0 -51.5 10t-35.5 18.5t-30 28.5t-22 23q-29 26 -45 38.5t-51.5 27t-73.5 14.5q-36 0 -73.5 -14t-65.5 -34.5t-50.5 -40.5t-34.5 -34l-12 -14q-10 -10 0 -19z" />
<glyph unicode="&#xa1;" horiz-adv-x="383" d="M3 -510l2 17l101 783q3 19 21 19h71q15 0 15 -19l-65 -783l-2 -17q0 -7 -6.5 -13t-14.5 -6h-104q-18 0 -18 19zM118 774q4 37 34 63.5t68 26.5t62 -26.5t20 -63.5q-5 -38 -35 -65t-67 -27t-61.5 27t-20.5 65z" />
<glyph unicode="&#xa2;" horiz-adv-x="1004" d="M61 434q21 190 167.5 323t333.5 133q46 0 80 -7l40 91q8 17 28 12l35 -14q16 -9 8 -24l-38 -87q104 -44 165 -134q11 -16 -5 -31l-61 -50q-19 -13 -33 7q-46 62 -116 95l-281 -630q44 -17 107 -17q143 0 271 139q20 20 35 3l46 -45q14 -14 0 -30q-168 -191 -376 -191 q-75 0 -137 23l-58 -128q-12 -17 -27 -13l-37 16q-14 5 -8 23l60 133q-103 58 -157.5 166t-41.5 237zM189 434q-7 -77 24.5 -156t100.5 -127l276 616l-28 2q-83 0 -153.5 -31.5t-115 -81.5t-71.5 -107.5t-33 -114.5z" />
<glyph unicode="&#xa3;" horiz-adv-x="1029" d="M66 19l2 24q88 107 150.5 228t69.5 213q2 19 2 56h-186q-19 0 -19 21l9 76q3 21 21 21h157q-2 9 -10 36l-29 89q-20 57 -28 83t-14.5 65.5t-4.5 73.5q10 121 79.5 216t170 143.5t211.5 48.5q239 0 363 -169q11 -16 -3 -26l-75 -53q-15 -11 -28 0l-10 10q-9 10 -14 15.5 t-18 17t-24 19t-27.5 18t-34.5 17t-38.5 13.5t-45 10t-50.5 3q-125 0 -217.5 -80.5t-103.5 -192.5q-3 -34 2.5 -70t12 -56.5t23.5 -63.5t23 -60q16 -45 31 -107h295q20 0 17 -21l-8 -76q0 -21 -21 -21h-271q-1 -8 -1.5 -22.5t-1.5 -22.5q-17 -164 -174 -377h585q19 0 16 -21 l-7 -76q-4 -21 -23 -21h-736q-20 0 -17 19z" />
<glyph unicode="&#xa4;" horiz-adv-x="1145" d="M52 384q-10 12 4 26l137 125q-71 118 -56 263t113 266l-111 123q-11 14 3 26l87 80q15 14 26 0l111 -123q126 85 274 85t257 -85l136 123q13 13 26 0l71 -80q10 -13 -5 -26l-134 -121q74 -118 59 -268q-14 -142 -113 -263l110 -125q13 -13 0 -26l-89 -80q-13 -12 -26 1 l-109 124q-132 -87 -278 -87q-148 0 -259 87l-137 -124q-13 -13 -26 -1zM269 800q-16 -137 68 -232.5t222 -95.5q134 0 240.5 96t122.5 232q14 136 -72.5 229.5t-221.5 93.5q-138 0 -242 -93.5t-117 -229.5z" />
<glyph unicode="&#xa5;" horiz-adv-x="1266" d="M99 1368q-4 7 0 13.5t12 6.5h118q13 0 21 -17l396 -663l531 663q12 17 22 17h120q7 0 10.5 -6t-1.5 -14l-623 -785h251q10 0 16 -6t5 -15l-9 -76q0 -21 -24 -21h-258l-14 -147h257q23 0 20 -23l-8 -75q-3 -22 -26 -22h-257l-18 -174q-3 -24 -24 -24h-69q-45 0 -40 49 l15 149h-256q-23 0 -20 22l9 75q3 23 23 23h257l15 147h-257q-22 0 -19 21l7 75q3 22 24 22h252z" />
<glyph unicode="&#xa6;" horiz-adv-x="477" d="M75 -323l86 814q3 23 25 23h85q24 0 21 -23l-85 -814q-3 -22 -26 -22h-86q-12 0 -16 5t-4 17zM207 925l86 814q3 23 25 23h85q23 0 20 -23l-85 -814q-3 -24 -26 -24h-85q-23 0 -20 24z" />
<glyph unicode="&#xa7;" horiz-adv-x="1089" d="M-5 -286l48 57q17 23 37 7q66 -70 118 -106q112 -78 231 -78q85 0 163 31.5t133 94.5t63 145q4 38 -6.5 71t-28 57.5t-50 47t-60.5 37t-72 30.5t-73 24.5t-75 20.5q-76 20 -134.5 48t-109.5 71t-75 107.5t-15 146.5q16 161 147 257q-110 93 -94 248q7 69 41.5 135.5 t94 122.5t152 90t202.5 34q194 0 371 -156q5 -4 7 -6q19 -15 4 -36l-51 -61q-21 -24 -40 -10q-2 2 -8 7q-160 142 -308 142q-131 0 -225.5 -77t-105.5 -185q-3 -25 0.5 -47t8.5 -39t20 -34t25 -28t34.5 -24.5t36.5 -20t44.5 -18.5t45 -16.5t49.5 -16.5q22 -7 33 -11 q55 -18 97.5 -35t95.5 -43t90 -57t69 -70t46 -90t8 -110q-18 -160 -142 -263q102 -102 88 -243q-11 -101 -76.5 -190.5t-177 -146t-242.5 -56.5q-252 0 -429 199q-3 4 -5 6q-16 18 0 37zM215 526q-5 -48 10.5 -87t40.5 -63.5t72 -47t84 -34t97 -27.5q127 -35 213 -83 q105 69 117 187q5 49 -16.5 91t-45 66.5t-86 53.5t-88.5 38t-103 34q-22 7 -33 11q-78 24 -128 48q-120 -58 -134 -187z" />
<glyph unicode="&#xa8;" horiz-adv-x="761" d="M135 1305q4 32 29 55t56 23q35 0 55.5 -22.5t16.5 -55.5q-2 -32 -27.5 -55t-59.5 -23q-32 0 -52 22.5t-18 55.5zM618 1305q2 32 27.5 55t57.5 23q33 0 53 -22.5t18 -55.5q-4 -32 -29.5 -55t-57.5 -23t-52.5 23t-16.5 55z" />
<glyph unicode="&#xa9;" horiz-adv-x="1570" d="M80 699q15 146 86 278.5t176.5 228.5t244 152.5t283.5 56.5q146 0 273 -56.5t213 -152.5t128.5 -228.5t27.5 -278.5q-21 -195 -134 -359.5t-288.5 -260t-370.5 -95.5q-145 0 -271.5 56.5t-212 152t-128 228t-27.5 278.5zM194 701q-17 -164 49 -302.5t196 -219t293 -80.5 q162 0 309 80.5t242.5 219t113.5 302.5q13 122 -23 233t-108.5 191t-178.5 127.5t-228 47.5q-163 0 -310 -80t-242.5 -218t-112.5 -301zM467 705q14 139 123.5 237.5t247.5 98.5q77 0 138 -33t97 -86q8 -16 -4 -25l-54 -43q-10 -6 -14 -5t-12 10q-59 80 -152 80 q-111 0 -182.5 -73.5t-81.5 -160.5q-4 -40 7 -80.5t35.5 -75.5t69.5 -57.5t103 -22.5q102 0 189 95q15 15 26 4l44 -39q9 -9 0 -22q-55 -64 -128 -103.5t-152 -39.5q-138 0 -226 99.5t-74 241.5z" />
<glyph unicode="&#xaa;" d="M31 219q-12 -107 56 -167.5t196 -60.5q104 0 180 26.5t165 79.5q2 -48 7 -72.5t21 -24.5h75q22 0 19 33q0 223 40 503q24 154 -47.5 244t-227.5 90q-97 0 -197.5 -25.5t-173.5 -63.5q-22 -11 -16 -33l18 -57q4 -20 31 -9q174 78 309 78q101 0 147 -56t32 -162 q-104 -17 -176.5 -31.5t-148 -34.5t-125.5 -43t-92.5 -54t-64.5 -71t-27 -89zM161 220q5 47 35.5 80.5t105.5 59.5t120.5 36.5t161.5 33.5q46 9 69 14q-24 -161 -28 -253q-62 -39 -145 -69t-162 -30q-73 0 -118.5 32t-38.5 96z" />
<glyph unicode="&#xab;" horiz-adv-x="904" d="M57 399.5q-2 -16.5 5 -26.5l223 -347q6 -10 17 -10h83q14 0 19.5 9.5t-1.5 21.5l-203 354l279 340q9 13 6 23t-16 10h-77q-14 0 -24 -14l-300 -337q-9 -7 -11 -23.5zM402 395q-1 -16 6 -25l227 -340q8 -14 21 -14h78q14 0 20 10t-1 23l-210 347l281 347q6 12 3 21.5 t-15 9.5h-81q-13 0 -23 -10l-295 -344q-10 -9 -11 -25z" />
<glyph unicode="&#xac;" horiz-adv-x="1036" d="M71 625l9 74q0 21 24 21h847q19 0 19 -21l-7 -62l-40 -368q0 -24 -22 -24h-75q-22 0 -19 24l36 333h-751q-24 0 -21 23z" />
<glyph unicode="&#xad;" horiz-adv-x="730" d="M69 397v77q0 22 25 22h546q21 0 21 -22v-75q0 -22 -21 -22h-546q-25 0 -25 20z" />
<glyph unicode="&#xae;" horiz-adv-x="1039" d="M80 1126q23 204 182.5 348.5t364.5 144.5q135 0 241.5 -66t160 -179.5t38.5 -247.5q-14 -135 -91.5 -248.5t-198 -179.5t-255.5 -66t-241.5 66t-160.5 179.5t-40 248.5zM165 1125q-18 -168 89.5 -288t276.5 -120t302.5 120t150.5 288q18 171 -89 291t-277 120 t-302.5 -119.5t-150.5 -291.5zM375 892l50 469q0 5 4.5 9.5t9.5 4.5h203q68 0 108.5 -47t33.5 -104q-5 -50 -39 -91t-85 -57l92 -180q5 -14 -11 -14h-57q-9 0 -12 5l-89 182h-113l-19 -177q0 -4 -4 -7t-8 -3h-52q-12 0 -12 10zM477 1139h132q53 0 79 40.5t8.5 81.5t-71.5 41 h-130z" />
<glyph unicode="&#xaf;" d="M137 1237l7 68q0 18 17 18h714q19 0 19 -18l-7 -68q-3 -17 -23 -17h-711q-19 0 -16 17z" />
<glyph unicode="&#xb0;" horiz-adv-x="683" d="M167 1128q9 95 84.5 163t170.5 68q96 0 156.5 -67.5t51.5 -163.5q-11 -96 -87 -165t-172 -69q-95 0 -155 69t-49 165zM259 1128q-7 -57 29.5 -98.5t93.5 -41.5q58 0 103.5 41.5t52.5 98.5q5 56 -31.5 96.5t-93.5 40.5t-103 -40.5t-51 -96.5z" />
<glyph unicode="&#xb1;" horiz-adv-x="1029" d="M35 23l8 74q0 23 26 23h792q19 0 19 -21l-9 -76q-3 -23 -24 -23h-791q-24 0 -21 23zM113 755l8 83q0 23 23 23h333l35 331q3 23 24 23h85q22 0 19 -23l-34 -331h329q23 0 23 -23l-10 -83q-3 -23 -25 -23h-331l-35 -331q-3 -23 -24 -23h-85q-22 0 -19 23l34 331h-331 q-22 0 -19 23z" />
<glyph unicode="&#xb2;" horiz-adv-x="1011" d="M30 21l5 40l605 599q91 88 139 158.5t56 153.5q12 107 -67.5 183.5t-199.5 76.5q-194 0 -353 -187q-7 -7 -15.5 -7t-13.5 7l-49 55q-13 13 2 33q88 112 206 170.5t242 58.5q110 0 201 -49.5t141.5 -140t37.5 -200.5q-16 -165 -167 -316l-536 -524h593q18 0 18 -21 l-11 -90q-1 -8 -13.5 -14.5t-22.5 -6.5h-779q-9 0 -14.5 6t-4.5 15z" />
<glyph unicode="&#xb3;" horiz-adv-x="1043" d="M45 222q-11 19 4 31l71 59q17 14 29 -1q50 -86 139.5 -141t190.5 -55q76 0 137.5 26t99.5 68.5t59.5 90t26.5 96.5q11 107 -50 186t-178 79q-55 0 -175 -40q-16 -4 -26 9l-42 66q-11 16 4 31l507 478h-635q-11 0 -17.5 6.5t-5.5 15.5l9 87q3 22 26 22h767q24 0 21 -22 l-11 -97q-3 -19 -17 -35l-448 -420q88 14 167 -14q122 -24 189.5 -129t54.5 -234q-18 -173 -156 -287.5t-319 -114.5q-277 0 -422 239z" />
<glyph unicode="&#xb4;" horiz-adv-x="616" d="M125 1133l23 -45q5 -17 27 -7l393 229q19 13 12 32l-32 60q-5 9 -14.5 10t-16.5 -6l-383 -248q-16 -11 -9 -25z" />
<glyph unicode="&#xb6;" horiz-adv-x="1565" d="M115 951q8 76 46.5 153t100 140.5t150 103.5t187.5 40h946q25 0 22 -24l-8 -78q-3 -24 -28 -24h-207l-130 -1238q-3 -24 -26 -24h-87q-22 0 -19 24l130 1238h-284l-130 -1238q-3 -24 -26 -24h-87q-22 0 -19 24l50 476h-191q-99 0 -179 39t-128 103t-70 144.5t-13 164.5z M249 908q0 -132 86 -211q78 -72 205 -72h168l68 637h-169q-171 0 -273 -123q-84 -100 -85 -231z" />
<glyph unicode="&#xb7;" horiz-adv-x="348" d="M87 522q0 35 26.5 62t61.5 27t61 -27t26 -62q0 -36 -26 -62t-61 -26q-36 0 -62 26t-26 62z" />
<glyph unicode="&#xb8;" horiz-adv-x="579" d="M-28 -476q-8 11 2 18l31 31q18 13 26 2q51 -59 122 -59q73 0 119 42t51 105q7 61 -29 103.5t-105 42.5q-67 0 -130 -59q-10 -8 -14 -9.5t-12 4.5l-28 33q-5 5 0 14l11 14l133 194h89l-78 -115q24 4 40 4q93 0 153 -65.5t51 -160.5q-11 -93 -85.5 -160t-169.5 -67 q-114 0 -177 88z" />
<glyph unicode="&#xb9;" horiz-adv-x="480" d="M115 1116q0 18 17 21q114 44 205 184l1 7q3 8 23 8h80q22 0 19 -20l-135 -1293q-3 -23 -25 -23h-90q-24 0 -21 23l111 1053l-159 -43q-18 -3 -21 15z" />
<glyph unicode="&#xba;" horiz-adv-x="1001" d="M43 429q-19 -183 99 -311t301 -128q120 0 228 58t178 159t83 222q19 187 -97.5 315.5t-298.5 128.5q-185 0 -329.5 -128.5t-163.5 -315.5zM172 429q15 130 116 224.5t234 94.5q132 0 213.5 -94.5t68.5 -224.5q-13 -127 -114.5 -221.5t-233.5 -94.5q-133 0 -214.5 94 t-69.5 222z" />
<glyph unicode="&#xbb;" horiz-adv-x="904" d="M23.5 26q3.5 -10 16.5 -10h78q6 0 13.5 5t10.5 9l301 340q9 9 10.5 25t-5.5 25l-224 344q-4 10 -21 10h-80q-25 0 -19 -31l207 -347l-283 -347q-8 -13 -4.5 -23zM372.5 25.5q3.5 -9.5 16.5 -9.5h85q11 0 17 10l299 347q9 10 10 26.5t-5 23.5l-231 337q-6 14 -22 14h-75 q-13 0 -18.5 -10t1.5 -23l206 -340l-278 -354q-9 -12 -5.5 -21.5z" />
<glyph unicode="&#xbc;" horiz-adv-x="1263" d="M87 1217q0 12 8 15q56 21 92 62.5t53 87.5q3 5 12 5h55q16 0 16 -14v-580q0 -15 -16 -15h-59q-17 0 -17 15v401l-123 -29q-15 -3 -18 8zM215 8q-5 8 0 20l722 1340q11 20 30 20h41q15 0 20 -7t-1 -20l-723 -1340q-9 -21 -28 -21h-42q-14 0 -19 8zM772 175v58q0 4 6 8 q114 82 157 205q32 91 32 167q0 10 10 10h63q8 0 8 -9q-3 -128 -60 -246q-32 -62 -106 -125h135v42q0 10 9 10l62 7q9 0 9 -10v-49h69q11 0 11 -10v-58q0 -12 -11 -12h-69v-153q0 -10 -11 -10h-59q-10 0 -10 10v153h-234q-11 0 -11 12z" />
<glyph unicode="&#xbd;" horiz-adv-x="1291" d="M87 1217q0 12 8 15q56 21 92 62.5t53 87.5q3 5 12 5h55q16 0 16 -14v-580q0 -15 -16 -15h-59q-17 0 -17 15v401l-123 -29q-15 -3 -18 8zM215 8q-5 8 0 20l722 1340q11 20 30 20h41q15 0 20 -7t-1 -20l-723 -1340q-9 -21 -28 -21h-42q-14 0 -19 8zM797 522 q60 87 155.5 104.5t170.5 -38.5q68 -50 75 -133t-54 -153l-196 -217h244q9 0 9 -9v-66q0 -10 -9 -10h-376q-11 0 -11 10v25l42 50h2l198 217q3 4 17 21.5t18 22t13.5 19t12.5 23.5t6.5 22t3.5 26q0 46 -38 79t-91 33q-73 0 -137 -79q-5 -9 -14 0l-40 40q-6 4 -1 13z" />
<glyph unicode="&#xbe;" horiz-adv-x="1251" d="M73 868q-4 10 0 14l40 40q8 6 14 -2q45 -65 117 -81t129 37q25 25 27 66t-19 74t-62 49t-102 -8q-3 -3 -10 3l-33 40q-6 6 0 13l189 196h-264q-10 0 -10 8v58q0 13 10 13h357q13 0 13 -12v-62q0 -3 -4 -7l-168 -170q55 1 99.5 -31t65 -78t17 -99.5t-35.5 -93.5 q-45 -52 -112 -69.5t-138 8.5t-120 94zM220.5 8q-5.5 8 1.5 20l722 1340q9 20 28 20h43q14 0 19.5 -7t-1.5 -20l-722 -1340q-7 -13 -12 -17t-16 -4h-43q-14 0 -19.5 8zM776 175v58q0 5 5 8q115 83 158 205q31 80 31 167q0 10 11 10h62q3 0 6 -3t3 -6q0 -120 -59 -246 q-30 -59 -108 -125h136v42q0 10 8 10l63 7q8 0 8 -10v-49h70q12 0 12 -10v-58q0 -12 -12 -12h-70v-153q0 -10 -10 -10h-57q-12 0 -12 10v153h-235q-10 0 -10 12z" />
<glyph unicode="&#xbf;" horiz-adv-x="803" d="M-48.5 -117q20.5 109 104.5 181q57 49 119.5 87.5t90.5 54.5t50 54t29 104q3 23 25 23h80q20 0 20 -23l-8 -74q-5 -48 -44 -89.5t-92.5 -74.5t-107 -67t-94.5 -82t-48 -104q-16 -99 42.5 -168t193.5 -69q158 0 297 163q17 16 26 0l44 -54q12 -12 -2 -28 q-114 -131 -264.5 -175.5t-289.5 7.5q-98 35 -145 130t-26.5 204zM364 842q4 37 34.5 64.5t68.5 27.5t62.5 -27.5t20.5 -64.5t-34.5 -65.5t-67.5 -28.5q-39 0 -63.5 28t-20.5 66z" />
<glyph unicode="&#xc0;" horiz-adv-x="1515" d="M11 6q-3 6 3 17l793 1359q11 15 23 15h24q15 0 19 -15l509 -1359q8 -23 -14 -23h-108q-16 0 -21 16l-95 258h-839l-149 -258q-11 -16 -24 -16h-109q-9 0 -12 6zM377 399h720l-280 764zM673 1815l42 61q15 20 33 4l332 -249q13 -7 1 -24l-29 -45q-11 -16 -30 -7l-343 229 q-19 13 -6 31z" />
<glyph unicode="&#xc1;" horiz-adv-x="1515" d="M11 6q-3 6 3 17l793 1359q11 15 23 15h24q15 0 19 -15l509 -1359q8 -23 -14 -23h-108q-16 0 -21 16l-95 258h-839l-149 -258q-11 -16 -24 -16h-109q-9 0 -12 6zM377 399h720l-280 764zM630 1607q-6 13 9 24l383 249q7 7 17 6t15 -10l31 -61q6 -18 -12 -31l-393 -229 q-22 -10 -27 7z" />
<glyph unicode="&#xc2;" horiz-adv-x="1515" d="M11 6q-3 6 3 17l793 1359q11 15 23 15h24q15 0 19 -15l509 -1359q8 -23 -14 -23h-108q-16 0 -21 16l-95 258h-839l-149 -258q-11 -16 -24 -16h-109q-9 0 -12 6zM377 399h720l-280 764zM514 1548l7 63q3 12 14 20l335 233q25 16 46 0l287 -233q12 -9 10 -20l-5 -63 q-2 -12 -12 -15.5t-23 3.5l-293 213l-337 -213q-14 -7 -22.5 -3.5t-6.5 15.5z" />
<glyph unicode="&#xc3;" horiz-adv-x="1515" d="M11 6q-3 6 3 17l793 1359q11 15 23 15h24q15 0 19 -15l509 -1359q8 -23 -14 -23h-108q-16 0 -21 16l-95 258h-839l-149 -258q-11 -16 -24 -16h-109q-9 0 -12 6zM377 399h720l-280 764zM488 1682q-9 13 1 26l4 4q4 5 9.5 11t14.5 15t19 18t23.5 19t27 19t30.5 17t34 14 t36.5 9.5t39.5 3.5q43 0 79 -14t61.5 -34t50 -39.5t55 -33.5t65.5 -14q86 0 175 78q5 5 13.5 5.5t12.5 -4.5l35 -45q8 -12 -4 -24q-35 -35 -43 -42q-96 -81 -198 -81q-44 0 -79 14t-58.5 34t-46 39.5t-54.5 33.5t-72 14q-92 0 -169 -83q-14 -14 -28 -4z" />
<glyph unicode="&#xc4;" horiz-adv-x="1515" d="M11 6q-3 6 3 17l793 1359q11 15 23 15h24q15 0 19 -15l509 -1359q8 -23 -14 -23h-108q-16 0 -21 16l-95 258h-839l-149 -258q-11 -16 -24 -16h-109q-9 0 -12 6zM377 399h720l-280 764zM566 1779q4 32 29 55t56 23q35 0 55 -22.5t16 -55.5q-2 -32 -27.5 -55t-59.5 -23 q-32 0 -51.5 22.5t-17.5 55.5zM1048 1779q2 32 27.5 55t57.5 23q33 0 53.5 -22.5t18.5 -55.5q-4 -32 -29.5 -55t-57.5 -23t-53 23t-17 55z" />
<glyph unicode="&#xc5;" horiz-adv-x="1515" d="M11 6q-3 6 3 17l793 1359q11 15 23 15h24q15 0 19 -15l509 -1359q8 -23 -14 -23h-108q-16 0 -21 16l-95 258h-839l-149 -258q-11 -16 -24 -16h-109q-9 0 -12 6zM377 399h720l-280 764zM663 1666q9 86 77.5 147t155.5 61q85 0 139.5 -61t45.5 -147q-9 -87 -77 -148.5 t-154 -61.5t-141 61.5t-46 148.5zM741 1666q-7 -56 28 -94.5t90 -38.5q56 0 98.5 38.5t47.5 94.5q7 55 -27.5 93.5t-90.5 38.5q-54 0 -97.5 -39t-48.5 -93z" />
<glyph unicode="&#xc6;" horiz-adv-x="2004" d="M-28 6q-3 6 4 17l987 1343q19 22 33 22h929q25 0 22 -22l-8 -87q-3 -22 -26 -22h-755l-52 -509h465q24 0 21 -24l-9 -84q-3 -22 -26 -22h-465l-51 -486h752q25 0 22 -24l-10 -84q-3 -24 -26 -24h-870q-10 0 -16 7t-6 16l19 187h-639l-144 -194q-11 -16 -24 -16h-113 q-11 0 -14 6zM359 335h561l94 882z" />
<glyph unicode="&#xc7;" horiz-adv-x="1390" d="M83 693q21 194 133.5 357t285.5 257t366 94q147 0 271 -54t211 -153q21 -24 4 -36l-80 -61q-17 -14 -33 2q-59 68 -157.5 119t-219.5 51q-109 0 -208 -34t-173 -91t-131.5 -131t-90.5 -156t-42 -164q-8 -83 7.5 -165t57.5 -155.5t104 -130t154 -89.5t201 -33 q120 0 224.5 48.5t181.5 117.5q23 20 38 7l66 -60q16 -14 -10 -39q-229 -206 -524 -206q-36 0 -53 2l-71 -105q24 4 40 4q93 0 153.5 -65.5t51.5 -160.5q-11 -93 -85.5 -160t-169.5 -67q-114 0 -177 88q-8 11 2 18l31 31q18 13 26 2q51 -59 121 -59q73 0 119 42t51 105 q7 61 -28.5 103.5t-104.5 42.5q-67 0 -130 -59q-10 -8 -14 -9.5t-12 4.5l-28 33q-5 5 0 14l10 14l134 194h2q-160 30 -280.5 127t-181 245.5t-42.5 320.5z" />
<glyph unicode="&#xc8;" horiz-adv-x="1162" d="M71 23l142 1343q0 22 25 22h868q22 0 22 -22l-10 -87q-3 -22 -26 -22h-754l-53 -509h465q24 0 21 -24l-9 -84q0 -22 -24 -22h-467l-51 -486h754q23 0 20 -24l-8 -84q-3 -24 -26 -24h-870q-22 0 -19 23zM502 1803l41 61q15 20 33 3l332 -248q13 -7 1 -24l-29 -45 q-11 -16 -30 -7l-343 229q-18 13 -5 31z" />
<glyph unicode="&#xc9;" horiz-adv-x="1162" d="M71 23l142 1343q0 22 25 22h868q22 0 22 -22l-10 -87q-3 -22 -26 -22h-754l-53 -509h465q24 0 21 -24l-9 -84q0 -22 -24 -22h-467l-51 -486h754q23 0 20 -24l-8 -84q-3 -24 -26 -24h-870q-22 0 -19 23zM458 1595q-6 13 9 24l383 248q7 7 17 6.5t15 -9.5l31 -61 q6 -18 -12 -31l-392 -229q-23 -10 -28 7z" />
<glyph unicode="&#xca;" horiz-adv-x="1162" d="M71 23l142 1343q0 22 25 22h868q22 0 22 -22l-10 -87q-3 -22 -26 -22h-754l-53 -509h465q24 0 21 -24l-9 -84q0 -22 -24 -22h-467l-51 -486h754q23 0 20 -24l-8 -84q-3 -24 -26 -24h-870q-22 0 -19 23zM342 1536l7 62q3 13 14 21l335 233q25 16 47 0l286 -233 q13 -9 10 -21l-5 -62q-2 -12 -12 -15.5t-23 3.5l-293 213l-337 -213q-14 -7 -22.5 -3.5t-6.5 15.5z" />
<glyph unicode="&#xcb;" horiz-adv-x="1162" d="M71 23l142 1343q0 22 25 22h868q22 0 22 -22l-10 -87q-3 -22 -26 -22h-754l-53 -509h465q24 0 21 -24l-9 -84q0 -22 -24 -22h-467l-51 -486h754q23 0 20 -24l-8 -84q-3 -24 -26 -24h-870q-22 0 -19 23zM394 1767q4 32 29 55t56 23q35 0 55 -22.5t16 -55.5 q-2 -32 -27.5 -55t-59.5 -23q-32 0 -51.5 22.5t-17.5 55.5zM876 1767q2 32 28 55t58 23q33 0 53 -22.5t18 -55.5q-4 -32 -29.5 -55t-57.5 -23t-53 23t-17 55z" />
<glyph unicode="&#xcc;" horiz-adv-x="416" d="M80 23q-3 -23 19 -23h90q21 0 24 23l141 1343q3 22 -21 22h-88q-23 0 -23 -22zM120 1795q-14 -19 5 -32l344 -229q18 -9 29 7l30 45q12 17 -2 25l-332 248q-18 16 -33 -4z" />
<glyph unicode="&#xcd;" horiz-adv-x="416" d="M75 1586l22 -45q5 -17 28 -7l392 229q19 13 12 32l-31 60q-5 9 -14.5 10t-16.5 -6l-384 -248q-15 -11 -8 -25zM80 23q-3 -23 19 -23h90q21 0 24 23l141 1343q3 22 -21 22h-88q-23 0 -23 -22z" />
<glyph unicode="&#xce;" horiz-adv-x="416" d="M-42 1527q-2 -12 7 -15.5t23 3.5l337 214l293 -214q13 -7 23 -3.5t12 15.5l5 63q3 11 -11 21l-286 232q-22 16 -47 0l-335 -232q-11 -8 -14 -21zM80 23q-3 -23 19 -23h90q21 0 24 23l141 1343q3 22 -21 22h-88q-23 0 -23 -22z" />
<glyph unicode="&#xcf;" horiz-adv-x="416" d="M10 1758q4 32 29 55t56 23q35 0 55.5 -22.5t16.5 -55.5q-2 -32 -27.5 -55t-59.5 -23q-32 0 -52 22.5t-18 55.5zM80 23q-3 -23 19 -23h90q21 0 24 23l141 1343q3 22 -21 22h-88q-23 0 -23 -22zM493 1758q2 32 27.5 55t57.5 23q33 0 53 -22.5t18 -55.5q-4 -32 -29.5 -55 t-57.5 -23t-52.5 23t-16.5 55z" />
<glyph unicode="&#xd0;" horiz-adv-x="1416" d="M31 651l9 85q0 24 24 24h104l65 606q0 22 22 22h470q138 0 251 -39t188.5 -105.5t124.5 -154.5t66.5 -186t6.5 -200q-12 -108 -50.5 -209.5t-106 -191t-156.5 -157t-209 -106.5t-257 -39h-474q-22 0 -19 23l64 605h-102q-21 0 -21 23zM240 132h366q131 0 244.5 48.5 t190 130t124.5 182.5t59 210q8 86 -6 167t-53 151.5t-98.5 123t-147.5 82.5t-195 30h-368l-52 -497h286q22 0 19 -21l-7 -88q-3 -23 -22 -23h-288z" />
<glyph unicode="&#xd1;" horiz-adv-x="1449" d="M68 23l142 1345q3 20 23 20h57q17 0 31 -19l824 -1119l119 1119q3 19 20 19h96q19 0 19 -19l-142 -1350q-3 -19 -23 -19h-36q-35 0 -77 54l-800 1078l-118 -1109q-3 -23 -24 -23h-90q-24 0 -21 23zM456 1647l35 -43q14 -11 28 3q77 83 168 83q40 0 72 -14t55 -34 t46.5 -39.5t58.5 -33.5t79 -14q36 0 73.5 12t62 25.5t51 35t34.5 29.5t18 19l2 2q13 13 4 25l-35 45q-4 5 -12.5 4t-13.5 -6q-89 -78 -175 -78q-35 0 -65.5 14t-55 34t-50 39.5t-61.5 33.5t-79 14q-20 0 -39.5 -3.5t-36.5 -9.5t-34 -14t-30.5 -17t-27 -19t-23.5 -19t-19 -18 t-14.5 -15t-9.5 -10l-4 -5q-11 -14 -2 -26z" />
<glyph unicode="&#xd2;" horiz-adv-x="1615" d="M99 694q-15 -146 27.5 -277t128 -225t212 -149t271.5 -55q193 0 366.5 93t286 256t133.5 357t-57.5 356.5t-232.5 256.5t-347 94q-194 0 -368 -94t-286.5 -256.5t-133.5 -356.5zM234 694q17 156 109 288.5t234 209.5t298 77q155 0 279 -77t187 -209.5t46 -288.5 q-16 -156 -107.5 -288.5t-231.5 -209t-295 -76.5q-156 0 -281 76.5t-189.5 209t-48.5 288.5zM713 1812q-13 -18 6 -31l343 -229q19 -9 30 7l29 45q12 16 -2 24l-331 248q-18 17 -33 -3z" />
<glyph unicode="&#xd3;" horiz-adv-x="1615" d="M99 694q-15 -146 27.5 -277t128 -225t212 -149t271.5 -55q193 0 366.5 93t286 256t133.5 357t-57.5 356.5t-232.5 256.5t-347 94q-194 0 -368 -94t-286.5 -256.5t-133.5 -356.5zM234 694q17 156 109 288.5t234 209.5t298 77q155 0 279 -77t187 -209.5t46 -288.5 q-16 -156 -107.5 -288.5t-231.5 -209t-295 -76.5q-156 0 -281 76.5t-189.5 209t-48.5 288.5zM670 1604l23 -45q5 -17 27 -7l393 229q18 13 12 31l-32 61q-12 20 -31 3l-383 -248q-15 -11 -9 -24z" />
<glyph unicode="&#xd4;" horiz-adv-x="1615" d="M99 694q-15 -146 27.5 -277t128 -225t212 -149t271.5 -55q193 0 366.5 93t286 256t133.5 357t-57.5 356.5t-232.5 256.5t-347 94q-194 0 -368 -94t-286.5 -256.5t-133.5 -356.5zM234 694q17 156 109 288.5t234 209.5t298 77q155 0 279 -77t187 -209.5t46 -288.5 q-16 -156 -107.5 -288.5t-231.5 -209t-295 -76.5q-156 0 -281 76.5t-189.5 209t-48.5 288.5zM554 1543q-2 -12 6.5 -15.5t22.5 3.5l337 213l293 -213q13 -7 23 -3.5t12 15.5l5 62q3 12 -10 21l-287 233q-22 16 -47 0l-335 -233q-10 -7 -13 -21z" />
<glyph unicode="&#xd5;" horiz-adv-x="1615" d="M99 694q-15 -146 27.5 -277t128 -225t212 -149t271.5 -55q193 0 366.5 93t286 256t133.5 357t-57.5 356.5t-232.5 256.5t-347 94q-194 0 -368 -94t-286.5 -256.5t-133.5 -356.5zM234 694q17 156 109 288.5t234 209.5t298 77q155 0 279 -77t187 -209.5t46 -288.5 q-16 -156 -107.5 -288.5t-231.5 -209t-295 -76.5q-156 0 -281 76.5t-189.5 209t-48.5 288.5zM528 1678l34 -43q14 -11 28 3q78 84 168 84q40 0 72 -14t55 -34t46.5 -40t58.5 -34t79 -14q45 0 88 15.5t76.5 41t47.5 38t27 27.5l2 2q12 12 4 24l-35 45q-4 5 -12.5 4t-13.5 -6 q-89 -78 -175 -78q-42 0 -80.5 21.5t-64.5 46.5t-70 46.5t-96 21.5q-22 0 -43.5 -4.5t-40.5 -12t-36.5 -16.5t-32.5 -20t-28 -21t-23.5 -20.5t-17 -18t-11.5 -12.5l-5 -6q-10 -13 -1 -26z" />
<glyph unicode="&#xd6;" horiz-adv-x="1615" d="M99 694q-15 -146 27.5 -277t128 -225t212 -149t271.5 -55q193 0 366.5 93t286 256t133.5 357t-57.5 356.5t-232.5 256.5t-347 94q-194 0 -368 -94t-286.5 -256.5t-133.5 -356.5zM234 694q17 156 109 288.5t234 209.5t298 77q155 0 279 -77t187 -209.5t46 -288.5 q-16 -156 -107.5 -288.5t-231.5 -209t-295 -76.5q-156 0 -281 76.5t-189.5 209t-48.5 288.5zM606 1776q4 32 29 55t56 23q35 0 55 -22.5t16 -55.5q-2 -32 -27.5 -55.5t-59.5 -23.5q-32 0 -51.5 23t-17.5 56zM1088 1776q2 32 27.5 55t57.5 23q33 0 53 -22.5t18 -55.5 q-4 -32 -29 -55.5t-57 -23.5t-53 23.5t-17 55.5z" />
<glyph unicode="&#xd7;" horiz-adv-x="890" d="M90 391q-14 14 4 29l272 248l-222 247q-13 15 4 29l60 57q19 12 32 0l222 -248l272 248q17 13 30 0l48 -57q15 -15 -1 -29l-275 -247l222 -248q14 -14 -3 -29l-61 -56q-17 -14 -29 2l-222 246l-273 -246q-16 -16 -29 -2z" />
<glyph unicode="&#xd8;" horiz-adv-x="1680" d="M99 694q21 194 133.5 356.5t286.5 256.5t368 94q242 0 416 -144l176 173q17 16 31 2l66 -66q13 -16 0 -31l-177 -177q153 -198 125 -464q-21 -194 -133.5 -357t-286 -256t-366.5 -93q-220 0 -387 120l-148 -148q-17 -14 -31 0l-66 66q-17 17 0 31l142 143 q-85 97 -124.5 224.5t-24.5 269.5zM234 694q-12 -111 19 -212.5t98 -179.5l854 854q-142 113 -330 113q-156 0 -298 -77t-234 -209.5t-109 -288.5zM453 210q131 -90 300 -90q155 0 295 76.5t231.5 209t107.5 288.5q23 200 -89 361z" />
<glyph unicode="&#xd9;" horiz-adv-x="1334" d="M113 512q-15 -141 35.5 -259t167.5 -191.5t281 -73.5q166 0 301.5 73.5t213 191.5t93.5 259l88 854q3 22 -19 22h-92q-13 0 -19 -4.5t-7 -17.5l-89 -835q-11 -104 -56 -185.5t-110 -129.5t-138.5 -72t-149.5 -24q-75 0 -142 24t-122 72t-82.5 129.5t-16.5 185.5l88 835 q3 22 -20 22h-91q-23 0 -26 -22zM573 1786q-13 -18 5 -31l344 -229q18 -9 29 7l30 45q12 16 -2 24l-332 248q-18 17 -33 -3z" />
<glyph unicode="&#xda;" horiz-adv-x="1334" d="M113 512q-15 -141 35.5 -259t167.5 -191.5t281 -73.5q166 0 301.5 73.5t213 191.5t93.5 259l88 854q3 22 -19 22h-92q-13 0 -19 -4.5t-7 -17.5l-89 -835q-11 -104 -56 -185.5t-110 -129.5t-138.5 -72t-149.5 -24q-75 0 -142 24t-122 72t-82.5 129.5t-16.5 185.5l88 835 q3 22 -20 22h-91q-23 0 -26 -22zM529 1578l23 -45q5 -17 28 -7l392 229q18 13 12 31l-31 61q-12 20 -31 3l-384 -248q-15 -11 -9 -24z" />
<glyph unicode="&#xdb;" horiz-adv-x="1334" d="M113 512q-15 -141 35.5 -259t167.5 -191.5t281 -73.5q166 0 301.5 73.5t213 191.5t93.5 259l88 854q3 22 -19 22h-92q-13 0 -19 -4.5t-7 -17.5l-89 -835q-11 -104 -56 -185.5t-110 -129.5t-138.5 -72t-149.5 -24q-75 0 -142 24t-122 72t-82.5 129.5t-16.5 185.5l88 835 q3 22 -20 22h-91q-23 0 -26 -22zM413 1517q-2 -12 7 -15.5t23 3.5l336 213l294 -213q13 -7 22.5 -3.5t11.5 15.5l6 62q3 11 -11 21l-286 233q-22 16 -47 0l-335 -233q-11 -8 -14 -21z" />
<glyph unicode="&#xdc;" horiz-adv-x="1334" d="M113 512q-15 -141 35.5 -259t167.5 -191.5t281 -73.5q166 0 301.5 73.5t213 191.5t93.5 259l88 854q3 22 -19 22h-92q-13 0 -19 -4.5t-7 -17.5l-89 -835q-11 -104 -56 -185.5t-110 -129.5t-138.5 -72t-149.5 -24q-75 0 -142 24t-122 72t-82.5 129.5t-16.5 185.5l88 835 q3 22 -20 22h-91q-23 0 -26 -22zM465 1749q4 32 29 55.5t56 23.5q35 0 55 -23t16 -56q-2 -32 -27 -55t-59 -23q-32 0 -52 22.5t-18 55.5zM948 1749q2 32 27.5 55.5t57.5 23.5q33 0 53 -23t18 -56q-4 -32 -29.5 -55t-57.5 -23t-52.5 23t-16.5 55z" />
<glyph unicode="&#xdd;" horiz-adv-x="1287" d="M95 1368q-4 7 0 13.5t11 6.5h121q13 0 21 -17l398 -663l538 663q15 17 24 17h121q7 0 10 -6t-3 -14l-635 -794l-59 -550q-3 -24 -24 -24h-68q-46 0 -41 49l55 525zM510 1581l23 -45q5 -17 28 -7l392 229q18 13 12 31l-31 61q-5 9 -14.5 10t-16.5 -6l-384 -249 q-15 -11 -9 -24z" />
<glyph unicode="&#xde;" horiz-adv-x="1117" d="M64 24l143 1342q0 22 24 22h87q23 0 20 -22l-24 -227h358q103 0 186 -40t131.5 -104t71.5 -140.5t15 -153.5q-9 -84 -48.5 -164t-102 -144.5t-153.5 -103.5t-194 -39h-356l-24 -226q-3 -24 -24 -24h-89q-24 0 -21 24zM234 377h346q171 -1 275 120q84 98 85 228 q2 132 -84 213q-79 73 -209 74h-347z" />
<glyph unicode="&#xdf;" horiz-adv-x="1110" d="M24 19l99 908q23 218 158.5 342.5t338.5 124.5q188 0 299.5 -112t94.5 -284q-4 -43 -14.5 -77t-33.5 -70.5t-65.5 -67t-103.5 -52.5q85 -36 136.5 -96.5t67 -123t7.5 -131.5q-7 -71 -35.5 -132.5t-72.5 -106.5t-99.5 -77t-117.5 -48t-126 -16h-54q-18 0 -15 19l7 75 q3 18 27 21q170 4 260 74.5t105 199.5q13 122 -76.5 206.5t-253.5 84.5l7 80q4 20 17 23l65 5q216 17 236 210q11 110 -61 189.5t-215 79.5q-151 0 -244.5 -93.5t-111.5 -265.5l-94 -889q-4 -19 -21 -19h-93q-21 0 -18 19z" />
<glyph unicode="&#xe0;" d="M31 219q-12 -107 56 -167.5t196 -60.5q104 0 180 26.5t165 79.5q2 -48 7 -72.5t21 -24.5h75q22 0 19 33q0 223 40 503q24 154 -47.5 244t-227.5 90q-97 0 -197.5 -25.5t-173.5 -63.5q-22 -11 -16 -33l18 -57q4 -20 31 -9q174 78 309 78q101 0 147 -56t32 -162 q-104 -17 -176.5 -31.5t-148 -34.5t-125.5 -43t-92.5 -54t-64.5 -71t-27 -89zM161 220q5 47 35.5 80.5t105.5 59.5t120.5 36.5t161.5 33.5q46 9 69 14q-24 -161 -28 -253q-62 -39 -145 -69t-162 -30q-73 0 -118.5 32t-38.5 96zM326 1342q-14 -19 5 -32l344 -229q19 -9 30 7 l29 45q12 17 -2 25l-331 248q-18 16 -33 -4z" />
<glyph unicode="&#xe1;" d="M31 219q-12 -107 56 -167.5t196 -60.5q104 0 180 26.5t165 79.5q2 -48 7 -72.5t21 -24.5h75q22 0 19 33q0 223 40 503q24 154 -47.5 244t-227.5 90q-97 0 -197.5 -25.5t-173.5 -63.5q-22 -11 -16 -33l18 -57q4 -20 31 -9q174 78 309 78q101 0 147 -56t32 -162 q-104 -17 -176.5 -31.5t-148 -34.5t-125.5 -43t-92.5 -54t-64.5 -71t-27 -89zM161 220q5 47 35.5 80.5t105.5 59.5t120.5 36.5t161.5 33.5q46 9 69 14q-24 -161 -28 -253q-62 -39 -145 -69t-162 -30q-73 0 -118.5 32t-38.5 96zM283 1133l22 -45q5 -17 28 -7l392 229 q20 14 13 32l-32 60q-5 9 -14.5 10t-16.5 -6l-383 -248q-16 -11 -9 -25z" />
<glyph unicode="&#xe2;" d="M31 219q-12 -107 56 -167.5t196 -60.5q104 0 180 26.5t165 79.5q2 -48 7 -72.5t21 -24.5h75q22 0 19 33q0 223 40 503q24 154 -47.5 244t-227.5 90q-97 0 -197.5 -25.5t-173.5 -63.5q-22 -11 -16 -33l18 -57q4 -20 31 -9q174 78 309 78q101 0 147 -56t32 -162 q-104 -17 -176.5 -31.5t-148 -34.5t-125.5 -43t-92.5 -54t-64.5 -71t-27 -89zM161 220q5 47 35.5 80.5t105.5 59.5t120.5 36.5t161.5 33.5q46 9 69 14q-24 -161 -28 -253q-62 -39 -145 -69t-162 -30q-73 0 -118.5 32t-38.5 96zM167 1074q-2 -12 6.5 -15.5t22.5 3.5l337 214 l293 -214q13 -7 23 -3.5t12 15.5l5 63q3 12 -10 21l-287 232q-22 16 -47 0l-335 -232q-10 -7 -13 -21z" />
<glyph unicode="&#xe3;" d="M31 219q-12 -107 56 -167.5t196 -60.5q104 0 180 26.5t165 79.5q2 -48 7 -72.5t21 -24.5h75q22 0 19 33q0 223 40 503q24 154 -47.5 244t-227.5 90q-97 0 -197.5 -25.5t-173.5 -63.5q-22 -11 -16 -33l18 -57q4 -20 31 -9q174 78 309 78q101 0 147 -56t32 -162 q-104 -17 -176.5 -31.5t-148 -34.5t-125.5 -43t-92.5 -54t-64.5 -71t-27 -89zM141 1208l34 -43q14 -11 28 3q77 83 168 83q40 0 72 -14t55 -33.5t46.5 -39.5t58.5 -34t79 -14q36 0 73.5 12t62 25.5t51 35t34.5 29.5t18 19l2 2q13 13 4 25l-35 45q-4 5 -12.5 4t-13.5 -6 q-89 -78 -175 -78q-35 0 -65.5 14t-55 33.5t-50 39.5t-61.5 34t-79 14q-20 0 -39.5 -3.5t-36.5 -9.5t-34 -14t-30.5 -17t-27 -19t-23.5 -19t-19 -18t-14.5 -15t-9.5 -11l-4 -4q-10 -13 -1 -26zM161 220q5 47 35.5 80.5t105.5 59.5t120.5 36.5t161.5 33.5q46 9 69 14 q-24 -161 -28 -253q-62 -39 -145 -69t-162 -30q-73 0 -118.5 32t-38.5 96z" />
<glyph unicode="&#xe4;" d="M31 219q-12 -107 56 -167.5t196 -60.5q104 0 180 26.5t165 79.5q2 -48 7 -72.5t21 -24.5h75q22 0 19 33q0 223 40 503q24 154 -47.5 244t-227.5 90q-97 0 -197.5 -25.5t-173.5 -63.5q-22 -11 -16 -33l18 -57q4 -20 31 -9q174 78 309 78q101 0 147 -56t32 -162 q-104 -17 -176.5 -31.5t-148 -34.5t-125.5 -43t-92.5 -54t-64.5 -71t-27 -89zM161 220q5 47 35.5 80.5t105.5 59.5t120.5 36.5t161.5 33.5q46 9 69 14q-24 -161 -28 -253q-62 -39 -145 -69t-162 -30q-73 0 -118.5 32t-38.5 96zM219 1305q4 32 29 55t56 23q35 0 55 -22.5 t16 -55.5q-2 -32 -27.5 -55t-59.5 -23q-32 0 -51.5 22.5t-17.5 55.5zM701 1305q2 32 27.5 55t57.5 23q33 0 53 -22.5t18 -55.5q-4 -32 -29 -55t-57 -23t-53 23t-17 55z" />
<glyph unicode="&#xe5;" d="M31 219q-12 -107 56 -167.5t196 -60.5q104 0 180 26.5t165 79.5q2 -48 7 -72.5t21 -24.5h75q22 0 19 33q0 223 40 503q24 154 -47.5 244t-227.5 90q-97 0 -197.5 -25.5t-173.5 -63.5q-22 -11 -16 -33l18 -57q4 -20 31 -9q174 78 309 78q101 0 147 -56t32 -162 q-104 -17 -176.5 -31.5t-148 -34.5t-125.5 -43t-92.5 -54t-64.5 -71t-27 -89zM161 220q5 47 35.5 80.5t105.5 59.5t120.5 36.5t161.5 33.5q46 9 69 14q-24 -161 -28 -253q-62 -39 -145 -69t-162 -30q-73 0 -118.5 32t-38.5 96zM316 1192q9 86 77 147.5t155 61.5 q85 0 140 -61.5t46 -147.5q-9 -87 -77 -148.5t-154 -61.5t-141 61.5t-46 148.5zM394 1192q-7 -56 28 -94.5t90 -38.5q56 0 98.5 38.5t47.5 94.5q7 55 -27.5 93.5t-90.5 38.5q-54 0 -97.5 -39t-48.5 -93z" />
<glyph unicode="&#xe6;" horiz-adv-x="1586" d="M31 219q5 49 27 89t64.5 71t92.5 54t125.5 43t148 34.5t176.5 31.5q14 106 -32 162t-147 56q-135 0 -309 -78q-27 -11 -31 9l-18 57q-6 22 16 33q73 38 173.5 63.5t197.5 25.5q103 0 170 -41t94 -116q67 74 156 116t188 42q120 0 210.5 -58.5t132.5 -154t30 -205.5 q-9 -80 -92 -80h-625q2 -109 79 -187t209 -78q159 0 290 118q24 15 35 -2l21 -30q11 -16 -2 -31q-69 -80 -163.5 -126.5t-204.5 -46.5q-182 0 -291 119l-2 -76q3 -33 -19 -33h-75q-16 0 -21 24.5t-7 72.5q-89 -53 -165 -79.5t-180 -26.5q-128 0 -196 60.5t-56 167.5z M161 220q-7 -64 38.5 -96t118.5 -32q79 0 162 30t145 69q4 92 28 253q-223 -45 -263 -56q-175 -46 -215 -121q-12 -22 -14 -47zM790 476h578q4 44 -10 90t-43.5 87.5t-83 68t-122.5 26.5t-128.5 -26t-98 -67t-62 -87.5t-30.5 -91.5z" />
<glyph unicode="&#xe7;" horiz-adv-x="874" d="M47 429q21 186 163.5 314t324.5 128q92 0 166 -37.5t123 -99.5q14 -18 -1 -33l-52 -55q-17 -15 -32 3q-80 99 -211 99q-77 0 -142.5 -28.5t-108.5 -75t-69.5 -102t-33.5 -113.5q-5 -57 9.5 -112.5t48.5 -102t94 -75t137 -28.5q126 0 242 116q20 14 34 -1l39 -54 q13 -17 -4 -31q-135 -132 -292 -151l-71 -105q24 4 40 4q93 0 153.5 -65.5t51.5 -160.5q-11 -93 -85.5 -160t-169.5 -67q-114 0 -177 88q-8 11 2 18l31 31q18 13 26 2q51 -59 121 -59q73 0 119 42t51 105q7 61 -28.5 103.5t-104.5 42.5q-67 0 -130 -59q-10 -8 -14 -9.5 t-12 4.5l-28 33q-5 5 0 14l10 14l127 184q-165 18 -265 142t-82 297z" />
<glyph unicode="&#xe8;" horiz-adv-x="956" d="M47 430q-19 -190 93.5 -315t296.5 -125q110 0 204 46.5t164 126.5q13 16 0 31l-19 30q-12 17 -36 2q-127 -118 -288 -118q-133 0 -209.5 78.5t-78.5 186.5h624q83 0 92 80q12 110 -30 205.5t-132.5 154t-210.5 58.5q-179 0 -314.5 -128.5t-155.5 -312.5zM184 476 q7 45 31 91.5t62.5 87.5t97.5 67t127 26q69 0 123 -26.5t83.5 -68t43.5 -87.5t10 -90h-578zM356 1340q-13 -18 5 -31l344 -229q18 -9 29 6l30 46q12 16 -2 24l-332 248q-18 17 -33 -3z" />
<glyph unicode="&#xe9;" horiz-adv-x="956" d="M47 430q-19 -190 93.5 -315t296.5 -125q110 0 204 46.5t164 126.5q13 16 0 31l-19 30q-12 17 -36 2q-127 -118 -288 -118q-133 0 -209.5 78.5t-78.5 186.5h624q83 0 92 80q12 110 -30 205.5t-132.5 154t-210.5 58.5q-179 0 -314.5 -128.5t-155.5 -312.5zM184 476 q7 45 31 91.5t62.5 87.5t97.5 67t127 26q69 0 123 -26.5t83.5 -68t43.5 -87.5t10 -90h-578zM311 1132l22 -46q5 -16 28 -6l392 229q18 13 12 31l-31 61q-12 20 -31 3l-384 -248q-15 -11 -8 -24z" />
<glyph unicode="&#xea;" horiz-adv-x="956" d="M47 430q-19 -190 93.5 -315t296.5 -125q110 0 204 46.5t164 126.5q13 16 0 31l-19 30q-12 17 -36 2q-127 -118 -288 -118q-133 0 -209.5 78.5t-78.5 186.5h624q83 0 92 80q12 110 -30 205.5t-132.5 154t-210.5 58.5q-179 0 -314.5 -128.5t-155.5 -312.5zM184 476 q7 45 31 91.5t62.5 87.5t97.5 67t127 26q69 0 123 -26.5t83.5 -68t43.5 -87.5t10 -90h-578zM194 1073q-2 -12 7 -16t23 3l337 214l293 -214q13 -7 23 -3t12 16l5 62q3 11 -11 21l-286 232q-22 16 -47 0l-335 -232q-11 -8 -14 -21z" />
<glyph unicode="&#xeb;" horiz-adv-x="956" d="M47 430q-19 -190 93.5 -315t296.5 -125q110 0 204 46.5t164 126.5q13 16 0 31l-19 30q-12 17 -36 2q-127 -118 -288 -118q-133 0 -209.5 78.5t-78.5 186.5h624q83 0 92 80q12 110 -30 205.5t-132.5 154t-210.5 58.5q-179 0 -314.5 -128.5t-155.5 -312.5zM184 476 q7 45 31 91.5t62.5 87.5t97.5 67t127 26q69 0 123 -26.5t83.5 -68t43.5 -87.5t10 -90h-578zM246 1303q4 32 29 55.5t56 23.5q35 0 55.5 -23t16.5 -56q-2 -32 -27.5 -55t-59.5 -23q-32 0 -52 22.5t-18 55.5zM729 1303q2 32 27.5 55.5t57.5 23.5q33 0 53 -23t18 -56 q-4 -32 -29.5 -55t-57.5 -23t-52.5 23t-16.5 55z" />
<glyph unicode="&#xec;" horiz-adv-x="392" d="M71 47q-2 -21 7.5 -34t30.5 -13h68q20 0 23 23l86 814q0 22 -20 22h-87q-22 0 -25 -22zM75 1342q-14 -19 5 -32l343 -229q19 -9 30 7l29 45q12 18 -1 25l-332 248q-18 16 -33 -4z" />
<glyph unicode="&#xed;" horiz-adv-x="392" d="M30 1133l22 -45q5 -17 28 -7l392 229q19 13 12 32l-31 60q-5 9 -14.5 10t-16.5 -6l-384 -248q-15 -11 -8 -25zM71 47q-2 -21 7.5 -34t30.5 -13h68q20 0 23 23l86 814q0 22 -20 22h-87q-22 0 -25 -22z" />
<glyph unicode="&#xee;" horiz-adv-x="392" d="M-87 1074q-2 -12 7 -15.5t23 3.5l336 214l294 -214q13 -7 22.5 -3.5t11.5 15.5l6 63q3 11 -11 21l-286 232q-22 16 -47 0l-335 -232q-11 -8 -14 -21zM71 47q-2 -21 7.5 -34t30.5 -13h68q20 0 23 23l86 814q0 22 -20 22h-87q-22 0 -25 -22z" />
<glyph unicode="&#xef;" horiz-adv-x="392" d="M-35 1305q4 32 29 55t56 23q35 0 55 -22.5t16 -55.5q-2 -32 -27 -55t-59 -23q-32 0 -52 22.5t-18 55.5zM71 47q-2 -21 7.5 -34t30.5 -13h68q20 0 23 23l86 814q0 22 -20 22h-87q-22 0 -25 -22zM448 1305q2 32 27.5 55t57.5 23q33 0 53 -22.5t18 -55.5q-4 -32 -29.5 -55 t-57.5 -23t-52.5 23t-16.5 55z" />
<glyph unicode="&#xf0;" horiz-adv-x="1036" d="M61 423q4 86 40.5 163t95.5 132t139 87t166 32q108 0 200 -60.5t136 -149.5q9 139 -30 256.5t-114 202.5l-234 -124q-23 -11 -31 12l-9 14q-9 21 10 31l216 114q-132 110 -292 110q-24 0 -24 22l17 87q2 17 19 17q120 -2 220.5 -51.5t173.5 -121.5l104 55q19 10 32 -12 l8 -15q10 -20 -8 -32l-91 -48l16 -21q163 -211 141 -552q-13 -262 -142.5 -422.5t-338.5 -160.5q-121 0 -220 59.5t-152 159t-48 216.5zM191 411q-2 -122 87 -211t210 -89q124 0 216.5 92t99.5 214q7 118 -85 209t-217 91q-121 0 -214 -90.5t-97 -215.5z" />
<glyph unicode="&#xf1;" horiz-adv-x="1004" d="M43 23l87 815q0 8 6 14.5t15 6.5h66q20 0 31 -15.5t9 -34.5l-7 -73q165 132 337 132q147 0 241 -84t78 -239l-40 -391q-5 -44 -9 -126q3 -28 -17 -28h-75q-45 0 -41 49l50 472q9 102 -45.5 162t-167.5 60q-161 0 -327 -144l-59 -576q-4 -23 -22 -23h-92q-18 0 -18 23z M172 1208q-9 12 2 26l5 6q5 5 11.5 12.5t17 17.5t23 20t27.5 21t32.5 20.5t36.5 17t40.5 11.5t43.5 4q43 0 79 -14t61.5 -34t50 -39.5t55 -33.5t65.5 -14q86 0 175 78q5 5 13.5 6t12.5 -4l35 -45q9 -13 -3 -25q-36 -36 -53 -49q-93 -74 -189 -74q-44 0 -79 14t-58.5 34 t-46 39.5t-54.5 33.5t-72 14q-92 0 -169 -83q-14 -13 -27 -3z" />
<glyph unicode="&#xf2;" horiz-adv-x="1001" d="M43 429q-19 -183 99 -311t301 -128q120 0 228 58t178 159t83 222q19 187 -97.5 315.5t-298.5 128.5q-185 0 -329.5 -128.5t-163.5 -315.5zM172 429q15 130 116 224.5t234 94.5q132 0 213.5 -94.5t68.5 -224.5q-13 -127 -114.5 -221.5t-233.5 -94.5q-133 0 -214.5 94 t-69.5 222zM384 1342q-14 -19 5 -32l343 -229q19 -9 30 7l29 45q12 18 -1 25l-332 248q-18 16 -33 -4z" />
<glyph unicode="&#xf3;" horiz-adv-x="1001" d="M43 429q-19 -183 99 -311t301 -128q120 0 228 58t178 159t83 222q19 187 -97.5 315.5t-298.5 128.5q-185 0 -329.5 -128.5t-163.5 -315.5zM172 429q15 130 116 224.5t234 94.5q132 0 213.5 -94.5t68.5 -224.5q-13 -127 -114.5 -221.5t-233.5 -94.5q-133 0 -214.5 94 t-69.5 222zM338 1133l23 -45q5 -17 28 -7l392 229q19 13 12 32l-31 60q-5 9 -14.5 10t-16.5 -6l-384 -248q-16 -11 -9 -25z" />
<glyph unicode="&#xf4;" horiz-adv-x="1001" d="M43 429q-19 -183 99 -311t301 -128q120 0 228 58t178 159t83 222q19 187 -97.5 315.5t-298.5 128.5q-185 0 -329.5 -128.5t-163.5 -315.5zM172 429q15 130 116 224.5t234 94.5q132 0 213.5 -94.5t68.5 -224.5q-13 -127 -114.5 -221.5t-233.5 -94.5q-133 0 -214.5 94 t-69.5 222zM222 1074q-2 -12 7 -15.5t23 3.5l336 214l294 -214q13 -7 22.5 -3.5t11.5 15.5l6 63q3 11 -11 21l-286 232q-22 16 -47 0l-335 -232q-11 -8 -14 -21z" />
<glyph unicode="&#xf5;" horiz-adv-x="1001" d="M43 429q-19 -183 99 -311t301 -128q120 0 228 58t178 159t83 222q19 187 -97.5 315.5t-298.5 128.5q-185 0 -329.5 -128.5t-163.5 -315.5zM172 429q15 130 116 224.5t234 94.5q132 0 213.5 -94.5t68.5 -224.5q-13 -127 -114.5 -221.5t-233.5 -94.5q-133 0 -214.5 94 t-69.5 222zM198 1208l35 -43q13 -10 27 3q77 83 169 83q40 0 72 -14t54.5 -33.5t46 -39.5t58.5 -34t79 -14q45 0 88.5 15.5t77 41t47.5 38t27 26.5l2 2q12 12 3 25l-35 45q-4 5 -12.5 4t-13.5 -6q-89 -78 -175 -78q-35 0 -65.5 14t-55 33.5t-50 39.5t-61.5 34t-79 14 q-22 0 -43.5 -4t-40.5 -11.5t-36.5 -17t-32.5 -20.5t-27.5 -21t-23 -20t-17 -17.5t-11.5 -12.5l-5 -6q-11 -14 -2 -26z" />
<glyph unicode="&#xf6;" horiz-adv-x="1001" d="M43 429q-19 -183 99 -311t301 -128q120 0 228 58t178 159t83 222q19 187 -97.5 315.5t-298.5 128.5q-185 0 -329.5 -128.5t-163.5 -315.5zM172 429q15 130 116 224.5t234 94.5q132 0 213.5 -94.5t68.5 -224.5q-13 -127 -114.5 -221.5t-233.5 -94.5q-133 0 -214.5 94 t-69.5 222zM274 1305q4 32 29 55t56 23q35 0 55 -22.5t16 -55.5q-2 -32 -27 -55t-59 -23q-32 0 -52 22.5t-18 55.5zM757 1305q2 32 27.5 55t57.5 23q33 0 53 -22.5t18 -55.5q-4 -32 -29.5 -55t-57.5 -23t-52.5 23t-16.5 55z" />
<glyph unicode="&#xf7;" horiz-adv-x="1076" d="M78 618l9 75q3 24 26 24h866q22 0 19 -23l-7 -76q-3 -23 -24 -23h-868q-24 0 -21 23zM392 233q5 41 39.5 72.5t75.5 31.5t67.5 -31.5t22.5 -72.5q-5 -43 -38 -74t-75 -31t-69 31t-23 74zM481 1076q5 41 38.5 71.5t75.5 30.5t68 -30.5t21 -71.5q-4 -44 -36.5 -75 t-73.5 -31q-42 0 -69.5 31t-23.5 75z" />
<glyph unicode="&#xf8;" horiz-adv-x="1133" d="M94 0q-12 12 0 23l100 100q-111 126 -93 306q21 188 164.5 316t328.5 128q152 0 260 -92l116 116q13 13 24 2l47 -47q10 -13 -1 -24l-118 -118q84 -123 67 -281q-13 -121 -83 -222t-178 -159t-228 -58q-131 0 -231 67l-104 -104q-12 -12 -24 0zM231 429q-14 -118 59 -210 l468 468q-75 61 -177 61q-134 0 -235.5 -94.5t-114.5 -224.5zM364 153q65 -40 150 -40q132 0 233 94.5t114 221.5q11 100 -38 182z" />
<glyph unicode="&#xf9;" horiz-adv-x="989" d="M57 314l40 389q5 43 9 127q-3 29 17 29h75q47 0 42 -50l-51 -471q-11 -101 45 -162t169 -61q161 0 324 145l61 575q3 24 23 24h90q20 0 17 -24l-85 -814q-1 -9 -7 -15t-14 -6h-74q-14 0 -24.5 16.5t-8.5 32.5l7 72q-166 -133 -335 -133q-69 0 -130 20.5t-107 60t-69 103 t-14 142.5zM359 1342l42 60q15 20 33 4l331 -248q14 -8 2 -25l-29 -45q-11 -16 -30 -7l-344 229q-19 13 -5 32z" />
<glyph unicode="&#xfa;" horiz-adv-x="989" d="M57 314l40 389q5 43 9 127q-3 29 17 29h75q47 0 42 -50l-51 -471q-11 -101 45 -162t169 -61q161 0 324 145l61 575q3 24 23 24h90q20 0 17 -24l-85 -814q-1 -9 -7 -15t-14 -6h-74q-14 0 -24.5 16.5t-8.5 32.5l7 72q-166 -133 -335 -133q-69 0 -130 20.5t-107 60t-69 103 t-14 142.5zM316 1133q-7 14 9 25l383 248q7 7 16.5 6t14.5 -10l32 -60q7 -18 -13 -32l-392 -229q-23 -10 -28 7z" />
<glyph unicode="&#xfb;" horiz-adv-x="989" d="M57 314l40 389q5 43 9 127q-3 29 17 29h75q47 0 42 -50l-51 -471q-11 -101 45 -162t169 -61q161 0 324 145l61 575q3 24 23 24h90q20 0 17 -24l-85 -814q-1 -9 -7 -15t-14 -6h-74q-14 0 -24.5 16.5t-8.5 32.5l7 72q-166 -133 -335 -133q-69 0 -130 20.5t-107 60t-69 103 t-14 142.5zM200 1074l7 63q3 14 13 21l335 232q25 16 47 0l287 -232q13 -9 10 -21l-5 -63q-2 -12 -12 -15.5t-23 3.5l-293 214l-337 -214q-14 -7 -22.5 -3.5t-6.5 15.5z" />
<glyph unicode="&#xfc;" horiz-adv-x="989" d="M57 314l40 389q5 43 9 127q-3 29 17 29h75q47 0 42 -50l-51 -471q-11 -101 45 -162t169 -61q161 0 324 145l61 575q3 24 23 24h90q20 0 17 -24l-85 -814q-1 -9 -7 -15t-14 -6h-74q-14 0 -24.5 16.5t-8.5 32.5l7 72q-166 -133 -335 -133q-69 0 -130 20.5t-107 60t-69 103 t-14 142.5zM252 1305q4 32 29 55t56 23q35 0 55 -22.5t16 -55.5q-2 -32 -27.5 -55t-59.5 -23q-32 0 -51.5 22.5t-17.5 55.5zM734 1305q2 32 27.5 55t57.5 23q33 0 53 -22.5t18 -55.5q-4 -32 -29 -55t-57 -23t-53 23t-17 55z" />
<glyph unicode="&#xfd;" horiz-adv-x="968" d="M-47 -474q-15 17 7 42q107 107 223 256t190 287l-291 726q-5 11 -1 16.5t14 5.5h108q13 0 21 -14l232 -602l349 599q7 17 25 17h102q28 0 14 -24l-434 -734q-134 -226 -258.5 -385.5t-217.5 -246.5q-19 -16 -36 7zM331 1133l23 -45q5 -17 28 -7l392 229q19 13 12 32 l-31 60q-5 9 -14.5 10t-16.5 -6l-384 -248q-16 -11 -9 -25z" />
<glyph unicode="&#xfe;" horiz-adv-x="1003" d="M-2 -489l184 1751q2 17 2 99q0 27 17 27h80q21 0 31.5 -11.5t8.5 -31.5l-59 -562q131 83 283 83q77 0 145.5 -31t118.5 -85.5t75 -136.5t15 -177q-20 -191 -144 -319.5t-304 -128.5q-145 0 -262 92l-55 -536q-2 -24 -24 -39t-46 -15h-48q-8 0 -13 6t-5 15zM201 194 q115 -85 243 -85t218.5 91t106.5 236q8 76 -11.5 137t-58.5 97t-88 54.5t-102 18.5q-135 0 -259 -85z" />
<glyph unicode="&#xff;" horiz-adv-x="968" d="M-47 -474q-15 17 7 42q107 107 223 256t190 287l-291 726q-5 11 -1 16.5t14 5.5h108q13 0 21 -14l232 -602l349 599q7 17 25 17h102q28 0 14 -24l-434 -734q-134 -226 -258.5 -385.5t-217.5 -246.5q-19 -16 -36 7zM267 1305q4 32 29 55t56 23q35 0 55 -22.5t16 -55.5 q-2 -32 -27 -55t-59 -23q-32 0 -52 22.5t-18 55.5zM750 1305q2 32 27.5 55t57.5 23q33 0 53 -22.5t18 -55.5q-4 -32 -29.5 -55t-57.5 -23t-52.5 23t-16.5 55z" />
<glyph unicode="&#x152;" horiz-adv-x="2409" d="M99 694q21 194 133.5 356.5t286.5 256.5t368 94q175 0 318.5 -78.5t228.5 -213.5l26 257q3 22 24 22h869q24 0 21 -22l-8 -87q-3 -22 -26 -22h-755l-52 -509h465q23 0 20 -24l-8 -84q-3 -22 -26 -22h-465l-51 -486h752q25 0 22 -24l-8 -84q-3 -24 -26 -24h-870 q-22 0 -19 23l26 256q-113 -135 -272.5 -213t-334.5 -78q-145 0 -271.5 55t-212 149t-128 225t-27.5 277zM234 694q-16 -156 48.5 -288.5t189.5 -209t281 -76.5q155 0 295 76.5t231.5 209t107.5 288.5q17 156 -46 288.5t-187 209.5t-279 77q-156 0 -298 -77t-234 -209.5 t-109 -288.5z" />
<glyph unicode="&#x153;" horiz-adv-x="1739" d="M43 429q19 187 163.5 315.5t329.5 128.5q117 0 211.5 -57.5t144.5 -154.5q66 97 167.5 153.5t216.5 56.5q120 0 210.5 -58.5t132.5 -154t30 -205.5q-9 -80 -92 -80h-625q2 -109 79 -187t209 -78q159 0 290 118q24 15 35 -2l21 -30q14 -15 -2 -31q-69 -80 -163.5 -126.5 t-204.5 -46.5q-119 0 -212.5 56.5t-140.5 153.5q-70 -97 -176 -153.5t-224 -56.5q-183 0 -301 128t-99 311zM172 429q-12 -128 69.5 -222t214.5 -94q132 0 233.5 94.5t114.5 221.5q13 130 -68.5 224.5t-213.5 94.5q-133 0 -234 -94.5t-116 -224.5zM942 476h578q4 44 -9.5 90 t-43 87.5t-83 68t-122.5 26.5t-128.5 -26t-98 -67t-62.5 -87.5t-31 -91.5z" />
<glyph unicode="&#x178;" horiz-adv-x="1287" d="M95 1368q-4 7 0 13.5t11 6.5h121q13 0 21 -17l398 -663l538 663q15 17 24 17h121q7 0 10 -6t-3 -14l-635 -794l-59 -550q-3 -24 -24 -24h-68q-46 0 -41 49l55 525zM446 1753q4 32 29 55t56 23q35 0 55 -22.5t16 -55.5q-2 -32 -27.5 -55t-59.5 -23q-32 0 -51.5 22.5 t-17.5 55.5zM929 1753q2 32 27.5 55t57.5 23q33 0 53 -22.5t18 -55.5q-4 -32 -29.5 -55t-57.5 -23t-52.5 23t-16.5 55z" />
<glyph unicode="&#x2c6;" horiz-adv-x="855" d="M132 1081q-2 -12 6.5 -15.5t22.5 3.5l337 214l293 -214q13 -7 23 -3.5t12 15.5l5 63q3 12 -10 21l-286 232q-22 16 -47 0l-335 -232q-11 -8 -14 -21z" />
<glyph unicode="&#x2dc;" horiz-adv-x="928" d="M137 1208l35 -43q14 -11 28 3q77 83 168 83q40 0 72 -14t55 -33.5t46.5 -39.5t58.5 -34t79 -14q36 0 73.5 12t62 25.5t51 35t34.5 29.5t18 19l2 2q12 12 3 25l-34 45q-4 5 -12.5 4t-13.5 -6q-89 -78 -176 -78q-35 0 -65.5 14t-54.5 33.5t-49.5 39.5t-61.5 34t-79 14 q-20 0 -39.5 -3.5t-36.5 -9.5t-34 -14t-30.5 -17t-27 -19t-23.5 -19t-19 -18t-14.5 -15t-9.5 -11l-4 -4q-11 -14 -2 -26z" />
<glyph unicode="&#x2000;" horiz-adv-x="943" />
<glyph unicode="&#x2001;" horiz-adv-x="1887" />
<glyph unicode="&#x2002;" horiz-adv-x="943" />
<glyph unicode="&#x2003;" horiz-adv-x="1887" />
<glyph unicode="&#x2004;" horiz-adv-x="629" />
<glyph unicode="&#x2005;" horiz-adv-x="471" />
<glyph unicode="&#x2006;" horiz-adv-x="314" />
<glyph unicode="&#x2007;" horiz-adv-x="314" />
<glyph unicode="&#x2008;" horiz-adv-x="235" />
<glyph unicode="&#x2009;" horiz-adv-x="377" />
<glyph unicode="&#x200a;" horiz-adv-x="104" />
<glyph unicode="&#x2010;" horiz-adv-x="730" d="M69 397v77q0 22 25 22h546q21 0 21 -22v-75q0 -22 -21 -22h-546q-25 0 -25 20z" />
<glyph unicode="&#x2011;" horiz-adv-x="730" d="M69 397v77q0 22 25 22h546q21 0 21 -22v-75q0 -22 -21 -22h-546q-25 0 -25 20z" />
<glyph unicode="&#x2012;" horiz-adv-x="730" d="M69 397v77q0 22 25 22h546q21 0 21 -22v-75q0 -22 -21 -22h-546q-25 0 -25 20z" />
<glyph unicode="&#x2013;" horiz-adv-x="1216" d="M139 519v47q0 22 22 22h894q23 0 23 -22v-47q0 -23 -23 -23h-894q-22 0 -22 23z" />
<glyph unicode="&#x2014;" horiz-adv-x="1617" d="M104 519v47q0 22 23 22h1364q22 0 22 -22v-47q0 -23 -22 -23h-1364q-23 0 -23 23z" />
<glyph unicode="&#x2018;" horiz-adv-x="317" d="M108 1054q0 83 33 185q39 105 123 184q15 13 26 5l15 -17q9 -4 2 -17q-90 -90 -100 -196q-1 -10 -3 -29.5t-3 -28.5l14 2q39 0 62.5 -25t19.5 -69q-11 -93 -103 -93q-72 0 -79 64q-7 14 -7 35z" />
<glyph unicode="&#x2019;" horiz-adv-x="279" d="M94 982q90 90 100 195q6 42 6 59l-14 -2q-39 0 -62.5 25t-19.5 69q11 92 103 92q73 0 81 -65q5 -15 5 -32q0 -87 -33 -186q-39 -105 -123 -184q-16 -14 -26 -7l-16 19q-8 4 -1 17z" />
<glyph unicode="&#x201a;" horiz-adv-x="734" d="M-19 -283q27 28 44 50.5t34.5 62t22.5 83.5q2 11 3 31t2 26l-16 -1q-39 0 -62 24.5t-18 68.5q11 94 99 94q41 0 61 -16.5t24 -52.5q4 -18 4 -30q0 -83 -33 -185q-37 -107 -123 -184q-14 -13 -26 -6l-14 18q-11 5 -2 17zM305 -283q28 29 45 51t35 61.5t23 83.5q1 9 2.5 28 t2.5 29l-16 -1q-40 0 -62 24t-17 69q11 94 99 94q75 0 83 -66q5 -15 5 -33q0 -83 -33 -185q-39 -105 -123 -184q-14 -13 -26 -6l-16 18q-9 4 -2 17z" />
<glyph unicode="&#x201c;" horiz-adv-x="650" d="M115 1043q0 87 33 186q40 111 123 184q15 13 26 7l15 -19q10 -4 2 -18q-91 -91 -102 -196q-4 -38 -4 -57l14 2q39 0 62 -25t18 -69q-8 -92 -101 -92q-73 0 -81 64q-5 15 -5 33zM441 1043q0 87 33 186q37 107 123 184q14 14 26 7l14 -19q10 -4 2 -18q-27 -28 -44 -50.5 t-34.5 -62t-22.5 -83.5q-1 -9 -2.5 -28t-2.5 -29l14 2q40 0 63 -25t18 -69q-11 -92 -100 -92q-41 0 -60.5 16.5t-21.5 51.5q-5 15 -5 29z" />
<glyph unicode="&#x201d;" horiz-adv-x="650" d="M137 965q-9 5 0 17q90 94 101 195q5 35 5 59l-14 -2q-40 0 -63 25t-18 69q11 92 100 92q74 0 82 -65q5 -15 5 -32q0 -87 -33 -186q-37 -107 -123 -184q-15 -13 -26 -7zM462 982q88 88 100 195q6 42 6 59l-14 -2q-39 0 -62.5 25t-19.5 69q11 92 101 92q73 0 81 -63 q7 -13 7 -34q-3 -86 -33 -186q-40 -108 -125 -184q-14 -14 -24 -7l-16 19q-8 4 -1 17z" />
<glyph unicode="&#x201e;" horiz-adv-x="742" d="M45 -283q27 28 44 50.5t34.5 62t22.5 83.5q2 11 3 31t2 26l-16 -1q-39 0 -61.5 24.5t-17.5 68.5q11 94 98 94q79 0 86 -69q3 -13 3 -30q0 -83 -33 -185q-37 -107 -123 -184q-14 -13 -26 -6l-14 18q-11 5 -2 17zM370 -283q27 28 44.5 50.5t35 62t22.5 83.5q1 9 2.5 28 t2.5 29l-15 -1q-40 0 -62.5 24.5t-17.5 68.5q11 94 99 94q75 0 83 -66q5 -15 5 -33q0 -83 -33 -185q-39 -105 -123 -184q-14 -13 -26 -6l-16 18q-8 4 -1 17z" />
<glyph unicode="&#x2022;" horiz-adv-x="470" d="M87 434q0 60 45.5 105.5t105.5 45.5t103 -45.5t43 -105.5q0 -62 -43 -106.5t-103 -44.5q-61 0 -106 44.5t-45 106.5z" />
<glyph unicode="&#x2026;" horiz-adv-x="1213" d="M87 75q0 34 23 57.5t58 23.5q32 0 56 -24t24 -57t-23.5 -56.5t-56.5 -23.5q-35 0 -58 23t-23 57zM528 75q0 34 23.5 57.5t55.5 23.5q35 0 58.5 -23.5t23.5 -57.5t-23.5 -57t-58.5 -23q-33 0 -56 23.5t-23 56.5zM965 75q0 33 23.5 57t56.5 24q35 0 58 -23.5t23 -57.5 t-23 -57t-58 -23q-33 0 -56.5 23.5t-23.5 56.5z" />
<glyph unicode="&#x202f;" horiz-adv-x="377" />
<glyph unicode="&#x2039;" horiz-adv-x="565" d="M65.5 399.5q-1.5 -16.5 5.5 -26.5l222 -347q6 -10 18 -10h83q14 0 19 9t-2 22l-203 354l280 340q9 13 5.5 23t-16.5 10h-76q-14 0 -24 -14l-301 -337q-9 -7 -10.5 -23.5z" />
<glyph unicode="&#x203a;" horiz-adv-x="565" d="M30.5 25q3.5 -9 16.5 -9h85q11 0 17 10l299 347q9 10 10 26.5t-5 23.5l-231 337q-10 14 -22 14h-75q-13 0 -18.5 -10t-0.5 -23l208 -340l-278 -354q-9 -13 -5.5 -22z" />
<glyph unicode="&#x205f;" horiz-adv-x="471" />
<glyph unicode="&#x20ac;" horiz-adv-x="1393" d="M7 510l9 80q4 21 22 21h75q-2 35 3 88q1 13 14 89h-73q-19 0 -19 21l9 80q4 22 22 22h101q91 221 294.5 362.5t441.5 141.5q139 0 259.5 -51.5t209.5 -143.5q19 -22 3 -38l-66 -61q-18 -18 -33 0q-60 66 -155.5 113t-212.5 47q-200 0 -354 -104.5t-234 -265.5h522 q9 0 14 -6t4 -15l-9 -81q0 -21 -23 -21h-555q-12 -41 -17 -89q-4 -40 -4 -88h557q9 0 14.5 -6t4.5 -15l-8 -80q0 -21 -23 -21h-524q46 -161 179.5 -266t334.5 -105q211 0 395 154q25 22 37 7l54 -60q13 -16 -12 -40q-227 -193 -509 -193q-239 0 -412 140.5t-218 362.5h-99 q-19 0 -19 21z" />
<glyph unicode="&#x2122;" horiz-adv-x="1152" d="M128 1335l4 34q3 19 21 19h357q21 0 18 -19l-4 -34q-3 -19 -21 -19h-142l-45 -429q-3 -19 -21 -19h-35q-20 0 -17 19l45 429h-144q-19 0 -16 19zM550 887l52 484q0 17 18 17h41q15 0 19 -10l167 -385l253 385q7 10 21 10h45q17 0 14 -17l-50 -484q-3 -19 -21 -19h-35 q-20 0 -17 19l36 349l-234 -349q-12 -16 -22 -16h-4q-11 0 -19 16l-154 349l-37 -349q-3 -19 -21 -19h-33q-22 0 -19 19z" />
<glyph unicode="&#x25fc;" horiz-adv-x="859" d="M0 0v859h859v-859h-859z" />
<glyph unicode="&#xfb03;" horiz-adv-x="1657" d="M76 753l7 70q5 36 40 36h127l19 182q19 176 128.5 268.5t272.5 92.5q155 0 293 -114q103 109 287 109h1q116 0 207 -59l2 -2q19 -13 8 -31l-40 -69q-7 -14 -20 -14q-6 0 -13 3q-75 49 -156 49q-35 0 -70.5 -9.5t-75.5 -32t-68.5 -71t-35.5 -116.5l-19 -186h561 q21 0 21 -22l-87 -814q-3 -23 -23 -23h-67q-21 0 -31 13t-8 34l73 689h-453l-74 -712q-3 -24 -25 -24h-67q-41 0 -38 50l72 686h-456l-75 -712q-3 -24 -24 -24h-66q-41 0 -38 50l73 686h-146q-19 0 -16 17zM380 859h458l19 186q7 82 40 147q-108 87 -236 87 q-29 0 -58.5 -5.5t-64.5 -22t-62.5 -42t-49 -69t-27.5 -99.5z" />
<glyph unicode="&#xfb04;" horiz-adv-x="1707" d="M76 753l7 70q5 36 40 36h127l19 182q19 176 128.5 268.5t272.5 92.5q161 0 300 -121q111 121 302 121q135 0 254 -85l5 49q0 22 22 22h89q22 0 19 -22l-141 -1342q-3 -24 -24 -24h-64q-45 0 -40 49l120 1133q-111 97 -248 97q-37 0 -75 -10.5t-79.5 -34.5t-71.5 -74 t-37 -119l-19 -182h252q19 0 16 -17l-9 -87q-3 -19 -19 -19h-252l-74 -712q-3 -24 -25 -24h-66q-41 0 -38 50l73 686h-472l-75 -712q-3 -24 -24 -24h-66q-41 0 -38 50l73 686h-146q-19 0 -16 17zM380 859h472l19 182q7 77 37 143q-109 95 -247 95q-29 0 -58.5 -5.5 t-64.5 -22t-62.5 -42t-49 -69t-27.5 -99.5z" />
</font>
</defs>
</svg>
