<?xml version="1.0" standalone="no"?>
<!DOCTYPE svg PUBLIC "-//W3C//DTD SVG 1.1//EN" "http://www.w3.org/Graphics/SVG/1.1/DTD/svg11.dtd" >
<svg xmlns="http://www.w3.org/2000/svg" xmlns:xlink="http://www.w3.org/1999/xlink" version="1.1">
<metadata></metadata>
<defs>
<font id="venti_cfblack" horiz-adv-x="971" >
<font-face units-per-em="2048" ascent="1638" descent="-410" />
<missing-glyph horiz-adv-x="515" />
<glyph unicode="&#xfb01;" horiz-adv-x="1204" d="M57 621v172q0 31 18.5 48.5t49.5 17.5h57v191q0 168 99.5 257.5t261.5 89.5q66 0 132 -18t109 -48q25 -18 13 -48l-77 -164q-15 -32 -47 -17q-69 23 -97 23q-42 0 -74.5 -26.5t-32.5 -74.5v-165h571q14 0 24 -10.5t10 -24.5v-788q0 -17 -9 -26.5t-24 -9.5h-163 q-42 0 -66 26t-24 68v503h-319v-561q0 -15 -11 -25.5t-26 -10.5h-160q-41 0 -65.5 26.5t-24.5 67.5v503h-99q-26 0 -26 24z" />
<glyph unicode="&#xfb02;" horiz-adv-x="1214" d="M57 621v172q0 31 18.5 48.5t49.5 17.5h57v186q0 173 103.5 265t282.5 92q113 0 239 -57v9q0 14 9.5 24t25.5 10h217q14 0 24 -10t10 -24v-1318q0 -17 -9 -26.5t-24 -9.5h-163q-42 0 -66 26t-24 68v972q-108 64 -210 64q-57 0 -92.5 -28.5t-35.5 -82.5v-160h152 q11 0 18.5 -7t7.5 -19v-210q0 -11 -7.5 -18.5t-18.5 -7.5h-152v-561q0 -15 -11 -25.5t-26 -10.5h-160q-41 0 -65.5 26.5t-24.5 67.5v503h-99q-26 0 -26 24z" />
<glyph horiz-adv-x="0" />
<glyph horiz-adv-x="682" />
<glyph unicode=" "  horiz-adv-x="515" />
<glyph unicode="&#x09;" horiz-adv-x="515" />
<glyph unicode="&#xa0;" horiz-adv-x="515" />
<glyph unicode="!" horiz-adv-x="557" d="M95 170q0 75 54.5 129.5t129.5 54.5q76 0 129.5 -54t53.5 -130t-53.5 -129t-129.5 -53q-75 0 -129.5 53.5t-54.5 128.5zM120 1329v25q0 13 9.5 23.5t24.5 10.5h250q14 0 24.5 -10.5t10.5 -23.5v-25l-54 -742q-2 -15 -11 -26t-23 -11h-139q-34 0 -37 37z" />
<glyph unicode="&#x22;" horiz-adv-x="751" d="M52 913v404q0 14 10.5 25.5t24.5 11.5h194q16 0 27.5 -11t9.5 -26l-52 -404q-4 -35 -35 -35h-142q-14 0 -25.5 10.5t-11.5 24.5zM434 913v404q0 14 10.5 25.5t24.5 11.5h194q16 0 27 -11t9 -26l-52 -404q-4 -35 -34 -35h-143q-14 0 -25 10.5t-11 24.5z" />
<glyph unicode="#" horiz-adv-x="1148" d="M62 413v146q0 16 10.5 26t26.5 10h168l30 216h-132q-15 0 -26 10t-11 24v146q0 16 10.5 26t26.5 10h163l47 327q5 34 35 34h138q15 0 27 -10t10 -24l-47 -327h172l47 327q5 34 34 34h139q15 0 27 -10t10 -24l-47 -327h132q15 0 24.5 -9.5t9.5 -24.5v-146q0 -14 -10 -25 t-24 -11h-163l-30 -216h127q15 0 25 -9.5t10 -24.5v-146q0 -14 -10.5 -25.5t-24.5 -11.5h-158l-49 -342q-6 -36 -34 -36h-139q-16 0 -27.5 10.5t-9.5 25.5l49 342h-172l-49 -342q-6 -36 -34 -36h-139q-16 0 -27.5 10.5t-9.5 25.5l49 342h-137q-14 0 -25.5 10.5t-11.5 24.5z M477 595h172l31 216h-171z" />
<glyph unicode="$" horiz-adv-x="1109" d="M85 238l127 161q15 18 36 21t33 -9l39 -31q40 -30 63.5 -45.5t68 -32.5t84.5 -17q75 0 121 28t46 84q0 57 -43 93t-169 88q-66 27 -117.5 53t-106 65.5t-90.5 82.5t-59.5 102t-23.5 127q0 125 80.5 234.5t228.5 151.5v130q0 35 34 35h229q33 0 33 -35v-125 q91 -23 162 -66t111 -80q38 -31 12 -66l-116 -156q-14 -19 -33.5 -25.5t-41.5 6.5q-3 2 -20.5 15t-28.5 20.5t-31 20.5t-37.5 21t-39 17t-43.5 13t-43 4q-67 0 -105.5 -34.5t-38.5 -81.5q0 -50 43.5 -84t173.5 -88q44 -17 79 -32.5t80 -40t79 -49t68.5 -59.5t56.5 -72.5 t35.5 -86.5t12.5 -103q-2 -134 -94 -242t-241 -148v-123q0 -35 -33 -35h-229q-34 0 -34 35v121q-36 9 -69.5 21.5t-62 27.5t-51 29t-45 31.5t-34 27.5t-28 25t-18.5 17q-33 31 -10 59z" />
<glyph unicode="%" horiz-adv-x="1260" d="M52 1142q0 95 68.5 163t165.5 68q95 0 163 -68t68 -163q0 -97 -68 -165.5t-163 -68.5q-98 0 -166 68t-68 166zM122.5 11q-8.5 11 0.5 27l757 1326q14 24 38 24h195q18 0 26 -11t-2 -28l-755 -1325q-14 -24 -38 -24h-195q-18 0 -26.5 11zM743 229q0 96 69 164.5t165 68.5 q95 0 164 -68.5t69 -164.5t-68.5 -164t-164.5 -68t-165 68t-69 164z" />
<glyph unicode="&#x26;" horiz-adv-x="1164" d="M-28.5 396.5q2.5 67.5 25.5 134.5q25 74 82 130.5t145 105.5q-20 25 -97 125q-61 88 -60 191.5t58 186.5q56 83 135 120t188 37q113 0 193 -36t137 -127q39 -62 50.5 -133t-5.5 -144t-75 -143.5t-153 -123.5l136 -168q43 174 43 175q8 38 45 38h273q19 0 30 -12t6 -29 q-1 -5 -9 -28.5t-13 -40.5t-12 -47t-11 -60q-5 -29 -38 -29h-75q-37 -108 -55 -165q77 -90 170 -104q18 -2 30.5 -14.5t12.5 -28.5v-160q0 -41 -36 -44q-220 -13 -358 134q-44 -42 -80.5 -66.5t-94.5 -42.5q-88 -27 -176.5 -28.5t-176 31.5t-145.5 103q-48 57 -70 126 t-19.5 136.5zM262.5 457q-27.5 -77 16.5 -138q49 -64 146 -55q91 8 144 66l-198 241q-81 -37 -108.5 -114zM335 1092q-5 -38 21 -81t85 -103q123 98 123 170q0 56 -42 88t-102 19q-36 -8 -58.5 -32.5t-26.5 -60.5z" />
<glyph unicode="'" horiz-adv-x="362" d="M52 913v404q0 14 10.5 25.5t24.5 11.5h194q16 0 27.5 -11t9.5 -26l-52 -404q-4 -35 -35 -35h-142q-14 0 -25.5 10.5t-11.5 24.5z" />
<glyph unicode="(" horiz-adv-x="767" d="M78 661q0 381 145.5 600t436.5 259q14 2 22.5 -6t8.5 -23l7 -212q0 -30 -30 -33q-161 -20 -228 -165t-67 -420q0 -279 64.5 -416.5t230.5 -157.5q30 -3 30 -33l-7 -219q0 -15 -9 -23t-24 -6q-287 40 -433.5 264t-146.5 591z" />
<glyph unicode=")" horiz-adv-x="767" d="M52 54q0 30 30 33q166 20 230.5 157.5t64.5 416.5q0 275 -67 420t-228 165q-30 3 -30 33l7 212q0 15 8.5 23t22.5 6q291 -40 436.5 -259t145.5 -600q0 -367 -146.5 -591t-433.5 -264q-15 -2 -24 6t-9 23z" />
<glyph unicode="*" horiz-adv-x="715" d="M59 935q-18 28 12 47l149 84l-149 83q-30 19 -12 47l50 81q19 31 47 11l129 -90l-9 156q0 34 35 34h93q38 0 35 -34l-9 -156l129 90q29 19 48 -11l49 -81q18 -29 -10 -47l-151 -83l151 -84q28 -18 10 -47l-49 -81q-19 -30 -48 -11l-129 91l9 -156q3 -35 -35 -35h-93 q-35 0 -35 35l9 156l-129 -91q-28 -20 -47 11z" />
<glyph unicode="+" horiz-adv-x="1100" d="M121 533v194q0 35 35 35h262v262q0 35 35 35h194q16 0 25.5 -9.5t9.5 -25.5v-262h262q35 0 35 -35v-194q0 -16 -9.5 -25.5t-25.5 -9.5h-262v-262q0 -35 -35 -35h-194q-16 0 -25.5 9.5t-9.5 25.5v262h-262q-16 0 -25.5 9.5t-9.5 25.5z" />
<glyph unicode="," horiz-adv-x="498" d="M68 153q0 70 49.5 119t118.5 49h2q73 0 123.5 -49t61.5 -121q18 -119 -15 -245q-25 -77 -79 -141.5t-114 -101.5q-27 -12 -40 6l-36 45q-10 15 0 22q66 52 106 111t43 144q-24 -7 -52 -7q-69 0 -118.5 50t-49.5 119z" />
<glyph unicode="-" horiz-adv-x="728" d="M69 340v177q0 16 10.5 26.5t26.5 10.5h519q15 0 25 -10t10 -25v-177q0 -14 -10.5 -25.5t-24.5 -11.5h-519q-14 0 -25.5 10.5t-11.5 24.5z" />
<glyph unicode="." horiz-adv-x="515" d="M75 167q0 76 54 130t130 54q74 0 128 -54t54 -130t-54 -130t-128 -54q-76 0 -130 54t-54 130z" />
<glyph unicode="/" horiz-adv-x="772" d="M43 36l389 1318q9 34 37 34h225q16 0 27.5 -10t7.5 -24l-389 -1318q-9 -36 -36 -36h-226q-15 0 -27 11t-8 25z" />
<glyph unicode="0" horiz-adv-x="1227" d="M80 663q0 143 33 266t96.5 219t167.5 151t236 55q107 0 195.5 -36t150.5 -99.5t105 -151t63 -189t20 -215.5q0 -113 -20 -213.5t-63 -187t-105 -149.5t-150.5 -98.5t-195.5 -35.5t-195 35.5t-150 98.5t-105 149.5t-63 187t-20 213.5zM375 663q0 -85 12 -154.5t38 -128.5 t74.5 -92t116.5 -33q236 0 236 408q0 415 -236 415q-68 0 -116.5 -33.5t-74.5 -93.5t-38 -130.5t-12 -157.5z" />
<glyph unicode="1" horiz-adv-x="687" d="M61 1088q-2 18 4 27.5t25 14.5q92 28 207 165l22 28q12 13 32 13h204q15 0 26 -10t11 -24v-1266q0 -14 -10.5 -25t-24.5 -11h-224q-16 0 -26 10t-10 26v898l-177 -35q-35 -8 -40 28z" />
<glyph unicode="2" horiz-adv-x="1063" d="M78.5 1096q-0.5 15 8.5 25q174 243 451 243q112 0 211 -50t162 -144t63 -210q0 -160 -115 -307l-293 -377h385q35 0 35 -35v-205q0 -13 -20 -24.5t-36 -11.5h-796q-13 0 -25 10.5t-12 24.5v60l458 589q63 79 95 137t32 114q0 63 -46 107t-119 44q-41 0 -75.5 -11 t-66.5 -36.5t-50 -44t-51 -55.5q-24 -28 -52 0l-133 132q-10 10 -10.5 25z" />
<glyph unicode="3" horiz-adv-x="1076" d="M89 217q-21 26 1 49l153 142q13 13 24 11.5t25 -15.5q131 -138 248 -138q72 0 115.5 48.5t43.5 107.5q0 54 -36.5 93.5t-91.5 39.5q-22 0 -54.5 -11t-40.5 -11q-17 0 -30 14l-109 149q-20 28 1 50l294 311h-462q-15 0 -26.5 10.5t-11.5 24.5v208q0 16 11 26t27 10h748 q37 0 37 -34v-203q0 -36 -26 -65l-236 -253q95 -21 164 -83q67 -57 104 -138t37 -176q0 -81 -38 -156t-100 -128t-143.5 -85t-166.5 -32q-143 0 -252 58t-209 176z" />
<glyph unicode="4" horiz-adv-x="1065" d="M78 500q0 17 16 29q236 194 359 502q29 73 39.5 137t12.5 151q0 16 9.5 25.5t25.5 9.5h227q16 0 26.5 -10.5t10.5 -26.5q-4 -135 -36.5 -267.5t-85.5 -235.5q-87 -159 -208 -278h151v59q0 14 10 25t25 13l199 32q15 2 26 -10t11 -28v-91h57q35 0 35 -34v-205 q0 -14 -10.5 -25.5t-24.5 -11.5h-57v-225q0 -35 -35 -35h-200q-14 0 -25 10.5t-11 24.5v225h-509q-14 0 -25 10.5t-11 24.5z" />
<glyph unicode="5" horiz-adv-x="1069" d="M89 207q-21 24 1 50l150 156q25 25 50 -2q45 -55 109 -95t136 -40q68 0 108.5 41.5t40.5 105.5q0 59 -42.5 102t-105.5 43q-53 0 -107 -26l-254 55q-16 4 -27 16t-11 26v657q0 17 11 28.5t29 11.5q264 -7 354 -7q92 0 351 7q38 0 38 -36v-200q0 -14 -10 -24t-23 -12 q-118 -10 -297 -10q-118 0 -163 3v-224q80 24 170 24t166 -37.5t125 -99t76 -138.5t27 -159q0 -119 -59 -219.5t-164.5 -160.5t-234.5 -60q-122 0 -237 57t-207 167z" />
<glyph unicode="6" horiz-adv-x="1070" d="M78 552q0 115 26.5 228t80.5 214t129 179.5t179 126.5t224 54q18 1 29 -9.5t11 -27.5l8 -208q0 -14 -11 -22.5t-27 -8.5q-130 -1 -220.5 -82.5t-121.5 -197.5q76 39 167 39q183 0 312 -123t129 -303q0 -183 -127.5 -305.5t-325.5 -122.5q-211 0 -336.5 159.5 t-125.5 409.5zM373 417q0 -70 48 -118.5t119 -48.5q65 0 113 48t48 115t-48 116t-113 49q-68 0 -117.5 -49t-49.5 -112z" />
<glyph unicode="7" horiz-adv-x="1032" d="M61 1088v212q0 16 11 26t27 10h830q34 0 34 -34v-63q0 -12 -10 -36l-521 -1180q-12 -23 -47 -23h-237q-16 0 -22 17t-1 30l458 1007h-484q-15 0 -26.5 10t-11.5 24z" />
<glyph unicode="8" horiz-adv-x="1058" d="M78 366q0 -165 122.5 -274t327.5 -109q207 0 330 108.5t123 274.5q0 55 -15 103.5t-38 82t-54.5 63t-58.5 47t-57 31.5v6q186 98 186 289q0 157 -118 261.5t-298 104.5q-177 0 -294.5 -105t-117.5 -261q0 -109 54.5 -181t128.5 -109v-5q-28 -13 -60.5 -37.5t-71 -64.5 t-64 -99.5t-25.5 -125.5zM364 378q0 64 45.5 112t119.5 48q76 0 120.5 -48t44.5 -112q0 -62 -48 -105.5t-117 -43.5q-68 0 -116.5 43.5t-48.5 105.5zM385 977q0 52 42.5 91t100.5 39q59 0 102 -39t43 -91q0 -51 -41 -93t-103 -42q-63 0 -103.5 41t-40.5 94z" />
<glyph unicode="9" horiz-adv-x="1070" d="M78 925q0 183 128 306t325 123q211 0 336.5 -160t125.5 -410q0 -115 -26.5 -228t-80.5 -214t-129.5 -179t-180 -126t-224.5 -54q-18 -1 -28 8.5t-12 27.5l-7 208q-1 14 11 23t28 9q87 1 160 42t117 102t65 135q-78 -38 -167 -38q-183 0 -312 122.5t-129 302.5zM370 923 q0 -67 47.5 -116t113.5 -49q68 0 117.5 49.5t49.5 112.5q0 69 -48 117.5t-119 48.5q-67 0 -114 -48t-47 -115z" />
<glyph unicode=":" horiz-adv-x="522" d="M87 163q0 71 51.5 122.5t121.5 51.5q71 0 123.5 -52t52.5 -122q0 -71 -52.5 -123t-123.5 -52q-70 0 -121.5 52t-51.5 123zM87 694q0 71 51.5 123.5t121.5 52.5q71 0 123.5 -52.5t52.5 -123.5t-52 -122t-124 -51q-71 0 -122 51t-51 122z" />
<glyph unicode=";" horiz-adv-x="508" d="M87 163q0 71 51.5 122.5t121.5 51.5q81 0 137 -61q47 -49 58 -118q10 -73 6 -127.5t-24 -124.5q-25 -80 -81 -146.5t-118 -103.5q-25 -16 -42 6l-36 46q-13 14 0 23q67 52 109 114.5t45 149.5q-40 -7 -54 -7q-70 0 -121.5 52t-51.5 123zM87 694q0 71 51.5 123.5 t121.5 52.5q71 0 123.5 -52.5t52.5 -123.5t-52 -122t-124 -51q-71 0 -122 51t-51 122z" />
<glyph unicode="&#x3c;" horiz-adv-x="864" d="M69 637q0 -21 18 -31l623 -379q17 -12 33.5 -2t16.5 32v198q0 20 -17 29l-299 160l299 163q17 13 17 30v197q0 22 -16.5 32t-33.5 -2l-623 -387q-7 -4 -12.5 -13.5t-5.5 -17.5v-9z" />
<glyph unicode="=" horiz-adv-x="1041" d="M95 326v177q0 16 10.5 26.5t26.5 10.5h779q15 0 25 -10t10 -25v-177q0 -14 -10.5 -25t-24.5 -11h-779q-15 0 -26 10t-11 24zM95 779v177q0 16 10.5 26.5t26.5 10.5h779q15 0 25 -10t10 -25v-177q0 -14 -10.5 -25t-24.5 -11h-779q-15 0 -26 10t-11 24z" />
<glyph unicode="&#x3e;" horiz-adv-x="864" d="M104 257q0 -22 16 -31.5t34 1.5l624 384q17 9 17 31v9q0 8 -5 17.5t-12 13.5l-624 382q-17 11 -33.5 1.5t-16.5 -31.5v-197q0 -17 17 -30l299 -161l-299 -162q-17 -9 -17 -29v-198z" />
<glyph unicode="?" horiz-adv-x="808" d="M35 1234q161 184 380 181q91 -3 179 -39q71 -29 119 -93t64 -138t-5 -152.5t-79 -135.5q-39 -38 -80 -73t-54.5 -46t-27 -33.5t-15.5 -45.5t-2 -72q0 -14 -10.5 -25.5t-24.5 -11.5h-189q-16 0 -26.5 10.5t-10.5 26.5l-3 137q0 32 38.5 74.5t84.5 77t85.5 78t41.5 77.5 q5 66 -34.5 99t-102.5 33q-18 0 -36 -4.5t-29.5 -9t-29 -18t-24 -18.5t-27 -24t-24.5 -23q-25 -22 -44 0l-113 125q-19 22 -1 43zM194 170q0 75 54.5 129.5t129.5 54.5q76 0 129.5 -54t53.5 -130t-53.5 -129t-129.5 -53q-75 0 -129.5 53.5t-54.5 128.5z" />
<glyph unicode="@" horiz-adv-x="2025" d="M104 491q0 151 45.5 291.5t130.5 254.5t199 199t259 132t303 47q157 0 298.5 -47.5t245.5 -127.5t181 -181.5t116 -213t39 -218.5q0 -73 -7.5 -141.5t-24.5 -142t-49 -133.5t-77 -109t-112 -76t-150 -27q-167 0 -218 163q-39 -51 -103 -90q-90 -57 -196 -61 q-49 -3 -97.5 5t-97 28t-84.5 60.5t-49 96.5q-35 153 75 234.5t392 138.5q2 25 -17 43t-54 23q-51 11 -124 -0.5t-149 -44.5q-37 -16 -48 17l-45 146q-5 12 1 25t19 20q156 83 342 80q156 -4 255 -88.5t92 -225.5q-3 -70 -3 -143q5 -94 34 -126.5t80 -32.5q76 0 102.5 83.5 t26.5 257.5q0 97 -40 190t-113 169t-190.5 122.5t-258.5 46.5q-188 0 -336.5 -83t-230 -229.5t-81.5 -331.5q0 -158 72.5 -301.5t201.5 -240t285 -117.5q24 -3 24 -37v-215q0 -28 -48 -24q-150 15 -282 75.5t-228.5 152t-166 206.5t-104.5 243t-35 258zM893 268 q8 -37 49 -44q88 -17 177 55q-4 47 0 101q-175 -38 -203 -57q-31 -18 -23 -55z" />
<glyph unicode="A" horiz-adv-x="1522" d="M75 11.5q-7 11.5 0 28.5l652 1340q10 17 26 17h18q16 0 26 -17l650 -1340q9 -17 2.5 -28.5t-24.5 -11.5h-247q-24 0 -36 23l-82 173h-597l-81 -173q-12 -23 -37 -23h-246q-17 0 -24 11.5zM587 462h348l-173 373z" />
<glyph unicode="B" horiz-adv-x="1195" d="M95 36v1318q0 14 9.5 24t25.5 10h505q82 0 157 -34.5t125 -88t79.5 -118.5t29.5 -126q0 -170 -134 -268q99 -63 155.5 -155.5t56.5 -200.5q0 -84 -35 -159t-92.5 -126.5t-132 -81.5t-151.5 -30h-561q-16 0 -26.5 10t-10.5 26zM391 833h187q55 0 93 29t47 70q5 21 5 42 q-1 20 -5 40q-8 41 -46 70t-94 29h-187v-280zM392 276h229q46 0 82 16t54.5 42t27.5 57t0.5 62.5t-27 57.5t-55 42t-82.5 16h-229v-293z" />
<glyph unicode="C" horiz-adv-x="1390" d="M78 693q0 144 56 275.5t150.5 226t225.5 150.5t274 56q149 0 284 -59.5t232 -164.5q26 -26 -2 -49l-180 -149q-24 -20 -49 2q-129 133 -290 133q-106 0 -199 -57.5t-148 -155t-55 -208.5q0 -171 119.5 -295t282.5 -124q158 0 287 129q23 23 48 1l179 -145q27 -25 3 -49 q-97 -105 -230 -163.5t-282 -58.5q-192 0 -354 93.5t-257 255.5t-95 356z" />
<glyph unicode="D" horiz-adv-x="1409" d="M104 36v1318q0 14 10 24t25 10h462q131 0 247 -40.5t199.5 -108.5t144.5 -157t91.5 -187t30.5 -196q0 -140 -49 -266t-138 -222.5t-225.5 -153.5t-300.5 -57h-460q-16 0 -26.5 10t-10.5 26zM403 290h196q125 0 220.5 60t143 152.5t47.5 198.5q0 79 -27.5 150t-78.5 126.5 t-130 88.5t-175 33h-196v-809z" />
<glyph unicode="E" horiz-adv-x="1162" d="M130 36v1318q0 14 10 24t25 10h849q14 0 25 -10t11 -24v-207q0 -16 -10 -25t-26 -9h-589v-297h313q14 0 25 -10.5t11 -24.5v-205q0 -16 -10 -26t-26 -10h-311v-264h587q14 0 25 -10.5t11 -24.5v-205q0 -16 -10 -26t-26 -10h-847q-16 0 -26.5 10t-10.5 26z" />
<glyph unicode="F" horiz-adv-x="1046" d="M87 92v1262q0 15 9.5 24.5t24.5 9.5h837q14 0 25 -10t11 -24v-207q0 -16 -10 -25t-26 -9h-574v-297h296q14 0 25.5 -10.5t11.5 -24.5v-205q0 -16 -10.5 -26t-26.5 -10h-296v-504q0 -16 -10 -26t-25 -10h-172q-42 0 -66 25t-24 67z" />
<glyph unicode="G" horiz-adv-x="1390" d="M78 693q0 144 56 275.5t150.5 226t225.5 150.5t274 56q149 0 284 -59.5t232 -164.5q26 -26 -2 -49l-180 -149q-24 -20 -49 2q-129 133 -290 133q-106 0 -199 -57.5t-148 -155t-55 -208.5q0 -171 119.5 -295t282.5 -124q137 0 255 99v68h-244q-16 0 -26.5 9t-10.5 26v203 q0 36 35 36l484 -2q35 3 35 -33v-439q5 -15 -11 -31q-97 -105 -230 -163.5t-282 -58.5q-192 0 -354 93.5t-257 255.5t-95 356z" />
<glyph unicode="H" horiz-adv-x="1437" d="M130 36v1318q0 14 10 24t25 10h226q14 0 25 -10t11 -24v-528h583v528q0 14 10 24t25 10h227q14 0 24.5 -10t10.5 -24v-1318q0 -17 -9 -26.5t-24 -9.5h-174q-42 0 -66 26t-24 68v435h-583v-493q0 -14 -10.5 -25t-24.5 -11h-225q-16 0 -26.5 10t-10.5 26z" />
<glyph unicode="I" horiz-adv-x="567" d="M139 36q0 -16 10 -26t26 -10h219q14 0 24.5 11t10.5 25v1318q0 14 -11 24t-26 10h-218q-16 0 -25.5 -10t-9.5 -24v-1318z" />
<glyph unicode="J" horiz-adv-x="590" d="M49 -340q-14 30 19 45q85 52 85 149v1378q-2 44 -16 111q-4 18 2.5 31.5t20.5 13.5h222q31 0 50 -19.5t19 -49.5v-1472q-1 -142 -66.5 -244.5t-179.5 -161.5q-32 -15 -47 14z" />
<glyph unicode="K" horiz-adv-x="1319" d="M97 1343q-4 18 2.5 31.5t20.5 13.5h218q30 0 50 -18.5t20 -45.5v-477l449 522q19 19 44 19h232q33 0 45.5 -27.5t-8.5 -50.5l-507 -585l578 -640q25 -29 13.5 -57t-48.5 -28h-229q-27 0 -42 17l-527 592v-574q0 -14 -10.5 -24.5t-24.5 -10.5h-225q-14 0 -24.5 10.5 t-10.5 24.5v1197q-2 44 -16 111z" />
<glyph unicode="L" horiz-adv-x="1089" d="M113 35v1319q0 14 9.5 24t25.5 10h225q14 0 24.5 -10t10.5 -24v-1078h552q14 0 24 -10t10 -25v-206q0 -14 -10 -24.5t-24 -10.5h-818q-13 0 -21 9.5t-8 25.5z" />
<glyph unicode="M" horiz-adv-x="1850" d="M130 36v1318q0 14 10.5 24t26.5 10h199q26 0 40 -24l517 -805l521 805q14 24 40 24h200q14 0 25 -10t11 -24v-1318q0 -14 -10.5 -25t-24.5 -11h-224q-16 0 -26 10t-10 26v750l-457 -701q-14 -24 -39 -24h-13q-23 0 -40 24l-451 701v-750q0 -14 -10 -25t-24 -11h-224 q-16 0 -26.5 10t-10.5 26z" />
<glyph unicode="N" horiz-adv-x="1471" d="M130 36v1318q0 14 10.5 24t24.5 10h132q24 0 50 -26l700 -798v790q0 15 9.5 24.5t24.5 9.5h224q15 0 26 -10t11 -24v-1319q0 -14 -10.5 -24.5t-24.5 -10.5h-75q-80 0 -175 108l-632 704v-776q0 -14 -11 -24t-25 -10l-222 -2q-16 0 -26.5 10t-10.5 26z" />
<glyph unicode="O" horiz-adv-x="1624" d="M104 696q0 -146 56 -277.5t151.5 -225.5t226.5 -149.5t276 -55.5q192 0 354 93.5t257 257t95 357.5q0 144 -56 274.5t-150.5 225t-225.5 150t-274 55.5q-144 0 -275.5 -55.5t-227 -150t-151.5 -225t-56 -274.5zM403 696q0 168 122.5 293t288.5 125q165 0 286.5 -125 t121.5 -293q0 -111 -55.5 -208.5t-150 -155.5t-202.5 -58q-166 0 -288.5 126t-122.5 296z" />
<glyph unicode="P" horiz-adv-x="1201" d="M121 36v1318q0 14 9.5 24t25.5 10h510q101 0 192.5 -43.5t154 -112t99.5 -153t37 -166.5q0 -87 -37 -173.5t-99.5 -154.5t-154 -110.5t-192.5 -42.5h-249v-396q0 -16 -9.5 -26t-23.5 -10h-228q-35 0 -35 36zM417 719h232q92 0 148.5 58t56.5 136q0 75 -56.5 132 t-148.5 57h-232v-383z" />
<glyph unicode="Q" horiz-adv-x="1598" d="M104 696q0 144 56 274.5t151.5 225t227 150t275.5 55.5q143 0 274 -55.5t225.5 -150t150.5 -225t56 -274.5q0 -154 -60.5 -290t-168.5 -234l70 -115q12 -20 23 -35.5t22 -28t17.5 -19t18 -17t14.5 -13.5q16 -15 13.5 -31t-15.5 -24l-170 -106q-26 -15 -51 -15q-9 0 -19 2 q-34 7 -55 39l-132 212q-107 -33 -213 -33q-145 0 -276 55.5t-226.5 149.5t-151.5 225.5t-56 277.5zM403 696q0 -102 48.5 -193.5t131.5 -151.5q-15 42 -15 85q0 92 73 157t176 65q163 0 266 -153q43 -65 47 -71q92 118 92 262q0 168 -121.5 293t-286.5 125 q-166 0 -288.5 -125t-122.5 -293zM684 316q0 -14 2 -19q60 -23 128 -23q20 0 54 4l-9 15q-26 44 -50 65.5t-57 21.5q-30 0 -49 -19t-19 -45z" />
<glyph unicode="R" horiz-adv-x="1277" d="M104 36v1318q0 14 10 24t25 10h560q103 0 193 -44.5t148.5 -114.5t92 -153t33.5 -163q0 -125 -67.5 -243t-182.5 -182l285 -446q12 -17 4.5 -29.5t-28.5 -12.5h-210q-35 0 -66 24t-47 51l-219 357h-236v-396q0 -16 -9.5 -26t-23.5 -10h-227q-35 0 -35 36zM401 708h255 q103 0 156.5 62.5t53.5 144.5q0 79 -53.5 138.5t-156.5 59.5h-255v-405z" />
<glyph unicode="S" horiz-adv-x="1107" d="M90 243l117 149q15 18 36 21t33 -9q3 -2 25.5 -20.5t32 -26t32.5 -24t40 -24.5t40.5 -18t47.5 -14.5t48 -4.5q79 0 134 32t55 92q0 26 -11 46.5t-33 36.5t-46 28t-58 27q-13 5 -19 8q-67 31 -109.5 52t-96.5 51.5t-87 55.5t-68.5 59.5t-54.5 69t-31.5 78t-12.5 92.5 q0 73 29.5 143t85 128.5t146.5 94t203 35.5q74 0 144.5 -18.5t123.5 -48t84 -50.5t55 -43q21 -21 21 -40q0 -13 -10 -26l-110 -151q-22 -27 -45 -27q-14 0 -29 10q-2 1 -16 11.5t-19 14t-20 13.5t-23.5 15t-24.5 14t-27 13.5t-27 10.5t-29.5 9t-30 5.5t-31.5 2.5 q-65 0 -108 -34t-43 -82q0 -47 35 -76.5t119 -66.5q185 -85 251 -126q166 -102 206 -235q15 -49 15 -105q0 -164 -138 -283.5t-343 -119.5q-245 0 -441 186l-8 8q-20 18 -20 36q0 13 11 25z" />
<glyph unicode="T" horiz-adv-x="1268" d="M82 1147v205q0 16 10 26t26 10h1034q15 0 25 -9.5t10 -24.5v-207q0 -14 -10.5 -24t-24.5 -10h-369v-1077q0 -17 -9 -26.5t-24 -9.5h-172q-42 0 -66 26t-24 68v1019h-370q-15 0 -25.5 9.5t-10.5 24.5z" />
<glyph unicode="U" horiz-adv-x="1353" d="M121 503q2 -226 149 -370.5t403 -144.5q129 0 235.5 39.5t176.5 108.5t108.5 163.5t38.5 203.5v851q0 17 -9 26.5t-24 9.5h-227q-35 0 -35 -36v-825q0 -116 -66.5 -187t-197.5 -71q-129 0 -192.5 70.5t-63.5 187.5v825q0 16 -9.5 26t-23.5 10h-226q-16 0 -26.5 -10 t-10.5 -26v-851z" />
<glyph unicode="V" horiz-adv-x="1463" d="M49 1345q-10 19 0.5 31t28.5 12h262q23 0 40 -38l352 -779l351 779q7 14 11.5 21t12 12t16.5 5h262q18 0 29 -12t1 -33l-636 -1324q-16 -29 -40 -29h-15q-24 0 -40 29z" />
<glyph unicode="W" horiz-adv-x="1990" d="M49 1345q-10 19 0.5 31t28.5 12h260q23 0 40 -38l375 -784l87 192l-285 587q-10 20 0.5 31.5t29.5 11.5h260q23 0 40 -38l111 -243l110 243q17 38 39 38h261q19 0 29 -12t0 -33l-279 -583l88 -194l368 784q17 38 40 38h261q18 0 28.5 -12t0.5 -33l-651 -1324 q-13 -29 -38 -29h-17q-25 0 -38 29l-200 413l-198 -413q-13 -29 -38 -29h-17q-26 0 -39 29z" />
<glyph unicode="X" horiz-adv-x="1332" d="M53.5 1378q5.5 10 21.5 10h286q6 0 10 -1.5t8 -5.5t5.5 -6.5l6 -10t6.5 -10.5l268 -403l267 403q2 3 6.5 10.5l6 10t5.5 6.5t8 5.5t10 1.5h289q16 0 21 -10t-4 -24l-437 -660l437 -658q8 -12 1.5 -24t-20.5 -12h-287q-7 0 -13 3.5t-9 7.5t-8 12.5t-8 12.5l-265 401 l-266 -401q-1 -2 -4.5 -8t-5 -9t-5 -7.5t-6.5 -6.5t-7.5 -3.5t-9.5 -1.5h-285q-14 0 -20.5 12t1.5 24l438 658l-438 660q-9 14 -3.5 24z" />
<glyph unicode="Y" horiz-adv-x="1348" d="M29 1375.5q7 12.5 23 12.5h273q3 0 6.5 -1t6 -1.5t5 -3l4 -4t4 -5.5t4 -5.5t4.5 -6.5t4 -7l310 -481l311 481q21 34 40 34h274q15 0 21.5 -12.5t-2.5 -26.5l-494 -761v-552q0 -17 -9 -26.5t-24 -9.5h-172q-42 0 -66 26t-24 68v491l-497 764q-9 14 -2 26.5z" />
<glyph unicode="Z" horiz-adv-x="1148" d="M61 35v43l52 92l515 922h-524q-14 0 -25 10t-11 24v226q0 16 10 26t26 10h948q14 0 25 -10t11 -24v-40l-2 -5l-562 -1012h526q16 0 25.5 -9.5t9.5 -23.5v-174q0 -42 -25 -66t-66 -24h-899q-14 0 -24 10.5t-10 24.5z" />
<glyph unicode="[" horiz-adv-x="656" d="M69 -316v1812q0 31 32 31h454q32 0 32 -31v-212q0 -31 -32 -31h-204v-1326h204q32 0 32 -31v-212q0 -31 -32 -31h-454q-32 0 -32 31z" />
<glyph unicode="\" horiz-adv-x="772" d="M43 1354q-4 14 7.5 24t27.5 10h226q27 0 36 -34l389 -1318q4 -13 -8.5 -24.5t-26.5 -11.5h-227q-25 0 -37 36z" />
<glyph unicode="]" horiz-adv-x="656" d="M69 -104q0 31 32 31h204v1326h-204q-32 0 -32 31v212q0 31 32 31h454q32 0 32 -31v-1812q0 -31 -32 -31h-454q-32 0 -32 31v212z" />
<glyph unicode="^" horiz-adv-x="1030" d="M48 791q11 -19 35 -19h186q16 0 31 19l215 301l214 -301q15 -19 33 -19h187q23 0 34 18t-2 38l-424 616q-11 21 -33 21h-10q-22 0 -33 -21l-431 -616q-13 -18 -2 -37z" />
<glyph unicode="_" horiz-adv-x="933" d="M69 -36q0 16 10.5 26t26.5 10h724q14 0 24 -10t10 -25v-144q0 -14 -10 -25t-24 -11h-724q-15 0 -26 10t-11 24v145z" />
<glyph unicode="`" horiz-adv-x="642" d="M70 1207.5q4 -15.5 17 -22.5l369 -170q38 -16 51 11l62 107q7 13 3.5 24.5t-11.5 17.5l-337 224q-12 11 -28.5 10.5t-25.5 -14.5l-94 -154q-10 -18 -6 -33.5z" />
<glyph unicode="a" d="M78 234q0 -115 76.5 -179t213.5 -64q92 0 151 22t106 67q16 -80 71 -80h153q15 0 22 12.5t5 30.5q-22 157 -22 337q0 84 5 174v21q0 133 -85 211q-92 84 -243 84q-105 0 -205.5 -25.5t-172.5 -61.5q-37 -21 -23 -52l57 -141q14 -32 49 -19q161 68 250 68q50 0 74 -15.5 t23 -52.5q-97 -17 -169.5 -35.5t-138 -46t-107.5 -62.5t-66 -83.5t-24 -109.5zM352 245q0 67 229 113q-2 -27 -2 -52.5t2 -48.5q-31 -28 -75 -43.5t-84 -15.5q-70 0 -70 47z" />
<glyph unicode="b" horiz-adv-x="1093" d="M106 1343q-4 18 3.5 31.5t22.5 13.5h186q45 0 70 -24.5t25 -67.5v-477q87 49 194 49q168 0 284 -120.5t116 -308.5q0 -123 -51 -225t-145 -163t-212 -61q-120 0 -205 66q-17 -25 -47.5 -40.5t-58.5 -15.5h-125q-16 0 -26 10t-10 26v1172q0 23 -2.5 45t-5 34.5t-7 30.5 t-6.5 25zM413 285q70 -35 139 -35q75 0 127 51.5t52 137.5q0 81 -51.5 124.5t-118.5 43.5q-71 0 -148 -41v-281z" />
<glyph unicode="c" horiz-adv-x="892" d="M69 427q0 124 61.5 226.5t165.5 160t225 57.5q163 0 290 -111q24 -21 3 -50l-106 -132q-21 -25 -55 -4q-48 33 -124 33q-75 0 -128.5 -51t-53.5 -127q0 -75 53.5 -127t128.5 -52q71 0 125 36q32 22 54 -7l101 -137q22 -27 -4 -50q-127 -104 -284 -104q-122 0 -225.5 56.5 t-165 158t-61.5 224.5z" />
<glyph unicode="d" horiz-adv-x="1063" d="M69 437q0 187 119 308t288 121q110 0 197 -52v394q0 23 -2.5 45t-5 34t-7 31t-5.5 25q-4 18 3 31.5t23 13.5h184q46 0 71.5 -24.5t25.5 -67.5v-1260q0 -16 -10.5 -26t-26.5 -10h-125q-29 0 -58 15.5t-47 41.5q-86 -69 -211 -69q-117 0 -212.5 61t-148 163.5t-52.5 224.5z M347 437q0 -87 53 -138t131 -51q73 0 142 37v277q-77 44 -151 44q-69 0 -122 -43.5t-53 -125.5z" />
<glyph unicode="e" horiz-adv-x="977" d="M64 430q0 -193 130 -316t318 -123q234 0 337 143q21 25 0 53l-44 66q-13 20 -33 20q-11 0 -24 -6q-101 -43 -212 -43q-71 0 -125.5 30t-68.5 84h434q64 0 100.5 35t36.5 97q0 103 -49 193.5t-146 149t-222 58.5q-183 0 -307.5 -128t-124.5 -313zM340 536q8 35 50 63 t103 28t102 -28t47 -63h-302z" />
<glyph unicode="f" horiz-adv-x="737" d="M57 621v172q0 31 18.5 48.5t49.5 17.5h57v191q0 168 99.5 257.5t261.5 89.5q66 0 132 -18t109 -48q25 -18 13 -48l-77 -164q-15 -32 -47 -17q-69 23 -97 23q-42 0 -74.5 -26.5t-32.5 -74.5v-165h152q11 0 18.5 -7t7.5 -19v-210q0 -11 -7.5 -18.5t-18.5 -7.5h-152v-561 q0 -15 -11 -25.5t-26 -10.5h-160q-41 0 -65.5 26.5t-24.5 67.5v503h-99q-26 0 -26 24z" />
<glyph unicode="g" horiz-adv-x="1058" d="M57 50v6q0 80 55 126q47 41 129 41q15 0 31 -1q-48 20 -92.5 91.5t-45.5 156.5v6q0 164 110 277q112 115 277 115q45 0 165 -15q89 -11 178 -11q30 0 59 1q15 2 25.5 -8.5t9.5 -25.5l-10 -123q0 -4 -3 -8t-8 -7t-10 -5t-13.5 -4t-13 -3t-13 -2.5t-11.5 -2.5 q46 -80 46 -187q0 -170 -114 -275q-106 -98 -257 -98h-20q-65 2 -144 22q-21 4 -36 4q-40 0 -40 -30q3 -32 100 -48q128 -20 242 -33q93 -13 155 -32t109.5 -53t68.5 -87q21 -51 21 -122v-7q1 -154 -133 -239q-131 -83 -354 -83h-11q-189 2 -301 78q-104 71 -104 194v16 q7 141 179 170q-90 19 -157 70.5t-69 135.5zM363 -278q0 -50 40 -69t126 -19q184 0 184 80q0 44 -73 59q-64 15 -187 34q-9 2 -17 2q-29 0 -48 -20q-25 -25 -25 -67zM397 479q0 -51 39.5 -89t91.5 -38q54 0 91 37.5t37 89.5q0 55 -36.5 92.5t-91.5 37.5q-53 0 -92 -38 t-39 -92z" />
<glyph unicode="h" horiz-adv-x="1089" d="M106 1343q-4 18 3.5 31.5t22.5 13.5h186q45 0 70 -24.5t25 -67.5v-492q102 66 214 66q96 0 177 -40t132.5 -119.5t51.5 -184.5v-366q0 -57 13 -115q4 -18 -2 -31.5t-20 -13.5h-189q-42 0 -65.5 26t-23.5 66v382q0 61 -37.5 94t-92.5 33q-84 0 -158 -68v-498 q0 -15 -10 -25t-25 -10h-217q-15 0 -24.5 10t-9.5 25v1173q0 23 -2.5 45t-5 34.5t-7 30.5t-6.5 25z" />
<glyph unicode="i" horiz-adv-x="541" d="M121 1241q0 61 44 104t106 43t105.5 -43t43.5 -104q0 -62 -43.5 -105.5t-105.5 -43.5t-106 43.5t-44 105.5zM128 94q0 -41 24.5 -67.5t66.5 -26.5h163q15 0 24 9.5t9 26.5v788q0 14 -10.5 24.5t-24.5 10.5h-217q-15 0 -25 -10t-10 -25v-730z" />
<glyph unicode="j" horiz-adv-x="534" d="M14 -358l109 -204q15 -29 49 -14q115 59 178 163t63 250v987q0 14 -11 24.5t-25 10.5h-216q-15 0 -24.5 -10t-9.5 -25v-987q0 -92 -94 -148q-34 -15 -19 -47zM115 1239q0 61 43.5 105t105.5 44t105.5 -43.5t43.5 -105.5t-43.5 -106.5t-105.5 -44.5q-61 0 -105 44.5 t-44 106.5z" />
<glyph unicode="k" horiz-adv-x="1103" d="M106 1343q-4 18 3.5 31.5t22.5 13.5h186q45 0 70 -24.5t25 -67.5v-749l255 293q16 19 42 19h212q31 0 42.5 -28t-9.5 -53l-285 -313l349 -385q23 -26 13 -52t-44 -26h-219q-26 0 -44 21l-312 361v-349q0 -15 -10 -25t-25 -10h-217q-14 0 -24 10.5t-10 24.5v1173 q0 23 -2.5 45t-5 34.5t-7 30.5t-6.5 25z" />
<glyph unicode="l" horiz-adv-x="538" d="M130 94q0 -42 24 -68t66 -26h164q15 0 24 9.5t9 26.5v1318q0 14 -10.5 24t-24.5 10h-217q-15 0 -25 -10t-10 -24v-1260z" />
<glyph unicode="m" horiz-adv-x="1647" d="M113 35v789q0 14 9.5 24.5t23.5 10.5h163q31 -18 68 -69q119 80 236 80q83 0 156.5 -32.5t124.5 -91.5q140 124 291 124q148 0 254 -94.5t106 -249.5v-366q2 -64 14 -115q4 -18 -2 -31.5t-19 -13.5h-189q-42 0 -66.5 26t-24.5 66v382q0 62 -36.5 93.5t-93.5 31.5 q-79 0 -156 -77v-362q2 -64 14 -115q4 -18 -2 -31.5t-19 -13.5h-189q-42 0 -66 26t-24 66v382q0 62 -37 93.5t-94 31.5q-79 0 -156 -77v-487q0 -14 -10.5 -24.5t-24.5 -10.5h-218q-14 0 -23.5 10.5t-9.5 24.5z" />
<glyph unicode="n" horiz-adv-x="1065" d="M104 35v789q0 14 9.5 24.5t23.5 10.5h163q31 -18 68 -69q119 80 236 80q96 0 177 -40t131.5 -119.5t50.5 -184.5v-366q2 -64 14 -115q4 -18 -2 -31.5t-19 -13.5h-189q-42 0 -66 26t-24 66v382q0 61 -37 94t-92 33q-83 0 -157 -66v-500q0 -14 -10.5 -24.5t-24.5 -10.5 h-219q-14 0 -23.5 10.5t-9.5 24.5z" />
<glyph unicode="o" horiz-adv-x="1041" d="M69 429q0 -122 61.5 -224t165.5 -159.5t225 -57.5t224.5 57.5t165 159.5t61.5 224q0 124 -61.5 226t-165 159t-224.5 57q-186 0 -319 -127.5t-133 -314.5zM344 427q0 73 51 126.5t126 53.5t126 -53.5t51 -126.5q0 -72 -51 -124.5t-126 -52.5t-126 52.5t-51 124.5z" />
<glyph unicode="p" horiz-adv-x="1093" d="M106 814q-4 18 3.5 31.5t22.5 13.5h186q62 0 85 -45q94 54 206 54q166 0 282 -120.5t116 -308.5q0 -123 -51 -225t-145 -163t-212 -61q-107 0 -186 52v-436q0 -50 -39.5 -83t-85.5 -33h-125q-16 0 -26 10t-10 26v1153q0 23 -2.5 45t-5 34.5t-7 30.5t-6.5 25zM413 285 q70 -35 139 -35q75 0 127 51.5t52 137.5q0 81 -51.5 124.5t-118.5 43.5q-71 0 -148 -41v-281z" />
<glyph unicode="q" horiz-adv-x="1076" d="M87 437q0 188 116.5 308.5t284.5 120.5q113 0 213 -61q17 25 46.5 39.5t57.5 14.5h125q16 0 26.5 -10t10.5 -26v-1153q0 -23 2.5 -45t5 -34.5t7 -30.5t6.5 -25q4 -18 -3 -31.5t-23 -13.5h-184q-46 0 -72 24.5t-26 67.5v458q-79 -52 -185 -52q-177 0 -292.5 130.5 t-115.5 318.5zM364 437q0 -86 51 -137.5t128 -51.5q67 0 137 35v281q-76 42 -145 42q-68 0 -119.5 -44t-51.5 -125z" />
<glyph unicode="r" horiz-adv-x="836" d="M104 35v789q0 14 9.5 24.5t23.5 10.5h163q7 -5 14.5 -11t16 -14.5t13.5 -14t14.5 -16.5t12.5 -15q102 78 216 78q122 0 189 -47q24 -14 24 -32q0 -11 -9 -23l-102 -169q-15 -26 -47 -14q-48 18 -95 18q-43 0 -86.5 -21t-69.5 -68v-475q0 -14 -10.5 -24.5t-24.5 -10.5 h-219q-14 0 -23.5 10.5t-9.5 24.5z" />
<glyph unicode="s" horiz-adv-x="845" d="M80.5 112q-3.5 13 2.5 22l84 132q23 34 52 20q9 -6 35.5 -19t73 -27t83.5 -14h10q60 0 60 36q0 21 -25 33t-112 36q-119 32 -189 103t-70 173q0 105 88 183q90 80 242 80q88 0 150 -20t133 -62q39 -24 21 -50l-92 -141q-20 -28 -49 -16q-96 51 -161 51q-30 0 -46.5 -10.5 t-16.5 -26.5t25 -28t84 -27q133 -36 218.5 -107t85.5 -178q0 -113 -100 -190t-256 -77q-94 0 -184 34.5t-133 69.5q-10 7 -13.5 20z" />
<glyph unicode="t" horiz-adv-x="787" d="M69 627v46q0 27 14 46q16 18 62 71t68 79t58.5 69.5t66.5 83t59 80.5q17 28 35 28h30q27 0 27 -31v-240h150q16 0 26 -10t10 -26v-195q0 -14 -11 -25t-25 -11h-118q-21 0 -35 3v-244q0 -86 71 -89q20 -2 61 9q32 11 43 -26l54 -165q6 -18 -14 -38q-29 -23 -82 -37 t-104 -14q-315 0 -315 330v271h-96q-14 0 -24.5 10.5t-10.5 24.5z" />
<glyph unicode="u" horiz-adv-x="1056" d="M89 817q-4 18 2 32t18 14h190q42 0 66 -26t24 -66v-386q0 -62 36.5 -93.5t93.5 -31.5q79 0 156 77v487q0 14 10.5 24.5t24.5 10.5h219q14 0 23.5 -10.5t9.5 -24.5v-789q0 -14 -9.5 -24.5t-23.5 -10.5h-174q-26 21 -57 69q-112 -79 -236 -79q-147 0 -253.5 94t-106.5 249 v370q-3 68 -13 114z" />
<glyph unicode="v" horiz-adv-x="959" d="M48.5 849.5q-6.5 -9.5 0.5 -25.5l387 -803q13 -30 36 -30h19q21 0 38 30l386 803q7 14 -3.5 24.5t-26.5 10.5h-229q-13 0 -20 -8t-15 -27l-140 -335l-141 335q-8 19 -15 27t-20 8h-232q-18 0 -24.5 -9.5z" />
<glyph unicode="w" horiz-adv-x="1421" d="M48.5 847q7.5 12 26.5 12h227q31 0 42 -26l135 -364l175 359q14 26 42 26h31q29 0 40 -26l177 -359l134 364q11 26 41 26h228q19 0 27 -12t1 -30l-327 -794q-10 -23 -34 -23h-52q-24 0 -37 23l-213 406l-216 -406q-13 -23 -36 -23h-52q-23 0 -33 23l-326 794 q-8 18 -0.5 30z" />
<glyph unicode="x" horiz-adv-x="1034" d="M91 839q9 20 29 20h227q24 0 42 -26l126 -200l131 200q15 26 40 26h229q20 0 29 -20t-3 -37l-273 -375l271 -370q12 -17 3 -37t-27 -20h-231q-10 0 -17 3.5t-10 7.5t-11 15l-131 196l-126 -196q-11 -15 -19 -20.5t-23 -5.5h-227q-18 0 -27.5 20t2.5 37l269 370l-270 375 q-12 17 -3 37z" />
<glyph unicode="y" horiz-adv-x="1079" d="M47.5 847q7.5 12 25.5 12h232q28 0 42 -26l198 -401l187 401q11 26 42 26h229q20 0 28.5 -12t-0.5 -30l-332 -678q-135 -277 -238.5 -440t-167.5 -230q-12 -12 -26 -12q-18 0 -41 21l-125 119q-17 16 -17 34t18 39q191 217 301 484l-354 663q-9 18 -1.5 30z" />
<glyph unicode="z" horiz-adv-x="907" d="M90 69l18 56l284 448h-262q-35 0 -35 34v217q0 16 9.5 25.5t25.5 9.5h642q23 0 36.5 -21.5t5.5 -40.5l-12 -52l-293 -459h270q35 0 35 -34v-217q0 -16 -10 -25.5t-26 -9.5h-641q-27 0 -42 24t-5 45z" />
<glyph unicode="{" horiz-adv-x="813" d="M69 519q0 -14 10.5 -24.5t21.5 -10.5q28 -11 43.5 -18t41 -23.5t38 -39t12.5 -51.5v-198q0 -119 31 -210.5t78.5 -146t114 -91t126 -51t127.5 -19.5q11 0 21.5 10t10.5 24v172q0 23 -2.5 27t-15.5 4q-111 26 -162 93t-51 187v194q0 51 -17 94.5t-44 70.5t-50.5 42.5 t-44.5 23.5v17q8 0 32 16.5t52.5 44t50 73.5t21.5 97v195q0 128 49.5 190t163.5 89q12 0 15 8t3 25v168q0 16 -6 24.5t-11 9.5t-15 1q-65 0 -127 -13.5t-127 -50t-113 -92.5t-79 -149t-31 -212v-196q0 -55 -54.5 -94.5t-80.5 -39.5q-11 0 -21.5 -10.5t-10.5 -22.5v-137z" />
<glyph unicode="|" horiz-adv-x="636" d="M174 -312v2037q0 35 34 35h221q16 0 25 -9.5t9 -25.5v-2037q0 -16 -9 -25.5t-25 -9.5h-221q-16 0 -25 9.5t-9 25.5z" />
<glyph unicode="}" horiz-adv-x="813" d="M69 -158v-172q0 -14 10.5 -24t21.5 -10q68 5 127.5 19.5t126 51t114 91t78.5 146t31 210.5v198q0 29 12.5 51.5t38 39t41 23.5t43.5 18q11 0 21.5 10.5t10.5 24.5v137q0 12 -10.5 22.5t-21.5 10.5q-26 0 -80.5 39.5t-54.5 94.5v196q0 119 -31 212t-79 149t-113 92.5 t-127 50t-127 13.5q-10 0 -15 -1t-11 -9.5t-6 -24.5v-168q0 -17 3 -25t15 -8q114 -27 163.5 -89t49.5 -190v-195q0 -51 21.5 -97t50 -73.5t52.5 -44t32 -16.5v-17q-21 -8 -44.5 -23.5t-50.5 -42.5t-44 -70.5t-17 -94.5v-194q0 -120 -51 -187t-162 -93q-13 0 -15.5 -4 t-2.5 -27z" />
<glyph unicode="~" horiz-adv-x="834" d="M42 493q-16 -19 1 -42q27 -29 80 -100q9 -12 23.5 -10.5t21.5 15.5q17 25 27 38t32.5 28t48.5 15q41 0 109 -41q4 -3 19.5 -15t20.5 -15t18.5 -11.5t22 -11.5t22 -7.5t27.5 -6t30 -1.5q36 0 75 15.5t68.5 37t54 43.5t37.5 38l13 15q15 22 0 42l-73 106q-11 13 -25.5 12 t-22.5 -14q-57 -83 -127 -83q-13 0 -25 2.5t-23 8.5t-17 10.5t-18 14t-16 12.5q-33 23 -50.5 33t-50.5 21t-67 11q-36 0 -73 -16.5t-65 -40t-51 -47t-35 -39.5z" />
<glyph unicode="&#xa1;" horiz-adv-x="557" d="M95 682q0 74 55 128t129 54q75 0 129 -54t54 -128q0 -76 -54 -131t-129 -55q-74 0 -129 55t-55 131zM120 -477l55 743q3 36 37 36h139q14 0 23 -10.5t11 -25.5l54 -743v-25q0 -14 -10.5 -24t-24.5 -10h-250q-15 0 -24.5 9.5t-9.5 24.5v25z" />
<glyph unicode="&#xa2;" horiz-adv-x="958" d="M69 434q0 124 62 229t167.5 166t229.5 61q43 0 88 -8l26 76q5 16 18 22t29 1l56 -21q13 -5 18.5 -18t1.5 -26l-27 -79q62 -36 119 -101q11 -12 10 -27t-13 -22l-144 -126q-21 -18 -47 5l-14 12l-111 -332q78 0 146 66q9 13 22.5 16t25.5 -7l144 -113q11 -6 12.5 -20.5 t-6.5 -24.5q-141 -186 -354 -186q-44 0 -80 7l-40 -114q-5 -16 -18 -22t-29 -1l-56 21q-13 5 -18.5 17.5t-1.5 25.5l38 115q-114 57 -184 166.5t-70 241.5zM347 434q0 -89 66 -144l115 335q-80 -4 -130.5 -58.5t-50.5 -132.5z" />
<glyph unicode="&#xa3;" horiz-adv-x="1015" d="M106 36v23q80 114 119 229.5t30 206.5q-5 71 -38 180l-28 104q-7 25 -22 75.5t-22 79.5t-8 57q-4 96 31 177.5t94.5 134t135.5 81.5t157 29q76 0 138 -14t107.5 -42t76.5 -56t65 -69q21 -28 -1 -45l-155 -127q-22 -18 -50 7q-72 70 -162 70q-60 0 -106.5 -39.5 t-45.5 -109.5q1 -34 8 -63.5t23.5 -77t25.5 -76.5q1 -2 11 -34.5t12.5 -41.5t10 -37.5t10 -44.5t4.5 -39t2 -43q0 -127 -60 -264h399q36 0 36 -45v-184q0 -16 -10 -27t-26 -11h-726q-16 0 -26 10t-10 26zM337 583q0 4 1 4.5t6 0.5h93q4 0 5.5 -1t1.5 -6v14q0 -5 -7 -5h-93 q-7 0 -7 7v-14z" />
<glyph unicode="&#xa4;" horiz-adv-x="1234" d="M82 437q-24 25 0 49l119 120q-41 93 -41 192q0 100 41 190l-119 119q-24 25 0 49l178 179q24 25 49 0l120 -120q88 40 187 40q98 0 189 -40l120 120q25 25 49 0l178 -179q24 -24 0 -49l-119 -119q40 -91 40 -190q0 -96 -42 -191l121 -121q24 -24 0 -49l-178 -178 q-24 -25 -49 0l-123 123q-88 -40 -186 -40t-184 40l-123 -123q-25 -25 -49 0zM453 798q0 -68 48 -116.5t117 -48.5q68 0 116.5 48.5t48.5 116.5q0 69 -48.5 116.5t-116.5 47.5q-69 0 -117 -47.5t-48 -116.5z" />
<glyph unicode="&#xa5;" horiz-adv-x="1294" d="M20 1376q6 12 22 12h269q3 0 6.5 -1t6 -1.5t5 -3l4 -4t4 -5.5t4 -5.5t4.5 -6.5t4 -7l298 -479l299 479q1 2 4 7t4.5 6.5t4 5.5t4 5.5l4 4t5 3t6 1.5t6.5 1h271q15 0 20.5 -12t-3.5 -26l-385 -619h135q14 0 24.5 -10t10.5 -23v-198q0 -14 -10.5 -25.5t-24.5 -11.5h-225 v-79h225q14 0 24.5 -9.5t10.5 -23.5v-198q0 -14 -10.5 -24.5t-24.5 -10.5h-225v-82q0 -17 -9 -26.5t-24 -9.5h-174q-42 0 -66 26t-24 68v24h-226q-13 0 -23.5 9.5t-10.5 23.5v198q0 14 10 24.5t24 10.5h226v79h-226q-13 0 -23.5 10.5t-10.5 24.5v198q0 13 10 24t24 11h136 l-387 619q-9 14 -3 26z" />
<glyph unicode="&#xa6;" horiz-adv-x="636" d="M174 -312v788q0 34 34 34h221q34 0 34 -34v-788q0 -16 -9 -25.5t-25 -9.5h-221q-16 0 -25 9.5t-9 25.5zM174 937v788q0 35 34 35h221q16 0 25 -9.5t9 -25.5v-788q0 -34 -34 -34h-221q-34 0 -34 34z" />
<glyph unicode="&#xa7;" horiz-adv-x="1096" d="M86.5 -302q-0.5 12 10.5 26l111 156q13 20 35 22t33 -10q2 -1 25.5 -22.5t53 -46t77 -45.5t92.5 -21q70 0 120 35t50 92q0 62 -47 103.5t-171 87.5q-75 27 -140.5 67t-120 94.5t-86.5 127t-32 153.5q0 139 99 248q-99 115 -99 259q0 55 17 109t53 105t88 89.5t128.5 62 t166.5 23.5q37 0 74.5 -5.5t67 -13t60.5 -20.5t52 -23.5t45.5 -26t36 -24t29 -21.5t20.5 -15q15 -11 18.5 -29t-7.5 -36l-109 -152q-15 -20 -33.5 -28.5t-39.5 3.5l-26 22q-25 21 -52 40.5t-69 37t-79 17.5q-66 0 -105 -36.5t-39 -83.5q0 -55 45.5 -95.5t157.5 -76.5 q77 -25 147 -67t131.5 -99.5t98 -136.5t36.5 -166q0 -136 -97 -244q97 -120 97 -262q0 -75 -33 -147t-91.5 -128.5t-146.5 -90.5t-189 -34q-53 0 -105 9.5t-89 21t-77.5 34t-61 35t-50.5 38.5t-35 31l-24 24q-11 9 -16 15t-5.5 18zM384 512q0 -54 49.5 -94.5t163.5 -77.5 q14 -4 71 -28q37 34 37 79q0 60 -51 101t-178 89l-47 20q-45 -36 -45 -89z" />
<glyph unicode="&#xa8;" horiz-adv-x="883" d="M49 1239q0 62 43.5 106.5t105.5 44.5q63 0 107 -44t44 -107q0 -61 -44 -105t-107 -44q-62 0 -105.5 44t-43.5 105zM535 1239q0 63 43.5 107t105.5 44t106.5 -44.5t44.5 -106.5q0 -60 -45 -104.5t-106 -44.5t-105 44.5t-44 104.5z" />
<glyph unicode="&#xa9;" horiz-adv-x="1572" d="M69 699q0 146 57 278.5t153 228.5t228.5 152.5t278.5 56.5t279 -56.5t229 -152.5t152.5 -228.5t56.5 -278.5t-56.5 -278.5t-152.5 -228.5t-229 -152.5t-279 -56.5t-278.5 56.5t-228.5 152.5t-153 228.5t-57 278.5zM293 699q0 -135 65.5 -248t179 -178.5t248.5 -65.5 q133 0 246 65.5t179 179t66 247.5q0 133 -66 246t-179.5 178.5t-245.5 65.5q-205 0 -349 -143.5t-144 -346.5zM458 696q0 140 98 237.5t237 97.5q146 0 241 -113q8 -7 7.5 -18.5t-10.5 -17.5l-102 -89q-17 -17 -35 5q-51 44 -92 44q-62 0 -105 -43t-43 -103 q0 -57 43.5 -99.5t104.5 -42.5q56 0 106 50q17 24 38 7l102 -80q9 -5 10.5 -15.5t-4.5 -17.5q-107 -137 -261 -137q-139 0 -237 98.5t-98 236.5z" />
<glyph unicode="&#xaa;" d="M78 234q0 -115 76.5 -179t213.5 -64q92 0 151 22t106 67q16 -80 71 -80h153q15 0 22 12.5t5 30.5q-32 231 -17 511q7 149 -85 232.5t-243 83.5q-105 0 -205.5 -25.5t-172.5 -61.5q-37 -21 -23 -52l57 -141q14 -32 49 -19q161 68 250 68q50 0 74 -15.5t23 -52.5 q-97 -17 -169.5 -35.5t-138 -46t-107.5 -62.5t-66 -83.5t-24 -109.5zM352 245q0 67 229 113q-4 -54 0 -101q-31 -28 -75 -43.5t-84 -15.5q-70 0 -70 47z" />
<glyph unicode="&#xab;" horiz-adv-x="1142" d="M85 371l226 -333q11 -22 33 -22h161q28 0 37 20t-6 47l-137 314l143 308q14 31 4.5 50t-36.5 19h-156q-23 0 -38 -26l-231 -326q-17 -22 0 -51zM581 368l231 -326q15 -26 40 -26h155q28 0 37 20t-4 49l-146 306l142 315q11 28 2 48t-35 20h-161q-26 0 -37 -22l-224 -334 q-17 -23 0 -50z" />
<glyph unicode="&#xac;" horiz-adv-x="1034" d="M69 571v165q0 16 9.5 26t25.5 10h823q13 0 23 -9.5t10 -24.5v-479q0 -13 -10 -24t-23 -11h-169q-14 0 -24 10.5t-10 24.5v277h-620q-14 0 -24.5 10.5t-10.5 24.5z" />
<glyph unicode="&#xad;" horiz-adv-x="728" d="M69 340v177q0 16 10.5 26.5t26.5 10.5h519q15 0 25 -10t10 -25v-177q0 -14 -10.5 -25.5t-24.5 -11.5h-519q-14 0 -25.5 10.5t-11.5 24.5z" />
<glyph unicode="&#xae;" horiz-adv-x="1039" d="M26 1126q0 204 145 348.5t350 144.5t349 -144.5t144 -348.5q0 -135 -65.5 -248.5t-179 -179.5t-248.5 -66t-249 66t-180 179.5t-66 248.5zM194 1126q0 -134 96 -230t231 -96q134 0 230 96t96 230q0 136 -95.5 231.5t-230.5 95.5q-136 0 -231.5 -95.5t-95.5 -231.5z M354 909v434q0 12 10 12h190q63 0 104 -42t41 -96q0 -41 -21.5 -76t-57.5 -53l92 -177q9 -12 -7 -12h-108q-11 0 -14 5l-83 169h-24v-164q0 -4 -4.5 -7t-8.5 -3h-99q-10 0 -10 10zM474 1178h55q20 0 28.5 16.5t0 33t-28.5 16.5h-55v-66z" />
<glyph unicode="&#xaf;" horiz-adv-x="888" d="M69 1130v163q0 12 8.5 21t21.5 9l689 1q13 0 22 -8.5t9 -20.5v-165q0 -13 -9 -21.5t-22 -8.5h-689q-13 0 -21.5 8t-8.5 22z" />
<glyph unicode="&#xb0;" horiz-adv-x="683" d="M69 1081q0 112 80.5 192.5t192.5 80.5q113 0 192.5 -80.5t79.5 -192.5q0 -113 -79.5 -193.5t-192.5 -80.5q-112 0 -192.5 80.5t-80.5 193.5zM255 1081q0 -37 26 -62.5t63 -25.5q35 0 60.5 25.5t25.5 62.5q0 35 -25.5 61t-60.5 26q-37 0 -63 -25.5t-26 -61.5z" />
<glyph unicode="&#xb1;" horiz-adv-x="1030" d="M87 35v184q0 16 10 26t26 10h786q15 0 25 -10t10 -25v-184q0 -14 -10.5 -25t-24.5 -11h-786q-14 0 -25 10.5t-11 24.5zM87 689v194q0 16 9 25.5t25 9.5h263v262q0 35 34 35h195q16 0 25 -9.5t9 -25.5v-262h262q35 0 35 -35v-194q0 -16 -9.5 -25.5t-25.5 -9.5h-262v-262 q0 -34 -34 -34h-195q-34 0 -34 34v262h-263q-34 0 -34 35z" />
<glyph unicode="&#xb2;" horiz-adv-x="1063" d="M78.5 1096q-0.5 15 8.5 25q174 243 451 243q112 0 211 -50t162 -144t63 -210q0 -160 -115 -307l-293 -377h385q35 0 35 -35v-205q0 -13 -20 -24.5t-36 -11.5h-796q-13 0 -25 10.5t-12 24.5v60l458 589q63 79 95 137t32 114q0 63 -46 107t-119 44q-41 0 -75.5 -11 t-66.5 -36.5t-50 -44t-51 -55.5q-24 -28 -52 0l-133 132q-10 10 -10.5 25z" />
<glyph unicode="&#xb3;" horiz-adv-x="1076" d="M89 217q-21 26 1 49l153 142q13 13 24 11.5t25 -15.5q131 -138 248 -138q72 0 115.5 48.5t43.5 107.5q0 54 -36.5 93.5t-91.5 39.5q-22 0 -54.5 -11t-40.5 -11q-17 0 -30 14l-109 149q-20 28 1 50l294 311h-462q-15 0 -26.5 10.5t-11.5 24.5v208q0 16 11 26t27 10h748 q37 0 37 -34v-203q0 -36 -26 -65l-236 -253q95 -21 164 -83q67 -57 104 -138t37 -176q0 -81 -38 -156t-100 -128t-143.5 -85t-166.5 -32q-143 0 -252 58t-209 176z" />
<glyph unicode="&#xb4;" horiz-adv-x="643" d="M71.5 1164.5q-3.5 -11.5 3.5 -24.5l62 -107q13 -27 50 -11l370 170q13 7 17 22.5t-6 33.5l-94 154q-9 14 -25.5 14.5t-28.5 -10.5l-337 -224q-8 -6 -11.5 -17.5z" />
<glyph unicode="&#xb6;" horiz-adv-x="1565" d="M78 951q0 76 32.5 153.5t88 140.5t140 103t178.5 40h929q41 0 41 -41v-202q0 -41 -41 -41h-104v-1068q0 -16 -10 -26t-25 -10h-222q-15 0 -26 11t-11 25l2 1068h-132v-1068q0 -16 -10 -26t-25 -10h-222q-15 0 -25.5 10.5t-10.5 25.5v464h-108q-126 0 -228.5 67 t-156.5 169.5t-54 214.5zM383.5 942.5q0.5 -41.5 17 -77.5t52.5 -60t85 -24h89v323h-89q-50 0 -86 -24t-52.5 -60t-16 -77.5z" />
<glyph unicode="&#xb7;" horiz-adv-x="539" d="M87 522q0 76 54 130t130 54q74 0 128 -54t54 -130t-54 -130t-128 -54q-76 0 -130 54t-54 130z" />
<glyph unicode="&#xb8;" horiz-adv-x="562" d="M76 -205l2 4l99 201h174l-54 -115q82 -14 137 -76t55 -146q0 -92 -69.5 -159.5t-164.5 -67.5q-100 0 -166 78q-11 14 1 28l70 69q11 11 27 0q35 -24 68 -24q36 0 56 21.5t20 54.5q0 32 -20.5 53.5t-55.5 21.5q-42 0 -73 -31q-16 -15 -29 -2l-73 68q-9 9 -4 22z" />
<glyph unicode="&#xb9;" horiz-adv-x="687" d="M61 1088q-2 18 4 27.5t25 14.5q92 28 207 165l22 28q12 13 32 13h204q15 0 26 -10t11 -24v-1266q0 -14 -10.5 -25t-24.5 -11h-224q-16 0 -26 10t-10 26v898l-177 -35q-35 -8 -40 28z" />
<glyph unicode="&#xba;" horiz-adv-x="1041" d="M69 429q0 -122 61.5 -224t165.5 -159.5t225 -57.5t224.5 57.5t165 159.5t61.5 224q0 124 -61.5 226t-165 159t-224.5 57q-186 0 -319 -127.5t-133 -314.5zM344 427q0 73 51 126.5t126 53.5t126 -53.5t51 -126.5q0 -72 -51 -124.5t-126 -52.5t-126 52.5t-51 124.5z" />
<glyph unicode="&#xbb;" horiz-adv-x="1142" d="M90 36q9 -20 37 -20h154q25 0 40 26l231 326q16 22 0 50l-224 334q-11 22 -36 22h-162q-27 0 -36 -20.5t3 -47.5l143 -314l-146 -307q-13 -29 -4 -49zM587 754.5q-9 -19.5 5 -49.5l142 -306l-139 -316q-14 -29 -5 -48t37 -19h163q22 0 33 22l225 333q16 26 0 51l-232 326 q-15 26 -37 26h-156q-27 0 -36 -19.5z" />
<glyph unicode="&#xbc;" horiz-adv-x="1228" d="M87 1180v77q0 21 17 26q56 17 113 79l14 18q8 8 19 8h108q9 0 15.5 -6t6.5 -14v-566q0 -9 -6.5 -16t-15.5 -7h-117q-24 0 -24 23v368l-104 -7q-10 -2 -18 2.5t-8 14.5zM194 12q-7 12 2 30l689 1322q13 24 40 24h87q21 0 28 -11.5t-2 -29.5l-689 -1323q-13 -24 -40 -24 h-87q-21 0 -28 12zM722 246q0 9 7 16q115 90 165 217q24 64 24 127q0 17 17 17h106q7 0 11.5 -5t4.5 -12q-2 -105 -59 -228q-29 -55 -102 -112h64v13q0 18 15 18l101 8q7 0 12 -5.5t5 -13.5v-20h32q17 0 17 -18v-100q0 -7 -5 -11.5t-12 -4.5h-32v-116q0 -16 -15 -16h-101 q-17 0 -17 16v116h-221q-15 0 -15 16z" />
<glyph unicode="&#xbd;" horiz-adv-x="1296" d="M87 1180v77q0 21 17 26q56 17 113 79l14 18q8 8 19 8h108q9 0 15.5 -6t6.5 -14v-566q0 -9 -6.5 -16t-15.5 -7h-117q-24 0 -24 23v368l-104 -7q-10 -2 -18 2.5t-8 14.5zM194 12q-7 12 2 30l689 1322q13 24 40 24h87q21 0 28 -11.5t-2 -29.5l-689 -1323q-13 -24 -40 -24 h-87q-21 0 -28 12zM771 521q43 60 106 87.5t127 21t115 -44.5q65 -45 75 -136t-38 -157l-109 -148h147q16 0 16 -17v-108q0 -8 -4.5 -13.5t-11.5 -5.5h-380q-8 0 -13.5 6t-5.5 13v21l83 104l120 153q3 5 18 25.5t22 30.5t14 27t7 30q0 33 -25 56t-59 23q-30 0 -54.5 -15.5 t-56.5 -48.5q-12 -15 -24 0l-68 71q-11 11 -1 25z" />
<glyph unicode="&#xbe;" horiz-adv-x="1220" d="M75 864q-10 13 0 23l64 68q10 10 22 -2q17 -18 37 -33t45 -27t50.5 -10t46.5 20q25 22 28 49.5t-12 46t-40 28t-56 -4.5q-9 -9 -20 4l-54 66q-9 11 0 22l114 141h-189q-7 0 -12 4.5t-5 9.5v100q0 8 5 13.5t12 5.5h354q17 0 17 -17v-99q0 -5 -3 -8l-116 -129 q45 -10 79 -44t48.5 -77t8.5 -91.5t-36 -85.5q-81 -87 -192.5 -80t-195.5 107zM208 12q-7 12 2 30l689 1322q13 24 40 24h87q21 0 28 -11.5t-2 -29.5l-689 -1323q-13 -24 -40 -24h-87q-21 0 -28 12zM731 246q0 9 7 16q115 90 165 217q24 64 24 127q0 17 17 17h106 q7 0 11.5 -5t4.5 -12q-2 -105 -59 -228q-29 -53 -103 -112h64v13q0 7 4.5 12.5t11.5 5.5l101 8q7 0 12 -5.5t5 -13.5v-20h31q7 0 12.5 -5t5.5 -13v-100q0 -7 -5.5 -11.5t-12.5 -4.5h-31v-116q0 -16 -16 -16h-100q-18 0 -18 16v116h-220q-16 0 -16 16z" />
<glyph unicode="&#xbf;" horiz-adv-x="808" d="M32 -297q-16 74 5 152.5t79 135.5q39 38 80 73.5t54.5 46t27 33.5t15.5 46t2 72q0 14 10.5 25.5t24.5 11.5h189q16 0 26 -10.5t10 -26.5l4 -137q0 -27 -25 -59t-61 -62.5t-72.5 -61t-63 -63.5t-28.5 -61q-5 -65 35.5 -98.5t103.5 -33.5q18 0 36.5 5t29 8.5t29.5 17.5 t23.5 17.5t27.5 24.5t24 22q25 22 43 0l111 -123q21 -21 2 -43q-113 -130 -262 -167.5t-297 24.5q-71 29 -119 93t-64 138zM248 679q0 76 53 129t129 53q75 0 129.5 -53.5t54.5 -128.5q0 -74 -55 -129t-129 -55q-75 0 -128.5 54.5t-53.5 129.5z" />
<glyph unicode="&#xc0;" horiz-adv-x="1522" d="M75 11.5q-7 11.5 0 28.5l652 1340q10 17 26 17h18q16 0 26 -17l650 -1340q9 -17 2.5 -28.5t-24.5 -11.5h-247q-24 0 -36 23l-82 173h-597l-81 -173q-12 -23 -37 -23h-246q-17 0 -24 11.5zM512.5 1690q-3.5 15 6.5 33l94 155q9 14 25 14t28 -11l337 -224q23 -16 9 -41 l-63 -108q-12 -26 -50 -10l-370 170q-13 7 -16.5 22zM587 462h348l-173 373z" />
<glyph unicode="&#xc1;" horiz-adv-x="1522" d="M75 11.5q-7 11.5 0 28.5l652 1340q10 17 26 17h18q16 0 26 -17l650 -1340q9 -17 2.5 -28.5t-24.5 -11.5h-247q-24 0 -36 23l-82 173h-597l-81 -173q-12 -23 -37 -23h-246q-17 0 -24 11.5zM517.5 1647q2.5 11 11.5 17l337 224q12 11 28.5 11t25.5 -14l94 -155 q10 -18 6 -33t-17 -22l-370 -170q-38 -16 -50 10l-62 108q-6 13 -3.5 24zM587 462h348l-173 373z" />
<glyph unicode="&#xc2;" horiz-adv-x="1522" d="M75 11.5q-7 11.5 0 28.5l652 1340q10 17 26 17h18q16 0 26 -17l650 -1340q9 -17 2.5 -28.5t-24.5 -11.5h-247q-24 0 -36 23l-82 173h-597l-81 -173q-12 -23 -37 -23h-246q-17 0 -24 11.5zM413 1533v144q0 20 23 33l305 185q24 12 45 0l306 -185q24 -14 24 -33v-144 q0 -25 -18 -33t-46 5l-288 126l-288 -126q-27 -13 -45 -5t-18 33zM587 462h348l-173 373z" />
<glyph unicode="&#xc3;" horiz-adv-x="1522" d="M75 11.5q-7 11.5 0 28.5l652 1340q10 17 26 17h18q16 0 26 -17l650 -1340q9 -17 2.5 -28.5t-24.5 -11.5h-247q-24 0 -36 23l-82 173h-597l-81 -173q-12 -23 -37 -23h-246q-17 0 -24 11.5zM371 1670.5q-1 13.5 7 26.5l8 9q7 10 14.5 19.5t21.5 24.5t28.5 27.5t35 26t41 23 t46.5 15.5t52 6q40 0 78.5 -15t63.5 -32.5t58.5 -32.5t64.5 -15q71 0 137 61q29 27 54 0l77 -104q20 -27 -2 -49l-7 -7q-7 -8 -12 -13.5t-16 -16t-20.5 -18.5t-24 -18.5t-28.5 -19t-32 -16.5t-36 -13.5t-39 -9t-42 -3.5q-47 0 -85 14.5t-59 31.5t-54.5 31.5t-73.5 14.5 q-64 0 -118 -63q-10 -12 -23.5 -12.5t-22.5 10.5l-83 96q-8 8 -9 21.5zM587 462h348l-173 373z" />
<glyph unicode="&#xc4;" horiz-adv-x="1522" d="M75 11.5q-7 11.5 0 28.5l652 1340q10 17 26 17h18q16 0 26 -17l650 -1340q9 -17 2.5 -28.5t-24.5 -11.5h-247q-24 0 -36 23l-82 173h-597l-81 -173q-12 -23 -37 -23h-246q-17 0 -24 11.5zM371 1722q0 62 44 106.5t106 44.5q63 0 107 -44t44 -107q0 -61 -44 -105.5 t-107 -44.5q-62 0 -106 44.5t-44 105.5zM587 462h348l-173 373zM857 1722q0 63 44 107t106 44t106.5 -44.5t44.5 -106.5q0 -60 -45 -105t-106 -45t-105.5 45t-44.5 105z" />
<glyph unicode="&#xc5;" horiz-adv-x="1522" d="M75 11.5q-7 11.5 0 28.5l652 1340q10 17 26 17h18q16 0 26 -17l650 -1340q9 -17 2.5 -28.5t-24.5 -11.5h-247q-24 0 -36 23l-82 173h-597l-81 -173q-12 -23 -37 -23h-246q-17 0 -24 11.5zM547 1664q0 90 64 153.5t153 63.5t153 -63.5t64 -153.5q0 -88 -64 -151.5 t-153 -63.5t-153 63.5t-64 151.5zM587 462h348l-173 373zM686 1664q0 -31 23 -53.5t55 -22.5t55 22.5t23 53.5q0 32 -23 56t-55 24t-55 -24t-23 -56z" />
<glyph unicode="&#xc6;" horiz-adv-x="2027" d="M74 11.5q-8 11.5 2 28.5l809 1315q21 33 44 33h949q14 0 25 -10t11 -24v-207q0 -16 -10 -25t-26 -9h-588v-297h312q14 0 25 -10.5t11 -24.5v-205q0 -16 -10 -26t-26 -10h-311v-264h587q14 0 25 -10.5t11 -24.5v-205q0 -16 -10 -26t-26 -10h-847q-16 0 -26.5 10t-10.5 26 v132h-496l-90 -145q-14 -23 -38 -23h-269q-19 0 -27 11.5zM672 444h322v519z" />
<glyph unicode="&#xc7;" horiz-adv-x="1390" d="M78 693q0 144 56 275.5t150.5 226t225.5 150.5t274 56q149 0 284 -59.5t232 -164.5q26 -26 -2 -49l-180 -149q-24 -20 -49 2q-129 133 -290 133q-106 0 -199 -57.5t-148 -155t-55 -208.5q0 -171 119.5 -295t282.5 -124q158 0 287 129q23 23 48 1l179 -145q27 -25 3 -49 q-181 -193 -439 -219l-50 -106q82 -15 137.5 -77t55.5 -145q0 -92 -70 -159.5t-165 -67.5q-100 0 -166 78q-11 14 2 28l69 69q12 12 28 0q34 -24 67 -24q36 0 56.5 21.5t20.5 54.5q0 31 -21 53t-56 22q-41 0 -72 -31q-16 -16 -30 -2l-73 68q-9 9 -3 22l1 4l98 196 q-127 18 -239 79.5t-193.5 153t-128.5 212.5t-47 253z" />
<glyph unicode="&#xc8;" horiz-adv-x="1162" d="M130 36v1318q0 14 10 24t25 10h849q14 0 25 -10t11 -24v-207q0 -16 -10 -25t-26 -9h-589v-297h313q14 0 25 -10.5t11 -24.5v-205q0 -16 -10 -26t-26 -10h-311v-264h587q14 0 25 -10.5t11 -24.5v-205q0 -16 -10 -26t-26 -10h-847q-16 0 -26.5 10t-10.5 26zM341 1655.5 q-4 15.5 6 33.5l94 154q9 14 25.5 14.5t28.5 -10.5l336 -224q9 -6 12 -17t-3 -25l-62 -107q-13 -27 -51 -11l-369 170q-13 7 -17 22.5z" />
<glyph unicode="&#xc9;" horiz-adv-x="1162" d="M130 36v1318q0 14 10 24t25 10h849q14 0 25 -10t11 -24v-207q0 -16 -10 -25t-26 -9h-589v-297h313q14 0 25 -10.5t11 -24.5v-205q0 -16 -10 -26t-26 -10h-311v-264h587q14 0 25 -10.5t11 -24.5v-205q0 -16 -10 -26t-26 -10h-847q-16 0 -26.5 10t-10.5 26zM346 1613 q3 11 12 17l336 224q12 11 28.5 10.5t25.5 -14.5l94 -154q10 -18 6 -33.5t-17 -22.5l-369 -170q-38 -16 -51 10l-62 108q-6 14 -3 25z" />
<glyph unicode="&#xca;" horiz-adv-x="1162" d="M130 36v1318q0 14 10 24t25 10h849q14 0 25 -10t11 -24v-207q0 -16 -10 -25t-26 -9h-589v-297h313q14 0 25 -10.5t11 -24.5v-205q0 -16 -10 -26t-26 -10h-311v-264h587q14 0 25 -10.5t11 -24.5v-205q0 -16 -10 -26t-26 -10h-847q-16 0 -26.5 10t-10.5 26zM241 1498v144 q0 20 23 33l305 186q24 12 45 0l306 -186q24 -14 24 -33v-144q0 -25 -18 -33t-46 5l-288 127l-288 -127q-27 -13 -45 -5t-18 33z" />
<glyph unicode="&#xcb;" horiz-adv-x="1162" d="M130 36v1318q0 14 10 24t25 10h849q14 0 25 -10t11 -24v-207q0 -16 -10 -25t-26 -9h-589v-297h313q14 0 25 -10.5t11 -24.5v-205q0 -16 -10 -26t-26 -10h-311v-264h587q14 0 25 -10.5t11 -24.5v-205q0 -16 -10 -26t-26 -10h-847q-16 0 -26.5 10t-10.5 26zM200 1687 q0 62 43.5 106.5t105.5 44.5q63 0 107 -44t44 -107q0 -61 -44 -105t-107 -44q-62 0 -105.5 44t-43.5 105zM686 1687q0 63 43.5 107t105.5 44t106.5 -44.5t44.5 -106.5q0 -60 -45 -104.5t-106 -44.5t-105 44.5t-44 104.5z" />
<glyph unicode="&#xcc;" horiz-adv-x="567" d="M33.5 1657q3.5 -15 16.5 -22l370 -170q38 -16 50 10l63 108q6 14 3 25t-12 17l-337 223q-12 11 -28 11t-25 -14l-94 -155q-10 -18 -6.5 -33zM139 36q0 -16 10 -26t26 -10h219q14 0 24.5 11t10.5 25v1318q0 14 -11 24t-26 10h-218q-16 0 -25.5 -10t-9.5 -24v-1318z" />
<glyph unicode="&#xcd;" horiz-adv-x="567" d="M43 1590l63 -108q12 -26 50 -10l370 170q13 7 16.5 22t-6.5 33l-93 155q-9 14 -25.5 14t-28.5 -11l-337 -224q-23 -16 -9 -41zM139 36q0 -16 10 -26t26 -10h219q14 0 24.5 11t10.5 25v1318q0 14 -11 24t-26 10h-218q-16 0 -25.5 -10t-9.5 -24v-1318z" />
<glyph unicode="&#xce;" horiz-adv-x="567" d="M-64 1500q0 -25 17.5 -33t44.5 5l288 126l288 -126q28 -13 46.5 -5t18.5 33v144q0 18 -25 33l-305 185q-21 12 -45 0l-306 -185q-22 -13 -22 -33v-144zM139 36q0 -16 10 -26t26 -10h219q14 0 24.5 11t10.5 25v1318q0 14 -11 24t-26 10h-218q-16 0 -25.5 -10t-9.5 -24 v-1318z" />
<glyph unicode="&#xcf;" horiz-adv-x="567" d="M-108 1689q0 62 44 106.5t106 44.5q63 0 107 -44t44 -107q0 -61 -44 -105.5t-107 -44.5q-62 0 -106 44.5t-44 105.5zM139 36q0 -16 10 -26t26 -10h219q14 0 24.5 11t10.5 25v1318q0 14 -11 24t-26 10h-218q-16 0 -25.5 -10t-9.5 -24v-1318zM378 1689q0 63 44 107t106 44 t106.5 -44.5t44.5 -106.5q0 -60 -45 -105t-106 -45t-105.5 45t-44.5 105z" />
<glyph unicode="&#xd0;" horiz-adv-x="1426" d="M35 592v205q0 15 10.5 25.5t25.5 10.5h50v521q0 14 9.5 24t25.5 10h462q131 0 247 -40.5t199.5 -108.5t144.5 -157t91.5 -187t30.5 -196q0 -140 -49 -266t-138 -222.5t-225.5 -153.5t-300.5 -57h-460q-16 0 -26.5 10t-10.5 26v521h-50q-15 0 -25.5 10t-10.5 25zM420 290 h196q125 0 220.5 60t143 152.5t47.5 198.5q0 79 -27.5 150t-78.5 126.5t-130 88.5t-175 33h-196v-266h182q14 0 24.5 -10.5t10.5 -24.5v-204q0 -16 -10.5 -26.5t-24.5 -10.5h-182v-267z" />
<glyph unicode="&#xd1;" horiz-adv-x="1471" d="M130 36v1318q0 14 10.5 24t24.5 10h132q24 0 50 -26l700 -798v790q0 15 9.5 24.5t24.5 9.5h224q15 0 26 -10t11 -24v-1319q0 -14 -10.5 -24.5t-24.5 -10.5h-75q-80 0 -175 108l-632 704v-776q0 -14 -11 -24t-25 -10l-222 -2q-16 0 -26.5 10t-10.5 26zM343 1631 q1 -14 9 -22l84 -96q9 -11 22 -10.5t23 12.5q54 63 118 63q40 0 73.5 -14.5t54.5 -31.5t59 -31.5t85 -14.5q21 0 42 3.5t39 9t36 13.5t32 16.5t28.5 19t24 18.5t20.5 18.5t16 16t12 13.5l7 7q22 22 2 49l-76 104q-25 27 -54 0q-66 -61 -137 -61q-39 0 -80.5 23.5t-88 47.5 t-97.5 24q-26 0 -52 -6t-46.5 -15.5t-41 -23t-34.5 -26t-28 -27.5t-21.5 -24.5t-15.5 -19.5l-7 -9q-9 -12 -8 -26z" />
<glyph unicode="&#xd2;" horiz-adv-x="1624" d="M104 696q0 -146 56 -277.5t151.5 -225.5t226.5 -149.5t276 -55.5q192 0 354 93.5t257 257t95 357.5q0 144 -56 274.5t-150.5 225t-225.5 150t-274 55.5q-144 0 -275.5 -55.5t-227 -150t-151.5 -225t-56 -274.5zM403 696q0 168 122.5 293t288.5 125q165 0 286.5 -125 t121.5 -293q0 -111 -55.5 -208.5t-150 -155.5t-202.5 -58q-166 0 -288.5 126t-122.5 296zM563 1669.5q4 -15.5 17 -22.5l369 -170q38 -16 51 10l62 108q7 13 3.5 24.5t-11.5 17.5l-337 224q-12 11 -28.5 10.5t-25.5 -14.5l-94 -154q-10 -18 -6 -33.5z" />
<glyph unicode="&#xd3;" horiz-adv-x="1624" d="M104 696q0 -146 56 -277.5t151.5 -225.5t226.5 -149.5t276 -55.5q192 0 354 93.5t257 257t95 357.5q0 144 -56 274.5t-150.5 225t-225.5 150t-274 55.5q-144 0 -275.5 -55.5t-227 -150t-151.5 -225t-56 -274.5zM403 696q0 168 122.5 293t288.5 125q165 0 286.5 -125 t121.5 -293q0 -111 -55.5 -208.5t-150 -155.5t-202.5 -58q-166 0 -288.5 126t-122.5 296zM568 1627q-3 -11 3 -25l62 -108q13 -26 51 -10l370 170q13 7 16.5 22.5t-6.5 33.5l-94 154q-9 14 -25.5 14t-28.5 -11l-336 -223q-9 -6 -12 -17z" />
<glyph unicode="&#xd4;" horiz-adv-x="1624" d="M104 696q0 -146 56 -277.5t151.5 -225.5t226.5 -149.5t276 -55.5q192 0 354 93.5t257 257t95 357.5q0 144 -56 274.5t-150.5 225t-225.5 150t-274 55.5q-144 0 -275.5 -55.5t-227 -150t-151.5 -225t-56 -274.5zM403 696q0 168 122.5 293t288.5 125q165 0 286.5 -125 t121.5 -293q0 -111 -55.5 -208.5t-150 -155.5t-202.5 -58q-166 0 -288.5 126t-122.5 296zM463 1512q0 -25 18 -33t45 5l288 127l288 -127q28 -13 46 -5t18 33v144q0 19 -24 33l-305 185q-21 12 -46 0l-305 -185q-23 -13 -23 -33v-144z" />
<glyph unicode="&#xd5;" horiz-adv-x="1624" d="M104 696q0 -146 56 -277.5t151.5 -225.5t226.5 -149.5t276 -55.5q192 0 354 93.5t257 257t95 357.5q0 144 -56 274.5t-150.5 225t-225.5 150t-274 55.5q-144 0 -275.5 -55.5t-227 -150t-151.5 -225t-56 -274.5zM403 696q0 168 122.5 293t288.5 125q165 0 286.5 -125 t121.5 -293q0 -111 -55.5 -208.5t-150 -155.5t-202.5 -58q-166 0 -288.5 126t-122.5 296zM421 1650.5q1 -14.5 9 -22.5l84 -95q9 -11 22 -11t23 12q54 63 118 63q40 0 73.5 -14.5t54.5 -31.5t59 -31.5t85 -14.5q21 0 42 3.5t39 9t36 13.5t32 16.5t28.5 19t24 18.5t20.5 18.5 t16 16t12 12.5l7 8q22 22 2 49l-76 104q-25 27 -54 0q-66 -61 -137 -61q-31 0 -64.5 15t-59 33t-64 33t-78.5 15q-26 0 -52 -6t-46.5 -15.5t-41 -23t-34.5 -26t-28 -27.5t-21.5 -24.5t-15.5 -19.5l-7 -9q-9 -12 -8 -26.5z" />
<glyph unicode="&#xd6;" horiz-adv-x="1624" d="M104 696q0 -146 56 -277.5t151.5 -225.5t226.5 -149.5t276 -55.5q192 0 354 93.5t257 257t95 357.5q0 144 -56 274.5t-150.5 225t-225.5 150t-274 55.5q-144 0 -275.5 -55.5t-227 -150t-151.5 -225t-56 -274.5zM403 696q0 168 122.5 293t288.5 125q165 0 286.5 -125 t121.5 -293q0 -111 -55.5 -208.5t-150 -155.5t-202.5 -58q-166 0 -288.5 126t-122.5 296zM422 1701q0 62 43.5 106.5t105.5 44.5q63 0 107 -44t44 -107q0 -61 -44 -105t-107 -44q-62 0 -105.5 44t-43.5 105zM908 1701q0 63 43.5 107t105.5 44t106.5 -44.5t44.5 -106.5 q0 -60 -45 -104.5t-106 -44.5t-105 44.5t-44 104.5z" />
<glyph unicode="&#xd7;" horiz-adv-x="1032" d="M116 411q-26 26 0 52l214 214l-214 213q-26 26 0 52l134 136q27 22 52 0l215 -214l214 214q27 23 50 0l135 -136q26 -26 2 -50l-215 -215l215 -215q11 -11 11.5 -25t-11.5 -26l-135 -135q-26 -26 -52 0l-214 215l-215 -215q-25 -25 -50 0z" />
<glyph unicode="&#xd8;" horiz-adv-x="1711" d="M116 113q-26 26 0 48l148 148q-115 175 -115 387q0 144 56 274.5t151 225t226.5 150t276.5 55.5q209 0 382 -113l154 154q23 26 49 0l156 -156q23 -23 0 -49l-153 -152q119 -176 119 -389q0 -146 -56 -277.5t-151 -225.5t-225.5 -149.5t-274.5 -55.5q-217 0 -392 116 l-146 -147q-25 -22 -50 0zM448 696q0 -90 34 -167l545 545q-80 40 -170 40q-166 0 -287.5 -125t-121.5 -293zM682 318q85 -44 175 -44q166 0 288 126t122 296q0 92 -36 170z" />
<glyph unicode="&#xd9;" horiz-adv-x="1353" d="M121 503q2 -226 149 -370.5t403 -144.5q129 0 235.5 39.5t176.5 108.5t108.5 163.5t38.5 203.5v851q0 17 -9 26.5t-24 9.5h-227q-35 0 -35 -36v-825q0 -116 -66.5 -187t-197.5 -71q-129 0 -192.5 70.5t-63.5 187.5v825q0 16 -9.5 26t-23.5 10h-226q-16 0 -26.5 -10 t-10.5 -26v-851zM427.5 1653.5q3.5 -15.5 16.5 -22.5l370 -170q37 -16 50 11l63 107q6 14 3 25t-12 17l-337 224q-12 11 -28 10.5t-25 -14.5l-94 -154q-10 -18 -6.5 -33.5z" />
<glyph unicode="&#xda;" horiz-adv-x="1353" d="M121 503q2 -226 149 -370.5t403 -144.5q129 0 235.5 39.5t176.5 108.5t108.5 163.5t38.5 203.5v851q0 17 -9 26.5t-24 9.5h-227q-35 0 -35 -36v-825q0 -116 -66.5 -187t-197.5 -71q-129 0 -192.5 70.5t-63.5 187.5v825q0 16 -9.5 26t-23.5 10h-226q-16 0 -26.5 -10 t-10.5 -26v-851zM432.5 1610.5q-3.5 -11.5 3.5 -24.5l62 -107q13 -27 50 -11l370 170q13 7 17 22.5t-6 33.5l-94 154q-9 14 -25.5 14.5t-28.5 -10.5l-337 -224q-8 -6 -11.5 -17.5z" />
<glyph unicode="&#xdb;" horiz-adv-x="1353" d="M121 503q2 -226 149 -370.5t403 -144.5q129 0 235.5 39.5t176.5 108.5t108.5 163.5t38.5 203.5v851q0 17 -9 26.5t-24 9.5h-227q-35 0 -35 -36v-825q0 -116 -66.5 -187t-197.5 -71q-129 0 -192.5 70.5t-63.5 187.5v825q0 16 -9.5 26t-23.5 10h-226q-16 0 -26.5 -10 t-10.5 -26v-851zM328 1496q0 -25 18 -33t45 5l288 127l288 -127q29 -13 46.5 -5t17.5 33v144q0 19 -24 33l-306 186q-21 12 -45 0l-305 -186q-23 -13 -23 -33v-144z" />
<glyph unicode="&#xdc;" horiz-adv-x="1353" d="M121 503q2 -226 149 -370.5t403 -144.5q129 0 235.5 39.5t176.5 108.5t108.5 163.5t38.5 203.5v851q0 17 -9 26.5t-24 9.5h-227q-35 0 -35 -36v-825q0 -116 -66.5 -187t-197.5 -71q-129 0 -192.5 70.5t-63.5 187.5v825q0 16 -9.5 26t-23.5 10h-226q-16 0 -26.5 -10 t-10.5 -26v-851zM286 1685q0 62 44 106.5t106 44.5q63 0 107 -44t44 -107q0 -61 -44 -105t-107 -44q-62 0 -106 44.5t-44 104.5zM772 1685q0 63 44 107t106 44t106.5 -44.5t44.5 -106.5q0 -60 -45 -104.5t-106 -44.5t-105.5 44.5t-44.5 104.5z" />
<glyph unicode="&#xdd;" horiz-adv-x="1348" d="M29 1375.5q7 12.5 23 12.5h273q3 0 6.5 -1t6 -1.5t5 -3l4 -4t4 -5.5t4 -5.5t4.5 -6.5t4 -7l310 -481l311 481q21 34 40 34h274q15 0 21.5 -12.5t-2.5 -26.5l-494 -761v-552q0 -17 -9 -26.5t-24 -9.5h-172q-42 0 -66 26t-24 68v491l-497 764q-9 14 -2 26.5zM432 1592 l63 -108q12 -26 50 -10l370 170q13 7 16.5 22t-6.5 33l-94 155q-9 14 -25 14t-28 -11l-337 -224q-23 -16 -9 -41z" />
<glyph unicode="&#xde;" horiz-adv-x="1194" d="M121 36v1318q0 14 9.5 24t25.5 10h222q15 0 26 -10t11 -24v-200h274q95 0 181 -41t144.5 -106.5t93 -145.5t34.5 -158q0 -85 -34.5 -169t-93.5 -149.5t-144.5 -106t-180.5 -40.5h-274v-202q0 -14 -10.5 -25t-24.5 -11h-222q-16 0 -26.5 10t-10.5 26zM415 514h267 q53 0 91.5 26.5t56.5 66.5t18 86.5t-17 86.5t-56.5 66.5t-92.5 26.5h-267v-359z" />
<glyph unicode="&#xdf;" horiz-adv-x="1136" d="M87 36l2 886q0 205 129 338.5t329 133.5q121 0 224.5 -53t164.5 -144t62 -199q0 -89 -34.5 -150t-133.5 -114q104 -44 166.5 -137.5t62.5 -202.5q0 -102 -60 -194t-157 -146t-203 -54h-45q-39 0 -39 35v168q0 34 39 37q190 13 190 177q0 82 -66.5 131t-162.5 49v174 q0 34 25 41l45 11q57 13 78.5 51.5t21.5 104.5q0 62 -50 99.5t-123 37.5q-81 0 -132.5 -54.5t-51.5 -158.5l-2 -867q0 -14 -10.5 -25t-24.5 -11h-208q-16 0 -26 10t-10 26z" />
<glyph unicode="&#xe0;" d="M78 234q0 -115 76.5 -179t213.5 -64q92 0 151 22t106 67q16 -80 71 -80h153q15 0 22 12.5t5 30.5q-32 231 -17 511q7 149 -85 232.5t-243 83.5q-105 0 -205.5 -25.5t-172.5 -61.5q-37 -21 -23 -52l57 -141q14 -32 49 -19q161 68 250 68q50 0 74 -15.5t23 -52.5 q-97 -17 -169.5 -35.5t-138 -46t-107.5 -62.5t-66 -83.5t-24 -109.5zM249 1207.5q4 -15.5 17 -22.5l369 -170q38 -16 51 11l62 107q6 14 3 25t-12 17l-336 224q-12 11 -28.5 10.5t-25.5 -14.5l-94 -154q-10 -18 -6 -33.5zM352 245q0 67 229 113q-4 -54 0 -101 q-31 -28 -75 -43.5t-84 -15.5q-70 0 -70 47z" />
<glyph unicode="&#xe1;" d="M78 234q0 -115 76.5 -179t213.5 -64q92 0 151 22t106 67q16 -80 71 -80h153q15 0 22 12.5t5 30.5q-32 231 -17 511q7 149 -85 232.5t-243 83.5q-105 0 -205.5 -25.5t-172.5 -61.5q-37 -21 -23 -52l57 -141q14 -32 49 -19q161 68 250 68q50 0 74 -15.5t23 -52.5 q-97 -17 -169.5 -35.5t-138 -46t-107.5 -62.5t-66 -83.5t-24 -109.5zM254 1165q-3 -11 3 -25l62 -107q13 -27 51 -11l369 170q13 7 17 22.5t-6 33.5l-94 154q-9 14 -25.5 14.5t-28.5 -10.5l-336 -224q-9 -6 -12 -17zM352 245q0 67 229 113q-4 -54 0 -101q-31 -28 -75 -43.5 t-84 -15.5q-70 0 -70 47z" />
<glyph unicode="&#xe2;" d="M78 234q0 -115 76.5 -179t213.5 -64q92 0 151 22t106 67q16 -80 71 -80h153q15 0 22 12.5t5 30.5q-32 231 -17 511q7 149 -85 232.5t-243 83.5q-105 0 -205.5 -25.5t-172.5 -61.5q-37 -21 -23 -52l57 -141q14 -32 49 -19q161 68 250 68q50 0 74 -15.5t23 -52.5 q-97 -17 -169.5 -35.5t-138 -46t-107.5 -62.5t-66 -83.5t-24 -109.5zM151 1050q0 -25 17.5 -33t44.5 5l289 127l288 -127q28 -13 46 -5t18 33v144q0 19 -24 33l-306 186q-21 12 -45 0l-305 -186q-23 -13 -23 -33v-144zM352 245q0 67 229 113q-4 -54 0 -101 q-31 -28 -75 -43.5t-84 -15.5q-70 0 -70 47z" />
<glyph unicode="&#xe3;" d="M78 234q0 -115 76.5 -179t213.5 -64q92 0 151 22t106 67q16 -80 71 -80h153q15 0 22 12.5t5 30.5q-32 231 -17 511q7 149 -85 232.5t-243 83.5q-105 0 -205.5 -25.5t-172.5 -61.5q-37 -21 -23 -52l57 -141q14 -32 49 -19q161 68 250 68q50 0 74 -15.5t23 -52.5 q-97 -17 -169.5 -35.5t-138 -46t-107.5 -62.5t-66 -83.5t-24 -109.5zM107 1188.5q1 -14.5 9 -22.5l84 -95q9 -11 22 -10.5t23 12.5q53 62 118 62q40 0 73.5 -14.5t54.5 -31.5t59 -31.5t85 -14.5q21 0 42 3.5t39 9t36 13.5t32 16.5t28.5 19t24 18.5t20.5 18.5t16 16t12 12.5 l7 8q22 22 2 49l-77 104q-25 26 -53 0q-66 -61 -137 -61q-31 0 -64.5 15t-59 33t-64 33t-78.5 15q-26 0 -52 -6t-46.5 -15.5t-41 -23t-34.5 -26t-28 -27.5t-21.5 -24.5t-15.5 -19.5l-7 -9q-9 -12 -8 -26.5zM352 245q0 67 229 113q-4 -54 0 -101q-31 -28 -75 -43.5t-84 -15.5 q-70 0 -70 47z" />
<glyph unicode="&#xe4;" d="M78 234q0 -115 76.5 -179t213.5 -64q92 0 151 22t106 67q16 -80 71 -80h153q15 0 22 12.5t5 30.5q-32 231 -17 511q7 149 -85 232.5t-243 83.5q-105 0 -205.5 -25.5t-172.5 -61.5q-37 -21 -23 -52l57 -141q14 -32 49 -19q161 68 250 68q50 0 74 -15.5t23 -52.5 q-97 -17 -169.5 -35.5t-138 -46t-107.5 -62.5t-66 -83.5t-24 -109.5zM108 1239q0 62 43.5 106.5t105.5 44.5q63 0 107 -44t44 -107q0 -61 -44 -105t-107 -44q-62 0 -105.5 44t-43.5 105zM352 245q0 67 229 113q-4 -54 0 -101q-31 -28 -75 -43.5t-84 -15.5q-70 0 -70 47z M594 1239q0 63 43.5 107t105.5 44t106.5 -44.5t44.5 -106.5q0 -60 -45 -104.5t-106 -44.5t-105 44.5t-44 104.5z" />
<glyph unicode="&#xe5;" d="M78 234q0 -115 76.5 -179t213.5 -64q92 0 151 22t106 67q16 -80 71 -80h153q15 0 22 12.5t5 30.5q-32 231 -17 511q7 149 -85 232.5t-243 83.5q-105 0 -205.5 -25.5t-172.5 -61.5q-37 -21 -23 -52l57 -141q14 -32 49 -19q161 68 250 68q50 0 74 -15.5t23 -52.5 q-97 -17 -169.5 -35.5t-138 -46t-107.5 -62.5t-66 -83.5t-24 -109.5zM283 1182q0 90 64 153.5t153 63.5t153 -63.5t64 -153.5q0 -88 -64 -151.5t-153 -63.5t-153 63.5t-64 151.5zM352 245q0 67 229 113q-4 -54 0 -101q-31 -28 -75 -43.5t-84 -15.5q-70 0 -70 47zM422 1182 q0 -31 23 -53.5t55 -22.5t55 22.5t23 53.5q0 32 -23 56t-55 24t-55 -24t-23 -56z" />
<glyph unicode="&#xe6;" horiz-adv-x="1499" d="M78 234q0 61 24 109.5t66 83.5t107.5 62.5t138 46t169.5 35.5q1 37 -23 52.5t-74 15.5q-89 0 -250 -68q-35 -13 -49 19l-57 141q-14 31 23 52q72 36 172.5 61.5t205.5 25.5q145 0 236 -77q110 78 248 78q125 0 222.5 -58.5t147 -149t49.5 -193.5q0 -62 -37 -97t-101 -35 h-435q15 -54 69.5 -84t124.5 -30q115 0 212 43q16 8 30.5 6t26.5 -20l45 -66q21 -28 0 -53q-103 -143 -338 -143q-82 0 -158 26q-5 -17 -24 -17h-153q-55 0 -71 80q-47 -45 -106 -67t-151 -22q-137 0 -213.5 64t-76.5 179zM352 245q0 -47 70 -47q40 0 84 15.5t75 43.5 q-4 47 0 101q-229 -46 -229 -113zM861 536h302q-8 35 -48.5 63t-102.5 28q-60 0 -102 -28t-49 -63z" />
<glyph unicode="&#xe7;" horiz-adv-x="892" d="M69 427q0 124 61.5 226.5t165.5 160t225 57.5q163 0 290 -111q24 -21 3 -50l-106 -132q-21 -25 -55 -4q-48 33 -124 33q-75 0 -128.5 -51t-53.5 -127q0 -75 53.5 -127t128.5 -52q71 0 125 36q32 22 54 -7l101 -137q22 -27 -4 -50q-109 -89 -244 -102l-49 -105 q82 -15 137.5 -77t55.5 -145q0 -92 -70 -159.5t-165 -67.5q-100 0 -166 78q-11 14 1 28l70 69q12 12 28 0q35 -24 67 -24q36 0 56.5 21.5t20.5 54.5q0 31 -21 53t-56 22q-42 0 -73 -31q-15 -15 -29 -2l-73 68q-9 9 -3 22l1 4l99 201h23q-150 34 -248 152t-98 275z" />
<glyph unicode="&#xe8;" horiz-adv-x="977" d="M64 430q0 -193 130 -316t318 -123q234 0 337 143q21 25 0 53l-44 66q-20 30 -57 14q-101 -43 -212 -43q-71 0 -125.5 30t-68.5 84h434q64 0 100.5 35t36.5 97q0 103 -49 193.5t-146 149t-222 58.5q-183 0 -307.5 -128t-124.5 -313zM247 1204q4 -15 17 -22l369 -170 q38 -16 51 10l62 108q7 13 3.5 24.5t-11.5 17.5l-337 223q-12 11 -28.5 11t-25.5 -14l-94 -155q-10 -18 -6 -33zM340 536q8 35 50 63t103 28t102 -28t47 -63h-302z" />
<glyph unicode="&#xe9;" horiz-adv-x="977" d="M64 430q0 -193 130 -316t318 -123q234 0 337 143q21 25 0 53l-44 66q-20 30 -57 14q-101 -43 -212 -43q-71 0 -125.5 30t-68.5 84h434q64 0 100.5 35t36.5 97q0 103 -49 193.5t-146 149t-222 58.5q-183 0 -307.5 -128t-124.5 -313zM255 1137l63 -108q12 -26 50 -10 l370 170q13 7 16.5 22t-6.5 33l-94 155q-9 14 -25 14t-28 -11l-337 -224q-23 -16 -9 -41zM340 536q8 35 50 63t103 28t102 -28t47 -63h-302z" />
<glyph unicode="&#xea;" horiz-adv-x="977" d="M64 430q0 -193 130 -316t318 -123q234 0 337 143q21 25 0 53l-44 66q-20 30 -57 14q-101 -43 -212 -43q-71 0 -125.5 30t-68.5 84h434q64 0 100.5 35t36.5 97q0 103 -49 193.5t-146 149t-222 58.5q-183 0 -307.5 -128t-124.5 -313zM148 1047q0 -25 17.5 -33t44.5 5 l288 126l288 -126q28 -13 46 -5t18 33v144q0 19 -24 33l-305 185q-21 12 -45 0l-306 -185q-22 -13 -22 -33v-144zM340 536q8 35 50 63t103 28t102 -28t47 -63h-302z" />
<glyph unicode="&#xeb;" horiz-adv-x="977" d="M64 430q0 -193 130 -316t318 -123q234 0 337 143q21 25 0 53l-44 66q-20 30 -57 14q-101 -43 -212 -43q-71 0 -125.5 30t-68.5 84h434q64 0 100.5 35t36.5 97q0 103 -49 193.5t-146 149t-222 58.5q-183 0 -307.5 -128t-124.5 -313zM106 1236q0 62 43.5 106.5t105.5 44.5 q63 0 107 -44t44 -107q0 -61 -44 -105.5t-107 -44.5q-62 0 -105.5 44.5t-43.5 105.5zM340 536q8 35 50 63t103 28t102 -28t47 -63h-302zM592 1236q0 63 43.5 107t105.5 44t106.5 -44.5t44.5 -106.5q0 -60 -45 -105t-106 -45t-105 45t-44 105z" />
<glyph unicode="&#xec;" horiz-adv-x="546" d="M25 1207.5q4 -15.5 17 -22.5l369 -170q38 -16 51 11l62 107q6 14 3 25t-12 17l-336 224q-12 11 -28.5 10.5t-25.5 -14.5l-94 -154q-10 -18 -6 -33.5zM130 94q0 -42 24 -68t66 -26h164q15 0 24 9.5t9 26.5v788q0 14 -10.5 24.5t-24.5 10.5h-217q-15 0 -25 -10t-10 -25 v-730z" />
<glyph unicode="&#xed;" horiz-adv-x="546" d="M30 1165q-3 -11 3 -25l62 -107q13 -27 51 -11l369 170q13 7 17 22.5t-6 33.5l-94 154q-9 14 -25.5 14.5t-28.5 -10.5l-336 -224q-9 -6 -12 -17zM130 94q0 -42 24 -68t66 -26h164q15 0 24 9.5t9 26.5v788q0 14 -10.5 24.5t-24.5 10.5h-217q-15 0 -25 -10t-10 -25v-730z " />
<glyph unicode="&#xee;" horiz-adv-x="546" d="M-75 1050q0 -25 18 -33t45 5l288 127l288 -127q28 -13 46 -5t18 33v144q0 19 -24 33l-305 186q-21 12 -46 0l-305 -186q-23 -13 -23 -33v-144zM130 94q0 -42 24 -68t66 -26h164q15 0 24 9.5t9 26.5v788q0 14 -10.5 24.5t-24.5 10.5h-217q-15 0 -25 -10t-10 -25v-730z" />
<glyph unicode="&#xef;" horiz-adv-x="546" d="M-116 1239q0 62 43.5 106.5t105.5 44.5q63 0 107 -44t44 -107q0 -61 -44 -105t-107 -44q-62 0 -105.5 44t-43.5 105zM130 94q0 -42 24 -68t66 -26h164q15 0 24 9.5t9 26.5v788q0 14 -10.5 24.5t-24.5 10.5h-217q-15 0 -25 -10t-10 -25v-730zM370 1239q0 63 43.5 107 t105.5 44t106.5 -44.5t44.5 -106.5q0 -60 -45 -104.5t-106 -44.5t-105 44.5t-44 104.5z" />
<glyph unicode="&#xf0;" horiz-adv-x="1037" d="M69 420q0 177 128 297t310 120q78 0 166 -44q-27 115 -99 189l-118 -64q-31 -16 -48 14l-23 38q-15 32 16 49l68 38q-63 28 -151 31q-17 0 -26.5 10t-8.5 27l22 210q3 34 37 34q218 -9 390 -168l91 50q29 17 47 -12l24 -41q7 -13 3 -27t-17 -22l-66 -36l7 -9 q75 -102 111.5 -242.5t34.5 -285.5q0 -269 -129 -428.5t-333 -159.5q-118 0 -218.5 58t-159 157.5t-58.5 216.5zM356 417q0 -66 46.5 -114t109.5 -48q65 0 111 44.5t50 108.5q5 65 -44.5 117.5t-116.5 52.5q-62 0 -109 -48t-47 -113z" />
<glyph unicode="&#xf1;" horiz-adv-x="1065" d="M104 35v789q0 14 9.5 24.5t23.5 10.5h163q31 -18 68 -69q119 80 236 80q96 0 177 -40t131.5 -119.5t50.5 -184.5v-366q2 -64 14 -115q4 -18 -2 -31.5t-19 -13.5h-189q-42 0 -66 26t-24 66v382q0 61 -37 94t-92 33q-83 0 -157 -66v-500q0 -14 -10.5 -24.5t-24.5 -10.5 h-219q-14 0 -23.5 10.5t-9.5 24.5zM139 1188q-1 14 7 27l8 9q7 10 14.5 19.5t21.5 24.5t28 27.5t34.5 26t41 23t46.5 15.5t52 6q40 0 78.5 -15t64 -33t59 -33t64.5 -15q71 0 137 61q29 27 54 0l76 -104q20 -27 -2 -49l-7 -8q-7 -7 -12 -12.5t-16 -16t-20.5 -18.5t-24 -18.5 t-28.5 -19t-32 -16.5t-36 -13.5t-39 -9t-42 -3.5q-47 0 -85 14.5t-59 31.5t-54.5 31.5t-73.5 14.5q-65 0 -118 -62q-10 -12 -23 -12.5t-22 10.5l-83 95q-8 8 -9 22z" />
<glyph unicode="&#xf2;" horiz-adv-x="1041" d="M69 429q0 -122 61.5 -224t165.5 -159.5t225 -57.5t224.5 57.5t165 159.5t61.5 224q0 124 -61.5 226t-165 159t-224.5 57q-186 0 -319 -127.5t-133 -314.5zM269.5 1207.5q3.5 -15.5 16.5 -22.5l370 -170q37 -16 50 11l63 107q6 14 3 25t-12 17l-337 224q-12 11 -28 10.5 t-25 -14.5l-94 -154q-10 -18 -6.5 -33.5zM344 427q0 73 51 126.5t126 53.5t126 -53.5t51 -126.5q0 -72 -51 -124.5t-126 -52.5t-126 52.5t-51 124.5z" />
<glyph unicode="&#xf3;" horiz-adv-x="1041" d="M69 429q0 -122 61.5 -224t165.5 -159.5t225 -57.5t224.5 57.5t165 159.5t61.5 224q0 124 -61.5 226t-165 159t-224.5 57q-186 0 -319 -127.5t-133 -314.5zM274.5 1164.5q-3.5 -11.5 3.5 -24.5l62 -107q13 -27 51 -11l369 170q13 7 17 22.5t-6 33.5l-94 154 q-9 14 -25.5 14.5t-28.5 -10.5l-337 -224q-8 -6 -11.5 -17.5zM344 427q0 73 51 126.5t126 53.5t126 -53.5t51 -126.5q0 -72 -51 -124.5t-126 -52.5t-126 52.5t-51 124.5z" />
<glyph unicode="&#xf4;" horiz-adv-x="1041" d="M69 429q0 -122 61.5 -224t165.5 -159.5t225 -57.5t224.5 57.5t165 159.5t61.5 224q0 124 -61.5 226t-165 159t-224.5 57q-186 0 -319 -127.5t-133 -314.5zM170 1050q0 -25 18 -33t45 5l288 127l288 -127q29 -13 46.5 -5t17.5 33v144q0 19 -24 33l-306 186q-21 12 -45 0 l-305 -186q-23 -13 -23 -33v-144zM344 427q0 73 51 126.5t126 53.5t126 -53.5t51 -126.5q0 -72 -51 -124.5t-126 -52.5t-126 52.5t-51 124.5z" />
<glyph unicode="&#xf5;" horiz-adv-x="1041" d="M69 429q0 -122 61.5 -224t165.5 -159.5t225 -57.5t224.5 57.5t165 159.5t61.5 224q0 124 -61.5 226t-165 159t-224.5 57q-186 0 -319 -127.5t-133 -314.5zM128 1188q1 -14 9 -22l83 -95q9 -11 22.5 -10.5t23.5 12.5q53 62 118 62q40 0 73.5 -14.5t54.5 -31.5t59 -31.5 t85 -14.5q21 0 42 3.5t39 9t36 13.5t32 16.5t28.5 19t24 18.5t20.5 18.5t16 16t12 12.5l7 8q22 22 2 49l-77 104q-25 27 -54 0q-66 -61 -137 -61q-39 0 -80.5 24t-87.5 48t-97 24q-26 0 -52 -6t-46.5 -15.5t-41 -23t-35 -26t-28.5 -27.5t-21.5 -24.5t-15.5 -19.5l-7 -9 q-8 -13 -7 -27zM344 427q0 73 51 126.5t126 53.5t126 -53.5t51 -126.5q0 -72 -51 -124.5t-126 -52.5t-126 52.5t-51 124.5z" />
<glyph unicode="&#xf6;" horiz-adv-x="1041" d="M69 429q0 -122 61.5 -224t165.5 -159.5t225 -57.5t224.5 57.5t165 159.5t61.5 224q0 124 -61.5 226t-165 159t-224.5 57q-186 0 -319 -127.5t-133 -314.5zM128 1239q0 62 44 106.5t106 44.5q63 0 107 -44t44 -107q0 -61 -44 -105t-107 -44q-62 0 -106 44.5t-44 104.5z M344 427q0 73 51 126.5t126 53.5t126 -53.5t51 -126.5q0 -72 -51 -124.5t-126 -52.5t-126 52.5t-51 124.5zM614 1239q0 63 44 107t106 44t106.5 -44.5t44.5 -106.5q0 -60 -45 -104.5t-106 -44.5t-105.5 44.5t-44.5 104.5z" />
<glyph unicode="&#xf7;" horiz-adv-x="1084" d="M87 566v168q0 16 10 26.5t26 10.5h840q15 0 25 -10t10 -25v-168q0 -14 -10.5 -25.5t-24.5 -11.5h-840q-14 0 -25 10.5t-11 24.5zM375 245q0 67 50.5 116.5t119.5 49.5q67 0 116 -49t49 -117q0 -69 -48.5 -118t-116.5 -49q-69 0 -119.5 49t-50.5 118zM375 1057 q0 69 50.5 118t119.5 49q68 0 116.5 -49t48.5 -118t-48.5 -118t-116.5 -49q-69 0 -119.5 49t-50.5 118z" />
<glyph unicode="&#xf8;" horiz-adv-x="1157" d="M95 40q-15 16 0 31l115 115q-73 112 -73 243q0 124 61 226t164.5 159t225.5 57q130 0 238 -66l109 110q18 15 33 0l94 -94q15 -15 0 -33l-104 -104q82 -112 82 -255q0 -122 -61.5 -224t-165.5 -159.5t-225 -57.5q-139 0 -251 74l-117 -116q-16 -16 -31 0zM411 427 q0 -15 4 -35l210 212q-15 3 -37 3q-76 0 -126.5 -53.5t-50.5 -126.5zM533 259q31 -9 55 -9q75 0 126 52.5t51 124.5q0 28 -8 55z" />
<glyph unicode="&#xf9;" horiz-adv-x="1056" d="M89 817q-4 18 2 32t18 14h190q42 0 66 -26t24 -66v-386q0 -62 36.5 -93.5t93.5 -31.5q79 0 156 77v487q0 14 10.5 24.5t24.5 10.5h219q14 0 23.5 -10.5t9.5 -24.5v-789q0 -14 -9.5 -24.5t-23.5 -10.5h-174q-26 21 -57 69q-112 -79 -236 -79q-147 0 -253.5 94t-106.5 249 v370q-3 68 -13 114zM266 1207.5q-4 15.5 6 33.5l94 154q9 14 25.5 14.5t28.5 -10.5l337 -224q8 -6 11.5 -17.5t-3.5 -24.5l-62 -107q-13 -27 -50 -11l-370 170q-13 7 -17 22.5z" />
<glyph unicode="&#xfa;" horiz-adv-x="1056" d="M89 817q-4 18 2 32t18 14h190q42 0 66 -26t24 -66v-386q0 -62 36.5 -93.5t93.5 -31.5q79 0 156 77v487q0 14 10.5 24.5t24.5 10.5h219q14 0 23.5 -10.5t9.5 -24.5v-789q0 -14 -9.5 -24.5t-23.5 -10.5h-174q-26 21 -57 69q-112 -79 -236 -79q-147 0 -253.5 94t-106.5 249 v370q-3 68 -13 114zM271 1165q3 11 12 17l337 224q12 11 28 10.5t25 -14.5l94 -154q10 -18 6.5 -33.5t-16.5 -22.5l-370 -170q-37 -16 -50 11l-63 107q-6 14 -3 25z" />
<glyph unicode="&#xfb;" horiz-adv-x="1056" d="M89 817q-4 18 2 32t18 14h190q42 0 66 -26t24 -66v-386q0 -62 36.5 -93.5t93.5 -31.5q79 0 156 77v487q0 14 10.5 24.5t24.5 10.5h219q14 0 23.5 -10.5t9.5 -24.5v-789q0 -14 -9.5 -24.5t-23.5 -10.5h-174q-26 21 -57 69q-112 -79 -236 -79q-147 0 -253.5 94t-106.5 249 v370q-3 68 -13 114zM168 1050v144q0 20 23 33l305 186q25 12 46 0l305 -186q24 -14 24 -33v-144q0 -25 -17.5 -33t-46.5 5l-288 127l-288 -127q-27 -13 -45 -5t-18 33z" />
<glyph unicode="&#xfc;" horiz-adv-x="1056" d="M89 817q-4 18 2 32t18 14h190q42 0 66 -26t24 -66v-386q0 -62 36.5 -93.5t93.5 -31.5q79 0 156 77v487q0 14 10.5 24.5t24.5 10.5h219q14 0 23.5 -10.5t9.5 -24.5v-789q0 -14 -9.5 -24.5t-23.5 -10.5h-174q-26 21 -57 69q-112 -79 -236 -79q-147 0 -253.5 94t-106.5 249 v370q-3 68 -13 114zM125 1239q0 62 43.5 106.5t105.5 44.5q63 0 107 -44t44 -107q0 -61 -44 -105t-107 -44q-62 0 -105.5 44t-43.5 105zM611 1239q0 63 43.5 107t105.5 44t106.5 -44.5t44.5 -106.5q0 -60 -45 -104.5t-106 -44.5t-105 44.5t-44 104.5z" />
<glyph unicode="&#xfd;" horiz-adv-x="1079" d="M47.5 847q7.5 12 25.5 12h232q28 0 42 -26l198 -401l187 401q11 26 42 26h229q20 0 28.5 -12t-0.5 -30l-332 -678q-135 -277 -238.5 -440t-167.5 -230q-27 -27 -67 9l-125 119q-35 32 1 73q191 217 301 484l-354 663q-9 18 -1.5 30zM307.5 1164.5q-3.5 -11.5 3.5 -24.5 l62 -107q13 -27 50 -11l370 170q13 7 17 22.5t-6 33.5l-94 154q-9 14 -25.5 14.5t-28.5 -10.5l-337 -224q-8 -6 -11.5 -17.5z" />
<glyph unicode="&#xfe;" horiz-adv-x="1072" d="M106 1343q-4 18 3.5 31.5t22.5 13.5h186q45 0 70 -24.5t25 -67.5v-479q87 49 194 49q168 0 284 -120.5t116 -308.5q0 -123 -51 -225t-145 -163t-212 -61q-107 0 -186 52v-434q0 -50 -39.5 -83t-85.5 -33h-125q-16 0 -26 10t-10 26v1682q0 23 -2.5 45t-5 34.5t-7 30.5 t-6.5 25zM413 283q70 -35 139 -35q75 0 127 51.5t52 137.5q0 81 -51.5 125t-118.5 44q-69 0 -148 -42v-281z" />
<glyph unicode="&#xff;" horiz-adv-x="1079" d="M47.5 847q7.5 12 25.5 12h232q28 0 42 -26l198 -401l187 401q11 26 42 26h229q20 0 28.5 -12t-0.5 -30l-332 -678q-135 -277 -238.5 -440t-167.5 -230q-27 -27 -67 9l-125 119q-35 32 1 73q191 217 301 484l-354 663q-9 18 -1.5 30zM160 1239q0 62 43.5 106.5t105.5 44.5 q63 0 107 -44t44 -107q0 -61 -44 -105t-107 -44q-62 0 -105.5 44t-43.5 105zM646 1239q0 63 43.5 107t105.5 44t106.5 -44.5t44.5 -106.5q0 -60 -45 -104.5t-106 -44.5t-105 44.5t-44 104.5z" />
<glyph unicode="&#x152;" horiz-adv-x="2414" d="M104 696q0 144 56 274.5t151.5 225t227 150t275.5 55.5q171 0 319.5 -76t246.5 -207v236q0 14 10 24t25 10h850q14 0 25 -10t11 -24v-207q0 -16 -10 -25t-26 -9h-590v-297h312q14 0 25.5 -10.5t11.5 -24.5v-205q0 -16 -10.5 -26t-26.5 -10h-310v-264h588q14 0 25 -10.5 t11 -24.5v-205q0 -16 -10 -26t-26 -10h-849q-16 0 -26 10t-10 26v235q-98 -131 -246.5 -207t-319.5 -76q-145 0 -276 55.5t-226.5 149.5t-151.5 225.5t-56 277.5zM403 696q0 -170 122.5 -296t288.5 -126q108 0 202.5 58t150 155.5t55.5 208.5q0 168 -121.5 293t-286.5 125 q-166 0 -288.5 -125t-122.5 -293z" />
<glyph unicode="&#x153;" horiz-adv-x="1603" d="M69 429q0 187 133 314.5t319 127.5q178 0 307 -118q123 118 297 118q125 0 221.5 -58.5t145.5 -149t49 -193.5q0 -62 -36.5 -97t-100.5 -35h-434q14 -54 69 -84t126 -30q110 0 211 43q38 16 58 -14l43 -66q21 -28 0 -53q-103 -143 -337 -143q-182 0 -310 117 q-131 -120 -309 -120q-121 0 -225 57.5t-165.5 159.5t-61.5 224zM344 427q0 -72 51 -124.5t126 -52.5q65 0 113 40.5t60 100.5q-1 7 -1 39l1 35q-13 60 -60.5 101t-112.5 41q-75 0 -126 -53.5t-51 -126.5zM968 536h302q-6 35 -47 63t-102 28t-103 -28t-50 -63z" />
<glyph unicode="&#x178;" horiz-adv-x="1348" d="M29 1375.5q7 12.5 23 12.5h273q3 0 6.5 -1t6 -1.5t5 -3l4 -4t4 -5.5t4 -5.5t4.5 -6.5t4 -7l310 -481l311 481q21 34 40 34h274q15 0 21.5 -12.5t-2.5 -26.5l-494 -761v-552q0 -17 -9 -26.5t-24 -9.5h-172q-42 0 -66 26t-24 68v491l-497 764q-9 14 -2 26.5zM281 1690 q0 62 43.5 106.5t105.5 44.5q63 0 107 -44t44 -107q0 -61 -44 -105t-107 -44q-62 0 -105.5 44t-43.5 105zM767 1690q0 63 43.5 107t105.5 44t106.5 -44.5t44.5 -106.5q0 -60 -45 -104.5t-106 -44.5t-105 44.5t-44 104.5z" />
<glyph unicode="&#x2c6;" horiz-adv-x="841" d="M69 1067q0 -25 18 -32.5t45 5.5l288 126l288 -126q28 -13 46 -5.5t18 32.5v144q0 19 -24 33l-305 186q-21 12 -46 0l-305 -186q-23 -13 -23 -33v-144z" />
<glyph unicode="&#x2dc;" horiz-adv-x="933" d="M69 1188q1 -14 9 -22l83 -95q9 -11 22.5 -10.5t23.5 12.5q53 62 118 62q40 0 73.5 -14.5t54.5 -31.5t59 -31.5t85 -14.5q21 0 42 3.5t39 9t36 13.5t32 16.5t28.5 19t24 18.5t20.5 18.5t16 16t12 12.5l7 8q22 22 2 49l-77 104q-25 27 -54 0q-66 -61 -137 -61 q-39 0 -80.5 24t-87.5 48t-97 24q-26 0 -52 -6t-46.5 -15.5t-41 -23t-35 -26t-28.5 -27.5t-21.5 -24.5t-14.5 -19.5l-8 -9q-8 -13 -7 -27z" />
<glyph unicode="&#x2000;" horiz-adv-x="950" />
<glyph unicode="&#x2001;" horiz-adv-x="1901" />
<glyph unicode="&#x2002;" horiz-adv-x="950" />
<glyph unicode="&#x2003;" horiz-adv-x="1901" />
<glyph unicode="&#x2004;" horiz-adv-x="633" />
<glyph unicode="&#x2005;" horiz-adv-x="475" />
<glyph unicode="&#x2006;" horiz-adv-x="316" />
<glyph unicode="&#x2007;" horiz-adv-x="316" />
<glyph unicode="&#x2008;" horiz-adv-x="237" />
<glyph unicode="&#x2009;" horiz-adv-x="380" />
<glyph unicode="&#x200a;" horiz-adv-x="105" />
<glyph unicode="&#x2010;" horiz-adv-x="728" d="M69 340v177q0 16 10.5 26.5t26.5 10.5h519q15 0 25 -10t10 -25v-177q0 -14 -10.5 -25.5t-24.5 -11.5h-519q-14 0 -25.5 10.5t-11.5 24.5z" />
<glyph unicode="&#x2011;" horiz-adv-x="728" d="M69 340v177q0 16 10.5 26.5t26.5 10.5h519q15 0 25 -10t10 -25v-177q0 -14 -10.5 -25.5t-24.5 -11.5h-519q-14 0 -25.5 10.5t-11.5 24.5z" />
<glyph unicode="&#x2012;" horiz-adv-x="728" d="M69 340v177q0 16 10.5 26.5t26.5 10.5h519q15 0 25 -10t10 -25v-177q0 -14 -10.5 -25.5t-24.5 -11.5h-519q-14 0 -25.5 10.5t-11.5 24.5z" />
<glyph unicode="&#x2013;" horiz-adv-x="1216" d="M139 460v135q0 16 10 26.5t26 10.5h868q15 0 25 -10t10 -25v-135q0 -14 -10.5 -25.5t-24.5 -11.5h-868q-14 0 -25 10.5t-11 24.5z" />
<glyph unicode="&#x2014;" horiz-adv-x="1603" d="M104 460v135q0 16 10.5 26.5t26.5 10.5h1324q15 0 25 -10t10 -25v-135q0 -14 -10.5 -25.5t-24.5 -11.5h-1324q-14 0 -25.5 10.5t-11.5 24.5z" />
<glyph unicode="&#x2018;" horiz-adv-x="442" d="M47 1010q-18 115 17 245q23 76 77 141t114 100q27 12 42 -3l36 -47q10 -13 0 -23q-67 -51 -107.5 -110t-43.5 -143q40 7 52 7q69 0 119 -50.5t50 -119.5t-50 -119t-119 -50h-1q-72 0 -123.5 50t-62.5 122z" />
<glyph unicode="&#x2019;" horiz-adv-x="402" d="M0 1250q0 70 49.5 119t118.5 49h2q73 0 124 -49t62 -121q10 -74 6 -124.5t-22 -120.5q-25 -77 -78.5 -141.5t-113.5 -101.5q-28 -12 -40 5l-37 46q-10 15 0 22q66 52 106 111t43 144q-24 -7 -52 -7q-69 0 -118.5 50t-49.5 119z" />
<glyph unicode="&#x201a;" horiz-adv-x="1030" d="M109 137q0 70 50 120t119 50q60 0 106 -35q67 -48 81 -137q18 -118 -15 -244q-25 -77 -79 -142t-114 -100q-26 -15 -40 4l-36 45q-11 16 0 24q65 49 105.5 109t43.5 145q-24 -7 -52 -7q-69 0 -119 50t-50 118zM562 137q0 70 50.5 120t118.5 50q73 0 123 -48 q53 -47 64 -124q10 -72 6.5 -124t-21.5 -120q-25 -77 -79 -142t-114 -100q-25 -14 -40 4l-37 45q-11 16 0 24q65 50 106 109.5t44 144.5q-24 -7 -52 -7q-68 0 -118.5 50.5t-50.5 117.5z" />
<glyph unicode="&#x201c;" horiz-adv-x="919" d="M53 1056q4 51 23 121q23 77 77 141.5t114 99.5q27 15 42 -3l36 -46q10 -14 0 -24q-66 -49 -107 -108.5t-44 -144.5q40 7 52 7q69 0 119 -50.5t50 -118.5q0 -70 -50 -120t-119 -50t-119 45q-57 49 -68 127q-10 73 -6 124zM506 1056q4 51 23 121q25 77 78.5 141.5 t112.5 99.5q27 15 42 -3l36 -46q10 -14 0 -24q-66 -49 -107 -108.5t-44 -144.5q40 7 52 7q69 0 119 -50.5t50 -118.5q0 -70 -50 -120t-119 -50q-72 0 -123 49q-53 47 -64 123q-10 73 -6 124z" />
<glyph unicode="&#x201d;" horiz-adv-x="923" d="M52 1250q0 70 49.5 119t118.5 49h2q73 0 124 -49t62 -121q10 -74 6 -124.5t-22 -120.5q-25 -77 -78.5 -141.5t-113.5 -101.5q-28 -12 -40 5l-37 46q-10 15 0 22q66 52 106 111t43 144q-24 -7 -52 -7q-69 0 -118.5 50t-49.5 119zM505 1250q0 70 50 119t118 49h2 q73 0 124 -49t62 -121q18 -120 -16 -245q-25 -77 -78.5 -141.5t-113.5 -101.5q-26 -11 -40 5l-37 46q-10 15 0 22q66 52 106 111t43 144q-24 -7 -52 -7q-68 0 -118 50t-50 119z" />
<glyph unicode="&#x201e;" horiz-adv-x="1036" d="M109 137q0 70 50 120t119 50q60 0 106 -35q67 -48 81 -137q18 -118 -15 -244q-25 -77 -79 -142t-114 -100q-26 -15 -40 4l-36 45q-11 16 0 24q65 49 105.5 109t43.5 145q-24 -7 -52 -7q-69 0 -119 50t-50 118zM562 137q0 70 50.5 120t118.5 50q73 0 123 -48 q53 -47 64 -124q10 -72 6.5 -124t-21.5 -120q-25 -77 -79 -142t-114 -100q-25 -14 -40 4l-37 45q-11 16 0 24q65 50 106 109.5t44 144.5q-24 -7 -52 -7q-68 0 -118.5 50.5t-50.5 117.5z" />
<glyph unicode="&#x2022;" horiz-adv-x="723" d="M87 434q0 112 82.5 194t194.5 82q111 0 192 -82t81 -194t-80.5 -193t-192.5 -81t-194.5 81.5t-82.5 192.5z" />
<glyph unicode="&#x2026;" horiz-adv-x="1504" d="M87 154q0 71 50.5 122.5t121.5 51.5t121 -51t50 -123q0 -71 -50 -121t-121 -50t-121.5 50t-50.5 121zM581 154q0 71 51 122.5t121 51.5q71 0 121.5 -51.5t50.5 -122.5t-50.5 -121t-121.5 -50t-121.5 50.5t-50.5 120.5zM1074 154q0 71 50.5 122.5t121.5 51.5 q70 0 121 -51.5t51 -122.5q0 -70 -50.5 -120.5t-121.5 -50.5t-121.5 50t-50.5 121z" />
<glyph unicode="&#x202f;" horiz-adv-x="380" />
<glyph unicode="&#x2039;" horiz-adv-x="654" d="M94 373l224 -338q11 -19 31 -19h172q28 0 36 19.5t-5 46.5l-137 319l144 304q14 30 5 49.5t-36 19.5h-160q-22 0 -40 -26l-234 -325q-15 -25 0 -50z" />
<glyph unicode="&#x203a;" horiz-adv-x="654" d="M90.5 754.5q-9.5 -19.5 4.5 -49.5l145 -304l-138 -319q-13 -27 -4.5 -46.5t36.5 -19.5h171q21 0 32 19l224 338q15 25 0 50l-235 325q-18 26 -40 26h-159q-27 0 -36.5 -19.5z" />
<glyph unicode="&#x205f;" horiz-adv-x="475" />
<glyph unicode="&#x20ac;" horiz-adv-x="1383" d="M17 448v173q0 14 10.5 25.5t24.5 11.5h49l-2 41q0 27 2 39h-49q-15 0 -25 9.5t-10 24.5v174q0 14 10.5 25t24.5 11h106q83 193 260.5 313t395.5 120q139 0 265 -51.5t224 -143.5q23 -23 -1 -48l-163 -167q-25 -25 -49 0q-115 102 -271 102q-176 0 -293 -125h252 q14 0 25 -10t11 -24v-174q0 -16 -10 -26t-26 -10h-361l-2 -37q0 -29 2 -43h361q14 0 25 -10.5t11 -24.5v-173q0 -16 -10 -26.5t-26 -10.5h-249q119 -121 292 -121q82 0 145 24t124 76q24 24 49 0l161 -165q24 -26 2 -48q-98 -92 -223.5 -142.5t-264.5 -50.5 q-217 0 -394.5 117.5t-261.5 309.5h-106q-15 0 -25 10t-10 25z" />
<glyph unicode="&#x2122;" horiz-adv-x="1117" d="M52 1284v80q0 10 7 17t17 7h334q26 0 26 -24v-80q0 -12 -7.5 -19t-18.5 -7h-101v-366q0 -10 -7.5 -18t-18.5 -8h-78q-12 0 -20 7.5t-8 18.5v366h-101q-24 0 -24 26zM495 892v472q0 10 7.5 17t18.5 7h67q20 0 26 -13l165 -283l162 283q7 13 26 13h74q11 0 18 -7t7 -17 v-472q0 -11 -7.5 -18.5t-17.5 -7.5h-79q-11 0 -19 8t-8 18v207l-130 -216q-8 -15 -24 -15h-3q-16 0 -26 15l-125 216v-207q0 -10 -7.5 -18t-18.5 -8h-80q-11 0 -18.5 8t-7.5 18z" />
<glyph unicode="&#x25fc;" horiz-adv-x="859" d="M0 0v859h859v-859h-859z" />
<glyph unicode="&#xfb03;" horiz-adv-x="1853" d="M57 621v172q0 31 18.5 48.5t49.5 17.5h57v186q0 173 103.5 265t282.5 92q165 0 345 -112q99 107 279 107q66 0 133 -18t109 -48q10 -7 13.5 -21t-1.5 -27l-77 -164q-15 -32 -46 -17q-69 23 -98 23q-42 0 -74.5 -26.5t-32.5 -74.5v-165h571q14 0 24 -10.5t10 -24.5v-788 q0 -17 -9 -26.5t-24 -9.5h-163q-42 0 -66 26t-24 68v503h-319v-561q0 -15 -11 -25.5t-26 -10.5h-159q-41 0 -66 26.5t-25 67.5v503h-362v-561q0 -15 -11 -25.5t-26 -10.5h-160q-41 0 -65.5 26.5t-24.5 67.5v503h-99q-26 0 -26 24zM469 859h362v193q-123 78 -234 78 q-57 0 -92.5 -28.5t-35.5 -82.5v-160z" />
<glyph unicode="&#xfb04;" horiz-adv-x="1864" d="M57 621v172q0 31 18.5 48.5t49.5 17.5h57v186q0 173 103.5 265t282.5 92q167 0 347 -112q102 112 302 112q113 0 239 -57v9q0 14 10 24t25 10h217q14 0 24.5 -10t10.5 -24v-1318q0 -17 -9 -26.5t-24 -9.5h-164q-42 0 -66 26t-24 68v972q-108 64 -210 64 q-57 0 -92.5 -28.5t-35.5 -82.5v-160h152q11 0 18.5 -7t7.5 -19v-210q0 -11 -8 -18.5t-18 -7.5h-152v-561q0 -15 -11 -25.5t-26 -10.5h-159q-41 0 -66 26.5t-25 67.5v503h-362v-561q0 -15 -11 -25.5t-26 -10.5h-160q-41 0 -65.5 26.5t-24.5 67.5v503h-99q-26 0 -26 24z M469 859h362v186v7q-123 78 -234 78q-57 0 -92.5 -28.5t-35.5 -82.5v-160z" />
</font>
</defs>
</svg>
