<?xml version="1.0" standalone="no"?>
<!DOCTYPE svg PUBLIC "-//W3C//DTD SVG 1.1//EN" "http://www.w3.org/Graphics/SVG/1.1/DTD/svg11.dtd" >
<svg xmlns="http://www.w3.org/2000/svg" xmlns:xlink="http://www.w3.org/1999/xlink" version="1.1">
<metadata></metadata>
<defs>
<font id="venti_cfmedium" horiz-adv-x="911" >
<font-face units-per-em="2048" ascent="1638" descent="-410" />
<missing-glyph horiz-adv-x="459" />
<glyph unicode="&#xfb01;" horiz-adv-x="1055" d="M61 753v70q0 36 36 36h127v186q0 173 98.5 262.5t257.5 89.5q118 0 215 -61q19 -14 12 -31l-33 -69q-9 -19 -31 -11q-81 49 -160 49q-35 0 -69.5 -9.5t-73 -32t-62.5 -71t-24 -116.5v-186h549q22 0 22 -22v-814q0 -23 -19 -23h-68q-45 0 -45 47v689h-439v-712 q0 -24 -21 -24h-66q-43 0 -43 50v686h-146q-17 0 -17 17z" />
<glyph unicode="&#xfb02;" horiz-adv-x="1105" d="M61 753v70q0 36 36 36h127v182q0 176 100 268.5t263 92.5q134 0 262 -85v49q0 22 22 22h87q21 0 21 -22v-1342q0 -24 -21 -24h-62q-47 0 -47 49v1133q-118 97 -259 97q-29 0 -57.5 -5.5t-62 -22t-58.5 -42t-41.5 -69t-16.5 -99.5v-182h252q17 0 17 -17v-87q0 -19 -17 -19 h-252v-712q0 -24 -21 -24h-66q-43 0 -43 50v686h-146q-17 0 -17 17z" />
<glyph horiz-adv-x="0" />
<glyph horiz-adv-x="682" />
<glyph unicode=" "  horiz-adv-x="459" />
<glyph unicode="&#x09;" horiz-adv-x="459" />
<glyph unicode="&#xa0;" horiz-adv-x="459" />
<glyph unicode="!" horiz-adv-x="383" d="M101 85q0 37 27.5 64.5t64.5 27.5t64.5 -27.5t27.5 -64.5t-27 -63.5t-65 -26.5t-65 26.5t-27 63.5zM121 1352v17q0 8 5.5 13.5t14.5 5.5h104q7 0 13 -6t6 -13v-17l-18 -783q-4 -19 -17 -19h-71q-16 0 -19 19z" />
<glyph unicode="&#x22;" horiz-adv-x="550" d="M52 906v427q0 21 21 21h81q23 0 20 -21l-23 -427q-3 -21 -21 -21h-57q-9 0 -15 6t-6 15zM377 906v427q0 21 20 21h82q22 0 19 -21l-22 -427q-3 -21 -21 -21h-58q-8 0 -14 6t-6 15z" />
<glyph unicode="#" horiz-adv-x="1148" d="M62 463v52q0 20 21 20h229l52 355h-216q-8 0 -14 5t-6 14v53q0 19 20 19h229l55 387q3 20 21 20h50q10 0 16 -5t5 -15l-55 -387h291l56 387q4 20 22 20h51q23 0 19 -20l-56 -387h217q17 0 17 -19v-53q0 -8 -5 -13.5t-12 -5.5h-229l-50 -355h211q20 0 20 -21v-49 q0 -21 -20 -21h-223l-61 -425q-3 -19 -21 -19h-52q-22 0 -19 19l61 425h-294l-61 -425q-3 -19 -20 -19h-51q-20 0 -20 19l60 425h-217q-21 0 -21 19zM404 535h294l50 355h-293z" />
<glyph unicode="$" horiz-adv-x="1098" d="M84 206q-2 6 6 21l51 58q21 21 43 3q1 -1 30.5 -28t57.5 -47.5t71 -46.5t96 -40.5t108 -14.5q82 0 147 22.5t102.5 60t57 81t19.5 89.5q0 49 -20.5 89.5t-51.5 68t-80 52t-91.5 40.5t-101.5 35q-11 3 -17 5l-15 5t-17 6q-65 23 -113.5 44.5t-100.5 54.5t-84.5 70 t-53.5 90t-21 116t22 123t65 112.5t117 89t169 46.5v128q0 20 19 20h96q17 0 17 -20v-128q82 -10 162.5 -46.5t119 -65t67.5 -55.5q23 -17 7 -38l-45 -61q-17 -23 -42 -8q-3 2 -24.5 19.5t-39 30.5t-50.5 32.5t-63.5 32.5t-72.5 22.5t-83 9.5q-140 0 -221 -70t-81 -173 q0 -45 17.5 -81t43.5 -60.5t71 -48t84.5 -38.5t99.5 -36q25 -8 38 -13q49 -17 84.5 -31t82.5 -36t79.5 -43.5t67.5 -52.5t56 -65t34.5 -78.5t13.5 -94.5q0 -143 -113.5 -252.5t-292.5 -126.5v-132q0 -19 -17 -19h-96q-19 0 -19 19v134q-206 25 -376 197l-6 6q-11 11 -13 17z " />
<glyph unicode="%" horiz-adv-x="1081" d="M88.5 12.5q-4.5 7.5 1.5 20.5l769 1305q10 23 30 23h76q14 0 19 -7.5t-2 -20.5l-769 -1307q-14 -21 -29 -21h-78q-13 0 -17.5 7.5zM95 1243q0 30 22.5 51.5t52.5 21.5q31 0 52 -21.5t21 -51.5q0 -31 -20.5 -52t-52.5 -21q-31 0 -53 21t-22 52zM838 115q0 30 21.5 51 t51.5 21q31 0 52 -21t21 -51q0 -31 -21 -52t-52 -21q-30 0 -51.5 21t-21.5 52z" />
<glyph unicode="&#x26;" horiz-adv-x="1171" d="M-33 328.5q-15 107.5 26 197.5q58 138 253 238q-28 31 -104 128q-65 87 -70.5 192t49.5 186q55 84 127 119.5t172 37.5q110 2 197 -45t129 -155q53 -135 -15 -259t-290 -239l311 -358q77 130 151 365q2 13 12.5 21t23.5 8h156q24 0 21 -22q-13 -33 -21 -78 q-4 -18 -22 -18h-59q-83 -239 -165 -375q3 -4 20.5 -23.5t25.5 -27.5l26 -26t33 -27t36.5 -20.5t45.5 -18t50 -8.5q25 0 25 -22v-71q0 -25 -21 -25q-111 -3 -187 40t-148 120q-33 -34 -54.5 -53t-64 -45.5t-89.5 -40.5q-60 -18 -125 -22.5t-131 6t-128 43t-107 84.5 q-74 86 -89 193.5zM126 491q-52 -114 20 -236q44 -72 127.5 -103t170.5 -20q148 21 235 128l-354 410q-147 -65 -199 -179zM205 1119q-7 -68 27.5 -127t98.5 -128q29 -32 -43 -80q60 31 103 55t97.5 62t86.5 72t51.5 78.5t10.5 88.5q-20 101 -98.5 142t-172.5 18 q-66 -16 -110 -66t-51 -115z" />
<glyph unicode="'" horiz-adv-x="225" d="M52 906v427q0 21 21 21h81q23 0 20 -21l-23 -427q-3 -21 -21 -21h-57q-9 0 -15 6t-6 15z" />
<glyph unicode="(" horiz-adv-x="720" d="M78 663q0 371 138 590.5t414 266.5q9 1 13 -4t4 -15l4 -86q0 -15 -18 -18q-142 -22 -238 -120t-140.5 -252t-44.5 -362q0 -318 104.5 -508t318.5 -223q18 -3 18 -17l-4 -92q0 -20 -19 -17q-274 47 -412 269t-138 588z" />
<glyph unicode=")" horiz-adv-x="720" d="M52 -85q0 14 17 17q214 33 319 223t105 508q0 315 -106 508t-318 226q-17 3 -17 18l4 86q0 10 4 15t13 4q275 -47 413.5 -266.5t138.5 -590.5q0 -366 -138.5 -588t-411.5 -269q-19 -3 -19 17z" />
<glyph unicode="*" horiz-adv-x="706" d="M68 915q-12 18 7 29l206 122l-205 121q-21 10 -8 30l24 40q12 19 31 7l193 -129l-7 231q0 22 21 22h47q13 0 17.5 -5t4.5 -17l-7 -231l191 129q19 12 33 -7l24 -40q13 -20 -8 -30l-207 -121l207 -122q20 -10 8 -29l-24 -40q-13 -20 -31 -7l-193 128l7 -231q0 -22 -22 -22 h-47q-21 0 -21 22l7 231l-193 -128q-19 -12 -31 7z" />
<glyph unicode="+" horiz-adv-x="1079" d="M121 606v85q0 21 23 21h332v333q0 21 22 21h83q23 0 23 -21v-333h331q23 0 23 -21v-85q0 -21 -23 -21h-331v-332q0 -22 -23 -22h-83q-22 0 -22 22v332h-332q-23 0 -23 21z" />
<glyph unicode="," horiz-adv-x="347" d="M78 78q0 94 90 94q75 0 89 -66q7 -13 10 -33q9 -83 -14 -186q-27 -105 -104 -182q-13 -15 -24 -7l-17 17q-11 5 -4 18q24 28 38.5 50.5t28 62t13.5 83.5q0 38 -2 57l-14 -2q-39 0 -64.5 25t-25.5 69z" />
<glyph unicode="-" horiz-adv-x="730" d="M69 397v77q0 22 25 22h546q21 0 21 -22v-75q0 -22 -21 -22h-546q-25 0 -25 20z" />
<glyph unicode="." horiz-adv-x="331" d="M78 80q0 35 27 61.5t62 26.5t60.5 -26.5t25.5 -61.5q0 -36 -25.5 -61.5t-60.5 -25.5q-36 0 -62.5 25.5t-26.5 61.5z" />
<glyph unicode="/" horiz-adv-x="643" d="M57 26l396 1338q9 24 28 24h81q12 0 18.5 -7t4.5 -17l-398 -1338q-5 -26 -26 -26h-81q-12 0 -18.5 7.5t-4.5 18.5z" />
<glyph unicode="0" horiz-adv-x="1204" d="M87 661q0 116 18 217t58 189.5t99 151.5t145.5 99t193.5 36q108 0 195 -36t146.5 -99t99.5 -151.5t58 -189.5t18 -217q0 -114 -18 -213.5t-58 -186.5t-99.5 -149t-146.5 -97.5t-195 -35.5q-107 0 -193.5 35.5t-145.5 97.5t-99 149t-58 186.5t-18 213.5zM222 661 q0 -116 19.5 -210.5t62 -173t119 -122.5t181.5 -44q104 0 179.5 44t117.5 122.5t61.5 173t19.5 210.5q0 93 -11.5 173.5t-39.5 153t-70.5 123.5t-108 81t-148.5 30q-85 0 -151 -30t-109 -81t-71 -123.5t-39.5 -153t-11.5 -173.5z" />
<glyph unicode="1" horiz-adv-x="480" d="M61 1116q0 18 15 21q59 24 106.5 75t77.5 107l2 9q3 8 23 8h79q21 0 21 -20v-1293q0 -23 -21 -23h-90q-24 0 -24 23v1053l-155 -43q-19 -3 -22 15z" />
<glyph unicode="2" horiz-adv-x="1011" d="M83 1133q76 112 188 170.5t236 58.5q169 0 296 -112t126 -278q0 -168 -134 -316l-483 -524h596q19 0 19 -21v-90q0 -8 -12.5 -14.5t-22.5 -6.5h-779q-19 0 -23 21v40l545 599q81 87 121.5 158t40.5 154q0 107 -87 183.5t-208 76.5q-105 0 -189 -53.5t-143 -133.5 q-5 -7 -14.5 -7t-16.5 7l-54 55q-13 13 -2 33z" />
<glyph unicode="3" horiz-adv-x="1043" d="M85 222q-13 18 0 31l66 59q17 14 30 -1q58 -86 153.5 -141t196.5 -55q76 0 134.5 26t92 68.5t50 90t16.5 96.5q0 107 -69 186t-186 79q-54 0 -172 -40q-15 -5 -26 9l-50 66q-12 17 2 31l456 478h-637q-9 0 -15.5 6.5t-6.5 15.5v87q0 22 22 22h767q23 0 23 -22v-97 q0 -19 -14 -35l-403 -420q86 14 169 -14q125 -24 203 -129t78 -234q0 -173 -125.5 -287.5t-306.5 -114.5q-276 0 -448 239z" />
<glyph unicode="4" horiz-adv-x="1036" d="M78 404v85q0 16 14 21q114 85 204 202t140 250q69 197 69 373q0 19 19 19h101q19 0 19 -19q-1 -135 -35 -276.5t-87 -251.5q-82 -158 -237 -295h368v108q0 17 19 20l92 16q8 2 14 -4.5t6 -14.5v-125h151q23 0 23 -23v-85q0 -22 -23 -22h-151v-359q0 -23 -24 -23h-83 q-24 0 -24 23v359h-551q-24 0 -24 22z" />
<glyph unicode="5" horiz-adv-x="1020" d="M85 215q-13 14 0 28l64 66q14 14 28 -2q56 -87 147.5 -139.5t196.5 -52.5q67 0 122 24.5t88 65.5t51 90t18 101q0 120 -80.5 205t-191.5 85q-74 0 -134.5 -26.5t-124.5 -83.5l-113 23q-24 5 -24 26v689q0 22 22 22q168 -7 353 -7q184 0 342 7q22 0 22 -22v-83 q0 -25 -22 -25q-129 -8 -320 -8q-155 0 -260 7v-486q128 97 283 97q112 0 202.5 -60.5t139 -157t48.5 -206.5q0 -170 -123 -289.5t-298 -119.5q-127 0 -243 60.5t-193 171.5z" />
<glyph unicode="6" horiz-adv-x="1062" d="M78 566q0 117 26 229.5t79 212.5t127 176t177.5 121.5t222.5 48.5q24 0 24 -19l2 -87q0 -17 -21 -17q-73 0 -138 -20.5t-115 -56t-91.5 -83t-70 -101.5t-48.5 -112t-29.5 -113.5t-9.5 -107.5q48 88 137 144t198 56q183 0 309.5 -123t126.5 -303t-127.5 -304t-320.5 -124 q-147 0 -252 77.5t-155.5 207.5t-50.5 298zM224 423q0 -131 90 -225t221 -94q127 0 221 90t94 216q0 128 -87.5 217.5t-215.5 89.5q-126 0 -224.5 -89.5t-98.5 -204.5z" />
<glyph unicode="7" horiz-adv-x="1017" d="M61 1224v90q0 9 6 15t15 6h845q21 0 21 -21v-44q0 -9 -9 -27l-658 -1231q-8 -12 -28 -12h-104q-9 0 -12 9.5t0 14.5l639 1179h-693q-9 0 -15.5 6t-6.5 15z" />
<glyph unicode="8" horiz-adv-x="1034" d="M78 358q0 -163 118.5 -269t320.5 -106t320.5 106t118.5 269q0 70 -28.5 132t-72.5 102t-91.5 65t-90.5 32l14 4q41 13 80.5 37.5t75.5 60.5t58 88.5t22 113.5q0 157 -115 259t-291 102t-291 -102t-115 -259q0 -60 22 -112.5t57.5 -89t74.5 -61t80 -37.5l14 -4 q-31 -4 -67.5 -20t-74.5 -45.5t-69 -67.5t-50.5 -90t-19.5 -108zM207 359q0 106 84.5 186t225.5 80t225 -80t84 -186q0 -120 -89 -190t-220 -70q-132 0 -221 70t-89 190zM233 994q0 103 81 174t203 71q120 0 201.5 -71t81.5 -174q0 -93 -83 -166t-200 -73q-118 0 -201 72.5 t-83 166.5z" />
<glyph unicode="9" horiz-adv-x="1062" d="M78 925q0 180 127.5 304.5t320.5 124.5q146 0 251 -77.5t156 -207.5t51 -298q0 -117 -26 -229.5t-79 -212.5t-127.5 -176t-178 -121.5t-222.5 -48.5q-23 0 -23 19l-3 87q0 7 6 12t14 5q101 0 186.5 39t142 101.5t97 142t59 158t19.5 152.5q-48 -88 -137 -143.5 t-198 -55.5q-183 0 -309.5 123t-126.5 302zM210 927q0 -128 88.5 -217.5t216.5 -89.5q126 0 224.5 89t98.5 204q0 131 -89.5 225t-220.5 94q-127 0 -222.5 -89.5t-95.5 -215.5z" />
<glyph unicode=":" horiz-adv-x="475" d="M137 182q0 42 30 71.5t71 29.5t70.5 -29.5t29.5 -71.5t-29.5 -70.5t-70.5 -28.5t-71 29t-30 70zM139 715q0 41 29.5 71t71.5 30q40 0 69 -30t29 -71q0 -42 -28.5 -71.5t-69.5 -29.5q-42 0 -71.5 29.5t-29.5 71.5z" />
<glyph unicode=";" horiz-adv-x="794" d="M139 715q0 41 29.5 71t71.5 30q40 0 69 -30t29 -71q0 -42 -28.5 -71.5t-69.5 -29.5q-42 0 -71.5 29.5t-29.5 71.5zM148 181q0 97 93 97q80 0 94 -70q5 -10 9 -33q9 -91 -14 -192q-28 -112 -108 -188q-14 -14 -26 -7l-19 19q-12 8 -2 18q38 45 61 92t23 111q0 38 -2 57 l-16 -2q-40 0 -66.5 26.5t-26.5 71.5z" />
<glyph unicode="&#x3c;" horiz-adv-x="874" d="M69 635q0 -13 14 -19l660 -403q11 -7 19.5 -1.5t8.5 17.5v83q0 11 -14 21l-521 313l524 317q11 7 11 18v85q0 13 -8.5 17.5t-17.5 -2.5l-662 -409q-14 -6 -14 -19v-18z" />
<glyph unicode="=" horiz-adv-x="1041" d="M106 366v75q0 22 22 22h787q20 0 20 -20v-77q0 -22 -20 -22h-787q-22 0 -22 22zM106 833v76q0 23 22 23h787q20 0 20 -23v-74q0 -23 -20 -23h-787q-22 0 -22 21z" />
<glyph unicode="&#x3e;" horiz-adv-x="874" d="M104 229q0 -12 8 -17t18 1l661 407q14 6 14 19v17q0 13 -14 19l-661 406q-9 6 -17.5 1.5t-8.5 -16.5v-85q0 -13 9 -18l526 -316l-523 -314q-12 -9 -12 -21v-83z" />
<glyph unicode="?" horiz-adv-x="807" d="M38 1182q-12 13 0 28q73 97 171.5 146.5t208.5 49.5q79 0 156 -28q76 -27 128.5 -90.5t70 -138t-2 -153.5t-76.5 -133q-43 -41 -90 -74t-73.5 -48.5t-50.5 -37.5t-33.5 -54.5t-9.5 -86.5q0 -22 -22 -22h-80q-21 0 -21 22l-2 75q0 48 34.5 89.5t84.5 74t100 67t86 82.5 t37 105q4 100 -61 168t-199 68q-51 0 -96.5 -16t-81 -44t-57 -50.5t-44.5 -52.5q-14 -14 -26 -2zM283 87q0 38 27.5 66t64.5 28q39 0 66.5 -28t27.5 -66t-27.5 -66t-66.5 -28q-37 0 -64.5 28t-27.5 66z" />
<glyph unicode="@" horiz-adv-x="2025" d="M104 491q0 151 45.5 291.5t130.5 254.5t199 199t259 132t303 47q157 0 298.5 -47.5t245.5 -127.5t181 -181.5t116 -213t39 -218.5q0 -88 -11 -170t-41 -166.5t-76 -146.5t-123.5 -101.5t-176.5 -39.5q-86 0 -133 36t-67 110l-12 12q-20 -34 -85 -71q-125 -75 -245 -83 q-47 -3 -93 4t-93 25t-81 57t-45 93q-14 70 5.5 122t57 86t125 64t165.5 48t223 46q5 90 -45.5 141t-145.5 55q-140 8 -305 -73q-28 -15 -33 9l-23 64q-8 20 14 31q165 91 350 87q159 -4 240.5 -89t79.5 -232q-4 -128 -4 -170q3 -70 12.5 -117.5t21.5 -73t35 -38.5 t41.5 -15.5t52.5 -2.5q77 0 134 39.5t89.5 109t48 154t15.5 185.5q0 92 -31.5 186t-96.5 181.5t-154 156t-213 109.5t-265 41q-170 0 -320 -62.5t-255 -170t-166 -255t-61 -311.5q0 -141 50.5 -278t140.5 -249t227.5 -187.5t298.5 -90.5q12 -2 16 -7.5t4 -16.5v-87 q0 -16 -41 -12q-152 15 -285 74.5t-230.5 150t-167.5 205t-105 241.5t-35 257zM766.5 195.5q21.5 -50.5 80.5 -70.5q84 -28 192 8.5t181 93.5q-9 55 -5 223q-24 -5 -76.5 -14.5t-83.5 -16t-77.5 -17t-75.5 -21t-60 -24t-49.5 -30t-25.5 -35.5q-22 -46 -0.5 -96.5z" />
<glyph unicode="A" horiz-adv-x="1513" d="M72 6q-4 6 1 17l651 1359q9 15 21 15h24q15 0 21 -15l651 -1359q11 -23 -13 -23h-105q-17 0 -25 16l-121 258h-839l-121 -258q-8 -16 -23 -16h-109q-9 0 -13 6zM397 399h721l-361 764z" />
<glyph unicode="B" horiz-adv-x="1183" d="M95 23v1343q0 22 23 22h522q165 0 273.5 -107.5t108.5 -251.5q0 -106 -51.5 -186t-135.5 -119q121 -40 189.5 -134.5t68.5 -214.5q0 -163 -123.5 -269t-299.5 -106h-552q-23 0 -23 23zM233 132h411q67 0 123 17.5t92 46.5t61.5 67t31.5 80q3 21 2.5 42t-2.5 41 q-6 42 -32 80t-62.5 67t-93 46.5t-124.5 17.5h-407v-505zM233 765h378q101 0 171 51q70 50 88 122q9 39 10 79q0 33 -7 67q-15 72 -84 122.5t-171 50.5h-385v-492z" />
<glyph unicode="C" horiz-adv-x="1386" d="M78 693q0 145 56.5 276.5t151.5 226t226.5 150t275.5 55.5q147 0 276.5 -54t228.5 -153q22 -22 7 -36l-73 -61q-18 -15 -35 2q-65 68 -169 119t-225 51q-136 0 -249.5 -51.5t-185 -135t-111 -185t-39.5 -204.5q0 -83 24 -165t73.5 -155.5t118 -130t164 -89.5t205.5 -33 q121 0 220.5 48.5t168.5 117.5q21 21 37 7l72 -60q19 -14 -6 -39q-206 -206 -502 -206q-193 0 -356 93t-258.5 255.5t-95.5 356.5z" />
<glyph unicode="D" horiz-adv-x="1398" d="M104 23v1343q0 22 23 22h468q138 0 255 -39t199.5 -105.5t140.5 -154.5t85.5 -186t27.5 -200q0 -108 -27.5 -209.5t-85.5 -191t-139.5 -157t-197.5 -106.5t-252 -39h-474q-23 0 -23 23zM240 1257l1 -1125h366q131 0 239.5 49t177.5 129q68 80 105 182q36 99 36 205v6 q0 86 -22.5 167t-69 151.5t-111.5 123t-156.5 82.5t-198.5 30h-367z" />
<glyph unicode="E" horiz-adv-x="1147" d="M130 23v1343q0 22 23 22h868q24 0 24 -22v-87q0 -22 -24 -22h-754v-509h465q25 0 25 -24v-84q0 -22 -25 -22h-465v-486h754q24 0 24 -24v-84q0 -24 -24 -24h-868q-23 0 -23 23z" />
<glyph unicode="F" horiz-adv-x="1032" d="M87 47v1319q0 22 22 22h847q25 0 25 -22v-87q0 -22 -25 -22h-734v-509h446q23 0 23 -24v-84q0 -22 -23 -22h-446v-595q0 -23 -21 -23h-69q-45 0 -45 47z" />
<glyph unicode="G" horiz-adv-x="1386" d="M78 693q0 145 56.5 276.5t151.5 226t226.5 150t275.5 55.5q147 0 276.5 -54t228.5 -153q22 -22 7 -36l-73 -61q-18 -15 -35 2q-65 68 -169 119t-225 51q-136 0 -249.5 -51.5t-185 -135t-111 -185t-39.5 -204.5q0 -83 24 -165t73.5 -155.5t118 -130t164 -89.5t205.5 -33 q112 0 207 43t163 106v160h-366q-23 0 -23 21v85q0 24 23 24h479q24 0 24 -24l-2 -315q0 -13 -13 -26q-206 -206 -502 -206q-193 0 -356 93t-258.5 255.5t-95.5 356.5z" />
<glyph unicode="H" horiz-adv-x="1407" d="M130 24v1342q0 22 23 22h90q23 0 23 -22v-614h876v614q0 22 21 22h90q24 0 24 -22v-1343q0 -23 -20 -23h-70q-45 0 -45 47v569h-876v-592q0 -24 -23 -24h-89q-24 0 -24 24z" />
<glyph unicode="I" horiz-adv-x="411" d="M139 23q0 -23 22 -23h91q20 0 20 23v1343q0 22 -22 22h-89q-22 0 -22 -22v-1343z" />
<glyph unicode="J" horiz-adv-x="492" d="M47 -444q-7 20 10 29q160 85 160 264v1451q0 18 -7 62q-3 26 19 26h78q47 0 47 -46v-1505q-2 -124 -65 -220.5t-166 -149.5q-20 -13 -33 5z" />
<glyph unicode="K" horiz-adv-x="1155" d="M95 1362q-3 26 18 26h80q47 0 47 -43v-616l631 646q13 13 28 13h106q19 0 24.5 -15t-7.5 -28l-621 -630l684 -670q14 -14 7.5 -29.5t-26.5 -15.5h-99q-16 0 -30 14l-697 687v-678q0 -23 -21 -23h-94q-23 0 -23 23v1261q0 22 -7 78z" />
<glyph unicode="L" horiz-adv-x="1063" d="M113 23v1343q0 22 22 22h92q23 0 23 -22v-1234h698q20 0 20 -24v-85q0 -23 -20 -23h-814q-21 0 -21 23z" />
<glyph unicode="M" horiz-adv-x="1855" d="M130 24v1342q0 22 21 22h83q16 0 26 -15l667 -1125l668 1125q7 15 28 15h81q9 0 15 -7t6 -17v-1340q0 -24 -22 -24h-91q-24 0 -24 24v1087l-632 -1066q-10 -17 -26 -17h-7q-16 0 -26 17l-630 1066v-1087q0 -24 -22 -24h-91q-24 0 -24 24z" />
<glyph unicode="N" horiz-adv-x="1449" d="M130 23v1345q0 20 21 20h57q17 0 33 -19l943 -1119v1119q0 19 19 19h95q21 0 21 -19v-1350q0 -19 -21 -19h-36q-34 0 -84 54l-912 1078v-1109q0 -23 -23 -23h-90q-23 0 -23 23z" />
<glyph unicode="O" horiz-adv-x="1633" d="M104 694q0 -146 56.5 -277t152 -225t227.5 -149t277 -55t276.5 55t227 149t152 225t56.5 277q0 145 -56.5 276t-152 225.5t-227 150t-276.5 55.5q-194 0 -358 -94t-259.5 -256.5t-95.5 -356.5zM240 694q0 156 78 288.5t210.5 209.5t288.5 77t288 -77t209.5 -209.5 t77.5 -288.5t-77.5 -288.5t-209.5 -209t-288 -76.5t-288.5 76.5t-210.5 209t-78 288.5z" />
<glyph unicode="P" horiz-adv-x="1174" d="M121 24v1342q0 22 23 22h503q113 0 206.5 -42t150.5 -109t88 -146t31 -159q0 -82 -30.5 -162t-88 -146.5t-150.5 -108t-207 -41.5h-388v-450q0 -24 -21 -24h-94q-23 0 -23 24zM259 604h383q81 0 147.5 28t109 75t65 105t22.5 120q0 131 -92.5 228t-251.5 97h-383v-653z " />
<glyph unicode="Q" horiz-adv-x="1607" d="M104 694q0 194 95.5 356.5t259.5 256.5t358 94q145 0 276.5 -55.5t227 -150t152 -225.5t56.5 -276q0 -165 -69 -307t-191 -241l64 -106q54 -87 94 -125q13 -14 11.5 -25t-11.5 -17l-70 -43q-20 -12 -37.5 -7.5t-28.5 23.5l-139 223q-157 -81 -335 -81q-145 0 -277 55 t-227.5 149t-152 225t-56.5 277zM240 694q0 -116 45.5 -222t122.5 -182.5t182.5 -122.5t221.5 -47l-14 1q-54 26 -81.5 70t-27.5 94q0 87 61.5 145.5t153.5 58.5q136 0 229 -130q21 -28 65 -95q92 81 143 192t51 238q0 156 -77.5 288.5t-209.5 209.5t-288 77t-288.5 -77 t-210.5 -209.5t-78 -288.5zM760 234q0 -33 22 -63.5t65 -50.5q122 7 234 64l-50 80q-56 92 -155 92q-48 0 -82 -35.5t-34 -86.5z" />
<glyph unicode="R" horiz-adv-x="1197" d="M104 24v1342q0 22 23 22h512q94 0 173.5 -28t134 -73.5t93 -105.5t56 -123.5t17.5 -127.5q0 -93 -35 -180t-113.5 -159.5t-188.5 -99.5l335 -467q7 -10 3.5 -17t-15.5 -7h-91q-33 0 -57 38l-309 436h-3h-398v-450q0 -24 -24 -24h-90q-23 0 -23 24zM241 604h387 q85 0 153.5 28t110 75.5t63.5 105.5t22 121q0 62 -22 119t-64 103t-110 73.5t-153 27.5h-387v-653z" />
<glyph unicode="S" horiz-adv-x="1084" d="M80 218.5q0 7.5 7 14.5l48 57q21 21 46 3q1 0 24.5 -22t41.5 -36.5t54 -38.5t69.5 -39.5t79.5 -27t92 -11.5q161 0 245 73t84 175q0 29 -6.5 54t-21.5 46.5t-30.5 38.5t-42 33.5t-47 27.5t-56 25t-57.5 22t-61.5 22t-60.5 21q-69 26 -120 49.5t-103.5 58t-85.5 71.5 t-54 88.5t-21 112.5q0 54 15.5 105t49.5 98.5t84 83t124.5 57t164.5 21.5q216 0 409 -165q24 -21 9 -42l-45 -59q-16 -22 -40 -7q-3 2 -20 16t-31.5 24t-39 26.5t-50 28t-56 23.5t-65.5 18t-70 6q-141 0 -222 -66t-81 -168q0 -25 6.5 -47.5t14.5 -40.5t27.5 -36.5 t32.5 -30.5t44.5 -28.5t48 -24.5t57.5 -24t59.5 -23t66.5 -24q57 -21 96 -37.5t92 -43.5t88 -56t68 -67t49.5 -86t16.5 -103q0 -155 -131 -264.5t-333 -109.5q-245 0 -449 204q-8 8 -11 12.5t-3 12z" />
<glyph unicode="T" horiz-adv-x="1235" d="M78 1279v85q0 24 24 24h1033q23 0 23 -22v-87q0 -22 -23 -22h-448v-1233q0 -24 -21 -24h-69q-47 0 -47 49v1208h-448q-24 0 -24 22z" />
<glyph unicode="U" horiz-adv-x="1334" d="M121 512q1 -105 38.5 -199.5t105 -167t171 -115t227.5 -42.5q125 0 229.5 42.5t173.5 115t107.5 167t39.5 199.5v854q0 22 -21 22h-92q-24 0 -24 -22v-835q0 -104 -36.5 -185.5t-97 -129.5t-132 -72t-147.5 -24q-75 0 -144.5 24t-128.5 72t-95 129.5t-36 185.5v835 q0 22 -23 22h-90q-25 0 -25 -22v-854z" />
<glyph unicode="V" horiz-adv-x="1438" d="M46.5 1380q5.5 8 15.5 8h117q10 0 15 -6t11 -21l514 -1113l515 1113q6 15 11 21t15 6h116q10 0 16 -9t0 -22l-640 -1347q-8 -17 -27 -17h-13q-16 0 -25 17l-640 1349q-6 13 -0.5 21z" />
<glyph unicode="W" horiz-adv-x="1964" d="M46.5 1380q5.5 8 15.5 8h117q3 0 6 -0.5t5 -2t3.5 -2.5t3.5 -4.5t3 -4.5t3.5 -6l3.5 -7l520 -1116l181 392l-344 724q-6 12 0 20.5t16 8.5h118q10 0 15 -6.5t11 -21.5l258 -562l257 561q8 15 13 21t15 6h118q10 0 15 -8.5t-1 -22.5l-342 -720l180 -391l521 1116 q6 15 11 21.5t15 6.5h118q10 0 15 -8.5t-1 -22.5l-646 -1347q-8 -17 -26 -17h-15q-19 0 -24 17l-223 467l-222 -469q-8 -17 -26 -17h-15q-17 0 -26 17l-646 1349q-6 13 -0.5 21z" />
<glyph unicode="X" horiz-adv-x="1254" d="M53.5 7.5q-1.5 7.5 5.5 16.5l486 670l-491 677q-8 17 8 17h134q9 0 21 -17l410 -564l409 564q15 17 23 17h130q19 0 10 -17l-491 -677l486 -670q7 -9 5.5 -16.5t-10.5 -7.5h-130q-13 0 -28 24l-404 557l-405 -557q-15 -24 -26 -24h-132q-9 0 -10.5 7.5z" />
<glyph unicode="Y" horiz-adv-x="1299" d="M27 1382q3 6 11 6h122q12 0 21 -17l468 -663l469 663q12 17 21 17h123q7 0 10 -6t-2 -14l-553 -794v-550q0 -24 -21 -24h-69q-46 0 -46 49v525l-553 794q-4 8 -1 14z" />
<glyph unicode="Z" horiz-adv-x="1115" d="M61 23v31l3 5l774 1194h-749q-23 0 -23 24v89q0 22 23 22h937q24 0 24 -22v-28l-2 -3l-777 -1200h762q22 0 22 -22v-66q0 -47 -48 -47h-924q-22 0 -22 23z" />
<glyph unicode="[" horiz-adv-x="621" d="M69 -290v1838q0 19 20 19h444q19 0 19 -19v-83q0 -18 -17 -18h-346v-1634h344q19 0 19 -20v-83q0 -17 -19 -17h-444q-20 0 -20 17z" />
<glyph unicode="\" horiz-adv-x="633" d="M54 1364q-2 11 4 17.5t18 6.5h82q17 0 26 -24l396 -1338q2 -10 -4 -18t-17 -8h-83q-18 0 -26 26z" />
<glyph unicode="]" horiz-adv-x="621" d="M69 -207q0 20 20 20h343v1634h-345q-18 0 -18 18v83q0 19 20 19h444q19 0 19 -19v-1838q0 -17 -19 -17h-444q-20 0 -20 17v83z" />
<glyph unicode="^" horiz-adv-x="1050" d="M45 785q5 -9 19 -9h78q15 0 19 10l365 526l359 -524q5 -12 21 -12h80q13 0 17.5 9t-2.5 20l-444 656q-7 16 -21 16h-19q-10 0 -21 -16l-449 -656q-7 -11 -2 -20z" />
<glyph unicode="_" horiz-adv-x="945" d="M69 -23q0 23 25 23h760q22 0 22 -23v-52q0 -22 -22 -22h-760q-25 0 -25 22v52z" />
<glyph unicode="`" horiz-adv-x="574" d="M73 1342q-10 -19 9 -32l368 -229q18 -8 29 7l26 45q8 16 -5 25l-359 248q-7 7 -16 6t-16 -10z" />
<glyph unicode="a" d="M78 220q0 -106 74.5 -167.5t205.5 -61.5q102 0 174 26.5t157 79.5q9 -97 38 -97h73q21 0 16 33q-16 156 -16 331q0 84 4 172q1 12 0 24q0 137 -74 220q-81 90 -237 90q-97 0 -194.5 -25.5t-166.5 -63.5q-11 -5 -15 -14.5t1 -18.5l30 -66q8 -22 33 -9q168 80 307 80 q94 1 144 -49q46 -46 45 -134v-15q-102 -17 -172.5 -31.5t-144.5 -35.5t-121 -44.5t-86 -55.5t-57 -74t-18 -94zM212 222q0 31 13 56t48 45.5t60.5 34t88.5 29.5t92 22.5t108 22.5q11 2 17.5 3.5t17 3.5t18.5 4q-2 -66 -2.5 -127.5t2.5 -119.5q-59 -39 -137.5 -69 t-157.5 -30q-74 0 -121 30.5t-47 94.5z" />
<glyph unicode="b" horiz-adv-x="1003" d="M104 1361q-3 27 16 27h80q21 0 33 -11.5t12 -31.5v-559q121 82 272 82q77 0 149 -31t127.5 -86t89 -137t33.5 -177q0 -191 -109.5 -319t-289.5 -128q-146 0 -272 92v-28q0 -24 -20 -39t-43 -15h-48q-8 0 -13.5 6t-5.5 15v1241q0 26 -5.5 61t-5.5 38zM245 194 q122 -83 251 -83q128 0 210 90.5t82 235.5q0 76 -26.5 137t-69.5 97t-93.5 55t-102.5 19q-132 0 -251 -84v-467z" />
<glyph unicode="c" horiz-adv-x="904" d="M69 429q0 186 129.5 314t311.5 128q92 0 170.5 -38t133.5 -99q15 -18 2 -33l-47 -55q-13 -13 -31 3q-88 99 -221 99q-77 0 -140 -28.5t-101.5 -75t-59 -102t-20.5 -113.5q0 -57 20.5 -112.5t59 -102t102 -75t141.5 -28.5q123 0 231 116q17 15 33 -1l43 -54q14 -17 2 -31 q-144 -153 -318 -153q-182 0 -311.5 127.5t-129.5 313.5z" />
<glyph unicode="d" horiz-adv-x="984" d="M69 436q0 95 34.5 177t92 136.5t130.5 85.5t150 31q154 0 274 -83v479q0 26 -5.5 61t-5.5 38q-3 27 16 27h80q21 0 33 -11.5t12 -31.5v-1324q0 -9 -5.5 -15t-13.5 -6h-49q-24 0 -43 14.5t-19 39.5v28q-120 -94 -274 -94q-181 0 -294 129t-113 319zM200 436 q0 -144 84 -235.5t212 -91.5q132 0 254 87v460q-122 87 -254 87q-53 0 -104 -18.5t-95 -54.5t-70.5 -97t-26.5 -137z" />
<glyph unicode="e" horiz-adv-x="978" d="M66 430q0 -190 127 -315t312 -125q110 0 199.5 46.5t151.5 126.5q12 15 -4 31l-22 30q-14 20 -35 2q-118 -118 -278 -118q-132 0 -215.5 77.5t-96.5 185.5h625q83 0 83 82q0 111 -52.5 206.5t-149.5 153.5t-218 58q-181 0 -304 -127.5t-123 -313.5zM203 477 q1 45 19.5 91.5t52.5 88t90.5 67.5t125.5 26t125 -26.5t89.5 -68.5t52 -88t20.5 -90h-575z" />
<glyph unicode="f" horiz-adv-x="748" d="M61 753v70q0 36 36 36h127v186q0 173 98.5 262.5t257.5 89.5q118 0 215 -61q19 -14 12 -31l-33 -69q-9 -19 -31 -11q-81 49 -160 49q-35 0 -69.5 -9.5t-73 -32t-62.5 -71t-24 -116.5v-186h252q17 0 17 -17v-87q0 -19 -17 -19h-252v-712q0 -24 -21 -24h-66q-43 0 -43 50 v686h-146q-17 0 -17 17z" />
<glyph unicode="g" horiz-adv-x="1063" d="M59 78v10q0 68 54 108q40 29 95 29q25 0 52 -6q-46 31 -84 100t-39 150v14q0 160 107 270q112 115 278 115q50 0 154 -12q72 -8 157 -8q37 0 76 2q10 0 16 -4.5t5 -14.5l-3 -67q-24 -9 -139 -14q43 -30 71 -67t40.5 -77t17 -71t5.5 -70q-1 -166 -113 -267 q-107 -97 -259 -97h-15q-101 2 -207 55q-30 8 -55 8q-26 0 -48 -9q-38 -16 -38 -53v-7q7 -75 200 -98q70 -9 173.5 -22t137.5 -17q72 -10 122 -23.5t98 -40.5t71 -74q20 -39 20 -93q0 -9 -1 -19q-9 -153 -147 -237.5t-351 -84.5q-185 0 -297 76q-107 74 -107 208v12 q2 83 51.5 138t135.5 78q-96 13 -162.5 59.5t-71.5 120.5zM236 -297v-8q0 -47 21 -83q23 -39 64.5 -61.5t92 -33t110.5 -10.5q142 0 241 52.5t103 143.5v6q0 50 -34 79q-35 30 -126 45q-83 16 -291 40q-8 1 -15 1q-53 0 -105 -42q-59 -49 -61 -129zM266 477 q-1 -102 77 -176.5t186 -76.5q121 0 191.5 70.5t72.5 182.5q-1 116 -77 191t-185 75q-113 0 -189.5 -76t-75.5 -190z" />
<glyph unicode="h" horiz-adv-x="1015" d="M104 1361q-3 27 16 27h80q21 0 33 -11.5t12 -31.5v-607q156 133 323 133q93 0 171.5 -34.5t130.5 -110.5t52 -181v-391q0 -33 7 -126q3 -28 -16 -28h-75q-47 0 -47 49v479q0 101 -62 162.5t-174 61.5q-162 0 -310 -146v-583q0 -14 -7 -18q-5 -5 -12 -5h-92q-8 0 -13 5 q-6 4 -6 18v1241q0 25 -2 43t-5 34t-4 20z" />
<glyph unicode="i" horiz-adv-x="393" d="M121 1309q0 31 22.5 52.5t54.5 21.5q30 0 52 -21.5t22 -52.5t-22 -53t-52 -22q-32 0 -54.5 22t-22.5 53zM132 47q0 -21 11 -34t32 -13h68q21 0 21 23v814q0 22 -23 22h-87q-22 0 -22 -22v-790z" />
<glyph unicode="j" horiz-adv-x="380" d="M12 -359l44 -87q6 -14 27 -7q95 40 132 108.5t37 170.5l-2 1011q0 22 -21 22h-88q-21 0 -21 -22v-1011q0 -67 -20 -100t-77 -59q-19 -7 -11 -26zM108 1309q0 31 22 52.5t54 21.5q30 0 52.5 -21.5t22.5 -52.5t-22.5 -53t-52.5 -22q-32 0 -54 21.5t-22 53.5z" />
<glyph unicode="k" horiz-adv-x="923" d="M104 1361q-3 27 16 27h80q21 0 33 -11.5t12 -31.5v-883l397 385q11 12 26 12h101q16 0 21 -13t-6 -25l-395 -375l454 -408q12 -13 8 -25.5t-21 -12.5h-101q-16 0 -30 14l-454 418v-409q0 -23 -23 -23h-85q-22 0 -22 23v1241q0 25 -2 43t-5 34t-4 20z" />
<glyph unicode="l" horiz-adv-x="387" d="M130 49q0 -49 47 -49h63q22 0 22 24v1342q0 22 -22 22h-87q-23 0 -23 -22v-1317z" />
<glyph unicode="m" horiz-adv-x="1690" d="M113 23v815q0 8 6 14.5t13 6.5h66q20 0 32.5 -15.5t14.5 -34.5v-71q156 133 321 133q102 0 187.5 -43t129.5 -125q173 168 360 168q146 0 250 -85.5t104 -240.5v-391q4 -80 7 -126q4 -28 -16 -28h-75q-46 0 -46 49v479q0 100 -62.5 162t-173.5 62q-162 0 -315 -157 q4 -34 4 -50v-391q4 -80 7 -126q3 -28 -16 -28h-74q-23 0 -35 13.5t-12 35.5v479q0 100 -62.5 162t-173.5 62q-156 0 -309 -153v-576q0 -9 -6 -16t-15 -7h-92q-19 0 -19 23z" />
<glyph unicode="n" horiz-adv-x="1004" d="M104 23v815q0 8 6 14.5t13 6.5h66q20 0 32.5 -15.5t14.5 -34.5v-71q156 133 321 133q93 0 171.5 -34.5t130.5 -110.5t52 -181v-391q4 -80 7 -126q4 -28 -15 -28h-75q-23 0 -35 13.5t-12 35.5v479q0 101 -62 162.5t-174 61.5q-161 0 -309 -146v-583q0 -9 -6 -16t-15 -7 h-92q-19 0 -19 23z" />
<glyph unicode="o" horiz-adv-x="1027" d="M69 429q0 -121 60 -222t162.5 -159t223.5 -58q182 0 312.5 128t130.5 311q0 187 -130 315.5t-313 128.5q-121 0 -223.5 -58t-162.5 -160t-60 -226zM198 429q0 130 91.5 224.5t225.5 94.5q132 0 223.5 -95t91.5 -224q0 -127 -91.5 -221.5t-223.5 -94.5q-134 0 -225.5 94 t-91.5 222z" />
<glyph unicode="p" horiz-adv-x="1003" d="M104 831q-4 28 16 28h80q21 0 33 -11.5t12 -31.5v-30q121 82 272 82q77 0 149 -31t127.5 -86t89 -137t33.5 -177q0 -191 -109.5 -319t-289.5 -128q-146 0 -272 92v-538q0 -24 -20 -39t-43 -15h-48q-8 0 -13.5 6t-5.5 15v1221q0 26 -5.5 61t-5.5 38zM245 194 q122 -83 251 -83q128 0 210 90.5t82 235.5q0 76 -26.5 137t-69.5 97t-93.5 55t-102.5 19q-132 0 -251 -84v-467z" />
<glyph unicode="q" horiz-adv-x="985" d="M87 436q0 95 34 177t90 136.5t128 85.5t149 31q149 0 270 -82v21q0 24 20 39t43 15h49q20 0 20 -21v-1222q0 -8 9 -98q3 -28 -16 -28h-79q-21 0 -33.5 11.5t-12.5 31.5v547q-122 -92 -270 -92q-180 0 -290.5 128.5t-110.5 319.5zM217 436q0 -145 82 -236t210 -91 q126 0 249 84v467q-118 83 -249 83q-53 0 -103.5 -18.5t-93.5 -54.5t-69 -97t-26 -137z" />
<glyph unicode="r" horiz-adv-x="727" d="M109 23v815q0 8 5 14.5t14 6.5h66q20 0 33 -15.5t13 -34.5v-49q109 106 244 106q108 0 193 -57q22 -14 10 -30l-50 -73q-7 -15 -26 -7q-44 23 -75.5 33.5t-75.5 10.5q-57 0 -116 -31t-104 -105v-584q0 -9 -5.5 -16t-14.5 -7h-92q-19 0 -19 23z" />
<glyph unicode="s" horiz-adv-x="813" d="M82 118l43 63q12 19 29 10q6 -6 35 -22.5t90 -36t120 -19.5q100 0 145.5 35t45.5 85q0 24 -12 44t-29 34t-48 27t-57.5 21t-68.5 19q-288 74 -288 252q0 101 83 171t227 70q135 0 283 -88q25 -13 13 -30l-46 -66q-11 -19 -29 -8q-128 66 -221 66q-52 0 -89 -12.5 t-53.5 -33t-23.5 -38.5t-7 -36q0 -28 15.5 -49.5t48.5 -38t60.5 -26.5t74.5 -23q66 -18 115.5 -37.5t97.5 -49.5t74 -72.5t26 -95.5q0 -110 -92 -177.5t-245 -67.5q-94 0 -180 34t-130 70q-16 13 -7 26z" />
<glyph unicode="t" horiz-adv-x="668" d="M69 753v26q0 16 13 25q57 27 90 57.5t59.5 90t47.5 161.5q5 17 16 17h21q14 0 14 -19v-252h215q9 0 16 -6t7 -16v-84q0 -9 -7 -15t-16 -6h-182q-17 0 -35 6v-410q0 -115 20.5 -164t92.5 -49q53 0 106 17q30 9 34 -12l16 -70q6 -12 -17 -26q-64 -33 -158 -33 q-130 0 -177 75t-47 245v421h-108q-21 0 -21 21z" />
<glyph unicode="u" horiz-adv-x="996" d="M87 830q-3 29 15 29h75q47 0 47 -50v-478q0 -102 61.5 -163.5t174.5 -61.5q159 0 311 154v575q0 24 19 24h92q19 0 19 -24v-814q0 -9 -5.5 -15t-13.5 -6h-75q-14 0 -25 16t-11 33v74q-153 -135 -323 -135q-146 0 -250 85.5t-104 240.5v389q-4 83 -7 127z" />
<glyph unicode="v" horiz-adv-x="977" d="M47 842l411 -835q9 -17 24 -17h16q15 0 24 17l408 835q3 8 -1.5 12.5t-13.5 4.5h-104q-14 0 -21 -17l-301 -629l-302 629q-7 17 -19 17h-109q-19 0 -12 -17z" />
<glyph unicode="w" horiz-adv-x="1385" d="M47 838q-7 21 12 21h104q16 0 21 -14l224 -633l245 625q8 15 24 15h31q16 0 24 -15l247 -625l222 633q5 14 21 14h104q20 0 12 -21l-312 -822q-5 -16 -23 -16h-17q-16 0 -24 16l-269 617l-270 -617q-8 -16 -22 -16h-19q-15 0 -23 16z" />
<glyph unicode="x" horiz-adv-x="938" d="M88.5 849q5.5 10 17.5 10h99q15 0 26 -16l238 -329l239 329q9 16 24 16h103q11 0 15 -9.5t-3 -19.5l-299 -401l299 -399q6 -10 1.5 -20t-13.5 -10h-104q-14 0 -23 16l-239 326l-238 -326q-11 -16 -26 -16h-99q-11 0 -16 10.5t2 19.5l295 399l-297 401q-7 9 -1.5 19z" />
<glyph unicode="y" horiz-adv-x="968" d="M56 853.5q4 5.5 13 5.5h108q13 0 21 -14l297 -602l284 599q7 17 25 17h102q26 0 16 -24l-356 -734q-110 -226 -217.5 -385.5t-192.5 -246.5q-16 -16 -36 7l-52 50q-19 19 1 42q96 108 196.5 256.5t159.5 286.5l-368 726q-5 11 -1 16.5z" />
<glyph unicode="z" horiz-adv-x="841" d="M90 45l28 44l430 638h-428q-21 0 -21 21v90q0 21 21 21h607q16 0 23.5 -14t1.5 -28l-23 -36l-439 -649h437q21 0 21 -21v-90q0 -21 -21 -21h-611q-17 0 -25.5 16t-0.5 29z" />
<glyph unicode="{" horiz-adv-x="800" d="M69 590q0 -7 6 -13t14 -6q78 -30 106 -53q41 -33 41 -79v-226q0 -119 30 -213.5t77.5 -153t112 -97.5t127.5 -55.5t130 -18.5q7 0 12.5 5.5t5.5 12.5v66q0 12 -2 14.5t-10 2.5q-171 12 -266 129t-95 293v208q0 51 -19 92.5t-48 64.5t-53.5 35.5t-44.5 15.5v21 q14 0 39.5 13t54.5 36.5t50 66.5t21 94v229q0 173 94 281t267 120q12 0 12 18v64q0 13 -4.5 16t-13.5 3q-67 0 -130 -13.5t-127.5 -50t-112 -92.5t-77.5 -149t-30 -212v-245q0 -38 -34 -71.5t-67 -48t-46 -14.5q-8 0 -14 -6t-6 -13v-71z" />
<glyph unicode="|" horiz-adv-x="477" d="M174 -323v2060q0 21 22 21h85q23 0 23 -21v-2060q0 -22 -23 -22h-85q-22 0 -22 22z" />
<glyph unicode="}" horiz-adv-x="800" d="M69 -241v-66q0 -7 5.5 -12.5t12.5 -5.5q67 2 130 18.5t127.5 55.5t112 97.5t77.5 153t30 213.5v226q0 27 12.5 48.5t39 38t41 23t45.5 18.5q7 3 10 4q8 0 13.5 5.5t5.5 13.5v71q0 7 -5.5 13t-13.5 6q-13 0 -46.5 14.5t-67.5 48t-34 71.5v245q0 119 -30 212t-77.5 149 t-112 92.5t-127.5 50t-130 13.5q-6 0 -9 -0.5t-6 -5t-3 -13.5v-64q0 -18 13 -18q173 -12 267 -120t94 -281v-229q0 -51 21 -94t50 -66.5t54 -36.5t39 -13v-21q-20 -3 -44.5 -15.5t-53 -35.5t-47.5 -64.5t-19 -92.5v-208q0 -176 -95 -293t-266 -129q-8 0 -10.5 -2.5 t-2.5 -14.5z" />
<glyph unicode="~" horiz-adv-x="846" d="M38 488q-7 -10 2 -19l45 -47q14 -11 24 3l9 11q8 11 10.5 14t11.5 14t15 15.5t16 13t19 13t20.5 9.5t24 7t25.5 2q25 0 50.5 -10t37 -17.5t36.5 -28.5t26 -22q4 -3 19 -16t22 -18.5t24 -15.5t30.5 -15t35 -9t44.5 -4q36 0 72.5 13.5t62.5 33t47 39t31 32.5l11 14 q8 11 0 19l-42 43q-5 7 -12.5 7t-11.5 -7q-9 -15 -25.5 -33.5t-54.5 -41t-78 -22.5q-22 0 -41.5 5t-35.5 15.5t-26 18.5t-24.5 22.5l-18.5 18.5q-30 25 -48.5 38.5t-55.5 27.5t-75 14q-36 0 -72 -14t-62 -34.5t-46.5 -40.5t-31.5 -34z" />
<glyph unicode="&#xa1;" horiz-adv-x="383" d="M101 774q0 37 27 63.5t65 26.5t65 -26.5t27 -63.5q0 -38 -27.5 -65t-64.5 -27t-64.5 27t-27.5 65zM121 -493l18 783q3 19 19 19h71q13 0 17 -19l18 -783v-17q0 -8 -6 -13.5t-13 -5.5h-104q-9 0 -14.5 5.5t-5.5 13.5v17z" />
<glyph unicode="&#xa2;" horiz-adv-x="1004" d="M80 434q0 124 60.5 229t165 166t227.5 61q44 0 80 -7l31 91q5 17 26 12l36 -14q18 -9 13 -24l-30 -87q108 -44 177 -134q15 -16 -2 -31l-53 -50q-17 -14 -35 7q-51 62 -127 93l-215 -628q56 -17 111 -17q144 0 257 139q17 22 33 3l52 -45q15 -15 2 -30 q-67 -87 -157.5 -139t-198.5 -52q-76 0 -141 23l-43 -128q-5 -18 -24 -13l-39 16q-7 2 -10.5 9t-1.5 14l45 133q-108 58 -173.5 166t-65.5 237zM208 434q0 -77 39.5 -156t113.5 -127l212 616q-9 2 -28 2q-83 0 -149.5 -31.5t-106 -81.5t-60.5 -107.5t-21 -114.5z" />
<glyph unicode="&#xa3;" horiz-adv-x="1029" d="M90 561v76q0 21 21 21h158q-5 14 -16 36l-38 89q-26 56 -37 82.5t-22 66t-12 73.5q-2 121 57 216t154.5 143.5t206.5 48.5q238 0 380 -169q15 -16 2 -26l-71 -53q-13 -11 -28 0q-1 1 -12.5 12t-19 17.5t-24 19.5t-30.5 21.5t-36 19.5t-43.5 17.5t-49.5 11t-57 4.5 q-126 0 -211 -81t-83 -192q0 -34 9.5 -71t16.5 -54t31.5 -66.5t29.5 -58.5q24 -49 42 -107h295q19 0 19 -21v-76q0 -21 -19 -21h-271q2 -16 2 -45q2 -164 -135 -377h584q20 0 20 -21v-76q0 -9 -6 -15t-14 -6h-735q-21 0 -21 19v24q77 106 126 227.5t47 213.5q0 28 -5 56 h-184q-21 0 -21 21z" />
<glyph unicode="&#xa4;" horiz-adv-x="1145" d="M76 384q-13 13 0 26l124 125q-84 121 -84 263q0 148 85 266l-123 123q-13 13 0 26l80 80q13 13 26 0l123 -123q118 85 266 85q147 0 265 -85l122 123q13 13 26 0l80 -80q12 -12 -2 -26l-122 -121q87 -121 87 -268q0 -145 -85 -263l123 -125q14 -14 2 -26l-80 -80 q-13 -12 -26 1l-123 124q-121 -87 -267 -87q-147 0 -268 87l-124 -124q-13 -13 -27 -1zM248 800q0 -137 93.5 -232.5t232.5 -95.5q135 0 231 96t96 232t-96 229.5t-231 93.5q-139 0 -232.5 -93t-93.5 -230z" />
<glyph unicode="&#xa5;" horiz-adv-x="1266" d="M18.5 1382q3.5 6 11.5 6h118q14 0 22 -17l463 -663l464 663q12 17 21 17h119q8 0 11.5 -6t-2.5 -14l-540 -785h252q10 0 17 -6t7 -15v-76q0 -21 -24 -21h-257v-147h257q24 0 24 -23v-75q0 -22 -24 -22h-257v-174q0 -24 -21 -24h-69q-47 0 -47 49v149h-255q-23 0 -23 22 v75q0 23 23 23h255v147h-255q-23 0 -23 21v75q0 22 23 22h250l-540 785q-4 8 -0.5 14z" />
<glyph unicode="&#xa6;" horiz-adv-x="477" d="M174 -323v814q0 23 22 23h85q23 0 23 -23v-814q0 -22 -23 -22h-85q-22 0 -22 22zM174 925v814q0 23 22 23h85q23 0 23 -23v-814q0 -24 -23 -24h-85q-22 0 -22 24z" />
<glyph unicode="&#xa7;" horiz-adv-x="1089" d="M89 -286l41 57q16 22 37 7q73 -68 122 -101q125 -83 247 -83q84 0 158.5 31.5t123 94.5t48.5 145q0 38 -13.5 71t-33.5 57.5t-55 47t-64 37t-75.5 30.5t-75.5 24.5t-77 20.5q-375 97 -375 373q0 160 120 257q-120 95 -120 248q0 55 17 108.5t53.5 103t88 87.5t127 60.5 t164.5 22.5q193 0 386 -155q7 -5 9 -7q22 -14 7 -36l-43 -61q-17 -24 -40 -10q-87 71 -148 102q-93 47 -182 47q-131 0 -218 -77t-87 -185q0 -55 19.5 -94t71.5 -68.5t84.5 -42.5t114.5 -39q22 -7 33 -11q70 -22 123 -42.5t118.5 -56.5t107.5 -76.5t71 -100t29 -129.5 q0 -159 -114 -263q114 -102 114 -243q0 -75 -33.5 -146t-92 -126t-144.5 -88t-185 -33q-252 0 -448 199l-6 6q-20 16 -5 37zM224 526q0 -48 19.5 -87t47 -63.5t76.5 -47t87 -34t100 -27.5q134 -35 224 -83q95 68 95 187q0 49 -25.5 91t-52 66.5t-91.5 53.5t-92 38t-106 34 q-23 7 -34 11q-89 28 -135 48q-113 -60 -113 -187z" />
<glyph unicode="&#xa8;" horiz-adv-x="761" d="M62 1305q0 32 22.5 55t54.5 23q35 0 57.5 -22.5t22.5 -55.5t-22.5 -55.5t-57.5 -22.5q-32 0 -54.5 23t-22.5 55zM543 1305q0 32 23 55t55 23q33 0 55.5 -22.5t22.5 -55.5t-22.5 -55.5t-55.5 -22.5q-32 0 -55 23t-23 55z" />
<glyph unicode="&#xa9;" horiz-adv-x="1570" d="M69 699q0 146 56.5 278.5t152.5 228.5t228.5 152.5t277.5 56.5q146 0 279 -56.5t229 -152.5t152.5 -228.5t56.5 -278.5t-56.5 -278.5t-152.5 -228t-229 -152t-279 -56.5q-194 0 -358.5 95.5t-260.5 260t-96 359.5zM184 701q0 -164 81 -302.5t219.5 -219t301.5 -80.5 q162 0 300.5 80.5t219.5 219t81 302.5q0 163 -81 301t-219.5 218t-300.5 80q-163 0 -301.5 -80t-219.5 -218t-81 -301zM456 705q0 139 99.5 237.5t237.5 98.5q77 0 140 -33t107 -86q11 -15 -2 -25l-50 -43q-10 -11 -25 5q-68 80 -161 80q-76 0 -132.5 -38t-82 -90 t-25.5 -106t25.5 -106.5t82 -91t132.5 -38.5q102 0 180 95q12 17 25 4l48 -39q10 -10 2 -22q-49 -64 -117 -103.5t-147 -39.5q-138 0 -237.5 100t-99.5 241z" />
<glyph unicode="&#xaa;" d="M78 220q0 -106 74.5 -167.5t205.5 -61.5q102 0 174 26.5t157 79.5q9 -97 38 -97h73q21 0 16 33q-23 231 -12 503q7 154 -74 244t-237 90q-97 0 -194.5 -25.5t-166.5 -63.5q-11 -5 -15 -14.5t1 -18.5l30 -66q8 -22 33 -9q168 80 307 80q94 0 143.5 -49.5t45.5 -148.5 q-102 -17 -172.5 -31.5t-144.5 -35.5t-121 -44.5t-86 -55.5t-57 -74t-18 -94zM212 222q0 31 13 56t48 45.5t60.5 34t88.5 29.5t92 22.5t108 22.5q11 2 17.5 3.5t17 3.5t18.5 4q-5 -131 0 -247q-59 -39 -137.5 -69t-157.5 -30q-74 0 -121 30.5t-47 94.5z" />
<glyph unicode="&#xab;" horiz-adv-x="904" d="M80 400q0 -16 7 -27l258 -347q10 -10 19 -10h84q14 0 18.5 9.5t-4.5 21.5l-240 354l243 340q7 13 3 23t-17 10h-76q-13 0 -23 -14l-265 -337q-7 -7 -7 -23zM423.5 395q0.5 -16 8.5 -25l264 -340q8 -14 23 -14h78q14 0 18.5 10t-3.5 23l-246 347l245 347q4 12 0 21.5 t-16 9.5h-82q-13 0 -20 -10l-261 -344q-9 -9 -8.5 -25z" />
<glyph unicode="&#xac;" horiz-adv-x="1036" d="M69 625v74q0 21 23 21h847q21 0 21 -21v-430q0 -24 -21 -24h-75q-22 0 -22 24v333h-750q-23 0 -23 23z" />
<glyph unicode="&#xad;" horiz-adv-x="730" d="M69 397v77q0 22 25 22h546q21 0 21 -22v-75q0 -22 -21 -22h-546q-25 0 -25 20z" />
<glyph unicode="&#xae;" horiz-adv-x="1039" d="M26 1126q0 204 145 348.5t350 144.5t349 -144.5t144 -348.5q0 -135 -65.5 -248.5t-179 -179.5t-248.5 -66t-249 66t-180 179.5t-66 248.5zM111 1125q0 -168 120 -288t290 -120q169 0 289 120t120 288q0 171 -119.5 291t-289.5 120q-171 0 -290.5 -120t-119.5 -291z M345 892v469q0 5 4 9.5t9 4.5h204q68 0 113 -46.5t45 -104.5q0 -50 -30 -91t-79 -57l109 -180q8 -14 -8 -14h-58q-9 0 -12 5l-107 182h-113v-177q0 -4 -4 -7t-8 -3h-52q-13 0 -13 10zM420 1139h134q39 0 61.5 25.5t22.5 56t-22 56t-62 25.5h-134v-163z" />
<glyph unicode="&#xaf;" horiz-adv-x="888" d="M69 1237v68q0 18 18 18h713q19 0 19 -18v-68q0 -17 -19 -17h-713q-18 0 -18 17z" />
<glyph unicode="&#xb0;" horiz-adv-x="683" d="M111 1128q0 95 68 163t163 68q96 0 164 -68t68 -163q0 -96 -68 -165t-164 -69q-95 0 -163 69t-68 165zM203 1128q0 -57 41.5 -98.5t97.5 -41.5q58 0 99 41.5t41 98.5q0 56 -41 96.5t-99 40.5q-56 0 -97.5 -40.5t-41.5 -96.5z" />
<glyph unicode="&#xb1;" horiz-adv-x="1029" d="M97 23v74q0 23 23 23h791q21 0 21 -21v-76q0 -23 -21 -23h-791q-23 0 -23 23zM97 755v83q0 23 21 23h333v331q0 23 21 23h85q21 0 21 -23v-331h331q23 0 23 -23v-83q0 -23 -23 -23h-331v-331q0 -23 -21 -23h-85q-21 0 -21 23v331h-333q-21 0 -21 23z" />
<glyph unicode="&#xb2;" horiz-adv-x="1011" d="M83 1133q76 112 188 170.5t236 58.5q169 0 296 -112t126 -278q0 -168 -134 -316l-483 -524h596q19 0 19 -21v-90q0 -8 -12.5 -14.5t-22.5 -6.5h-779q-19 0 -23 21v40l545 599q81 87 121.5 158t40.5 154q0 107 -87 183.5t-208 76.5q-105 0 -189 -53.5t-143 -133.5 q-5 -7 -14.5 -7t-16.5 7l-54 55q-13 13 -2 33z" />
<glyph unicode="&#xb3;" horiz-adv-x="1043" d="M85 222q-13 18 0 31l66 59q17 14 30 -1q58 -86 153.5 -141t196.5 -55q76 0 134.5 26t92 68.5t50 90t16.5 96.5q0 107 -69 186t-186 79q-54 0 -172 -40q-15 -5 -26 9l-50 66q-12 17 2 31l456 478h-637q-9 0 -15.5 6.5t-6.5 15.5v87q0 22 22 22h767q23 0 23 -22v-97 q0 -19 -14 -35l-403 -420q86 14 169 -14q125 -24 203 -129t78 -234q0 -173 -125.5 -287.5t-306.5 -114.5q-276 0 -448 239z" />
<glyph unicode="&#xb4;" horiz-adv-x="616" d="M71 1133l26 -45q8 -16 28 -7l368 229q20 14 9 32l-37 60q-5 9 -14.5 10t-16.5 -6l-359 -248q-14 -10 -4 -25z" />
<glyph unicode="&#xb6;" horiz-adv-x="1565" d="M78 951q0 76 30.5 153t85.5 140.5t139.5 103.5t183.5 40h946q24 0 24 -24v-78q0 -24 -24 -24h-206v-1238q0 -24 -25 -24h-87q-22 0 -22 24l2 1238h-285v-1238q0 -24 -24 -24h-87q-23 0 -23 24v476h-189q-99 0 -183.5 39t-139.5 103t-85.5 144.5t-30.5 164.5zM215.5 943.5 q0.5 -59.5 21 -117t59.5 -102t101.5 -72t140.5 -27.5h168l2 637h-170q-78 0 -141 -27.5t-101.5 -72t-59.5 -102t-20.5 -117z" />
<glyph unicode="&#xb7;" horiz-adv-x="348" d="M87 522q0 35 26.5 62t61.5 27t61 -27t26 -62q0 -36 -26 -62t-61 -26q-36 0 -62 26t-26 62z" />
<glyph unicode="&#xb8;" horiz-adv-x="579" d="M85 -458l30 31q15 14 26 2q55 -59 128 -59q72 0 112.5 42t40.5 105q0 61 -39.5 103.5t-108.5 42.5q-38 0 -66.5 -13.5t-58.5 -45.5q-15 -16 -26 -5l-29 33q-8 5 -4 14l12 17l111 191h89l-68 -115q28 4 42 4q93 0 160 -66t67 -160q0 -93 -68 -160t-163 -67q-117 0 -185 88 q-8 12 -2 18z" />
<glyph unicode="&#xb9;" horiz-adv-x="480" d="M61 1116q0 18 15 21q59 24 106.5 75t77.5 107l2 9q3 8 23 8h79q21 0 21 -20v-1293q0 -23 -21 -23h-90q-24 0 -24 23v1053l-155 -43q-19 -3 -22 15z" />
<glyph unicode="&#xba;" horiz-adv-x="1027" d="M69 429q0 -121 60 -222t162.5 -159t223.5 -58q182 0 312.5 128t130.5 311q0 187 -130 315.5t-313 128.5q-121 0 -223.5 -58t-162.5 -160t-60 -226zM198 429q0 130 91.5 224.5t225.5 94.5q132 0 223.5 -95t91.5 -224q0 -127 -91.5 -221.5t-223.5 -94.5q-134 0 -225.5 94 t-91.5 222z" />
<glyph unicode="&#xbb;" horiz-adv-x="904" d="M84.5 26q4.5 -10 17.5 -10h79q10 0 24 14l262 340q8 9 8.5 25t-8.5 25l-259 344q-7 10 -22 10h-80q-14 0 -18 -9.5t2 -21.5l243 -347l-246 -347q-7 -13 -2.5 -23zM432 764q-5 -10 2 -23l245 -340l-242 -354q-7 -12 -3 -21.5t17 -9.5h85q12 0 18 10l260 347q7 11 7 26.5 t-7 23.5l-266 337q-10 14 -24 14h-74q-13 0 -18 -10z" />
<glyph unicode="&#xbc;" horiz-adv-x="1263" d="M87 1217q0 12 8 15q56 21 92 62.5t53 87.5q3 5 12 5h55q16 0 16 -14v-580q0 -15 -16 -15h-59q-17 0 -17 15v401l-123 -29q-15 -3 -18 8zM215 8q-5 8 0 20l722 1340q11 20 30 20h41q15 0 20 -7t-1 -20l-723 -1340q-9 -21 -28 -21h-42q-14 0 -19 8zM772 175v58q0 4 6 8 q114 82 157 205q32 91 32 167q0 10 10 10h63q8 0 8 -9q-3 -128 -60 -246q-32 -62 -106 -125h135v42q0 10 9 10l62 7q9 0 9 -10v-49h69q11 0 11 -10v-58q0 -12 -11 -12h-69v-153q0 -10 -11 -10h-59q-10 0 -10 10v153h-234q-11 0 -11 12z" />
<glyph unicode="&#xbd;" horiz-adv-x="1291" d="M87 1217q0 12 8 15q56 21 92 62.5t53 87.5q3 5 12 5h55q16 0 16 -14v-580q0 -15 -16 -15h-59q-17 0 -17 15v401l-123 -29q-15 -3 -18 8zM215 8q-5 8 0 20l722 1340q11 20 30 20h41q15 0 20 -7t-1 -20l-723 -1340q-9 -21 -28 -21h-42q-14 0 -19 8zM797 522 q60 87 155.5 104.5t170.5 -38.5q68 -50 75 -133t-54 -153l-196 -217h244q9 0 9 -9v-66q0 -10 -9 -10h-376q-11 0 -11 10v25l42 50h2l198 217q3 4 17 21.5t18 22t13.5 19t12.5 23.5t6.5 22t3.5 26q0 46 -38 79t-91 33q-73 0 -137 -79q-5 -9 -14 0l-40 40q-6 4 -1 13z" />
<glyph unicode="&#xbe;" horiz-adv-x="1251" d="M73 868q-4 10 0 14l40 40q8 6 14 -2q45 -65 117 -81t129 37q25 25 27 66t-19 74t-62 49t-102 -8q-3 -3 -10 3l-33 40q-6 6 0 13l189 196h-264q-10 0 -10 8v58q0 13 10 13h357q13 0 13 -12v-62q0 -3 -4 -7l-168 -170q55 1 99.5 -31t65 -78t17 -99.5t-35.5 -93.5 q-45 -52 -112 -69.5t-138 8.5t-120 94zM220.5 8q-5.5 8 1.5 20l722 1340q9 20 28 20h43q14 0 19.5 -7t-1.5 -20l-722 -1340q-7 -13 -12 -17t-16 -4h-43q-14 0 -19.5 8zM776 175v58q0 5 5 8q115 83 158 205q31 80 31 167q0 10 11 10h62q3 0 6 -3t3 -6q0 -120 -59 -246 q-30 -59 -108 -125h136v42q0 10 8 10l63 7q8 0 8 -10v-49h70q12 0 12 -10v-58q0 -12 -12 -12h-70v-153q0 -10 -10 -10h-57q-12 0 -12 10v153h-235q-10 0 -10 12z" />
<glyph unicode="&#xbf;" horiz-adv-x="801" d="M35.5 -222.5q-17.5 74.5 1.5 153.5t76 133q44 42 91.5 74.5t74 48t50 37t33 54t9.5 86.5q0 23 21 23h80q23 0 23 -23l1 -74q0 -48 -35 -89.5t-85 -74.5t-100 -67t-86 -81.5t-37 -104.5q-4 -100 62 -168.5t200 -68.5q51 0 97 16t82 44t57.5 50.5t44.5 52.5q14 13 24 0 l51 -54q12 -12 0 -28q-102 -131 -247.5 -175.5t-289.5 7.5q-76 27 -128.5 90.5t-70 138zM340 842q0 38 27 65t65 27t66 -27.5t28 -64.5q0 -38 -28 -66t-66 -28q-37 0 -64.5 28t-27.5 66z" />
<glyph unicode="&#xc0;" horiz-adv-x="1513" d="M72 6q-4 6 1 17l651 1359q9 15 21 15h24q15 0 21 -15l651 -1359q11 -23 -13 -23h-105q-17 0 -25 16l-121 258h-839l-121 -258q-8 -16 -23 -16h-109q-9 0 -13 6zM397 399h721l-361 764zM543 1815l37 61q15 20 31 4l359 -249q13 -9 5 -24l-26 -45q-11 -15 -29 -7l-368 229 q-18 13 -9 31z" />
<glyph unicode="&#xc1;" horiz-adv-x="1513" d="M72 6q-4 6 1 17l651 1359q9 15 21 15h24q15 0 21 -15l651 -1359q11 -23 -13 -23h-105q-17 0 -25 16l-121 258h-839l-121 -258q-8 -16 -23 -16h-109q-9 0 -13 6zM397 399h721l-361 764zM524 1607q-10 14 4 24l359 249q7 7 16.5 6t14.5 -10l37 -61q11 -17 -9 -31l-368 -229 q-20 -9 -28 7z" />
<glyph unicode="&#xc2;" horiz-adv-x="1513" d="M72 6q-4 6 1 17l651 1359q9 15 21 15h24q15 0 21 -15l651 -1359q11 -23 -13 -23h-105q-17 0 -25 16l-121 258h-839l-121 -258q-8 -16 -23 -16h-109q-9 0 -13 6zM397 399h721l-361 764zM411 1548v63q0 8 12 20l311 233q9 7 24 7t25 -7l310 -233q13 -9 13 -20v-63 q0 -12 -9.5 -15.5t-22.5 3.5l-316 213l-314 -213q-14 -7 -23.5 -3.5t-9.5 15.5z" />
<glyph unicode="&#xc3;" horiz-adv-x="1513" d="M72 6q-4 6 1 17l651 1359q9 15 21 15h24q15 0 21 -15l651 -1359q11 -23 -13 -23h-105q-17 0 -25 16l-121 258h-839l-121 -258q-8 -16 -23 -16h-109q-9 0 -13 6zM371 1708q3 5 11.5 16t30 32t46 38t61.5 30.5t75 13.5q43 0 80.5 -14t65 -34t54 -39.5t58.5 -33.5t67 -14 q90 0 168 78q4 5 12 5.5t13 -4.5l39 -45q12 -12 0 -24l-4 -5q-5 -6 -11 -12.5t-16 -16.5t-21.5 -19.5t-26 -20t-31.5 -19t-35.5 -15.5t-40 -11t-43.5 -4q-44 0 -80.5 14t-61.5 34t-49.5 39.5t-58 33.5t-74.5 14q-88 0 -160 -83q-13 -14 -26 -4l-40 44q-11 11 -2 26zM397 399 h721l-361 764z" />
<glyph unicode="&#xc4;" horiz-adv-x="1513" d="M72 6q-4 6 1 17l651 1359q9 15 21 15h24q15 0 21 -15l651 -1359q11 -23 -13 -23h-105q-17 0 -25 16l-121 258h-839l-121 -258q-8 -16 -23 -16h-109q-9 0 -13 6zM397 399h721l-361 764zM441 1779q0 32 22.5 55t53.5 23q35 0 57.5 -22.5t22.5 -55.5t-22.5 -55.5 t-57.5 -22.5q-31 0 -53.5 23t-22.5 55zM922 1779q0 32 23 55t55 23q33 0 55.5 -22.5t22.5 -55.5t-22.5 -55.5t-55.5 -22.5q-32 0 -55 23t-23 55z" />
<glyph unicode="&#xc5;" horiz-adv-x="1513" d="M72 6q-4 6 1 17l651 1359q9 15 21 15h24q15 0 21 -15l651 -1359q11 -23 -13 -23h-105q-17 0 -25 16l-121 258h-839l-121 -258q-8 -16 -23 -16h-109q-9 0 -13 6zM397 399h721l-361 764zM550 1666q0 86 61.5 147t148.5 61q85 0 146 -61t61 -147q0 -87 -61 -148.5 t-146 -61.5q-87 0 -148.5 61.5t-61.5 148.5zM627 1666q0 -56 39 -94.5t94 -38.5q56 0 94 38.5t38 94.5q0 55 -38 93.5t-94 38.5q-55 0 -94 -38.5t-39 -93.5z" />
<glyph unicode="&#xc6;" horiz-adv-x="2002" d="M72 6q-4 6 1 17l847 1343q14 22 31 22h925q24 0 24 -22v-87q0 -22 -24 -22h-753v-509h465q24 0 24 -24v-84q0 -22 -24 -22h-465v-486h753q24 0 24 -24v-84q0 -24 -24 -24h-869q-21 0 -21 23v187h-641l-123 -194q-11 -16 -24 -16h-111q-11 0 -15 6zM425 335h561v882z" />
<glyph unicode="&#xc7;" horiz-adv-x="1386" d="M78 693q0 145 56.5 276.5t151.5 226t226.5 150t275.5 55.5q147 0 276.5 -54t228.5 -153q22 -22 7 -36l-73 -61q-18 -15 -35 2q-65 68 -169 119t-225 51q-136 0 -249.5 -51.5t-185 -135t-111 -185t-39.5 -204.5q0 -83 24 -165t73.5 -155.5t118 -130t164 -89.5t205.5 -33 q121 0 220.5 48.5t168.5 117.5q21 21 37 7l72 -60q19 -14 -6 -39q-206 -206 -502 -206h-2l-61 -103q28 4 42 4q93 0 160 -66t67 -160q0 -93 -67.5 -160t-162.5 -67q-118 0 -186 88q-8 12 -2 18l30 31q15 14 26 2q55 -59 128 -59q72 0 112.5 42t40.5 105q0 61 -39.5 103.5 t-108.5 42.5q-38 0 -66.5 -13.5t-58.5 -45.5q-16 -16 -26 -5l-29 33q-8 5 -4 14l13 17l107 184q-174 21 -316 117t-224.5 249.5t-82.5 333.5z" />
<glyph unicode="&#xc8;" horiz-adv-x="1147" d="M130 23v1343q0 22 23 22h868q24 0 24 -22v-87q0 -22 -24 -22h-754v-509h465q25 0 25 -24v-84q0 -22 -25 -22h-465v-486h754q24 0 24 -24v-84q0 -24 -24 -24h-868q-23 0 -23 23zM377 1803l36 61q15 19 31 3l360 -248q13 -9 5 -24l-26 -45q-11 -15 -30 -7l-368 229 q-17 12 -8 31z" />
<glyph unicode="&#xc9;" horiz-adv-x="1147" d="M130 23v1343q0 22 23 22h868q24 0 24 -22v-87q0 -22 -24 -22h-754v-509h465q25 0 25 -24v-84q0 -22 -25 -22h-465v-486h754q24 0 24 -24v-84q0 -24 -24 -24h-868q-23 0 -23 23zM356 1595q-10 15 3 24l360 248q19 17 31 -3l36 -61q11 -18 -8 -31l-368 -229q-20 -9 -28 7z " />
<glyph unicode="&#xca;" horiz-adv-x="1147" d="M130 23v1343q0 22 23 22h868q24 0 24 -22v-87q0 -22 -24 -22h-754v-509h465q25 0 25 -24v-84q0 -22 -25 -22h-465v-486h754q24 0 24 -24v-84q0 -24 -24 -24h-868q-23 0 -23 23zM245 1536v62q0 9 12 21l311 233q9 7 23.5 7t24.5 -7l311 -233q12 -9 12 -21v-62 q0 -12 -9 -15.5t-22 3.5l-316 213l-314 -213q-14 -7 -23.5 -3.5t-9.5 15.5z" />
<glyph unicode="&#xcb;" horiz-adv-x="1147" d="M130 23v1343q0 22 23 22h868q24 0 24 -22v-87q0 -22 -24 -22h-754v-509h465q25 0 25 -24v-84q0 -22 -25 -22h-465v-486h754q24 0 24 -24v-84q0 -24 -24 -24h-868q-23 0 -23 23zM272 1767q0 32 22.5 55t54.5 23q35 0 57.5 -22.5t22.5 -55.5t-22.5 -55.5t-57.5 -22.5 q-32 0 -54.5 23t-22.5 55zM753 1767q0 32 23 55t55 23q33 0 55.5 -22.5t22.5 -55.5t-22.5 -55.5t-55.5 -22.5q-32 0 -55 23t-23 55z" />
<glyph unicode="&#xcc;" horiz-adv-x="411" d="M-9 1795q-10 -19 9 -32l368 -229q18 -8 29 7l26 45q8 16 -5 25l-359 248q-16 16 -31 -4zM139 23q0 -23 22 -23h91q20 0 20 23v1343q0 22 -22 22h-89q-22 0 -22 -22v-1343z" />
<glyph unicode="&#xcd;" horiz-adv-x="411" d="M-28 1586l26 -45q8 -16 28 -7l368 229q20 14 9 32l-37 60q-5 9 -14.5 10t-16.5 -6l-359 -248q-14 -10 -4 -25zM139 23q0 -23 22 -23h91q20 0 20 23v1343q0 22 -22 22h-89q-22 0 -22 -22v-1343z" />
<glyph unicode="&#xce;" horiz-adv-x="411" d="M-141 1527q0 -12 9.5 -15.5t23.5 3.5l315 214l315 -214q13 -7 22.5 -3.5t9.5 15.5v63q0 12 -12 21l-311 232q-11 7 -25.5 7t-23.5 -7l-310 -232q-13 -13 -13 -21v-63zM139 23q0 -23 22 -23h91q20 0 20 23v1343q0 22 -22 22h-89q-22 0 -22 -22v-1343z" />
<glyph unicode="&#xcf;" horiz-adv-x="411" d="M-111 1758q0 32 22.5 55t53.5 23q35 0 57.5 -22.5t22.5 -55.5t-22.5 -55.5t-57.5 -22.5q-31 0 -53.5 23t-22.5 55zM139 23q0 -23 22 -23h91q20 0 20 23v1343q0 22 -22 22h-89q-22 0 -22 -22v-1343zM370 1758q0 32 23 55t55 23q33 0 55.5 -22.5t22.5 -55.5t-22.5 -55.5 t-55.5 -22.5q-32 0 -55 23t-23 55z" />
<glyph unicode="&#xd0;" horiz-adv-x="1416" d="M35 651v85q0 24 22 24h64v606q0 22 23 22h469q138 0 255 -39t199.5 -105.5t140.5 -154.5t85.5 -186t27.5 -200q0 -108 -28 -209.5t-85.5 -191t-139.5 -157t-198 -106.5t-252 -39h-474q-23 0 -23 23v605h-64q-22 0 -22 23zM257 760h326q21 0 21 -21v-88q0 -23 -21 -23 h-324v-496h366q131 0 239.5 48.5t176.5 130t105 182.5t36 210q0 86 -22.5 167t-68.5 151.5t-111.5 123t-156.5 82.5t-198 30h-368v-497z" />
<glyph unicode="&#xd1;" horiz-adv-x="1449" d="M130 23v1345q0 20 21 20h57q17 0 33 -19l943 -1119v1119q0 19 19 19h95q21 0 21 -19v-1350q0 -19 -21 -19h-36q-34 0 -84 54l-912 1078v-1109q0 -23 -23 -23h-90q-23 0 -23 23zM347 1673q-9 -15 2 -26l40 -43q14 -11 26 3q72 83 159 83q41 0 74.5 -14t58.5 -34t50 -39.5 t61.5 -33.5t80.5 -14q22 0 43.5 4t40 11t35.5 15.5t31.5 19t26 20t21.5 19.5t16 16.5t11 11.5l4 6q12 12 0 25l-40 45q-5 5 -12.5 4t-11.5 -6q-78 -78 -168 -78q-35 0 -67 14t-58.5 34t-54 39.5t-65 33.5t-80.5 14q-38 0 -75 -13.5t-61.5 -30.5t-46 -38t-30 -32t-11.5 -16z " />
<glyph unicode="&#xd2;" horiz-adv-x="1633" d="M104 694q0 -146 56.5 -277t152 -225t227.5 -149t277 -55t276.5 55t227 149t152 225t56.5 277q0 145 -56.5 276t-152 225.5t-227 150t-276.5 55.5q-194 0 -358 -94t-259.5 -256.5t-95.5 -356.5zM240 694q0 156 78 288.5t210.5 209.5t288.5 77t288 -77t209.5 -209.5 t77.5 -288.5t-77.5 -288.5t-209.5 -209t-288 -76.5t-288.5 76.5t-210.5 209t-78 288.5zM604 1812q-9 -18 9 -31l368 -229q18 -8 29 7l26 45q8 15 -5 24l-359 248q-17 17 -32 -3z" />
<glyph unicode="&#xd3;" horiz-adv-x="1633" d="M104 694q0 -146 56.5 -277t152 -225t227.5 -149t277 -55t276.5 55t227 149t152 225t56.5 277q0 145 -56.5 276t-152 225.5t-227 150t-276.5 55.5q-194 0 -358 -94t-259.5 -256.5t-95.5 -356.5zM240 694q0 156 78 288.5t210.5 209.5t288.5 77t288 -77t209.5 -209.5 t77.5 -288.5t-77.5 -288.5t-209.5 -209t-288 -76.5t-288.5 76.5t-210.5 209t-78 288.5zM583 1604l26 -45q8 -16 28 -7l368 229q20 14 9 31l-37 61q-12 20 -31 3l-359 -248q-14 -10 -4 -24z" />
<glyph unicode="&#xd4;" horiz-adv-x="1633" d="M104 694q0 -146 56.5 -277t152 -225t227.5 -149t277 -55t276.5 55t227 149t152 225t56.5 277q0 145 -56.5 276t-152 225.5t-227 150t-276.5 55.5q-194 0 -358 -94t-259.5 -256.5t-95.5 -356.5zM240 694q0 156 78 288.5t210.5 209.5t288.5 77t288 -77t209.5 -209.5 t77.5 -288.5t-77.5 -288.5t-209.5 -209t-288 -76.5t-288.5 76.5t-210.5 209t-78 288.5zM470 1545q0 -12 9.5 -15.5t23.5 3.5l314 213l316 -213q13 -7 22.5 -3.5t9.5 15.5v62q0 12 -13 21l-310 233q-11 7 -25.5 7t-23.5 -7l-311 -233q-12 -12 -12 -21v-62z" />
<glyph unicode="&#xd5;" horiz-adv-x="1633" d="M104 694q0 -146 56.5 -277t152 -225t227.5 -149t277 -55t276.5 55t227 149t152 225t56.5 277q0 145 -56.5 276t-152 225.5t-227 150t-276.5 55.5q-194 0 -358 -94t-259.5 -256.5t-95.5 -356.5zM240 694q0 156 78 288.5t210.5 209.5t288.5 77t288 -77t209.5 -209.5 t77.5 -288.5t-77.5 -288.5t-209.5 -209t-288 -76.5t-288.5 76.5t-210.5 209t-78 288.5zM430 1704q-9 -15 2 -26l40 -43q14 -11 26 3q73 84 160 84q41 0 74.5 -14t58 -34t49.5 -40t61.5 -34t80.5 -14q22 0 43.5 4t40 11t35.5 16t31.5 19t26 20t21.5 19.5t16 16.5t10 12l5 6 q12 12 0 24l-39 45q-5 5 -13 4t-12 -6q-78 -78 -168 -78q-42 0 -83 21.5t-69 46.5t-74.5 46.5t-98.5 21.5q-38 0 -75 -13.5t-61.5 -31t-46 -38.5t-30 -32t-11.5 -16z" />
<glyph unicode="&#xd6;" horiz-adv-x="1633" d="M104 694q0 -146 56.5 -277t152 -225t227.5 -149t277 -55t276.5 55t227 149t152 225t56.5 277q0 145 -56.5 276t-152 225.5t-227 150t-276.5 55.5q-194 0 -358 -94t-259.5 -256.5t-95.5 -356.5zM240 694q0 156 78 288.5t210.5 209.5t288.5 77t288 -77t209.5 -209.5 t77.5 -288.5t-77.5 -288.5t-209.5 -209t-288 -76.5t-288.5 76.5t-210.5 209t-78 288.5zM500 1776q0 32 22.5 55t53.5 23q35 0 57.5 -22.5t22.5 -55.5t-22.5 -56t-57.5 -23q-31 0 -53.5 23.5t-22.5 55.5zM981 1776q0 32 23 55t55 23q33 0 55.5 -22.5t22.5 -55.5t-22.5 -56 t-55.5 -23q-32 0 -55 23.5t-23 55.5z" />
<glyph unicode="&#xd7;" horiz-adv-x="890" d="M113 391q-15 15 0 29l248 248l-248 247q-15 15 0 29l55 57q15 13 30 0l248 -248l247 248q16 12 29 0l56 -57q17 -14 0 -29l-247 -247l247 -248q17 -14 0 -29l-56 -56q-15 -15 -29 2l-247 246l-248 -246q-15 -17 -30 -2z" />
<glyph unicode="&#xd8;" horiz-adv-x="1692" d="M113 26q-15 16 0 31l186 186q-164 195 -164 451q0 145 56.5 276t152 225.5t227.5 150t278 55.5q257 0 449 -160l189 189q15 17 30 2l68 -66q13 -16 -2 -31l-188 -188q164 -198 164 -453q0 -146 -56 -277t-151.5 -225t-226.5 -149t-276 -55q-257 0 -453 158l-186 -186 q-14 -14 -29 0zM271 694q0 -197 125 -356l807 807q-154 124 -354 124q-156 0 -289 -77t-211 -209.5t-78 -288.5zM493 243q156 -123 356 -123q155 0 287 76.5t209.5 209t77.5 288.5q0 199 -123 356z" />
<glyph unicode="&#xd9;" horiz-adv-x="1334" d="M121 512q1 -105 38.5 -199.5t105 -167t171 -115t227.5 -42.5q125 0 229.5 42.5t173.5 115t107.5 167t39.5 199.5v854q0 22 -21 22h-92q-24 0 -24 -22v-835q0 -104 -36.5 -185.5t-97 -129.5t-132 -72t-147.5 -24q-75 0 -144.5 24t-128.5 72t-95 129.5t-36 185.5v835 q0 22 -23 22h-90q-25 0 -25 -22v-854zM451 1786q-9 -18 9 -31l368 -229q18 -8 29 7l26 45q8 15 -5 24l-359 248q-16 16 -31 -3z" />
<glyph unicode="&#xda;" horiz-adv-x="1334" d="M121 512q1 -105 38.5 -199.5t105 -167t171 -115t227.5 -42.5q125 0 229.5 42.5t173.5 115t107.5 167t39.5 199.5v854q0 22 -21 22h-92q-24 0 -24 -22v-835q0 -104 -36.5 -185.5t-97 -129.5t-132 -72t-147.5 -24q-75 0 -144.5 24t-128.5 72t-95 129.5t-36 185.5v835 q0 22 -23 22h-90q-25 0 -25 -22v-854zM430 1578l26 -45q8 -16 28 -7l368 229q20 14 9 31l-37 61q-12 20 -31 3l-359 -248q-14 -10 -4 -24z" />
<glyph unicode="&#xdb;" horiz-adv-x="1334" d="M121 512q1 -105 38.5 -199.5t105 -167t171 -115t227.5 -42.5q125 0 229.5 42.5t173.5 115t107.5 167t39.5 199.5v854q0 22 -21 22h-92q-24 0 -24 -22v-835q0 -104 -36.5 -185.5t-97 -129.5t-132 -72t-147.5 -24q-75 0 -144.5 24t-128.5 72t-95 129.5t-36 185.5v835 q0 22 -23 22h-90q-25 0 -25 -22v-854zM319 1517q0 -12 9.5 -15.5t23.5 3.5l314 213l316 -213q13 -7 22.5 -3.5t9.5 15.5v62q0 12 -13 21l-310 233q-11 7 -25.5 7t-23.5 -7l-311 -233q-12 -12 -12 -21v-62z" />
<glyph unicode="&#xdc;" horiz-adv-x="1334" d="M121 512q1 -105 38.5 -199.5t105 -167t171 -115t227.5 -42.5q125 0 229.5 42.5t173.5 115t107.5 167t39.5 199.5v854q0 22 -21 22h-92q-24 0 -24 -22v-835q0 -104 -36.5 -185.5t-97 -129.5t-132 -72t-147.5 -24q-75 0 -144.5 24t-128.5 72t-95 129.5t-36 185.5v835 q0 22 -23 22h-90q-25 0 -25 -22v-854zM347 1749q0 32 22.5 55.5t53.5 23.5q35 0 57.5 -23t22.5 -56t-22.5 -55.5t-57.5 -22.5q-31 0 -53.5 23t-22.5 55zM828 1749q0 32 23 55.5t55 23.5q33 0 55.5 -23t22.5 -56t-22.5 -55.5t-55.5 -22.5q-32 0 -55 23t-23 55z" />
<glyph unicode="&#xdd;" horiz-adv-x="1299" d="M27 1382q3 6 11 6h122q12 0 21 -17l468 -663l469 663q12 17 21 17h123q7 0 10 -6t-2 -14l-553 -794v-550q0 -24 -21 -24h-69q-46 0 -46 49v525l-553 794q-4 8 -1 14zM427 1581l26 -45q8 -16 28 -7l368 229q19 13 8 31l-36 61q-5 9 -14.5 10t-16.5 -6l-360 -249 q-13 -9 -3 -24z" />
<glyph unicode="&#xde;" horiz-adv-x="1117" d="M127 24v1342q0 22 22 22h87q23 0 23 -22v-227h357q103 0 190.5 -40t142.5 -104t86 -140.5t31 -153.5q0 -84 -30.5 -164t-86.5 -144.5t-143 -103.5t-190 -39h-357v-226q0 -24 -21 -24h-89q-22 0 -22 24zM259 377h345q70 0 128.5 21t96.5 57.5t64.5 84t32 100t0 105.5 t-32 100.5t-64.5 84.5t-96.5 59.5t-128.5 22.5h-345v-635z" />
<glyph unicode="&#xdf;" horiz-adv-x="1110" d="M87 19l2 908q0 218 122 342.5t325 124.5q123 0 222.5 -51t156 -141.5t57.5 -203.5q0 -43 -7 -77t-26 -70.5t-58 -67t-97 -52.5q88 -36 146 -96.5t80.5 -123t22.5 -131.5q0 -88 -34.5 -161.5t-92 -120.5t-131 -72.5t-154.5 -25.5h-53q-20 0 -20 19v75q0 17 25 21 q170 4 253 74.5t83 199.5q0 122 -98 206.5t-263 84.5v80q0 20 14 23l66 5q212 17 212 210q0 110 -80.5 189.5t-223.5 79.5q-151 0 -234 -93.5t-83 -265.5l-2 -889q0 -8 -5 -13.5t-12 -5.5h-94q-19 0 -19 19z" />
<glyph unicode="&#xe0;" d="M78 220q0 -106 74.5 -167.5t205.5 -61.5q102 0 174 26.5t157 79.5q9 -97 38 -97h73q21 0 16 33q-23 231 -12 503q7 154 -74 244t-237 90q-97 0 -194.5 -25.5t-166.5 -63.5q-11 -5 -15 -14.5t1 -18.5l30 -66q8 -22 33 -9q168 80 307 80q94 0 143.5 -49.5t45.5 -148.5 q-102 -17 -172.5 -31.5t-144.5 -35.5t-121 -44.5t-86 -55.5t-57 -74t-18 -94zM212 222q0 31 13 56t48 45.5t60.5 34t88.5 29.5t92 22.5t108 22.5q11 2 17.5 3.5t17 3.5t18.5 4q-5 -131 0 -247q-59 -39 -137.5 -69t-157.5 -30q-74 0 -121 30.5t-47 94.5zM257 1342 q-10 -19 9 -32l367 -229q19 -8 30 7l26 45q8 16 -5 25l-359 248q-7 7 -16 6t-16 -10z" />
<glyph unicode="&#xe1;" d="M78 220q0 -106 74.5 -167.5t205.5 -61.5q102 0 174 26.5t157 79.5q9 -97 38 -97h73q21 0 16 33q-23 231 -12 503q7 154 -74 244t-237 90q-97 0 -194.5 -25.5t-166.5 -63.5q-11 -5 -15 -14.5t1 -18.5l30 -66q8 -22 33 -9q168 80 307 80q94 0 143.5 -49.5t45.5 -148.5 q-102 -17 -172.5 -31.5t-144.5 -35.5t-121 -44.5t-86 -55.5t-57 -74t-18 -94zM212 222q0 31 13 56t48 45.5t60.5 34t88.5 29.5t92 22.5t108 22.5q11 2 17.5 3.5t17 3.5t18.5 4q-5 -131 0 -247q-59 -39 -137.5 -69t-157.5 -30q-74 0 -121 30.5t-47 94.5zM238 1133l26 -45 q8 -16 28 -7l368 229q20 14 8 32l-36 60q-5 9 -14.5 10t-16.5 -6l-360 -248q-14 -10 -3 -25z" />
<glyph unicode="&#xe2;" d="M78 220q0 -106 74.5 -167.5t205.5 -61.5q102 0 174 26.5t157 79.5q9 -97 38 -97h73q21 0 16 33q-23 231 -12 503q7 154 -74 244t-237 90q-97 0 -194.5 -25.5t-166.5 -63.5q-11 -5 -15 -14.5t1 -18.5l30 -66q8 -22 33 -9q168 80 307 80q94 0 143.5 -49.5t45.5 -148.5 q-102 -17 -172.5 -31.5t-144.5 -35.5t-121 -44.5t-86 -55.5t-57 -74t-18 -94zM125 1074q0 -12 9.5 -15.5t23.5 3.5l314 214l316 -214q13 -7 22 -3.5t9 15.5v63q0 12 -12 21l-311 232q-10 7 -24.5 7t-23.5 -7l-311 -232q-12 -12 -12 -21v-63zM212 222q0 31 13 56t48 45.5 t60.5 34t88.5 29.5t92 22.5t108 22.5q11 2 17.5 3.5t17 3.5t18.5 4q-5 -131 0 -247q-59 -39 -137.5 -69t-157.5 -30q-74 0 -121 30.5t-47 94.5z" />
<glyph unicode="&#xe3;" d="M78 220q0 -106 74.5 -167.5t205.5 -61.5q102 0 174 26.5t157 79.5q9 -97 38 -97h73q21 0 16 33q-23 231 -12 503q7 154 -74 244t-237 90q-97 0 -194.5 -25.5t-166.5 -63.5q-11 -5 -15 -14.5t1 -18.5l30 -66q8 -22 33 -9q168 80 307 80q94 0 143.5 -49.5t45.5 -148.5 q-102 -17 -172.5 -31.5t-144.5 -35.5t-121 -44.5t-86 -55.5t-57 -74t-18 -94zM85 1234q-9 -15 2 -26l40 -43q14 -11 26 3q72 83 159 83q41 0 74.5 -14t58.5 -33.5t50 -39.5t61.5 -34t80.5 -14q22 0 43.5 4t40 11t35.5 15.5t31.5 19t26 20t21.5 19.5t16 16.5t11 12.5l4 5 q12 13 0 25l-40 45q-5 5 -12.5 4t-11.5 -6q-78 -78 -169 -78q-42 0 -82.5 21t-69 46.5t-74.5 46.5t-98 21q-38 0 -75 -13.5t-61.5 -30.5t-46 -38t-30 -32t-11.5 -16zM212 222q0 31 13 56t48 45.5t60.5 34t88.5 29.5t92 22.5t108 22.5q11 2 17.5 3.5t17 3.5t18.5 4 q-5 -131 0 -247q-59 -39 -137.5 -69t-157.5 -30q-74 0 -121 30.5t-47 94.5z" />
<glyph unicode="&#xe4;" d="M78 220q0 -106 74.5 -167.5t205.5 -61.5q102 0 174 26.5t157 79.5q9 -97 38 -97h73q21 0 16 33q-23 231 -12 503q7 154 -74 244t-237 90q-97 0 -194.5 -25.5t-166.5 -63.5q-11 -5 -15 -14.5t1 -18.5l30 -66q8 -22 33 -9q168 80 307 80q94 0 143.5 -49.5t45.5 -148.5 q-102 -17 -172.5 -31.5t-144.5 -35.5t-121 -44.5t-86 -55.5t-57 -74t-18 -94zM154 1305q0 32 22.5 55t54.5 23q35 0 57.5 -22.5t22.5 -55.5t-22.5 -55.5t-57.5 -22.5q-32 0 -54.5 23t-22.5 55zM212 222q0 31 13 56t48 45.5t60.5 34t88.5 29.5t92 22.5t108 22.5 q11 2 17.5 3.5t17 3.5t18.5 4q-5 -131 0 -247q-59 -39 -137.5 -69t-157.5 -30q-74 0 -121 30.5t-47 94.5zM635 1305q0 32 23 55t55 23q33 0 55.5 -22.5t22.5 -55.5t-22.5 -55.5t-55.5 -22.5q-32 0 -55 23t-23 55z" />
<glyph unicode="&#xe5;" d="M78 220q0 -106 74.5 -167.5t205.5 -61.5q102 0 174 26.5t157 79.5q9 -97 38 -97h73q21 0 16 33q-23 231 -12 503q7 154 -74 244t-237 90q-97 0 -194.5 -25.5t-166.5 -63.5q-11 -5 -15 -14.5t1 -18.5l30 -66q8 -22 33 -9q168 80 307 80q94 0 143.5 -49.5t45.5 -148.5 q-102 -17 -172.5 -31.5t-144.5 -35.5t-121 -44.5t-86 -55.5t-57 -74t-18 -94zM212 222q0 31 13 56t48 45.5t60.5 34t88.5 29.5t92 22.5t108 22.5q11 2 17.5 3.5t17 3.5t18.5 4q-5 -131 0 -247q-59 -39 -137.5 -69t-157.5 -30q-74 0 -121 30.5t-47 94.5zM264 1192 q0 86 61.5 147.5t148.5 61.5q85 0 145.5 -61.5t60.5 -147.5q0 -87 -60.5 -148.5t-145.5 -61.5q-87 0 -148.5 61.5t-61.5 148.5zM340 1192q0 -56 39.5 -94.5t94.5 -38.5q56 0 94 38.5t38 94.5q0 55 -38 93.5t-94 38.5q-55 0 -94.5 -38.5t-39.5 -93.5z" />
<glyph unicode="&#xe6;" horiz-adv-x="1586" d="M78 220q0 52 18 94t57 74t86 55.5t121 44.5t144.5 35.5t172.5 31.5q4 99 -45.5 148.5t-143.5 49.5q-139 0 -307 -80q-25 -13 -33 9l-30 66q-5 9 -1 18.5t15 14.5q69 38 166.5 63.5t194.5 25.5q203 0 279 -153q58 72 143.5 113t184.5 41q121 0 218 -58t149.5 -153.5 t52.5 -206.5q0 -82 -83 -82h-626q13 -108 97.5 -185.5t216.5 -77.5q162 0 276 118q22 15 34 -2l25 -30q14 -15 1 -31q-60 -80 -149.5 -126.5t-200.5 -46.5q-178 0 -302 116l7 -73q5 -33 -16 -33h-73q-29 0 -38 97q-85 -53 -157 -79.5t-174 -26.5q-131 0 -205.5 61.5 t-74.5 167.5zM212 222q0 -64 47 -94.5t121 -30.5q79 0 157.5 30t137.5 69q-5 103 -2 212v22v13q-218 -45 -276 -63q-159 -49 -181 -128q-4 -15 -4 -30zM811 477h572q-1 35 -12 71.5t-34.5 72.5t-55.5 64.5t-80 46.5t-104 18q-90 0 -157 -45t-97 -105.5t-32 -122.5z" />
<glyph unicode="&#xe7;" horiz-adv-x="904" d="M69 429q0 186 129.5 314t311.5 128q92 0 170.5 -38t133.5 -99q15 -18 2 -33l-47 -55q-13 -13 -31 3q-88 99 -221 99q-77 0 -140 -28.5t-101.5 -75t-59 -102t-20.5 -113.5q0 -57 20.5 -112.5t59 -102t102 -75t141.5 -28.5q123 0 231 116q17 15 33 -1l43 -54q14 -17 2 -31 q-133 -143 -300 -153l-61 -103q28 4 42 4q93 0 160 -66t67 -160q0 -93 -68 -160t-163 -67q-118 0 -186 88q-8 11 -1 18l29 31q15 14 26 2q55 -59 129 -59q71 0 111.5 42t40.5 105q0 62 -39.5 104t-107.5 42q-38 0 -66.5 -13.5t-58.5 -45.5q-16 -16 -26 -5l-30 33q-7 4 -3 14 l12 17l108 184q-160 24 -267 146.5t-107 289.5z" />
<glyph unicode="&#xe8;" horiz-adv-x="978" d="M66 430q0 -190 127 -315t312 -125q110 0 199.5 46.5t151.5 126.5q12 15 -4 31l-22 30q-14 20 -35 2q-118 -118 -278 -118q-132 0 -215.5 77.5t-96.5 185.5h625q83 0 83 82q0 111 -52.5 206.5t-149.5 153.5t-218 58q-181 0 -304 -127.5t-123 -313.5zM203 477 q1 45 19.5 91.5t52.5 88t90.5 67.5t125.5 26t125 -26.5t89.5 -68.5t52 -88t20.5 -90h-575zM279 1340q-9 -18 9 -31l368 -229q20 -9 30 6l26 46q7 15 -6 24l-359 248q-16 16 -31 -3z" />
<glyph unicode="&#xe9;" horiz-adv-x="978" d="M66 430q0 -190 127 -315t312 -125q110 0 199.5 46.5t151.5 126.5q12 15 -4 31l-22 30q-14 20 -35 2q-118 -118 -278 -118q-132 0 -215.5 77.5t-96.5 185.5h625q83 0 83 82q0 111 -52.5 206.5t-149.5 153.5t-218 58q-181 0 -304 -127.5t-123 -313.5zM203 477 q1 45 19.5 91.5t52.5 88t90.5 67.5t125.5 26t125 -26.5t89.5 -68.5t52 -88t20.5 -90h-575zM260 1132l26 -46q7 -15 28 -6l368 229q20 14 9 31l-37 61q-12 20 -31 3l-359 -248q-14 -10 -4 -24z" />
<glyph unicode="&#xea;" horiz-adv-x="978" d="M66 430q0 -190 127 -315t312 -125q110 0 199.5 46.5t151.5 126.5q12 15 -4 31l-22 30q-14 20 -35 2q-118 -118 -278 -118q-132 0 -215.5 77.5t-96.5 185.5h625q83 0 83 82q0 111 -52.5 206.5t-149.5 153.5t-218 58q-181 0 -304 -127.5t-123 -313.5zM148 1073 q0 -12 9.5 -16t23.5 3l314 214l316 -214q13 -7 22 -3t9 16v62q0 12 -12 21l-311 232q-11 7 -25.5 7t-23.5 -7l-310 -232q-12 -12 -12 -21v-62zM203 477q1 45 19.5 91.5t52.5 88t90.5 67.5t125.5 26t125 -26.5t89.5 -68.5t52 -88t20.5 -90h-575z" />
<glyph unicode="&#xeb;" horiz-adv-x="978" d="M66 430q0 -190 127 -315t312 -125q110 0 199.5 46.5t151.5 126.5q12 15 -4 31l-22 30q-14 20 -35 2q-118 -118 -278 -118q-132 0 -215.5 77.5t-96.5 185.5h625q83 0 83 82q0 111 -52.5 206.5t-149.5 153.5t-218 58q-181 0 -304 -127.5t-123 -313.5zM177 1303 q0 32 22.5 55.5t53.5 23.5q35 0 57.5 -23t22.5 -56t-22.5 -55.5t-57.5 -22.5q-31 0 -53.5 23t-22.5 55zM203 477q1 45 19.5 91.5t52.5 88t90.5 67.5t125.5 26t125 -26.5t89.5 -68.5t52 -88t20.5 -90h-575zM658 1303q0 32 23 55.5t55 23.5q33 0 55.5 -23t22.5 -56 t-22.5 -55.5t-55.5 -22.5q-32 0 -55 23t-23 55z" />
<glyph unicode="&#xec;" horiz-adv-x="392" d="M-16 1342q-10 -19 9 -32l368 -229q19 -8 30 7l26 45q8 15 -6 25l-359 248q-16 16 -31 -4zM130 47q0 -21 11.5 -34t32.5 -13h67q21 0 21 23v814q0 22 -22 22h-87q-23 0 -23 -22v-790z" />
<glyph unicode="&#xed;" horiz-adv-x="392" d="M-36 1133l26 -45q8 -15 27 -7l368 229q20 14 9 32l-36 60q-5 9 -15 10t-17 -6l-359 -248q-14 -10 -3 -25zM130 47q0 -21 11.5 -34t32.5 -13h67q21 0 21 23v814q0 22 -22 22h-87q-23 0 -23 -22v-790z" />
<glyph unicode="&#xee;" horiz-adv-x="392" d="M-148 1074q0 -12 9.5 -15.5t23.5 3.5l315 214l315 -214q13 -7 22.5 -3.5t9.5 15.5v63q0 12 -12 21l-311 232q-11 7 -25.5 7t-23.5 -7l-310 -232q-13 -13 -13 -21v-63zM130 47q0 -21 11.5 -34t32.5 -13h67q21 0 21 23v814q0 22 -22 22h-87q-23 0 -23 -22v-790z" />
<glyph unicode="&#xef;" horiz-adv-x="392" d="M-120 1305q0 32 22.5 55t54.5 23q35 0 57 -22.5t22 -55.5t-22 -55.5t-57 -22.5q-32 0 -54.5 23t-22.5 55zM130 47q0 -21 11.5 -34t32.5 -13h67q21 0 21 23v814q0 22 -22 22h-87q-23 0 -23 -22v-790zM361 1305q0 32 23 55t55 23q33 0 55.5 -22.5t22.5 -55.5t-22.5 -55.5 t-55.5 -22.5q-32 0 -55 23t-23 55z" />
<glyph unicode="&#xf0;" horiz-adv-x="1036" d="M69 418q0 176 124 297.5t302 121.5q108 0 200.5 -61t137.5 -151q7 280 -161 463l-229 -125q-20 -13 -33 7l-9 16q-8 21 12 31l210 115q-133 111 -297 111q-21 0 -21 21l9 86q0 19 23 19q222 -4 401 -175l100 56q18 11 30 -9l8 -16q12 -19 -8 -31l-85 -47l17 -21 q169 -209 165 -550q-2 -264 -125.5 -426t-334.5 -162q-183 0 -309.5 127t-126.5 303zM200 415q0 -123 93.5 -213.5t215.5 -90.5t211.5 90.5t91.5 211.5q2 120 -93 212t-221 92q-120 0 -209 -89.5t-89 -212.5z" />
<glyph unicode="&#xf1;" horiz-adv-x="1004" d="M104 23v815q0 8 6 14.5t13 6.5h66q20 0 32.5 -15.5t14.5 -34.5v-71q156 133 321 133q93 0 171.5 -34.5t130.5 -110.5t52 -181v-391q4 -80 7 -126q4 -28 -15 -28h-75q-23 0 -35 13.5t-12 35.5v479q0 101 -62 162.5t-174 61.5q-161 0 -309 -146v-583q0 -9 -6 -16t-15 -7 h-92q-19 0 -19 23zM137 1234q3 5 11.5 16t30 32t46 38t61.5 30.5t75 13.5q43 0 80.5 -14t65 -34t54 -39.5t58.5 -33.5t67 -14q90 0 168 78q4 5 11.5 6t12.5 -4l40 -45q12 -12 0 -25l-4 -5q-5 -6 -11 -12.5t-16 -16.5t-21.5 -19.5t-26 -20t-31.5 -19t-35.5 -15.5t-40 -11 t-43.5 -4q-44 0 -80.5 14t-61.5 34t-50 39.5t-58.5 33.5t-74.5 14q-87 0 -159 -83q-12 -14 -26 -3l-40 43q-11 11 -2 26z" />
<glyph unicode="&#xf2;" horiz-adv-x="1027" d="M69 429q0 -121 60 -222t162.5 -159t223.5 -58q182 0 312.5 128t130.5 311q0 187 -130 315.5t-313 128.5q-121 0 -223.5 -58t-162.5 -160t-60 -226zM198 429q0 130 91.5 224.5t225.5 94.5q132 0 223.5 -95t91.5 -224q0 -127 -91.5 -221.5t-223.5 -94.5q-134 0 -225.5 94 t-91.5 222zM300 1342q-10 -19 9 -32l368 -229q18 -8 29 7l26 45q8 16 -5 25l-359 248q-16 16 -31 -4z" />
<glyph unicode="&#xf3;" horiz-adv-x="1027" d="M69 429q0 -121 60 -222t162.5 -159t223.5 -58q182 0 312.5 128t130.5 311q0 187 -130 315.5t-313 128.5q-121 0 -223.5 -58t-162.5 -160t-60 -226zM198 429q0 130 91.5 224.5t225.5 94.5q132 0 223.5 -95t91.5 -224q0 -127 -91.5 -221.5t-223.5 -94.5q-134 0 -225.5 94 t-91.5 222zM279 1133l26 -45q8 -16 28 -7l368 229q20 14 9 32l-37 60q-5 9 -14.5 10t-16.5 -6l-359 -248q-14 -10 -4 -25z" />
<glyph unicode="&#xf4;" horiz-adv-x="1027" d="M69 429q0 -121 60 -222t162.5 -159t223.5 -58q182 0 312.5 128t130.5 311q0 187 -130 315.5t-313 128.5q-121 0 -223.5 -58t-162.5 -160t-60 -226zM168 1074q0 -12 9.5 -15.5t23.5 3.5l314 214l316 -214q13 -7 22.5 -3.5t9.5 15.5v63q0 12 -13 21l-310 232q-11 7 -25.5 7 t-23.5 -7l-310 -232q-13 -13 -13 -21v-63zM198 429q0 130 91.5 224.5t225.5 94.5q132 0 223.5 -95t91.5 -224q0 -127 -91.5 -221.5t-223.5 -94.5q-134 0 -225.5 94t-91.5 222z" />
<glyph unicode="&#xf5;" horiz-adv-x="1027" d="M69 429q0 -121 60 -222t162.5 -159t223.5 -58q182 0 312.5 128t130.5 311q0 187 -130 315.5t-313 128.5q-121 0 -223.5 -58t-162.5 -160t-60 -226zM128 1234q-9 -15 2 -26l40 -43q14 -11 26 3q72 83 160 83q41 0 74.5 -14t58 -33.5t49.5 -39.5t61.5 -34t80.5 -14 q22 0 43.5 4t40 11t35.5 15.5t31.5 19t26 20t21.5 19.5t16 16.5t10 12.5l5 5q13 13 0 25l-39 45q-5 5 -13 4t-12 -6q-78 -78 -168 -78q-35 0 -67 14t-58.5 33.5t-54 39.5t-65 34t-80.5 14q-38 0 -75 -13.5t-61.5 -30.5t-46 -38t-30 -32t-11.5 -16zM198 429q0 130 91.5 224.5 t225.5 94.5q132 0 223.5 -95t91.5 -224q0 -127 -91.5 -221.5t-223.5 -94.5q-134 0 -225.5 94t-91.5 222z" />
<glyph unicode="&#xf6;" horiz-adv-x="1027" d="M69 429q0 -121 60 -222t162.5 -159t223.5 -58q182 0 312.5 128t130.5 311q0 187 -130 315.5t-313 128.5q-121 0 -223.5 -58t-162.5 -160t-60 -226zM196 1305q0 32 22.5 55t53.5 23q35 0 57.5 -22.5t22.5 -55.5t-22.5 -55.5t-57.5 -22.5q-31 0 -53.5 23t-22.5 55zM198 429 q0 130 91.5 224.5t225.5 94.5q132 0 223.5 -95t91.5 -224q0 -127 -91.5 -221.5t-223.5 -94.5q-134 0 -225.5 94t-91.5 222zM677 1305q0 32 23 55t55 23q33 0 55.5 -22.5t22.5 -55.5t-22.5 -55.5t-55.5 -22.5q-32 0 -55 23t-23 55z" />
<glyph unicode="&#xf7;" horiz-adv-x="1076" d="M76 618v75q0 24 25 24h866q22 0 22 -23v-76q0 -23 -22 -23h-866q-11 0 -18 6.5t-7 16.5zM432 233q0 41 31 72.5t73 31.5q40 0 69.5 -31.5t29.5 -72.5q0 -43 -29.5 -74t-69.5 -31q-42 0 -73 31t-31 74zM432 1076q0 41 31 71.5t73 30.5q40 0 69.5 -30.5t29.5 -71.5 q0 -44 -29 -75t-70 -31q-42 0 -73 31t-31 75z" />
<glyph unicode="&#xf8;" horiz-adv-x="1133" d="M94 0q-12 12 0 23l130 130q-97 119 -97 276q0 124 60 226t162.5 160t223.5 58q155 0 276 -97l121 121q13 13 24 2l47 -47q10 -13 -1 -24l-122 -122q97 -119 97 -277q0 -183 -130 -311t-312 -128q-158 0 -278 93l-130 -130q-12 -12 -24 0zM257 429q0 -95 59 -184l442 441 q-81 62 -185 62q-134 0 -225 -94.5t-91 -224.5zM385 174q83 -61 188 -61q132 0 223 94t91 222q0 100 -61 187z" />
<glyph unicode="&#xf9;" horiz-adv-x="996" d="M87 830q-3 29 15 29h75q47 0 47 -50v-478q0 -102 61.5 -163.5t174.5 -61.5q159 0 311 154v575q0 24 19 24h92q19 0 19 -24v-814q0 -9 -5.5 -15t-13.5 -6h-75q-14 0 -25 16t-11 33v74q-153 -135 -323 -135q-146 0 -250 85.5t-104 240.5v389q-4 83 -7 127zM276 1342l36 60 q7 9 16 10t16 -6l359 -248q13 -9 5 -25l-26 -45q-11 -15 -29 -7l-368 229q-19 13 -9 32z" />
<glyph unicode="&#xfa;" horiz-adv-x="996" d="M87 830q-3 29 15 29h75q47 0 47 -50v-478q0 -102 61.5 -163.5t174.5 -61.5q159 0 311 154v575q0 24 19 24h92q19 0 19 -24v-814q0 -9 -5.5 -15t-13.5 -6h-75q-14 0 -25 16t-11 33v74q-153 -135 -323 -135q-146 0 -250 85.5t-104 240.5v389q-4 83 -7 127zM255 1133 q-10 15 4 25l359 248q7 7 16.5 6t14.5 -10l37 -60q11 -18 -9 -32l-368 -229q-20 -9 -28 7z" />
<glyph unicode="&#xfb;" horiz-adv-x="996" d="M87 830q-3 29 15 29h75q47 0 47 -50v-478q0 -102 61.5 -163.5t174.5 -61.5q159 0 311 154v575q0 24 19 24h92q19 0 19 -24v-814q0 -9 -5.5 -15t-13.5 -6h-75q-14 0 -25 16t-11 33v74q-153 -135 -323 -135q-146 0 -250 85.5t-104 240.5v389q-4 83 -7 127zM144 1074v63 q0 9 12 21l311 232q9 7 23.5 7t24.5 -7l311 -232q12 -9 12 -21v-63q0 -12 -9 -15.5t-22 3.5l-316 214l-314 -214q-14 -7 -23.5 -3.5t-9.5 15.5z" />
<glyph unicode="&#xfc;" horiz-adv-x="996" d="M87 830q-3 29 15 29h75q47 0 47 -50v-478q0 -102 61.5 -163.5t174.5 -61.5q159 0 311 154v575q0 24 19 24h92q19 0 19 -24v-814q0 -9 -5.5 -15t-13.5 -6h-75q-14 0 -25 16t-11 33v74q-153 -135 -323 -135q-146 0 -250 85.5t-104 240.5v389q-4 83 -7 127zM172 1305 q0 32 22.5 55t53.5 23q35 0 57.5 -22.5t22.5 -55.5t-22.5 -55.5t-57.5 -22.5q-31 0 -53.5 23t-22.5 55zM653 1305q0 32 23 55t55 23q33 0 55.5 -22.5t22.5 -55.5t-22.5 -55.5t-55.5 -22.5q-32 0 -55 23t-23 55z" />
<glyph unicode="&#xfd;" horiz-adv-x="968" d="M56 853.5q4 5.5 13 5.5h108q13 0 21 -14l297 -602l284 599q7 17 25 17h102q26 0 16 -24l-356 -734q-110 -226 -217.5 -385.5t-192.5 -246.5q-16 -16 -36 7l-52 50q-19 19 1 42q96 108 196.5 256.5t159.5 286.5l-368 726q-5 11 -1 16.5zM266 1133l26 -45q8 -15 27 -7 l368 229q20 14 9 32l-36 60q-5 9 -15 10t-17 -6l-359 -248q-14 -10 -3 -25z" />
<glyph unicode="&#xfe;" horiz-adv-x="1004" d="M104 1361q-3 27 16 27h80q21 0 33 -11.5t12 -31.5v-561q121 82 272 82q77 0 149 -31t127.5 -85.5t89 -136.5t33.5 -177q0 -191 -109.5 -319.5t-289.5 -128.5q-146 0 -272 92v-536q0 -24 -20 -39t-43 -15h-48q-8 0 -13.5 6t-5.5 15v1751q0 26 -5.5 61t-5.5 38zM245 193 q123 -84 251 -84t210 91t82 236q0 76 -26.5 137t-69.5 97t-93.5 54.5t-102.5 18.5q-133 0 -251 -83v-467z" />
<glyph unicode="&#xff;" horiz-adv-x="968" d="M56 853.5q4 5.5 13 5.5h108q13 0 21 -14l297 -602l284 599q7 17 25 17h102q26 0 16 -24l-356 -734q-110 -226 -217.5 -385.5t-192.5 -246.5q-16 -16 -36 7l-52 50q-19 19 1 42q96 108 196.5 256.5t159.5 286.5l-368 726q-5 11 -1 16.5zM182 1305q0 32 22.5 55t54.5 23 q35 0 57 -22.5t22 -55.5t-22 -55.5t-57 -22.5q-32 0 -54.5 23t-22.5 55zM663 1305q0 32 23 55t55 23q33 0 55.5 -22.5t22.5 -55.5t-22.5 -55.5t-55.5 -22.5q-32 0 -55 23t-23 55z" />
<glyph unicode="&#x152;" horiz-adv-x="2443" d="M104 694q0 194 95.5 356.5t259.5 256.5t358 94q191 0 353 -92.5t257 -248.5v306q0 22 22 22h868q24 0 24 -22v-87q0 -22 -24 -22h-753v-509h465q24 0 24 -24v-84q0 -22 -24 -22h-465v-486h753q24 0 24 -24v-84q0 -24 -24 -24h-868q-22 0 -22 23v303q-95 -156 -256.5 -247 t-353.5 -91q-145 0 -277 55t-227.5 149t-152 225t-56.5 277zM240 694q0 -156 78 -288.5t210.5 -209t288.5 -76.5t288 76.5t209.5 209t77.5 288.5t-77.5 288.5t-209.5 209.5t-288 77t-288.5 -77t-210.5 -209.5t-78 -288.5z" />
<glyph unicode="&#x153;" horiz-adv-x="1737" d="M69 429q0 124 60 226t162.5 160t223.5 58q114 0 213.5 -55t160.5 -148q57 93 152.5 147t208.5 54q121 0 218 -58t149.5 -153.5t52.5 -206.5q0 -82 -84 -82h-624q13 -108 96.5 -185.5t215.5 -77.5q160 0 278 118q22 15 34 -2l23 -30q15 -15 3 -31q-62 -80 -151 -126.5 t-199 -46.5q-117 0 -215.5 54t-157.5 149q-61 -93 -160.5 -148t-213.5 -55q-121 0 -223.5 58t-162.5 159t-60 222zM198 429q0 -128 91.5 -222t225.5 -94q118 0 205.5 76.5t105.5 188.5q-3 26 -3 52q0 27 3 51q-20 113 -106.5 190t-204.5 77q-134 0 -225.5 -94.5 t-91.5 -224.5zM960 477h574q-1 44 -19.5 90t-52 88t-89.5 68.5t-125 26.5t-125 -26t-90 -67.5t-52.5 -87.5t-20.5 -92z" />
<glyph unicode="&#x178;" horiz-adv-x="1299" d="M27 1382q3 6 11 6h122q12 0 21 -17l468 -663l469 663q12 17 21 17h123q7 0 10 -6t-2 -14l-553 -794v-550q0 -24 -21 -24h-69q-46 0 -46 49v525l-553 794q-4 8 -1 14zM344 1753q0 32 22.5 55t53.5 23q35 0 57.5 -22.5t22.5 -55.5t-22.5 -55.5t-57.5 -22.5q-31 0 -53.5 23 t-22.5 55zM824 1753q0 32 23.5 55t55.5 23q33 0 55.5 -22.5t22.5 -55.5t-22.5 -55.5t-55.5 -22.5q-32 0 -55.5 23t-23.5 55z" />
<glyph unicode="&#x2c6;" horiz-adv-x="855" d="M82 1081q0 -12 9.5 -15.5t23.5 3.5l314 214l316 -214q13 -7 22 -3.5t9 15.5v63q0 12 -12 21l-311 232q-10 7 -25 7t-24 -7l-310 -232q-12 -12 -12 -21v-63z" />
<glyph unicode="&#x2dc;" horiz-adv-x="928" d="M73 1234q-9 -15 2 -26l40 -43q14 -11 26 3q72 83 159 83q41 0 74.5 -14t58.5 -33.5t50 -39.5t61.5 -34t80.5 -14q22 0 43.5 4t40 11t35.5 15.5t31.5 19t26 20t21.5 19.5t16 16.5t11 12.5l4 5q12 13 0 25l-40 45q-5 5 -12.5 4t-11.5 -6q-78 -78 -169 -78q-42 0 -82.5 21 t-69 46.5t-74.5 46.5t-98 21q-38 0 -75 -13.5t-61.5 -30.5t-46 -38t-30 -32t-11.5 -16z" />
<glyph unicode="&#x2000;" horiz-adv-x="943" />
<glyph unicode="&#x2001;" horiz-adv-x="1887" />
<glyph unicode="&#x2002;" horiz-adv-x="943" />
<glyph unicode="&#x2003;" horiz-adv-x="1887" />
<glyph unicode="&#x2004;" horiz-adv-x="629" />
<glyph unicode="&#x2005;" horiz-adv-x="471" />
<glyph unicode="&#x2006;" horiz-adv-x="314" />
<glyph unicode="&#x2007;" horiz-adv-x="314" />
<glyph unicode="&#x2008;" horiz-adv-x="235" />
<glyph unicode="&#x2009;" horiz-adv-x="377" />
<glyph unicode="&#x200a;" horiz-adv-x="104" />
<glyph unicode="&#x2010;" horiz-adv-x="730" d="M69 397v77q0 22 25 22h546q21 0 21 -22v-75q0 -22 -21 -22h-546q-25 0 -25 20z" />
<glyph unicode="&#x2011;" horiz-adv-x="730" d="M69 397v77q0 22 25 22h546q21 0 21 -22v-75q0 -22 -21 -22h-546q-25 0 -25 20z" />
<glyph unicode="&#x2012;" horiz-adv-x="730" d="M69 397v77q0 22 25 22h546q21 0 21 -22v-75q0 -22 -21 -22h-546q-25 0 -25 20z" />
<glyph unicode="&#x2013;" horiz-adv-x="1216" d="M139 519v47q0 22 22 22h894q23 0 23 -22v-47q0 -23 -23 -23h-894q-22 0 -22 23z" />
<glyph unicode="&#x2014;" horiz-adv-x="1617" d="M104 519v47q0 22 23 22h1364q22 0 22 -22v-47q0 -23 -22 -23h-1364q-23 0 -23 23z" />
<glyph unicode="&#x2018;" horiz-adv-x="317" d="M61 1054q-9 83 14 185q28 108 104 184q12 12 24 5l17 -17q11 -5 4 -17q-80 -90 -80 -196v-58l16 2q39 0 64.5 -25t25.5 -69q0 -93 -90 -93q-78 0 -91 67q-4 7 -8 32z" />
<glyph unicode="&#x2019;" horiz-adv-x="279" d="M30 1328q0 92 90 92q74 0 88 -66q5 -10 9 -31q11 -83 -14 -186q-25 -107 -102 -184q-14 -14 -26 -7l-16 19q-10 4 -3 17q79 94 79 195q0 49 -1 59l-14 -2q-39 0 -64.5 25t-25.5 69z" />
<glyph unicode="&#x201a;" horiz-adv-x="734" d="M113 62q0 94 90 94q75 0 89 -66q7 -13 10 -33q9 -83 -14 -185q-28 -108 -104 -184q-14 -14 -24 -6l-18 18q-10 4 -3 17q24 28 38.5 50.5t28 62t13.5 83.5q0 38 -2 57l-14 -1q-39 0 -64.5 24.5t-25.5 68.5zM439 62q0 94 90 94q76 0 89 -67q5 -9 9 -32q9 -83 -14 -185 q-24 -104 -104 -184q-13 -13 -25 -6l-17 18q-11 5 -4 17q82 92 82 196q0 38 -2 57l-14 -1q-40 0 -65 24.5t-25 68.5z" />
<glyph unicode="&#x201c;" horiz-adv-x="650" d="M69 1043q-9 86 14 186q24 105 103 184q15 13 26 7l17 -19q10 -4 2 -18q-24 -28 -38.5 -50.5t-28 -62t-13.5 -83.5q0 -38 2 -57l14 2q39 0 64.5 -25t25.5 -69q0 -92 -90 -92q-75 0 -89 66q-5 10 -9 31zM394 1043q-9 86 14 186q28 108 104 184q13 13 24 7l18 -19 q10 -5 3 -18q-80 -90 -80 -196q0 -38 2 -57l14 2q39 0 64.5 -25t25.5 -69q0 -92 -90 -92q-76 0 -90 66q-5 10 -9 31z" />
<glyph unicode="&#x201d;" horiz-adv-x="650" d="M71 1328q0 92 90 92q77 0 91 -66q4 -7 8 -31q9 -86 -14 -186q-28 -108 -104 -184q-13 -13 -24 -7l-17 19q-11 5 -4 17q80 90 80 195q0 40 -2 59l-14 -2q-39 0 -64.5 25t-25.5 69zM397 1328q0 92 91 92q74 0 88 -66q5 -10 9 -31q9 -86 -14 -186q-25 -107 -102 -184 q-15 -13 -26 -7l-18 19q-9 4 -2 17q37 43 58.5 88t21.5 107q0 49 -1 59l-14 -2q-39 0 -65 25t-26 69z" />
<glyph unicode="&#x201e;" horiz-adv-x="742" d="M113 62q0 94 90 94q75 0 89 -66q7 -13 10 -33q9 -83 -14 -185q-28 -108 -104 -184q-14 -14 -24 -6l-18 18q-10 4 -3 17q24 28 38.5 50.5t28 62t13.5 83.5q0 38 -2 57l-14 -1q-39 0 -64.5 24.5t-25.5 68.5zM439 62q0 94 90 94q76 0 89 -67q5 -9 9 -32q9 -83 -14 -185 q-24 -104 -104 -184q-13 -13 -25 -6l-17 18q-11 5 -4 17q82 92 82 196q0 38 -2 57l-14 -1q-40 0 -65 24.5t-25 68.5z" />
<glyph unicode="&#x2022;" horiz-adv-x="470" d="M87 434q0 60 45.5 105.5t105.5 45.5t103 -45.5t43 -105.5q0 -62 -43 -106.5t-103 -44.5q-61 0 -106 44.5t-45 106.5z" />
<glyph unicode="&#x2026;" horiz-adv-x="1213" d="M87 75q0 34 23 57.5t58 23.5q32 0 56 -24t24 -57t-23.5 -56.5t-56.5 -23.5q-35 0 -58 23t-23 57zM528 75q0 34 23.5 57.5t55.5 23.5q35 0 58.5 -23.5t23.5 -57.5t-23.5 -57t-58.5 -23q-33 0 -56 23.5t-23 56.5zM965 75q0 33 23.5 57t56.5 24q35 0 58 -23.5t23 -57.5 t-23 -57t-58 -23q-33 0 -56.5 23.5t-23.5 56.5z" />
<glyph unicode="&#x202f;" horiz-adv-x="377" />
<glyph unicode="&#x2039;" horiz-adv-x="565" d="M88 400q0 -16 7 -27l259 -347q10 -10 19 -10h83q14 0 18 9t-4 22l-239 354l243 340q7 13 3 23t-17 10h-76q-13 0 -23 -14l-266 -337q-7 -7 -7 -23z" />
<glyph unicode="&#x203a;" horiz-adv-x="565" d="M90 764q-5 -10 2 -23l245 -340l-242 -354q-7 -13 -3 -22t17 -9h85q12 0 18 10l260 347q7 11 7 26.5t-7 23.5l-265 337q-10 14 -25 14h-74q-13 0 -18 -10z" />
<glyph unicode="&#x205f;" horiz-adv-x="471" />
<glyph unicode="&#x20ac;" horiz-adv-x="1393" d="M17 510v80q0 21 21 21h73q-5 50 -5 88q0 39 5 89h-73q-21 0 -21 21v80q0 22 21 22h99q68 222 257 363t427 141q139 0 265 -51.5t224 -143.5q21 -21 7 -38l-59 -61q-16 -17 -33 0q-67 66 -167.5 113t-217.5 47q-200 0 -342.5 -104.5t-207.5 -265.5h522q9 0 15 -6t6 -15 v-81q0 -21 -21 -21h-557q-7 -42 -7 -89q0 -46 7 -88h557q9 0 15 -6t6 -15v-80q0 -21 -21 -21h-522q63 -161 206.5 -266t343.5 -105q211 0 380 154q22 22 35 7l61 -60q16 -17 -7 -40q-206 -193 -488 -193q-239 0 -427.5 140.5t-256.5 362.5h-99q-21 0 -21 21z" />
<glyph unicode="&#x2122;" horiz-adv-x="1152" d="M52 1335v34q0 19 19 19h358q19 0 19 -19v-34q0 -19 -19 -19h-143v-429q0 -19 -19 -19h-34q-20 0 -20 19v429h-142q-19 0 -19 19zM521 887v484q0 17 17 17h42q15 0 19 -10l208 -385l212 385q7 10 21 10h45q15 0 15 -17v-484q0 -19 -19 -19h-34q-20 0 -20 19v349l-197 -349 q-9 -16 -21 -16h-4q-13 0 -21 16l-190 349v-349q0 -19 -20 -19h-32q-21 0 -21 19z" />
<glyph unicode="&#x25fc;" horiz-adv-x="859" d="M0 0v859h859v-859h-859z" />
<glyph unicode="&#xfb03;" horiz-adv-x="1657" d="M61 753v70q0 36 36 36h127v182q0 176 100 268.5t263 92.5q155 0 312 -119q96 114 283 114q118 0 215 -61q19 -14 12 -31l-33 -69q-8 -14 -19 -14q-7 0 -12 3q-81 49 -161 49q-33 0 -67.5 -9t-71.5 -31t-62 -67.5t-27 -109.5v-3v-2v-7v-186h549q22 0 22 -22v-814 q0 -23 -21 -23h-67q-21 0 -32.5 13t-11.5 34v689h-439v-712q0 -24 -21 -24h-67q-44 0 -44 50v686h-470v-712q0 -24 -21 -24h-66q-43 0 -43 50v686h-146q-17 0 -17 17zM354 859h470v186q0 77 21 140q-113 94 -255 94q-29 0 -57.5 -5.5t-62 -22t-58.5 -42t-41.5 -69 t-16.5 -99.5v-182z" />
<glyph unicode="&#xfb04;" horiz-adv-x="1707" d="M61 753v70q0 36 36 36h127v182q0 176 100 268.5t263 92.5q160 0 314 -121q94 121 288 121q134 0 262 -85v49q0 22 23 22h86q23 0 23 -22v-1342q0 -24 -23 -24h-62q-47 0 -47 49v1133q-118 97 -259 97q-29 0 -57.5 -5.5t-62 -22t-58.5 -42t-41.5 -69t-16.5 -99.5v-182h252 q17 0 17 -17v-87q0 -19 -17 -19h-252v-712q0 -24 -21 -24h-65q-44 0 -44 50v686h-472v-712q0 -24 -21 -24h-66q-43 0 -43 50v686h-146q-17 0 -17 17zM354 859h472v182q0 80 21 143q-118 95 -257 95q-29 0 -57.5 -5.5t-62 -22t-58.5 -42t-41.5 -69t-16.5 -99.5v-182z" />
</font>
</defs>
</svg>
