<?xml version="1.0" standalone="no"?>
<!DOCTYPE svg PUBLIC "-//W3C//DTD SVG 1.1//EN" "http://www.w3.org/Graphics/SVG/1.1/DTD/svg11.dtd" >
<svg xmlns="http://www.w3.org/2000/svg">
<metadata></metadata>
<defs>
<font id="venti_cfultra_oblique" horiz-adv-x="952" >
<font-face units-per-em="2048" ascent="1638" descent="-410" />
<missing-glyph horiz-adv-x="541" />
<glyph unicode="&#xfb01;" horiz-adv-x="1265" d="M62 587l23 206q4 31 24.5 48.5t50.5 17.5h50l21 189q18 167 126.5 258t270.5 91q68 0 142.5 -21.5t111.5 -56.5q22 -22 5 -54l-113 -184q-18 -34 -49 -17q-30 17 -67 17t-67.5 -23t-35.5 -67l-13 -132h584q14 0 23.5 -10.5t8.5 -24.5l-84 -788q-1 -17 -11 -26.5t-25 -9.5 h-207q-42 0 -62.5 26t-16.5 68l48 468h-290l-57 -526q-1 -14 -13.5 -25t-26.5 -11h-198q-42 0 -65.5 26.5t-19.5 68.5l49 467h-92q-12 0 -19.5 7t-5.5 18z" />
<glyph unicode="&#xfb02;" horiz-adv-x="1272" d="M50 587l23 206q4 31 24.5 48.5t50.5 17.5h50l21 189q18 170 132 262t298 92q115 0 245 -50v2q2 15 12.5 24.5t25.5 9.5h260q14 0 23.5 -10t8.5 -24l-139 -1318q-1 -17 -11.5 -26.5t-25.5 -9.5h-206q-42 0 -63 26t-17 68l99 939q-108 53 -188 53q-118 0 -131 -97l-14 -130 h144q11 0 18 -7t6 -19l-26 -245q0 -10 -8.5 -18t-19.5 -8h-146l-55 -526q-1 -14 -13.5 -25t-26.5 -11h-198q-42 0 -65.5 26.5t-19.5 68.5l49 467h-92q-12 0 -19.5 7t-5.5 18z" />
<glyph horiz-adv-x="0" />
<glyph horiz-adv-x="682" />
<glyph unicode=" "  horiz-adv-x="541" />
<glyph unicode="&#x09;" horiz-adv-x="541" />
<glyph unicode="&#xa0;" horiz-adv-x="541" />
<glyph unicode="!" horiz-adv-x="602" d="M52 193q9 84 77 145t152 61t137.5 -61t44.5 -145q-9 -85 -75.5 -145t-151.5 -60q-84 0 -138.5 60.5t-45.5 144.5zM186 587l5 737l3 30q2 14 12.5 24t26.5 10h302q14 0 23 -10t8 -24l-4 -30l-147 -737q-9 -37 -38 -37h-158q-16 0 -25 10t-8 27z" />
<glyph unicode="&#x22;" horiz-adv-x="829" d="M83 904l44 413q2 15 13 26t25 11h238q16 0 26.5 -11t6.5 -26l-96 -413q-2 -15 -12.5 -24.5t-25.5 -9.5h-186q-14 0 -24 10t-9 24zM500 904l43 413q2 15 13 26t25 11h238q16 0 26.5 -11t6.5 -26l-95 -413q-2 -15 -12.5 -24.5t-25.5 -9.5h-186q-15 0 -24.5 10t-8.5 24z" />
<glyph unicode="#" horiz-adv-x="1148" d="M38 380l24 215q2 16 13 26.5t27 10.5h141l31 128h-92q-14 0 -24 10.5t-9 24.5l23 215q2 16 13 26.5t27 10.5h133l77 307q9 34 38 34h200q15 0 26 -10t7 -24l-77 -307h111l77 307q9 34 38 34h199q15 0 26 -10t7 -24l-76 -307h101q15 0 23.5 -10t7.5 -25l-23 -215 q-2 -15 -13 -26t-25 -11h-142l-31 -128h93q15 0 24 -10t8 -25l-25 -215q-2 -15 -13 -26t-25 -11h-134l-76 -309q-4 -15 -14 -25.5t-24 -10.5h-200q-16 0 -26.5 10.5t-6.5 25.5l77 309h-111l-77 -309q-4 -15 -14 -25.5t-24 -10.5h-200q-16 0 -26.5 10.5t-6.5 25.5l77 309 h-101q-14 0 -24 10.5t-9 24.5zM514 632h111l31 128h-111z" />
<glyph unicode="$" horiz-adv-x="1105" d="M29.5 206.5q1.5 11.5 12.5 26.5l177 210q15 20 38.5 22t32.5 -10q2 -1 25 -20t48 -37.5t63 -34.5t72 -16q115 0 120 64q4 15 2 30.5t-11 30.5t-39 35.5t-82 46.5q-48 24 -79.5 40.5t-76 44t-73.5 52t-60 59.5t-47.5 70.5t-25 81.5t-3.5 96q12 125 102.5 231t234.5 153 l14 142q5 35 40 35h281q33 0 28 -35l-14 -132q29 -8 58 -20.5t49 -23t43 -26t34 -23.5t28 -22t19 -15q15 -11 16 -29t-13 -35l-167 -200q-16 -20 -36.5 -28t-41.5 4l-12 8q-11 9 -21 15.5t-27 17.5t-33.5 19t-35.5 16t-39 12.5t-38 4.5q-46 0 -76 -21t-32 -50 q-4 -33 26 -57.5t150 -81.5q63 -28 101.5 -47.5t99 -62t93 -86t52.5 -111.5t8 -146q-20 -136 -114 -243.5t-237 -153.5l-12 -128q-5 -35 -37 -35h-281q-36 0 -31 35l12 123q-32 9 -61 21t-54 27t-44 27.5t-39 30t-29 26t-24 24t-16 16.5q-10 9 -14.5 15t-3 17.5z" />
<glyph unicode="%" horiz-adv-x="1258" d="M57 10.5q-6 10.5 4 24.5l871 1333q14 20 38 20h229q16 0 23.5 -12t-2.5 -26l-868 -1327q-16 -23 -40 -23h-232q-17 0 -23 10.5zM104 1126q12 102 93 175.5t185 73.5q101 0 167.5 -74t54.5 -175q-9 -104 -90 -177.5t-183 -73.5q-104 0 -170.5 73.5t-56.5 177.5zM673 252 q11 102 92.5 175t185.5 73q101 0 167 -73.5t57 -174.5q-12 -104 -93.5 -178t-182.5 -74q-104 0 -170.5 74t-55.5 178z" />
<glyph unicode="&#x26;" horiz-adv-x="1164" d="M-52 396.5q10 67.5 40 134.5q34 75 96.5 131t156.5 105q-48 67 -85 125q-51 88 -39.5 191.5t77.5 186.5q65 83 148.5 120t192.5 37q113 0 188 -36t124 -127q32 -62 36 -134t-20 -145t-87 -141.5t-158 -116.5l113 -161q4 12 23.5 70t31.5 91q17 38 51 38h272 q19 0 28.5 -12t2.5 -29q-59 -140 -78 -209q-8 -29 -41 -29h-75q-47 -107 -54 -123q60 -72 158 -87q18 -2 29.5 -14.5t10.5 -28.5l-21 -186q-5 -41 -42 -44q-220 -13 -341 134q-47 -41 -87.5 -66t-100.5 -43q-91 -27 -180 -28.5t-173 31.5t-135 103q-42 57 -57 126t-5 136.5z M266 444q-29 -62 3 -113q33 -51 116 -46q83 9 125 55l-147 198q-68 -32 -97 -94zM406 1086q-7 -34 9.5 -67.5t65.5 -96.5q106 87 113 154q5 42 -25 69.5t-76 20.5q-35 -5 -57.5 -26t-29.5 -54z" />
<glyph unicode="'" horiz-adv-x="397" d="M83 904l44 413q2 15 13 26t25 11h238q16 0 26.5 -11t6.5 -26l-96 -413q-2 -15 -12.5 -24.5t-25.5 -9.5h-186q-14 0 -24 10t-9 24z" />
<glyph unicode="(" horiz-adv-x="784" d="M83 661q84 780 689 859q14 2 22 -6.5t6 -22.5l-19 -264q-3 -30 -33 -33q-67 -8 -117 -37t-83.5 -71.5t-57 -110t-36.5 -140t-24 -174.5q-16 -160 -12 -271t55.5 -174t161.5 -77q30 -3 26 -33l-34 -271q-2 -15 -12 -23t-25 -6q-294 40 -419.5 263t-87.5 592z" />
<glyph unicode=")" horiz-adv-x="784" d="M-23 -165l21 271q4 30 33 33q69 8 119.5 35.5t83 67.5t55.5 106.5t35 137t23 175.5q16 158 11 271.5t-56.5 180.5t-157.5 81q-29 3 -26 33l33 264q5 32 35 29q299 -40 424 -258.5t84 -600.5q-39 -369 -211 -592t-476 -263q-15 -2 -23.5 6t-6.5 23z" />
<glyph unicode="*" horiz-adv-x="734" d="M97 949q-17 33 16 47l142 70l-128 69q-33 15 -6 47l80 109q23 32 47 11l97 -78l2 130q3 34 38 34h129q38 0 31 -34l-24 -130l112 78q30 22 47 -11l56 -109q15 -32 -16 -47l-142 -69l128 -70q29 -15 6 -47l-80 -109q-24 -32 -49 -10l-95 78l-4 -130q0 -35 -38 -35h-128 q-37 0 -32 35l25 130l-113 -78q-29 -21 -45 10z" />
<glyph unicode="+" horiz-adv-x="1095" d="M113 521l22 220q1 16 12.5 25.5t27.5 9.5h245l26 246q2 15 12.5 25t25.5 10h219q14 0 24 -10.5t9 -24.5l-26 -246h246q15 0 24.5 -9.5t7.5 -25.5l-23 -219q-2 -14 -13 -25t-25 -11h-247l-26 -245q-1 -14 -12.5 -24t-25.5 -10h-219q-16 0 -25 9t-8 25l27 245h-245 q-15 0 -25 10.5t-8 24.5z" />
<glyph unicode="," horiz-adv-x="531" d="M10 182q9 83 74.5 142.5t148.5 59.5q57 0 103.5 -30.5t67.5 -79.5q18 -39 21 -85q2 -74 -8.5 -133t-38.5 -136q-38 -85 -105 -156.5t-136 -112.5q-32 -15 -47 5l-34 52q-8 17 3 25q70 50 118 109.5t69 141.5q-40 -7 -55 -7q-83 0 -136.5 61t-44.5 144z" />
<glyph unicode="-" horiz-adv-x="749" d="M69 330v201q0 16 10.5 26.5t26.5 10.5h540q14 0 24 -10t10 -25v-202q0 -14 -10 -25t-24 -11h-540q-14 0 -25.5 10.5t-11.5 24.5z" />
<glyph unicode="." horiz-adv-x="551" d="M71 184q0 85 60 145t143 60q85 0 146 -60t61 -145t-61 -146t-146 -61q-83 0 -143 61t-60 146z" />
<glyph unicode="/" horiz-adv-x="833" d="M-17 36l527 1318q13 34 40 34h287q16 0 26 -10t5 -24l-526 -1318q-15 -36 -40 -36h-288q-14 0 -25 11.5t-6 24.5z" />
<glyph unicode="0" horiz-adv-x="1237" d="M76 661q15 143 64 268t126.5 220t188.5 150t241 55q131 0 230.5 -55t157 -150t80.5 -220t8 -268q-14 -141 -63 -264t-126.5 -216.5t-188.5 -147.5t-242 -54q-130 0 -229.5 54t-157 147.5t-80.5 216.5t-9 264zM415 665q-17 -167 25 -273t147 -106t167 105.5t79 273.5 q12 109 0.5 193t-54 137t-113.5 53q-105 0 -168.5 -107t-82.5 -276z" />
<glyph unicode="1" horiz-adv-x="732" d="M109 889l2 199q0 18 7.5 27.5t27.5 14.5q90 27 224 165l24 28q13 13 33 13h250q15 0 24.5 -10t8.5 -24l-134 -1266q-2 -14 -13 -25t-25 -11h-269q-16 0 -25 10t-8 26l90 858l-180 -33q-37 -5 -37 28z" />
<glyph unicode="2" horiz-adv-x="1086" d="M49 36l8 66l493 568q70 78 104 132t39 104q6 56 -27 98.5t-95 42.5q-34 0 -67 -13t-60.5 -35.5t-49.5 -44.5t-46 -49q-7 -9 -11 -13q-23 -26 -52 0l-151 151q-9 10 -8 24.5t11 24.5q74 89 142.5 145t158.5 90t197 34q82 0 157.5 -30t131.5 -82.5t85 -131t20 -168.5 q-18 -163 -146 -309l-295 -333h351q36 0 33 -35l-24 -236q-1 -14 -15 -25t-29 -11h-821q-14 0 -24.5 11t-9.5 25z" />
<glyph unicode="3" horiz-adv-x="1072" d="M49 213q-20 24 7 49l197 168q25 23 47 -3q110 -122 205 -122q57 0 93.5 38.5t40.5 83.5q4 44 -20.5 76.5t-70.5 32.5q-17 0 -42 -5t-32 -5q-18 0 -28 14l-104 163q-17 29 7 52l298 269h-434q-15 0 -25 10.5t-9 24.5l26 241q1 16 12.5 26t27.5 10h748q36 0 33 -36 l-25 -231q-3 -36 -31 -64l-245 -229q97 -28 158 -97q106 -116 89 -297q-12 -110 -84 -202t-182.5 -144.5t-233.5 -52.5q-133 0 -234.5 57t-188.5 173z" />
<glyph unicode="4" horiz-adv-x="1065" d="M43 262l23 234q3 19 21 32q126 96 231.5 225t179.5 278q61 124 82 288q2 16 12 25.5t26 9.5h262q16 0 25.5 -10.5t7.5 -26.5q-18 -139 -66 -273.5t-115 -231.5q-128 -185 -230 -279h105l6 43q3 29 38 38l231 49q16 4 25.5 -8.5t7.5 -29.5l-11 -92h40q36 0 31 -35 l-24 -234q-2 -15 -13 -26t-25 -11h-40l-21 -192q-3 -35 -38 -35h-226q-14 0 -24 10.5t-9 24.5l21 192h-500q-14 0 -24 10.5t-9 24.5z" />
<glyph unicode="5" horiz-adv-x="1083" d="M49 208q-19 25 7 51l197 185q27 27 52 0q105 -114 209 -114q51 0 84.5 29.5t38.5 76.5q4 44 -21 74t-73 30t-81 -19l-283 73q-16 4 -26 16.5t-9 26.5l69 656q2 19 14 31t32 11q259 -7 361 -7q101 0 355 7q22 1 32 -9t8 -30l-22 -225q-1 -14 -12.5 -24.5t-24.5 -12.5 q-136 -12 -295 -12q-103 0 -149 4l-17 -163q67 15 151 15q89 0 160 -38t112.5 -100.5t60 -141t9.5 -161.5q-20 -190 -168.5 -322t-354.5 -132q-248 0 -416 225z" />
<glyph unicode="6" horiz-adv-x="1074" d="M73 561q15 141 74 278t151 250.5t224 186t280 78.5q17 1 26.5 -9.5t9.5 -28.5l-15 -254q0 -15 -14 -26.5t-30 -11.5q-211 -4 -307 -203q46 14 118 14q176 0 290 -122t95 -302q-18 -181 -161.5 -304.5t-336.5 -123.5q-106 0 -189.5 45.5t-134 124t-71.5 184t-9 224.5z M406 413q-4 -50 27 -85t81 -35q47 0 85 35.5t43 84.5q5 48 -26.5 85.5t-77.5 37.5q-49 0 -88 -37t-44 -86z" />
<glyph unicode="7" horiz-adv-x="1041" d="M75.5 21q-3.5 21 2.5 31l507 963h-443q-14 0 -24.5 10.5t-9.5 24.5l26 248q2 16 13.5 27t27.5 11h839q34 0 31 -34l-7 -63q0 -1 -9 -28l-597 -1178q-7 -13 -23 -23t-29 -10h-285q-16 0 -19.5 21z" />
<glyph unicode="8" horiz-adv-x="1083" d="M52 361q-18 -164 96 -271t324 -107q216 0 352.5 106.5t154.5 271.5q7 70 -8.5 126.5t-50.5 95.5t-64.5 60.5t-69.5 43.5v7q41 22 70.5 43t65.5 56.5t58 86t28 113.5q17 158 -93 259.5t-299 101.5q-183 0 -313 -102t-147 -259q-19 -199 156 -300v-6q-32 -16 -63 -36.5 t-78 -61t-79.5 -100t-39.5 -128.5zM392 378q4 42 43 77.5t94 35.5q56 0 86.5 -35t26.5 -78q-4 -45 -43.5 -76t-91.5 -31q-51 0 -85 31t-30 76zM472 965q4 42 38 71.5t77 29.5q46 0 76 -29.5t26 -71.5q-4 -39 -38.5 -71.5t-81.5 -32.5t-75 32t-22 72z" />
<glyph unicode="9" horiz-adv-x="1074" d="M175 925q18 181 161.5 305t336.5 124q141 0 240 -78.5t140.5 -209t24.5 -290.5q-12 -112 -51.5 -223t-105.5 -211.5t-150.5 -178.5t-194 -126.5t-229.5 -53.5q-17 -1 -26.5 9.5t-9.5 28.5l15 253q0 15 14.5 26.5t30.5 11.5q212 4 306 203q-43 -13 -118 -13 q-175 0 -289 122t-95 301zM509 923q-5 -48 26.5 -85.5t77.5 -37.5q49 0 88 37t44 86q4 50 -27.5 85t-80.5 35q-47 0 -85.5 -35.5t-42.5 -84.5z" />
<glyph unicode=":" horiz-adv-x="581" d="M43 184q9 83 74.5 142t148.5 59q84 0 139 -59t46 -142t-76.5 -145t-150.5 -62t-136.5 61.5t-44.5 145.5zM94 682q9 83 74.5 142t150.5 59q84 0 138 -59t45 -142q-7 -84 -75.5 -145t-152.5 -61q-83 0 -136 60.5t-44 145.5z" />
<glyph unicode=";" horiz-adv-x="550" d="M43 184q9 83 74.5 142t148.5 59q61 0 108 -32t67 -84q15 -31 19 -80q2 -73 -9 -130.5t-40 -138.5q-38 -86 -105 -157.5t-136 -111.5q-32 -15 -47 5l-36 51q-9 18 3 26q71 50 120.5 109.5t70.5 143.5q-34 -9 -57 -9q-83 0 -136.5 61.5t-44.5 145.5zM94 682q9 83 74.5 142 t150.5 59q84 0 138 -59t45 -142q-7 -84 -75.5 -145t-152.5 -61q-83 0 -136 60.5t-44 145.5z" />
<glyph unicode="&#x3c;" horiz-adv-x="864" d="M73 640q-4 -21 14 -31l583 -382q17 -11 34.5 -1.5t19.5 31.5l26 241q2 20 -16 30l-220 118l246 118q19 15 21 29l24 241q2 22 -14 31.5t-33 -1.5l-664 -384q-7 -4 -13 -14t-6 -17z" />
<glyph unicode="=" horiz-adv-x="1041" d="M66 326l21 202q2 16 13.5 26t27.5 10h780q15 0 23.5 -10t7.5 -25l-23 -201q-2 -14 -13 -25t-25 -11h-779q-15 0 -24.5 10t-8.5 24zM111 755l21 201q2 16 13 26.5t27 10.5h779q15 0 23.5 -10t7.5 -25l-20 -201q-2 -14 -13.5 -25.5t-25.5 -11.5h-779q-15 0 -25 10.5 t-8 24.5z" />
<glyph unicode="&#x3e;" horiz-adv-x="864" d="M68 257q-2 -22 12.5 -31.5t34.5 1.5l663 382q16 9 20 31l2 9q0 22 -16 31l-581 384q-17 11 -34.5 1.5t-19.5 -31.5l-24 -241q-2 -17 14 -29l220 -118l-246 -118q-16 -9 -19 -30z" />
<glyph unicode="?" horiz-adv-x="808" d="M97 1191q-18 21 4 43q180 184 399 181q90 -3 175 -39q90 -39 133 -133t20 -202.5t-109 -183.5q-30 -27 -65.5 -57t-48.5 -40t-30.5 -29.5t-21.5 -25.5t-11 -28.5t-8 -37t-5 -52.5q-2 -15 -13 -26t-25 -11h-224q-16 0 -25.5 10.5t-7.5 26.5l14 163q2 26 39.5 64t82 70.5 t83.5 71t42 66.5q6 48 -21.5 72.5t-69.5 24.5q-10 0 -19 -1.5t-16.5 -3.5t-17 -7.5t-15 -8.5t-17 -12t-16.5 -12.5t-19.5 -15.5t-19.5 -17q-26 -21 -44 0zM128 193q9 83 78 144.5t152 61.5q84 0 137.5 -61t44.5 -145q-9 -85 -75 -145t-151 -60t-140 60.5t-46 144.5z" />
<glyph unicode="@" horiz-adv-x="2025" d="M92 491q27 252 170.5 463.5t372 336t491.5 124.5q157 0 293.5 -47.5t232 -127.5t162 -181.5t93.5 -213t16 -218.5q-9 -90 -27 -171.5t-54 -169t-85.5 -150.5t-127 -104t-173.5 -41q-53 0 -92.5 16t-60 42t-30.5 50.5t-13 51.5q-45 -38 -120 -78q-30 -17 -50.5 -26 t-58.5 -19t-82 -12q-47 -3 -97 5.5t-99 28.5t-84 60t-42 95q-5 47 -1 90t34 84t82.5 76.5t145 68.5t221.5 59q2 13 -8 29t-27 21q-38 14 -117 4.5t-159 -40.5q-16 -7 -29.5 -2t-15.5 19l-31 158q-2 13 5 27.5t19 19.5q180 79 337 77q70 -1 132.5 -21t110.5 -56.5t71 -95 t12 -129.5q-12 -73 -19 -160q-4 -73 14 -100t61 -27q57 0 76 56t38 232q11 98 -15 184.5t-85.5 154t-161.5 107t-234 39.5q-267 0 -447 -164t-207 -425q-16 -149 33.5 -282t156.5 -221.5t249 -108.5q24 -4 19 -37l-28 -271q-2 -28 -50 -24q-149 15 -274.5 76.5t-212 154 t-144 209t-79 245.5t-7.5 259zM889 284q3 -32 40 -36q75 -9 142 49q2 12 5 38.5t4 37.5q-132 -33 -162 -45q-32 -12 -29 -44z" />
<glyph unicode="A" horiz-adv-x="1516" d="M12 12q-2 4 -2 8q0 9 6 20l789 1338q10 17 30 17h14q19 0 26 -17l508 -1338q3 -7 3 -14q0 -8 -5 -14q-9 -12 -27 -12h-287q-25 0 -33 23l-55 152h-531l-87 -152q-13 -23 -40 -23h-286q-17 0 -23 12zM618 476h253l-97 274z" />
<glyph unicode="B" horiz-adv-x="1187" d="M45 36l139 1318q2 15 12.5 24.5t25.5 9.5h502q115 0 201 -56t124 -138q31 -66 31 -134q0 -16 -2 -33q-11 -94 -50 -162t-120 -115q96 -64 144 -157q38 -74 38 -155q0 -21 -2 -42q-18 -165 -156 -280.5t-307 -115.5h-547q-16 0 -25 10t-8 26zM411 307h174q82 1 123 61 q24 36 24 71q0 24 -11 49q-28 60 -112 60h-172zM469 838h125q78 0 118 61q24 37 24 74q0 25 -10 49q-26 62 -106 61h-125z" />
<glyph unicode="C" horiz-adv-x="1388" d="M83 694q15 144 85 275t175 225.5t243 150.5t284 56q144 0 270.5 -57t211.5 -160q9 -11 9 -21q0 -14 -16 -28l-234 -179q-27 -22 -49 0q-56 59 -107.5 87t-128.5 28q-139 0 -259.5 -114t-136.5 -261q-2 -21 -2 -42q0 -124 82 -222q96 -114 236 -114q77 0 134 26.5 t125 82.5q25 24 49 0l196 -175q23 -23 -4 -49q-106 -102 -244 -158.5t-282 -56.5q-195 0 -348.5 94.5t-231.5 256.5q-62 129 -61 277q0 38 4 78z" />
<glyph unicode="D" horiz-adv-x="1412" d="M45 36l139 1318q2 15 12.5 24.5t25.5 9.5h465q131 0 243.5 -40.5t189 -109t128.5 -156.5q53 -88 73 -186q13 -65 13 -130q0 -32 -3 -65q-15 -140 -77.5 -266t-162 -223.5t-242 -154.5t-306.5 -57h-465q-16 0 -25 10t-8 26zM423 338h155q85 0 159.5 31.5t125 83.5t82 116 t39.5 132q2 21 2 41q0 120 -76 208q-88 102 -257 102h-155z" />
<glyph unicode="E" horiz-adv-x="1173" d="M71 36l139 1318q2 15 12.5 24.5t25.5 9.5h856q14 0 24 -10t9 -24l-23 -236q-2 -16 -13.5 -25.5t-27.5 -9.5h-552l-28 -253h295q14 0 24 -10.5t9 -24.5l-26 -234q-2 -16 -13 -26.5t-27 -10.5h-293l-25 -217h554q14 0 24 -10.5t9 -24.5l-26 -236q-1 -16 -12.5 -26 t-27.5 -10h-854q-16 0 -25 10t-8 26z" />
<glyph unicode="F" horiz-adv-x="1048" d="M33 89l132 1265q2 15 12.5 24.5t25.5 9.5h838q15 0 24.5 -10t8.5 -24l-24 -236q-2 -16 -14 -25.5t-28 -9.5h-532l-28 -253h277q14 0 24 -10.5t9 -24.5l-26 -234q-2 -16 -12.5 -26.5t-26.5 -10.5h-276l-53 -488q-2 -14 -13 -25t-25 -11h-215q-43 0 -63 24q-16 19 -16 49 q0 8 1 16z" />
<glyph unicode="G" horiz-adv-x="1388" d="M83 694q15 144 85 275t175 225.5t243 150.5t284 56q144 0 270.5 -57t211.5 -160q9 -11 9 -21q0 -14 -16 -28l-234 -179q-27 -22 -49 0q-56 59 -107.5 87t-128.5 28q-139 0 -259.5 -114t-136.5 -261q-2 -21 -2 -42q0 -124 82 -222q96 -114 236 -114q72 0 127 23.5 t115 71.5l3 40h-217q-38 0 -33 35l23 234q5 36 41 36l474 -5q38 8 35 -29l-52 -498h-2q-4 -16 -14 -23q-106 -102 -244 -158.5t-282 -56.5q-195 0 -348.5 94.5t-231.5 256.5q-61 129 -61 277q0 38 4 78z" />
<glyph unicode="H" horiz-adv-x="1450" d="M69 36l139 1318q2 15 12.5 24.5t25.5 9.5h269q15 0 24.5 -10t8.5 -24l-53 -505h510l52 505q2 15 12.5 24.5t25.5 9.5h273q14 0 23 -10t8 -24l-139 -1318q-1 -17 -11 -26.5t-25 -9.5h-219q-42 0 -63 26q-18 22 -18 55q0 6 1 13l43 413h-508l-50 -471q-2 -14 -13.5 -25 t-25.5 -11h-269q-16 0 -25 10t-8 26z" />
<glyph unicode="I" horiz-adv-x="619" d="M80 36q-1 -16 8 -26t25 -10h267q14 0 25 11t13 25l139 1318q1 14 -9 24t-24 10h-267q-15 0 -25.5 -9.5t-12.5 -24.5z" />
<glyph unicode="J" horiz-adv-x="638" d="M-50 -337q-4 8 -4 15q0 18 26 30q94 56 103 144l145 1380q1 16 1 33q0 35 -4 78q-2 18 5 31.5t21 13.5h297q18 0 28.5 -11t9.5 -28l-160 -1512q-20 -163 -101.5 -267t-214.5 -167q-11 -5 -20 -5q-17 0 -26 19z" />
<glyph unicode="K" horiz-adv-x="1312" d="M52 36l127 1196q1 10 1 22q0 36 -5 89q-2 18 5 31.5t21 13.5h290q17 0 28 -11t10 -28l-43 -407l423 427q19 19 46 19h274q34 0 44 -26q3 -8 3 -16q0 -19 -18 -36l-590 -590l510 -635q23 -27 8.5 -56t-51.5 -29h-269q-28 0 -40 17l-387 486l-48 -467q-2 -14 -13.5 -25 t-25.5 -11h-267q-16 0 -25 10t-8 26z" />
<glyph unicode="L" horiz-adv-x="1089" d="M52 36l139 1318q2 15 12.5 24.5t25.5 9.5h267q14 0 24 -10t9 -24l-109 -1047h507q15 0 23.5 -10t7.5 -25l-26 -236q-2 -14 -13 -25t-25 -11h-809q-16 0 -25 10t-8 26z" />
<glyph unicode="M" horiz-adv-x="1844" d="M62 36l139 1318q2 14 12.5 24t26.5 10h255q21 0 34 -24l389 -715l549 715q18 24 36 24h257q14 0 24 -10t9 -24l-139 -1318q-2 -14 -13 -25t-25 -11h-267q-16 0 -25 10t-8 26l71 672l-478 -614q-19 -26 -46 -26h-14q-24 0 -38 26l-339 612l-71 -670q-2 -14 -13 -25 t-25 -11h-268q-16 0 -25 10t-8 26z" />
<glyph unicode="N" horiz-adv-x="1475" d="M69 36l139 1318q1 14 12.5 24t25.5 10h164q26 0 48 -27l554 -717l74 708q2 15 13 25t26 10l265 1q16 0 25 -10t8 -26l-139 -1317q-2 -14 -13 -24.5t-25 -10.5h-92q-93 0 -173 106l-500 635l-75 -705q-2 -14 -13 -25t-25 -11h-266q-16 0 -25 10t-8 26z" />
<glyph unicode="O" horiz-adv-x="1607" d="M99 694q-4 -38 -4 -74q-1 -104 31 -201q42 -131 127.5 -225.5t211.5 -150t271 -55.5q192 0 364.5 94t283.5 256.5t131 355.5q4 41 4 81q-1 146 -61 274q-78 163 -230.5 257.5t-344.5 94.5q-194 0 -367 -94.5t-284.5 -257t-132.5 -355.5zM446 696q16 149 136.5 262 t266.5 113q145 0 241 -113q82 -97 82 -220q0 -21 -2 -42q-16 -150 -135.5 -264t-265.5 -114q-96 0 -174.5 53t-118.5 140q-32 70 -32 146q0 19 2 39z" />
<glyph unicode="P" horiz-adv-x="1188" d="M61 36l139 1318q2 15 12.5 24.5t25.5 9.5h493q99 0 186 -43t145 -111q57 -68 87 -152q23 -65 23 -129q0 -19 -2 -38q-10 -89 -58 -177t-119.5 -156t-167.5 -110t-195 -42h-189l-42 -394q-2 -14 -13 -25t-25 -11h-267q-16 0 -25 10t-8 26zM476 760h185q69 0 116 45t54 110 q1 9 1 17q0 47 -32 84q-38 43 -107 43h-186z" />
<glyph unicode="Q" horiz-adv-x="1714" d="M92 694q21 193 132.5 355.5t284.5 257t367 94.5q192 0 345 -94.5t231 -257.5q60 -128 60 -274q0 -40 -4 -81q-14 -137 -76 -260t-160 -219l70 -137q12 -24 25.5 -44.5t20 -28.5t21.5 -23.5t16 -16.5q14 -15 10.5 -31t-17.5 -24l-217 -125q-28 -16 -54 -16q-8 0 -16 1 q-33 7 -51 41l-117 215q-119 -38 -234 -38q-145 0 -271 55.5t-211 150t-127 225.5q-32 97 -32 201q0 36 4 74zM439 696q-2 -20 -2 -39q0 -65 23 -125q31 -79 92 -133q-11 39 -11 77q0 11 1 22q10 95 95 160.5t186 65.5q185 0 274 -172l10 -19q49 81 56 163q2 21 2 42 q0 123 -81 220q-96 113 -242 113t-266.5 -113t-136.5 -262zM576 378l25 -15zM647 371q-1 -3 -1 -7q0 -12 5 -26q50 -20 111 -20q33 0 40 1q-18 35 -27 50.5t-28 33t-39 17.5q-25 0 -42 -15t-19 -34z" />
<glyph unicode="R" horiz-adv-x="1279" d="M45 36l139 1318q2 15 12.5 24.5t25.5 9.5h564q106 0 193.5 -44.5t140.5 -114.5q52 -71 78 -153q19 -63 19 -122q0 -19 -2 -38q-12 -118 -86 -231.5t-190 -182.5l229 -460q8 -18 0 -30t-29 -12h-261q-35 0 -64 24.5t-40 50.5l-167 355h-182l-41 -394q-2 -14 -13.5 -25 t-25.5 -11h-267q-16 0 -25 10t-8 26zM458 738h207q50 0 89.5 16.5t62 43t34.5 55t15 58.5q1 9 1 18q1 55 -33 101q-38 52 -133 53h-206z" />
<glyph unicode="S" horiz-adv-x="1126" d="M50 179q-14 14 -14 29q0 16 16 35l153 186q15 20 37.5 22t33.5 -10q3 -2 17.5 -16t21 -20.5t23 -20t28 -20.5t30 -17.5t35 -15.5t37 -9t41.5 -4q62 0 108.5 26.5t50.5 68.5q5 30 -17 51.5t-73 47.5q-191 107 -235 136q-140 92 -183 188q-25 55 -25 120q0 18 2 37 q9 78 50 150.5t107 130.5t163 93t208 35q31 0 61 -3.5t55 -8.5t51.5 -14.5t45.5 -17t41.5 -20t35.5 -20t31.5 -20.5t25.5 -18.5l21 -16.5t15 -12q19 -16 19 -33q0 -15 -15 -31l-155 -187q-16 -20 -35.5 -27t-40.5 4q-1 1 -12.5 9t-16.5 11t-18 11.5t-21 13t-22.5 12t-25 12 t-25.5 10t-27.5 8.5t-27 5t-28.5 2q-42 0 -76 -23t-39 -54q-2 -33 16.5 -50.5t79.5 -47.5q171 -89 207 -111q155 -93 204 -200q29 -62 29 -136q0 -22 -3 -45q-18 -173 -169 -294.5t-360 -121.5q-49 0 -95 7t-81.5 17t-70.5 26.5t-57.5 30t-48 33.5t-36.5 30.5t-28 27.5z" />
<glyph unicode="T" horiz-adv-x="1284" d="M139 1118l26 234q1 16 12.5 26t27.5 10h1041q15 0 23.5 -9.5t7.5 -24.5l-24 -236q-2 -14 -14 -24.5t-26 -10.5h-352l-109 -1047q-1 -17 -11.5 -26.5t-25.5 -9.5h-215q-42 0 -63 26q-18 22 -18 55q0 6 1 13l104 989h-352q-15 0 -24.5 10t-8.5 25z" />
<glyph unicode="U" horiz-adv-x="1372" d="M109 500q-3 -28 -3 -55q0 -77 22 -145q28 -92 90 -162t164.5 -110t233.5 -40q132 0 244.5 40t191 109.5t127 162.5t60.5 200l90 854q1 14 -9 24t-24 10h-267q-15 0 -25.5 -9.5t-12.5 -24.5l-83 -802q-12 -104 -75.5 -172.5t-181.5 -68.5q-49 0 -86.5 13t-59.5 36 t-35.5 53.5t-15.5 65.5q-1 14 -1 28q0 22 2 45l83 802q1 14 -8 24t-23 10h-269q-15 0 -25.5 -9.5t-12.5 -24.5z" />
<glyph unicode="V" horiz-adv-x="1470" d="M128 1342q-3 9 -3 17q0 10 6 17q11 12 30 12h289q24 0 39 -43l249 -718l399 718q13 23 23.5 33t23.5 10h288q19 0 27 -12q3 -5 3 -12q0 -10 -6 -24l-772 -1317q-22 -37 -44 -37h-20q-20 0 -35 37z" />
<glyph unicode="W" horiz-adv-x="1992" d="M125 1342q-3 9 -3 17q0 10 6 17q11 12 30 12h288q24 0 42 -43l274 -720l83 149l-220 568q-8 22 3 34t30 12h288q25 0 40 -43l69 -191l106 191q25 43 49 43h288q19 0 26.5 -11.5t-4.5 -36.5l-328 -561l58 -154l411 720q25 43 49 43h288q18 0 26 -12q3 -4 3 -10 q0 -10 -7 -26l-784 -1317q-22 -37 -44 -37h-20q-20 0 -35 37l-155 397l-232 -397q-22 -37 -45 -37h-21q-20 0 -35 37z" />
<glyph unicode="X" horiz-adv-x="1346" d="M-6 12q-2 5 -2 9q0 7 6 15l495 657l-358 661q-7 14 -1 24t22 10h323q7 0 12 -3.5t7 -6t6 -12t6 -12.5l202 -370l277 370q3 4 9 13t8.5 12t8 6t12.5 3h325q16 0 20 -10q1 -3 1 -6q0 -8 -7 -18l-496 -661l357 -657q7 -12 -0.5 -24t-21.5 -12h-325q-7 0 -13 4t-8 7.5 t-6 12.5t-6 12l-196 365l-274 -365q-2 -3 -8 -12.5t-9 -12.5t-9.5 -7t-13.5 -4h-323q-14 0 -20 12z" />
<glyph unicode="Y" horiz-adv-x="1343" d="M91 1377q6 11 22 11h321q4 0 7.5 -1t6.5 -3t4.5 -4l4.5 -6t4 -6l4 -8l4 -8l229 -411l314 411q2 2 6.5 9t6.5 9t6 6.5t7 6.5t7 3.5t9 1.5h321q16 0 20 -11q1 -3 1 -6q0 -9 -8 -19l-553 -725l-63 -591q-1 -17 -11 -26.5t-25 -9.5h-215q-42 0 -63 26q-18 22 -18 55q0 6 1 13 l54 527l-403 731q-4 8 -4 14t3 11z" />
<glyph unicode="Z" horiz-adv-x="1150" d="M0 35l5 50l54 83l557 879h-467q-15 0 -23.5 9.5t-7.5 24.5l28 271q2 14 13 25t25 11h951q14 0 24.5 -11t8.5 -23l-5 -51v-1l-604 -960h462q15 0 24 -10t7 -25l-23 -218q-5 -41 -31 -65t-66 -24h-899q-14 0 -24.5 11.5t-8.5 23.5z" />
<glyph unicode="[" horiz-adv-x="699" d="M-28 -316l33 304l146 1383l12 125q3 31 35 31h498q31 0 28 -31l-28 -272q-5 -32 -35 -32h-180l-125 -1204h177q32 0 28 -31l-28 -273q-3 -31 -35 -31h-498q-31 0 -28 31z" />
<glyph unicode="\" horiz-adv-x="833" d="M121 1354q-2 14 10.5 24t28.5 10h286q28 0 33 -34l250 -1318q2 -13 -11 -24.5t-27 -11.5h-288q-24 0 -33 36z" />
<glyph unicode="]" horiz-adv-x="699" d="M-28 -316l28 273q4 31 35 31h180l125 1204h-177q-33 0 -28 32l28 272q3 31 35 31h498q31 0 28 -31l-33 -304l-146 -1385l-12 -123q-3 -31 -35 -31h-498q-31 0 -28 31z" />
<glyph unicode="^" horiz-adv-x="1010" d="M67.5 789q7.5 -17 29.5 -17h240q17 0 31 18l180 234l132 -234q10 -18 28 -18h240q23 0 34.5 16.5t1.5 35.5l-352 622q-13 17 -30 17h-10q-8 0 -18.5 -5.5t-14.5 -11.5l-486 -622q-13 -18 -5.5 -35z" />
<glyph unicode="_" horiz-adv-x="933" d="M69 -36q0 16 10.5 26t26.5 10h724q14 0 24 -10t10 -25v-196q0 -14 -10 -25t-24 -11h-724q-15 0 -26 10t-11 24v197z" />
<glyph unicode="`" horiz-adv-x="678" d="M141 1196q-26 -40 3 -56l365 -152q37 -15 50 10l101 144q9 14 7 25t-11 17l-312 224q-12 11 -28 10.5t-28 -14.5z" />
<glyph unicode="a" d="M31 231q-2 -16 -2 -32q0 -89 59 -143q69 -64 205 -65q164 0 261 82q2 -33 15 -53t35 -20h172q19 0 30.5 12t9.5 30v35q0 215 45 506q4 24 4 47q-1 44 -15 82q-22 56 -67 90t-103 51t-125 17q-192 0 -390 -89q-19 -9 -27 -24.5t-3 -31.5l40 -138q4 -16 17.5 -22t29.5 1 q152 61 228 61q50 0 72.5 -19t20.5 -54q-256 -41 -377.5 -120.5t-134.5 -202.5zM328 250q3 32 62.5 55.5t128.5 32.5q-9 -72 -10 -79q-52 -51 -129 -51q-28 0 -41 10q-11 9 -11 27v5z" />
<glyph unicode="b" horiz-adv-x="1129" d="M69 40l122 1159q2 43 1.5 60t-5 46.5t-5.5 36.5q-2 19 8.5 32.5t28.5 13.5h217q94 0 94 -85q0 -8 -1 -17l-48 -460q86 42 184 42q180 0 280 -122q83 -101 83 -247q0 -31 -4 -63q-18 -182 -149.5 -314t-306.5 -132q-120 0 -193 66q-45 -56 -109 -56h-164q-17 0 -26 11 q-7 9 -7 23v6zM429 319q55 -33 113 -33q63 0 113 42.5t55 105.5q1 9 1 18q-1 50 -35 83q-40 39 -102 39q-54 0 -123 -31z" />
<glyph unicode="c" horiz-adv-x="895" d="M47 427q21 195 165 319.5t335 124.5q173 0 295 -119q11 -11 11 -23q0 -14 -15 -30l-140 -154q-12 -13 -28 -13q-15 0 -33 11q-54 31 -106 31q-61 0 -108.5 -43.5t-54.5 -103.5q-1 -7 -1 -13q0 -50 35 -88q39 -43 98 -43q53 0 118 36q16 12 29.5 11.5t25.5 -18.5l98 -166 q18 -29 -9 -52q-147 -106 -309 -106q-125 0 -222 55t-147 156q-40 79 -40 174q0 26 3 54z" />
<glyph unicode="d" horiz-adv-x="1098" d="M50 434q20 187 149.5 309.5t309.5 122.5q104 0 178 -45l40 378q2 44 1.5 60t-4.5 46.5t-5 36.5q-2 19 8.5 32.5t27.5 13.5h217q95 0 95 -85q0 -8 -1 -17l-131 -1246q-2 -18 -14 -29t-29 -11h-163q-64 0 -97 57q-86 -69 -212 -69q-116 0 -206 62t-133 164q-34 80 -34 169 q0 25 3 51zM364 432q-1 -9 -1 -18q0 -53 37 -88q43 -41 109 -41q61 0 126 36l23 217q-63 35 -122 35q-65 0 -115.5 -38t-56.5 -103z" />
<glyph unicode="e" horiz-adv-x="964" d="M47 430q-3 -27 -3 -52q0 -157 102 -264q118 -124 309 -124q223 0 336 131q19 21 19 41q0 11 -6 22l-37 75q-12 24 -35 24q-11 0 -24 -5q-96 -38 -212 -38q-60 0 -109.5 25.5t-58.5 62.5h413q68 0 109.5 37t48.5 98q3 23 3 45q0 52 -16 104q-22 72 -68 130.5t-123 93.5 t-171 35q-181 0 -319 -130.5t-158 -310.5zM347 533q9 27 50 52.5t99 25.5q57 0 93 -25.5t38 -52.5h-280z" />
<glyph unicode="f" horiz-adv-x="761" d="M62 587l23 206q4 31 24.5 48.5t50.5 17.5h50l21 189q18 167 126.5 258t270.5 91q68 0 142.5 -21.5t111.5 -56.5q12 -12 12 -28q0 -12 -7 -26l-113 -184q-18 -34 -49 -17q-30 17 -67 17t-67.5 -23t-35.5 -67l-13 -132h142q11 0 18 -7t6 -19l-26 -245q0 -10 -8.5 -18 t-19.5 -8h-144l-57 -526q-1 -14 -13.5 -25t-26.5 -11h-198q-42 0 -65 26q-21 23 -21 57q0 6 1 12l49 467h-92q-12 0 -19.5 7t-5.5 18z" />
<glyph unicode="g" horiz-adv-x="1060" d="M3 49q5 88 64 137q52 44 132 44q11 0 23 -1q-38 18 -72 85q-27 53 -27 122q0 16 2 33q13 167 136.5 283t288.5 116q42 0 162 -13q86 -9 171 -9q33 0 66 1q14 2 24 -9q8 -8 8 -21v-5l-25 -137q-3 -19 -69 -35q22 -52 22 -123q0 -26 -3 -55q-18 -174 -141 -278 q-115 -97 -274 -97h-21q-43 2 -133 22q-23 7 -38 7q-28 0 -28 -24q0 -25 87 -40q78 -14 239 -38q189 -28 260 -96q57 -55 57 -166q0 -27 -3 -57q-9 -82 -55.5 -143.5t-121 -97t-162.5 -52.5q-84 -16 -179 -16h-11q-126 2 -216 36.5t-133 104.5q-29 48 -29 108q0 28 6 58 q7 33 23.5 59t34 41.5t44.5 28.5t42.5 17.5t41.5 11.5q-39 9 -70 22t-63 35t-48 58q-13 29 -13 65q0 9 1 18zM281 -271v-8q0 -35 29 -49q34 -17 115 -17q162 0 169 66v6q0 33 -49 46q-71 21 -168 36q-10 2 -19 2q-28 0 -48 -17q-25 -22 -29 -65zM411 477q-1 -5 -1 -10 q0 -36 25 -62q28 -30 70 -30q43 0 76.5 29.5t38.5 72.5q1 7 1 14q0 37 -23 62q-27 30 -70 30t-77.5 -30t-39.5 -76z" />
<glyph unicode="h" horiz-adv-x="1112" d="M66 35v-6q0 -11 6 -19q8 -10 25 -10h261q15 0 25.5 10t12.5 25l48 461q55 46 124 46q49 0 74 -32q20 -25 20 -65q0 -11 -2 -23l-33 -330q-1 -7 -1 -13q0 -31 18 -53q20 -26 61 -26h232q14 0 22 13.5t6 31.5q-4 40 -4 75q0 23 2 43l37 351q3 25 3 49q-1 127 -77 209 q-90 96 -246 96q-95 0 -203 -54l51 472q1 9 1 17q0 85 -95 85h-219q-17 0 -26.5 -13.5t-7.5 -32.5q1 -6 5 -36.5t4.5 -46.5t-1.5 -60z" />
<glyph unicode="i" horiz-adv-x="558" d="M43 94q-1 -7 -1 -13q0 -33 18 -55q21 -26 63 -26h207q15 0 25 9.5t11 26.5l84 788q1 14 -8.5 24.5t-23.5 10.5h-260q-15 0 -25.5 -10t-12.5 -25zM174 1225q8 68 61.5 116.5t122.5 48.5q68 0 111 -49q37 -42 37 -98q0 -9 -1 -18q-7 -69 -60.5 -117.5t-121.5 -48.5 q-69 1 -113 49q-37 42 -37 98q0 9 1 19z" />
<glyph unicode="j" horiz-adv-x="529" d="M-144 -340l106 -245q9 -19 27 -19q9 0 20 5q134 62 212.5 169t97.5 279l103 975q1 14 -9 24.5t-24 10.5h-259q-15 0 -25.5 -10t-12.5 -25l-102 -975q-9 -83 -111 -144q-27 -12 -27 -30q0 -7 4 -15zM142 1222q8 69 61.5 117.5t122.5 48.5q70 0 114 -48q37 -42 37 -97 q0 -10 -1 -21q-8 -71 -62 -120.5t-124 -49.5q-68 0 -112 50q-37 43 -37 101q0 9 1 19z" />
<glyph unicode="k" horiz-adv-x="1126" d="M68 35l123 1164q2 43 1.5 60t-5 46.5t-5.5 36.5q-2 19 8.5 32.5t28.5 13.5h217q94 0 94 -85q0 -8 -1 -17l-71 -679l224 230q22 22 49 22h248q37 1 45 -29q2 -7 2 -14q0 -22 -21 -42l-312 -305l295 -387q19 -26 4.5 -53t-48.5 -27h-264q-25 0 -41 22l-212 295l-30 -284 q-2 -15 -12.5 -25t-25.5 -10h-260q-14 0 -23.5 10.5t-7.5 24.5z" />
<glyph unicode="l" horiz-adv-x="576" d="M71 94q-1 -7 -1 -13q0 -33 18 -55q21 -26 63 -26h207q15 0 25 9.5t11 26.5l139 1318q1 14 -8 24t-23 10h-261q-15 0 -25.5 -9.5t-12.5 -24.5z" />
<glyph unicode="m" horiz-adv-x="1631" d="M43 36l84 788q2 15 12 25t24 10h212q0 -45 31 -73q127 84 252 84q168 0 258 -115q147 115 295 115q155 0 247 -98q78 -83 78 -210q0 -23 -3 -48l-39 -351q-1 -24 -1 -46q0 -38 3 -72q2 -17 -5.5 -31t-20.5 -14h-233q-41 0 -62 26q-18 22 -18 54q0 6 1 12l34 326 q2 12 2 23q0 39 -20 65q-26 32 -77 32q-69 0 -123 -50l-33 -325q-2 -25 -3 -52q0 -32 4 -66q2 -18 -5.5 -31.5t-21.5 -13.5h-233q-42 0 -62 26q-17 21 -17 53q0 6 1 13l35 326q1 12 1 23q0 41 -20 65q-26 32 -78 32q-67 0 -120 -49l-49 -453q-2 -14 -13 -25t-25 -11h-260 q-16 0 -25 10q-7 8 -7 20v6z" />
<glyph unicode="n" horiz-adv-x="1076" d="M43 36l84 788q2 15 12 25t24 10h212q0 -45 31 -73q127 82 252 82q156 0 246 -96q76 -81 76 -209q0 -24 -3 -49l-36 -351q-2 -25 -3 -52q0 -32 4 -66q2 -18 -5.5 -31.5t-21.5 -13.5h-233q-42 0 -62 26q-17 21 -17 53q0 6 1 13l35 330q2 12 2 23q-1 40 -21 65 q-26 32 -75 32q-67 0 -123 -46l-49 -460q-2 -14 -13 -25t-25 -11h-260q-16 0 -25 10q-7 8 -7 20v6z" />
<glyph unicode="o" horiz-adv-x="1034" d="M43 427q-3 -25 -3 -49q0 -152 106 -262q122 -128 310 -128q123 0 234.5 57.5t185.5 159t87 222.5q3 26 3 51q0 94 -42 176q-52 103 -151.5 160t-222.5 57t-234 -57t-185 -159.5t-88 -227.5zM358 427q5 58 52 102.5t109 44.5q63 0 100 -44q33 -39 33 -89q0 -7 -1 -14 q-7 -56 -53 -100t-109 -44t-101 44q-32 37 -32 83q1 8 2 17z" />
<glyph unicode="p" horiz-adv-x="1129" d="M16 -470l119 1140q2 44 1.5 59.5t-4.5 46t-5 36.5q-2 19 8.5 33t27.5 14h217q66 0 87 -42q85 51 201 51q178 0 278 -122q82 -102 82 -247q0 -30 -4 -63q-18 -182 -149.5 -314t-306.5 -132q-103 0 -169 46l-43 -411q-7 -58 -50.5 -96.5t-93.5 -38.5h-163q-17 0 -26 11 q-7 9 -7 23v6zM429 319q57 -33 113 -33q63 0 113 42.5t55 105.5q1 9 1 18q0 50 -35 83q-40 39 -102 39q-54 0 -123 -31z" />
<glyph unicode="q" horiz-adv-x="1112" d="M68 434q20 187 146.5 309.5t306.5 122.5q115 0 199 -59q44 52 106 52h163q17 0 27 -11q8 -9 8 -23v-6l-120 -1140q-2 -46 -2 -60t4.5 -46t4.5 -36q2 -19 -8 -33t-28 -14h-217q-93 0 -93 81q0 10 1 21l47 443q-79 -47 -181 -47q-116 0 -204.5 62t-129.5 164 q-33 78 -33 167q0 26 3 53zM382 432q-1 -9 -1 -18q0 -51 35 -87q42 -42 105 -42q56 0 121 33l23 224q-62 31 -117 31q-63 0 -111 -39.5t-55 -101.5z" />
<glyph unicode="r" horiz-adv-x="866" d="M47 36l83 788q2 14 12.5 24.5t24.5 10.5h210q3 -46 33 -73q116 80 229 80q114 0 196 -52q21 -14 21 -33q0 -13 -9 -28l-134 -201q-9 -14 -24.5 -16.5t-27.5 4.5q-33 17 -92 17q-79 0 -144 -62l-48 -459q-2 -14 -13.5 -25t-25.5 -11h-262q-14 0 -22 10q-7 8 -7 20v6z" />
<glyph unicode="s" horiz-adv-x="833" d="M26 110q-1 3 0 7q0 9 5 15l106 142q17 24 36 24q10 0 21 -6q116 -73 174 -75q28 -1 45 9.5t19 28.5q2 21 -19.5 33.5t-100.5 37.5q-112 34 -174 106q-55 65 -56 148q0 9 1 19q11 110 109 191t249 81q86 0 145.5 -21.5t128.5 -65.5q22 -12 22 -27q0 -9 -8 -19l-115 -150 q-20 -23 -46 -10q-1 1 -15 9.5t-27 15.5t-31 15.5t-37 13.5t-36 5q-59 0 -64 -42q-1 -19 21 -31.5t76 -27.5q127 -36 202 -106q65 -61 65 -149q0 -14 -2 -29q-12 -113 -116.5 -188.5t-259.5 -75.5q-92 0 -178.5 34t-127.5 68q-10 7 -12 20z" />
<glyph unicode="t" horiz-adv-x="853" d="M68 597l7 59q2 29 20 49q14 15 62 63.5t65 66t56 58.5t62 66.5t55 62.5t61 73q29 35 54 35h44q13 0 21 -10.5t6 -24.5l-24 -236h153q16 0 25 -10t8 -26l-24 -226q-1 -14 -13.5 -24.5t-26.5 -10.5h-118q-27 0 -39 2l-19 -184q-4 -33 9 -53.5t38 -24.5h9q26 0 61 14 q33 16 43 -16l66 -196q7 -22 -17 -40q-43 -34 -107 -54t-121 -20q-162 0 -248 88q-71 73 -71 201q0 27 3 56l25 227h-94q-14 0 -23.5 10.5t-7.5 24.5z" />
<glyph unicode="u" horiz-adv-x="1074" d="M68 347l38 356q2 20 2 43q0 34 -4 75q-2 18 6 31.5t22 13.5h232q41 0 62 -26q18 -22 18 -54q0 -6 -1 -12l-35 -333q-2 -12 -2 -23q0 -40 20 -66q26 -32 77 -31q69 0 122 49l47 453q2 14 13 25t25 11h260q16 0 24 -10q7 -8 7 -20v-6l-83 -788q-2 -15 -12 -25t-24 -10h-212 q0 46 -30 73q-129 -83 -251 -83q-154 0 -246 98q-78 83 -78 211q0 23 3 48z" />
<glyph unicode="v" horiz-adv-x="956" d="M64 823l304 -797q6 -18 13 -26.5t20 -8.5h21q22 0 43 35l469 797q3 7 3 12q0 7 -4 13q-8 11 -24 11h-263q-20 0 -39 -36l-135 -250l-83 250q-4 11 -5.5 14t-5.5 10t-8.5 9.5t-11.5 2.5h-263q-18 0 -28 -11q-6 -6 -6 -14q0 -5 3 -11z" />
<glyph unicode="w" horiz-adv-x="1402" d="M69 817q-2 7 -2 13q0 10 5 17q8 12 27 12h274q33 0 40 -26l69 -300l186 298q15 26 44 26h31q29 0 40 -26l121 -298l134 300q12 26 43 26h274q19 0 25 -12q3 -5 3 -11q0 -8 -5 -19l-396 -794q-13 -23 -38 -23h-85q-23 0 -33 23l-147 364l-224 -364q-17 -23 -38 -23h-86 q-25 0 -31 23z" />
<glyph unicode="x" horiz-adv-x="1056" d="M28 20q-2 7 -2 13q0 13 10 26l322 370l-243 373q-11 18 -0.5 37.5t29.5 19.5h271q26 0 40 -26l81 -146l117 146q12 16 19 21t22 5h271q20 1 28 -19q3 -7 3 -14q0 -12 -10 -24l-325 -373l247 -370q12 -18 -0.5 -38.5t-32.5 -20.5h-271q-10 0 -16.5 3.5t-9 7t-10.5 15.5 l-86 146l-112 -146q-12 -16 -20.5 -21t-24.5 -5h-271q-19 0 -26 20z" />
<glyph unicode="y" horiz-adv-x="1129" d="M2 -403q-13 13 -13 28q0 20 21 44q239 246 349 479l-288 669q-9 18 0.5 30t29.5 12h270q28 0 39 -26l142 -364l212 364q14 26 43 26h273q20 0 27 -12q3 -4 3 -10q0 -9 -8 -20l-404 -680q-122 -203 -230.5 -358.5t-153.5 -210t-101 -115.5q-14 -14 -33.5 -14t-33.5 14z " />
<glyph unicode="z" horiz-adv-x="930" d="M28 40l10 68l320 421h-230q-15 0 -23.5 10t-7.5 25l26 259q2 14 13 25t25 11h669q16 0 26 -13t8 -27l-8 -66l-321 -423h230q15 0 24 -10t8 -25l-30 -259q-2 -14 -13 -25t-25 -11h-668q-15 0 -25 13.5t-8 26.5z" />
<glyph unicode="{" horiz-adv-x="831" d="M56 484q-1 -14 7.5 -24t19.5 -10q27 -11 42.5 -18t39 -23.5t33.5 -39t7 -51.5l-16 -164q-9 -86 0.5 -158t32.5 -123t59.5 -91t76.5 -65.5t89 -43t91.5 -25.5t89.5 -12q11 0 22.5 10t12.5 24l26 241q2 23 0.5 27.5t-14.5 4.5q-71 17 -105 44t-41.5 71.5t0.5 111.5l18 177 q6 51 -5.5 94.5t-34 70.5t-43.5 42.5t-41 23.5l2 17q8 0 32 16.5t54 44t55 73.5t31 97l19 177q9 75 25 115t55.5 68t114.5 45q8 0 12.5 5t5.5 10t2 18l25 237q1 16 -3.5 24.5t-9.5 9.5t-15 1q-65 0 -130 -13.5t-137 -50t-128.5 -92.5t-99 -149t-54.5 -212l-15 -162 q-5 -38 -39.5 -71t-66.5 -47.5t-45 -14.5q-11 0 -22 -10t-13 -23z" />
<glyph unicode="|" horiz-adv-x="687" d="M76 -311l216 2036q2 15 12.5 25t25.5 10h269q16 0 25.5 -10.5t7.5 -24.5l-215 -2036q-2 -14 -13.5 -25t-25.5 -11h-269q-16 0 -25 10t-8 26z" />
<glyph unicode="}" horiz-adv-x="831" d="M-30 -330q-1 -14 8 -24t20 -10q69 5 131 19.5t136 51t129.5 91t98.5 146.5t55 210l16 164q3 23 15 43.5t25.5 33t37 25t36 17t35.5 13.5q11 0 22.5 10t12.5 24l23 207q2 12 -7.5 22.5t-20.5 10.5q-27 0 -76.5 39t-43.5 94l16 162q12 119 -11 212t-67.5 149t-109 92.5 t-126.5 50t-127 13.5q-10 0 -15.5 -1t-12 -9.5t-7.5 -24.5l-24 -237q-3 -14 -0.5 -23.5t14.5 -9.5q104 -25 131.5 -72t14.5 -156l-20 -177q-5 -41 5 -79.5t27 -65t36.5 -47t34.5 -30t21 -9.5l-2 -17q-53 -18 -107 -76.5t-65 -154.5l-17 -177q-11 -107 -48.5 -154.5 t-146.5 -72.5q-13 0 -15.5 -4t-4.5 -28z" />
<glyph unicode="~" horiz-adv-x="838" d="M30 469q4 -8 30.5 -59t34.5 -68q7 -13 22.5 -11t23.5 16q25 34 50.5 53.5t63.5 19.5q56 0 108 -33q3 -3 13.5 -12t14 -11.5t13 -10t14.5 -10t14.5 -8t17.5 -7.5t18.5 -4.5t21.5 -3.5t24 -1q36 0 77 14.5t73.5 34.5t59.5 40.5t42 35.5l15 14q16 18 3 44l-60 140 q-7 15 -23 13.5t-26 -15.5q-59 -74 -133 -74q-22 0 -41 6.5t-28.5 13t-26.5 20.5q-29 22 -46.5 32.5t-49 21t-65.5 10.5q-36 0 -75 -16.5t-69.5 -40t-56 -47t-39.5 -40.5l-14 -16q-13 -13 -1 -41z" />
<glyph unicode="&#xa1;" horiz-adv-x="602" d="M-2 -503l4 29l149 738q8 36 40 36h158q14 0 22.5 -10t8.5 -26l-7 -738l-2 -29q-2 -14 -13 -24.5t-25 -10.5h-302q-16 0 -25.5 10.5t-7.5 24.5zM101 660q9 83 76.5 143t152.5 60q83 0 137 -60t45 -143q-9 -85 -75.5 -147t-150.5 -62q-85 0 -139.5 62t-45.5 147z" />
<glyph unicode="&#xa2;" horiz-adv-x="959" d="M50 434q21 189 169.5 322.5t337.5 133.5q46 0 94 -8l35 76q15 35 50 23l52 -21q13 -5 17.5 -18t-0.5 -26l-38 -83q56 -37 104 -97q10 -12 8 -29.5t-16 -19.5l-205 -154q-12 -10 -26 -5l-108 -238q40 9 92 50q22 22 40 7l179 -139q13 -4 11.5 -18.5t-11.5 -26.5 q-73 -86 -168 -136t-205 -50q-41 0 -75 7l-50 -114q-15 -34 -49 -23l-54 21q-12 5 -16 17.5t1 25.5l48 112q-112 57 -171.5 167.5t-45.5 243.5zM364 434q-5 -67 39 -111l116 260q-62 -4 -105 -46t-50 -103z" />
<glyph unicode="&#xa3;" horiz-adv-x="1017" d="M52 38l2 30q156 191 182 385h-62q-11 0 -19 8t-7 20l22 220q2 12 11 21t22 9h14l-5 55q-3 30 -10 72t-10.5 73.5t-2.5 59.5q4 97 46 177.5t107.5 133t147 81.5t168.5 30q42 0 79 -5.5t63 -11.5t54 -22.5t42 -25t38 -33.5t30.5 -33t29.5 -37q6 -7 9 -11q9 -10 8 -25 t-13 -25l-184 -151q-24 -20 -50 3q-20 18 -32.5 27t-37 18t-54.5 9q-49 0 -87 -30t-44 -88q-1 -49 -0.5 -59.5t9 -56.5t13.5 -84l7 -41h85q11 0 18 -8t6 -20l-22 -221q-2 -12 -10.5 -20.5t-20.5 -8.5h-70q-18 -79 -43 -130h350q36 0 32 -54l-23 -231q-2 -16 -14 -27t-28 -11 h-713q-16 0 -25.5 11t-7.5 27z" />
<glyph unicode="&#xa4;" horiz-adv-x="1234" d="M66 456q-21 24 5 49l127 115q-27 88 -17 178q11 96 53 177l-102 115q-21 24 5 49l217 196q27 25 49 0l102 -115q87 35 179 35q93 0 172 -35l126 115q27 25 49 0l175 -196q21 -24 -5 -49l-125 -115q27 -86 17 -177q-10 -95 -55 -178l102 -115q21 -24 -5 -49l-217 -196 q-26 -25 -48 0l-105 117q-85 -35 -177 -35q-94 0 -170 35l-128 -117q-27 -25 -49 0zM519 798q-5 -50 26 -84.5t80 -34.5q50 0 89 35t44 84q4 51 -27.5 85.5t-79.5 34.5q-51 0 -89.5 -34.5t-42.5 -85.5z" />
<glyph unicode="&#xa5;" horiz-adv-x="1306" d="M99.5 1378q5.5 10 21.5 10h320q5 0 8.5 -1.5t6 -3t5.5 -5.5t4 -6.5t4.5 -8.5t4.5 -9l215 -410l300 410q3 4 9 13t8.5 12t8 6t12.5 3h322q16 0 19.5 -10t-6.5 -24l-413 -563h120q15 0 23.5 -9.5t7.5 -24.5l-26 -252q-2 -14 -13 -25t-25 -11h-225l-6 -47h224q15 0 23.5 -10 t7.5 -25l-26 -252q-2 -14 -13 -25t-25 -11h-224l-7 -63q-1 -17 -11 -26.5t-25 -9.5h-219q-42 0 -63 26t-17 68v5h-222q-14 0 -24 10.5t-9 24.5l26 251q2 16 13 26.5t27 10.5h222l6 47h-223q-13 0 -22.5 10t-8.5 24l26 252q1 16 12.5 26t27.5 10h113l-293 563q-7 14 -1.5 24z " />
<glyph unicode="&#xa6;" horiz-adv-x="687" d="M76 -311l84 787q2 15 12.5 24.5t25.5 9.5h269q16 0 25.5 -10t7.5 -24l-83 -787q-2 -14 -13.5 -25t-25.5 -11h-269q-16 0 -25 10t-8 26zM208 939l84 786q2 15 12.5 25t25.5 10h269q16 0 25.5 -10.5t7.5 -24.5l-84 -786q-2 -14 -13 -25t-25 -11h-269q-16 0 -25 10t-8 26z " />
<glyph unicode="&#xa7;" horiz-adv-x="1107" d="M-7.5 -302.5q1.5 11.5 12.5 26.5l170 210q16 20 38 22t33 -10q2 -1 18.5 -20t37.5 -40.5t58.5 -39.5t76.5 -18q56 0 92.5 22.5t41.5 59.5q1 17 -1.5 28.5t-15 30t-45.5 38t-87 40.5q-72 28 -134.5 71.5t-111.5 101t-73.5 132.5t-15.5 157q15 134 121 246q-81 118 -67 260 q7 69 43 138t97 128t155 95.5t204 36.5q43 0 83.5 -6t75 -18.5t62.5 -24t54.5 -29t41.5 -28t34.5 -26t22.5 -17.5q13 -11 14 -29t-11 -36l-165 -199q-16 -21 -35 -29t-41 4q-2 1 -20.5 19.5t-39.5 36t-56 32.5t-70 15q-47 0 -76.5 -23t-31.5 -54q-4 -38 26 -70t122 -58 q74 -21 143 -66t123 -106.5t82.5 -143.5t19.5 -170q-16 -133 -118 -243q79 -120 64 -264q-8 -76 -49.5 -149t-106.5 -130.5t-157.5 -93t-194.5 -35.5q-248 0 -420 186l-7 7q-10 8 -14 14.5t-2.5 18zM427 495q-4 -38 27.5 -70.5t123.5 -58.5l12 -3q34 23 37 54q1 23 -4 39 t-41.5 43.5t-107.5 54.5l-4 1q-40 -21 -43 -60z" />
<glyph unicode="&#xa8;" horiz-adv-x="991" d="M130 1224q7 70 62.5 119t126.5 49t115.5 -49t37.5 -119q-8 -69 -64.5 -120.5t-126.5 -51.5t-114.5 51t-36.5 121zM649 1224q7 71 61 119.5t125 48.5t116 -49t38 -119q-7 -69 -64.5 -120.5t-126.5 -51.5q-70 0 -113.5 51t-35.5 121z" />
<glyph unicode="&#xa9;" horiz-adv-x="1568" d="M78 698q21 195 134 359.5t288 260t370 95.5t349 -95.5t232 -260t57 -359.5q-20 -195 -132.5 -359.5t-287 -260t-369.5 -95.5q-146 0 -272.5 56.5t-212 152t-128.5 228t-28 278.5zM333 698q-14 -124 36.5 -230t151 -168t225.5 -62q123 0 234.5 61.5t184 168t85.5 230.5 q14 124 -36.5 230.5t-149 168t-221.5 61.5q-126 0 -238.5 -62t-185 -167.5t-86.5 -230.5zM482 698q14 131 118 224t235 93q139 0 220 -107q6 -7 4.5 -19.5t-11.5 -13.5l-142 -108q-13 -10 -24 4q-33 33 -66 33q-45 0 -78.5 -31t-38.5 -75q-4 -41 23.5 -72t72.5 -31 q41 0 83 37q13 17 28 5l121 -95q9 -4 8.5 -14t-6.5 -18q-109 -130 -260 -130q-131 0 -215.5 93.5t-71.5 224.5z" />
<glyph unicode="&#xaa;" d="M31 231q-12 -111 57 -175.5t205 -64.5q164 0 261 82q2 -33 15 -53t35 -20h172q19 0 30.5 12t9.5 30q-4 226 45 541q11 72 -10.5 128.5t-67 90.5t-103.5 51t-125 17q-192 0 -390 -89q-19 -9 -27 -24.5t-3 -31.5l40 -138q4 -16 17.5 -22t29.5 1q152 61 228 61 q50 0 72.5 -19t20.5 -54q-256 -41 -377.5 -120.5t-134.5 -202.5zM328 250q3 32 62.5 55.5t128.5 32.5q-9 -72 -10 -79q-52 -51 -129 -51q-28 0 -41 10.5t-11 31.5z" />
<glyph unicode="&#xab;" horiz-adv-x="1242" d="M59 370l194 -328q9 -26 32 -26h194q28 0 37.5 18.5t0.5 50.5l-90 309l156 311q17 32 10.5 50.5t-34.5 18.5h-193q-25 0 -38 -26l-264 -328q-17 -23 -5 -50zM616 370l195 -328q9 -26 32 -26h193q28 0 38.5 18.5t1.5 50.5l-92 309l156 311q17 32 10.5 50.5t-34.5 18.5h-194 q-24 0 -37 -26l-264 -328q-17 -23 -5 -50z" />
<glyph unicode="&#xac;" horiz-adv-x="1039" d="M62 552l21 186q1 16 12.5 26t27.5 10h819q15 0 24 -10t8 -25l-19 -185v-4l-33 -310q-2 -15 -14 -26t-26 -11h-184q-16 0 -25 10.5t-7 26.5l30 277h-601q-14 0 -24 10.5t-9 24.5z" />
<glyph unicode="&#xad;" horiz-adv-x="749" d="M69 330v201q0 16 10.5 26.5t26.5 10.5h540q14 0 24 -10t10 -25v-202q0 -14 -10 -25t-24 -11h-540q-14 0 -25.5 10.5t-11.5 24.5z" />
<glyph unicode="&#xae;" horiz-adv-x="1039" d="M80 1126q23 204 182.5 348.5t364.5 144.5q135 0 241.5 -66t160 -179.5t38.5 -247.5q-14 -135 -91.5 -248.5t-198 -179.5t-255.5 -66t-241.5 66t-160.5 179.5t-40 248.5zM269 1126q-13 -126 67 -214.5t207 -88.5q125 0 224 89t113 214q14 126 -66.5 216t-206.5 90 t-225 -90t-113 -216zM403 932l41 391q0 4 3.5 8t8.5 4h169q56 0 89.5 -38.5t26.5 -86.5q-4 -36 -24 -66t-52 -47l60 -163q5 -11 -8 -11h-108q-6 0 -10 4l-52 153h-7l-16 -148q0 -3 -4.5 -6t-7.5 -3h-101q-8 0 -8 9zM550 1180h23q17 0 25 13t2.5 25.5t-22.5 12.5h-23z" />
<glyph unicode="&#xaf;" horiz-adv-x="888" d="M121 1088l20 200q2 14 13 24.5t25 10.5h680q14 0 23 -9.5t8 -23.5l-19 -200q-1 -14 -13.5 -25t-26.5 -11h-680q-14 0 -23 10t-7 24z" />
<glyph unicode="&#xb0;" horiz-adv-x="683" d="M120 1081q12 112 100 192.5t200 80.5q113 0 185 -80.5t60 -192.5q-12 -113 -100.5 -193.5t-201.5 -80.5q-112 0 -183.5 80.5t-59.5 193.5zM325 1081q-4 -28 13.5 -47.5t46.5 -19.5q27 0 49 19.5t26 47.5q4 27 -14.5 47.5t-46.5 20.5t-50 -20.5t-24 -47.5z" />
<glyph unicode="&#xb1;" horiz-adv-x="1025" d="M26 35l24 217q1 16 12.5 26t27.5 10h780q15 0 23.5 -10t7.5 -25l-23 -217q-2 -14 -13 -25t-25 -11h-781q-14 0 -24 10.5t-9 24.5zM94 679l24 218q2 16 13 26.5t27 10.5h245l26 246q2 15 12.5 25t25.5 10h219q14 0 24 -10.5t9 -24.5l-26 -246h246q15 0 23.5 -10t7.5 -25 l-24 -219q-2 -14 -13 -25t-25 -11h-247l-26 -245q-2 -14 -13 -25t-25 -11h-219q-16 0 -25 10t-8 26l26 245h-244q-14 0 -24 10.5t-9 24.5z" />
<glyph unicode="&#xb2;" horiz-adv-x="1086" d="M49 36l8 66l493 568q70 78 104 132t39 104q6 56 -27 98.5t-95 42.5q-34 0 -67 -13t-60.5 -35.5t-49.5 -44.5t-46 -49q-7 -9 -11 -13q-23 -26 -52 0l-151 151q-9 10 -8 24.5t11 24.5q74 89 142.5 145t158.5 90t197 34q82 0 157.5 -30t131.5 -82.5t85 -131t20 -168.5 q-18 -163 -146 -309l-295 -333h351q36 0 33 -35l-24 -236q-1 -14 -15 -25t-29 -11h-821q-14 0 -24.5 11t-9.5 25z" />
<glyph unicode="&#xb3;" horiz-adv-x="1072" d="M49 213q-20 24 7 49l197 168q25 23 47 -3q110 -122 205 -122q57 0 93.5 38.5t40.5 83.5q4 44 -20.5 76.5t-70.5 32.5q-17 0 -42 -5t-32 -5q-18 0 -28 14l-104 163q-17 29 7 52l298 269h-434q-15 0 -25 10.5t-9 24.5l26 241q1 16 12.5 26t27.5 10h748q36 0 33 -36 l-25 -231q-3 -36 -31 -64l-245 -229q97 -28 158 -97q106 -116 89 -297q-12 -110 -84 -202t-182.5 -144.5t-233.5 -52.5q-133 0 -234.5 57t-188.5 173z" />
<glyph unicode="&#xb4;" horiz-adv-x="678" d="M133 1182.5q-4 -10.5 1 -24.5l69 -144q9 -25 50 -11l396 153q33 18 16 55l-106 209q-6 14 -23 14t-29 -11l-361 -224q-9 -6 -13 -16.5z" />
<glyph unicode="&#xb6;" horiz-adv-x="1565" d="M115 951q8 76 48.5 153.5t102.5 140.5t150.5 103t182.5 40h920q50 0 45 -50l-25 -236q-5 -50 -55 -50h-63l-107 -1016q-2 -14 -13 -25t-25 -11h-269q-16 0 -25 10t-8 26l107 1016h-92l-107 -1016q-2 -14 -13.5 -25t-25.5 -11h-269q-16 0 -25 10t-7 26l48 464h-85 q-76 0 -143 25.5t-114.5 69.5t-80.5 101t-46 123t-6 132zM476 887.5q21 -54.5 85 -54.5h64l24 219h-64q-66 0 -98 -55t-11 -109.5z" />
<glyph unicode="&#xb7;" horiz-adv-x="584" d="M87 528q0 83 60 143t145 60q84 0 145 -60t61 -143q0 -85 -61.5 -147t-144.5 -62q-84 0 -144.5 62t-60.5 147z" />
<glyph unicode="&#xb8;" horiz-adv-x="557" d="M-31 -486q-11 14 5 30l88 78q11 10 33 1q27 -19 47 -19q29 0 48.5 17t21.5 42q4 24 -12 41.5t-44 17.5q-29 0 -57 -26q-15 -9 -26 -1l-85 76q-10 10 0 24l2 4l119 201h200l-68 -120q71 -21 112 -81t34 -136q-11 -92 -87.5 -159.5t-171.5 -67.5q-101 0 -159 78z" />
<glyph unicode="&#xb9;" horiz-adv-x="732" d="M109 889l2 199q0 18 7.5 27.5t27.5 14.5q90 27 224 165l24 28q13 13 33 13h250q15 0 24.5 -10t8.5 -24l-134 -1266q-2 -14 -13 -25t-25 -11h-269q-16 0 -25 10t-8 26l90 858l-180 -33q-37 -5 -37 28z" />
<glyph unicode="&#xba;" horiz-adv-x="1034" d="M43 427q-19 -184 103 -311.5t310 -127.5q123 0 234.5 57.5t185.5 159t87 222.5q14 124 -38.5 227t-152 160t-222.5 57t-234 -57t-185 -159.5t-88 -227.5zM358 427q5 58 52 102.5t109 44.5q63 0 100 -44t32 -103q-7 -56 -53 -100t-109 -44t-100.5 44t-30.5 100z" />
<glyph unicode="&#xbb;" horiz-adv-x="1242" d="M39 35q6 -19 34 -19h194q21 0 38 26l264 328q16 25 5 50l-192 328q-13 26 -33 26h-196q-28 0 -37.5 -18.5t-0.5 -50.5l90 -309l-156 -311q-16 -31 -10 -50zM606 85q-34 -69 24 -69h196q24 0 37 26l263 328q17 26 6 50l-195 328q-13 26 -33 26h-194q-28 0 -37.5 -18.5 t-0.5 -50.5l90 -309z" />
<glyph unicode="&#xbc;" horiz-adv-x="1228" d="M87 1180v77q0 21 17 26q56 17 113 79l14 18q8 8 19 8h108q9 0 15.5 -6t6.5 -14v-566q0 -9 -6.5 -16t-15.5 -7h-117q-24 0 -24 23v368l-104 -7q-10 -2 -18 2.5t-8 14.5zM194 12q-7 12 2 30l689 1322q13 24 40 24h87q21 0 28 -11.5t-2 -29.5l-689 -1323q-13 -24 -40 -24 h-87q-21 0 -28 12zM722 246q0 9 7 16q115 90 165 217q24 64 24 127q0 17 17 17h106q7 0 11.5 -5t4.5 -12q-2 -105 -59 -228q-29 -55 -102 -112h64v13q0 18 15 18l101 8q7 0 12 -5.5t5 -13.5v-20h32q17 0 17 -18v-100q0 -7 -5 -11.5t-12 -4.5h-32v-116q0 -16 -15 -16h-101 q-17 0 -17 16v116h-221q-15 0 -15 16z" />
<glyph unicode="&#xbd;" horiz-adv-x="1296" d="M87 1180v77q0 21 17 26q56 17 113 79l14 18q8 8 19 8h108q9 0 15.5 -6t6.5 -14v-566q0 -9 -6.5 -16t-15.5 -7h-117q-24 0 -24 23v368l-104 -7q-10 -2 -18 2.5t-8 14.5zM194 12q-7 12 2 30l689 1322q13 24 40 24h87q21 0 28 -11.5t-2 -29.5l-689 -1323q-13 -24 -40 -24 h-87q-21 0 -28 12zM771 521q43 60 106 87.5t127 21t115 -44.5q65 -45 75 -136t-38 -157l-109 -148h147q16 0 16 -17v-108q0 -8 -4.5 -13.5t-11.5 -5.5h-380q-8 0 -13.5 6t-5.5 13v21l83 104l120 153q3 5 18 25.5t22 30.5t14 27t7 30q0 33 -25 56t-59 23q-30 0 -54.5 -15.5 t-56.5 -48.5q-12 -15 -24 0l-68 71q-11 11 -1 25z" />
<glyph unicode="&#xbe;" horiz-adv-x="1220" d="M75 864q-10 13 0 23l64 68q10 10 22 -2q17 -18 37 -33t45 -27t50.5 -10t46.5 20q25 22 28 49.5t-12 46t-40 28t-56 -4.5q-9 -9 -20 4l-54 66q-9 11 0 22l114 141h-189q-7 0 -12 4.5t-5 9.5v100q0 8 5 13.5t12 5.5h354q17 0 17 -17v-99q0 -5 -3 -8l-116 -129 q45 -10 79 -44t48.5 -77t8.5 -91.5t-36 -85.5q-81 -87 -192.5 -80t-195.5 107zM208 12q-7 12 2 30l689 1322q13 24 40 24h87q21 0 28 -11.5t-2 -29.5l-689 -1323q-13 -24 -40 -24h-87q-21 0 -28 12zM731 246q0 9 7 16q115 90 165 217q24 64 24 127q0 17 17 17h106 q7 0 11.5 -5t4.5 -12q-2 -105 -59 -228q-29 -53 -103 -112h64v13q0 7 4.5 12.5t11.5 5.5l101 8q7 0 12 -5.5t5 -13.5v-20h31q7 0 12.5 -5t5.5 -13v-100q0 -7 -5.5 -11.5t-12.5 -4.5h-31v-116q0 -16 -16 -16h-100q-18 0 -18 16v116h-220q-16 0 -16 16z" />
<glyph unicode="&#xbf;" horiz-adv-x="808" d="M-57.5 -199.5q22.5 108.5 107.5 183.5q30 26 66 57t48.5 40t31 30t21.5 25.5t10 28.5t8.5 37t5.5 53q2 15 13 26t25 11h224q16 0 25.5 -10.5t7.5 -26.5l-15 -163q-2 -26 -39.5 -64t-82 -70.5t-83.5 -71.5t-42 -67q-6 -48 21.5 -72.5t68.5 -24.5q25 0 50.5 12t39 22.5 t53.5 43.5q25 21 43 0l122 -149q18 -21 -4 -43q-125 -130 -278.5 -167.5t-294.5 24.5q-90 39 -132.5 133t-20 202.5zM229 649q9 84 75.5 144.5t150.5 60.5q85 0 139.5 -60t45.5 -145q-9 -83 -77.5 -144.5t-151.5 -61.5q-84 0 -137.5 61t-44.5 145z" />
<glyph unicode="&#xc0;" horiz-adv-x="1516" d="M11.5 11.5q-5.5 11.5 4.5 28.5l789 1338q10 17 30 17h14q19 0 26 -17l508 -1338q7 -17 -2 -28.5t-27 -11.5h-287q-25 0 -33 23l-55 152h-531l-87 -152q-13 -23 -40 -23h-286q-18 0 -23.5 11.5zM611 1680l147 208q12 14 28 14.5t28 -10.5l312 -224q9 -6 11 -17t-7 -25 l-101 -144q-13 -25 -50 -10l-365 153q-28 16 -3 55zM618 476h253l-97 274z" />
<glyph unicode="&#xc1;" horiz-adv-x="1516" d="M11.5 11.5q-5.5 11.5 4.5 28.5l789 1338q10 17 30 17h14q19 0 26 -17l508 -1338q7 -17 -2 -28.5t-27 -11.5h-287q-25 0 -33 23l-55 152h-531l-87 -152q-13 -23 -40 -23h-286q-18 0 -23.5 11.5zM605 1667q4 11 13 17l361 223q12 11 29 11t23 -14l106 -208q8 -20 3 -34.5 t-19 -21.5l-396 -153q-41 -14 -50 11l-69 144q-5 14 -1 25zM618 476h253l-97 274z" />
<glyph unicode="&#xc2;" horiz-adv-x="1516" d="M11.5 11.5q-5.5 11.5 4.5 28.5l789 1338q10 17 30 17h14q19 0 26 -17l508 -1338q7 -17 -2 -28.5t-27 -11.5h-287q-25 0 -33 23l-55 152h-531l-87 -152q-13 -23 -40 -23h-286q-18 0 -23.5 11.5zM479 1513l23 193q3 23 27 35l342 179q30 12 51 0l307 -179q23 -16 21 -35 l-21 -193q-2 -27 -21.5 -34.5t-49.5 5.5l-294 120l-319 -120q-32 -12 -50 -5t-16 34zM618 476h253l-97 274z" />
<glyph unicode="&#xc3;" horiz-adv-x="1516" d="M11.5 11.5q-5.5 11.5 4.5 28.5l789 1338q10 17 30 17h14q19 0 26 -17l508 -1338q7 -17 -2 -28.5t-27 -11.5h-287q-25 0 -33 23l-55 152h-531l-87 -152q-13 -23 -40 -23h-286q-18 0 -23.5 11.5zM469.5 1669.5q2.5 15.5 12.5 27.5q1 1 13.5 16.5t26.5 31t39 36t51 36 t62.5 26.5t73.5 11q43 0 80.5 -14.5t61 -32.5t56 -32.5t66.5 -14.5q16 0 31.5 3t25 6t24 10.5t19 10.5t18.5 13t15 11q38 36 61 1l73 -133q7 -13 3.5 -27t-13.5 -24q-113 -128 -268 -128q-54 0 -93.5 13.5t-58.5 30t-51 30t-73 13.5q-28 0 -53 -11t-36.5 -20.5t-31.5 -29.5 q-13 -12 -26 -10t-21 14l-83 112q-7 9 -4.5 24.5zM618 476h253l-97 274z" />
<glyph unicode="&#xc4;" horiz-adv-x="1516" d="M11.5 11.5q-5.5 11.5 4.5 28.5l789 1338q10 17 30 17h14q19 0 26 -17l508 -1338q7 -17 -2 -28.5t-27 -11.5h-287q-25 0 -33 23l-55 152h-531l-87 -152q-13 -23 -40 -23h-286q-18 0 -23.5 11.5zM446 1708q7 70 62.5 119t126.5 49t115.5 -49t37.5 -119q-8 -69 -64.5 -120.5 t-126.5 -51.5t-114.5 51t-36.5 121zM618 476h253l-97 274zM965 1708q7 71 61 119.5t125 48.5t116 -49t38 -119q-7 -69 -64.5 -120.5t-126.5 -51.5q-70 0 -113.5 51t-35.5 121z" />
<glyph unicode="&#xc5;" horiz-adv-x="1516" d="M11.5 11.5q-5.5 11.5 4.5 28.5l789 1338q10 17 30 17h14q19 0 26 -17l508 -1338q7 -17 -2 -28.5t-27 -11.5h-287q-25 0 -33 23l-55 152h-531l-87 -152q-13 -23 -40 -23h-286q-18 0 -23.5 11.5zM618 476h253l-97 274zM654 1666q9 90 80 153.5t160 63.5t146 -63.5 t48 -153.5q-9 -89 -80 -153t-159 -64q-89 0 -146.5 64.5t-48.5 152.5zM807 1666q-2 -25 14.5 -43t42.5 -18q25 0 47 18.5t24 42.5q2 26 -16 45t-43 19q-26 0 -46.5 -19t-22.5 -45z" />
<glyph unicode="&#xc6;" horiz-adv-x="2034" d="M-46 11.5q-6 11.5 6 28.5l948 1317q23 31 41 31h962q15 0 24.5 -10t8.5 -24l-24 -236q-2 -16 -14 -25.5t-28 -9.5h-550l-26 -253h293q14 0 24 -10.5t9 -24.5l-26 -234q-2 -16 -13 -26.5t-27 -10.5h-293l-23 -217h552q14 0 24 -10.5t9 -24.5l-26 -236q-1 -16 -12.5 -26 t-27.5 -10h-856q-16 0 -25 10t-8 26l13 122h-439l-99 -135q-14 -23 -42 -23h-330q-19 0 -25 11.5zM689 488h236l40 380z" />
<glyph unicode="&#xc7;" horiz-adv-x="1388" d="M83 694q15 144 85 275t175 225.5t243 150.5t284 56q144 0 270.5 -57t211.5 -160q22 -25 -7 -49l-234 -179q-27 -22 -49 0q-56 59 -107.5 87t-128.5 28q-139 0 -259.5 -114t-136.5 -261q-16 -150 80 -264t236 -114q77 0 134 26.5t125 82.5q25 24 49 0l196 -175 q23 -23 -4 -49q-90 -86 -204 -141t-235 -69l-66 -113q72 -21 113.5 -80.5t34.5 -136.5q-11 -92 -87.5 -159.5t-171.5 -67.5q-102 0 -160 78q-10 14 6 30l88 78q11 10 33 1q27 -19 47 -19q29 0 48 17t21 42q4 24 -11.5 41.5t-43.5 17.5q-29 0 -57 -26q-16 -9 -27 -1l-85 76 q-9 12 0 24l2 4l118 198q-167 27 -293 125t-188.5 248.5t-44.5 323.5z" />
<glyph unicode="&#xc8;" horiz-adv-x="1173" d="M71 36l139 1318q2 15 12.5 24.5t25.5 9.5h856q14 0 24 -10t9 -24l-23 -236q-2 -16 -13.5 -25.5t-27.5 -9.5h-552l-28 -253h295q14 0 24 -10.5t9 -24.5l-26 -234q-2 -16 -13 -26.5t-27 -10.5h-293l-25 -217h554q14 0 24 -10.5t9 -24.5l-26 -236q-1 -16 -12.5 -26 t-27.5 -10h-854q-16 0 -25 10t-8 26zM441 1644l147 208q12 14 28 14t28 -11l312 -224q9 -6 11 -16.5t-7 -24.5l-101 -144q-14 -26 -50 -11l-365 153q-29 16 -3 56z" />
<glyph unicode="&#xc9;" horiz-adv-x="1173" d="M71 36l139 1318q2 15 12.5 24.5t25.5 9.5h856q14 0 24 -10t9 -24l-23 -236q-2 -16 -13.5 -25.5t-27.5 -9.5h-552l-28 -253h295q14 0 24 -10.5t9 -24.5l-26 -234q-2 -16 -13 -26.5t-27 -10.5h-293l-25 -217h554q14 0 24 -10.5t9 -24.5l-26 -236q-1 -16 -12.5 -26 t-27.5 -10h-854q-16 0 -25 10t-8 26zM435 1630q4 11 13 17l361 224q12 11 28.5 10.5t23.5 -14.5l106 -208q17 -37 -16 -55l-396 -153q-22 -8 -33.5 -6t-16.5 16l-69 144q-5 14 -1 25z" />
<glyph unicode="&#xca;" horiz-adv-x="1173" d="M71 36l139 1318q2 15 12.5 24.5t25.5 9.5h856q14 0 24 -10t9 -24l-23 -236q-2 -16 -13.5 -25.5t-27.5 -9.5h-552l-28 -253h295q14 0 24 -10.5t9 -24.5l-26 -234q-2 -16 -13 -26.5t-27 -10.5h-293l-25 -217h554q14 0 24 -10.5t9 -24.5l-26 -236q-1 -16 -12.5 -26 t-27.5 -10h-854q-16 0 -25 10t-8 26zM309 1477l22 193q3 21 28 34l342 179q30 12 51 0l307 -179q23 -16 21 -34l-21 -193q-2 -27 -21.5 -35t-49.5 5l-294 120l-319 -120q-32 -12 -50 -4.5t-16 34.5z" />
<glyph unicode="&#xcb;" horiz-adv-x="1173" d="M71 36l139 1318q2 15 12.5 24.5t25.5 9.5h856q14 0 24 -10t9 -24l-23 -236q-2 -16 -13.5 -25.5t-27.5 -9.5h-552l-28 -253h295q14 0 24 -10.5t9 -24.5l-26 -234q-2 -16 -13 -26.5t-27 -10.5h-293l-25 -217h554q14 0 24 -10.5t9 -24.5l-26 -236q-1 -16 -12.5 -26 t-27.5 -10h-854q-16 0 -25 10t-8 26zM276 1671q7 70 62.5 119.5t126.5 49.5t115.5 -49.5t37.5 -119.5q-8 -69 -64.5 -120t-126.5 -51t-114.5 51t-36.5 120zM795 1671q7 71 61 120t125 49t116 -49.5t38 -119.5q-7 -69 -64.5 -120t-126.5 -51q-70 0 -113.5 50.5t-35.5 120.5z " />
<glyph unicode="&#xcc;" horiz-adv-x="619" d="M80 36q-1 -16 8 -26t25 -10h267q14 0 25 11t13 25l139 1318q1 14 -9 24t-24 10h-267q-15 0 -25.5 -9.5t-12.5 -24.5zM158 1647q-25 -39 3 -55l365 -153q37 -15 50 10l101 144q9 14 7 25t-11 17l-312 224q-12 11 -28 10.5t-28 -14.5z" />
<glyph unicode="&#xcd;" horiz-adv-x="619" d="M80 36q-1 -16 8 -26t25 -10h267q14 0 25 11t13 25l139 1318q1 14 -9 24t-24 10h-267q-15 0 -25.5 -9.5t-12.5 -24.5zM152 1634q-4 -11 1 -25l69 -144q9 -25 50 -11l396 153q14 7 19 21.5t-3 34.5l-106 208q-6 14 -23 14t-29 -11l-361 -223q-9 -6 -13 -17z" />
<glyph unicode="&#xce;" horiz-adv-x="619" d="M28 1480q-2 -27 16 -34t50 5l319 120l293 -120q30 -13 50 -5.5t22 34.5l20 193q2 19 -20 35l-308 179q-21 12 -50 0l-342 -179q-25 -13 -28 -35zM80 36q-1 -16 8 -26t25 -10h267q14 0 25 11t13 25l139 1318q1 14 -9 24t-24 10h-267q-15 0 -25.5 -9.5t-12.5 -24.5z" />
<glyph unicode="&#xcf;" horiz-adv-x="619" d="M-7 1675q7 70 62.5 119t126.5 49t115.5 -49t37.5 -119q-8 -69 -64.5 -120.5t-126.5 -51.5t-114.5 51t-36.5 121zM80 36q-1 -16 8 -26t25 -10h267q14 0 25 11t13 25l139 1318q1 14 -9 24t-24 10h-267q-15 0 -25.5 -9.5t-12.5 -24.5zM512 1675q7 71 61 119.5t125 48.5 t116 -49t38 -119q-7 -69 -64.5 -120.5t-126.5 -51.5q-70 0 -113.5 51t-35.5 121z" />
<glyph unicode="&#xd0;" horiz-adv-x="1431" d="M31 576l25 235q2 15 13 25.5t26 10.5h106l54 507q2 15 12.5 24.5t25.5 9.5h465q131 0 243.5 -40.5t189 -109t129 -157t72.5 -186t10 -194.5q-15 -140 -77.5 -266t-162 -223.5t-242 -154.5t-306.5 -57h-465q-16 0 -25 10t-8 26l54 506h-108q-15 0 -23.5 9.5t-7.5 24.5z M495 338h154q85 0 159.5 31.5t125 83.5t82 116t39.5 132q15 146 -73.5 248.5t-257.5 102.5h-155l-21 -205h115q14 0 24 -10.5t9 -24.5l-24 -234q-1 -16 -12.5 -26t-27.5 -10h-117z" />
<glyph unicode="&#xd1;" horiz-adv-x="1475" d="M69 36l139 1318q1 14 12.5 24t25.5 10h164q26 0 48 -27l554 -717l74 708q2 15 13 25t26 10l265 1q16 0 25 -10t8 -26l-139 -1317q-2 -14 -13 -24.5t-25 -10.5h-92q-93 0 -173 106l-500 635l-75 -705q-2 -14 -13 -25t-25 -11h-266q-16 0 -25 10t-8 26zM437 1633.5 q-3 -15.5 4 -24.5l83 -113q8 -12 21 -13.5t26 10.5q19 19 31.5 29t37.5 20.5t53 10.5q41 0 72.5 -13.5t51 -29.5t58.5 -29.5t93 -13.5q155 0 268 128q25 25 10 50l-73 134q-23 34 -60 -2q-2 -1 -13 -9t-15.5 -11t-15.5 -10t-19.5 -10t-20 -7t-24 -5.5t-26.5 -1.5 q-34 0 -66.5 14.5t-56 32.5t-61 32.5t-80.5 14.5q-37 0 -73.5 -11t-62.5 -26t-50.5 -36t-38.5 -36.5t-26.5 -30.5t-13.5 -16q-10 -12 -13 -27.5z" />
<glyph unicode="&#xd2;" horiz-adv-x="1607" d="M99 694q-15 -144 27.5 -275t127.5 -225.5t211 -150t271 -55.5q192 0 364.5 94t283.5 256.5t131 355.5q21 192 -56.5 355t-230.5 257.5t-345 94.5q-194 0 -367 -94.5t-284.5 -257t-132.5 -355.5zM446 696q16 149 136.5 262t266.5 113t241.5 -113t79.5 -262 q-16 -150 -135.5 -264t-265.5 -114q-96 0 -174.5 53t-118.5 140t-30 185zM649 1657q-25 -39 4 -55l364 -153q36 -15 50 11l101 144q9 14 7.5 24.5t-10.5 16.5l-313 224q-30 26 -55 -3z" />
<glyph unicode="&#xd3;" horiz-adv-x="1607" d="M99 694q-15 -144 27.5 -275t127.5 -225.5t211 -150t271 -55.5q192 0 364.5 94t283.5 256.5t131 355.5q21 192 -56.5 355t-230.5 257.5t-345 94.5q-194 0 -367 -94.5t-284.5 -257t-132.5 -355.5zM446 696q16 149 136.5 262t266.5 113t241.5 -113t79.5 -262 q-16 -150 -135.5 -264t-265.5 -114q-96 0 -174.5 53t-118.5 140t-30 185zM643 1644q-4 -11 1 -25l69 -144q5 -14 17 -16t34 6l395 153q33 18 16 55l-106 208q-7 14 -23.5 14.5t-28.5 -10.5l-361 -224q-9 -6 -13 -17z" />
<glyph unicode="&#xd4;" horiz-adv-x="1607" d="M99 694q-15 -144 27.5 -275t127.5 -225.5t211 -150t271 -55.5q192 0 364.5 94t283.5 256.5t131 355.5q21 192 -56.5 355t-230.5 257.5t-345 94.5q-194 0 -367 -94.5t-284.5 -257t-132.5 -355.5zM446 696q16 149 136.5 262t266.5 113t241.5 -113t79.5 -262 q-16 -150 -135.5 -264t-265.5 -114q-96 0 -174.5 53t-118.5 140t-30 185zM517 1491q-2 -27 16 -34.5t50 4.5l320 120l293 -120q30 -13 49.5 -5t21.5 35l21 193q2 18 -21 34l-307 179q-21 12 -51 0l-341 -179q-25 -13 -28 -34z" />
<glyph unicode="&#xd5;" horiz-adv-x="1607" d="M99 694q-15 -144 27.5 -275t127.5 -225.5t211 -150t271 -55.5q192 0 364.5 94t283.5 256.5t131 355.5q21 192 -56.5 355t-230.5 257.5t-345 94.5q-194 0 -367 -94.5t-284.5 -257t-132.5 -355.5zM446 696q16 149 136.5 262t266.5 113t241.5 -113t79.5 -262 q-16 -150 -135.5 -264t-265.5 -114q-96 0 -174.5 53t-118.5 140t-30 185zM508 1647.5q-3 -15.5 4 -24.5l83 -113q8 -12 21 -14t26 10q19 19 31.5 29.5t37.5 21t53 10.5q41 0 73 -13.5t51 -30t58.5 -30t93.5 -13.5q153 0 267 129q25 25 10 50l-73 134q-23 34 -60 -2 q-2 -1 -13 -9t-15.5 -11t-15.5 -10t-19.5 -10t-20 -7t-24 -5.5t-26.5 -1.5q-34 0 -66.5 14.5t-56 32.5t-61 32.5t-80.5 14.5q-37 0 -73.5 -11t-62.5 -26t-50.5 -36t-38.5 -36.5t-26.5 -30.5t-13.5 -16q-10 -12 -13 -27.5z" />
<glyph unicode="&#xd6;" horiz-adv-x="1607" d="M99 694q-15 -144 27.5 -275t127.5 -225.5t211 -150t271 -55.5q192 0 364.5 94t283.5 256.5t131 355.5q21 192 -56.5 355t-230.5 257.5t-345 94.5q-194 0 -367 -94.5t-284.5 -257t-132.5 -355.5zM446 696q16 149 136.5 262t266.5 113t241.5 -113t79.5 -262 q-16 -150 -135.5 -264t-265.5 -114q-96 0 -174.5 53t-118.5 140t-30 185zM484 1685q7 70 62.5 119.5t126.5 49.5t115.5 -49.5t37.5 -119.5q-8 -69 -64.5 -120.5t-126.5 -51.5t-114.5 51t-36.5 121zM1003 1685q7 71 61 120t125 49t116 -49.5t38 -119.5q-7 -69 -64.5 -120.5 t-126.5 -51.5q-70 0 -113.5 51t-35.5 121z" />
<glyph unicode="&#xd7;" horiz-adv-x="1072" d="M87.5 449q1.5 16 14.5 28l226 203l-182 205q-11 12 -10 28t13 28l177 159q14 12 31 12t27 -12l182 -203l227 205q29 25 54 0l144 -160q11 -12 10 -28.5t-13 -26.5l-228 -207l184 -204q9 -10 8 -26t-13 -28l-177 -162q-12 -12 -30 -12t-27 11l-184 204l-224 -203 q-12 -12 -29 -12t-28 11l-143 161q-11 13 -9.5 29z" />
<glyph unicode="&#xd8;" horiz-adv-x="1669" d="M80 155q0 15 10 26l99 98q-114 186 -90 415q21 193 132.5 355.5t284.5 257t367 94.5q185 0 337 -91l132 132q25 25 50 0l177 -177q11 -11 11 -24t-11 -24l-137 -137q97 -176 73 -386q-20 -193 -131 -355.5t-283.5 -256.5t-364.5 -94q-168 0 -311 73l-107 -108 q-10 -11 -25 -11t-26 11l-177 177q-10 10 -10 25zM446 696q-8 -77 16 -144l498 498q-52 21 -111 21q-146 0 -266.5 -113t-136.5 -262zM691 328q34 -10 78 -10q146 0 265.5 114t135.5 264q5 57 -5 106z" />
<glyph unicode="&#xd9;" horiz-adv-x="1372" d="M109 500q-10 -108 18.5 -200.5t90.5 -162t164.5 -109.5t233.5 -40q132 0 244.5 40t191 109.5t127 162.5t60.5 200l90 854q1 14 -9 24t-24 10h-267q-15 0 -25.5 -9.5t-12.5 -24.5l-83 -802q-12 -104 -75.5 -172.5t-181.5 -68.5q-49 0 -86.5 13t-59.5 36t-35.5 53.5 t-15.5 65.5t1 73l83 802q1 14 -8 24t-23 10h-269q-15 0 -25.5 -9.5t-12.5 -24.5zM535 1647q-25 -39 3 -55l365 -153q37 -15 50 10l101 144q9 14 7 25t-11 17l-312 224q-12 11 -28 10.5t-28 -14.5z" />
<glyph unicode="&#xda;" horiz-adv-x="1372" d="M109 500q-10 -108 18.5 -200.5t90.5 -162t164.5 -109.5t233.5 -40q132 0 244.5 40t191 109.5t127 162.5t60.5 200l90 854q1 14 -9 24t-24 10h-267q-15 0 -25.5 -9.5t-12.5 -24.5l-83 -802q-12 -104 -75.5 -172.5t-181.5 -68.5q-49 0 -86.5 13t-59.5 36t-35.5 53.5 t-15.5 65.5t1 73l83 802q1 14 -8 24t-23 10h-269q-15 0 -25.5 -9.5t-12.5 -24.5zM528.5 1634q-4.5 -11 0.5 -25l70 -144q9 -25 50 -11l396 153q14 7 18.5 21.5t-3.5 34.5l-105 208q-6 14 -23 14t-29 -11l-361 -223q-9 -6 -13.5 -17z" />
<glyph unicode="&#xdb;" horiz-adv-x="1372" d="M109 500q-10 -108 18.5 -200.5t90.5 -162t164.5 -109.5t233.5 -40q132 0 244.5 40t191 109.5t127 162.5t60.5 200l90 854q1 14 -9 24t-24 10h-267q-15 0 -25.5 -9.5t-12.5 -24.5l-83 -802q-12 -104 -75.5 -172.5t-181.5 -68.5q-49 0 -86.5 13t-59.5 36t-35.5 53.5 t-15.5 65.5t1 73l83 802q1 14 -8 24t-23 10h-269q-15 0 -25.5 -9.5t-12.5 -24.5zM403 1480q-2 -27 16 -34t50 5l319 120l293 -120q30 -13 49.5 -5.5t21.5 34.5l21 193q2 19 -21 35l-307 179q-21 12 -50 0l-342 -179q-25 -13 -28 -35z" />
<glyph unicode="&#xdc;" horiz-adv-x="1372" d="M109 500q-10 -108 18.5 -200.5t90.5 -162t164.5 -109.5t233.5 -40q132 0 244.5 40t191 109.5t127 162.5t60.5 200l90 854q1 14 -9 24t-24 10h-267q-15 0 -25.5 -9.5t-12.5 -24.5l-83 -802q-12 -104 -75.5 -172.5t-181.5 -68.5q-49 0 -86.5 13t-59.5 36t-35.5 53.5 t-15.5 65.5t1 73l83 802q1 14 -8 24t-23 10h-269q-15 0 -25.5 -9.5t-12.5 -24.5zM370 1675q7 70 62.5 119t126.5 49t115.5 -49t37.5 -119q-8 -69 -64.5 -120.5t-126.5 -51.5t-114.5 51t-36.5 121zM889 1675q7 71 60.5 119.5t124.5 48.5t116.5 -49t38.5 -119 q-7 -69 -64.5 -120.5t-126.5 -51.5q-70 0 -113.5 51t-35.5 121z" />
<glyph unicode="&#xdd;" horiz-adv-x="1343" d="M91 1377q6 11 22 11h321q4 0 7.5 -1t6.5 -3t4.5 -4l4.5 -6t4 -6l4 -8l4 -8l229 -411l314 411q2 2 6.5 9t6.5 9t6 6.5t7 6.5t7 3.5t9 1.5h321q16 0 20 -11t-7 -25l-553 -725l-63 -591q-1 -17 -11 -26.5t-25 -9.5h-215q-42 0 -63 26t-17 68l54 527l-403 731q-7 14 -1 25z M502 1635.5q-4 -10.5 1 -24.5l70 -144q9 -25 50 -11l396 153q32 17 15 55l-105 209q-6 14 -23.5 14t-29.5 -11l-361 -224q-9 -6 -13 -16.5z" />
<glyph unicode="&#xde;" horiz-adv-x="1173" d="M61 36l139 1318q2 15 12.5 24.5t25.5 9.5h271q15 0 24.5 -10t8.5 -24l-20 -184h186q95 0 179.5 -43t139.5 -110t84 -151t21 -165q-10 -88 -56.5 -175.5t-116 -155t-162.5 -109.5t-188 -42h-187l-19 -183q-2 -14 -13.5 -25t-25.5 -11h-270q-16 0 -25 10t-8 26zM456 543 h195q81 0 124 76q38 68 19.5 138t-83.5 83q-13 3 -27 3h-196z" />
<glyph unicode="&#xdf;" horiz-adv-x="1148" d="M26 36l95 884q21 204 166 339t345 135q121 0 222 -53t155 -144.5t43 -198.5q-8 -86 -49.5 -149t-145.5 -115q100 -45 151.5 -135.5t39.5 -204.5q-11 -107 -79 -198.5t-170.5 -143.5t-213.5 -52h-54q-22 0 -31 8.5t-7 26.5l22 203q3 36 44 36q76 2 117.5 34t50.5 110 q7 73 -36 103.5t-143 30.5l21 210q4 37 30 42l54 10q52 11 69.5 43t25.5 98q6 57 -37 85.5t-104 28.5q-153 0 -171 -168l-94 -865q-2 -14 -13 -25t-25 -11h-245q-16 0 -25 10t-8 26z" />
<glyph unicode="&#xe0;" d="M31 231q-12 -111 57 -175.5t205 -64.5q164 0 261 82q2 -33 15 -53t35 -20h172q19 0 30.5 12t9.5 30q-4 226 45 541q11 72 -10.5 128.5t-67 90.5t-103.5 51t-125 17q-192 0 -390 -89q-19 -9 -27 -24.5t-3 -31.5l40 -138q4 -16 17.5 -22t29.5 1q152 61 228 61 q50 0 72.5 -19t20.5 -54q-256 -41 -377.5 -120.5t-134.5 -202.5zM284.5 1161.5q1.5 -14.5 14.5 -21.5l364 -152q37 -15 50 10l101 144q9 14 7.5 25t-10.5 17l-313 224q-12 11 -27.5 10.5t-27.5 -14.5l-148 -208q-12 -20 -10.5 -34.5zM328 250q3 32 62.5 55.5t128.5 32.5 q-9 -72 -10 -79q-52 -51 -129 -51q-28 0 -41 10.5t-11 31.5z" />
<glyph unicode="&#xe1;" d="M31 231q-12 -111 57 -175.5t205 -64.5q164 0 261 82q2 -33 15 -53t35 -20h172q19 0 30.5 12t9.5 30q-4 226 45 541q11 72 -10.5 128.5t-67 90.5t-103.5 51t-125 17q-192 0 -390 -89q-19 -9 -27 -24.5t-3 -31.5l40 -138q4 -16 17.5 -22t29.5 1q152 61 228 61 q50 0 72.5 -19t20.5 -54q-256 -41 -377.5 -120.5t-134.5 -202.5zM289 1182.5q-4 -10.5 1 -24.5l69 -144q9 -25 51 -11l395 153q33 18 16 55l-106 209q-6 14 -23 14t-29 -11l-361 -224q-9 -6 -13 -16.5zM328 250q3 32 62.5 55.5t128.5 32.5q-9 -72 -10 -79q-52 -51 -129 -51 q-28 0 -41 10.5t-11 31.5z" />
<glyph unicode="&#xe2;" d="M31 231q-12 -111 57 -175.5t205 -64.5q164 0 261 82q2 -33 15 -53t35 -20h172q19 0 30.5 12t9.5 30q-4 226 45 541q11 72 -10.5 128.5t-67 90.5t-103.5 51t-125 17q-192 0 -390 -89q-19 -9 -27 -24.5t-3 -31.5l40 -138q4 -16 17.5 -22t29.5 1q152 61 228 61 q50 0 72.5 -19t20.5 -54q-256 -41 -377.5 -120.5t-134.5 -202.5zM163 1029q-2 -27 16 -34t50 5l319 119l294 -119q30 -13 49.5 -5.5t21.5 34.5l21 193q2 19 -21 35l-307 178q-21 12 -51 0l-342 -178q-24 -12 -27 -35zM328 250q3 32 62.5 55.5t128.5 32.5q-9 -72 -10 -79 q-52 -51 -129 -51q-28 0 -41 10.5t-11 31.5z" />
<glyph unicode="&#xe3;" d="M31 231q-12 -111 57 -175.5t205 -64.5q164 0 261 82q2 -33 15 -53t35 -20h172q19 0 30.5 12t9.5 30q-4 226 45 541q11 72 -10.5 128.5t-67 90.5t-103.5 51t-125 17q-192 0 -390 -89q-19 -9 -27 -24.5t-3 -31.5l40 -138q4 -16 17.5 -22t29.5 1q152 61 228 61 q50 0 72.5 -19t20.5 -54q-256 -41 -377.5 -120.5t-134.5 -202.5zM154 1185.5q-3 -15.5 4 -24.5l83 -113q8 -12 21 -13.5t26 10.5q19 19 31.5 29.5t37.5 21t53 10.5q41 0 73 -13.5t51 -30t58.5 -30t93.5 -13.5q154 0 267 128q10 10 13.5 24t-3.5 27l-73 133q-23 34 -60 -2 q-2 -1 -11.5 -8t-13 -9.5t-13.5 -8.5t-16 -8.5t-16.5 -7t-19.5 -6.5t-20.5 -3.5t-23.5 -1.5q-42 0 -81.5 23t-84 46.5t-98.5 23.5q-37 0 -73.5 -11t-62.5 -26t-50.5 -36t-38.5 -36.5t-26.5 -30.5t-13.5 -16q-10 -12 -13 -27.5zM328 250q3 32 62.5 55.5t128.5 32.5 q-9 -72 -10 -79q-52 -51 -129 -51q-28 0 -41 10.5t-11 31.5z" />
<glyph unicode="&#xe4;" d="M31 231q-12 -111 57 -175.5t205 -64.5q164 0 261 82q2 -33 15 -53t35 -20h172q19 0 30.5 12t9.5 30q-4 226 45 541q11 72 -10.5 128.5t-67 90.5t-103.5 51t-125 17q-192 0 -390 -89q-19 -9 -27 -24.5t-3 -31.5l40 -138q4 -16 17.5 -22t29.5 1q152 61 228 61 q50 0 72.5 -19t20.5 -54q-256 -41 -377.5 -120.5t-134.5 -202.5zM130 1224q7 70 62.5 119t126.5 49t115.5 -49t37.5 -119q-8 -69 -64.5 -120.5t-126.5 -51.5t-114.5 51t-36.5 121zM328 250q3 32 62.5 55.5t128.5 32.5q-9 -72 -10 -79q-52 -51 -129 -51q-28 0 -41 10.5 t-11 31.5zM649 1224q7 71 61 119.5t125 48.5t116 -49t38 -119q-7 -69 -64.5 -120.5t-126.5 -51.5q-70 0 -113.5 51t-35.5 121z" />
<glyph unicode="&#xe5;" d="M31 231q-12 -111 57 -175.5t205 -64.5q164 0 261 82q2 -33 15 -53t35 -20h172q19 0 30.5 12t9.5 30q-4 226 45 541q11 72 -10.5 128.5t-67 90.5t-103.5 51t-125 17q-192 0 -390 -89q-19 -9 -27 -24.5t-3 -31.5l40 -138q4 -16 17.5 -22t29.5 1q152 61 228 61 q50 0 72.5 -19t20.5 -54q-256 -41 -377.5 -120.5t-134.5 -202.5zM328 250q3 32 62.5 55.5t128.5 32.5q-9 -72 -10 -79q-52 -51 -129 -51q-28 0 -41 10.5t-11 31.5zM338 1182q9 90 80 153.5t160 63.5t146 -63.5t48 -153.5q-9 -89 -80 -153t-159 -64q-89 0 -146.5 64.5 t-48.5 152.5zM491 1182q-2 -25 14.5 -43t42.5 -18q25 0 47.5 18.5t24.5 42.5q2 26 -16 45t-43 19q-26 0 -47 -19t-23 -45z" />
<glyph unicode="&#xe6;" horiz-adv-x="1489" d="M31 231q13 123 134.5 202.5t377.5 120.5q2 35 -20.5 54t-72.5 19q-76 0 -228 -61q-16 -7 -29.5 -1t-17.5 22l-40 138q-5 16 3 31.5t27 24.5q198 89 390 89q143 0 231 -70q112 71 241 71q94 0 171 -35t123.5 -93t68 -130.5t12.5 -149.5q-7 -61 -48.5 -98t-109.5 -37h-413 q9 -37 58 -62.5t111 -25.5q115 0 211 38q42 17 59 -19l37 -75q18 -31 -12 -63q-113 -131 -337 -131q-80 0 -151 24q-11 -14 -31 -14h-172q-22 0 -35 20t-15 53q-97 -82 -261 -82q-136 0 -205 64.5t-57 175.5zM328 250q-2 -21 11 -31.5t41 -10.5q77 0 129 51q1 7 10 79 q-69 -9 -128.5 -32.5t-62.5 -55.5zM854 533h276q-2 27 -38 52.5t-94 25.5q-52 0 -90 -21.5t-52 -47.5z" />
<glyph unicode="&#xe7;" horiz-adv-x="895" d="M47 427q21 195 165 319.5t335 124.5q173 0 295 -119q24 -24 -4 -53l-140 -154q-23 -25 -61 -2q-54 31 -106 31q-61 0 -108.5 -43.5t-54.5 -103.5q-5 -58 34 -101t98 -43q53 0 118 36q16 12 29.5 11.5t25.5 -18.5l98 -166q18 -29 -9 -52q-105 -75 -215 -97l-68 -117 q72 -21 113.5 -80.5t34.5 -136.5q-11 -92 -87.5 -159.5t-171.5 -67.5q-102 0 -160 78q-11 14 5 30l89 78q11 10 33 1q27 -19 47 -19q29 0 48 17t21 42q4 24 -11.5 41.5t-43.5 17.5q-30 0 -58 -26q-15 -9 -26 -1l-85 76q-9 12 0 24l2 4l118 199q-149 33 -233.5 149.5 t-66.5 279.5z" />
<glyph unicode="&#xe8;" horiz-adv-x="964" d="M47 430q-19 -192 99.5 -316t308.5 -124q223 0 336 131q30 33 13 63l-37 75q-17 36 -59 19q-96 -38 -212 -38q-60 0 -109.5 25.5t-58.5 62.5h413q68 0 109.5 37t48.5 98q9 77 -12.5 149.5t-68 130.5t-123.5 93t-171 35q-181 0 -319 -130.5t-158 -310.5zM290 1187 q-25 -39 3 -55l365 -153q37 -15 50 10l101 144q9 14 7 25t-11 17l-312 224q-12 11 -28 10.5t-28 -14.5zM347 533q9 27 50 52.5t99 25.5q57 0 93 -25.5t38 -52.5h-280z" />
<glyph unicode="&#xe9;" horiz-adv-x="964" d="M47 430q-19 -192 99.5 -316t308.5 -124q223 0 336 131q30 33 13 63l-37 75q-17 36 -59 19q-96 -38 -212 -38q-60 0 -109.5 25.5t-58.5 62.5h413q68 0 109.5 37t48.5 98q9 77 -12.5 149.5t-68 130.5t-123.5 93t-171 35q-181 0 -319 -130.5t-158 -310.5zM285.5 1174 q-4.5 -11 0.5 -25l70 -144q9 -25 50 -11l396 153q14 7 18.5 21.5t-3.5 34.5l-105 208q-7 14 -23.5 14.5t-28.5 -10.5l-361 -224q-9 -6 -13.5 -17zM347 533q9 27 50 52.5t99 25.5q57 0 93 -25.5t38 -52.5h-280z" />
<glyph unicode="&#xea;" horiz-adv-x="964" d="M47 430q-19 -192 99.5 -316t308.5 -124q223 0 336 131q30 33 13 63l-37 75q-17 36 -59 19q-96 -38 -212 -38q-60 0 -109.5 25.5t-58.5 62.5h413q68 0 109.5 37t48.5 98q9 77 -12.5 149.5t-68 130.5t-123.5 93t-171 35q-181 0 -319 -130.5t-158 -310.5zM160 1021 q-2 -27 16 -34.5t50 4.5l319 120l293 -120q30 -13 49.5 -5t21.5 35l21 192q2 19 -21 35l-307 179q-21 12 -50 0l-342 -179q-25 -13 -28 -35zM347 533q9 27 50 52.5t99 25.5q57 0 93 -25.5t38 -52.5h-280z" />
<glyph unicode="&#xeb;" horiz-adv-x="964" d="M47 430q-19 -192 99.5 -316t308.5 -124q223 0 336 131q30 33 13 63l-37 75q-17 36 -59 19q-96 -38 -212 -38q-60 0 -109.5 25.5t-58.5 62.5h413q68 0 109.5 37t48.5 98q9 77 -12.5 149.5t-68 130.5t-123.5 93t-171 35q-181 0 -319 -130.5t-158 -310.5zM125 1215 q7 70 62.5 119t126.5 49t115.5 -49t37.5 -119q-8 -69 -64.5 -120.5t-126.5 -51.5t-114.5 51t-36.5 121zM347 533q9 27 50 52.5t99 25.5q57 0 93 -25.5t38 -52.5h-280zM644 1215q7 71 61 119.5t125 48.5t116 -49t38 -119q-7 -69 -64.5 -120.5t-126.5 -51.5q-70 0 -113.5 51 t-35.5 121z" />
<glyph unicode="&#xec;" horiz-adv-x="590" d="M76 94q-4 -42 17 -68t63 -26h207q15 0 25 9.5t11 26.5l83 788q2 14 -7.5 24.5t-23.5 10.5h-260q-15 0 -25.5 -10t-12.5 -25zM99 1196q-26 -40 3 -56l365 -152q37 -15 50 10l101 144q9 14 7 25t-11 17l-312 224q-12 11 -28 10.5t-28 -14.5z" />
<glyph unicode="&#xed;" horiz-adv-x="590" d="M76 94q-4 -42 17 -68t63 -26h207q15 0 25 9.5t11 26.5l83 788q2 14 -7.5 24.5t-23.5 10.5h-260q-15 0 -25.5 -10t-12.5 -25zM95 1158l70 -144q9 -25 50 -11l396 153q33 18 16 55l-106 209q-6 14 -23 14t-29 -11l-361 -224q-25 -18 -13 -41z" />
<glyph unicode="&#xee;" horiz-adv-x="590" d="M-31 1029q-2 -27 16 -34t50 5l319 119l293 -119q30 -13 50 -5.5t22 34.5l20 193q2 19 -20 35l-308 178q-21 12 -50 0l-342 -178q-25 -13 -28 -35zM76 94q-4 -42 17 -68t63 -26h207q15 0 25 9.5t11 26.5l83 788q2 14 -7.5 24.5t-23.5 10.5h-260q-15 0 -25.5 -10t-12.5 -25 z" />
<glyph unicode="&#xef;" horiz-adv-x="590" d="M-66 1224q7 70 62.5 119t126.5 49t115.5 -49t37.5 -119q-8 -69 -64.5 -120.5t-126.5 -51.5t-114.5 51t-36.5 121zM76 94q-4 -42 17 -68t63 -26h207q15 0 25 9.5t11 26.5l83 788q2 14 -7.5 24.5t-23.5 10.5h-260q-15 0 -25.5 -10t-12.5 -25zM453 1224q7 71 61 119.5 t125 48.5t116 -49t38 -119q-7 -69 -64.5 -120.5t-126.5 -51.5q-70 0 -113.5 51t-35.5 121z" />
<glyph unicode="&#xf0;" horiz-adv-x="1034" d="M50 422q18 176 158 295.5t321 119.5q53 0 108 -20q-14 70 -52 118l-113 -59q-36 -17 -49 14l-31 65q-15 32 19 48l42 23q-49 11 -95 14q-17 0 -26 9.5t-7 26.5l55 259q4 34 40 34q218 -9 371 -166l92 48q36 17 46 -12l34 -66q15 -32 -19 -48l-64 -35q59 -101 78 -237 t4 -279q-28 -270 -173 -428t-348 -158q-119 0 -214 58t-142.5 158t-34.5 218zM377 415q-4 -48 26 -83t76 -35q48 0 85.5 33.5t42.5 80.5q10 46 -22 84t-80 38q-46 0 -83.5 -35t-44.5 -83z" />
<glyph unicode="&#xf1;" horiz-adv-x="1076" d="M43 36l84 788q2 15 12 25t24 10h212q0 -45 31 -73q127 82 252 82q155 0 245.5 -96.5t73.5 -257.5l-36 -351q-5 -56 1 -118q2 -18 -5.5 -31.5t-21.5 -13.5h-233q-41 0 -61.5 25.5t-16.5 66.5l35 330q7 56 -18.5 88t-75.5 32q-67 0 -123 -46l-49 -460q-2 -14 -13 -25 t-25 -11h-260q-16 0 -25 10t-7 26zM190 1185.5q3 15.5 13 27.5q1 1 13.5 16t26.5 30.5t39 36.5t51 36t62.5 26t73.5 11q43 0 80.5 -14.5t60.5 -32t55.5 -32t66.5 -14.5q12 0 23.5 1.5t20.5 3.5t19.5 6.5t16.5 7t16 8.5t13.5 8.5t13 9.5t11.5 8q38 36 61 2l73 -133 q7 -13 3 -27t-14 -24q-113 -128 -267 -128q-54 0 -93.5 13.5t-58.5 30t-51 30t-73 13.5q-28 0 -53 -11t-36.5 -20.5t-31.5 -29.5q-13 -12 -26 -10.5t-21 13.5l-84 113q-7 9 -4 24.5z" />
<glyph unicode="&#xf2;" horiz-adv-x="1034" d="M43 427q-19 -184 103 -311.5t310 -127.5q123 0 234.5 57.5t185.5 159t87 222.5q14 124 -38.5 227t-152 160t-222.5 57t-234 -57t-185 -159.5t-88 -227.5zM315.5 1161.5q1.5 -14.5 14.5 -21.5l364 -152q38 -16 51 10l100 144q9 14 7.5 25t-10.5 17l-313 224 q-12 11 -27.5 10.5t-27.5 -14.5l-148 -208q-12 -20 -10.5 -34.5zM358 427q5 58 52 102.5t109 44.5q63 0 100 -44t32 -103q-7 -56 -53 -100t-109 -44t-100.5 44t-30.5 100z" />
<glyph unicode="&#xf3;" horiz-adv-x="1034" d="M43 427q-19 -184 103 -311.5t310 -127.5q123 0 234.5 57.5t185.5 159t87 222.5q14 124 -38.5 227t-152 160t-222.5 57t-234 -57t-185 -159.5t-88 -227.5zM320 1182.5q-4 -10.5 1 -24.5l70 -144q9 -25 50 -11l396 153q32 17 15 55l-106 209q-6 14 -23 14t-29 -11 l-361 -224q-9 -6 -13 -16.5zM358 427q5 58 52 102.5t109 44.5q63 0 100 -44t32 -103q-7 -56 -53 -100t-109 -44t-100.5 44t-30.5 100z" />
<glyph unicode="&#xf4;" horiz-adv-x="1034" d="M43 427q-19 -184 103 -311.5t310 -127.5q123 0 234.5 57.5t185.5 159t87 222.5q14 124 -38.5 227t-152 160t-222.5 57t-234 -57t-185 -159.5t-88 -227.5zM194 1029q-2 -27 16 -34t50 5l320 119l293 -119q30 -13 49.5 -5.5t21.5 34.5l21 193q2 19 -21 35l-307 178 q-21 12 -50 0l-342 -178q-25 -13 -28 -35zM358 427q5 58 52 102.5t109 44.5q63 0 100 -44t32 -103q-7 -56 -53 -100t-109 -44t-100.5 44t-30.5 100z" />
<glyph unicode="&#xf5;" horiz-adv-x="1034" d="M43 427q-19 -184 103 -311.5t310 -127.5q123 0 234.5 57.5t185.5 159t87 222.5q14 124 -38.5 227t-152 160t-222.5 57t-234 -57t-185 -159.5t-88 -227.5zM185 1185.5q-3 -15.5 4 -24.5l83 -113q8 -12 21 -13.5t26 10.5q19 19 31.5 29.5t37.5 21t53 10.5q41 0 73 -13.5 t51 -30t58.5 -30t93.5 -13.5q154 0 267 128q10 10 13.5 24t-3.5 27l-72 133q-23 34 -61 -2q-2 -1 -11.5 -8t-13 -9.5t-13.5 -8.5t-16 -8.5t-16.5 -7t-19.5 -6.5t-20.5 -3.5t-23.5 -1.5q-42 0 -81.5 23t-84 46.5t-98.5 23.5q-37 0 -73.5 -11t-62.5 -26t-50.5 -36t-38.5 -36.5 t-26.5 -30.5t-13.5 -16q-10 -12 -13 -27.5zM358 427q5 58 52 102.5t109 44.5q63 0 100 -44t32 -103q-7 -56 -53 -100t-109 -44t-100.5 44t-30.5 100z" />
<glyph unicode="&#xf6;" horiz-adv-x="1034" d="M43 427q-19 -184 103 -311.5t310 -127.5q123 0 234.5 57.5t185.5 159t87 222.5q14 124 -38.5 227t-152 160t-222.5 57t-234 -57t-185 -159.5t-88 -227.5zM161 1224q7 70 63 119t127 49t115 -49t37 -119q-8 -69 -64.5 -120.5t-126.5 -51.5t-114.5 51t-36.5 121zM358 427 q5 58 52 102.5t109 44.5q63 0 100 -44t32 -103q-7 -56 -53 -100t-109 -44t-100.5 44t-30.5 100zM680 1224q7 71 61 119.5t125 48.5t116.5 -49t38.5 -119q-7 -69 -64.5 -120.5t-126.5 -51.5q-70 0 -114 51t-36 121z" />
<glyph unicode="&#xf7;" horiz-adv-x="1095" d="M80 552l21 186q1 16 12.5 26t27.5 10h850q15 0 23.5 -10t7.5 -25l-19 -185q-2 -15 -14 -26t-26 -11h-850q-14 0 -24 10.5t-9 24.5zM309 257q9 82 77 142.5t150 60.5q81 0 133.5 -60.5t43.5 -142.5t-74 -141.5t-146 -59.5q-82 0 -136.5 59.5t-47.5 141.5zM391 1033 q9 83 76 143t149 60t134.5 -60t44.5 -143q-7 -82 -73 -142t-148 -60t-136.5 60t-46.5 142z" />
<glyph unicode="&#xf8;" horiz-adv-x="1157" d="M95 36q-16 16 0 32l86 85q-87 120 -72 274q14 125 88 227.5t185 159.5t234 57q121 0 222 -57l97 97q18 15 33 0l94 -94q15 -15 0 -33l-94 -93q76 -113 61 -264q-13 -121 -87 -222.5t-185.5 -159t-234.5 -57.5q-112 0 -206 48l-96 -95q-16 -16 -31 0zM423 397l176 177h-12 q-64 0 -111.5 -44.5t-52.5 -102.5q-3 -16 0 -30zM562 283q60 2 104 46t51 98l2 12z" />
<glyph unicode="&#xf9;" horiz-adv-x="1074" d="M68 347l38 356q4 51 -2 118q-2 18 6 31.5t22 13.5h232q41 0 62 -26t17 -66l-35 -333q-7 -57 18.5 -88.5t76.5 -31.5q69 0 122 49l47 453q2 14 13 25t25 11h260q16 0 24.5 -10t6.5 -26l-83 -788q-2 -15 -12 -25t-24 -10h-212q0 46 -30 73q-129 -83 -251 -83 q-154 0 -246 98.5t-75 258.5zM318 1196l147 208q12 14 28 14.5t28 -10.5l312 -224q9 -6 11 -17t-7 -25l-101 -144q-13 -25 -50 -10l-365 152q-29 16 -3 56z" />
<glyph unicode="&#xfa;" horiz-adv-x="1074" d="M68 347l38 356q4 51 -2 118q-2 18 6 31.5t22 13.5h232q41 0 62 -26t17 -66l-35 -333q-7 -57 18.5 -88.5t76.5 -31.5q69 0 122 49l47 453q2 14 13 25t25 11h260q16 0 24.5 -10t6.5 -26l-83 -788q-2 -15 -12 -25t-24 -10h-212q0 46 -30 73q-129 -83 -251 -83 q-154 0 -246 98.5t-75 258.5zM312 1158q-12 23 13 41l361 224q12 11 29 11t23 -14l105 -209q17 -38 -15 -55l-396 -153q-41 -14 -50 11z" />
<glyph unicode="&#xfb;" horiz-adv-x="1074" d="M68 347l38 356q4 51 -2 118q-2 18 6 31.5t22 13.5h232q41 0 62 -26t17 -66l-35 -333q-7 -57 18.5 -88.5t76.5 -31.5q69 0 122 49l47 453q2 14 13 25t25 11h260q16 0 24.5 -10t6.5 -26l-83 -788q-2 -15 -12 -25t-24 -10h-212q0 46 -30 73q-129 -83 -251 -83 q-154 0 -246 98.5t-75 258.5zM187 1029l23 193q3 22 28 35l342 178q29 12 50 0l307 -178q23 -16 21 -35l-21 -193q-2 -27 -21.5 -34.5t-49.5 5.5l-293 119l-320 -119q-32 -12 -50 -5t-16 34z" />
<glyph unicode="&#xfc;" horiz-adv-x="1074" d="M68 347l38 356q4 51 -2 118q-2 18 6 31.5t22 13.5h232q41 0 62 -26t17 -66l-35 -333q-7 -57 18.5 -88.5t76.5 -31.5q69 0 122 49l47 453q2 14 13 25t25 11h260q16 0 24.5 -10t6.5 -26l-83 -788q-2 -15 -12 -25t-24 -10h-212q0 46 -30 73q-129 -83 -251 -83 q-154 0 -246 98.5t-75 258.5zM153 1224q7 70 62.5 119t126.5 49t115.5 -49t37.5 -119q-8 -69 -64.5 -120.5t-126.5 -51.5t-114.5 51t-36.5 121zM672 1224q7 71 60.5 119.5t124.5 48.5t116.5 -49t38.5 -119q-7 -69 -64.5 -120.5t-126.5 -51.5q-70 0 -113.5 51t-35.5 121z" />
<glyph unicode="&#xfd;" horiz-adv-x="1129" d="M2 -403q-30 29 8 72q239 246 349 479l-288 669q-9 18 0.5 30t29.5 12h270q28 0 39 -26l142 -364l212 364q14 26 43 26h273q20 0 27 -12t-5 -30l-404 -680q-122 -203 -230.5 -358.5t-153.5 -210t-101 -115.5q-14 -14 -33.5 -14t-33.5 14zM371 1158l70 -144q9 -25 50 -11 l396 153q33 18 16 55l-106 209q-6 14 -23 14t-29 -11l-361 -224q-25 -18 -13 -41z" />
<glyph unicode="&#xfe;" horiz-adv-x="1126" d="M16 -470l175 1669q2 43 1.5 60t-5 46.5t-5.5 36.5q-2 19 8.5 32.5t28.5 13.5h217q103 0 93 -102l-48 -462q86 42 184 42q179 0 279 -122t80 -310q-12 -118 -75 -220t-165 -164t-218 -62q-100 0 -167 47l-43 -410q-7 -58 -50.5 -96.5t-93.5 -38.5h-163q-17 0 -26 11t-7 29 zM429 318q57 -33 113 -33q64 0 113.5 42t54.5 105q7 62 -34 101.5t-103 39.5q-56 0 -122 -31z" />
<glyph unicode="&#xff;" horiz-adv-x="1129" d="M2 -403q-30 29 8 72q239 246 349 479l-288 669q-9 18 0.5 30t29.5 12h270q28 0 39 -26l142 -364l212 364q14 26 43 26h273q20 0 27 -12t-5 -30l-404 -680q-122 -203 -230.5 -358.5t-153.5 -210t-101 -115.5q-14 -14 -33.5 -14t-33.5 14zM212 1224q7 70 62.5 119t126.5 49 t115.5 -49t37.5 -119q-8 -69 -64.5 -120.5t-126.5 -51.5t-114.5 51t-36.5 121zM731 1224q7 71 60.5 119.5t124.5 48.5t116.5 -49t38.5 -119q-7 -69 -64.5 -120.5t-126.5 -51.5q-70 0 -113.5 51t-35.5 121z" />
<glyph unicode="&#x152;" horiz-adv-x="2209" d="M99 694q21 193 132.5 355.5t284.5 257t367 94.5q195 0 358 -103l5 56q2 15 12.5 24.5t25.5 9.5h856q14 0 24 -10t9 -24l-23 -236q-2 -16 -13.5 -25.5t-27.5 -9.5h-552l-28 -253h295q14 0 24 -10.5t9 -24.5l-26 -234q-2 -16 -13 -26.5t-27 -10.5h-293l-24 -217h553 q14 0 24 -10.5t9 -24.5l-26 -236q-1 -16 -12.5 -26t-27.5 -10h-854q-16 0 -25 10t-8 26l6 54q-175 -102 -377 -102q-145 0 -271 55.5t-211 150t-127.5 225.5t-27.5 275zM446 696q-10 -98 30 -185t118.5 -140t174.5 -53q146 0 265.5 114t135.5 264q16 149 -79.5 262 t-241.5 113t-266.5 -113t-136.5 -262z" />
<glyph unicode="&#x153;" horiz-adv-x="1593" d="M43 427q14 125 88 227.5t185 159.5t234 57q174 0 292 -107q133 107 293 107q95 0 172 -35t123 -93t67.5 -130.5t12.5 -149.5q-7 -61 -48.5 -98t-109.5 -37l-411 -2q9 -35 58 -60.5t110 -25.5q116 0 210 38q42 17 59 -19l37 -75q17 -30 -13 -63q-113 -131 -336 -131 q-177 0 -292 109q-145 -111 -318 -111q-188 0 -310 127.5t-103 311.5zM358 427q-7 -56 30.5 -100t100.5 -44t109 44t53 100q5 59 -32 103t-100 44q-62 0 -109 -44.5t-52 -102.5zM962 540l1 -7h274q-2 27 -37.5 52.5t-92.5 25.5q-52 0 -91.5 -22.5t-53.5 -48.5z" />
<glyph unicode="&#x178;" horiz-adv-x="1343" d="M91 1377q6 11 22 11h321q4 0 7.5 -1t6.5 -3t4.5 -4l4.5 -6t4 -6l4 -8l4 -8l229 -411l314 411q2 2 6.5 9t6.5 9t6 6.5t7 6.5t7 3.5t9 1.5h321q16 0 20 -11t-7 -25l-553 -725l-63 -591q-1 -17 -11 -26.5t-25 -9.5h-215q-42 0 -63 26t-17 68l54 527l-403 731q-7 14 -1 25z M344 1677q7 70 62.5 119t126.5 49t115.5 -49t37.5 -119q-8 -69 -64.5 -120.5t-126.5 -51.5t-114.5 51t-36.5 121zM863 1677q7 71 60.5 119.5t124.5 48.5t116.5 -49t38.5 -119q-7 -69 -64.5 -120.5t-126.5 -51.5q-70 0 -113.5 51t-35.5 121z" />
<glyph unicode="&#x2c6;" horiz-adv-x="888" d="M115 1047q-2 -27 16 -34.5t50 4.5l319 120l293 -120q30 -13 49.5 -5t21.5 35l21 192q2 19 -21 35l-307 179q-21 12 -50 0l-342 -179q-25 -13 -28 -35z" />
<glyph unicode="&#x2dc;" horiz-adv-x="954" d="M129.5 1185.5q-2.5 -15.5 4.5 -24.5l83 -113q8 -12 21 -13.5t26 10.5q20 20 31.5 29.5t36.5 20.5t53 11q41 0 73 -13.5t51 -30t58.5 -30t93.5 -13.5q155 0 268 128q10 10 13.5 24t-3.5 27l-73 133q-23 34 -61 -2q-1 -1 -12.5 -9.5t-15.5 -10.5t-15.5 -9t-19.5 -10 t-19.5 -7t-24 -5.5t-26.5 -1.5q-42 0 -81.5 23t-84 46.5t-98.5 23.5q-37 0 -73.5 -11t-62.5 -26t-51 -36t-39 -36.5t-26.5 -30.5t-13.5 -16q-10 -12 -12.5 -27.5z" />
<glyph unicode="&#x2000;" horiz-adv-x="963" />
<glyph unicode="&#x2001;" horiz-adv-x="1926" />
<glyph unicode="&#x2002;" horiz-adv-x="963" />
<glyph unicode="&#x2003;" horiz-adv-x="1926" />
<glyph unicode="&#x2004;" horiz-adv-x="642" />
<glyph unicode="&#x2005;" horiz-adv-x="481" />
<glyph unicode="&#x2006;" horiz-adv-x="321" />
<glyph unicode="&#x2007;" horiz-adv-x="321" />
<glyph unicode="&#x2008;" horiz-adv-x="240" />
<glyph unicode="&#x2009;" horiz-adv-x="385" />
<glyph unicode="&#x200a;" horiz-adv-x="107" />
<glyph unicode="&#x2010;" horiz-adv-x="749" d="M69 330v201q0 16 10.5 26.5t26.5 10.5h540q14 0 24 -10t10 -25v-202q0 -14 -10 -25t-24 -11h-540q-14 0 -25.5 10.5t-11.5 24.5z" />
<glyph unicode="&#x2011;" horiz-adv-x="749" d="M69 330v201q0 16 10.5 26.5t26.5 10.5h540q14 0 24 -10t10 -25v-202q0 -14 -10 -25t-24 -11h-540q-14 0 -25.5 10.5t-11.5 24.5z" />
<glyph unicode="&#x2012;" horiz-adv-x="749" d="M69 330v201q0 16 10.5 26.5t26.5 10.5h540q14 0 24 -10t10 -25v-202q0 -14 -10 -25t-24 -11h-540q-14 0 -25.5 10.5t-11.5 24.5z" />
<glyph unicode="&#x2013;" horiz-adv-x="1213" d="M139 420v194q0 16 10 26.5t26 10.5h865q14 0 24 -9.5t10 -25.5v-194q0 -15 -10 -26t-24 -11h-865q-14 0 -25 10.5t-11 24.5z" />
<glyph unicode="&#x2014;" horiz-adv-x="1586" d="M104 420v194q0 16 10.5 26.5t26.5 10.5h1306q15 0 25 -10t10 -25v-194q0 -14 -10.5 -25.5t-24.5 -11.5h-1306q-14 0 -25.5 10.5t-11.5 24.5z" />
<glyph unicode="&#x2018;" horiz-adv-x="492" d="M87 1033q-2 74 9.5 133t40.5 136q37 85 103.5 156.5t136.5 112.5q31 11 45 -5l36 -53q8 -16 -3 -24q-152 -108 -189 -253q30 8 57 8q83 0 136 -60.5t44 -143.5q-7 -83 -73.5 -142.5t-148.5 -59.5q-55 0 -98.5 26t-66.5 71q-26 43 -29 98z" />
<glyph unicode="&#x2019;" horiz-adv-x="458" d="M64 1222q9 83 75 142t149 59h4q81 0 133 -56.5t56 -137.5q2 -73 -9 -130.5t-40 -136.5q-38 -86 -105 -157.5t-136 -111.5q-30 -16 -45 5l-35 50q-11 16 2 26q152 106 189 252q-31 -9 -57 -9q-83 0 -136 60.5t-45 144.5z" />
<glyph unicode="&#x201a;" horiz-adv-x="1121" d="M-5 174q9 83 75 142t149 59q50 0 91 -22.5t65 -62.5q31 -46 36 -109q3 -131 -48 -270q-37 -85 -103.5 -156t-136.5 -111q-31 -15 -47 4l-34 52q-10 19 3 26q151 106 188 251q-30 -8 -58 -8q-83 0 -136 60.5t-44 144.5zM486 174q9 83 75 142t149 59q50 0 91 -22.5 t65 -62.5q32 -48 37 -109q1 -73 -10 -132t-39 -138q-38 -85 -105 -156t-136 -111q-29 -15 -45 4l-37 52q-9 19 4 26q152 106 189 251q-30 -8 -59 -8q-82 0 -135 61t-44 144z" />
<glyph unicode="&#x201c;" horiz-adv-x="1017" d="M89 887q-2 74 9 133t39 136q37 85 103.5 156t137.5 111q29 15 45 -3l35 -52q10 -19 -3 -26q-152 -106 -189 -252q34 9 59 9q83 0 135.5 -60.5t44.5 -144.5q-9 -83 -75 -142t-149 -59q-54 0 -97.5 26t-67.5 71q-24 42 -27 97zM578 887q-1 73 10.5 132t39.5 137 q37 85 104 156t138 111q28 15 43 -3l36 -52q10 -19 -3 -26q-152 -106 -189 -252q34 9 59 9q83 0 135 -60.5t43 -144.5q-7 -83 -73.5 -142t-148.5 -59q-55 0 -98.5 26t-66.5 71q-26 43 -29 97z" />
<glyph unicode="&#x201d;" horiz-adv-x="1022" d="M116 1222q9 83 75 142t149 59h4q81 0 133 -56.5t56 -137.5q2 -73 -9 -130.5t-40 -136.5q-38 -86 -105 -157.5t-136 -111.5q-30 -16 -45 5l-35 50q-11 16 2 26q152 106 189 252q-31 -9 -57 -9q-83 0 -136 60.5t-45 144.5zM607 1222q9 83 75 142t149 59h4q64 0 113 -38 q33 -28 52 -68q19 -34 22 -88q2 -74 -8.5 -132t-38.5 -135q-38 -86 -105 -157.5t-136 -111.5q-30 -16 -45 5l-35 50q-11 16 2 26q152 106 189 252q-34 -9 -57 -9q-83 0 -136.5 61t-44.5 144z" />
<glyph unicode="&#x201e;" horiz-adv-x="1122" d="M59 174q9 83 75 142t149 59q50 0 91 -22.5t65 -62.5q32 -48 37 -109q3 -128 -49 -270q-37 -85 -103.5 -156t-136.5 -111q-30 -14 -46 4l-35 52q-10 19 3 26q151 106 188 251q-30 -8 -57 -8q-83 0 -136.5 61t-44.5 144zM550 174q9 83 75 142t149 59q50 0 91 -22.5 t65 -62.5q32 -48 37 -109q1 -73 -10 -132t-39 -138q-38 -85 -105 -156t-136 -111q-29 -15 -45 4l-37 52q-9 19 4 26q152 106 189 251q-30 -8 -59 -8q-82 0 -135 61t-44 144z" />
<glyph unicode="&#x2022;" horiz-adv-x="796" d="M87 436q0 127 94 219.5t222 92.5q126 0 216.5 -92t90.5 -220t-90.5 -219.5t-216.5 -91.5q-128 0 -222 92t-94 219z" />
<glyph unicode="&#x2026;" horiz-adv-x="1662" d="M87 182q0 84 59.5 143.5t143.5 59.5q83 0 144 -60t61 -143t-61 -144t-144 -61q-84 0 -143.5 60.5t-59.5 144.5zM628 182q0 83 59.5 143t142.5 60t143.5 -60t60.5 -143t-60.5 -144t-143.5 -61t-142.5 60.5t-59.5 144.5zM1168 182q0 83 60 143t143 60t144 -60t61 -143 t-61 -144t-144 -61t-143 61t-60 144z" />
<glyph unicode="&#x202f;" horiz-adv-x="385" />
<glyph unicode="&#x2039;" horiz-adv-x="695" d="M69 373l188 -338q11 -19 29 -19h216q55 0 38 66l-87 319l160 304q16 31 8.5 50t-33.5 19h-203q-23 0 -41 -26l-269 -325q-19 -25 -6 -50z" />
<glyph unicode="&#x203a;" horiz-adv-x="695" d="M45 82q-30 -66 24 -66h216q22 0 33 19l260 338q16 23 5 50l-199 325q-18 26 -39 26h-203q-27 0 -37.5 -19t-0.5 -50l94 -304z" />
<glyph unicode="&#x205f;" horiz-adv-x="481" />
<glyph unicode="&#x20ac;" horiz-adv-x="1372" d="M2 451l19 191q2 14 14 25.5t26 11.5h36l2 20q0 3 1 9t1 9h-39q-14 0 -22.5 9.5t-6.5 25.5l19 190q2 15 13 26t25 11h94q103 195 294.5 315.5t410.5 120.5q139 0 259 -51.5t209 -143.5q19 -22 -7 -48l-227 -210q-23 -23 -49 0q-52 50 -103 69t-129 19q-116 0 -217 -71h168 q15 0 25 -10.5t8 -24.5l-19 -191q-2 -16 -14 -26t-28 -10h-300l-2 -16q0 -3 -0.5 -11t-0.5 -11h300q14 0 24 -10.5t9 -24.5l-19 -191q-2 -16 -14 -26t-28 -10h-163q85 -68 198 -68q77 0 131 19t119 68q31 23 48 0l183 -209q21 -25 -4 -48q-108 -92 -238.5 -142.5 t-269.5 -50.5q-218 0 -383 119t-228 312h-96q-15 0 -23 9.5t-6 24.5z" />
<glyph unicode="&#x2122;" horiz-adv-x="1117" d="M121 1267l11 97q3 24 26 24h333q12 0 18.5 -7t5.5 -17l-10 -97q-1 -12 -9.5 -19t-19.5 -7h-92l-37 -349q-2 -11 -10 -18.5t-18 -7.5h-95q-12 0 -20 8t-6 18l36 349h-92q-24 0 -21 26zM524 892l50 472q1 10 9 17t19 7h68q18 0 24 -13l139 -266l188 266q9 13 27 13h75 q11 0 17 -7t5 -17l-50 -472q-4 -26 -26 -26h-97q-11 0 -18 8t-6 18l17 172l-130 -181q-12 -15 -26 -15h-4q-19 0 -24 15l-90 181l-18 -172q-2 -11 -9.5 -18.5t-17.5 -7.5h-98q-11 0 -18 8t-6 18z" />
<glyph unicode="&#x25fc;" horiz-adv-x="859" d="M0 0v859h859v-859h-859z" />
<glyph unicode="&#xfb03;" horiz-adv-x="1949" d="M50 587l23 206q4 31 24.5 48.5t50.5 17.5h50l21 189q18 170 132 262t298 92q182 0 373 -114q106 109 290 109q68 0 142.5 -21.5t111.5 -56.5q22 -22 5 -54l-113 -184q-18 -34 -49 -17q-30 17 -67 17t-67.5 -23t-35.5 -67l-14 -132h585q14 0 23.5 -10.5t7.5 -24.5 l-83 -788q-1 -17 -11 -26.5t-25 -9.5h-207q-42 0 -63 26t-17 68l49 468h-290l-57 -526q-1 -14 -13.5 -25t-26.5 -11h-198q-42 0 -65.5 26.5t-19.5 68.5l49 467h-367l-55 -526q-1 -14 -13.5 -25t-26.5 -11h-198q-42 0 -65.5 26.5t-19.5 68.5l49 467h-92q-12 0 -19.5 7 t-5.5 18zM528 859h366l15 146q-131 81 -236 81q-118 0 -131 -97z" />
<glyph unicode="&#xfb04;" horiz-adv-x="1956" d="M50 587l23 206q4 31 24.5 48.5t50.5 17.5h50l21 189q18 170 132 262t298 92q179 0 365 -109q117 109 319 109q115 0 245 -50v2q2 15 12.5 24.5t25.5 9.5h260q14 0 23 -10t8 -24l-138 -1318q-1 -17 -11.5 -26.5t-25.5 -9.5h-206q-42 0 -63 26t-17 68l99 939 q-108 53 -188 53q-119 0 -132 -97l-14 -130h144q11 0 18.5 -7.5t6.5 -18.5l-26 -245q0 -10 -8.5 -18t-19.5 -8h-146l-55 -526q-1 -14 -13.5 -25t-26.5 -11h-198q-42 0 -65.5 26.5t-19.5 68.5l48 467h-354l-55 -526q-1 -14 -13.5 -25t-26.5 -11h-198q-42 0 -65.5 26.5 t-19.5 68.5l49 467h-92q-12 0 -19.5 7t-5.5 18zM528 859h354l17 153q-132 74 -226 74q-118 0 -131 -97z" />
</font>
</defs>
</svg>
