<?xml version="1.0" standalone="no"?>
<!DOCTYPE svg PUBLIC "-//W3C//DTD SVG 1.1//EN" "http://www.w3.org/Graphics/SVG/1.1/DTD/svg11.dtd" >
<svg xmlns="http://www.w3.org/2000/svg" xmlns:xlink="http://www.w3.org/1999/xlink" version="1.1">
<metadata></metadata>
<defs>
<font id="venti_cfthin" horiz-adv-x="874" >
<font-face units-per-em="2048" ascent="1638" descent="-410" />
<missing-glyph horiz-adv-x="437" />
<glyph unicode="&#xfb01;" horiz-adv-x="985" d="M61 826v17q0 16 15 16h170v182q0 175 97.5 265.5t255.5 90.5q114 0 208 -66q17 -9 10 -19l-10 -19q-7 -12 -19 -3q-85 62 -189 62q-34 0 -68.5 -5.5t-79 -25.5t-77.5 -52t-56 -91t-23 -137v-182h547q8 0 11 -2.5t3 -11.5v-831q0 -14 -11 -14h-26q-12 0 -12 16v798h-512 v-797q0 -7 -0.5 -10t-3 -5t-8.5 -2h-23q-14 0 -14 19v795h-173q-7 0 -9.5 2t-2.5 10z" />
<glyph unicode="&#xfb02;" horiz-adv-x="1062" d="M61 826v17q0 16 15 16h170v182q0 176 98 268.5t255 92.5q154 0 286 -109v82q0 9 2 11t10 2h23q8 0 10 -2t2 -11v-1359q0 -16 -12 -16h-19q-10 0 -13 3.5t-3 13.5v1222q-123 118 -286 118q-33 0 -68 -6t-79 -26.5t-77.5 -53.5t-56.5 -92.5t-23 -137.5v-182h314q7 0 9 -2.5 t2 -9.5v-21q0 -7 -2 -9.5t-9 -2.5h-314v-797q0 -7 -0.5 -10t-3 -5t-8.5 -2h-23q-14 0 -14 19v795h-173q-7 0 -9.5 2t-2.5 10z" />
<glyph horiz-adv-x="0" />
<glyph horiz-adv-x="682" />
<glyph unicode=" "  horiz-adv-x="437" />
<glyph unicode="&#x09;" horiz-adv-x="437" />
<glyph unicode="&#xa0;" horiz-adv-x="437" />
<glyph unicode="!" horiz-adv-x="289" d="M104 38q0 17 11.5 29.5t28.5 12.5t29.5 -12.5t12.5 -29.5t-12 -27.5t-30 -10.5q-17 0 -28.5 10.5t-11.5 27.5zM120 1364v16q0 5 1.5 6.5t6.5 1.5h33q9 0 9 -8v-16l-2 -807q-3 -7 -7 -7h-33q-7 0 -7 7z" />
<glyph unicode="&#x22;" horiz-adv-x="456" d="M52 897v446q0 7 1.5 9t8.5 2h28q6 0 7.5 -2t1.5 -9l-2 -447q-2 -11 -12 -11h-23q-10 0 -10 12zM356 897v446q0 11 10 11h30q8 0 8 -11l-3 -447q-2 -11 -10 -11h-25q-10 0 -10 12z" />
<glyph unicode="#" horiz-adv-x="1148" d="M62 481v24q0 9 11 9h258l58 402h-252q-9 0 -9 11v24q0 9 9 9h257l59 418q2 10 14 10h22q11 0 9 -10l-59 -418h342l59 418q2 10 14 10h22q11 0 9 -10l-59 -418h254q5 0 5.5 -1.5t0.5 -7.5v-26q0 -9 -6 -9h-261l-57 -402h250q9 0 9 -11v-21q0 -12 -9 -12h-255l-66 -461 q-1 -7 -3 -8t-9 -1h-25q-8 0 -8 9l66 461h-342l-66 -461q-1 -7 -3 -8t-9 -1h-25q-7 0 -7 9l65 461h-252q-7 0 -9 2t-2 9zM375 514h342l57 402h-342z" />
<glyph unicode="$" horiz-adv-x="1091" d="M88.5 204q-0.5 3 5.5 13l10 12q13 12 28 -2l14 -15q15 -14 33 -30t46 -38.5t62.5 -42.5t74 -37t88 -27.5t97.5 -10.5q89 0 161.5 22t117.5 56t75 78t42 86t12 83q0 44 -14 82.5t-34.5 66.5t-56 55t-66 43.5t-78.5 35.5t-78.5 29t-82 26t-73.5 23q-48 16 -81 28.5t-74 31 t-69 37t-56.5 44.5t-45.5 54.5t-27.5 66t-10.5 81.5q0 67 24 127.5t71.5 112t128 83t185.5 35.5v137q0 9 9 9h31q9 0 9 -9v-137q42 -2 82.5 -10.5t76.5 -22.5t65 -27.5t58 -32.5t45 -30t37 -27.5t23 -18.5q9 -5 2 -17l-14 -19q-8 -11 -19 -5l-14 13q-15 12 -32 24.5 t-43.5 30.5t-58 33.5t-68 29.5t-79.5 22t-87 8q-180 0 -282 -87t-102 -218q0 -32 7.5 -60.5t18 -51t31 -43.5t38 -36.5t47.5 -31.5t51.5 -26t58.5 -23.5t59 -20.5t62.5 -19.5t60.5 -19.5q174 -60 247 -104q168 -100 168 -272q0 -153 -122 -260.5t-317 -111.5v-144 q0 -9 -9 -9h-31q-9 0 -9 9v146q-225 13 -413 205l-7 7q-8 8 -8.5 11z" />
<glyph unicode="%" horiz-adv-x="958" d="M66 26l762 1297q10 17 24 17h16q18 0 10 -16l-763 -1298q-10 -17 -25 -17h-15q-17 0 -9 17zM73 1305q0 9 9 17.5t19 8.5q11 0 18.5 -8t7.5 -18q0 -12 -7 -20t-19 -8q-11 0 -19.5 8t-8.5 20zM831 49q0 9 9 17.5t19 8.5q11 0 18.5 -8t7.5 -18q0 -12 -7 -20t-19 -8 q-11 0 -19.5 8t-8.5 20z" />
<glyph unicode="&#x26;" horiz-adv-x="1176" d="M-38.5 328.5q-15.5 106.5 28.5 192.5q71 147 289 250q80 38 126 61t114 67t101.5 82t53 91.5t3.5 109.5q-17 64 -54.5 108.5t-84 63t-100 23.5t-103.5 -9q-86 -19 -143 -84.5t-65 -148.5q-3 -37 5.5 -74t18.5 -62t34 -60t34 -47t36 -43q23 -26 21 -40.5t-30 -30.5 q-67 79 -93 114q-68 89 -78 191.5t43 186.5q54 83 121.5 117t161.5 40q68 4 131 -16t117.5 -74t75.5 -136q32 -134 -51.5 -238t-333.5 -224l429 -484q111 157 222 488q2 9 11.5 15.5t18.5 6.5h78q8 0 8 -8q-5 -15 -8 -30q-3 -8 -13 -8h-48q-111 -317 -233 -499 q7 -7 32.5 -35.5t44 -45.5t49.5 -39.5t70 -35t85 -15.5q14 0 14 -11v-24q0 -7 -2.5 -9t-9.5 -2q-70 0 -133.5 30t-92 55.5t-81.5 81.5q-3 2 -4.5 3.5t-3.5 4t-4 4.5q-107 -123 -229 -161q-58 -17 -121.5 -20t-129.5 8t-128.5 43.5t-108.5 84.5q-75 85 -90.5 191.5z M14.5 415.5q-13.5 -94.5 47.5 -196.5q58 -100 168.5 -141t222.5 -24q174 25 283 165l-444 500q-119 -53 -191.5 -131t-86 -172.5z" />
<glyph unicode="'" horiz-adv-x="150" d="M52 897v446q0 7 1.5 9t8.5 2h28q6 0 7.5 -2t1.5 -9l-2 -447q-2 -11 -12 -11h-23q-10 0 -10 12z" />
<glyph unicode="(" horiz-adv-x="697" d="M78 663q0 367 134.5 586t407.5 271q7 0 7 -12l1 -29q0 -4 -10 -7q-123 -21 -217.5 -89.5t-154 -175.5t-89.5 -244t-30 -300q0 -220 52 -388.5t164 -280t277 -140.5q8 -3 8 -7l-1 -33q0 -8 -9 -8q-182 35 -303 147.5t-179 290t-58 419.5z" />
<glyph unicode=")" horiz-adv-x="697" d="M52 -153q0 4 9 7q165 29 277 140.5t164 280t52 388.5q0 219 -52.5 388.5t-164.5 281t-275 139.5q-10 2 -10 7v29q0 12 9 12q272 -52 406.5 -271t134.5 -586q0 -365 -135 -585t-405 -272q-10 0 -10 8v33z" />
<glyph unicode="*" horiz-adv-x="711" d="M70.5 1211.5q-1.5 2.5 2.5 10.5l17 28q8 14 21 5l222 -149l-7 267q0 10 1.5 12.5t9.5 2.5h34q10 0 12 -2t2 -13l-7 -267l223 149q5 4 7.5 4.5t5 -1.5t7.5 -8l18 -28q3 -8 2 -10.5t-9 -6.5l-235 -139l236 -139q12 -7 6 -19l-18 -26q-6 -8 -9 -9.5t-10 3.5l-224 148l7 -267 q0 -9 -2.5 -11.5t-11.5 -2.5h-33q-8 0 -10 2.5t-2 11.5l7 269l-224 -150q-12 -9 -19 6l-17 26q-8 12 5 19l234 139l-232 139q-8 4 -9.5 6.5z" />
<glyph unicode="+" horiz-adv-x="1060" d="M121 651v21q0 9 2.5 11.5t11.5 2.5h372v371q0 14 12 14h23q12 0 12 -14v-371h371q8 0 11 -2.5t3 -11.5v-21q0 -14 -14 -14h-371v-370q0 -15 -12 -15h-23q-12 0 -12 15v370h-372q-14 0 -14 14z" />
<glyph unicode="," horiz-adv-x="262" d="M78 42q0 38 9 49t45 11q33 0 41.5 -9t8.5 -39l2 -12q2 -56 -14 -160q-19 -93 -55 -156q-7 -14 -16 -14l-7 2q-12 0 -5 14q32 67 41 152q6 73 4 101q-27 0 -40.5 13t-13.5 48z" />
<glyph unicode="-" horiz-adv-x="744" d="M69 432v21q0 12 16 12h576q9 0 11.5 -2t2.5 -10v-21q0 -9 -2.5 -11.5t-11.5 -2.5h-576q-9 0 -12.5 2.5t-3.5 11.5z" />
<glyph unicode="." horiz-adv-x="223" d="M78 30q0 14 11 24t24 10t23 -10t10 -24t-10 -23.5t-23 -9.5t-24 9.5t-11 23.5z" />
<glyph unicode="/" horiz-adv-x="588" d="M68 19l401 1352q7 17 19 17h17q18 0 14 -17l-403 -1352q-2 -11 -5.5 -15t-13.5 -4h-15q-17 0 -14 19z" />
<glyph unicode="0" horiz-adv-x="1194" d="M87 661q0 116 17.5 217.5t57 189.5t97.5 151t144 99t192 36q132 0 232.5 -54.5t160.5 -151t89.5 -219t29.5 -268.5q0 -144 -29.5 -264.5t-89.5 -215.5t-160.5 -148.5t-232.5 -53.5q-106 0 -192 35.5t-144 97t-97.5 148.5t-57 187t-17.5 214zM137 661q0 -134 25.5 -245 t78.5 -199t143.5 -137.5t212.5 -49.5q121 0 211.5 49.5t144 137.5t79 199t25.5 245q0 108 -15.5 201.5t-50.5 175.5t-88 140t-131 91.5t-175 33.5q-98 0 -176 -33.5t-130.5 -91.5t-87.5 -140t-50.5 -175.5t-15.5 -201.5z" />
<glyph unicode="1" horiz-adv-x="362" d="M61 1135q0 5 5 7q66 29 107.5 84.5t50.5 104.5q0 5 14 5h19q7 0 8.5 -1.5t1.5 -8.5v-1314q0 -8 -2.5 -10t-9.5 -2h-22q-14 0 -14 12v1142l-141 -48q-8 -3 -10 5z" />
<glyph unicode="2" horiz-adv-x="987" d="M82 1125q74 113 184 173.5t230 60.5q163 0 288 -112t124 -272q0 -175 -146 -324l-592 -602h719q8 0 8 -11v-28q0 -10 -10 -10h-781q-12 0 -12 12v28l590 597q94 95 136.5 170.5t42.5 173.5q0 135 -110.5 232t-257.5 97q-119 0 -222.5 -66.5t-156.5 -151.5q-2 -4 -7.5 -4 t-7.5 4l-18 15q-8 5 -1 18z" />
<glyph unicode="3" horiz-adv-x="1018" d="M82 224q-6 13 0 19l20 17q13 7 16 -1q64 -105 175 -165.5t229 -60.5q99 0 173.5 33t115 87t59.5 111.5t19 117.5q0 87 -36.5 163.5t-113.5 128t-180 51.5t-212 -46q-14 -7 -24 3l-14 17q-7 10 0 20l555 569h-741q-12 0 -12 12v23q0 13 12 13h780q13 0 13 -13v-40 q0 -9 -7 -16l-508 -521q77 29 175 25q106 -1 191 -57.5t129.5 -143.5t44.5 -185q0 -180 -118.5 -291t-308.5 -111q-125 0 -239.5 60.5t-192.5 180.5z" />
<glyph unicode="4" horiz-adv-x="1015" d="M78 460v21q0 5 5 8q114 77 205 188t135 236q35 102 58.5 226t23.5 206q0 9 9 9h33q7 0 7 -7q0 -136 -34.5 -285t-90.5 -260q-39 -79 -106.5 -160.5t-148.5 -148.5h494v132q0 7 7 10l31 14q5 2 8 -0.5t3 -6.5v-149h206q14 0 14 -14v-19q0 -14 -12 -14h-208v-432 q0 -14 -16 -14h-17q-16 0 -16 14v432h-576q-14 0 -14 14z" />
<glyph unicode="5" horiz-adv-x="996" d="M80 236l24 21q8 5 12 -2q66 -107 171.5 -164.5t227.5 -57.5q86 0 155.5 32t110 84t62 112.5t21.5 122.5q0 153 -99 259.5t-237 106.5q-101 0 -182.5 -38.5t-164.5 -121.5l-35 9q-18 4 -18 17v707q0 13 14 13q172 -7 354 -7q180 0 341 7q13 0 13 -13v-20q0 -15 -13 -15 q-207 -9 -335 -9q-130 0 -321 9v-632q87 77 168 110.5t182 33.5q105 0 194.5 -58.5t141 -155.5t51.5 -208q0 -165 -119 -280t-285 -115q-133 0 -248 63t-184 174q-6 10 -2 16z" />
<glyph unicode="6" horiz-adv-x="1056" d="M78 580q0 116 26.5 227.5t79.5 210t127.5 173.5t177.5 118.5t221 44.5q12 0 12 -9v-29q0 -7 -10 -7q-93 0 -174 -27.5t-141 -75t-108 -110.5t-79 -133.5t-51 -145.5t-26.5 -145.5t-2.5 -133.5q48 129 162.5 214t262.5 85q177 0 300.5 -124t123.5 -302t-127.5 -303 t-315.5 -125q-114 0 -203.5 47t-144 129t-82.5 189t-28 232zM151 429q0 -106 49.5 -198.5t138.5 -148.5t196 -56q158 0 277.5 111.5t119.5 268.5q0 161 -108.5 272.5t-269.5 111.5q-155 0 -279 -111t-124 -250z" />
<glyph unicode="7" horiz-adv-x="1010" d="M61 1296v28q0 6 1.5 7.5t8.5 1.5h861q9 0 9 -10v-32q0 -5 -6 -15l-725 -1266q-6 -10 -14 -10h-40q-5 0 -6 6t1 8l736 1270h-814q-12 0 -12 12z" />
<glyph unicode="8" horiz-adv-x="1029" d="M78 347q0 -160 116.5 -262t320.5 -102q203 0 319.5 102t116.5 262q0 74 -33 139t-83.5 106.5t-106 65t-103.5 24.5l24 4q46 12 91.5 37t88 62.5t68.5 94t26 120.5q0 158 -115 256t-293 98q-180 0 -294.5 -98t-114.5 -256q0 -64 26.5 -120.5t69 -94t88 -62.5t92.5 -37 l22 -4q-47 0 -103 -24t-106 -65t-83.5 -106.5t-33.5 -139.5zM128 347q0 57 26.5 112t74.5 100t122.5 72t163.5 27t164 -27t123 -71.5t74.5 -100t26.5 -112.5q0 -149 -111.5 -232.5t-276.5 -83.5q-167 0 -277 83t-110 233zM154 1001q0 132 101.5 218t259.5 86 q157 0 258.5 -86t101.5 -218q0 -116 -107 -206t-253 -90q-148 0 -254.5 89.5t-106.5 206.5z" />
<glyph unicode="9" horiz-adv-x="1056" d="M78 925q0 178 128.5 303.5t314.5 125.5q114 0 203.5 -47t144 -129t82.5 -189t28 -232q0 -116 -26.5 -227.5t-79.5 -210t-127.5 -173.5t-177.5 -118.5t-221 -44.5q-12 0 -12 8v30q0 7 10 7q108 0 199.5 37t155 99t111.5 140.5t73.5 166t36.5 170t6 157.5 q-48 -129 -162.5 -213.5t-261.5 -84.5q-179 0 -302 123t-123 302zM125 930q0 -161 108 -272t270 -111q155 0 279 111t124 250q0 106 -49.5 198t-138.5 148t-196 56q-158 0 -277.5 -111.5t-119.5 -268.5z" />
<glyph unicode=":" horiz-adv-x="475" d="M174 207q0 28 19 47.5t45 19.5q27 0 46.5 -19.5t19.5 -47.5q0 -27 -19.5 -46t-46.5 -19q-26 0 -45 19t-19 46zM175 722q0 26 19.5 45t45.5 19t45 -19t19 -45q0 -28 -19 -48t-45 -20t-45.5 20t-19.5 48z" />
<glyph unicode=";" horiz-adv-x="1015" d="M175 722q0 26 19.5 45t45.5 19t45 -19t19 -45q0 -28 -19 -48t-45 -20t-45.5 20t-19.5 48zM189 205q0 38 10 49.5t46 11.5q35 0 42.5 -11t7.5 -50q4 -68 -14 -160q-14 -82 -54 -158q-10 -14 -17 -14l-7 2q-11 3 -5 14q36 76 42 154q5 66 3 101q-27 0 -40.5 13t-13.5 48z " />
<glyph unicode="&#x3c;" horiz-adv-x="881" d="M69 635q0 -5 11 -12l685 -418q13 -10 13 3v30q0 8 -11 15l-639 394l644 400q6 4 6 8v31q0 14 -11 6l-687 -422q-11 -7 -11 -10v-25z" />
<glyph unicode="=" horiz-adv-x="1041" d="M113 392v21q0 14 14 14h789q13 0 13 -14v-21q0 -12 -13 -12h-789q-14 0 -14 12zM113 856v20q0 9 3 11.5t11 2.5h789q8 0 10.5 -2.5t2.5 -11.5v-20q0 -13 -13 -13h-789q-14 0 -14 13z" />
<glyph unicode="&#x3e;" horiz-adv-x="881" d="M104 208q0 -4 3 -6t8 3l685 420q12 7 12 10v25q0 3 -12 10l-687 422q-9 5 -9 -6v-31q0 -5 4 -8l645 -400l-640 -394q-9 -5 -9 -15v-30z" />
<glyph unicode="?" horiz-adv-x="805" d="M38 1177q-4 5 2 15q70 102 169 154.5t211 54.5q74 0 141 -21q107 -33 167 -129t51.5 -205.5t-83.5 -179.5q-45 -42 -97 -75t-85 -50t-62.5 -40.5t-43.5 -60t-14 -93.5q0 -14 -14 -14h-24q-11 0 -11 14v45q0 59 40 105t96.5 79t113.5 68.5t97 91.5t40 130q1 41 -8 79.5 t-32 77.5t-58.5 67.5t-93 46.5t-130.5 18q-64 0 -122 -20.5t-99.5 -53t-69 -62.5t-46.5 -61q-2 -4 -6 -4t-6 2zM331 42q0 17 12.5 30t29.5 13q18 0 31 -13t13 -30q0 -18 -13 -31t-31 -13q-17 0 -29.5 13t-12.5 31z" />
<glyph unicode="@" horiz-adv-x="2025" d="M104 491q0 151 45.5 291.5t130.5 254.5t199 199t259 132t303 47q157 0 298.5 -47.5t245.5 -127.5t181 -181.5t116 -213t39 -218.5q0 -88 -11 -170t-40.5 -166.5t-75.5 -146.5t-123 -101.5t-175 -39.5q-92 0 -138.5 37t-64.5 116q-14 -18 -76 -52q-2 -1 -20.5 -11 t-29.5 -15.5t-33.5 -16t-42 -17.5t-44 -15t-51 -13t-52.5 -7q-44 -4 -90.5 2.5t-93.5 24t-81.5 54.5t-45.5 89q-30 155 105.5 222t533.5 142q7 129 -61.5 201.5t-195.5 74.5q-148 3 -328 -87q-17 -9 -22 2l-7 18q-6 13 8 20q181 96 351 92q157 -4 231.5 -88.5t72.5 -230.5 l-2 -135q0 -53 1.5 -96t6.5 -76.5t9 -60t13.5 -45t16.5 -32t21 -22t23 -13t27.5 -6.5t29 -2.5t33.5 -0.5q98 0 171.5 45.5t116 125.5t63 177.5t20.5 211.5q0 102 -35 207t-106.5 202t-169.5 172.5t-235 121t-292 45.5q-186 0 -350 -69.5t-279.5 -187t-182.5 -278.5t-67 -338 q0 -121 32.5 -241t99.5 -230t160.5 -196.5t224 -143.5t280.5 -69q17 -2 17 -14v-29q0 -10 -36 -5q-128 13 -243.5 57t-205.5 111t-162 153.5t-119.5 185.5t-72.5 206t-25 215zM684 271q-16 -65 12 -119t99 -79q104 -38 250.5 10.5t235.5 117.5q-13 76 -9 294 q-34 -7 -105.5 -20.5t-113 -22.5t-103 -23.5t-99.5 -29t-77.5 -34t-61.5 -43t-28 -51.5z" />
<glyph unicode="A" horiz-adv-x="1503" d="M71 12l649 1371q6 14 18 14h27q12 0 18 -14l651 -1371q4 -12 -6 -12h-33q-11 0 -15 10l-144 306h-969l-144 -306q-4 -10 -12 -10h-35q-9 0 -5 12zM290 363h923l-461 979z" />
<glyph unicode="B" horiz-adv-x="1171" d="M95 12v1363q0 9 2.5 11t11.5 2h533q170 0 273.5 -97.5t103.5 -250.5q0 -128 -64 -217.5t-164 -119.5q137 -29 215.5 -124t78.5 -221q0 -158 -123.5 -258t-314.5 -100h-539q-13 0 -13 12zM148 49h503q107 0 190.5 34.5t127 89.5t63.5 121q10 32 10 65q0 35 -11 69 q-21 66 -65 121t-129 89.5t-193 34.5h-496v-624zM148 722h473q130 0 220 64q91 63 113 154q12 51 12 101q0 40 -8 81q-18 91 -105.5 154.5t-217.5 63.5h-487v-618z" />
<glyph unicode="C" horiz-adv-x="1379" d="M78 693q0 145 56.5 276.5t152 226t228 150t278.5 55.5q140 0 267 -49.5t224 -140.5q22 -21 14 -29l-19 -17q-11 -11 -22 1q-71 71 -188.5 127.5t-257.5 56.5q-135 0 -250 -41t-193 -108t-133.5 -153.5t-81 -176.5t-25.5 -178q0 -89 25.5 -179.5t81 -176.5t133.5 -152 t193 -106.5t250 -40.5q139 0 250.5 54t188.5 128l2 2q17 17 24 9l20 -19q9 -9 -13 -31q-204 -193 -490 -193q-195 0 -359.5 93.5t-260 255.5t-95.5 356z" />
<glyph unicode="D" horiz-adv-x="1393" d="M104 12v1363q0 9 2.5 11t11.5 2h477q142 0 260 -38.5t199 -103.5t137 -153t81.5 -185.5t25.5 -202.5t-25.5 -205t-81.5 -191t-136 -159.5t-196.5 -109t-256.5 -40.5h-486q-12 0 -12 12zM153 1340l3 -1291h458q153 0 277 56.5t201 150t118 209.5q40 113 40 234v6 q-1 98 -26 190t-77.5 173t-126 141.5t-178.5 95.5t-228 35h-461z" />
<glyph unicode="E" horiz-adv-x="1140" d="M130 12v1363q0 9 3 11t13 2h883q10 0 13 -2.5t3 -10.5v-21q0 -8 -3 -11t-13 -3h-847v-630h561q9 0 12 -3.5t3 -13.5v-16q0 -10 -3 -13t-12 -3h-561v-612h847q10 0 13 -3.5t3 -14.5v-15q0 -10 -2.5 -13t-13.5 -3h-887q-12 0 -12 12z" />
<glyph unicode="F" horiz-adv-x="1024" d="M87 14v1361q0 9 2.5 11t11.5 2h855q16 0 16 -13v-21q0 -14 -16 -14h-821v-630h535q9 0 11.5 -3t2.5 -14v-16q0 -10 -2.5 -13t-11.5 -3h-535v-649q0 -12 -12 -12h-22q-14 0 -14 14z" />
<glyph unicode="G" horiz-adv-x="1379" d="M78 693q0 145 56.5 276.5t152 226t228 150t278.5 55.5q140 0 267 -49.5t224 -140.5q22 -21 14 -29l-19 -17q-11 -11 -22 1q-71 71 -188.5 127.5t-257.5 56.5q-135 0 -250 -41t-193 -108t-133.5 -153.5t-81 -176.5t-25.5 -178q0 -89 25.5 -179.5t81 -176.5t133.5 -152 t193 -106.5t250 -40.5q246 0 437 181v208h-436q-14 0 -14 12v21q0 10 3 13t11 3h472q11 0 13.5 -3t2.5 -15v-246q3 -11 -17 -31q-204 -193 -490 -193q-195 0 -359.5 93.5t-260 255.5t-95.5 356z" />
<glyph unicode="H" horiz-adv-x="1393" d="M130 16v1359q0 9 2.5 11t13.5 2h19q9 0 11.5 -2t2.5 -11v-663h1036v663q0 9 2 11t10 2h19q11 0 14.5 -2t3.5 -11v-1363q0 -12 -13 -12h-22q-14 0 -14 14v649h-1036v-647q0 -9 -2.5 -12.5t-11.5 -3.5h-19q-10 0 -13 3.5t-3 12.5z" />
<glyph unicode="I" horiz-adv-x="329" d="M139 12q0 -12 12 -12h28q12 0 12 12v1363q0 8 -3 10.5t-11 2.5h-24q-9 0 -11.5 -2t-2.5 -11v-1363z" />
<glyph unicode="J" horiz-adv-x="454" d="M47 -514q-5 15 3 18q98 52 156 137t58 203v1503q0 18 -2 28q0 8 3 10.5t13 2.5h21q10 0 13.5 -3t3.5 -12v-1547q-5 -124 -69 -217t-167 -145q-18 -10 -23 1z" />
<glyph unicode="K" horiz-adv-x="1039" d="M95 16v1305v54q0 13 13 13h22q11 0 14.5 -3t3.5 -12v-663l718 670q2 1 7.5 4.5t9.5 3.5h44q8 0 8.5 -6t-6.5 -13l-712 -663l757 -687q7 -7 3.5 -13t-12.5 -6h-31q-8 0 -21 10l-765 693v-687q0 -16 -13 -16h-26q-14 0 -14 16z" />
<glyph unicode="L" horiz-adv-x="1044" d="M113 16v1359q0 9 2.5 11t12.5 2h23q9 0 11.5 -2t2.5 -11v-1326h772q12 0 12 -16v-19q0 -9 -2 -11.5t-10 -2.5h-809q-15 0 -15 16z" />
<glyph unicode="M" horiz-adv-x="1858" d="M130 16v1359q0 13 11 13h31q10 0 15 -8l742 -1297l741 1297q5 8 17 8h31q11 0 11 -17v-1355q0 -16 -16 -16h-23q-9 0 -11 3t-2 13v1274l-728 -1266q-11 -15 -19 -15h-3q-11 0 -19 15l-726 1266v-1274q0 -10 -2.5 -13t-12.5 -3h-19q-18 0 -18 16z" />
<glyph unicode="N" horiz-adv-x="1435" d="M130 12v1364q0 12 11 12h24q11 0 21 -13l1071 -1297v1302q0 5 1.5 6.5t6.5 1.5h31q9 0 9 -8v-1371q0 -9 -10 -9h-21q-10 0 -24 17l-1071 1295v-1300q0 -12 -12 -12h-25q-12 0 -12 12z" />
<glyph unicode="O" horiz-adv-x="1638" d="M104 694q0 -195 96 -357.5t260.5 -255.5t360.5 -93q194 0 358 93t259.5 255.5t95.5 357.5q0 194 -95.5 356.5t-259.5 256.5t-358 94q-196 0 -360.5 -94t-260.5 -256.5t-96 -356.5zM154 694q0 181 89.5 332t243 237.5t334.5 86.5q180 0 332 -86.5t241.5 -237.5t89.5 -332 t-89.5 -332t-241.5 -237.5t-332 -86.5q-181 0 -334.5 86.5t-243 237.5t-89.5 332z" />
<glyph unicode="P" horiz-adv-x="1150" d="M121 16v1359q0 9 2.5 11t13.5 2h488q121 0 215.5 -40.5t149 -106.5t82 -141t27.5 -154q0 -80 -27.5 -156t-82 -142.5t-149 -107t-215.5 -40.5h-451v-484q0 -9 -2.5 -12.5t-11.5 -3.5h-23q-10 0 -13 3.5t-3 12.5zM174 548h461q98 0 178.5 34t130.5 91t77 127t27 146 t-27 146t-77.5 126t-130.5 89t-178 33h-461v-792z" />
<glyph unicode="Q" horiz-adv-x="1612" d="M104 694q0 194 96 356.5t260.5 256.5t360.5 94q194 0 358 -94t259.5 -256.5t95.5 -356.5q0 -167 -70.5 -310.5t-194.5 -241.5l64 -102q66 -105 86 -127q4 -4 8 -7q21 -21 0 -33l-19 -12q-15 -9 -26 9l-155 241q-181 -123 -406 -123q-196 0 -360.5 93t-260.5 255.5 t-96 357.5zM154 694q0 -181 89.5 -332t243 -237.5t334.5 -86.5q22 0 64 4q-61 26 -92 73t-31 100q0 85 56 140t138 55q137 0 221 -127q32 -46 66 -97q113 92 177 223.5t64 284.5q0 181 -89.5 332t-241.5 237.5t-332 86.5q-181 0 -334.5 -86.5t-243 -237.5t-89.5 -332z M805 210q0 -49 32.5 -92t97.5 -69q146 24 264 105l-64 103q-67 104 -186 104q-59 0 -101.5 -43.5t-42.5 -107.5z" />
<glyph unicode="R" horiz-adv-x="1155" d="M104 16v1359q0 9 2.5 11t13.5 2h477q127 0 225 -40.5t153.5 -107t82.5 -141.5t27 -155q0 -57 -13 -112t-43.5 -109t-74.5 -97.5t-111 -75t-149 -43.5l368 -495q4 -5 2 -8.5t-7 -3.5h-35q-8 0 -19 14l-364 488l-42 -2h-441v-484q0 -10 -3 -13t-14 -3h-19q-10 0 -13 3.5 t-3 12.5zM154 1340l2 -792h451q105 0 189 34t135 91t78 127t27 146t-27 145.5t-78.5 125.5t-135.5 89.5t-188 33.5h-453z" />
<glyph unicode="S" horiz-adv-x="1074" d="M85 226l12 14q12 12 26 -2l15 -14q14 -15 32.5 -31.5t46.5 -39t63 -42t75 -37t88.5 -28t98.5 -10.5q75 0 137 14t105 39t75.5 56.5t51 68t27 72t8.5 70.5q0 33 -8.5 62.5t-20.5 53.5t-35 46.5t-44 39t-55 34.5t-59 29.5t-66.5 27t-67.5 24t-71 23.5l-69 23 q-59 20 -104 39.5t-94 49.5t-80.5 64t-52 81.5t-20.5 103.5q0 68 25.5 128t76 109t136 78t196.5 29q34 0 68 -4.5t64.5 -13t57.5 -17.5t54 -23t45.5 -24t41 -25t32 -22t26.5 -20l17 -13q13 -12 5 -24l-12 -17q-7 -9 -17 -2q-1 1 -15 12.5t-31.5 24t-44 30t-58 32.5t-67.5 28 t-79.5 21t-86.5 8q-181 0 -282.5 -82.5t-101.5 -212.5q0 -45 15 -83.5t43 -67.5t65.5 -54t86.5 -46.5t101.5 -40.5t114.5 -40l45 -15q40 -14 69.5 -25t71.5 -30t72 -38t63 -47t53 -58t33.5 -70.5t13.5 -85.5q0 -155 -125 -260.5t-329 -105.5q-245 0 -447 205l-6 6 q-15 15 -4 25z" />
<glyph unicode="T" horiz-adv-x="1221" d="M78 1354v19q0 10 3 12.5t13 2.5h1036q9 0 11.5 -2.5t2.5 -12.5v-19q0 -14 -14 -14h-493v-1324q0 -16 -12 -16h-21q-11 0 -14 3.5t-3 13.5v1323h-493q-16 0 -16 14z" />
<glyph unicode="U" horiz-adv-x="1331" d="M121 517q1 -101 38.5 -195.5t105 -169t170.5 -119.5t226 -45t228 45t174 119.5t107.5 169t39.5 195.5v858q0 9 -2 11t-10 2h-25q-9 0 -12 -2t-3 -11v-830q0 -108 -32.5 -196.5t-84.5 -144.5t-119 -95t-132.5 -55t-128.5 -16q-62 0 -126 16t-130 55t-116.5 95t-82.5 144.5 t-32 196.5v830q0 9 -2.5 11t-13.5 2h-21q-11 0 -13.5 -2t-2.5 -11v-858z" />
<glyph unicode="V" horiz-adv-x="1426" d="M44 1382q2 6 8 6h31q7 0 10 -4t9 -18l610 -1310l611 1310q13 21 19 22h33q13 0 3 -24l-642 -1359q-5 -12 -17 -12h-14q-11 0 -16 12l-642 1361q-5 10 -3 16z" />
<glyph unicode="W" horiz-adv-x="1949" d="M44 1382q2 6 8 6h33q7 0 10 -4t9 -18l609 -1310l236 506l-380 806q-4 8 -3.5 13.5t2.5 8t5 2.5h33q8 0 11.5 -4t9.5 -19l347 -749l347 746q6 13 10 17.5t11 4.5h34q3 0 5 -2.5t1.5 -8.5t-4.5 -13l-377 -802l233 -503l609 1310q1 1 2 4q10 18 17 19h35q13 0 3 -24 l-640 -1359q-5 -12 -17 -12h-18q-10 0 -15 12l-235 498l-236 -502q-9 -12 -17 -12h-17q-13 0 -18 12l-640 1361q-5 10 -3 16z" />
<glyph unicode="X" horiz-adv-x="1209" d="M52 1382q-2 6 4 6h46q6 0 9 -6l493 -650l493 650q4 6 10 6h45q6 0 4 -6l-523 -689l514 -677q6 -9 7 -12t-3 -4h-45q-11 0 -20 16l-482 637l-483 -637q-9 -16 -19 -16h-45q-5 0 1 11q2 3 3 5l513 677z" />
<glyph unicode="Y" horiz-adv-x="1273" d="M26 1382q-4 6 4 6h41q9 0 11 -6l553 -750l556 750q4 6 10 6h42q3 0 4 -2t-1 -4l-585 -795v-571q0 -9 -2.5 -12.5t-11.5 -3.5h-20q-16 0 -16 17v570z" />
<glyph unicode="Z" horiz-adv-x="1095" d="M61 16v24l897 1300h-880q-8 0 -11 2.5t-3 12.5v20q0 9 2.5 11t11.5 2h932q8 0 11 -2.5t3 -12.5v-24l-897 -1300h894q8 0 10.5 -2.5t2.5 -11.5v-19q0 -16 -17 -16h-941q-10 0 -12.5 2.5t-2.5 13.5z" />
<glyph unicode="[" horiz-adv-x="621" d="M69 -272v1857q0 8 11 8h462q10 0 10 -8v-30q0 -9 -9 -9h-427v-1780h426q6 0 8 -2t2 -7v-29q0 -9 -10 -9h-462q-11 0 -11 9z" />
<glyph unicode="\" horiz-adv-x="572" d="M61 1371q-4 17 14 17h17q12 0 19 -17l401 -1352q3 -19 -14 -19h-16q-10 0 -13.5 4t-5.5 15z" />
<glyph unicode="]" horiz-adv-x="621" d="M69 -243q0 9 11 9h425v1780h-427q-9 0 -9 9v30q0 8 11 8h462q10 0 10 -8v-1857q0 -9 -10 -9h-462q-11 0 -11 9v29z" />
<glyph unicode="^" horiz-adv-x="1050" d="M45 786q-5 -8 5 -8h35q7 0 9 3l432 646l427 -641q5 -8 15 -8h32q12 0 5 10l-455 686q-6 10 -12 10h-24q-5 0 -11 -10z" />
<glyph unicode="_" horiz-adv-x="952" d="M69 -14q0 9 3.5 11.5t12.5 2.5h786q8 0 10 -2.5t2 -11.5v-17q0 -14 -12 -14h-786q-16 0 -16 14v17z" />
<glyph unicode="`" horiz-adv-x="546" d="M71 1387q-3 -8 7 -14l373 -260q9 -4 14 5l14 21q5 8 -2 12l-373 264q-11 8 -15 -2z" />
<glyph unicode="a" d="M78 208q0 -98 72 -157.5t197 -59.5q104 0 189 28.5t191 86.5q6 -106 11 -106h29q15 0 12 26q-12 137 -12 299q0 102 5 215q1 13 0 25q0 135 -70 217q-77 88 -232 88q-95 0 -188.5 -26t-165.5 -65q-15 -8 -7 -22l9 -16q4 -11 23 -3q164 86 333 86q124 0 190 -74 q61 -68 61 -194v-20q-141 -24 -234.5 -44t-178.5 -47.5t-132.5 -59.5t-74.5 -76t-27 -101zM127 210q0 40 15 72t57.5 58t73 42.5t109 36.5t115.5 28t139 28q59 12 89 18q-4 -103 -4.5 -187t4.5 -148q-200 -123 -371 -123q-98 0 -162.5 43t-64.5 132z" />
<glyph unicode="b" horiz-adv-x="961" d="M104 1373q0 15 11 15h24q14 0 14 -17v-606q140 103 317 103q78 0 151 -31t129.5 -86t90.5 -137.5t34 -179.5q0 -123 -46.5 -223.5t-137.5 -160.5t-212 -60q-89 0 -177 33.5t-149 87.5v-90q0 -21 -21 -21h-17q-9 0 -9 10v1283q0 14 -1 40.5t-1 39.5zM153 165 q153 -130 317 -130q158 0 257 113t99 286q0 93 -32 169t-85 123t-117 72t-132 25q-164 0 -307 -111v-547z" />
<glyph unicode="c" horiz-adv-x="923" d="M69 429q0 188 126 315t308 127q101 0 187 -45t138 -114q8 -17 0 -23l-17 -14q-8 -6 -20 7q-49 63 -121.5 103.5t-157.5 40.5q-82 0 -149.5 -25t-112 -65.5t-75 -93.5t-44 -106.5t-13.5 -106.5t13.5 -106t44.5 -106t75.5 -93.5t113 -65.5t150.5 -25q158 0 297 172 q9 11 21 2l14 -14q9 -9 2 -19q-151 -186 -346 -186q-182 0 -308 126.5t-126 314.5z" />
<glyph unicode="d" horiz-adv-x="947" d="M69 432q0 128 59.5 229t152.5 153t198 52q179 0 318 -102v529q0 14 -1 40.5t-1 39.5q0 15 10 15h25q13 0 13 -17v-1361q0 -10 -8 -10h-18q-20 0 -20 21v88q-61 -54 -149.5 -87.5t-177.5 -33.5q-181 0 -291 127.5t-110 316.5zM118 432q0 -173 101.5 -286t259.5 -113 q165 0 318 130v547q-143 111 -308 111q-68 0 -133 -25t-118.5 -71.5t-86.5 -123t-33 -169.5z" />
<glyph unicode="e" horiz-adv-x="985" d="M69 430q0 -188 126.5 -314t309.5 -126q202 0 352 187q8 10 0 21l-10 9q-11 11 -21 -2q-137 -170 -319 -170q-89 0 -163 32.5t-120 85t-72.5 114t-30.5 124.5h745q18 0 26 1.5t16 12t8 32.5q0 180 -122 307t-301 127t-301.5 -128t-122.5 -313zM118 434q0 64 22.5 130.5 t65.5 126t118 97.5t169 38q76 0 140 -26t106 -67.5t72 -94.5t43 -104.5t14 -99.5h-750z" />
<glyph unicode="f" horiz-adv-x="758" d="M61 826v17q0 16 15 16h170v182q0 175 97.5 265.5t255.5 90.5q114 0 208 -66q17 -9 10 -19l-10 -19q-7 -12 -19 -3q-85 62 -189 62q-34 0 -68.5 -5.5t-79 -25.5t-77.5 -52t-56 -91t-23 -137v-182h314q7 0 9 -2.5t2 -9.5v-21q0 -7 -2 -9.5t-9 -2.5h-314v-797q0 -7 -0.5 -10 t-3 -5t-8.5 -2h-23q-14 0 -14 19v795h-173q-7 0 -9.5 2t-2.5 10z" />
<glyph unicode="g" horiz-adv-x="1069" d="M62 95q-1 7 -1 15q0 58 52 95q35 25 77 25q27 0 56 -10q-41 37 -72 102.5t-32 144.5v20q0 156 104 265q111 116 276 116q53 0 148 -8q63 -5 145 -5q41 0 86 1q10 0 10 -7v-37q-37 -5 -95 -5q-39 0 -87 2q52 -30 89 -69t56 -73t30 -77t13 -68.5t3 -61.5q-1 -165 -112 -263 q-109 -96 -270 -96h-7q-131 2 -245 80q-34 11 -65 11q-33 0 -62 -13q-50 -23 -50 -69v-9q6 -56 72.5 -85.5t191.5 -43.5q274 -32 359 -45q46 -6 80.5 -13.5t76 -24t67.5 -39.5t42 -62q11 -29 11 -64q0 -11 -1 -23q-8 -80 -53 -142.5t-115.5 -99t-153.5 -55t-174 -18.5 q-185 0 -298 80q-106 74 -106 214v18q5 90 57 151t132 89q-100 10 -164.5 49.5t-70.5 107.5zM156 -305v-16q0 -57 26 -103q30 -53 83 -83t117.5 -45.5t136.5 -15.5q116 0 214.5 33t160 95t66.5 140v12q0 65 -40 102q-43 39 -168 61q-55 9 -356 45q-8 1 -16 1q-39 0 -84 -19 q-53 -24 -95.5 -79.5t-44.5 -127.5zM187 476q-1 -133 101 -229.5t241 -98.5h4q159 0 247 88q89 90 91 240q-1 153 -98.5 249t-239.5 96q-147 0 -247 -97.5t-99 -247.5z" />
<glyph unicode="h" horiz-adv-x="978" d="M104 1373q0 15 11 15h24q14 0 14 -17v-678q187 178 389 178q70 0 131 -19t110.5 -56t78 -100t28.5 -144v-398q0 -94 2 -137q0 -17 -12 -17h-21q-16 0 -16 19v517q0 128 -74 208t-222 80q-118 0 -211 -50.5t-183 -138.5v-619l-2 -9q0 -7 -7 -7h-29q-7 0 -7 7l-2 9v1282 q0 28 -1 50.5t-1 24.5z" />
<glyph unicode="i" horiz-adv-x="310" d="M121 1347q0 14 9.5 23.5t25.5 9.5q13 0 23 -9.5t10 -23.5t-10 -24.5t-23 -10.5q-15 0 -25 10t-10 25zM132 16q0 -16 12 -16h26q11 0 11 14v831q0 9 -3 11.5t-11 2.5h-21q-9 0 -11.5 -2.5t-2.5 -11.5v-829z" />
<glyph unicode="j" horiz-adv-x="298" d="M9 -342.5q-1 -2.5 1 -9.5l11 -26q3 -7 14 -4q33 12 56.5 25t37.5 30.5t22 30.5t11.5 38t4 38.5t0.5 45.5l-2 1017q0 9 -2.5 12.5t-11.5 3.5h-21q-14 0 -14 -16v-1017q0 -82 -16 -110t-84 -54q-6 -2 -7 -4.5zM109 1347q0 14 9.5 23.5t25.5 9.5q13 0 23 -9.5t10 -23.5 t-10 -24.5t-23 -10.5q-15 0 -25 10t-10 25z" />
<glyph unicode="k" horiz-adv-x="810" d="M104 1373q0 15 11 15h24q14 0 14 -17v-928l467 409q10 7 17 7h43q15 0 6 -12l-473 -411l523 -424q12 -12 -4 -12h-45q-12 0 -21 9l-513 421v-414q0 -9 -2.5 -12.5t-11.5 -3.5h-19q-9 0 -11.5 3.5t-2.5 12.5v1282q0 28 -1 50.5t-1 24.5z" />
<glyph unicode="l" horiz-adv-x="308" d="M130 17q0 -17 16 -17h19q14 0 14 16v1359q0 8 -3 10.5t-11 2.5h-21q-9 0 -11.5 -2t-2.5 -11v-1358z" />
<glyph unicode="m" horiz-adv-x="1723" d="M113 16v831q0 12 10 12h25q13 0 13 -14v-152q183 178 387 178q114 0 204 -50.5t126 -147.5q37 37 72 66t87.5 62t116.5 51.5t132 18.5q70 0 131.5 -19.5t111 -57.5t78 -101t28.5 -143v-396q0 -23 1 -69.5t1 -67.5q0 -7 -0.5 -10t-3 -5t-8.5 -2h-20q-11 0 -14 4.5t-3 14.5 v516q0 125 -75.5 207t-221.5 82q-119 0 -213.5 -52.5t-185.5 -143.5q7 -56 7 -78v-396v-137q0 -7 -0.5 -10t-2.5 -5t-7 -2h-21q-16 0 -16 19v516q0 125 -76 207t-222 82q-118 0 -211 -51t-182 -140v-617q0 -16 -10 -16h-28q-10 0 -10 16z" />
<glyph unicode="n" horiz-adv-x="977" d="M104 16v831q0 12 11 12h24q14 0 14 -14v-152q183 178 387 178q70 0 131.5 -19t111 -56t78.5 -100t29 -144v-398v-137q0 -7 -0.5 -10t-2.5 -5t-7 -2h-21q-16 0 -16 19v517q0 128 -74.5 208t-223.5 80q-118 0 -210 -50.5t-182 -138.5v-619q0 -16 -11 -16h-27q-11 0 -11 16z " />
<glyph unicode="o" horiz-adv-x="1027" d="M69 429q0 -183 131 -311t315 -128q119 0 221 58t162 159.5t60 221.5q0 187 -130 315.5t-313 128.5q-121 0 -223.5 -58t-162.5 -160t-60 -226zM120 429q0 104 51 195t142.5 146.5t201.5 55.5q164 0 278.5 -118.5t114.5 -278.5q0 -156 -115 -274.5t-278 -118.5 q-110 0 -201.5 56t-142.5 146t-51 191z" />
<glyph unicode="p" horiz-adv-x="961" d="M104 843q0 16 11 16h24q14 0 14 -17v-77q140 103 317 103q78 0 151 -31t129.5 -86t90.5 -137.5t34 -179.5q0 -123 -46.5 -223.5t-137.5 -160.5t-212 -60q-89 0 -177 33.5t-149 87.5v-600q0 -21 -21 -21h-17q-9 0 -9 10v1264q0 14 -1 40t-1 39zM153 165q153 -130 317 -130 q158 0 257 113t99 286q0 93 -32 169t-85 123t-117 72t-132 25q-164 0 -307 -111v-547z" />
<glyph unicode="q" horiz-adv-x="944" d="M87 432q0 97 34 179.5t90 137.5t129 86t151 31q179 0 318 -102v74q0 21 19 21h19q9 0 9 -10v-1264q0 -14 0.5 -40.5t0.5 -39.5q0 -15 -10 -15h-24q-14 0 -14 17v602q-61 -54 -149.5 -87.5t-177.5 -33.5q-91 0 -166 35t-125 95t-77 141t-27 173zM135 432q0 -173 99 -286 t257 -113q165 0 318 130v547q-143 111 -307 111q-68 0 -132.5 -25t-117.5 -72t-85 -123t-32 -169z" />
<glyph unicode="r" horiz-adv-x="671" d="M113 16v831q0 12 8 12h27q13 0 13 -14v-104q114 125 264 125q101 0 203 -68q11 -8 7 -14l-19 -26q-4 -6 -12 -1q-56 34 -97 49t-94 15q-132 0 -252 -142v-663q0 -16 -10 -16h-30q-8 0 -8 16z" />
<glyph unicode="s" horiz-adv-x="787" d="M82 108l17 20q5 8 16 2q11 -11 40 -29.5t97 -42t139 -23.5q142 0 205.5 51t63.5 122q0 35 -17 64t-41 48.5t-62.5 37t-69.5 27.5t-74 21q-101 26 -164.5 55t-103 75.5t-39.5 109.5q0 98 78 161.5t218 63.5q79 0 157 -30.5t126 -62.5q10 -6 4 -14l-14 -21q-5 -8 -19 -2 q-85 46 -137 64.5t-117 18.5q-62 0 -109.5 -13.5t-73 -32.5t-41 -45.5t-20 -46.5t-4.5 -40q0 -34 17 -62.5t39.5 -47t62 -36.5t67.5 -27t73 -22q55 -15 92.5 -27t83 -33t73 -44t46.5 -57t19 -75q0 -109 -84.5 -168t-234.5 -59q-94 0 -178 34t-128 70q-11 8 -3 16z" />
<glyph unicode="t" horiz-adv-x="623" d="M69 823v19q0 9 13 12q33 1 48 2.5t31.5 12t22 23t11 46.5t6.5 71t2 107q4 14 9 14h26q7 0 7 -12v-259h260q12 0 12 -12v-24q0 -11 -12 -11h-227q-20 0 -35 5v-489q0 -51 0.5 -75t2.5 -62.5t7 -56t14.5 -40.5t23.5 -33t35 -17.5t49 -7.5q71 0 140 25q27 10 30 1l7 -17 q6 -12 -17 -21q-85 -33 -158 -33q-51 0 -85 15t-53.5 38.5t-29.5 68.5t-12.5 86.5t-2.5 111.5v501h-112q-13 0 -13 11z" />
<glyph unicode="u" horiz-adv-x="966" d="M87 309v394v137q0 8 0.5 11.5t2.5 5.5t7 2h21q16 0 16 -21v-513q0 -129 74.5 -210.5t223.5 -81.5q118 0 210 51.5t182 141.5v616q0 17 11 17h26q10 0 10 -17v-832q0 -10 -8 -10h-28q-4 0 -7.5 4t-3.5 8v155q-184 -179 -387 -179q-70 0 -131.5 19.5t-111 57.5t-78.5 101 t-29 143z" />
<glyph unicode="v" horiz-adv-x="987" d="M45 854l429 -854q4 -10 15 -10h14q10 0 14 10l425 854q2 2 0.5 3.5t-3 1.5h-4.5h-36q-10 0 -12 -5l-391 -786l-395 786q-2 5 -11 5h-40q-4 0 -5 -0.5t0 -4.5z" />
<glyph unicode="w" horiz-adv-x="1348" d="M44 856.5q0 1.5 1 2t4 0.5h43q4 0 7 -7l267 -781l280 772q5 9 12 9h33q8 0 12 -9l283 -772l264 781q0 1 1 3q1 4 7 4h44q4 0 1 -7l-295 -842q-3 -10 -15 -10h-12q-13 0 -16 10l-290 776l-290 -776q-3 -10 -15 -10h-12q-13 0 -16 10l-297 842q-1 3 -1 4.5z" />
<glyph unicode="x" horiz-adv-x="886" d="M89 10l321 419l-321 420q-6 10 6 10h35q11 0 16 -9l297 -388l298 388q5 9 12 9h40q5 0 6.5 -2.5t-2.5 -7.5l-323 -420l323 -419q4 -5 2.5 -7.5t-6.5 -2.5h-40q-7 0 -12 9l-298 387l-297 -387q-5 -9 -16 -9h-35q-12 0 -6 10z" />
<glyph unicode="y" horiz-adv-x="918" d="M49 -524q-6 9 3 22q108 122 221.5 284t169.5 294l-381 773q-4 10 4 10h43q5 0 9 -7l354 -718l344 715q7 10 14 10h38q12 0 5 -12l-373 -772q-162 -332 -417 -615q-8 -10 -15 0z" />
<glyph unicode="z" horiz-adv-x="808" d="M88.5 4q-1.5 4 0.5 8l553 799h-527q-5 0 -7 1.5t-2 8.5v28q0 7 2 8.5t7 1.5h600q7 0 7 -9v-5l-23 -33l-529 -763h531q11 0 11 -11v-28q0 -10 -11 -10h-606q-5 0 -6.5 4z" />
<glyph unicode="{" horiz-adv-x="800" d="M69 621q0 -10 13 -10q2 -1 18 -6.5t22 -8.5t21.5 -9.5t23.5 -11.5t21 -13t19.5 -16.5t14 -19t11 -22.5t3.5 -25v-226q0 -119 30.5 -215t79 -157.5t114 -103t131 -58.5t133.5 -18q7 0 7 7v32q0 8 -7 8q-108 1 -193.5 41t-139 108.5t-81 155.5t-27.5 185v208q0 41 -13.5 76 t-33 56t-43.5 35.5t-43.5 20.5t-33.5 6v21q18 0 44 11t54.5 32.5t48.5 62.5t20 92v241q0 94 27.5 176t81 144.5t139 99t193.5 37.5q7 0 7 9v27q0 6 -1.5 7.5t-5.5 1.5q-69 0 -133 -13.5t-130.5 -50t-114.5 -92.5t-79 -149t-31 -212v-257q0 -29 -21 -56t-49 -43t-51.5 -25.5 t-32.5 -9.5q-13 0 -13 -10v-63z" />
<glyph unicode="|" horiz-adv-x="395" d="M174 -330v2074q0 9 2 11.5t11 2.5h21q8 0 11 -2.5t3 -11.5v-2074q0 -15 -14 -15h-21q-9 0 -11 3t-2 12z" />
<glyph unicode="}" horiz-adv-x="800" d="M69 -260v-32q0 -7 7 -7q68 1 133.5 18t131 58.5t114 103t79 157.5t30.5 215v226q0 15 5 28.5t11.5 23.5t20 21t21.5 16.5t26.5 14t24.5 11t25.5 10t20.5 7.5q12 0 12 10v63q0 10 -12 10q-14 0 -48.5 14.5t-70.5 48t-36 71.5v257q0 119 -31 212t-79 149t-114.5 92.5 t-130.5 50t-133 13.5q-7 0 -7 -9v-27q0 -9 7 -9q108 -1 193.5 -37.5t139 -99t81 -144.5t27.5 -176v-241q0 -51 20 -92t48.5 -62.5t54.5 -32.5t44 -11v-21q-14 0 -33.5 -6t-43.5 -20.5t-43.5 -35.5t-33 -56t-13.5 -76v-208q0 -98 -27.5 -185t-81 -155.5t-139 -108.5 t-193.5 -41q-7 0 -7 -8z" />
<glyph unicode="~" horiz-adv-x="857" d="M36 495q-2 -3 2 -6q2 -2 21 -22q4 -4 10 2q1 1 8.5 10t11 12.5t12.5 13t14.5 14.5t16.5 13.5t19.5 13.5t20.5 11t23.5 9t26 5.5t28.5 2.5q26 0 49.5 -6.5t43.5 -20t32.5 -23.5t29 -27t20.5 -20q2 -1 17 -15.5t22 -20.5t25.5 -18t34 -18t39.5 -11t50 -5q36 0 70.5 12 t58.5 29t42.5 34t27.5 29l9 12q3 3 0 5l-21 19q-4 4 -7 0l-1 -1q-8 -11 -19 -22t-35 -31.5t-57 -33t-68 -12.5q-28 0 -52 5.5t-45 19.5t-31 21.5t-29.5 27l-21.5 21.5q-26 26 -46.5 42.5t-58.5 32t-79 15.5q-36 0 -71.5 -12.5t-60 -30t-44 -34.5t-28.5 -29z" />
<glyph unicode="&#xa1;" horiz-adv-x="289" d="M104 824q0 17 11.5 28.5t28.5 11.5t29.5 -11.5t12.5 -28.5t-12.5 -28.5t-29.5 -11.5t-28.5 11.5t-11.5 28.5zM120 -500l1 807q0 7 7 7h33q2 0 7 -7l2 -807v-17q0 -7 -9 -7h-33q-8 0 -8 7v17z" />
<glyph unicode="&#xa2;" horiz-adv-x="1037" d="M87 434q0 124 60 229t163.5 166t225.5 61q17 0 78 -7l35 101q3 8 11 5l26 -10q6 -4 3 -11l-33 -95q136 -41 217 -151q8 -14 -2 -19l-17 -16q-9 -6 -19 7q-73 99 -193 137l-267 -775q77 -33 172 -33q91 0 171.5 47.5t142.5 132.5q11 11 17 2l16 -14q8 -8 0 -19 q-68 -86 -160.5 -140.5t-197.5 -54.5q-92 0 -175 37l-49 -141q-4 -7 -8 -5l-28 12q-7 3 -5 9l50 144q-107 59 -170.5 165.5t-63.5 235.5zM132 434q0 -95 51.5 -197.5t151.5 -160.5l264 764q-27 5 -52 5q-86 0 -158 -27.5t-118.5 -71t-78.5 -99t-46 -109.5t-14 -104z" />
<glyph unicode="&#xa3;" horiz-adv-x="1039" d="M87 594v24q0 12 10 12h212q-11 38 -31 76l-44 84q-29 52 -42 78.5t-25 67t-13 79.5q-2 176 121 287t301 111q218 0 365 -160q9 -9 3 -14l-21 -19q-7 -7 -12 -5q-1 1 -19.5 20t-44.5 39t-63.5 42t-91.5 36t-114 14q-163 0 -267 -103t-104 -237q0 -32 4.5 -59.5t17.5 -58 t20 -46t29 -53t29 -49.5q36 -59 54 -130h389q8 0 8 -12v-24q0 -11 -8 -11h-379q9 -59 9 -101q0 -119 -60 -246t-115 -189h685q9 0 9 -11v-27q0 -9 -9 -9h-734q-10 0 -10 9v29q72 100 127 226.5t55 224.5q0 40 -9 94h-222q-10 0 -10 11z" />
<glyph unicode="&#xa4;" horiz-adv-x="1083" d="M71 358q-4 4 2 10l128 128q-114 132 -114 302q0 177 118 306l-129 130q-6 6 -1 10l20 21q6 4 11 -1l128 -129q131 120 309 120q173 0 306 -118l125 127q6 6 10 1l21 -21q7 -4 -2 -10l-125 -127q122 -133 122 -309q0 -172 -117 -303l127 -127q6 -6 2 -10l-21 -21 q-5 -8 -10 1l-125 127q-133 -123 -313 -123q-181 0 -312 125l-129 -129q-4 -7 -10 -1zM130 802q0 -174 119.5 -295.5t293.5 -121.5q171 0 293 122t122 295q0 172 -121.5 290.5t-293.5 118.5q-175 0 -294 -118t-119 -291z" />
<glyph unicode="&#xa5;" horiz-adv-x="1254" d="M17 1382q-4 6 4 6h41q9 0 11 -6l554 -750l553 750q4 6 11 6h41q3 0 4.5 -2t-0.5 -4l-585 -795v-72h279q16 0 16 -13v-21q0 -12 -16 -12h-279v-177h279q16 0 16 -14v-21q0 -12 -16 -12h-279v-229q0 -16 -12 -16h-21q-17 0 -17 17v228h-276q-14 0 -14 12v21q0 14 14 14h276 v177h-276q-14 0 -14 12v21q0 13 14 13h276v72z" />
<glyph unicode="&#xa6;" horiz-adv-x="395" d="M174 -330v832q0 9 2 11t11 2h21q6 0 8.5 -0.5t4 -3.5t1.5 -9v-832q0 -15 -14 -15h-21q-9 0 -11 3t-2 12zM174 916v832q0 9 2 11.5t11 2.5h21q8 0 11 -2.5t3 -11.5v-832q0 -15 -14 -15h-21q-9 0 -11 3t-2 12z" />
<glyph unicode="&#xa7;" horiz-adv-x="1089" d="M83 -293l16 17q7 7 16 4q25 -28 58.5 -56.5t89 -66t129.5 -61t150 -23.5q79 0 153 23.5t132 66.5t93 109t35 145q0 47 -18.5 88t-46 70t-71.5 55t-83 42.5t-92.5 31.5t-88.5 22.5t-83 16.5q-62 12 -112 26.5t-101 41t-85 61.5t-55.5 87.5t-21.5 118.5q0 88 32.5 150 t111.5 112q-69 38 -106.5 95.5t-37.5 147.5q0 69 29 135.5t83 122.5t142 90t196 34q194 0 398 -163q6 -4 8 -6q11 -9 3 -19l-15 -20q-6 -8 -16 -3q-1 1 -2 1q-34 29 -63 50t-81 50.5t-114.5 46t-128.5 16.5q-164 0 -277 -96.5t-113 -238.5q0 -39 10.5 -71.5t25 -56t42 -44.5 t49.5 -34t61 -27t62.5 -20.5t67.5 -18.5t64 -18q184 -52 260 -88q214 -102 215 -282q0 -173 -125 -272q125 -93 125 -234q0 -156 -129.5 -274.5t-323.5 -118.5q-256 0 -461 208l-6 6q-7 8 0 21zM146 526q0 -52 15.5 -94.5t47 -72t64 -50.5t82.5 -36.5t85 -23.5t88 -18 q191 -37 305 -103q122 90 122 243q0 33 -9.5 63.5t-23 54t-39.5 46.5t-47 38.5t-58 32.5t-60 27t-66 23t-62 18.5t-63 17t-55 14.5q-120 33 -173 56q-153 -65 -153 -236z" />
<glyph unicode="&#xa8;" horiz-adv-x="735" d="M82 1342q0 16 11 27t27 11q18 0 29 -11t11 -27q0 -17 -11 -28.5t-29 -11.5q-16 0 -27 11.5t-11 28.5zM578 1342q0 16 11 27t27 11q18 0 29 -11t11 -27q0 -17 -11 -28.5t-29 -11.5q-16 0 -27 11.5t-11 28.5z" />
<glyph unicode="&#xa9;" horiz-adv-x="1568" d="M69 699q0 146 56.5 278.5t152 228.5t228 152.5t278.5 56.5t278.5 -56.5t228.5 -152.5t152.5 -228.5t56.5 -278.5t-56.5 -278.5t-152.5 -228t-228.5 -152t-278.5 -56.5t-278.5 56.5t-228 152t-152 228t-56.5 278.5zM127 701q0 -179 88.5 -330.5t240 -240t330.5 -88.5 q178 0 329 88.5t239 240.5t88 330q0 134 -52 255.5t-140 209t-209.5 139.5t-254.5 52q-179 0 -330.5 -87.5t-240 -239t-88.5 -329.5zM465 710q0 136 96.5 232t231.5 96q74 0 139 -34.5t104 -87.5q4 -10 0 -13l-28 -23q-8 -2 -8.5 -2t-5.5 7q-30 44 -81.5 71.5t-112.5 27.5 q-73 0 -129.5 -27.5t-87.5 -70.5t-46.5 -88t-15.5 -88q0 -34 9 -70.5t30.5 -74t52.5 -67t79.5 -48t107.5 -18.5q124 0 214 118q5 5 12 2l26 -19q5 -3 0 -16q-50 -62 -116.5 -101t-142.5 -39q-135 0 -231.5 97t-96.5 236z" />
<glyph unicode="&#xaa;" d="M78 208q0 -98 72 -157.5t197 -59.5q104 0 189 28.5t191 86.5q6 -106 11 -106h29q15 0 12 26q-19 224 -7 514q7 153 -70 241.5t-232 88.5q-95 0 -188.5 -26t-165.5 -65q-15 -8 -7 -22l9 -16q4 -11 23 -3q164 86 333 86q124 0 190 -73.5t61 -214.5q-141 -24 -234.5 -44 t-178.5 -47.5t-132.5 -59.5t-74.5 -76t-27 -101zM127 210q0 40 15 72t57.5 58t73 42.5t109 36.5t115.5 28t139 28q59 12 89 18q-9 -206 0 -335q-200 -123 -371 -123q-98 0 -162.5 43t-64.5 132z" />
<glyph unicode="&#xab;" horiz-adv-x="796" d="M80 399q0 -17 7 -26l284 -352q5 -5 9 -5h47q11 0 3 8l-302 377l302 364q2 2 1.5 5.5t-2.5 3.5h-44q-7 0 -12 -5l-286 -346q-7 -7 -7 -24zM356 399q0 -17 7 -26l284 -350q5 -7 9 -7h47q11 0 3 8l-303 377l303 364q2 2 1 5.5t-4 3.5h-42q-9 0 -12 -3l-286 -348 q-7 -7 -7 -24z" />
<glyph unicode="&#xac;" horiz-adv-x="1041" d="M69 653v20q0 13 16 13h861q9 0 11.5 -2.5t2.5 -10.5v-22v-387q0 -14 -14 -14h-19q-14 0 -14 14v375h-828q-16 0 -16 14z" />
<glyph unicode="&#xad;" horiz-adv-x="744" d="M69 432v21q0 12 16 12h576q9 0 11.5 -2t2.5 -10v-21q0 -9 -2.5 -11.5t-11.5 -2.5h-576q-9 0 -12.5 2.5t-3.5 11.5z" />
<glyph unicode="&#xae;" horiz-adv-x="1039" d="M26 1126q0 204 145 348.5t350 144.5t349 -144.5t144 -348.5q0 -135 -65.5 -248.5t-179 -179.5t-248.5 -66t-249 66t-180 179.5t-66 248.5zM64 1125q0 -92 36.5 -176t97.5 -145.5t145.5 -97.5t177.5 -36q187 0 320.5 133.5t133.5 321.5q0 189 -133 322.5t-321 133.5 q-189 0 -323 -133.5t-134 -322.5zM349 894v468q0 14 12 14h205q68 0 113 -46.5t45 -104.5q0 -53 -34.5 -96t-90.5 -55l116 -177q8 -14 -9 -14h-24q-5 0 -9 6l-119 182h-162v-177q0 -4 -4 -7.5t-8 -3.5h-19q-12 0 -12 11zM391 1113h170q54 0 85.5 34.5t31.5 76.5t-31 76.5 t-86 34.5h-170v-222z" />
<glyph unicode="&#xaf;" horiz-adv-x="888" d="M69 1290v20q0 13 13 13h723q14 0 14 -13v-20q0 -13 -14 -13h-723q-13 0 -13 13z" />
<glyph unicode="&#xb0;" horiz-adv-x="683" d="M139 1161q0 82 60 141.5t143 59.5q84 0 144.5 -59.5t60.5 -141.5q0 -86 -60 -147t-145 -61q-83 0 -143 61t-60 147zM179 1161q0 -68 48 -117.5t115 -49.5q68 0 116.5 49.5t48.5 117.5q0 66 -48.5 114t-116.5 48q-66 0 -114.5 -48.5t-48.5 -113.5z" />
<glyph unicode="&#xb1;" horiz-adv-x="1024" d="M104 14v19q0 9 3 11.5t11 2.5h790q14 0 14 -12v-21q0 -9 -3 -11.5t-11 -2.5h-790q-8 0 -11 2.5t-3 11.5zM104 795v22q0 13 12 13h372v371q0 9 3 11.5t11 2.5h20q9 0 11.5 -2.5t2.5 -11.5v-371h370q16 0 16 -13v-22q0 -12 -16 -12h-370v-372q0 -14 -14 -14h-20 q-14 0 -14 14v372h-372q-8 0 -10 2.5t-2 9.5z" />
<glyph unicode="&#xb2;" horiz-adv-x="987" d="M82 1125q74 113 184 173.5t230 60.5q163 0 288 -112t124 -272q0 -175 -146 -324l-592 -602h719q8 0 8 -11v-28q0 -10 -10 -10h-781q-12 0 -12 12v28l590 597q94 95 136.5 170.5t42.5 173.5q0 135 -110.5 232t-257.5 97q-119 0 -222.5 -66.5t-156.5 -151.5q-2 -4 -7.5 -4 t-7.5 4l-18 15q-8 5 -1 18z" />
<glyph unicode="&#xb3;" horiz-adv-x="1018" d="M82 224q-6 13 0 19l20 17q13 7 16 -1q64 -105 175 -165.5t229 -60.5q99 0 173.5 33t115 87t59.5 111.5t19 117.5q0 87 -36.5 163.5t-113.5 128t-180 51.5t-212 -46q-14 -7 -24 3l-14 17q-7 10 0 20l555 569h-741q-12 0 -12 12v23q0 13 12 13h780q13 0 13 -13v-40 q0 -9 -7 -16l-508 -521q77 29 175 25q106 -1 191 -57.5t129.5 -143.5t44.5 -185q0 -180 -118.5 -291t-308.5 -111q-125 0 -239.5 60.5t-192.5 180.5z" />
<glyph unicode="&#xb4;" horiz-adv-x="616" d="M68 1139l14 -21q5 -8 13 -5l374 260q10 6 7 14l-18 26q-4 10 -15 2l-374 -264q-6 -4 -1 -12z" />
<glyph unicode="&#xb6;" horiz-adv-x="1565" d="M78 951q0 77 30 153.5t83.5 140t139 103.5t186.5 40h953q17 0 17 -17v-12q0 -19 -17 -19h-255v-1324q0 -16 -14 -16h-21q-9 0 -11.5 3.5t-2.5 12.5v1324h-368v-1324q0 -16 -14 -16h-20q-9 0 -11.5 3.5t-2.5 12.5v484h-233q-102 0 -186.5 39t-139 103.5t-84 144.5 t-29.5 164zM129 943.5q0 -74.5 26.5 -145.5t75.5 -127t128.5 -90t178.5 -34h212v793h-212q-99 0 -178.5 -34t-128.5 -90t-75.5 -127t-26.5 -145.5z" />
<glyph unicode="&#xb7;" horiz-adv-x="241" d="M87 524q0 13 10.5 24t23.5 11t23 -11t10 -24q0 -14 -10 -24.5t-23 -10.5t-23.5 10.5t-10.5 24.5z" />
<glyph unicode="&#xb8;" horiz-adv-x="588" d="M80 -456l9 8l4 4q11 10 18 4q1 -1 2 -3q27 -32 70.5 -56.5t92.5 -24.5q92 0 144 54t52 133q0 78 -50 132t-137 54q-46 0 -79.5 -17t-71.5 -58q-14 -14 -21 -7l-12 14q-7 3 -4 7q4 8 14 23l125 189h45l-85 -128q40 17 92 17q91 0 156.5 -66t65.5 -160q0 -93 -67 -160 t-162 -67q-63 0 -115.5 27.5t-83.5 67.5q-4 11 -2 13z" />
<glyph unicode="&#xb9;" horiz-adv-x="362" d="M61 1135q0 5 5 7q66 29 107.5 84.5t50.5 104.5q0 5 14 5h19q7 0 8.5 -1.5t1.5 -8.5v-1314q0 -8 -2.5 -10t-9.5 -2h-22q-14 0 -14 12v1142l-141 -48q-8 -3 -10 5z" />
<glyph unicode="&#xba;" horiz-adv-x="1027" d="M69 429q0 -183 131 -311t315 -128q119 0 221 58t162 159.5t60 221.5q0 187 -130 315.5t-313 128.5q-121 0 -223.5 -58t-162.5 -160t-60 -226zM120 429q0 104 51 195t142.5 146.5t201.5 55.5q164 0 278.5 -118.5t114.5 -278.5q0 -156 -115 -274.5t-278 -118.5 q-110 0 -201.5 56t-142.5 146t-51 191z" />
<glyph unicode="&#xbb;" horiz-adv-x="796" d="M89 24q-5 -8 3 -8h47q4 0 9 7l284 350q8 9 8 26t-8 24l-286 348q-3 3 -11 3h-43q-3 0 -3 -9l303 -364zM363 770.5q-1 -3.5 1 -5.5l304 -364l-304 -377q-5 -8 4 -8h47q3 0 8 5l285 352q8 9 8 26t-8 24l-286 346q-3 5 -12 5h-42q-4 0 -5 -3.5z" />
<glyph unicode="&#xbc;" horiz-adv-x="1287" d="M87 1191q0 3 3 5q66 29 106.5 83.5t48.5 102.5q0 5 8 5h19q13 0 13 -9v-590q0 -10 -14 -10h-18h-5t-4 0.5t-2.5 2l-1 3t-0.5 4.5v423l-138 -46q-6 -2 -8 3zM229 19l745 1352q2 2 4 5l3 4.5t2.5 3.5t3 2.5t3.5 1t4 0.5h13q21 0 14 -17l-749 -1354q-1 -3 -2.5 -5.5t-2.5 -4 t-2 -3.5t-2 -2.5t-3 -1t-5 -0.5h-14q-20 0 -12 19zM807 194v28q0 1 4 5q51 33 93 85t61 111q35 102 35 195q0 5 5 5h33q3 0 3 -3q0 -60 -18 -134.5t-42 -124.5q-34 -69 -110 -134h186v61q0 5 3 5l35 7q5 0 5 -3v-70h96q4 0 4.5 -0.5t0.5 -4.5v-28q0 -10 -5 -10h-96v-179 q0 -5 -7 -5h-29q-7 0 -7 5v179h-245q-5 0 -5 10z" />
<glyph unicode="&#xbd;" horiz-adv-x="1286" d="M87 1191q0 3 3 5q66 29 106.5 83.5t48.5 102.5q0 5 8 5h19q13 0 13 -9v-590q0 -10 -14 -10h-18h-5t-4 0.5t-2.5 2l-1 3t-0.5 4.5v423l-138 -46q-6 -2 -8 3zM229 19l745 1352q2 2 4 5l3 4.5t2.5 3.5t3 2.5t3.5 1t4 0.5h13q21 0 14 -17l-749 -1354q-1 -3 -2.5 -5.5t-2.5 -4 t-2 -3.5t-2 -2.5t-3 -1t-5 -0.5h-14q-20 0 -12 19zM812 5v26l4 4l265 272q51 56 63 80q15 30 15 66q0 55 -46.5 95t-112.5 40q-96 0 -155 -90q-4 -3 -7 0l-22 17q-4 5 -2 7q56 86 147.5 104.5t163.5 -36.5q69 -53 74 -130.5t-64 -150.5l-257 -266h313q3 0 3 -3v-35 q0 -5 -3 -5h-374q-5 0 -5 5z" />
<glyph unicode="&#xbe;" horiz-adv-x="1272" d="M73 871q-4 4 0 7l22 21q4 4 7 0q53 -85 142.5 -97t149.5 57q26 28 27 77.5t-23.5 92t-77 62.5t-133.5 -11l-1 1l-2 5l-19 20q-3 3 0 5l241 234h-314q-7 0 -7 7v28q4 8 7 8h359q7 0 7 -8v-37q0 -3 -2 -5l-213 -205q52 10 98 -6t73.5 -50.5t42 -76.5t7.5 -86.5t-35 -78.5 q-41 -49 -106 -67t-135 8t-115 95zM229 19l746 1352q5 8 6 10t4.5 4.5t8.5 2.5h14q20 0 13 -17l-747 -1354q-3 -3 -5 -7.5t-3.5 -6t-4 -2.5t-6.5 -1h-12q-22 0 -14 19zM807 194v28q0 1 4 5q51 33 93 85t61 111q35 102 35 195q0 5 5 5h33q5 0 5 -3q0 -60 -18 -134t-43 -125 q-35 -72 -111 -134h186v61q0 5 3 5l37 7q3 0 3 -3v-70h96q7 0 7 -5v-28q0 -10 -7 -10h-96v-179q0 -5 -7 -5h-29q-7 0 -7 5v179h-245q-5 0 -5 10z" />
<glyph unicode="&#xbf;" horiz-adv-x="798" d="M27.5 -69.5q8.5 109.5 83.5 180.5q45 42 97 75t85 50t62.5 40t43.5 59.5t14 93.5q0 9 3 11.5t11 2.5h24q11 0 11 -14v-45q0 -43 -21.5 -79.5t-55.5 -62.5t-75.5 -50.5t-82.5 -51t-75 -57t-55.5 -75t-21.5 -98.5q-1 -52 14.5 -99.5t50.5 -92t101 -71.5t156 -27 q64 0 122 20.5t99.5 53.5t69 63.5t46.5 61.5q8 7 12 0l23 -20q3 -3 -2 -16q-94 -134 -234.5 -182.5t-286.5 -3.5q-107 33 -167 128.5t-51.5 205zM391 935q0 18 12.5 32t30.5 14q17 0 29.5 -14t12.5 -32q0 -17 -12.5 -29t-29.5 -12q-18 0 -30.5 12t-12.5 29z" />
<glyph unicode="&#xc0;" horiz-adv-x="1503" d="M71 12l649 1371q6 14 18 14h27q12 0 18 -14l651 -1371q4 -12 -6 -12h-33q-11 0 -15 10l-144 306h-969l-144 -306q-4 -10 -12 -10h-35q-9 0 -5 12zM290 363h923l-461 979zM548 1855l18 26q4 10 15 2l374 -264q6 -4 1 -12l-14 -21q-5 -8 -13 -5l-374 260q-10 6 -7 14z" />
<glyph unicode="&#xc1;" horiz-adv-x="1503" d="M71 12l649 1371q6 14 18 14h27q12 0 18 -14l651 -1371q4 -12 -6 -12h-33q-11 0 -15 10l-144 306h-969l-144 -306q-4 -10 -12 -10h-35q-9 0 -5 12zM290 363h923l-461 979zM512 1607q-5 8 2 12l373 264q12 8 16 -2l17 -26q3 -8 -7 -14l-373 -260q-9 -4 -14 5z" />
<glyph unicode="&#xc2;" horiz-adv-x="1503" d="M71 12l649 1371q6 14 18 14h27q12 0 18 -14l651 -1371q4 -12 -6 -12h-33q-11 0 -15 10l-144 306h-969l-144 -306q-4 -10 -12 -10h-35q-9 0 -5 12zM290 363h923l-461 979zM396 1550v31q0 7 7 14l324 260q9 7 25.5 7t26.5 -7l325 -260q5 -5 5 -14v-31q0 -10 -12 -5 l-344 269l-343 -269q-14 -6 -14 5z" />
<glyph unicode="&#xc3;" horiz-adv-x="1503" d="M71 12l649 1371q6 14 18 14h27q12 0 18 -14l651 -1371q4 -12 -6 -12h-33q-11 0 -15 10l-144 306h-969l-144 -306q-4 -10 -12 -10h-35q-9 0 -5 12zM290 363h923l-461 979zM361 1703q-6 6 0 12q3 5 9 13t26.5 28t43.5 35.5t59 28.5t74 13q51 0 93.5 -16.5t72.5 -40.5 t58.5 -48t65 -40.5t78.5 -16.5q107 0 183 88l1 1q6 6 10 2l19 -19q5 -4 -2 -11q-3 -5 -8.5 -12t-25.5 -26.5t-42 -34t-57 -26.5t-73 -12q-51 0 -92.5 17t-70 40.5t-56.5 47.5t-65.5 41t-83.5 17q-36 0 -67.5 -10t-56 -28.5t-35.5 -29.5t-27 -29q-9 -7 -14 -2z" />
<glyph unicode="&#xc4;" horiz-adv-x="1503" d="M71 12l649 1371q6 14 18 14h27q12 0 18 -14l651 -1371q4 -12 -6 -12h-33q-11 0 -15 10l-144 306h-969l-144 -306q-4 -10 -12 -10h-35q-9 0 -5 12zM290 363h923l-461 979zM467 1810q0 16 11 27t27 11q18 0 29 -11t11 -27q0 -17 -11 -28.5t-29 -11.5q-16 0 -27 11.5 t-11 28.5zM963 1810q0 16 11 27t27 11q18 0 29 -11t11 -27q0 -17 -11 -28.5t-29 -11.5q-16 0 -27 11.5t-11 28.5z" />
<glyph unicode="&#xc5;" horiz-adv-x="1503" d="M71 12l649 1371q6 14 18 14h27q12 0 18 -14l651 -1371q4 -12 -6 -12h-33q-11 0 -15 10l-144 306h-969l-144 -306q-4 -10 -12 -10h-35q-9 0 -5 12zM290 363h923l-461 979zM548 1668q0 85 60 144t145 59q83 0 142.5 -59.5t59.5 -143.5q0 -87 -59 -147t-143 -60 q-85 0 -145 60t-60 147zM592 1668q0 -68 47.5 -115t113.5 -47q68 0 115 46.5t47 115.5q0 67 -47 113.5t-115 46.5q-66 0 -113.5 -47t-47.5 -113z" />
<glyph unicode="&#xc6;" horiz-adv-x="1990" d="M71 12l873 1361q10 15 19 15h917q9 0 11.5 -2.5t2.5 -10.5v-21q0 -14 -14 -14h-849v-630h562q9 0 11.5 -3t2.5 -14v-16q0 -10 -2.5 -13t-11.5 -3h-562v-612h849q9 0 11.5 -3.5t2.5 -14.5v-15q0 -10 -2.5 -13t-11.5 -3h-889q-12 0 -12 12v222h-707l-144 -224 q-1 -1 -3.5 -4.5t-4.5 -4.5t-5 -1h-37q-11 0 -7 12zM304 283h675v1055z" />
<glyph unicode="&#xc7;" horiz-adv-x="1379" d="M78 693q0 145 56.5 276.5t152 226t228 150t278.5 55.5q140 0 267 -49.5t224 -140.5q22 -21 14 -29l-19 -17q-11 -11 -22 1q-71 71 -188.5 127.5t-257.5 56.5q-135 0 -250 -41t-193 -108t-133.5 -153.5t-81 -176.5t-25.5 -178q0 -89 25.5 -179.5t81 -176.5t133.5 -152 t193 -106.5t250 -40.5q139 0 250.5 54t188.5 128l2 2q17 17 24 9l20 -19q9 -9 -13 -31q-204 -193 -490 -193l-36 2l-78 -118q40 17 92 17q91 0 156.5 -66t65.5 -160q0 -93 -67 -160t-162 -67q-63 0 -116 27.5t-84 67.5q-4 11 -2 13l9 8q13 12 17 11q3 -1 7 -6 q27 -32 70.5 -56.5t92.5 -24.5q92 0 144.5 54t52.5 133q0 78 -50.5 132t-137.5 54q-46 0 -79.5 -17t-71.5 -58q-14 -14 -21 -7l-12 14q-6 2 -3 7q4 9 14 23l119 180q-177 20 -322 116.5t-229 250.5t-84 335z" />
<glyph unicode="&#xc8;" horiz-adv-x="1140" d="M130 12v1363q0 9 3 11t13 2h883q10 0 13 -2.5t3 -10.5v-21q0 -8 -3 -11t-13 -3h-847v-630h561q9 0 12 -3.5t3 -13.5v-16q0 -10 -3 -13t-12 -3h-561v-612h847q10 0 13 -3.5t3 -14.5v-15q0 -10 -2.5 -13t-13.5 -3h-887q-12 0 -12 12zM387 1857l17 26q4 10 16 2l373 -264 q7 -4 2 -12l-14 -21q-5 -9 -14 -5l-373 260q-10 6 -7 14z" />
<glyph unicode="&#xc9;" horiz-adv-x="1140" d="M130 12v1363q0 9 3 11t13 2h883q10 0 13 -2.5t3 -10.5v-21q0 -8 -3 -11t-13 -3h-847v-630h561q9 0 12 -3.5t3 -13.5v-16q0 -10 -3 -13t-12 -3h-561v-612h847q10 0 13 -3.5t3 -14.5v-15q0 -10 -2.5 -13t-13.5 -3h-887q-12 0 -12 12zM349 1609q-5 8 2 12l373 264 q11 8 15 -2l18 -26q3 -8 -7 -14l-373 -260q-9 -4 -14 5z" />
<glyph unicode="&#xca;" horiz-adv-x="1140" d="M130 12v1363q0 9 3 11t13 2h883q10 0 13 -2.5t3 -10.5v-21q0 -8 -3 -11t-13 -3h-847v-630h561q9 0 12 -3.5t3 -13.5v-16q0 -10 -3 -13t-12 -3h-561v-612h847q10 0 13 -3.5t3 -14.5v-15q0 -10 -2.5 -13t-13.5 -3h-887q-12 0 -12 12zM233 1552v31q0 7 7 14l324 260 q9 7 25.5 7t26.5 -7l325 -260q5 -5 5 -14v-31q0 -11 -12 -6l-344 269l-344 -269q-13 -6 -13 6z" />
<glyph unicode="&#xcb;" horiz-adv-x="1140" d="M130 12v1363q0 9 3 11t13 2h883q10 0 13 -2.5t3 -10.5v-21q0 -8 -3 -11t-13 -3h-847v-630h561q9 0 12 -3.5t3 -13.5v-16q0 -10 -3 -13t-12 -3h-561v-612h847q10 0 13 -3.5t3 -14.5v-15q0 -10 -2.5 -13t-13.5 -3h-887q-12 0 -12 12zM304 1812q0 16 11 27t27 11 q18 0 29 -11t11 -27q0 -17 -11 -28.5t-29 -11.5q-16 0 -27 11.5t-11 28.5zM800 1812q0 16 11 27t27 11q18 0 29 -11t11 -27q0 -17 -11 -28.5t-29 -11.5q-16 0 -27 11.5t-11 28.5z" />
<glyph unicode="&#xcc;" horiz-adv-x="329" d="M-38 1845q-3 -8 7 -14l373 -260q9 -4 14 5l14 21q5 8 -2 12l-373 264q-12 8 -16 -2zM139 12q0 -12 12 -12h28q12 0 12 12v1363q0 8 -3 10.5t-11 2.5h-24q-9 0 -11.5 -2t-2.5 -11v-1363z" />
<glyph unicode="&#xcd;" horiz-adv-x="329" d="M-76 1597l14 -21q5 -8 13 -5l374 260q10 6 6 14l-17 26q-4 10 -15 2l-374 -264q-6 -4 -1 -12zM139 12q0 -12 12 -12h28q12 0 12 12v1363q0 8 -3 10.5t-11 2.5h-24q-9 0 -11.5 -2t-2.5 -11v-1363z" />
<glyph unicode="&#xce;" horiz-adv-x="329" d="M-193 1538q0 -11 14 -5l344 269l344 -269q12 -5 12 5v31q0 8 -6 14l-324 260q-10 7 -26.5 7t-25.5 -7l-325 -260q-7 -7 -7 -14v-31zM139 12q0 -12 12 -12h28q12 0 12 12v1363q0 8 -3 10.5t-11 2.5h-24q-9 0 -11.5 -2t-2.5 -11v-1363z" />
<glyph unicode="&#xcf;" horiz-adv-x="329" d="M-121 1800q0 16 11 27t27 11q18 0 29 -11t11 -27q0 -17 -11 -28.5t-29 -11.5q-16 0 -27 11.5t-11 28.5zM139 12q0 -12 12 -12h28q12 0 12 12v1363q0 8 -3 10.5t-11 2.5h-24q-9 0 -11.5 -2t-2.5 -11v-1363zM375 1800q0 16 11 27t27 11q18 0 29 -11t11 -27q0 -17 -11 -28.5 t-29 -11.5q-16 0 -27 11.5t-11 28.5z" />
<glyph unicode="&#xd0;" horiz-adv-x="1411" d="M35 684v17q0 11 2.5 14.5t11.5 3.5h72v656q0 9 2.5 11t11.5 2h478q142 0 260 -38.5t199 -103.5t137 -153t81.5 -185.5t25.5 -202.5t-25.5 -205t-81.5 -191t-136 -159.5t-196.5 -109t-256.5 -40.5h-486q-13 0 -13 12v658h-72q-14 0 -14 14zM170 1340l2 -621h418 q12 0 12 -13v-24q0 -12 -12 -12h-418l2 -621h458q123 0 228 37t179 100.5t126.5 147.5t77.5 178t24 193q-1 98 -26 190t-77 173t-126 141.5t-178.5 95.5t-227.5 35h-462z" />
<glyph unicode="&#xd1;" horiz-adv-x="1435" d="M130 12v1364q0 12 11 12h24q11 0 21 -13l1071 -1297v1302q0 5 1.5 6.5t6.5 1.5h31q9 0 9 -8v-1371q0 -9 -10 -9h-21q-10 0 -24 17l-1071 1295v-1300q0 -12 -12 -12h-25q-12 0 -12 12zM338 1673l18 -17q5 -5 14 1q17 19 27 29t34.5 30t56 29.5t67.5 9.5q46 0 83.5 -17 t65.5 -40.5t56.5 -47.5t70 -41t92.5 -17q38 0 73 11.5t58 28t41 32.5t27 28l8 11q7 7 2 10l-19 19q-5 4 -11 -2l-1 -1q-76 -87 -183 -87q-42 0 -78.5 16.5t-65 40t-58.5 47.5t-72.5 40.5t-93.5 16.5q-38 0 -73.5 -12t-59.5 -29.5t-43 -35t-28 -29.5l-8 -12q-6 -6 0 -12z" />
<glyph unicode="&#xd2;" horiz-adv-x="1638" d="M104 694q0 -195 96 -357.5t260.5 -255.5t360.5 -93q194 0 358 93t259.5 255.5t95.5 357.5q0 194 -95.5 356.5t-259.5 256.5t-358 94q-196 0 -360.5 -94t-260.5 -256.5t-96 -356.5zM154 694q0 181 89.5 332t243 237.5t334.5 86.5q180 0 332 -86.5t241.5 -237.5t89.5 -332 t-89.5 -332t-241.5 -237.5t-332 -86.5q-181 0 -334.5 86.5t-243 237.5t-89.5 332zM618 1864q-3 -8 7 -14l373 -260q9 -4 14 5l14 21q5 8 -2 12l-373 264q-12 8 -16 -2z" />
<glyph unicode="&#xd3;" horiz-adv-x="1638" d="M104 694q0 -195 96 -357.5t260.5 -255.5t360.5 -93q194 0 358 93t259.5 255.5t95.5 357.5q0 194 -95.5 356.5t-259.5 256.5t-358 94q-196 0 -360.5 -94t-260.5 -256.5t-96 -356.5zM154 694q0 181 89.5 332t243 237.5t334.5 86.5q180 0 332 -86.5t241.5 -237.5t89.5 -332 t-89.5 -332t-241.5 -237.5t-332 -86.5q-181 0 -334.5 86.5t-243 237.5t-89.5 332zM580 1616l14 -21q5 -8 13 -5l374 260q10 6 7 14l-18 26q-4 10 -15 2l-374 -264q-6 -4 -1 -12z" />
<glyph unicode="&#xd4;" horiz-adv-x="1638" d="M104 694q0 -195 96 -357.5t260.5 -255.5t360.5 -93q194 0 358 93t259.5 255.5t95.5 357.5q0 194 -95.5 356.5t-259.5 256.5t-358 94q-196 0 -360.5 -94t-260.5 -256.5t-96 -356.5zM154 694q0 181 89.5 332t243 237.5t334.5 86.5q180 0 332 -86.5t241.5 -237.5t89.5 -332 t-89.5 -332t-241.5 -237.5t-332 -86.5q-181 0 -334.5 86.5t-243 237.5t-89.5 332zM463 1557q0 -11 14 -5l344 269l344 -269q12 -5 12 5v31q0 9 -5 14l-325 260q-11 8 -27 8t-25 -8l-325 -260q-7 -7 -7 -14v-31z" />
<glyph unicode="&#xd5;" horiz-adv-x="1638" d="M104 694q0 -195 96 -357.5t260.5 -255.5t360.5 -93q194 0 358 93t259.5 255.5t95.5 357.5q0 194 -95.5 356.5t-259.5 256.5t-358 94q-196 0 -360.5 -94t-260.5 -256.5t-96 -356.5zM154 694q0 181 89.5 332t243 237.5t334.5 86.5q180 0 332 -86.5t241.5 -237.5t89.5 -332 t-89.5 -332t-241.5 -237.5t-332 -86.5q-181 0 -334.5 86.5t-243 237.5t-89.5 332zM429 1711l17 -17q5 -5 14 2q16 18 27 29t35.5 29.5t56 28.5t67.5 10q46 0 83.5 -17t65.5 -40.5t56.5 -47.5t70 -41t92.5 -17q38 0 73 11.5t58 28t41 32.5t26 28l8 11q7 7 2 10l-19 19 q-2 1 -5.5 1t-5.5 -2l-1 -1q-13 -15 -28.5 -29.5t-61 -36.5t-93.5 -22q-42 0 -78.5 16.5t-65 40t-58.5 47.5t-72.5 40.5t-93.5 16.5q-38 0 -73.5 -12t-59.5 -29.5t-42.5 -35t-26.5 -29.5l-9 -12q-6 -6 0 -12z" />
<glyph unicode="&#xd6;" horiz-adv-x="1638" d="M104 694q0 -195 96 -357.5t260.5 -255.5t360.5 -93q194 0 358 93t259.5 255.5t95.5 357.5q0 194 -95.5 356.5t-259.5 256.5t-358 94q-196 0 -360.5 -94t-260.5 -256.5t-96 -356.5zM154 694q0 181 89.5 332t243 237.5t334.5 86.5q180 0 332 -86.5t241.5 -237.5t89.5 -332 t-89.5 -332t-241.5 -237.5t-332 -86.5q-181 0 -334.5 86.5t-243 237.5t-89.5 332zM535 1819q0 16 11 27t27 11q18 0 29 -11t11 -27q0 -17 -11 -28.5t-29 -11.5q-16 0 -27 11.5t-11 28.5zM1031 1819q0 16 11 27t27 11q18 0 29 -11t11 -27q0 -17 -11 -28.5t-29 -11.5 q-16 0 -27 11.5t-11 28.5z" />
<glyph unicode="&#xd7;" horiz-adv-x="813" d="M109 382q-9 9 2 17l264 264l-266 264q-8 11 0 19l16 16q8 8 19 0l264 -266l264 266q7 5 9.5 5t7.5 -5l16 -16q8 -8 0 -19l-264 -264l262 -264q11 -8 2 -17l-16 -16q-9 -9 -17 2l-264 262l-264 -262q-9 -12 -19 -2z" />
<glyph unicode="&#xd8;" horiz-adv-x="1683" d="M104.5 -14.5q-0.5 1.5 6.5 9.5l212 212q-93 96 -144.5 221.5t-51.5 265.5q0 194 95.5 356.5t260 256.5t359.5 94q138 0 263.5 -50t222.5 -140l211 212q11 11 20 2l17 -17q7 -7 -2 -20l-210 -210q90 -97 140.5 -221.5t50.5 -262.5q0 -195 -95.5 -357.5t-259.5 -255.5 t-358 -93q-138 0 -262.5 48t-221.5 136l-212 -212q-8 -6 -10 -6t-8 6l-17 16q-6 8 -6.5 9.5zM177 694q0 -130 47.5 -246t133.5 -207l935 936q-90 82 -206 127.5t-245 45.5q-181 0 -333.5 -86.5t-242 -237.5t-89.5 -332zM394 208q90 -81 205.5 -125.5t242.5 -44.5 q181 0 333 86.5t241 237.5t89 332q0 129 -46 244.5t-131 203.5z" />
<glyph unicode="&#xd9;" horiz-adv-x="1331" d="M121 517q1 -101 38.5 -195.5t105 -169t170.5 -119.5t226 -45t228 45t174 119.5t107.5 169t39.5 195.5v858q0 9 -2 11t-10 2h-25q-9 0 -12 -2t-3 -11v-830q0 -108 -32.5 -196.5t-84.5 -144.5t-119 -95t-132.5 -55t-128.5 -16q-62 0 -126 16t-130 55t-116.5 95t-82.5 144.5 t-32 196.5v830q0 9 -2.5 11t-13.5 2h-21q-11 0 -13.5 -2t-2.5 -11v-858zM458 1831q-3 -8 7 -14l373 -260q9 -4 14 5l14 21q5 8 -2 12l-373 264q-11 8 -15 -2z" />
<glyph unicode="&#xda;" horiz-adv-x="1331" d="M121 517q1 -101 38.5 -195.5t105 -169t170.5 -119.5t226 -45t228 45t174 119.5t107.5 169t39.5 195.5v858q0 9 -2 11t-10 2h-25q-9 0 -12 -2t-3 -11v-830q0 -108 -32.5 -196.5t-84.5 -144.5t-119 -95t-132.5 -55t-128.5 -16q-62 0 -126 16t-130 55t-116.5 95t-82.5 144.5 t-32 196.5v830q0 9 -2.5 11t-13.5 2h-21q-11 0 -13.5 -2t-2.5 -11v-858zM420 1583l14 -21q5 -9 14 -5l373 260q10 6 7 14l-17 26q-4 10 -16 2l-373 -264q-7 -4 -2 -12z" />
<glyph unicode="&#xdb;" horiz-adv-x="1331" d="M121 517q1 -101 38.5 -195.5t105 -169t170.5 -119.5t226 -45t228 45t174 119.5t107.5 169t39.5 195.5v858q0 9 -2 11t-10 2h-25q-9 0 -12 -2t-3 -11v-830q0 -108 -32.5 -196.5t-84.5 -144.5t-119 -95t-132.5 -55t-128.5 -16q-62 0 -126 16t-130 55t-116.5 95t-82.5 144.5 t-32 196.5v830q0 9 -2.5 11t-13.5 2h-21q-11 0 -13.5 -2t-2.5 -11v-858zM305 1524q0 -11 14 -5l344 269l344 -269q12 -5 12 5v31q0 9 -5 14l-325 260q-10 7 -26.5 7t-25.5 -7l-325 -260q-7 -7 -7 -14v-31z" />
<glyph unicode="&#xdc;" horiz-adv-x="1331" d="M121 517q1 -101 38.5 -195.5t105 -169t170.5 -119.5t226 -45t228 45t174 119.5t107.5 169t39.5 195.5v858q0 9 -2 11t-10 2h-25q-9 0 -12 -2t-3 -11v-830q0 -108 -32.5 -196.5t-84.5 -144.5t-119 -95t-132.5 -55t-128.5 -16q-62 0 -126 16t-130 55t-116.5 95t-82.5 144.5 t-32 196.5v830q0 9 -2.5 11t-13.5 2h-21q-11 0 -13.5 -2t-2.5 -11v-858zM375 1786q0 16 11 27t27 11q18 0 29 -11t11 -27q0 -17 -11 -28.5t-29 -11.5q-16 0 -27 11.5t-11 28.5zM871 1786q0 16 11 27t27 11q18 0 29 -11t11 -27q0 -17 -11 -28.5t-29 -11.5q-16 0 -27 11.5 t-11 28.5z" />
<glyph unicode="&#xdd;" horiz-adv-x="1273" d="M26 1382q-4 6 4 6h41q9 0 11 -6l553 -750l556 750q4 6 10 6h42q3 0 4 -2t-1 -4l-585 -795v-571q0 -9 -2.5 -12.5t-11.5 -3.5h-20q-16 0 -16 17v570zM415 1585l14 -21q5 -9 14 -5l373 260q10 6 7 14l-18 26q-4 10 -15 2l-373 -264q-7 -4 -2 -12z" />
<glyph unicode="&#xde;" horiz-adv-x="1053" d="M130 16v1359q0 9 2.5 11t11.5 2h21q6 0 8.5 -0.5t4 -3.5t1.5 -9v-236h366q109 0 198.5 -40t144 -104t84 -140t29.5 -154q0 -85 -29.5 -164.5t-84.5 -144t-144.5 -103.5t-199.5 -39h-364v-234q0 -16 -14 -16h-21q-9 0 -11.5 3.5t-2.5 12.5zM179 299h361q113 -1 202 42 t135 112.5t67.5 153.5t0 169t-67.5 155t-135 114t-202 45h-361v-791z" />
<glyph unicode="&#xdf;" horiz-adv-x="1100" d="M87 9l2 921q0 228 118 346t324 118q190 0 310 -109.5t121 -286.5q0 -42 -7 -76t-26 -73t-61.5 -70.5t-105.5 -51.5q260 -106 260 -356q0 -98 -32.5 -171.5t-90.5 -116t-128.5 -63t-154.5 -20.5h-64q-9 0 -9 9v27q0 4 5.5 7.5t12.5 3.5q219 0 316 85t97 239q0 69 -25 129 t-75.5 108.5t-135.5 76.5t-195 28v35q0 10 7 10h83q43 1 80 7t75 22.5t64.5 42.5t43.5 69t17 99q0 66 -23.5 126.5t-68.5 110.5t-120.5 80t-169.5 30q-192 0 -293 -111t-101 -323l-2 -902q0 -9 -7 -9h-34q-7 0 -7 9z" />
<glyph unicode="&#xe0;" d="M78 208q0 -98 72 -157.5t197 -59.5q104 0 189 28.5t191 86.5q6 -106 11 -106h29q15 0 12 26q-19 224 -7 514q7 153 -70 241.5t-232 88.5q-95 0 -188.5 -26t-165.5 -65q-15 -8 -7 -22l9 -16q4 -11 23 -3q164 86 333 86q124 0 190 -73.5t61 -214.5q-141 -24 -234.5 -44 t-178.5 -47.5t-132.5 -59.5t-74.5 -76t-27 -101zM127 210q0 40 15 72t57.5 58t73 42.5t109 36.5t115.5 28t139 28q59 12 89 18q-9 -206 0 -335q-200 -123 -371 -123q-98 0 -162.5 43t-64.5 132zM250 1387q-3 -8 7 -14l373 -260q9 -4 14 5l14 21q5 8 -2 12l-373 264 q-12 8 -16 -2z" />
<glyph unicode="&#xe1;" d="M78 208q0 -98 72 -157.5t197 -59.5q104 0 189 28.5t191 86.5q6 -106 11 -106h29q15 0 12 26q-19 224 -7 514q7 153 -70 241.5t-232 88.5q-95 0 -188.5 -26t-165.5 -65q-15 -8 -7 -22l9 -16q4 -11 23 -3q164 86 333 86q124 0 190 -73.5t61 -214.5q-141 -24 -234.5 -44 t-178.5 -47.5t-132.5 -59.5t-74.5 -76t-27 -101zM127 210q0 40 15 72t57.5 58t73 42.5t109 36.5t115.5 28t139 28q59 12 89 18q-9 -206 0 -335q-200 -123 -371 -123q-98 0 -162.5 43t-64.5 132zM213 1139l14 -21q5 -9 14 -5l373 260q10 6 7 14l-17 26q-4 10 -16 2l-373 -264 q-7 -4 -2 -12z" />
<glyph unicode="&#xe2;" d="M78 208q0 -98 72 -157.5t197 -59.5q104 0 189 28.5t191 86.5q6 -106 11 -106h29q15 0 12 26q-19 224 -7 514q7 153 -70 241.5t-232 88.5q-95 0 -188.5 -26t-165.5 -65q-15 -8 -7 -22l9 -16q4 -11 23 -3q164 86 333 86q124 0 190 -73.5t61 -214.5q-141 -24 -234.5 -44 t-178.5 -47.5t-132.5 -59.5t-74.5 -76t-27 -101zM97 1081q0 -11 14 -5l344 269l343 -269q13 -6 13 5v32q0 7 -6 13l-324 261q-11 7 -27 7t-25 -7l-325 -261q-7 -7 -7 -13v-32zM127 210q0 40 15 72t57.5 58t73 42.5t109 36.5t115.5 28t139 28q59 12 89 18q-9 -206 0 -335 q-200 -123 -371 -123q-98 0 -162.5 43t-64.5 132z" />
<glyph unicode="&#xe3;" d="M62 1234l18 -17q5 -5 14 1q17 19 27 29t34.5 30t56 29.5t67.5 9.5q46 0 83.5 -17t65.5 -41t56.5 -48t70 -41t92.5 -17q38 0 73 11.5t58 28t41 33t27 27.5l8 12q7 7 2 10l-19 19q-2 1 -5.5 0.5t-5.5 -2.5l-1 -1q-76 -87 -183 -87q-42 0 -78.5 16.5t-65 40.5t-58.5 47.5 t-72.5 40t-93.5 16.5q-38 0 -73.5 -12t-59.5 -29.5t-43 -35t-28 -29.5l-8 -12q-6 -6 0 -12zM78 208q0 -98 72 -157.5t197 -59.5q104 0 189 28.5t191 86.5q6 -106 11 -106h29q15 0 12 26q-19 224 -7 514q7 153 -70 241.5t-232 88.5q-95 0 -188.5 -26t-165.5 -65 q-15 -8 -7 -22l9 -16q4 -11 23 -3q164 86 333 86q124 0 190 -73.5t61 -214.5q-141 -24 -234.5 -44t-178.5 -47.5t-132.5 -59.5t-74.5 -76t-27 -101zM127 210q0 40 15 72t57.5 58t73 42.5t109 36.5t115.5 28t139 28q59 12 89 18q-9 -206 0 -335q-200 -123 -371 -123 q-98 0 -162.5 43t-64.5 132z" />
<glyph unicode="&#xe4;" d="M78 208q0 -98 72 -157.5t197 -59.5q104 0 189 28.5t191 86.5q6 -106 11 -106h29q15 0 12 26q-19 224 -7 514q7 153 -70 241.5t-232 88.5q-95 0 -188.5 -26t-165.5 -65q-15 -8 -7 -22l9 -16q4 -11 23 -3q164 86 333 86q124 0 190 -73.5t61 -214.5q-141 -24 -234.5 -44 t-178.5 -47.5t-132.5 -59.5t-74.5 -76t-27 -101zM127 210q0 40 15 72t57.5 58t73 42.5t109 36.5t115.5 28t139 28q59 12 89 18q-9 -206 0 -335q-200 -123 -371 -123q-98 0 -162.5 43t-64.5 132zM167 1342q0 16 11 27t27 11q18 0 29 -11t11 -27q0 -17 -11 -28.5t-29 -11.5 q-16 0 -27 11.5t-11 28.5zM663 1342q0 16 11 27t27 11q18 0 29 -11t11 -27q0 -17 -11 -28.5t-29 -11.5q-16 0 -27 11.5t-11 28.5z" />
<glyph unicode="&#xe5;" d="M78 208q0 -98 72 -157.5t197 -59.5q104 0 189 28.5t191 86.5q6 -106 11 -106h29q15 0 12 26q-19 224 -7 514q7 153 -70 241.5t-232 88.5q-95 0 -188.5 -26t-165.5 -65q-15 -8 -7 -22l9 -16q4 -11 23 -3q164 86 333 86q124 0 190 -73.5t61 -214.5q-141 -24 -234.5 -44 t-178.5 -47.5t-132.5 -59.5t-74.5 -76t-27 -101zM127 210q0 40 15 72t57.5 58t73 42.5t109 36.5t115.5 28t139 28q59 12 89 18q-9 -206 0 -335q-200 -123 -371 -123q-98 0 -162.5 43t-64.5 132zM250 1199q0 85 60 144t145 59q83 0 142 -59t59 -144q0 -87 -58.5 -146.5 t-142.5 -59.5q-85 0 -145 59.5t-60 146.5zM293 1199q0 -68 48 -114.5t114 -46.5q68 0 114.5 46t46.5 115q0 67 -47 113.5t-114 46.5q-66 0 -114 -47t-48 -113z" />
<glyph unicode="&#xe6;" horiz-adv-x="1641" d="M78 208q0 57 27 101t74.5 76t132.5 59.5t178.5 47.5t234.5 44q5 141 -61 214.5t-190 73.5q-169 0 -333 -86q-19 -8 -23 3l-9 16q-8 14 7 22q72 39 165.5 65t188.5 26q131 0 207 -64t92 -179q52 111 153.5 177.5t228.5 66.5q178 0 299.5 -127t121.5 -307q0 -17 -3.5 -27 t-12 -14t-14.5 -4.5t-20 -0.5h-744q5 -63 31.5 -124.5t72.5 -114t119.5 -85t161.5 -32.5q182 0 319 170q13 13 21 2l10 -9q9 -12 0 -21q-147 -187 -352 -187q-130 0 -235 66t-157 178q3 -117 10 -208q3 -26 -12 -26h-29q-5 0 -11 106q-106 -58 -191 -86.5t-189 -28.5 q-125 0 -197 59.5t-72 157.5zM127 210q0 -89 64.5 -132t162.5 -43q171 0 371 123q-9 129 0 335q-30 -6 -89 -18q-93 -18 -138 -28t-117 -28.5t-107.5 -36t-75 -43t-55.5 -57.5t-16 -72zM774 434h750q0 48 -13.5 99.5t-43 104.5t-72 94.5t-106.5 67.5t-140 26t-140 -25 t-106 -65.5t-72 -93t-43 -105t-14 -103.5z" />
<glyph unicode="&#xe7;" horiz-adv-x="923" d="M69 429q0 188 126 315t308 127q101 0 187 -45t138 -114q8 -17 0 -23l-17 -14q-8 -6 -20 7q-49 63 -121.5 103.5t-157.5 40.5q-82 0 -149.5 -25t-112 -65.5t-75 -93.5t-44 -106.5t-13.5 -106.5t13.5 -106t44.5 -106t75.5 -93.5t113 -65.5t150.5 -25q158 0 297 172 q9 11 21 2l14 -14q9 -9 2 -19q-147 -182 -337 -186l-76 -116q40 17 92 17q91 0 156.5 -66t65.5 -160q0 -93 -67 -160t-162 -67q-63 0 -116 27.5t-84 67.5q-5 11 -2 13l9 8l4 4q11 10 18 4q1 -1 2 -3q27 -32 70.5 -56.5t92.5 -24.5q92 0 144.5 54t52.5 133q0 78 -50.5 132 t-137.5 54q-46 0 -79.5 -17t-71.5 -58q-14 -14 -21 -7l-12 14q-6 2 -3 7q4 8 14 23l118 179q-171 13 -285.5 136.5t-114.5 302.5z" />
<glyph unicode="&#xe8;" horiz-adv-x="985" d="M69 430q0 -188 126.5 -314t309.5 -126q202 0 352 187q8 10 0 21l-10 9q-11 11 -21 -2q-137 -170 -319 -170q-89 0 -163 32.5t-120 85t-72.5 114t-30.5 124.5h745q18 0 26 1.5t16 12t8 32.5q0 180 -122 307t-301 127t-301.5 -128t-122.5 -313zM118 434q0 64 22.5 130.5 t65.5 126t118 97.5t169 38q76 0 140 -26t106 -67.5t72 -94.5t43 -104.5t14 -99.5h-750zM290 1385q-3 -8 7 -14l373 -260q9 -4 14 5l14 21q5 8 -2 12l-373 264q-12 8 -16 -2z" />
<glyph unicode="&#xe9;" horiz-adv-x="985" d="M69 430q0 -188 126.5 -314t309.5 -126q202 0 352 187q8 10 0 21l-10 9q-11 11 -21 -2q-137 -170 -319 -170q-89 0 -163 32.5t-120 85t-72.5 114t-30.5 124.5h745q18 0 26 1.5t16 12t8 32.5q0 180 -122 307t-301 127t-301.5 -128t-122.5 -313zM118 434q0 64 22.5 130.5 t65.5 126t118 97.5t169 38q76 0 140 -26t106 -67.5t72 -94.5t43 -104.5t14 -99.5h-750zM252 1137l14 -21q5 -8 13 -5l374 260q10 6 7 14l-18 26q-4 10 -15 2l-374 -264q-6 -4 -1 -12z" />
<glyph unicode="&#xea;" horiz-adv-x="985" d="M69 430q0 -188 126.5 -314t309.5 -126q202 0 352 187q8 10 0 21l-10 9q-11 11 -21 -2q-137 -170 -319 -170q-89 0 -163 32.5t-120 85t-72.5 114t-30.5 124.5h745q18 0 26 1.5t16 12t8 32.5q0 180 -122 307t-301 127t-301.5 -128t-122.5 -313zM118 434q0 64 22.5 130.5 t65.5 126t118 97.5t169 38q76 0 140 -26t106 -67.5t72 -94.5t43 -104.5t14 -99.5h-750zM135 1080q0 -12 14 -6l344 269l344 -269q12 -5 12 6v31q0 8 -6 14l-324 260q-10 7 -26.5 7t-25.5 -7l-325 -260q-7 -7 -7 -14v-31z" />
<glyph unicode="&#xeb;" horiz-adv-x="985" d="M69 430q0 -188 126.5 -314t309.5 -126q202 0 352 187q8 10 0 21l-10 9q-11 11 -21 -2q-137 -170 -319 -170q-89 0 -163 32.5t-120 85t-72.5 114t-30.5 124.5h745q18 0 26 1.5t16 12t8 32.5q0 180 -122 307t-301 127t-301.5 -128t-122.5 -313zM118 434q0 64 22.5 130.5 t65.5 126t118 97.5t169 38q76 0 140 -26t106 -67.5t72 -94.5t43 -104.5t14 -99.5h-750zM207 1340q0 16 11 27t27 11q18 0 29 -11t11 -27q0 -17 -11 -28.5t-29 -11.5q-16 0 -27 11.5t-11 28.5zM703 1340q0 16 11 27t27 11q18 0 29 -11t11 -27q0 -17 -11 -28.5t-29 -11.5 q-16 0 -27 11.5t-11 28.5z" />
<glyph unicode="&#xec;" horiz-adv-x="308" d="M-47 1387q-3 -8 7 -14l373 -260q9 -4 14 5l14 21q5 8 -2 12l-373 264q-12 8 -16 -2zM130 16q0 -16 12 -16h26q11 0 11 14v831q0 9 -3 11.5t-11 2.5h-21q-9 0 -11.5 -2.5t-2.5 -11.5v-829z" />
<glyph unicode="&#xed;" horiz-adv-x="308" d="M-85 1139l14 -21q5 -9 14 -5l373 260q10 6 7 14l-18 26q-4 10 -15 2l-373 -264q-7 -4 -2 -12zM130 16q0 -16 12 -16h26q11 0 11 14v831q0 9 -3 11.5t-11 2.5h-21q-9 0 -11.5 -2.5t-2.5 -11.5v-829z" />
<glyph unicode="&#xee;" horiz-adv-x="308" d="M-201 1081q0 -11 14 -5l343 269l344 -269q12 -5 12 5v32q0 8 -5 13l-325 261q-10 7 -26.5 7t-25.5 -7l-324 -261q-7 -7 -7 -13v-32zM130 16q0 -16 12 -16h26q11 0 11 14v831q0 9 -3 11.5t-11 2.5h-21q-9 0 -11.5 -2.5t-2.5 -11.5v-829z" />
<glyph unicode="&#xef;" horiz-adv-x="308" d="M-130 1342q0 16 11 27t27 11q18 0 29 -11t11 -27q0 -17 -11 -28.5t-29 -11.5q-16 0 -27 11.5t-11 28.5zM130 16q0 -16 12 -16h26q11 0 11 14v831q0 9 -3 11.5t-11 2.5h-21q-9 0 -11.5 -2.5t-2.5 -11.5v-829zM366 1342q0 16 11 27t27 11q18 0 29 -11t11 -27 q0 -17 -11 -28.5t-29 -11.5q-16 0 -27 11.5t-11 28.5z" />
<glyph unicode="&#xf0;" horiz-adv-x="1032" d="M69 418q0 176 121.5 297.5t297.5 121.5q144 0 263.5 -92.5t159.5 -222.5q17 187 -34.5 344.5t-152.5 268.5l-301 -165q-13 -7 -20 5l-7 11q-6 14 8 21l290 158q-164 158 -366 158q-12 0 -12 8l3 30q0 8 12 8q124 0 228.5 -52.5t179.5 -125.5l106 57q13 6 19 -5l7 -12 q3 -6 3 -9.5t-2 -5.5t-8 -5l-95 -52l15 -17q57 -68 95 -140.5t55 -147t23 -137.5t5 -141q-2 -171 -53.5 -302.5t-155.5 -208.5t-248 -77q-92 0 -173.5 35t-138.5 93.5t-90.5 137t-33.5 164.5zM116 415q0 -101 55 -189.5t145.5 -140.5t190.5 -52q152 0 264 116t112 268 q0 148 -119.5 260.5t-275.5 112.5q-151 0 -261.5 -111t-110.5 -264z" />
<glyph unicode="&#xf1;" horiz-adv-x="977" d="M104 16v831q0 12 11 12h24q14 0 14 -14v-152q183 178 387 178q70 0 131.5 -19t111 -56t78.5 -100t29 -144v-398v-137q0 -7 -0.5 -10t-2.5 -5t-7 -2h-21q-16 0 -16 19v517q0 128 -74.5 208t-223.5 80q-118 0 -210 -50.5t-182 -138.5v-619q0 -16 -11 -16h-27q-11 0 -11 16z M127 1234q-6 6 0 12q3 5 9 13t26.5 28t43 35.5t58.5 28.5t74 13q51 0 93.5 -16.5t72.5 -40t58.5 -47.5t65 -40.5t78.5 -16.5q107 0 183 87l1 1q2 2 5.5 2.5t5.5 -0.5l19 -19q5 -3 -2 -10q-3 -5 -8.5 -12.5t-25.5 -26.5t-42 -34t-57 -27t-73 -12q-51 0 -92.5 17t-70 41 t-56.5 48t-65.5 41t-83.5 17q-36 0 -67.5 -10t-56 -29t-35.5 -29.5t-27 -29.5q-9 -6 -14 -1z" />
<glyph unicode="&#xf2;" horiz-adv-x="1027" d="M69 429q0 -183 131 -311t315 -128q119 0 221 58t162 159.5t60 221.5q0 187 -130 315.5t-313 128.5q-121 0 -223.5 -58t-162.5 -160t-60 -226zM120 429q0 104 51 195t142.5 146.5t201.5 55.5q164 0 278.5 -118.5t114.5 -278.5q0 -156 -115 -274.5t-278 -118.5 q-110 0 -201.5 56t-142.5 146t-51 191zM312 1387q-3 -8 7 -14l374 -260q8 -3 13 5l14 21q5 8 -1 12l-374 264q-11 8 -15 -2z" />
<glyph unicode="&#xf3;" horiz-adv-x="1027" d="M69 429q0 -183 131 -311t315 -128q119 0 221 58t162 159.5t60 221.5q0 187 -130 315.5t-313 128.5q-121 0 -223.5 -58t-162.5 -160t-60 -226zM120 429q0 104 51 195t142.5 146.5t201.5 55.5q164 0 278.5 -118.5t114.5 -278.5q0 -156 -115 -274.5t-278 -118.5 q-110 0 -201.5 56t-142.5 146t-51 191zM274 1139l14 -21q5 -9 14 -5l373 260q10 6 7 14l-17 26q-4 10 -16 2l-373 -264q-7 -4 -2 -12z" />
<glyph unicode="&#xf4;" horiz-adv-x="1027" d="M69 429q0 -183 131 -311t315 -128q119 0 221 58t162 159.5t60 221.5q0 187 -130 315.5t-313 128.5q-121 0 -223.5 -58t-162.5 -160t-60 -226zM120 429q0 104 51 195t142.5 146.5t201.5 55.5q164 0 278.5 -118.5t114.5 -278.5q0 -156 -115 -274.5t-278 -118.5 q-110 0 -201.5 56t-142.5 146t-51 191zM158 1081q0 -11 14 -5l343 269l344 -269q12 -5 12 5v32q0 8 -5 13l-324 261q-11 7 -27.5 7t-25.5 -7l-324 -261q-7 -7 -7 -13v-32z" />
<glyph unicode="&#xf5;" horiz-adv-x="1027" d="M69 429q0 -183 131 -311t315 -128q119 0 221 58t162 159.5t60 221.5q0 187 -130 315.5t-313 128.5q-121 0 -223.5 -58t-162.5 -160t-60 -226zM120 429q0 104 51 195t142.5 146.5t201.5 55.5q164 0 278.5 -118.5t114.5 -278.5q0 -156 -115 -274.5t-278 -118.5 q-110 0 -201.5 56t-142.5 146t-51 191zM123 1234l18 -17q5 -5 13 1q16 19 27 29.5t35.5 29.5t56 29t67.5 10q46 0 83.5 -17t65.5 -41t56.5 -48t70 -41t92.5 -17q38 0 73 11.5t58 28t41 33t26 27.5l9 12q6 6 1 10l-19 19q-4 4 -10 -2l-1 -1q-76 -87 -183 -87 q-42 0 -78.5 16.5t-65 40.5t-58.5 47.5t-72.5 40t-93.5 16.5q-38 0 -73.5 -12t-59.5 -29.5t-43 -35t-27 -29.5l-9 -12q-6 -6 0 -12z" />
<glyph unicode="&#xf6;" horiz-adv-x="1027" d="M69 429q0 -183 131 -311t315 -128q119 0 221 58t162 159.5t60 221.5q0 187 -130 315.5t-313 128.5q-121 0 -223.5 -58t-162.5 -160t-60 -226zM120 429q0 104 51 195t142.5 146.5t201.5 55.5q164 0 278.5 -118.5t114.5 -278.5q0 -156 -115 -274.5t-278 -118.5 q-110 0 -201.5 56t-142.5 146t-51 191zM229 1342q0 16 11 27t27 11q18 0 29 -11t11 -27q0 -17 -11 -28.5t-29 -11.5q-16 0 -27 11.5t-11 28.5zM725 1342q0 16 11.5 27t27.5 11q18 0 29 -11t11 -27q0 -17 -11 -28.5t-29 -11.5q-16 0 -27.5 11.5t-11.5 28.5z" />
<glyph unicode="&#xf7;" horiz-adv-x="1076" d="M69 646v20q0 14 16 14h890q14 0 14 -14v-20q0 -14 -14 -14h-890q-16 0 -16 14zM453 231q0 30 25 55t55 25q29 0 51.5 -24.5t22.5 -55.5q0 -34 -22 -58t-52 -24q-31 0 -55.5 24.5t-24.5 57.5zM453 1074q0 30 25 55t55 25q29 0 51.5 -24.5t22.5 -55.5q0 -34 -22 -57.5 t-52 -23.5q-31 0 -55.5 24t-24.5 57z" />
<glyph unicode="&#xf8;" horiz-adv-x="1117" d="M87.5 -23.5q-0.5 1.5 6.5 9.5l144 144q-118 126 -118 299q0 124 60 226t162.5 160t223.5 58q173 0 300 -116l127 126q11 11 19 2l14 -14q8 -9 -2 -19l-127 -127q111 -125 111 -296q0 -120 -60 -221.5t-161.5 -159.5t-220.5 -58q-167 0 -295 109l-144 -144 q-8 -7 -10.5 -6.5t-8.5 6.5l-14 14q-6 6 -6.5 7.5zM172 429q0 -149 102 -262l556 553q-109 106 -264 106q-165 0 -279.5 -118.5t-114.5 -278.5zM307 135q110 -99 259 -99q108 0 199 56t142 146t51 191q0 147 -97 260z" />
<glyph unicode="&#xf9;" horiz-adv-x="966" d="M87 309v394v137q0 8 0.5 11.5t2.5 5.5t7 2h21q16 0 16 -21v-513q0 -129 74.5 -210.5t223.5 -81.5q118 0 210 51.5t182 141.5v616q0 17 11 17h26q10 0 10 -17v-832q0 -10 -8 -10h-28q-4 0 -7.5 4t-3.5 8v155q-184 -179 -387 -179q-70 0 -131.5 19.5t-111 57.5t-78.5 101 t-29 143zM269 1387l17 26q4 10 16 2l373 -264q7 -4 2 -12l-14 -21q-5 -9 -14 -5l-373 260q-10 6 -7 14z" />
<glyph unicode="&#xfa;" horiz-adv-x="966" d="M87 309v394v137q0 8 0.5 11.5t2.5 5.5t7 2h21q16 0 16 -21v-513q0 -129 74.5 -210.5t223.5 -81.5q118 0 210 51.5t182 141.5v616q0 17 11 17h26q10 0 10 -17v-832q0 -10 -8 -10h-28q-4 0 -7.5 4t-3.5 8v155q-184 -179 -387 -179q-70 0 -131.5 19.5t-111 57.5t-78.5 101 t-29 143zM231 1139q-5 8 2 12l373 264q11 8 15 -2l18 -26q3 -8 -7 -14l-373 -260q-9 -4 -14 5z" />
<glyph unicode="&#xfb;" horiz-adv-x="966" d="M87 309v394v137q0 8 0.5 11.5t2.5 5.5t7 2h21q16 0 16 -21v-513q0 -129 74.5 -210.5t223.5 -81.5q118 0 210 51.5t182 141.5v616q0 17 11 17h26q10 0 10 -17v-832q0 -10 -8 -10h-28q-4 0 -7.5 4t-3.5 8v155q-184 -179 -387 -179q-70 0 -131.5 19.5t-111 57.5t-78.5 101 t-29 143zM116 1081v32q0 6 7 13l325 261q9 7 25 7t27 -7l324 -261q6 -6 6 -13v-32q0 -11 -13 -5l-343 269l-344 -269q-14 -6 -14 5z" />
<glyph unicode="&#xfc;" horiz-adv-x="966" d="M87 309v394v137q0 8 0.5 11.5t2.5 5.5t7 2h21q16 0 16 -21v-513q0 -129 74.5 -210.5t223.5 -81.5q118 0 210 51.5t182 141.5v616q0 17 11 17h26q10 0 10 -17v-832q0 -10 -8 -10h-28q-4 0 -7.5 4t-3.5 8v155q-184 -179 -387 -179q-70 0 -131.5 19.5t-111 57.5t-78.5 101 t-29 143zM186 1342q0 16 11 27t27 11q18 0 29 -11t11 -27q0 -17 -11 -28.5t-29 -11.5q-16 0 -27 11.5t-11 28.5zM682 1342q0 16 11 27t27 11q18 0 29 -11t11 -27q0 -17 -11 -28.5t-29 -11.5q-16 0 -27 11.5t-11 28.5z" />
<glyph unicode="&#xfd;" horiz-adv-x="918" d="M49 -524q-6 9 3 22q108 122 221.5 284t169.5 294l-381 773q-4 10 4 10h43q5 0 9 -7l354 -718l344 715q7 10 14 10h38q12 0 5 -12l-373 -772q-162 -332 -417 -615q-8 -10 -15 0zM233 1139l13 -21q5 -9 14 -5l373 260q10 6 7 14l-17 26q-4 10 -16 2l-373 -264q-6 -4 -1 -12 z" />
<glyph unicode="&#xfe;" horiz-adv-x="987" d="M104 1373q0 15 11 15h24q14 0 14 -17v-607q139 102 317 102q78 0 151 -31t129.5 -86t90.5 -137.5t34 -179.5q0 -123 -46.5 -223.5t-137.5 -160.5t-212 -60q-89 0 -177 33.5t-149 87.5v-598q0 -21 -21 -21h-17q-9 0 -9 10v1793q0 14 -1 40.5t-1 39.5zM153 163 q153 -130 317 -130q158 0 257 113t99 286q0 93 -32 169t-85 123t-117 72t-132 25q-164 0 -307 -111v-547z" />
<glyph unicode="&#xff;" horiz-adv-x="918" d="M49 -524q-6 9 3 22q108 122 221.5 284t169.5 294l-381 773q-4 10 4 10h43q5 0 9 -7l354 -718l344 715q7 10 14 10h38q12 0 5 -12l-373 -772q-162 -332 -417 -615q-8 -10 -15 0zM187 1342q0 16 11.5 27t27.5 11q18 0 29 -11t11 -27q0 -17 -11 -28.5t-29 -11.5 q-16 0 -27.5 11.5t-11.5 28.5zM684 1342q0 16 11 27t27 11q18 0 29 -11t11 -27q0 -17 -11 -28.5t-29 -11.5q-16 0 -27 11.5t-11 28.5z" />
<glyph unicode="&#x152;" horiz-adv-x="2500" d="M104 694q0 194 96 356.5t260.5 256.5t360.5 94q228 0 410.5 -128t259.5 -334v436q0 8 3 10.5t11 2.5h885q16 0 16 -13v-21q0 -14 -16 -14h-847v-630h561q9 0 11 -3t2 -14v-16q0 -11 -2 -13.5t-11 -2.5h-561v-612h847q16 0 16 -18v-15q0 -10 -3.5 -13t-12.5 -3h-889 q-10 0 -10 12v436q-77 -205 -259.5 -332.5t-410.5 -127.5q-196 0 -360.5 93t-260.5 255.5t-96 357.5zM154 694q0 -181 89.5 -332t243 -237.5t334.5 -86.5q180 0 332 86.5t241.5 237.5t89.5 332t-89.5 332t-241.5 237.5t-332 86.5q-181 0 -334.5 -86.5t-243 -237.5 t-89.5 -332z" />
<glyph unicode="&#x153;" horiz-adv-x="1820" d="M69 429q0 124 60 226t162.5 160t223.5 58q140 0 254 -79.5t161 -208.5q45 128 152.5 207t245.5 79q179 0 301 -127t122 -307q0 -17 -3.5 -27t-12 -14t-14.5 -4.5t-20 -0.5h-745q5 -63 31.5 -124.5t73 -114t120 -85t161.5 -32.5q182 0 319 170q13 13 21 2l10 -9 q8 -11 0 -21q-147 -187 -352 -187q-141 0 -252.5 78.5t-157.5 207.5q-47 -127 -161.5 -206.5t-253.5 -79.5q-184 0 -315 128t-131 311zM120 429q0 -101 51 -191t142.5 -146t201.5 -56q153 0 264.5 105.5t126.5 250.5q-2 12 -2 38l2 39q-15 148 -126.5 252.5t-264.5 104.5 q-110 0 -201.5 -55.5t-142.5 -146.5t-51 -195zM956 476q2 -14 2 -42h745q0 48 -13.5 99.5t-43 104.5t-72 94.5t-106.5 67.5t-140 26q-86 0 -156 -32t-114 -84.5t-69 -111.5t-33 -122z" />
<glyph unicode="&#x178;" horiz-adv-x="1273" d="M26 1382q-4 6 4 6h41q9 0 11 -6l553 -750l556 750q4 6 10 6h42q3 0 4 -2t-1 -4l-585 -795v-571q0 -9 -2.5 -12.5t-11.5 -3.5h-20q-16 0 -16 17v570zM370 1788q0 16 11 27t27 11q18 0 29 -11t11 -27q0 -17 -11 -28.5t-29 -11.5q-16 0 -27 11.5t-11 28.5zM866 1788 q0 16 11 27t27 11q18 0 29 -11t11 -27q0 -17 -11 -28.5t-29 -11.5q-16 0 -27 11.5t-11 28.5z" />
<glyph unicode="&#x2c6;" horiz-adv-x="892" d="M90 1081q0 -11 14 -5l344 269l343 -269q13 -6 13 5v32q0 7 -6 13l-324 261q-11 7 -27 7t-25 -7l-325 -261q-7 -7 -7 -13v-32z" />
<glyph unicode="&#x2dc;" horiz-adv-x="935" d="M71 1234l18 -17q5 -5 13 1q16 19 27 29.5t35.5 29.5t56 29t67.5 10q46 0 83.5 -17t65.5 -41t56.5 -48t70 -41t92.5 -17q38 0 73 11.5t58 28t41 33t26 27.5l9 12q6 6 1 10l-19 19q-4 4 -10 -2l-1 -1q-76 -87 -183 -87q-42 0 -78.5 16.5t-65 40.5t-58.5 47.5t-72.5 40 t-93.5 16.5q-38 0 -73.5 -12t-59.5 -29.5t-43 -35t-27 -29.5l-9 -12q-6 -6 0 -12z" />
<glyph unicode="&#x2000;" horiz-adv-x="947" />
<glyph unicode="&#x2001;" horiz-adv-x="1895" />
<glyph unicode="&#x2002;" horiz-adv-x="947" />
<glyph unicode="&#x2003;" horiz-adv-x="1895" />
<glyph unicode="&#x2004;" horiz-adv-x="631" />
<glyph unicode="&#x2005;" horiz-adv-x="473" />
<glyph unicode="&#x2006;" horiz-adv-x="315" />
<glyph unicode="&#x2007;" horiz-adv-x="315" />
<glyph unicode="&#x2008;" horiz-adv-x="236" />
<glyph unicode="&#x2009;" horiz-adv-x="379" />
<glyph unicode="&#x200a;" horiz-adv-x="105" />
<glyph unicode="&#x2010;" horiz-adv-x="744" d="M69 432v21q0 12 16 12h576q9 0 11.5 -2t2.5 -10v-21q0 -9 -2.5 -11.5t-11.5 -2.5h-576q-9 0 -12.5 2.5t-3.5 11.5z" />
<glyph unicode="&#x2011;" horiz-adv-x="744" d="M69 432v21q0 12 16 12h576q9 0 11.5 -2t2.5 -10v-21q0 -9 -2.5 -11.5t-11.5 -2.5h-576q-9 0 -12.5 2.5t-3.5 11.5z" />
<glyph unicode="&#x2012;" horiz-adv-x="744" d="M69 432v21q0 12 16 12h576q9 0 11.5 -2t2.5 -10v-21q0 -9 -2.5 -11.5t-11.5 -2.5h-576q-9 0 -12.5 2.5t-3.5 11.5z" />
<glyph unicode="&#x2013;" horiz-adv-x="1214" d="M139 538v17q0 8 2.5 10.5t11.5 2.5h909q14 0 14 -13v-17q0 -9 -3 -11.5t-11 -2.5h-909q-9 0 -11.5 2.5t-2.5 11.5z" />
<glyph unicode="&#x2014;" horiz-adv-x="1617" d="M104 538v17q0 8 2.5 10.5t11.5 2.5h1380q15 0 15 -13v-17q0 -9 -3 -11.5t-12 -2.5h-1380q-9 0 -11.5 2.5t-2.5 11.5z" />
<glyph unicode="&#x2018;" horiz-adv-x="258" d="M68 1095q-2 56 14 160q18 87 55 158q7 15 16 12l7 -2q12 0 5 -14q-35 -82 -42 -152q-3 -38 -3 -101q27 0 40.5 -13t13.5 -48q0 -38 -9 -49.5t-45 -11.5q-32 0 -41.5 10t-9.5 39q-1 1 -1 12z" />
<glyph unicode="&#x2019;" horiz-adv-x="225" d="M50 1364q0 38 9 49.5t45 11.5q35 0 42.5 -11t7.5 -50q4 -69 -13 -159q-14 -82 -54 -158q-7 -13 -18 -13l-5 2q-12 0 -5 14q35 82 40 153q5 66 3 100q-26 0 -39 13.5t-13 47.5z" />
<glyph unicode="&#x201a;" horiz-adv-x="581" d="M113 30q0 38 9 49t45 11q33 0 41.5 -9t8.5 -39l2 -12q2 -56 -14 -160q-19 -94 -56 -158q-7 -14 -15 -12l-7 1q-13 0 -6 14q34 71 42 153q6 73 4 101q-27 0 -40.5 13t-13.5 48zM371 30q0 38 9 49t45 11q35 0 43 -10.5t8 -49.5q4 -65 -14 -160q-14 -82 -54 -158 q-7 -14 -17 -12l-6 1q-12 0 -5 14q35 82 42 153q3 38 3 101q-27 0 -40.5 13t-13.5 48z" />
<glyph unicode="&#x201c;" horiz-adv-x="517" d="M76 1093q-4 68 14 160q14 82 54 158q7 14 17 14l6 -4q11 0 5 -13q-34 -76 -42 -153q-3 -38 -3 -101q27 0 40.5 -13t13.5 -48q0 -38 -9 -48.5t-45 -10.5q-35 0 -43 10t-8 49zM333 1093q-2 59 14 160q19 94 56 158q7 14 15 14l7 -4q11 0 5 -13q-32 -64 -41 -153 q-6 -73 -4 -101q27 0 40.5 -13t13.5 -48q0 -38 -9 -48.5t-45 -10.5q-33 0 -41.5 9t-8.5 38z" />
<glyph unicode="&#x201d;" horiz-adv-x="517" d="M85 1364q0 38 10 49.5t46 11.5q33 0 40.5 -10.5t9.5 -45.5v-5q2 -56 -14 -159q-19 -94 -56 -158q-7 -13 -15 -13l-7 2q-12 0 -5 14q32 68 41 153q6 73 4 100q-27 0 -40.5 13t-13.5 48zM344 1364q0 38 9 49.5t44 11.5q32 0 41.5 -10t9.5 -39q2 -3 2 -12q2 -56 -14 -159 q-17 -84 -56 -158q-7 -13 -16 -13l-6 2q-13 0 -6 14q35 82 42 153q3 38 3 100q-27 0 -40 13t-13 48z" />
<glyph unicode="&#x201e;" horiz-adv-x="590" d="M113 30q0 38 9 49t45 11q33 0 41.5 -9t8.5 -39l2 -12q2 -56 -14 -160q-19 -94 -56 -158q-7 -14 -15 -12l-7 1q-13 0 -6 14q34 71 42 153q6 73 4 101q-27 0 -40.5 13t-13.5 48zM371 30q0 38 9 49t45 11q35 0 43 -10.5t8 -49.5q4 -65 -14 -160q-14 -82 -54 -158 q-7 -14 -17 -12l-6 1q-12 0 -5 14q35 82 42 153q3 38 3 101q-27 0 -40.5 13t-13.5 48z" />
<glyph unicode="&#x2022;" horiz-adv-x="336" d="M87 436q0 32 26.5 58.5t58.5 26.5q31 0 54.5 -26.5t23.5 -58.5q0 -36 -23 -61.5t-55 -25.5q-33 0 -59 25.5t-26 61.5z" />
<glyph unicode="&#x2026;" horiz-adv-x="1098" d="M87 35q0 15 9.5 24.5t24.5 9.5q14 0 24.5 -10t10.5 -24q0 -15 -10 -25t-25 -10q-16 0 -25 9.5t-9 25.5zM515 35q0 14 10.5 24t24.5 10q16 0 25.5 -9.5t9.5 -24.5q0 -16 -9.5 -25.5t-25.5 -9.5q-15 0 -25 10t-10 25zM942 35q0 14 10.5 24t24.5 10q15 0 25 -9.5t10 -24.5 q0 -16 -9.5 -25.5t-25.5 -9.5q-15 0 -25 10t-10 25z" />
<glyph unicode="&#x202f;" horiz-adv-x="379" />
<glyph unicode="&#x2039;" horiz-adv-x="529" d="M88 399q0 -17 7 -26l285 -352q5 -5 9 -5h47q11 0 3 8l-302 377l302 364q2 2 1 5.5t-3 3.5h-43q-7 0 -12 -5l-287 -346q-7 -7 -7 -24z" />
<glyph unicode="&#x203a;" horiz-adv-x="527" d="M89 24q-5 -8 3 -8h49q2 0 7 5l286 352q8 9 8 26t-8 24l-288 346q-3 5 -12 5h-42q-3 0 -3 -9l303 -364z" />
<glyph unicode="&#x205f;" horiz-adv-x="473" />
<glyph unicode="&#x20ac;" horiz-adv-x="1395" d="M17 554v26q0 10 11 10h87q-9 65 -9 109q0 48 9 113h-87q-11 0 -11 11v26q0 12 11 12h97q55 240 249.5 397t446.5 157q139 0 265 -51.5t224 -143.5q20 -20 14 -31l-12 -12q-9 -12 -22 1q-45 44 -104 83.5t-154.5 73.5t-191.5 34q-110 0 -207.5 -29t-170.5 -78t-131.5 -115 t-96 -137.5t-57.5 -148.5h646q10 0 10 -12v-26q0 -11 -10 -11h-658q-11 -60 -11 -113q0 -49 11 -109h658q10 0 10 -10v-26q0 -11 -10 -11h-648q25 -98 78.5 -187t134 -163.5t197.5 -118.5t255 -44q73 0 143.5 17.5t126 47t96.5 58.5t75 62q2 2 4.5 5t4 4.5t3.5 3t3.5 2 t3.5 1t3.5 -0.5t3.5 -3l16 -15q9 -10 -14 -33q-206 -193 -488 -193q-254 0 -449 157.5t-249 399.5h-95q-11 0 -11 11z" />
<glyph unicode="&#x2122;" horiz-adv-x="1174" d="M52 1359v16q0 8 3 10.5t11 2.5h377q8 0 10 -2t2 -11v-16q0 -7 -2.5 -9.5t-9.5 -2.5h-167v-465q0 -14 -14 -14h-14q-14 0 -14 14v465h-168q-14 0 -14 12zM540 882v494q4 11 8 12h25q10 0 15 -8l238 -445l247 445q5 8 17 8h24q9 0 9 -12v-494q0 -14 -14 -14h-12 q-16 0 -16 14v430l-236 -423q-8 -14 -17 -14h-4q-11 0 -19 14l-224 421v-428q0 -6 -0.5 -8.5t-3.5 -4t-9 -1.5h-13q-15 0 -15 14z" />
<glyph unicode="&#x25fc;" horiz-adv-x="859" d="M0 0v859h859v-859h-859z" />
<glyph unicode="&#xfb03;" horiz-adv-x="1574" d="M61 826v17q0 16 15 16h170v182q0 176 98 268.5t255 92.5q169 0 305 -126q91 121 283 121q114 0 208 -66q18 -10 11 -19l-11 -19q-7 -12 -19 -3q-85 62 -189 62q-34 0 -68.5 -5.5t-79 -25.5t-77.5 -52t-56 -91t-23 -137v-182h547q8 0 11 -2.5t3 -11.5v-831q0 -14 -10 -14 h-26q-13 0 -13 16v798h-512v-797q0 -7 -0.5 -10t-3 -5t-8.5 -2h-24q-12 0 -12 17v2v795h-540v-797q0 -7 -0.5 -10t-3 -5t-8.5 -2h-23q-14 0 -14 19v795h-173q-7 0 -9.5 2t-2.5 10zM295 859h540v182q0 117 47 202q-118 114 -283 114q-33 0 -68 -6t-79 -26.5t-77.5 -53.5 t-56.5 -92.5t-23 -137.5v-182z" />
<glyph unicode="&#xfb04;" horiz-adv-x="1650" d="M61 826v17q0 16 15 16h170v182q0 176 98 268.5t255 92.5q172 0 304 -126q95 126 284 126q158 0 285 -109v82q0 9 2.5 11t11.5 2h20q6 0 8.5 -0.5t4 -3.5t1.5 -9v-1359q0 -16 -14 -16h-19q-15 0 -15 17v1224q-125 116 -285 116q-33 0 -68 -6t-79 -26.5t-77.5 -53.5 t-56.5 -92.5t-23 -137.5v-182h315q7 0 8.5 -2t1.5 -10v-21q0 -8 -1.5 -10t-8.5 -2h-315v-797q0 -7 -0.5 -10t-3 -5t-8.5 -2h-22q-14 0 -14 19v795h-540v-797q0 -7 -0.5 -10t-3 -5t-8.5 -2h-23q-14 0 -14 19v795h-173q-7 0 -9.5 2t-2.5 10zM295 859h540v182q0 117 47 202 q-123 114 -283 114q-33 0 -68 -6t-79 -26.5t-77.5 -53.5t-56.5 -92.5t-23 -137.5v-182z" />
</font>
</defs>
</svg>
