<?xml version="1.0" standalone="no"?>
<!DOCTYPE svg PUBLIC "-//W3C//DTD SVG 1.1//EN" "http://www.w3.org/Graphics/SVG/1.1/DTD/svg11.dtd" >
<svg xmlns="http://www.w3.org/2000/svg" xmlns:xlink="http://www.w3.org/1999/xlink" version="1.1">
<metadata></metadata>
<defs>
<font id="venti_cfblack_oblique" horiz-adv-x="947" >
<font-face units-per-em="2048" ascent="1638" descent="-410" />
<missing-glyph horiz-adv-x="515" />
<glyph unicode="&#xfb01;" horiz-adv-x="1204" d="M62 621l18 172q4 31 24 48.5t50 17.5h58l21 191q17 168 126 257.5t271 89.5q65 0 129.5 -18t104.5 -48q10 -7 12.5 -21t-5.5 -27l-93 -164q-19 -33 -49 -17q-2 1 -17.5 6.5t-24 8t-24.5 5.5t-30 3q-42 0 -77.5 -26.5t-40.5 -74.5l-17 -165h568q14 0 23.5 -10.5t7.5 -24.5 l-83 -788q-1 -17 -11.5 -26.5t-25.5 -9.5h-163q-42 0 -63 26t-17 68l52 503h-316l-59 -561q-1 -15 -13 -25.5t-27 -10.5h-159q-41 0 -62.5 26.5t-17.5 67.5l54 503h-101q-26 0 -23 24z" />
<glyph unicode="&#xfb02;" horiz-adv-x="1214" d="M59 621l17 172q4 31 24 48.5t51 17.5h57l19 186q19 173 132 265t292 92q111 0 229 -53v5q2 15 12.5 24.5t25.5 9.5h217q14 0 23 -10t8 -24l-139 -1318q-1 -17 -11 -26.5t-25 -9.5h-163q-42 0 -63 26t-17 68l102 975q-99 61 -197 61q-59 0 -97.5 -28.5t-45.5 -82.5 l-17 -160h154q11 0 18.5 -7.5t6.5 -18.5l-23 -210q-2 -11 -10.5 -18.5t-18.5 -7.5h-153l-59 -561q-1 -15 -13 -25.5t-27 -10.5h-160q-41 0 -62.5 26.5t-17.5 67.5l53 503h-99q-26 0 -23 24z" />
<glyph horiz-adv-x="0" />
<glyph horiz-adv-x="682" />
<glyph unicode=" "  horiz-adv-x="515" />
<glyph unicode="&#x09;" horiz-adv-x="515" />
<glyph unicode="&#xa0;" horiz-adv-x="515" />
<glyph unicode="!" horiz-adv-x="557" d="M49 170q9 76 69.5 130t134.5 54q76 0 124 -54t40 -130q-7 -75 -67.5 -128.5t-136.5 -53.5q-75 0 -123 53.5t-41 128.5zM174 587l22 742l2 25q2 13 12.5 23.5t25.5 10.5h250q14 0 23.5 -10.5t7.5 -23.5l-2 -25l-131 -742q-2 -15 -13.5 -26t-25.5 -11h-138q-16 0 -25 10 t-8 27z" />
<glyph unicode="&#x22;" horiz-adv-x="751" d="M85 913l42 404q2 15 13 26t25 11h194q16 0 26.5 -11t6.5 -26l-93 -404q-2 -15 -13 -25t-26 -10h-142q-14 0 -24 10.5t-9 24.5zM467 913l42 404q2 15 13 26t25 11h194q16 0 26.5 -11t6.5 -26l-94 -404q-6 -35 -38 -35h-142q-14 0 -24 10.5t-9 24.5z" />
<glyph unicode="#" horiz-adv-x="1148" d="M42 413l15 146q2 16 13 26t27 10h169l52 216h-131q-15 0 -24.5 10t-8.5 24l14 146q2 16 13 26t27 10h163l82 327q9 34 38 34h139q15 0 26 -10t7 -24l-82 -327h172l82 327q9 34 38 34h139q15 0 26 -10t7 -24l-82 -327h132q15 0 24 -9.5t7 -24.5l-13 -146q-2 -14 -13.5 -25 t-25.5 -11h-165l-52 -216h127q15 0 24 -9.5t7 -24.5l-15 -146q-2 -15 -13 -26t-25 -11h-158l-85 -342q-4 -15 -14.5 -25.5t-24.5 -10.5h-138q-16 0 -26.5 10.5t-6.5 25.5l85 342h-172l-85 -342q-4 -15 -14 -25.5t-24 -10.5h-139q-16 0 -26.5 10.5t-6.5 25.5l85 342h-137 q-14 0 -24 10.5t-9 24.5zM476 595h171l54 216h-172z" />
<glyph unicode="$" horiz-adv-x="1109" d="M45 238l144 161q17 18 38.5 21t32.5 -9l36 -31q37 -31 59 -46t65 -32t83 -17q74 0 122.5 28t54.5 84q7 57 -32.5 93t-159.5 88q-63 27 -111.5 53t-99.5 65.5t-82.5 82.5t-48.5 102t-9 127q13 125 104 234.5t243 151.5l14 130q5 35 40 35h229q33 0 28 -35l-12 -125 q89 -23 155.5 -66t101.5 -80q34 -34 5 -66l-132 -156q-40 -45 -76 -19q-2 2 -23 18t-32.5 24.5t-36 23.5t-44 23.5t-46 15t-51.5 6.5q-66 0 -109 -34.5t-47 -81.5q-7 -50 33 -84t165 -88q62 -25 108 -47.5t102.5 -63t91 -84.5t54 -108.5t10.5 -139.5q-17 -134 -120.5 -242 t-256.5 -148l-12 -123q-5 -35 -36 -35h-229q-37 0 -32 35l12 121q-30 8 -59.5 19t-52 22t-45.5 26t-38 26.5t-32.5 27t-25.5 23.5l-20.5 20.5l-14.5 14.5q-31 31 -5 59z" />
<glyph unicode="%" horiz-adv-x="1260" d="M59.5 11q-6.5 11 4.5 27l896 1326q17 24 40 24h194q18 0 25 -11t-4 -28l-894 -1325q-17 -24 -42 -24h-194q-19 0 -25.5 11zM108 1142q11 96 86 163.5t172 67.5q95 0 156 -68t51 -163q-9 -97 -84 -165.5t-171 -68.5t-158 68.5t-52 165.5zM703 229q10 96 86.5 164.5 t172.5 68.5q95 0 156 -68.5t52 -164.5q-10 -96 -86 -164t-171 -68q-96 0 -157.5 68t-52.5 164z" />
<glyph unicode="&#x26;" horiz-adv-x="1166" d="M-52 396.5q10 67.5 40 134.5q34 75 96.5 131t156.5 105q-48 67 -85 125q-51 88 -39.5 191.5t77.5 186.5q65 83 148.5 120t192.5 37q113 0 188 -36t124 -127q32 -62 36 -133t-20.5 -144t-90 -143.5t-166.5 -123.5l119 -168q38 114 61 175q15 38 51 38h272q19 0 28.5 -12 t2.5 -29q-45 -107 -64 -176q-5 -29 -42 -29h-74l-73 -165q65 -89 160 -104q18 -2 29.5 -14.5t9.5 -28.5l-17 -160q-5 -41 -42 -44q-220 -13 -341 134q-47 -41 -87.5 -66t-100.5 -43q-91 -27 -180 -28.5t-173 31.5t-135 103q-42 57 -57 126t-5 136.5zM246.5 457.5 q-35.5 -76.5 3.5 -138.5q20 -31 57.5 -45t81.5 -10q93 8 151 66l-174 241q-84 -37 -119.5 -113.5zM385 1092q-8 -37 13.5 -79.5t73.5 -104.5q133 96 142 170q5 57 -33.5 88.5t-99.5 18.5q-37 -8 -63 -32.5t-33 -60.5z" />
<glyph unicode="'" horiz-adv-x="362" d="M85 913l42 404q2 15 13 26t25 11h194q16 0 26.5 -11t6.5 -26l-93 -404q-2 -15 -13 -25t-26 -10h-142q-14 0 -24 10.5t-9 24.5z" />
<glyph unicode="(" horiz-adv-x="767" d="M83 661q41 381 209.5 600t462.5 259q14 2 22 -6.5t6 -22.5l-14 -212q-3 -30 -33 -33q-164 -20 -247 -165.5t-111 -419.5q-18 -177 -5.5 -300t71 -191.5t169.5 -82.5q30 -3 26 -33l-30 -219q-4 -34 -36 -29q-282 40 -405 264t-85 591z" />
<glyph unicode=")" horiz-adv-x="767" d="M-23 -165l16 219q4 30 33 33q70 8 123.5 37t92.5 75t66.5 115.5t45 153t28.5 193.5q17 176 4.5 301t-71 197.5t-166.5 86.5q-29 3 -26 33l28 212q2 15 11.5 23t23.5 6q287 -40 409.5 -259t81.5 -600q-38 -367 -208 -591t-462 -264q-15 -2 -23.5 6t-6.5 23z" />
<glyph unicode="*" horiz-adv-x="715" d="M94 935q-16 30 17 47l160 84l-143 83q-28 18 -7 47l60 81q22 29 46 11l120 -90l7 156q4 34 38 34h94q38 0 31 -34l-24 -156l137 90q33 19 49 -11l40 -81q15 -28 -16 -47l-160 -83l143 -84q26 -18 5 -47l-58 -81q-22 -30 -48 -11l-120 91l-9 -156q0 -35 -38 -35h-93 q-35 0 -32 35l25 154l-136 -89q-32 -18 -47 11z" />
<glyph unicode="+" horiz-adv-x="1100" d="M115 533l19 194q3 35 40 35h260l28 262q3 35 38 35h194q16 0 24.5 -9.5t6.5 -25.5l-27 -262h264q34 0 31 -35l-21 -194q-2 -16 -12 -25.5t-26 -9.5h-262l-28 -262q-2 -16 -12 -25.5t-26 -9.5h-195q-36 0 -33 35l28 262h-260q-16 0 -24.5 9.5t-6.5 25.5z" />
<glyph unicode="," horiz-adv-x="498" d="M21 153q7 70 61.5 119t124.5 49h1q72 0 118.5 -49.5t48.5 -120.5q4 -69 -5.5 -123t-36.5 -122q-32 -77 -92.5 -141.5t-124.5 -101.5q-28 -11 -40 6l-33 45q-7 14 4 22q72 52 117.5 110.5t57.5 144.5q-22 -7 -50 -7q-69 0 -113.5 50t-37.5 119z" />
<glyph unicode="-" horiz-adv-x="728" d="M69 340v177q0 16 10.5 26.5t26.5 10.5h519q15 0 25 -10t10 -25v-177q0 -14 -10.5 -25.5t-24.5 -11.5h-519q-14 0 -25.5 10.5t-11.5 24.5z" />
<glyph unicode="." horiz-adv-x="515" d="M75 167q0 76 54 130t130 54q74 0 128 -54t54 -130t-54 -130t-128 -54q-76 0 -130 54t-54 130z" />
<glyph unicode="/" horiz-adv-x="772" d="M-17 36l527 1318q13 34 40 34h226q16 0 26 -10t5 -24l-528 -1318q-12 -36 -39 -36h-226q-15 0 -25.5 11t-5.5 25z" />
<glyph unicode="0" horiz-adv-x="1227" d="M85 663q15 143 61 266t120 219t183.5 151t241.5 55q90 0 164 -25.5t127 -71t92 -109t57.5 -140.5t25.5 -164.5t-5 -180.5q-12 -113 -42.5 -213.5t-82 -187t-120 -149.5t-161 -98.5t-199.5 -35.5q-132 0 -230 54t-152 149t-74.5 217t-5.5 264zM375 509.5 q6 -73.5 25.5 -130t65.5 -90.5t114 -34q237 0 277 408q46 415 -192 415q-67 0 -119.5 -33.5t-85 -93.5t-51.5 -130.5t-29 -157.5q-11 -80 -5 -153.5z" />
<glyph unicode="1" horiz-adv-x="687" d="M111 1088q0 18 7.5 27.5t27.5 14.5q90 27 224 165l24 28q13 13 33 13h205q14 0 24 -10t9 -24l-134 -1266q-2 -14 -13 -25t-25 -11h-224q-16 0 -25 10t-8 26l95 898l-182 -35q-33 -8 -36 28z" />
<glyph unicode="2" horiz-adv-x="1063" d="M36 35l7 60l519 589q71 77 110 136t45 115q7 63 -34.5 107t-114.5 44q-41 0 -76.5 -11t-71 -37t-54 -43t-57.5 -56q-25 -28 -52 0l-120 132q-9 11 -8 25t12 25q200 243 477 243q173 0 292 -114.5t102 -289.5q-16 -159 -148 -307l-335 -377h386q36 0 33 -35l-23 -205 q-1 -13 -22 -24.5t-37 -11.5h-797q-13 0 -23.5 10.5t-9.5 24.5z" />
<glyph unicode="3" horiz-adv-x="1076" d="M49 217q-18 26 7 49l166 142q25 23 49 -4q115 -138 232 -138q72 0 121 49t55 107q5 54 -26.5 93.5t-86.5 39.5q-22 0 -56 -11t-43 -11q-16 0 -26 14l-96 149q-16 27 7 50l327 311h-462q-15 0 -25.5 10.5t-9.5 24.5l23 208q1 16 13 26t28 10h748q36 0 33 -34l-22 -203 q-3 -37 -31 -65l-262 -253q93 -22 154 -83q62 -56 90 -137.5t19 -176.5q-12 -108 -86 -201.5t-182.5 -146.5t-222.5 -53q-143 0 -245.5 58t-189.5 176z" />
<glyph unicode="4" horiz-adv-x="1065" d="M47 295l21 205q3 19 17 29q257 194 413 502q61 124 82 288q2 16 12 25.5t26 9.5h227q16 0 25.5 -10.5t7.5 -26.5q-18 -137 -64.5 -269t-110.5 -234q-99 -154 -236 -278h149l7 59q1 14 12.5 25t27.5 13l203 32q15 2 24 -10t7 -28l-8 -91h57q34 0 31 -34l-22 -205 q-2 -14 -13.5 -25.5t-25.5 -11.5h-57l-24 -225q-3 -35 -38 -35h-200q-14 0 -24 10.5t-9 24.5l24 225h-508q-14 0 -24 10.5t-9 24.5z" />
<glyph unicode="5" horiz-adv-x="1069" d="M39 232q2 10 15 25l166 156q27 27 49 -2q100 -135 231 -135q67 0 112 41.5t53 105.5q5 60 -32 102.5t-100 42.5q-54 0 -111 -26l-248 55q-15 4 -24.5 16t-8.5 26l69 657q2 17 13.5 28.5t29.5 11.5q264 -7 354 -7q92 0 351 7q38 0 35 -36l-21 -200q-1 -14 -12.5 -24 t-24.5 -12q-120 -10 -298 -10q-119 0 -161 3l-25 -224q83 24 172 24q91 0 163 -37.5t114.5 -99t61.5 -139t10 -158.5q-20 -182 -165 -311t-340 -129q-122 0 -230.5 57t-189.5 167q-10 15 -8 25z" />
<glyph unicode="6" horiz-adv-x="1070" d="M71 552q13 116 51.5 228.5t103 213.5t147.5 179.5t192.5 126.5t229.5 54q18 1 28 -9t8 -28l-14 -208q0 -14 -12.5 -22.5t-28.5 -8.5q-129 -1 -228.5 -83t-141.5 -197q81 39 170 39q183 0 299 -123t97 -303q-18 -182 -159 -305t-339 -123q-140 0 -238 74t-140 202.5 t-25 292.5zM352 417q-7 -70 36 -118.5t114 -48.5q67 0 119 48t59 115t-36 116t-108 49q-68 0 -122 -49t-62 -112z" />
<glyph unicode="7" horiz-adv-x="1032" d="M63.5 18q-3.5 18 2.5 29l564 1007h-484q-15 0 -25.5 10t-9.5 24l23 212q1 16 13 26t28 10h830q34 0 31 -34l-7 -63q-2 -11 -12 -36l-647 -1180q-12 -23 -49 -23h-238q-16 0 -19.5 18z" />
<glyph unicode="8" horiz-adv-x="1058" d="M54 366q-18 -165 92.5 -274t315.5 -109q207 0 341.5 108.5t152.5 274.5q5 55 -5 103.5t-29 82t-47.5 63t-53.5 47t-54 31.5l2 6q195 99 215 289q17 156 -90.5 261t-287.5 105q-177 0 -305.5 -105t-144.5 -261q-6 -57 5.5 -106.5t36 -84.5t51.5 -58.5t58 -40.5v-5 q-29 -13 -64 -37.5t-77.5 -64.5t-73.5 -99.5t-38 -125.5zM340 378q7 64 57.5 112t124.5 48q75 0 114.5 -47.5t33.5 -112.5q-7 -62 -59.5 -105.5t-121.5 -43.5q-68 0 -112 43.5t-37 105.5zM425 977q5 52 51 91t104 39q60 0 98.5 -39t33.5 -91q-6 -51 -51 -93t-107 -42 q-63 0 -99.5 41t-29.5 94z" />
<glyph unicode="9" horiz-adv-x="1070" d="M175 925q18 182 159 305.5t339 123.5q140 0 238 -74t139.5 -203t23.5 -293q-12 -116 -50 -228.5t-102.5 -213.5t-147.5 -179t-192.5 -126t-230.5 -54q-18 -1 -27.5 8.5t-9.5 27.5l14 208q1 14 13.5 23t28.5 9q130 1 228.5 82t142.5 197q-79 -38 -170 -38 q-183 0 -299 122.5t-97 302.5zM467 923q-8 -67 34.5 -116t109.5 -49q68 0 121.5 49t60.5 113q8 69 -35 117.5t-114 48.5q-66 0 -119 -48.5t-58 -114.5z" />
<glyph unicode=":" horiz-adv-x="522" d="M40 163q8 71 65 122.5t128 51.5t117 -52t39 -122q-7 -71 -64.5 -123t-128.5 -52t-117.5 52t-38.5 123zM95 694q8 71 65 123.5t128 52.5t117.5 -52.5t38.5 -123.5q-7 -71 -64 -122t-128 -51t-117.5 51t-39.5 122z" />
<glyph unicode=";" horiz-adv-x="508" d="M40 163q8 71 65 122.5t128 51.5q77 0 125 -56q45 -46 48 -123q7 -125 -43 -252q-33 -80 -95.5 -146.5t-128.5 -103.5q-29 -15 -42 6l-33 46q-9 13 4 23q73 52 121 114t61 150q-40 -7 -54 -7q-71 0 -117.5 52t-38.5 123zM95 694q8 71 65 123.5t128 52.5t117.5 -52.5 t38.5 -123.5q-7 -71 -64 -122t-128 -51t-117.5 51t-39.5 122z" />
<glyph unicode="&#x3c;" horiz-adv-x="864" d="M73 637q-4 -21 14 -31l583 -379q16 -12 34 -2t20 32l21 198q2 19 -16 29l-281 160l316 163q18 12 20 30l21 197q2 22 -13.5 32t-33.5 -2l-664 -387q-7 -4 -13 -13.5t-8 -17.5v-9z" />
<glyph unicode="=" horiz-adv-x="1041" d="M66 326l17 177q2 16 14 26.5t28 10.5h779q15 0 23.5 -10t7.5 -25l-19 -177q-2 -14 -13 -25t-25 -11h-779q-15 0 -24.5 10t-8.5 24zM115 779l17 177q2 16 13 26.5t27 10.5h779q15 0 23.5 -10t7.5 -25l-17 -177q-2 -14 -13 -25t-25 -11h-779q-15 0 -25 10t-8 24z" />
<glyph unicode="&#x3e;" horiz-adv-x="864" d="M68 257q-2 -22 12.5 -31.5t34.5 1.5l663 384q16 8 20 31l2 9q0 21 -14 31l-583 382q-17 11 -34.5 1.5t-19.5 -31.5l-21 -197q-2 -14 14 -30l281 -161l-315 -162q-17 -9 -19 -29z" />
<glyph unicode="?" horiz-adv-x="808" d="M97 1191q-16 23 4 43q180 184 399 181q90 -3 175 -39q90 -39 133 -133t20 -202.5t-109 -183.5q-38 -33 -76 -63t-54.5 -43.5t-33.5 -28.5t-23 -31.5t-11 -39.5t-9 -64q-2 -15 -13 -26t-25 -11h-189q-16 0 -25.5 10.5t-7.5 26.5l10 137q3 27 31.5 59t68 62.5l79 61 t69.5 63.5t35 61q11 66 -25 99t-98 33q-16 0 -30.5 -2.5t-29 -9t-25 -11.5t-25.5 -16.5t-22.5 -17.5t-25 -20.5t-23.5 -19.5q-27 -22 -43 0zM148 170q9 76 69.5 130t134.5 54q75 0 123 -54t40 -130q-7 -75 -67 -128.5t-136 -53.5q-75 0 -123 53.5t-41 128.5z" />
<glyph unicode="@" horiz-adv-x="2025" d="M92 491q27 252 170.5 463.5t372 336t491.5 124.5q157 0 293.5 -47.5t232 -127.5t162 -181.5t93.5 -213t16 -218.5q-9 -89 -27.5 -170.5t-56 -167.5t-89 -148.5t-132 -102.5t-179.5 -40q-170 0 -203 163q-45 -51 -113 -90q-96 -57 -201 -61q-49 -3 -97 5t-94 28 t-78.5 60.5t-39.5 96.5q-19 153 99 234.5t407 138.5q4 25 -12.5 43t-51.5 23q-49 11 -123 -0.5t-154 -44.5q-39 -16 -47 17l-32 146q-2 12 6.5 25t21.5 20q165 83 351 80q156 -4 245 -88.5t67 -225.5q-14 -104 -19 -160q-2 -83 24 -112.5t75 -29.5q76 0 112 83.5t55 257.5 q10 97 -20.5 190t-96.5 169t-178.5 122.5t-253.5 46.5q-285 0 -485.5 -181.5t-229.5 -462.5q-17 -158 40 -301.5t176 -240t274 -117.5q24 -4 19 -37l-21 -215q-2 -28 -50 -24q-149 15 -274.5 75.5t-212.5 152t-144.5 206.5t-79.5 243t-8 258zM859.5 289q-6.5 -22 5 -41.5 t38.5 -23.5q87 -18 182 55q0 4 10 101q-178 -38 -208 -57q-21 -12 -27.5 -34z" />
<glyph unicode="A" horiz-adv-x="1522" d="M11.5 11.5q-5.5 11.5 4.5 28.5l793 1340q10 17 28 17h17q17 0 24 -17l510 -1340q7 -17 -1 -28.5t-26 -11.5h-247q-25 0 -33 23l-62 173h-599l-99 -173q-15 -23 -40 -23h-246q-18 0 -23.5 11.5zM573 462h349l-136 373z" />
<glyph unicode="B" horiz-adv-x="1190" d="M45 36l139 1318q2 15 12.5 24.5t25.5 9.5h505q82 0 153.5 -34.5t115.5 -87.5q46 -54 68 -119q18 -51 17 -100q0 -13 -1 -26q-19 -171 -162 -268q94 -63 140 -156q37 -74 36 -157q0 -21 -2 -43q-12 -112 -81.5 -204.5t-168.5 -142.5t-203 -50h-561q-16 0 -25 10t-8 26z M366 276h231q103 0 155 74q30 42 30 86q0 20 -6 41q-21 68 -98 87q-23 5 -50 5h-231zM425 833h188q91 0 136 70q27 41 27 83q0 29 -13 57q-31 70 -123 70h-185z" />
<glyph unicode="C" horiz-adv-x="1391" d="M83 693q21 193 133 356t284.5 257.5t363.5 94.5q149 0 277.5 -59t215.5 -165q23 -26 -8 -49l-197 -149q-25 -21 -48 2q-113 133 -274 133q-107 0 -206 -57.5t-164.5 -155t-77.5 -208.5q-2 -24 -2 -46q0 -142 92 -249q106 -124 269 -124q159 0 300 129q24 23 49 1 l163 -145q24 -24 -2 -49q-108 -105 -247.5 -163.5t-288.5 -58.5q-192 0 -345 94q-152 94 -230 256q-61 128 -61 274q0 40 4 81z" />
<glyph unicode="D" horiz-adv-x="1407" d="M45 36l139 1318q2 15 12.5 24.5t25.5 9.5h462q131 0 242.5 -40.5t188.5 -108.5t129 -157t72 -187q13 -65 13 -131q0 -33 -3 -65q-15 -140 -77.5 -266t-162 -222.5t-242 -153.5t-306.5 -57h-460q-16 0 -25 10t-8 26zM370 290h198q94 0 176.5 35t139.5 93t93 131t45 152 q2 22 2 44q0 55 -14 106q-20 71 -65.5 126.5t-121 88.5t-170.5 33h-197z" />
<glyph unicode="E" horiz-adv-x="1166" d="M71 36l139 1318q2 15 12.5 24.5t25.5 9.5h849q15 0 24.5 -10t8.5 -24l-21 -207q-1 -15 -12.5 -24.5t-27.5 -9.5h-588l-31 -297h310q14 0 24 -10.5t9 -24.5l-21 -205q-1 -16 -12.5 -26t-27.5 -10h-312l-28 -264h589q14 0 24 -10.5t9 -24.5l-23 -205q-1 -16 -12.5 -26 t-27.5 -10h-847q-16 0 -25 10t-8 26z" />
<glyph unicode="F" horiz-adv-x="1046" d="M33 92l132 1262q2 15 12.5 24.5t25.5 9.5h837q14 0 24 -10t9 -24l-21 -207q-2 -15 -14 -24.5t-28 -9.5h-574l-32 -297h299q14 0 24 -10.5t9 -24.5l-23 -205q-1 -16 -12.5 -26t-27.5 -10h-296l-54 -504q-1 -16 -12.5 -26t-25.5 -10h-172q-42 0 -63 24q-18 21 -18 55 q0 6 1 13z" />
<glyph unicode="G" horiz-adv-x="1391" d="M83 693q21 193 133 356t284.5 257.5t363.5 94.5q149 0 277.5 -59t215.5 -165q23 -26 -8 -49l-197 -149q-25 -21 -48 2q-113 133 -274 133q-107 0 -206 -57.5t-164.5 -155t-77.5 -208.5q-2 -24 -2 -46q0 -142 92 -249q106 -124 269 -124q140 0 264 97l7 70h-243 q-36 0 -33 35l21 203q5 36 38 36l484 -2q36 3 33 -33l-47 -447q-4 -16 -14 -23q-108 -105 -247.5 -163.5t-288.5 -58.5q-192 0 -344.5 93.5t-230.5 256.5q-61 128 -61 274q0 40 4 81z" />
<glyph unicode="H" horiz-adv-x="1437" d="M69 36l139 1318q2 15 12.5 24.5t25.5 9.5h226q14 0 24 -10t9 -24l-55 -528h583l55 528q2 15 12.5 24.5t25.5 9.5h228q14 0 23 -10t8 -24l-139 -1318q-1 -17 -11 -26.5t-25 -9.5h-174q-42 0 -63 26q-18 22 -18 55q0 6 1 13l45 435h-583l-52 -493q-2 -14 -13 -25t-25 -11 h-226q-16 0 -25 10t-8 26z" />
<glyph unicode="I" horiz-adv-x="571" d="M80 36q-1 -16 8 -26t25 -10h218q14 0 25.5 11t13.5 25l139 1318q1 14 -9 24t-24 10h-219q-15 0 -25.5 -9.5t-12.5 -24.5z" />
<glyph unicode="J" horiz-adv-x="590" d="M-52 -340q-10 30 24 45q91 53 101 149l146 1378q1 10 1 22q0 36 -5 89q-2 18 5 31.5t21 13.5h222q31 0 48 -19.5t15 -49.5l-156 -1472q-15 -142 -91 -244.5t-196 -161.5q-33 -15 -47 14z" />
<glyph unicode="K" horiz-adv-x="1319" d="M52 35l127 1197q1 10 1 22q0 36 -5 89q-2 18 5 31.5t21 13.5h219q30 0 47 -18.5t15 -45.5l-50 -477l505 522q22 19 45 19h233q33 0 42.5 -27.5t-13.5 -50.5l-569 -585l510 -640q22 -29 8 -57t-51 -28h-229q-28 0 -40 17l-465 592l-61 -574q-2 -14 -13 -24.5t-25 -10.5 h-226q-14 0 -23.5 10.5t-7.5 24.5z" />
<glyph unicode="L" horiz-adv-x="1088" d="M54 35l139 1319q2 15 12.5 24.5t25.5 9.5h224q15 0 24.5 -10t8.5 -24l-115 -1078h552q15 0 24 -10t7 -25l-21 -206q-2 -14 -13 -24.5t-25 -10.5h-817q-29 0 -26 35z" />
<glyph unicode="M" horiz-adv-x="1844" d="M62 36l139 1318q2 14 13 24t27 10h200q25 0 38 -24l432 -805l606 805q17 24 42 24h199q14 0 24 -10t9 -24l-139 -1318q-2 -14 -13 -25t-25 -11h-224q-16 0 -25 10t-8 26l80 750l-529 -701q-20 -24 -44 -24h-12q-23 0 -36 24l-379 701l-79 -750q-2 -14 -13.5 -25 t-25.5 -11h-224q-16 0 -25 10t-8 26z" />
<glyph unicode="N" horiz-adv-x="1471" d="M69 36l139 1318q1 14 12.5 24t25.5 10h132q26 0 49 -26l614 -798l84 790q2 15 12.5 24.5t25.5 9.5h224q15 0 24.5 -10t8.5 -24l-139 -1319q-2 -14 -13 -24.5t-25 -10.5h-75q-82 0 -163 108l-559 704l-82 -776q-1 -14 -13 -24t-26 -10l-223 -2q-16 0 -25 10t-8 26z" />
<glyph unicode="O" horiz-adv-x="1607" d="M99 696q-4 -38 -4 -76q0 -106 31 -202q42 -132 127.5 -225.5t210.5 -149t270 -55.5q144 0 280.5 55.5t241 149.5t174.5 225.5t85 277.5q4 38 4 75q0 103 -31 199q-42 130 -127 225t-210 150.5t-268 55.5q-193 0 -366 -94t-285 -256.5t-133 -354.5zM397 696 q18 168 154.5 293t302.5 125q108 0 196 -58t134 -154q36 -76 36 -161q0 -22 -3 -45q-11 -111 -77 -208.5t-166.5 -155.5t-208.5 -58q-165 0 -275 126q-95 109 -95 251q0 22 2 45z" />
<glyph unicode="P" horiz-adv-x="1201" d="M61 36l139 1318q2 15 12.5 24.5t25.5 9.5h510q101 0 188 -43.5t142 -112t83 -152.5q21 -64 21 -127q0 -20 -2 -40q-9 -87 -55 -173.5t-115.5 -154.5t-165.5 -110.5t-197 -42.5h-250l-41 -396q-1 -16 -12 -26t-25 -10h-227q-34 0 -31 36zM427 719h234q92 0 154.5 58 t69.5 136q1 10 1 21q0 64 -43 112q-50 56 -142 56h-234z" />
<glyph unicode="Q" horiz-adv-x="1650" d="M61 696q21 192 132.5 354.5t284.5 256.5t367 94q143 0 268 -55.5t210 -150t127 -225.5q31 -96 31 -199q0 -37 -4 -75q-15 -147 -84 -277t-178 -228l68 -134q10 -20 20 -35.5t19.5 -28t15 -19t15.5 -17t13 -13.5q14 -15 10.5 -31t-17.5 -24l-181 -106q-28 -15 -53 -15 q-9 0 -18 2q-33 7 -50 39l-115 221q-126 -42 -246 -42q-145 0 -270 55.5t-210.5 149.5t-127.5 225q-31 97 -31 202q0 38 4 76zM359 696q-3 -23 -3 -46q0 -92 42 -174q53 -103 150 -155q-19 40 -19 85q0 15 2 30q9 92 89.5 157t183.5 65q163 0 250 -153l26 -47q85 108 98 238 q3 23 3 46q0 84 -36 160q-45 97 -133.5 154.5t-197.5 57.5q-166 0 -301.5 -125t-153.5 -293zM633 316q-2 -11 4 -31q44 -11 88 -11q42 0 86 11l-4 8q-22 44 -44.5 65.5t-56.5 21.5q-29 0 -50 -19t-23 -45z" />
<glyph unicode="R" horiz-adv-x="1263" d="M45 36l139 1318q2 15 12.5 24.5t25.5 9.5h561q83 0 155 -29t122 -77.5t84 -109.5q34 -62 48 -129q9 -44 9 -87q0 -22 -2 -43q-12 -124 -91.5 -242t-201.5 -183l238 -446q9 -17 0 -29.5t-30 -12.5h-210q-35 0 -62.5 24t-41.5 51l-180 357h-238l-42 -396q-2 -16 -12 -26 t-24 -10h-228q-34 0 -31 36zM411 708h257q104 0 163.5 62.5t67.5 144.5q1 11 1 23q0 66 -40 116q-47 60 -150 59h-255z" />
<glyph unicode="S" horiz-adv-x="1119" d="M50 243l132 149q17 18 38.5 21t32.5 -9q1 0 20 -18t24.5 -22.5t25.5 -20.5t31 -22.5t32 -18t37.5 -16.5t38.5 -9.5t43 -4.5q79 0 137 32t64 92q3 26 -5.5 47t-29.5 37t-43.5 27.5t-56.5 27.5q-11 5 -16 7q-90 44 -143 73t-115 73.5t-92.5 86t-48.5 99.5q-13 42 -14 89 q0 18 2 37q8 73 44.5 142.5t98 128.5t156 94.5t206.5 35.5q74 0 143 -18.5t119 -47.5t79 -51t50 -43q17 -20 17 -37q0 -15 -12 -29l-127 -151q-24 -27 -48 -27q-14 0 -28 10q-2 1 -19 14.5t-23.5 18t-24.5 17t-29.5 18.5t-30.5 15.5t-34.5 14t-35.5 8t-39 3.5 q-65 0 -111.5 -34t-51.5 -82q-1 -7 -1 -13q0 -38 27 -64q31 -30 112 -66q175 -84 237 -124q155 -102 183 -234q6 -31 6 -66q0 -21 -2 -42q-18 -164 -168.5 -283.5t-355.5 -119.5q-38 0 -74 4.5t-66 11.5t-60 18.5t-51.5 22t-45.5 26t-38 25.5t-33 26.5t-26 23.5t-20.5 21 t-14.5 15q-16 16 -16 31t14 30z" />
<glyph unicode="T" horiz-adv-x="1268" d="M137 1147l23 205q1 16 12.5 26t27.5 10h1034q15 0 23.5 -9.5t7.5 -24.5l-21 -207q-1 -14 -12.5 -24t-25.5 -10h-371l-113 -1077q-1 -17 -11 -26.5t-25 -9.5h-172q-42 0 -63 26q-18 22 -18 55q0 6 1 13l106 1019h-370q-15 0 -24.5 9.5t-8.5 24.5z" />
<glyph unicode="U" horiz-adv-x="1353" d="M111 503q-3 -34 -3 -65q0 -182 112 -306q132 -144 387 -144q258 0 424.5 145t190.5 370l88 851q2 17 -6 26.5t-23 9.5h-227q-34 0 -39 -36l-85 -825q-13 -116 -87.5 -187t-203.5 -71q-129 1 -187 71q-47 58 -46 145q0 20 2 42l87 825q2 15 -6.5 25.5t-23.5 10.5h-225 q-16 0 -27 -10t-13 -26z" />
<glyph unicode="V" horiz-adv-x="1463" d="M127 1345q-8 19 3.5 31t29.5 12h262q13 0 20.5 -9t15.5 -29l269 -779l434 779q23 38 44 38h262q18 0 27 -11t-1 -34l-776 -1324q-16 -29 -42 -29h-17q-26 0 -35 29z" />
<glyph unicode="W" horiz-adv-x="1988" d="M125 1345q-7 20 4.5 31.5t30.5 11.5h260q13 0 20.5 -9t15.5 -29l292 -784l106 192l-222 587q-8 19 3.5 31t29.5 12h262q13 0 20.5 -9t15.5 -29l85 -241l134 241q12 20 21 29t22 9h262q18 0 27 -11t-1 -34l-341 -585l67 -192l450 784q20 38 43 38h262q18 0 26 -11t-2 -34 l-789 -1324q-16 -29 -42 -29h-17q-26 0 -35 29l-156 411l-241 -411q-16 -29 -42 -29h-17q-26 0 -35 29z" />
<glyph unicode="X" horiz-adv-x="1332" d="M-7 12q-5 12 4 24l506 658l-368 660q-7 14 -1 24t22 10h287q5 0 8.5 -1.5t6 -3t5.5 -5.5t4 -6.5t4.5 -8.5t4.5 -9l225 -403l309 403q2 2 7.5 10t7.5 10.5t6.5 6.5t8.5 5.5t10 1.5h288q16 0 20 -10t-6 -24l-507 -660l368 -658q7 -12 -0.5 -24t-21.5 -12h-287 q-7 0 -12.5 3.5t-8 7.5t-7 12.5t-6.5 12.5l-224 401l-308 -401q-2 -3 -6.5 -10t-7 -10t-7 -7.5t-9.5 -6.5t-11 -2h-285q-14 0 -19 12z" />
<glyph unicode="Y" horiz-adv-x="1331" d="M92 1349q-7 14 0 26.5t23 12.5h272q9 0 16 -5.5t10 -10.5t10 -18l261 -481l361 481q2 2 5.5 7.5t5.5 7.5t5 6t5.5 5.5t5.5 4t6.5 3t7.5 0.5h276q15 0 19.5 -12.5t-5.5 -26.5l-574 -761l-59 -552q-1 -17 -11.5 -26.5t-25.5 -9.5h-171q-42 0 -63 26q-18 22 -18 55q0 6 1 13 l52 491z" />
<glyph unicode="Z" horiz-adv-x="1148" d="M0 35l5 43l5 9l670 1005h-524q-16 0 -25.5 10t-7.5 24l23 226q1 16 12.5 26t27.5 10h947q15 0 24.5 -10t8.5 -24l-5 -40l-2 -5l-90 -136l-54 -81l-524 -795h526q16 0 24.5 -9.5t6.5 -23.5l-17 -174q-5 -42 -32.5 -66t-68.5 -24h-899q-14 0 -23.5 10.5t-7.5 24.5z" />
<glyph unicode="[" horiz-adv-x="656" d="M-28 -316l26 243l151 1444l14 125q3 31 35 31h455q30 0 27 -31l-22 -212q-3 -31 -35 -31h-205l-139 -1326h205q31 0 28 -31l-23 -212q-3 -31 -34 -31h-455q-31 0 -28 31z" />
<glyph unicode="\" horiz-adv-x="772" d="M121 1354q-2 14 10.5 24t28.5 10h225q28 0 33 -34l250 -1318q2 -13 -11 -24.5t-27 -11.5h-227q-24 0 -33 36z" />
<glyph unicode="]" horiz-adv-x="656" d="M-28 -316l23 212q3 31 35 31h204l139 1326h-205q-30 0 -27 31l22 212q3 31 35 31h455q30 0 27 -31l-26 -243l-151 -1446l-14 -123q-3 -31 -34 -31h-455q-31 0 -28 31z" />
<glyph unicode="^" horiz-adv-x="1030" d="M67.5 791q8.5 -19 33.5 -19h185q18 0 33 19l249 301l180 -301q15 -19 31 -19h188q23 0 35.5 18.5t2.5 37.5l-359 616q-10 21 -32 21h-10q-24 0 -35 -21l-494 -616q-16 -18 -7.5 -37z" />
<glyph unicode="_" horiz-adv-x="933" d="M69 -36q0 16 10.5 26t26.5 10h724q14 0 24 -10t10 -25v-144q0 -14 -10 -25t-24 -11h-724q-15 0 -26 10t-11 24v145z" />
<glyph unicode="`" horiz-adv-x="642" d="M133.5 1207.5q1.5 -15.5 14.5 -22.5l352 -170q35 -16 52 11l71 107q9 14 7.5 25t-10.5 17l-313 224q-12 11 -27.5 10.5t-27.5 -14.5l-108 -154q-12 -18 -10.5 -33.5z" />
<glyph unicode="a" d="M33 233q-2 -18 -2 -36q1 -91 59 -143q70 -62 205 -63q93 0 154.5 22t114.5 67q5 -80 61 -80h153q17 0 26 12.5t7 30.5q-1 32 -1 65q0 203 37 446q5 32 5 61q0 105 -66 171q-84 84 -234 84q-104 0 -206.5 -25.5t-177.5 -61.5q-31 -16 -31 -40q0 -6 2 -12l36 -129 q8 -33 45 -17q164 62 247 62q59 -1 85 -25q21 -20 22 -55q0 -7 -1 -15q-123 -20 -212 -44t-163.5 -61t-115.5 -90.5t-49 -123.5zM302 243q2 17 13 31t33.5 25.5t42.5 20t54 16.5t52.5 12t52.5 11q-7 -43 -12 -111q-76 -59 -168 -59q-33 0 -51.5 14t-16.5 40z" />
<glyph unicode="b" horiz-adv-x="1093" d="M68 36l123 1172q2 43 2 57t-4 43t-5 35q-2 18 6 31.5t23 13.5h186q45 0 68 -24q20 -21 20 -56q0 -6 -1 -12l-50 -477q94 49 199 49q109 0 194.5 -53.5t129.5 -152.5q33 -75 34 -165q0 -28 -4 -58q-20 -188 -148 -318.5t-306 -130.5q-120 0 -198 66q-22 -26 -53.5 -41 t-59.5 -15h-125q-16 0 -24.5 10t-6.5 26zM380 285q61 -35 134 -35q77 0 133 51.5t65 137.5q2 14 2 27q0 62 -39 98q-47 44 -114 43q-72 0 -151 -41z" />
<glyph unicode="c" horiz-adv-x="876" d="M47 427q13 124 85 226.5t182 160t231 57.5q165 0 278 -111q23 -20 -2 -50l-118 -132q-25 -25 -56 -4q-48 33 -121 33q-75 0 -133.5 -51t-67.5 -127q-1 -10 -1 -19q0 -63 42 -108q48 -52 122 -52q70 0 130 36q34 23 54 -7l85 -137q19 -27 -9 -50q-139 -104 -297 -104 q-187 0 -305 126q-102 109 -102 262q0 25 3 51z" />
<glyph unicode="d" horiz-adv-x="1063" d="M52 437q19 187 150.5 308t300.5 121q112 0 193 -52l42 394q2 41 1.5 57t-5 43t-5.5 35q-2 18 6.5 31.5t24.5 13.5h184q46 0 70 -24q20 -21 20 -56q0 -6 -1 -12l-134 -1260q-1 -16 -12.5 -26t-27.5 -10h-125q-29 0 -57.5 15.5t-43.5 41.5q-93 -69 -216 -69q-117 0 -207 61 q-88 61 -130 163q-31 77 -32 165q0 29 4 60zM328 437q-1 -14 -2 -27q0 -68 41 -111q48 -51 126 -51q74 0 146 37l29 277q-74 44 -147 44q-68 0 -125.5 -43.5t-67.5 -125.5z" />
<glyph unicode="e" horiz-adv-x="954" d="M45 430q-3 -27 -3 -53q0 -157 100 -263q116 -124 302 -123q234 0 353 143q23 25 5 53l-38 66q-10 18 -24.5 20t-31.5 -6q-101 -43 -217 -43q-70 0 -123 30.5t-63 83.5h434q65 0 104.5 35t46.5 97q2 21 2 42q0 54 -15 106q-21 72 -66 128t-120.5 90.5t-169.5 34.5 q-182 0 -319 -129.5t-157 -311.5zM328 535q12 34 57 62t106 28q62 0 101 -28t41 -62h-305z" />
<glyph unicode="f" horiz-adv-x="746" d="M62 621l18 172q4 31 24 48.5t50 17.5h58l21 191q17 168 126 257.5t271 89.5q65 0 129.5 -18t104.5 -48q10 -7 12.5 -21t-5.5 -27l-93 -164q-19 -33 -49 -17q-2 1 -17.5 6.5t-24 8t-24.5 5.5t-30 3q-42 0 -77.5 -26.5t-40.5 -74.5l-17 -165h153q11 0 18 -7t6 -19l-22 -210 q-1 -10 -10 -18t-20 -8h-153l-59 -561q-1 -15 -13 -25.5t-27 -10.5h-159q-41 0 -62 26q-19 23 -19 55q0 7 1 13l54 503h-101q-26 0 -23 24z" />
<glyph unicode="g" horiz-adv-x="1063" d="M7 50q7 84 67 132q50 39 131 39q15 0 31 -1q-45 20 -82 91q-30 58 -30 128q0 15 1 31q14 168 139 283t290 115q45 0 163 -15q89 -11 177 -11l59 1q14 2 23.5 -8t7.5 -26l-22 -123q-1 -4 -4 -8t-8.5 -7t-10.5 -5t-13.5 -4t-13.5 -3t-13.5 -2.5t-11.5 -2.5q29 -61 29 -137 q0 -24 -3 -50q-18 -171 -143 -277q-117 -98 -268 -98h-20q-58 2 -142 21q-25 6 -42 6q-42 0 -45 -34q-1 -21 25 -32t78 -20q60 -9 137 -19t101 -14q94 -12 153.5 -30t104 -51.5t58.5 -87.5q9 -32 9 -73q0 -28 -4 -60q-13 -107 -96 -180t-195 -104q-104 -28 -223 -28h-16 q-122 3 -212.5 38t-134.5 106q-31 47 -31 107q0 28 7 59q28 123 194 155q-56 12 -99.5 33t-74.5 64q-28 38 -28 86q0 8 1 16zM274 -278q-1 -8 -1 -15q0 -44 31 -59q37 -19 126 -19q90 0 140 18t55 67q1 4 1 8q0 42 -69 56q-74 18 -182 35q-9 1 -17 1q-30 0 -52 -20 q-27 -26 -32 -72zM387 477q-1 -7 -1 -13q0 -45 31 -78q35 -39 90 -39t96 38t48 92q1 10 1 19q0 46 -28 78q-33 39 -89 39q-55 0 -98 -39t-50 -97z" />
<glyph unicode="h" horiz-adv-x="1076" d="M54 35q-2 -15 6 -25t23 -10h219q14 0 25 10.5t13 24.5l51 489q80 64 164 64q55 0 89 -30q28 -26 29 -75q0 -9 -1 -18l-39 -373q-1 -6 -1 -12q0 -32 18 -54q21 -26 62 -26h189q14 0 22 13.5t6 31.5q-4 40 -4 72q0 23 2 43l38 366q2 21 2 42q0 79 -34 142 q-43 79 -119.5 118.5t-171.5 39.5q-108 0 -222 -64l52 492q1 8 1 15q0 33 -19 53q-23 24 -69 24h-185q-15 0 -23.5 -13.5t-6.5 -31.5q1 -6 5 -35t4 -43t-2 -57z" />
<glyph unicode="i" horiz-adv-x="522" d="M45 94q-1 -7 -1 -13q0 -33 18 -55q21 -26 63 -26h163q15 0 25.5 9.5t11.5 26.5l83 788q2 14 -7.5 24.5t-23.5 10.5h-217q-15 0 -26 -10t-13 -25zM170 1241q7 61 55 104t110 43q61 0 101 -43q34 -37 34 -86q0 -9 -1 -18q-7 -62 -55 -105.5t-110 -43.5q-61 0 -100 44 q-35 39 -35 91q0 7 1 14z" />
<glyph unicode="j" horiz-adv-x="487" d="M-146 -358l87 -204q13 -28 47 -14q121 59 195 163t89 250l105 987q1 14 -9 24.5t-24 10.5h-216q-15 0 -25.5 -10t-12.5 -25l-104 -987q-9 -92 -107 -148q-38 -16 -25 -47zM135 1239q7 62 55 105.5t109 43.5q62 0 102 -44q34 -37 34 -87q0 -9 -1 -18q-7 -62 -56 -106.5 t-111 -44.5q-61 0 -100 44q-33 38 -33 89q0 9 1 18z" />
<glyph unicode="k" horiz-adv-x="1103" d="M66 35l125 1173q2 43 2 57t-4 43t-5 35q-2 18 6 31.5t23 13.5h186q45 0 68 -24q20 -21 20 -56q0 -6 -1 -12l-80 -751l287 295q19 19 43 19h212q31 0 39 -28t-15 -53l-316 -313l307 -385q20 -26 7 -52t-47 -26h-218q-24 0 -42 21l-274 361l-37 -349q-2 -15 -12.5 -25 t-25.5 -10h-217q-14 0 -23.5 10.5t-7.5 24.5z" />
<glyph unicode="l" horiz-adv-x="534" d="M71 94q-1 -7 -1 -13q0 -33 18 -55q21 -26 63 -26h163q15 0 25.5 9.5t11.5 26.5l138 1318q1 14 -8 24t-23 10h-217q-15 0 -25.5 -9.5t-12.5 -24.5z" />
<glyph unicode="m" horiz-adv-x="1627" d="M43 35l84 789q2 15 12 25t24 10h163q30 -18 63 -69q123 80 243 80q83 0 154 -32.5t115 -91.5q152 124 304 124q96 0 173 -40q78 -40 120 -120q34 -63 33 -142q0 -20 -2 -42l-40 -366q-1 -22 -1 -44q0 -36 3 -71q2 -17 -5.5 -31t-20.5 -14h-189q-42 0 -63 26 q-18 22 -18 54q0 6 1 12l38 371q1 11 1 21q0 46 -27 72q-33 32 -90 32q-85 0 -163 -67l-39 -361q-1 -22 -1 -44q0 -36 3 -71q2 -17 -5.5 -31t-20.5 -14h-189q-42 0 -63 26q-18 22 -18 54q0 6 1 12l38 371q1 11 1 21q0 46 -27 72q-33 32 -90 32q-87 0 -165 -67l-50 -486 q-2 -14 -13 -24.5t-25 -10.5h-219q-14 0 -23 10.5t-7 24.5z" />
<glyph unicode="n" horiz-adv-x="1053" d="M43 35l84 789q2 15 12 25t24 10h163q28 -19 63 -69q120 78 243 78q96 0 172 -40q78 -39 120 -118q34 -63 33 -142q0 -20 -2 -42l-39 -366q-1 -22 -1 -44q0 -36 3 -71q2 -17 -5.5 -31t-20.5 -14h-189q-42 0 -63 26q-18 22 -18 54q0 6 1 12l38 373q1 11 1 21q0 46 -26 72 q-32 30 -89 30q-88 0 -165 -66l-52 -487q-2 -14 -13 -24.5t-25 -10.5h-219q-14 0 -23 10.5t-7 24.5z" />
<glyph unicode="o" horiz-adv-x="1017" d="M43 429q-3 -26 -3 -50q0 -153 103 -263q119 -128 305 -128q121 0 231 57.5t182 159.5t85 224q3 27 3 52q0 94 -40 174q-51 102 -148 159t-219 57q-186 0 -332 -127t-167 -315zM318 427q8 73 64.5 126.5t131.5 53.5q76 1 121 -53q38 -45 38 -105q0 -11 -1 -22 q-8 -72 -64 -124.5t-131 -52.5t-121 52q-39 45 -40 104q1 10 2 21z" />
<glyph unicode="p" horiz-adv-x="1093" d="M14 -474l121 1153q2 43 2 57t-4 43t-5 35q-2 18 6.5 31.5t23.5 13.5h186q62 0 81 -45q101 54 212 54q108 0 193 -53.5t129 -152.5q33 -75 33 -165q0 -28 -3 -58q-20 -188 -148 -318.5t-306 -130.5q-106 0 -181 52l-45 -436q-5 -50 -49 -83t-90 -33h-125q-16 0 -24.5 10 t-6.5 26zM380 285q61 -35 134 -35q77 0 133 51.5t65 137.5q2 14 2 27q0 62 -39 98q-47 43 -114 43q-72 0 -151 -41z" />
<glyph unicode="q" horiz-adv-x="1076" d="M69 437q19 188 148.5 308.5t297.5 120.5q116 0 207 -61q20 25 50.5 39.5t58.5 14.5h125q16 0 25 -10t8 -26l-121 -1153q-2 -43 -2 -57t4 -43t5 -35q2 -18 -6.5 -31.5t-25.5 -13.5h-183q-46 0 -69 24q-19 21 -19 53q0 7 1 15l48 458q-87 -52 -192 -52q-177 0 -279 131 q-85 109 -85 256q0 30 4 62zM345 437q-1 -14 -1 -27q0 -67 39 -110q47 -52 122 -52q73 0 141 33l29 283q-73 42 -142 42q-67 0 -122.5 -44t-65.5 -125z" />
<glyph unicode="r" horiz-adv-x="836" d="M50 35l84 789q2 15 12 25t24 10h163q29 -19 64 -73q108 80 224 80q121 0 184 -47q20 -14 20 -31q0 -11 -9 -24l-122 -169q-18 -25 -48 -14q-46 18 -94 18q-45 0 -90.5 -21t-74.5 -69l-50 -474q-2 -14 -13 -24.5t-25 -10.5h-219q-14 0 -23 10.5t-7 24.5z" />
<glyph unicode="s" horiz-adv-x="829" d="M26.5 112q-2.5 13 4.5 22l97 126q26 33 54 18l11 -6q11 -7 22.5 -14t31 -16.5t38 -16.5t41 -12.5t42.5 -5.5q31 0 52 14.5t23 37.5q2 26 -23 41t-108 40q-111 32 -170 100q-51 59 -51 138q0 12 1 24q11 109 104.5 189t242.5 80q86 0 146 -20.5t127 -62.5 q16 -9 20.5 -22.5t-5.5 -26.5l-106 -135q-21 -25 -48 -12q-3 1 -22 11t-37.5 19t-45.5 17t-50 8q-31 0 -50 -13.5t-23 -36.5q-1 -23 24 -38t84 -30q265 -77 265 -249q0 -12 -1 -25q-12 -114 -116.5 -190.5t-258.5 -76.5q-93 0 -178.5 34.5t-125.5 69.5q-9 7 -11.5 20z" />
<glyph unicode="t" horiz-adv-x="786" d="M69 627l6 46q3 27 19 46q14 15 84.5 87.5t97.5 101.5t78 86t92 108q21 28 40 28h29q26 0 23 -31l-26 -240h151q16 0 25 -10t8 -26l-19 -195q-1 -14 -13.5 -25t-26.5 -11h-118q-22 0 -37 3l-26 -244q-1 -9 0 -17q0 -70 63 -72q20 -2 61 9q33 10 41 -26l37 -165 q4 -19 -19 -38q-32 -23 -85.5 -37t-105.5 -14q-284 0 -284 269q0 29 3 61l29 271h-95q-14 0 -23.5 10.5t-8.5 24.5z" />
<glyph unicode="u" horiz-adv-x="1050" d="M66 333l40 370q1 22 1 43q0 36 -3 71q-2 18 5 32t21 14h189q42 0 63 -26q18 -22 18 -54q0 -6 -1 -12l-40 -375q-1 -9 -1 -18q0 -50 28 -76q34 -32 90 -31q82 0 164 66l51 487q2 14 13 24.5t25 10.5h219q14 0 22.5 -10.5t6.5 -24.5l-83 -789q-2 -14 -12.5 -24.5 t-24.5 -10.5h-173q-17 17 -51 69q-125 -79 -242 -79q-95 0 -172 40t-121 120q-35 63 -34 142q0 20 2 41z" />
<glyph unicode="v" horiz-adv-x="952" d="M64 824l302 -803q13 -30 35 -30h19q23 0 42 30l468 803q8 14 0 24.5t-24 10.5h-229q-21 0 -38 -35l-177 -335l-106 335q-8 35 -31 35h-233q-17 0 -25 -9.5t-3 -25.5z" />
<glyph unicode="w" horiz-adv-x="1421" d="M71 817q-7 18 1.5 30t28.5 12h227q32 0 40 -26l95 -364l216 359q14 26 43 26h31q29 0 37 -26l139 -359l173 364q14 26 43 26h228q19 0 25.5 -12t-1.5 -30l-409 -794q-13 -23 -39 -23h-52q-23 0 -33 23l-171 406l-257 -406q-17 -23 -40 -23h-52q-24 0 -30 23z" />
<glyph unicode="x" horiz-adv-x="1029" d="M29 20q-7 20 7 37l308 370l-231 375q-10 17 0.5 37t30.5 20h227q26 0 40 -26l106 -200l151 200q9 11 13 15t11.5 7.5t17.5 3.5h231q18 0 25.5 -20t-6.5 -37l-313 -375l233 -370q10 -17 -1.5 -37t-29.5 -20h-229q-14 0 -21 5.5t-16 20.5l-109 196l-148 -196 q-19 -26 -43 -26h-227q-20 0 -27 20z" />
<glyph unicode="y" horiz-adv-x="1079" d="M-5 -403q-14 14 -14 30q0 20 22 43q215 216 353 484l-285 663q-7 18 1.5 30t26.5 12h232q29 0 40 -26l157 -401l229 401q14 26 43 26h229q20 0 27.5 -12t-2.5 -30l-403 -678q-165 -277 -285 -440t-191 -230q-16 -12 -34 -9.5t-33 18.5z" />
<glyph unicode="z" horiz-adv-x="907" d="M34 25q-12 25 1 44l22 56l332 448h-262q-35 0 -32 34l23 217q2 16 12 25.5t26 9.5h642q23 0 34.5 -21.5t2.5 -40.5l-19 -52l-340 -459h269q36 0 33 -34l-25 -217q-1 -16 -12.5 -25.5t-27.5 -9.5h-640q-27 0 -39 25z" />
<glyph unicode="{" horiz-adv-x="813" d="M59 519q-1 -14 8 -24.5t20 -10.5q27 -10 42.5 -18t38.5 -24t33 -38.5t7 -51.5l-19 -198q-9 -68 -3 -126t16.5 -104.5t33 -84t46.5 -66t57.5 -50.5t65 -37t68.5 -25.5t70 -16t68 -8.5q11 0 22.5 10t12.5 24l19 172q2 23 0.5 27t-14.5 4q-108 26 -152.5 93t-31.5 187 l19 194q6 51 -7 94.5t-37 70.5t-45.5 42.5t-42.5 23.5l2 17q8 0 33.5 16.5t56.5 44t57.5 73.5t32.5 97l21 195q14 127 70.5 189.5t172.5 89.5q18 0 21 33l17 168q1 12 -0.5 20t-6.5 11t-9 3.5t-11 0.5q-65 0 -128.5 -13.5t-132.5 -50t-123 -92.5t-95 -149t-53 -212l-20 -196 q-6 -55 -64.5 -94.5t-85.5 -39.5q-11 0 -22 -10.5t-12 -22.5z" />
<glyph unicode="|" horiz-adv-x="636" d="M76 -312l216 2037q3 35 38 35h220q16 0 24.5 -9.5t6.5 -25.5l-215 -2037q-2 -16 -12 -25.5t-26 -9.5h-220q-16 0 -24.5 9.5t-7.5 25.5z" />
<glyph unicode="}" horiz-adv-x="813" d="M-30 -330q-1 -14 8 -24t20 -10q68 5 129 19.5t132 51t124.5 91t94.5 146t53 210.5l19 198q3 23 15 43.5t25.5 33t37 25t36 17t35.5 13.5q11 0 22.5 10.5t12.5 24.5l16 137q1 12 -8 22.5t-20 10.5q-26 0 -76.5 39.5t-44.5 94.5l20 196q12 119 -9 212t-63.5 149 t-103.5 92.5t-121.5 50t-125.5 13.5q-10 0 -15.5 -1t-12 -9.5t-7.5 -24.5l-17 -168q-3 -14 -0.5 -23.5t14.5 -9.5q111 -27 154.5 -89.5t29.5 -189.5l-21 -195q-5 -41 5.5 -79.5t29 -65t39 -47t36.5 -30t22 -9.5l-2 -17q-22 -8 -47.5 -23.5t-55 -42.5t-51 -70.5t-27.5 -94.5 l-19 -194q-13 -120 -71 -187t-172 -93q-13 0 -15.5 -4t-4.5 -27z" />
<glyph unicode="~" horiz-adv-x="834" d="M28 451q16 -22 69 -100q7 -12 22.5 -10.5t22.5 15.5q18 24 30.5 38t36.5 28.5t50 14.5q41 0 105 -41q3 -3 13.5 -12t14 -11.5t13 -10t14.5 -10t14.5 -8t17.5 -7.5t18.5 -4.5t21.5 -3.5t24 -1q36 0 77 15.5t72.5 37t58.5 43.5t41 38l15 15q20 23 4 42l-61 106 q-9 13 -24.5 12t-24.5 -14q-66 -83 -135 -83q-17 0 -32.5 5.5t-21.5 9.5t-22.5 18t-17.5 15q-30 22 -47 32.5t-48.5 21.5t-65.5 11q-36 0 -75 -16.5t-69.5 -40t-56 -47t-38.5 -39.5l-14 -17q-17 -17 -2 -42z" />
<glyph unicode="&#xa1;" horiz-adv-x="557" d="M3 -502l2 25l134 743q8 36 40 36h140q14 0 22 -10.5t8 -25.5l-24 -743l-2 -25q-1 -14 -12.5 -24t-25.5 -10h-250q-16 0 -25 10t-7 24zM104 682q8 74 67.5 128t135.5 54q75 0 123 -53.5t40 -128.5q-8 -76 -67.5 -131t-135.5 -55q-75 0 -123.5 55.5t-39.5 130.5z" />
<glyph unicode="&#xa2;" horiz-adv-x="958" d="M50 434q21 189 169.5 322.5t337.5 133.5q45 0 87 -8l35 76q15 35 50 23l52 -21q13 -5 17.5 -18t-0.5 -26l-36 -79q59 -37 109 -101q9 -12 7 -27t-15 -22l-157 -126q-23 -17 -48 5l-12 12l-146 -332q76 0 153 66q25 31 50 9l132 -113q11 -8 10.5 -21t-10.5 -24 q-73 -86 -168 -136t-205 -50q-46 0 -82 7l-50 -114q-15 -34 -49 -23l-54 21q-12 5 -16 17.5t1 25.5l50 115q-109 57 -167.5 166.5t-44.5 241.5zM328 434q-8 -89 52 -144l151 335q-80 -4 -137 -58.5t-66 -132.5z" />
<glyph unicode="&#xa3;" horiz-adv-x="1015" d="M45 36l2 23q93 115 144.5 230t51.5 206q3 68 -19 180l-16 104q-4 23 -11.5 60.5l-11.5 57.5t-6.5 46t-1.5 48q6 96 49.5 177.5t109 134t144.5 81.5t160 29q76 0 136.5 -14t103.5 -42t70.5 -56t57.5 -69q17 -28 -7 -45l-166 -127q-26 -18 -51 7q-66 70 -154 70 q-60 0 -111 -39.5t-57 -109.5q-3 -34 1 -64t15.5 -76t17.5 -77q1 -4 5.5 -26t6 -29.5t5 -28.5t5 -31.5t3.5 -29.5t2.5 -32.5t0 -30.5t-2.5 -32q-7 -74 -28.5 -133t-60.5 -131h399q16 0 25 -11.5t7 -33.5l-18 -184q-2 -16 -13.5 -27t-27.5 -11h-726q-16 0 -25 10t-8 26z M333 583q2 5 7 5h96q5 0 5 -1l2 5q-2 -2 -7 -2h-94q-7 0 -7 7z" />
<glyph unicode="&#xa4;" horiz-adv-x="1234" d="M64 437q-21 24 5 49l132 120q-31 87 -20 192t60 190l-107 119q-21 24 5 49l198 179q26 25 48 0l108 -120q91 40 191 40q103 0 184 -42l133 122q27 25 49 0l160 -179q21 -24 -5 -49l-132 -119q30 -91 20 -190t-62 -192l108 -120q21 -24 -6 -49l-196 -178q-26 -25 -48 0 l-111 123q-91 -40 -190 -40q-97 0 -180 40l-136 -123q-26 -25 -48 0zM474 798q-7 -68 35.5 -116.5t110.5 -48.5t122.5 49t61.5 116q5 69 -38 116.5t-110 47.5q-70 0 -122.5 -47.5t-59.5 -116.5z" />
<glyph unicode="&#xa5;" horiz-adv-x="1294" d="M100.5 1376q6.5 12 22.5 12h269q3 0 5.5 -0.5t5 -2t4.5 -2t4 -3.5t3.5 -4t3.5 -5l2.5 -5l3 -6t3.5 -6l250 -479l347 479q20 27 30 32q5 2 12 2h270q15 0 19.5 -12t-5.5 -26l-451 -619h137q14 0 23.5 -10t7.5 -23l-22 -198q-2 -15 -12.5 -26t-25.5 -11h-226l-9 -79h226 q14 0 23 -9.5t8 -23.5l-21 -198q-2 -15 -12.5 -25t-25.5 -10h-225l-9 -82q-1 -17 -11.5 -26.5t-25.5 -9.5h-173q-42 0 -63 26t-17 68l2 24h-226q-13 0 -22.5 9.5t-8.5 23.5l22 198q1 14 13 24.5t26 10.5h224l8 79h-225q-13 0 -22 10.5t-8 24.5l19 198q2 13 14 24t26 11h134 l-321 619q-7 14 -0.5 26z" />
<glyph unicode="&#xa6;" horiz-adv-x="636" d="M76 -312l84 788q3 34 38 34h220q16 0 24.5 -9t7.5 -25l-84 -788q-2 -16 -12 -25.5t-26 -9.5h-220q-16 0 -24.5 9.5t-7.5 25.5zM208 937l84 788q3 35 38 35h220q16 0 24.5 -9.5t6.5 -25.5l-83 -788q-1 -16 -11.5 -25t-26.5 -9h-220q-16 0 -24.5 9t-7.5 25z" />
<glyph unicode="&#xa7;" horiz-adv-x="1096" d="M-8.5 -302.5q1.5 11.5 13.5 26.5l125 156q16 20 38 22t33 -10q2 0 22.5 -22t48 -46.5t72.5 -45.5t90 -21q70 0 124.5 35t61.5 92q7 61 -37.5 102.5t-162.5 88.5q-72 27 -133 67t-110 94.5t-73 126.5t-15 154q15 143 123 248q-84 115 -70 259q5 55 27.5 109t64 105 t97.5 89.5t135 62t169 23.5q43 0 83 -6t75 -18.5t61.5 -23.5t54.5 -29.5t40.5 -27.5t34.5 -26l21 -18q13 -11 14 -29t-11 -36l-125 -152q-44 -50 -76 -25q-1 1 -23.5 22t-47.5 40.5t-64.5 37t-77.5 17.5q-66 0 -109.5 -37t-47.5 -83q-7 -55 35 -95t151 -77q74 -25 140 -67 t121 -99.5t84 -136.5t20 -166q-16 -136 -124 -244q84 -122 70 -262q-17 -158 -160 -279t-344 -121q-250 0 -416 188q-4 3 -5 5q-10 9 -14.5 15t-3 17.5zM373 512q-7 -53 39.5 -94t158.5 -78q20 -6 66 -28q43 34 47 79q5 60 -42.5 101t-169.5 89q-10 4 -43 20 q-51 -37 -56 -89z" />
<glyph unicode="&#xa8;" horiz-adv-x="883" d="M115 1239q8 63 55.5 107t108.5 44q64 0 104.5 -44.5t33.5 -106.5q-7 -61 -56.5 -105t-112.5 -44q-62 0 -101 44.5t-32 104.5zM601 1239q7 63 55 107t111 44q62 0 101.5 -44.5t32.5 -106.5q-5 -60 -55 -104.5t-112 -44.5q-61 0 -100.5 44.5t-32.5 104.5z" />
<glyph unicode="&#xa9;" horiz-adv-x="1572" d="M80 699q21 195 134 360t287.5 260.5t369.5 95.5q146 0 273 -56.5t212.5 -152.5t128 -228.5t27.5 -278.5t-85.5 -278.5t-176.5 -228.5t-245 -152.5t-285 -56.5t-272.5 56.5t-212 152.5t-128 228.5t-27.5 278.5zM304 699q-22 -205 106.5 -348.5t332.5 -143.5 q133 0 253 65.5t197.5 178.5t92.5 248q15 133 -39 246t-160.5 178.5t-239.5 65.5q-135 0 -255 -65.5t-197 -178.5t-91 -246zM467 696q14 139 123 237t247 98q147 0 230 -113q7 -7 5 -18t-12 -18l-112 -89q-18 -15 -33 5q-47 44 -89 44q-62 0 -109 -43t-54 -103 q-5 -57 34 -99.5t100 -42.5q54 0 112 50q7 10 18.5 12.5t18.5 -5.5l94 -80q17 -10 1 -33q-119 -137 -274 -137q-139 0 -226.5 98.5t-73.5 236.5z" />
<glyph unicode="&#xaa;" d="M33 233q-13 -117 56.5 -179.5t205.5 -62.5q93 0 154.5 22t114.5 67q5 -80 61 -80h153q17 0 26 12.5t7 30.5q-7 229 36 511q23 149 -60.5 232.5t-234.5 83.5q-104 0 -206.5 -25.5t-177.5 -61.5q-38 -20 -29 -52l36 -129q8 -33 45 -17q164 62 247 62q60 0 85.5 -24.5 t20.5 -70.5q-123 -20 -212 -44t-163.5 -61t-115.5 -90.5t-49 -123.5zM302 243q2 17 13 31t33.5 25.5t42.5 20t54 16.5t52.5 12t52.5 11q-7 -43 -12 -111q-76 -59 -168 -59q-33 0 -51.5 14t-16.5 40z" />
<glyph unicode="&#xab;" horiz-adv-x="1142" d="M56.5 398.5q-1.5 -14.5 4.5 -27.5l189 -333q11 -22 31 -22h162q28 0 39 20t-1 47l-104 314l175 308q17 31 10 50t-34 19h-157q-25 0 -40 -26l-265 -326q-8 -9 -9.5 -23.5zM557 368l196 -326q11 -26 37 -26h154q28 0 39.5 20t0.5 49l-113 306l176 315q15 28 8 48t-34 20 h-162q-24 0 -38 -22l-259 -334q-21 -24 -5 -50z" />
<glyph unicode="&#xac;" horiz-adv-x="1034" d="M66 571l17 165q2 16 12 26t26 10h823q13 0 22 -9.5t8 -24.5l-9 -84v-5l-42 -390q-2 -13 -13 -24t-25 -11h-166q-14 0 -23.5 10.5t-8.5 24.5l30 277h-620q-14 0 -23.5 10.5t-7.5 24.5z" />
<glyph unicode="&#xad;" horiz-adv-x="728" d="M69 340v177q0 16 10.5 26.5t26.5 10.5h519q15 0 25 -10t10 -25v-177q0 -14 -10.5 -25.5t-24.5 -11.5h-519q-14 0 -25.5 10.5t-11.5 24.5z" />
<glyph unicode="&#xae;" horiz-adv-x="1039" d="M80 1126q23 204 182.5 348.5t364.5 144.5q135 0 241.5 -66t160 -179.5t38.5 -247.5q-14 -135 -91.5 -248.5t-198 -179.5t-255.5 -66t-241.5 66t-160.5 179.5t-40 248.5zM248 1126q-14 -135 72 -230.5t222 -95.5q134 0 239.5 96t119.5 230q16 135 -70 231t-222 96 t-241.5 -95.5t-119.5 -231.5zM385 909l47 434q0 4 3.5 8t8.5 4h188q63 0 100 -42.5t30 -95.5q-4 -41 -28.5 -76t-61.5 -53l73 -177q5 -12 -9 -12h-108q-11 0 -14 5l-64 169h-26l-17 -164q0 -4 -4 -7t-8 -3h-99q-11 0 -11 10zM535 1178h55q20 0 30 16.5t3.5 33t-26.5 16.5 h-55z" />
<glyph unicode="&#xaf;" horiz-adv-x="888" d="M125 1130l17 163q2 12 11 21t21 9l689 1q13 0 21.5 -8.5t7.5 -20.5l-17 -165q-1 -13 -11.5 -21.5t-23.5 -8.5h-689q-29 0 -26 30z" />
<glyph unicode="&#xb0;" horiz-adv-x="683" d="M120 1081q12 112 100 192.5t200 80.5q113 0 185 -80.5t60 -192.5q-12 -113 -100.5 -193.5t-201.5 -80.5q-112 0 -183.5 80.5t-59.5 193.5zM305 1081q-5 -36 18.5 -62t60.5 -26t65 25.5t32 62.5q4 36 -19 61.5t-59 25.5q-37 0 -66.5 -26t-31.5 -61z" />
<glyph unicode="&#xb1;" horiz-adv-x="1030" d="M26 35l21 184q1 16 12.5 26t27.5 10h786q15 0 23.5 -10t7.5 -25l-21 -184q-2 -14 -13 -25t-25 -11h-786q-14 0 -24 10.5t-9 24.5zM95 689l21 194q2 16 12 25.5t26 9.5h263l27 262q3 35 38 35h195q16 0 24.5 -9.5t6.5 -25.5l-28 -262h262q35 0 32 -35l-21 -194 q-2 -16 -12 -25.5t-26 -9.5h-262l-28 -262q-3 -34 -38 -34h-195q-16 0 -24.5 9t-6.5 25l28 262h-262q-35 0 -32 35z" />
<glyph unicode="&#xb2;" horiz-adv-x="1063" d="M36 35l7 60l519 589q71 77 110 136t45 115q7 63 -34.5 107t-114.5 44q-41 0 -76.5 -11t-71 -37t-54 -43t-57.5 -56q-25 -28 -52 0l-120 132q-9 11 -8 25t12 25q200 243 477 243q173 0 292 -114.5t102 -289.5q-16 -159 -148 -307l-335 -377h386q36 0 33 -35l-23 -205 q-1 -13 -22 -24.5t-37 -11.5h-797q-13 0 -23.5 10.5t-9.5 24.5z" />
<glyph unicode="&#xb3;" horiz-adv-x="1076" d="M49 217q-18 26 7 49l166 142q25 23 49 -4q115 -138 232 -138q72 0 121 49t55 107q5 54 -26.5 93.5t-86.5 39.5q-22 0 -56 -11t-43 -11q-16 0 -26 14l-96 149q-16 27 7 50l327 311h-462q-15 0 -25.5 10.5t-9.5 24.5l23 208q1 16 13 26t28 10h748q36 0 33 -34l-22 -203 q-3 -37 -31 -65l-262 -253q93 -22 154 -83q62 -56 90 -137.5t19 -176.5q-12 -108 -86 -201.5t-182.5 -146.5t-222.5 -53q-143 0 -245.5 58t-189.5 176z" />
<glyph unicode="&#xb4;" horiz-adv-x="643" d="M130 1140l52 -107q7 -28 49 -11l387 170q14 7 19 22.5t-2 33.5l-78 154q-7 14 -23.5 14.5t-28.5 -10.5l-361 -224q-26 -19 -14 -42z" />
<glyph unicode="&#xb6;" horiz-adv-x="1565" d="M115 951q8 76 48.5 153.5t102.5 140.5t150.5 103t182.5 40h928q43 0 39 -41l-21 -202q-5 -41 -47 -41h-104l-113 -1068q-1 -16 -12.5 -26t-25.5 -10h-222q-15 0 -25 10.5t-8 25.5l114 1068h-132l-113 -1068q-1 -16 -12.5 -26t-25.5 -10h-222q-15 0 -25 10.5t-8 25.5 l49 464h-108q-76 0 -143 25.5t-114.5 69.5t-80.5 101t-46 123t-6 132zM426.5 861.5q31.5 -80.5 128.5 -80.5h89l35 323h-89q-98 0 -146.5 -81t-17 -161.5z" />
<glyph unicode="&#xb7;" horiz-adv-x="539" d="M87 522q0 76 54 130t130 54q74 0 128 -54t54 -130t-54 -130t-128 -54q-76 0 -130 54t-54 130z" />
<glyph unicode="&#xb8;" horiz-adv-x="562" d="M-26 -486q-10 13 3 28l77 69q13 12 29 0q32 -24 63 -24q38 0 61.5 21.5t25.5 54.5q4 31 -15 53t-55 22q-41 0 -76 -31q-17 -16 -28 -2l-68 68q-8 11 0 22l2 4l120 201h173l-66 -115q81 -14 129.5 -76t41.5 -146q-11 -92 -87.5 -159.5t-171.5 -67.5q-100 0 -158 78z" />
<glyph unicode="&#xb9;" horiz-adv-x="687" d="M111 1088q0 18 7.5 27.5t27.5 14.5q90 27 224 165l24 28q13 13 33 13h205q14 0 24 -10t9 -24l-134 -1266q-2 -14 -13 -25t-25 -11h-224q-16 0 -25 10t-8 26l95 898l-182 -35q-33 -8 -36 28z" />
<glyph unicode="&#xba;" horiz-adv-x="1017" d="M43 429q-19 -186 100 -313.5t305 -127.5q121 0 231 57.5t182 159.5t85 224q14 124 -37 226t-148 159t-219 57q-186 0 -332 -127t-167 -315zM318 427q8 73 64.5 126.5t131.5 53.5q76 0 121 -53.5t37 -126.5q-8 -72 -64 -124.5t-131 -52.5q-76 0 -121.5 52.5t-37.5 124.5z " />
<glyph unicode="&#xbb;" horiz-adv-x="1142" d="M29 36q7 -20 35 -20h155q23 0 43 26l264 326q20 24 5 50l-187 334q-11 22 -35 22h-161q-27 0 -37.5 -20t-2.5 -48l109 -314l-179 -307q-16 -29 -9 -49zM529.5 35q6.5 -19 34.5 -19h163q24 0 35 22l262 333q17 27 5 51l-198 326q-15 26 -34 26h-157q-27 0 -38.5 -19.5 t0.5 -49.5l110 -306l-172 -316q-17 -29 -10.5 -48z" />
<glyph unicode="&#xbc;" horiz-adv-x="1228" d="M87 1180v77q0 21 17 26q56 17 113 79l14 18q8 8 19 8h108q9 0 15.5 -6t6.5 -14v-566q0 -9 -6.5 -16t-15.5 -7h-117q-24 0 -24 23v368l-104 -7q-10 -2 -18 2.5t-8 14.5zM194 12q-7 12 2 30l689 1322q13 24 40 24h87q21 0 28 -11.5t-2 -29.5l-689 -1323q-13 -24 -40 -24 h-87q-21 0 -28 12zM722 246q0 9 7 16q115 90 165 217q24 64 24 127q0 17 17 17h106q7 0 11.5 -5t4.5 -12q-2 -105 -59 -228q-29 -55 -102 -112h64v13q0 18 15 18l101 8q7 0 12 -5.5t5 -13.5v-20h32q17 0 17 -18v-100q0 -7 -5 -11.5t-12 -4.5h-32v-116q0 -16 -15 -16h-101 q-17 0 -17 16v116h-221q-15 0 -15 16z" />
<glyph unicode="&#xbd;" horiz-adv-x="1296" d="M87 1180v77q0 21 17 26q56 17 113 79l14 18q8 8 19 8h108q9 0 15.5 -6t6.5 -14v-566q0 -9 -6.5 -16t-15.5 -7h-117q-24 0 -24 23v368l-104 -7q-10 -2 -18 2.5t-8 14.5zM194 12q-7 12 2 30l689 1322q13 24 40 24h87q21 0 28 -11.5t-2 -29.5l-689 -1323q-13 -24 -40 -24 h-87q-21 0 -28 12zM771 521q43 60 106 87.5t127 21t115 -44.5q65 -45 75 -136t-38 -157l-109 -148h147q16 0 16 -17v-108q0 -8 -4.5 -13.5t-11.5 -5.5h-380q-8 0 -13.5 6t-5.5 13v21l83 104l120 153q3 5 18 25.5t22 30.5t14 27t7 30q0 33 -25 56t-59 23q-30 0 -54.5 -15.5 t-56.5 -48.5q-12 -15 -24 0l-68 71q-11 11 -1 25z" />
<glyph unicode="&#xbe;" horiz-adv-x="1220" d="M75 864q-10 13 0 23l64 68q10 10 22 -2q17 -18 37 -33t45 -27t50.5 -10t46.5 20q25 22 28 49.5t-12 46t-40 28t-56 -4.5q-9 -9 -20 4l-54 66q-9 11 0 22l114 141h-189q-7 0 -12 4.5t-5 9.5v100q0 8 5 13.5t12 5.5h354q17 0 17 -17v-99q0 -5 -3 -8l-116 -129 q45 -10 79 -44t48.5 -77t8.5 -91.5t-36 -85.5q-81 -87 -192.5 -80t-195.5 107zM208 12q-7 12 2 30l689 1322q13 24 40 24h87q21 0 28 -11.5t-2 -29.5l-689 -1323q-13 -24 -40 -24h-87q-21 0 -28 12zM731 246q0 9 7 16q115 90 165 217q24 64 24 127q0 17 17 17h106 q7 0 11.5 -5t4.5 -12q-2 -105 -59 -228q-29 -53 -103 -112h64v13q0 7 4.5 12.5t11.5 5.5l101 8q7 0 12 -5.5t5 -13.5v-20h31q7 0 12.5 -5t5.5 -13v-100q0 -7 -5.5 -11.5t-12.5 -4.5h-31v-116q0 -16 -16 -16h-100q-18 0 -18 16v116h-220q-16 0 -16 16z" />
<glyph unicode="&#xbf;" horiz-adv-x="808" d="M-55.5 -192.5q22.5 108.5 107.5 183.5q43 37 88.5 73t59.5 46.5t30 33.5t20.5 45.5t9.5 72.5q2 14 13.5 25.5t25.5 11.5h189q16 0 25.5 -10.5t7.5 -26.5l-14 -137q-2 -27 -30 -59t-67.5 -62.5l-79 -61t-69.5 -63.5t-35 -61q-12 -65 25.5 -98.5t99.5 -33.5q19 0 37.5 4.5 t30.5 9t30.5 17t26 18t29 24t26.5 22.5q27 22 43 0l99 -123q18 -22 -3 -43q-125 -130 -278.5 -167.5t-294.5 24.5q-90 39 -132.5 133t-20 202.5zM255 679q7 75 66.5 128.5t134.5 53.5q76 0 124 -53t41 -129q-7 -74 -68 -129t-135 -55q-75 0 -123 54.5t-40 129.5z" />
<glyph unicode="&#xc0;" horiz-adv-x="1522" d="M11.5 11.5q-5.5 11.5 4.5 28.5l793 1340q10 17 28 17h17q17 0 24 -17l510 -1340q7 -17 -1 -28.5t-26 -11.5h-247q-25 0 -33 23l-62 173h-599l-99 -173q-15 -23 -40 -23h-246q-18 0 -23.5 11.5zM573 462h349l-136 373zM626 1690q-1 15 11 33l108 155q25 29 55 3l313 -224 q9 -6 10.5 -16.5t-7.5 -24.5l-71 -108q-17 -26 -52 -10l-353 170q-13 7 -14 22z" />
<glyph unicode="&#xc1;" horiz-adv-x="1522" d="M11.5 11.5q-5.5 11.5 4.5 28.5l793 1340q10 17 28 17h17q17 0 24 -17l510 -1340q7 -17 -1 -28.5t-26 -11.5h-247q-25 0 -33 23l-62 173h-599l-99 -173q-15 -23 -40 -23h-246q-18 0 -23.5 11.5zM573 462h349l-136 373zM627 1623q-12 23 13 41l361 224q12 11 29 11t24 -14 l78 -155q7 -18 2 -33t-20 -22l-387 -170q-41 -16 -48 10z" />
<glyph unicode="&#xc2;" horiz-adv-x="1522" d="M11.5 11.5q-5.5 11.5 4.5 28.5l793 1340q10 17 28 17h17q17 0 24 -17l510 -1340q7 -17 -1 -28.5t-26 -11.5h-247q-25 0 -33 23l-62 173h-599l-99 -173q-15 -23 -40 -23h-246q-18 0 -23.5 11.5zM512 1533l16 144q2 19 26 33l324 185q24 12 45 0l287 -185q21 -15 19 -33 l-16 -144q-2 -25 -20.5 -33t-45.5 5l-274 126l-302 -126q-28 -13 -44.5 -5t-14.5 33zM573 462h349l-136 373z" />
<glyph unicode="&#xc3;" horiz-adv-x="1522" d="M11.5 11.5q-5.5 11.5 4.5 28.5l793 1340q10 17 28 17h17q17 0 24 -17l510 -1340q7 -17 -1 -28.5t-26 -11.5h-247q-25 0 -33 23l-62 173h-599l-99 -173q-15 -23 -40 -23h-246q-18 0 -23.5 11.5zM483.5 1670.5q1.5 14.5 11.5 26.5q1 1 10.5 12t21.5 23t30 29t39.5 31.5 t46.5 27.5t54.5 20.5t59.5 7.5q40 0 77 -15t60.5 -32.5t55.5 -32.5t64 -15q69 0 142 61q32 27 54 0l64 -104q17 -27 -5 -49l-13 -13q-12 -12 -23.5 -21.5t-31.5 -25.5t-41.5 -27.5t-47 -23t-55 -18t-59.5 -6.5q-47 0 -83.5 14.5t-56.5 31.5t-52 31.5t-72 14.5 q-62 0 -125 -63q-12 -12 -25 -12.5t-20 10.5l-75 96q-7 7 -5.5 21.5zM573 462h349l-136 373z" />
<glyph unicode="&#xc4;" horiz-adv-x="1522" d="M11.5 11.5q-5.5 11.5 4.5 28.5l793 1340q10 17 28 17h17q17 0 24 -17l510 -1340q7 -17 -1 -28.5t-26 -11.5h-247q-25 0 -33 23l-62 173h-599l-99 -173q-15 -23 -40 -23h-246q-18 0 -23.5 11.5zM488 1722q8 62 56 106.5t109 44.5q64 0 104 -44.5t33 -106.5 q-7 -61 -56.5 -105.5t-112.5 -44.5q-62 0 -101 44.5t-32 105.5zM573 462h349l-136 373zM974 1722q7 63 55 107t111 44q62 0 101.5 -44.5t32.5 -106.5q-5 -60 -55 -105t-112 -45q-61 0 -100.5 45t-32.5 105z" />
<glyph unicode="&#xc5;" horiz-adv-x="1522" d="M11.5 11.5q-5.5 11.5 4.5 28.5l793 1340q10 17 28 17h17q17 0 24 -17l510 -1340q7 -17 -1 -28.5t-26 -11.5h-247q-25 0 -33 23l-62 173h-599l-99 -173q-15 -23 -40 -23h-246q-18 0 -23.5 11.5zM573 462h349l-136 373zM660 1664q9 90 79.5 153.5t159.5 63.5t146 -63.5 t48 -153.5q-9 -88 -79.5 -151.5t-159.5 -63.5t-146 63.5t-48 151.5zM798 1664q-4 -31 17 -53.5t53 -22.5q33 0 59 22.5t28 53.5q4 32 -18 56t-54 24t-57.5 -24t-27.5 -56z" />
<glyph unicode="&#xc6;" horiz-adv-x="2028" d="M-15 11.5q-6 11.5 6 28.5l946 1315q24 33 49 33h951q15 0 24.5 -10t8.5 -24l-21 -207q-2 -15 -14 -24.5t-28 -9.5h-588l-31 -297h312q14 0 24 -10.5t9 -24.5l-21 -205q-1 -16 -12.5 -26t-27.5 -10h-312l-28 -264h589q14 0 24 -10.5t9 -24.5l-23 -205q-1 -16 -12.5 -26 t-27.5 -10h-850q-16 0 -25 10t-8 26l14 132h-495l-106 -145q-14 -23 -42 -23h-269q-19 0 -25 11.5zM628 444h323l56 519z" />
<glyph unicode="&#xc7;" horiz-adv-x="1391" d="M83 693q21 193 133 356t284.5 257.5t363.5 94.5q149 0 277.5 -59t215.5 -165q23 -26 -8 -49l-197 -149q-25 -21 -48 2q-113 133 -274 133q-107 0 -206 -57.5t-164.5 -155t-77.5 -208.5q-17 -171 89.5 -295t269.5 -124q159 0 300 129q24 23 49 1l163 -145q24 -24 -2 -49 q-108 -105 -247.5 -163.5t-288.5 -58.5l-57 -103q79 -14 127 -76t41 -146q-11 -92 -87 -159.5t-171 -67.5q-100 0 -158 78q-10 13 3 28l76 69q13 12 30 0q31 -24 62 -24q38 0 61.5 21.5t25.5 54.5q4 31 -14.5 53t-54.5 22q-42 0 -77 -31q-17 -15 -27 -2l-68 68q-8 11 0 22 l3 4h-1l119 201h37q-119 23 -218 85.5t-166.5 152.5t-99 208.5t-18.5 246.5z" />
<glyph unicode="&#xc8;" horiz-adv-x="1166" d="M71 36l139 1318q2 15 12.5 24.5t25.5 9.5h849q15 0 24.5 -10t8.5 -24l-21 -207q-1 -15 -12.5 -24.5t-27.5 -9.5h-588l-31 -297h310q14 0 24 -10.5t9 -24.5l-21 -205q-1 -16 -12.5 -26t-27.5 -10h-312l-28 -264h589q14 0 24 -10.5t9 -24.5l-23 -205q-1 -16 -12.5 -26 t-27.5 -10h-847q-16 0 -25 10t-8 26zM447.5 1655.5q-1.5 15.5 10.5 33.5l108 154q12 14 27.5 14.5t27.5 -10.5l313 -224q9 -6 10.5 -17t-7.5 -25l-71 -107q-17 -27 -52 -11l-352 170q-13 7 -14.5 22.5z" />
<glyph unicode="&#xc9;" horiz-adv-x="1166" d="M71 36l139 1318q2 15 12.5 24.5t25.5 9.5h849q15 0 24.5 -10t8.5 -24l-21 -207q-1 -15 -12.5 -24.5t-27.5 -9.5h-588l-31 -297h310q14 0 24 -10.5t9 -24.5l-21 -205q-1 -16 -12.5 -26t-27.5 -10h-312l-28 -264h589q14 0 24 -10.5t9 -24.5l-23 -205q-1 -16 -12.5 -26 t-27.5 -10h-847q-16 0 -25 10t-8 26zM448 1588q-12 23 14 42l361 224q12 11 28.5 10.5t23.5 -14.5l78 -154q7 -18 2 -33.5t-20 -22.5l-387 -170q-41 -16 -48 10z" />
<glyph unicode="&#xca;" horiz-adv-x="1166" d="M71 36l139 1318q2 15 12.5 24.5t25.5 9.5h849q15 0 24.5 -10t8.5 -24l-21 -207q-1 -15 -12.5 -24.5t-27.5 -9.5h-588l-31 -297h310q14 0 24 -10.5t9 -24.5l-21 -205q-1 -16 -12.5 -26t-27.5 -10h-312l-28 -264h589q14 0 24 -10.5t9 -24.5l-23 -205q-1 -16 -12.5 -26 t-27.5 -10h-847q-16 0 -25 10t-8 26zM333 1498l16 144q2 19 26 33l324 186q25 12 46 0l286 -186q21 -15 19 -33l-16 -144q-2 -25 -20.5 -33t-45.5 5l-274 127l-302 -127q-28 -13 -44.5 -5t-14.5 33z" />
<glyph unicode="&#xcb;" horiz-adv-x="1166" d="M71 36l139 1318q2 15 12.5 24.5t25.5 9.5h849q15 0 24.5 -10t8.5 -24l-21 -207q-1 -15 -12.5 -24.5t-27.5 -9.5h-588l-31 -297h310q14 0 24 -10.5t9 -24.5l-21 -205q-1 -16 -12.5 -26t-27.5 -10h-312l-28 -264h589q14 0 24 -10.5t9 -24.5l-23 -205q-1 -16 -12.5 -26 t-27.5 -10h-847q-16 0 -25 10t-8 26zM309 1687q8 62 56 106.5t109 44.5q64 0 104 -44.5t33 -106.5q-7 -61 -56 -105t-112 -44q-62 0 -101.5 44.5t-32.5 104.5zM795 1687q7 63 55.5 107t111.5 44q62 0 101 -44.5t32 -106.5q-5 -60 -54.5 -104.5t-111.5 -44.5q-61 0 -101 44.5 t-33 104.5z" />
<glyph unicode="&#xcc;" horiz-adv-x="571" d="M80 36q-1 -16 8 -26t25 -10h218q14 0 25.5 11t13.5 25l139 1318q1 14 -9 24t-24 10h-219q-15 0 -25.5 -9.5t-12.5 -24.5zM145.5 1657q1.5 -15 14.5 -22l352 -170q35 -16 52 10l71 108q9 14 7.5 25t-10.5 17l-313 223q-30 26 -55 -3l-108 -155q-12 -18 -10.5 -33z" />
<glyph unicode="&#xcd;" horiz-adv-x="571" d="M80 36q-1 -16 8 -26t25 -10h218q14 0 25.5 11t13.5 25l139 1318q1 14 -9 24t-24 10h-219q-15 0 -25.5 -9.5t-12.5 -24.5zM146 1590l52 -108q7 -26 48 -10l387 170q15 7 20 22t-2 33l-78 155q-7 14 -23.5 14t-28.5 -11l-361 -224q-26 -18 -14 -41z" />
<glyph unicode="&#xce;" horiz-adv-x="571" d="M30 1500q-2 -25 14.5 -33t44.5 5l302 126l274 -126q27 -13 45.5 -5t20.5 33l15 144q2 18 -19 33l-286 185q-21 12 -45 0l-325 -185q-24 -14 -26 -33zM80 36q-1 -16 8 -26t25 -10h218q14 0 25.5 11t13.5 25l139 1318q1 14 -9 24t-24 10h-219q-15 0 -25.5 -9.5t-12.5 -24.5 z" />
<glyph unicode="&#xcf;" horiz-adv-x="571" d="M7 1689q8 62 56 106.5t109 44.5q64 0 104 -44.5t33 -106.5q-7 -61 -56 -105.5t-112 -44.5q-62 0 -101.5 45t-32.5 105zM80 36q-1 -16 8 -26t25 -10h218q14 0 25.5 11t13.5 25l139 1318q1 14 -9 24t-24 10h-219q-15 0 -25.5 -9.5t-12.5 -24.5zM493 1689q7 63 55.5 107 t111.5 44q62 0 101 -44.5t32 -106.5q-5 -60 -55 -105t-111 -45t-101 45t-33 105z" />
<glyph unicode="&#xd0;" horiz-adv-x="1426" d="M30 592l20 205q2 15 13.5 25.5t26.5 10.5h115l55 521q2 14 12.5 24t26.5 10h461q131 0 242.5 -40.5t188.5 -108.5t129 -157t72 -187t10 -196q-15 -140 -77.5 -266t-162 -222.5t-242 -153.5t-306.5 -57h-460q-16 0 -25 10t-8 26l56 521h-116q-15 0 -23.5 10t-7.5 25z M446 290h198q94 0 176.5 35t140 93t93.5 131t45 152q11 106 -27 195.5t-127.5 146t-215.5 56.5h-196l-28 -266h116q14 0 24 -10.5t9 -24.5l-22 -204q-1 -16 -12.5 -26.5t-25.5 -10.5h-118z" />
<glyph unicode="&#xd1;" horiz-adv-x="1471" d="M69 36l139 1318q1 14 12.5 24t25.5 10h132q26 0 49 -26l614 -798l84 790q2 15 12.5 24.5t25.5 9.5h224q15 0 24.5 -10t8.5 -24l-139 -1319q-2 -14 -13 -24.5t-25 -10.5h-75q-82 0 -163 108l-559 704l-82 -776q-1 -14 -13 -24t-26 -10l-223 -2q-16 0 -25 10t-8 26z M450.5 1630.5q-1.5 -14.5 5.5 -21.5l75 -96q7 -11 20 -10.5t25 12.5q63 63 125 63q40 0 72 -14.5t52 -31.5t56.5 -31.5t83.5 -14.5q30 0 59.5 6.5t55 18t47 23t41.5 27.5t31.5 25.5t24.5 21.5l12 13q22 22 5 49l-64 104q-22 27 -54 0q-73 -61 -142 -61q-32 0 -64 15 t-55.5 32.5t-60.5 32.5t-77 15q-30 0 -59.5 -7.5t-54.5 -20.5t-46.5 -27.5t-39.5 -31.5t-30 -29t-21.5 -23t-10.5 -12q-10 -12 -11.5 -26.5z" />
<glyph unicode="&#xd2;" horiz-adv-x="1607" d="M99 696q-15 -146 27 -277.5t127.5 -225.5t210.5 -149.5t270 -55.5q144 0 280.5 55.5t241 149.5t174.5 225.5t85 277.5q15 144 -27 274.5t-127 225t-210 150t-268 55.5q-193 0 -366 -94t-285 -256.5t-133 -354.5zM397 696q18 168 154.5 293t302.5 125q108 0 196 -57.5 t133.5 -154t33.5 -206.5q-11 -111 -77 -208.5t-166.5 -155.5t-208.5 -58q-166 0 -275.5 126t-92.5 296zM657.5 1667.5q1.5 -15.5 14.5 -22.5l352 -170q35 -16 52 11l71 107q9 14 7.5 25t-10.5 17l-313 224q-12 11 -27.5 10.5t-27.5 -14.5l-108 -154q-12 -18 -10.5 -33.5z " />
<glyph unicode="&#xd3;" horiz-adv-x="1607" d="M99 696q-15 -146 27 -277.5t127.5 -225.5t210.5 -149.5t270 -55.5q144 0 280.5 55.5t241 149.5t174.5 225.5t85 277.5q15 144 -27 274.5t-127 225t-210 150t-268 55.5q-193 0 -366 -94t-285 -256.5t-133 -354.5zM397 696q18 168 154.5 293t302.5 125q108 0 196 -57.5 t133.5 -154t33.5 -206.5q-11 -111 -77 -208.5t-166.5 -155.5t-208.5 -58q-166 0 -275.5 126t-92.5 296zM658 1600l52 -107q7 -27 48 -11l387 170q15 7 20 22.5t-2 33.5l-78 154q-7 14 -23.5 14.5t-28.5 -10.5l-361 -224q-26 -19 -14 -42z" />
<glyph unicode="&#xd4;" horiz-adv-x="1607" d="M99 696q-15 -146 27 -277.5t127.5 -225.5t210.5 -149.5t270 -55.5q144 0 280.5 55.5t241 149.5t174.5 225.5t85 277.5q15 144 -27 274.5t-127 225t-210 150t-268 55.5q-193 0 -366 -94t-285 -256.5t-133 -354.5zM397 696q18 168 154.5 293t302.5 125q108 0 196 -57.5 t133.5 -154t33.5 -206.5q-11 -111 -77 -208.5t-166.5 -155.5t-208.5 -58q-166 0 -275.5 126t-92.5 296zM542 1510q-2 -25 14.5 -33t44.5 5l302 127l274 -127q27 -13 45.5 -5t20.5 33l15 144q2 18 -19 33l-286 186q-21 12 -45 0l-325 -186q-24 -14 -26 -33z" />
<glyph unicode="&#xd5;" horiz-adv-x="1607" d="M99 696q-15 -146 27 -277.5t127.5 -225.5t210.5 -149.5t270 -55.5q144 0 280.5 55.5t241 149.5t174.5 225.5t85 277.5q15 144 -27 274.5t-127 225t-210 150t-268 55.5q-193 0 -366 -94t-285 -256.5t-133 -354.5zM397 696q18 168 154.5 293t302.5 125q108 0 196 -57.5 t133.5 -154t33.5 -206.5q-11 -111 -77 -208.5t-166.5 -155.5t-208.5 -58q-166 0 -275.5 126t-92.5 296zM513 1648q-1 -15 6 -22l75 -95q7 -11 20 -10.5t25 12.5q62 62 125 62q40 0 72 -14.5t51.5 -31.5t56 -31.5t83.5 -14.5q30 0 59.5 6.5t55 18t47 23t41.5 27.5t31.5 25.5 t24.5 22.5l12 12q22 22 5 49l-64 104q-22 27 -54 0q-73 -61 -142 -61q-40 0 -79.5 24t-83 48t-94.5 24q-30 0 -59.5 -7.5t-54.5 -20.5t-46.5 -27.5t-39.5 -31.5t-30 -29t-21.5 -23t-10.5 -12q-10 -12 -11 -27z" />
<glyph unicode="&#xd6;" horiz-adv-x="1607" d="M99 696q-15 -146 27 -277.5t127.5 -225.5t210.5 -149.5t270 -55.5q144 0 280.5 55.5t241 149.5t174.5 225.5t85 277.5q15 144 -27 274.5t-127 225t-210 150t-268 55.5q-193 0 -366 -94t-285 -256.5t-133 -354.5zM397 696q18 168 154.5 293t302.5 125q108 0 196 -57.5 t133.5 -154t33.5 -206.5q-11 -111 -77 -208.5t-166.5 -155.5t-208.5 -58q-166 0 -275.5 126t-92.5 296zM519 1699q8 62 56 106.5t109 44.5q64 0 104 -44.5t33 -106.5q-7 -61 -56 -105t-112 -44q-62 0 -101.5 44.5t-32.5 104.5zM1005 1699q7 63 55.5 107t111.5 44 q62 0 101 -44.5t32 -106.5q-5 -60 -54.5 -104.5t-111.5 -44.5q-61 0 -101 44.5t-33 104.5z" />
<glyph unicode="&#xd7;" horiz-adv-x="1032" d="M95 411q-22 25 6 52l236 214l-191 213q-23 26 5 52l148 136q30 22 52 0l192 -215l238 215q27 23 50 0l120 -136q23 -27 -3 -50l-238 -215l193 -215q23 -23 -6 -51l-149 -135q-13 -12 -27 -12t-23 12l-193 215l-238 -215q-27 -26 -50 0z" />
<glyph unicode="&#xd8;" horiz-adv-x="1685" d="M99 696q21 192 133 354.5t285 256.5t366 94q195 0 354 -101l143 142q25 25 50 0l155 -156q26 -23 0 -49l-148 -147q102 -179 78 -394q-15 -146 -85 -277.5t-174.5 -225.5t-241 -149.5t-280.5 -55.5q-172 0 -319 78l-110 -109q-11 -11 -24 -11t-24 11l-156 156 q-22 26 0 48l100 101q-127 191 -102 434zM397 696q-10 -109 33 -205l585 585q-78 38 -161 38q-166 0 -302.5 -125t-154.5 -293zM644 295q57 -21 121 -21q108 0 208.5 58t166.5 155.5t77 208.5q9 76 -14 158z" />
<glyph unicode="&#xd9;" horiz-adv-x="1353" d="M111 503q-23 -226 108.5 -370.5t387.5 -144.5q258 0 424.5 145t190.5 370l88 851q2 17 -6 26.5t-23 9.5h-227q-34 0 -39 -36l-85 -825q-13 -116 -87.5 -187t-203.5 -71t-186.5 70.5t-44.5 187.5l87 825q2 15 -6.5 25.5t-23.5 10.5h-225q-16 0 -27 -10t-13 -26z M532.5 1653.5q1.5 -15.5 14.5 -22.5l352 -170q35 -16 52 11l71 107q9 14 7.5 25t-10.5 17l-313 224q-12 11 -27.5 10.5t-27.5 -14.5l-108 -154q-12 -18 -10.5 -33.5z" />
<glyph unicode="&#xda;" horiz-adv-x="1353" d="M111 503q-23 -226 108.5 -370.5t387.5 -144.5q258 0 424.5 145t190.5 370l88 851q2 17 -6 26.5t-23 9.5h-227q-34 0 -39 -36l-85 -825q-13 -116 -87.5 -187t-203.5 -71t-186.5 70.5t-44.5 187.5l87 825q2 15 -6.5 25.5t-23.5 10.5h-225q-16 0 -27 -10t-13 -26zM533 1586 l52 -107q7 -27 48 -11l388 170q14 7 19 22.5t-2 33.5l-78 154q-7 14 -23.5 14.5t-28.5 -10.5l-361 -224q-26 -19 -14 -42z" />
<glyph unicode="&#xdb;" horiz-adv-x="1353" d="M111 503q-23 -226 108.5 -370.5t387.5 -144.5q258 0 424.5 145t190.5 370l88 851q2 17 -6 26.5t-23 9.5h-227q-34 0 -39 -36l-85 -825q-13 -116 -87.5 -187t-203.5 -71t-186.5 70.5t-44.5 187.5l87 825q2 15 -6.5 25.5t-23.5 10.5h-225q-16 0 -27 -10t-13 -26zM418 1496 q-2 -25 14.5 -33t44.5 5l302 127l275 -127q27 -13 45 -5t20 33l16 144q2 18 -19 33l-286 186q-21 12 -46 0l-324 -186q-24 -14 -26 -33z" />
<glyph unicode="&#xdc;" horiz-adv-x="1353" d="M111 503q-23 -226 108.5 -370.5t387.5 -144.5q258 0 424.5 145t190.5 370l88 851q2 17 -6 26.5t-23 9.5h-227q-34 0 -39 -36l-85 -825q-13 -116 -87.5 -187t-203.5 -71t-186.5 70.5t-44.5 187.5l87 825q2 15 -6.5 25.5t-23.5 10.5h-225q-16 0 -27 -10t-13 -26zM394 1685 q8 62 56 106.5t109 44.5q64 0 104 -44.5t33 -106.5q-7 -61 -56 -105t-112 -44q-62 0 -101.5 44.5t-32.5 104.5zM880 1685q7 63 55.5 107t111.5 44q62 0 101 -44.5t32 -106.5q-5 -60 -54.5 -104.5t-111.5 -44.5q-61 0 -101 44.5t-33 104.5z" />
<glyph unicode="&#xdd;" horiz-adv-x="1331" d="M92 1349q-7 14 0 26.5t23 12.5h272q9 0 16 -5.5t10 -10.5t10 -18l261 -481l361 481q2 2 5.5 7.5t5.5 7.5t5 6t5.5 5.5t5.5 4t6.5 3t7.5 0.5h276q15 0 19.5 -12.5t-5.5 -26.5l-574 -761l-59 -552q-1 -17 -11.5 -26.5t-25.5 -9.5h-171q-42 0 -63 26t-17 68l52 491z M512 1592l52 -108q7 -27 49 -10l387 170q33 16 17 55l-78 155q-7 14 -23.5 14t-28.5 -11l-361 -224q-26 -18 -14 -41z" />
<glyph unicode="&#xde;" horiz-adv-x="1194" d="M61 36l139 1318q2 15 12.5 24.5t25.5 9.5h222q14 0 24 -10t9 -24l-21 -200h274q95 0 176.5 -41t133 -106.5t78 -145.5t18.5 -158q-9 -85 -52.5 -169t-109.5 -149.5t-156 -106t-185 -40.5h-274l-21 -202q-2 -14 -13 -25t-25 -11h-222q-16 0 -25 10t-8 26zM404 514h268 q99 0 153 86q47 74 30 156q-16 83 -90 108q-25 9 -55 9h-267z" />
<glyph unicode="&#xdf;" horiz-adv-x="1136" d="M26 36l95 886q23 205 166 338.5t343 133.5q121 0 219 -53t149.5 -144t41.5 -199q-10 -89 -51.5 -150t-145.5 -114q98 -44 151 -137.5t42 -202.5q-11 -102 -80.5 -194t-172.5 -146t-209 -54h-45q-37 0 -34 35l19 168q3 34 40 37q192 12 211 177q9 82 -53 131t-157 49 l18 174q4 34 29 41l45 11q59 13 84.5 51t32.5 105q7 62 -40 99.5t-120 37.5q-81 0 -138 -55t-67 -158l-94 -867q-2 -14 -13 -25t-25 -11h-208q-16 0 -25 10t-8 26z" />
<glyph unicode="&#xe0;" d="M33 233q-13 -117 56.5 -179.5t205.5 -62.5q93 0 154.5 22t114.5 67q5 -80 61 -80h153q17 0 26 12.5t7 30.5q-7 229 36 511q23 149 -60.5 232.5t-234.5 83.5q-104 0 -206.5 -25.5t-177.5 -61.5q-38 -20 -29 -52l36 -129q8 -33 45 -17q164 62 247 62q60 0 85.5 -24.5 t20.5 -70.5q-123 -20 -212 -44t-163.5 -61t-115.5 -90.5t-49 -123.5zM301.5 1207.5q1.5 -15.5 14.5 -22.5l352 -170q35 -16 52 11l71 107q9 14 7.5 25t-10.5 17l-312 224q-12 11 -28 10.5t-28 -14.5l-108 -154q-12 -18 -10.5 -33.5zM302 243q2 17 13 31t33.5 25.5t42.5 20 t54 16.5t52.5 12t52.5 11q-7 -43 -12 -111q-76 -59 -168 -59q-33 0 -51.5 14t-16.5 40z" />
<glyph unicode="&#xe1;" d="M33 233q-13 -117 56.5 -179.5t205.5 -62.5q93 0 154.5 22t114.5 67q5 -80 61 -80h153q17 0 26 12.5t7 30.5q-7 229 36 511q23 149 -60.5 232.5t-234.5 83.5q-104 0 -206.5 -25.5t-177.5 -61.5q-38 -20 -29 -52l36 -129q8 -33 45 -17q164 62 247 62q60 0 85.5 -24.5 t20.5 -70.5q-123 -20 -212 -44t-163.5 -61t-115.5 -90.5t-49 -123.5zM302 243q2 17 13 31t33.5 25.5t42.5 20t54 16.5t52.5 12t52.5 11q-7 -43 -12 -111q-76 -59 -168 -59q-33 0 -51.5 14t-16.5 40zM302 1140l52 -107q7 -28 49 -11l387 170q14 7 19 22.5t-2 33.5l-78 154 q-7 14 -23.5 14.5t-28.5 -10.5l-361 -224q-26 -19 -14 -42z" />
<glyph unicode="&#xe2;" d="M33 233q-13 -117 56.5 -179.5t205.5 -62.5q93 0 154.5 22t114.5 67q5 -80 61 -80h153q17 0 26 12.5t7 30.5q-7 229 36 511q23 149 -60.5 232.5t-234.5 83.5q-104 0 -206.5 -25.5t-177.5 -61.5q-38 -20 -29 -52l36 -129q8 -33 45 -17q164 62 247 62q60 0 85.5 -24.5 t20.5 -70.5q-123 -20 -212 -44t-163.5 -61t-115.5 -90.5t-49 -123.5zM187 1050q-2 -25 14.5 -33t44.5 5l302 127l275 -127q27 -13 45.5 -5t20.5 33l15 144q2 18 -19 33l-286 186q-21 12 -45 0l-325 -186q-24 -14 -26 -33zM302 243q2 17 13 31t33.5 25.5t42.5 20t54 16.5 t52.5 12t52.5 11q-7 -43 -12 -111q-76 -59 -168 -59q-33 0 -51.5 14t-16.5 40z" />
<glyph unicode="&#xe3;" d="M33 233q-13 -117 56.5 -179.5t205.5 -62.5q93 0 154.5 22t114.5 67q5 -80 61 -80h153q17 0 26 12.5t7 30.5q-7 229 36 511q23 149 -60.5 232.5t-234.5 83.5q-104 0 -206.5 -25.5t-177.5 -61.5q-38 -20 -29 -52l36 -129q8 -33 45 -17q164 62 247 62q60 0 85.5 -24.5 t20.5 -70.5q-123 -20 -212 -44t-163.5 -61t-115.5 -90.5t-49 -123.5zM159 1188q-1 -15 6 -22l75 -95q7 -11 20 -10.5t25 12.5q62 62 125 62q40 0 72 -14.5t51.5 -31.5t56 -31.5t83.5 -14.5q30 0 59.5 6.5t55 18t47 23t41.5 27.5t31.5 25.5t24.5 22.5l12 12q22 22 5 49 l-64 104q-22 27 -54 0q-73 -61 -142 -61q-40 0 -79.5 24t-83 48t-94.5 24q-30 0 -59.5 -7.5t-54.5 -20.5t-46.5 -27.5t-39.5 -31.5t-30 -29t-21.5 -23t-10.5 -12q-10 -12 -11 -27zM302 243q2 17 13 31t33.5 25.5t42.5 20t54 16.5t52.5 12t52.5 11q-7 -43 -12 -111 q-76 -59 -168 -59q-33 0 -51.5 14t-16.5 40z" />
<glyph unicode="&#xe4;" d="M33 233q-13 -117 56.5 -179.5t205.5 -62.5q93 0 154.5 22t114.5 67q5 -80 61 -80h153q17 0 26 12.5t7 30.5q-7 229 36 511q23 149 -60.5 232.5t-234.5 83.5q-104 0 -206.5 -25.5t-177.5 -61.5q-38 -20 -29 -52l36 -129q8 -33 45 -17q164 62 247 62q60 0 85.5 -24.5 t20.5 -70.5q-123 -20 -212 -44t-163.5 -61t-115.5 -90.5t-49 -123.5zM163 1239q8 62 56 106.5t109 44.5q64 0 104 -44.5t33 -106.5q-7 -61 -56 -105t-112 -44q-62 0 -101.5 44.5t-32.5 104.5zM302 243q2 17 13 31t33.5 25.5t42.5 20t54 16.5t52.5 12t52.5 11 q-7 -43 -12 -111q-76 -59 -168 -59q-33 0 -51.5 14t-16.5 40zM649 1239q7 63 55.5 107t111.5 44q62 0 101 -44.5t32 -106.5q-5 -60 -54.5 -104.5t-111.5 -44.5q-61 0 -101 44.5t-33 104.5z" />
<glyph unicode="&#xe5;" d="M33 233q-13 -117 56.5 -179.5t205.5 -62.5q93 0 154.5 22t114.5 67q5 -80 61 -80h153q17 0 26 12.5t7 30.5q-7 229 36 511q23 149 -60.5 232.5t-234.5 83.5q-104 0 -206.5 -25.5t-177.5 -61.5q-38 -20 -29 -52l36 -129q8 -33 45 -17q164 62 247 62q60 0 85.5 -24.5 t20.5 -70.5q-123 -20 -212 -44t-163.5 -61t-115.5 -90.5t-49 -123.5zM302 243q2 17 13 31t33.5 25.5t42.5 20t54 16.5t52.5 12t52.5 11q-7 -43 -12 -111q-76 -59 -168 -59q-33 0 -51.5 14t-16.5 40zM335 1182q9 90 79.5 153.5t159.5 63.5t146.5 -63.5t48.5 -153.5 q-9 -88 -80 -151.5t-160 -63.5t-146 63.5t-48 151.5zM474 1182q-4 -31 16.5 -53.5t52.5 -22.5q33 0 59 22.5t28 53.5q4 32 -17.5 56t-53.5 24t-57.5 -24t-27.5 -56z" />
<glyph unicode="&#xe6;" horiz-adv-x="1497" d="M33 233q8 70 49 123.5t115.5 90.5t163.5 61t212 44q5 46 -20.5 70.5t-85.5 24.5q-83 0 -247 -62q-37 -16 -45 17l-36 129q-9 32 29 52q75 36 177.5 61.5t206.5 25.5q148 0 231 -80q117 81 257 81q94 0 170 -34.5t121 -91t66 -128t12 -147.5q-7 -62 -46 -97t-103 -35h-434 q9 -53 62 -83.5t124 -30.5q114 0 215 43q17 8 32 6t25 -20l37 -66q18 -28 -5 -53q-119 -143 -353 -143q-79 0 -156 28q-8 -19 -29 -19h-153q-56 0 -61 80q-53 -45 -114.5 -67t-154.5 -22q-136 0 -205.5 62.5t-56.5 179.5zM302 243q-2 -26 16.5 -40t51.5 -14q92 0 168 59 q5 68 12 111q-34 -7 -52.5 -11t-52.5 -12t-54 -16.5t-42.5 -20t-33.5 -25.5t-13 -31zM847 535h307q-2 34 -41.5 62t-102.5 28q-59 0 -105 -28.5t-58 -61.5z" />
<glyph unicode="&#xe7;" horiz-adv-x="876" d="M47 427q13 124 85 226.5t182 160t231 57.5q165 0 278 -111q23 -20 -2 -50l-118 -132q-25 -25 -56 -4q-48 33 -121 33q-75 0 -133.5 -51t-67.5 -127q-7 -75 41 -127t122 -52q70 0 130 36q34 23 54 -7l85 -137q19 -27 -9 -50q-98 -72 -208 -95l-63 -112q79 -14 127.5 -76.5 t41.5 -145.5q-11 -92 -87.5 -159.5t-171.5 -67.5q-100 0 -158 78q-10 13 4 28l76 69q13 12 29 0q32 -24 63 -24q38 0 61.5 21.5t25.5 54.5q4 31 -15 53t-55 22q-41 0 -76 -31q-17 -16 -28 -2l-68 68q-8 11 0 22l4 4h-2l118 198q-154 29 -245 148.5t-74 281.5z" />
<glyph unicode="&#xe8;" horiz-adv-x="954" d="M45 430q-19 -192 96.5 -315.5t302.5 -123.5q234 0 353 143q23 25 5 53l-38 66q-10 18 -24.5 20t-31.5 -6q-101 -43 -217 -43q-70 0 -123 30.5t-63 83.5h434q65 0 104.5 35t46.5 97q8 76 -13 147.5t-66 128t-120.5 91t-169.5 34.5q-182 0 -319 -129.5t-157 -311.5z M303.5 1204q1.5 -15 14.5 -22l352 -170q35 -16 52 10l71 108q9 14 7.5 25t-10.5 17l-313 223q-30 26 -55 -3l-108 -155q-12 -18 -10.5 -33zM328 535q12 34 57 62t106 28q62 0 101 -28t41 -62h-305z" />
<glyph unicode="&#xe9;" horiz-adv-x="954" d="M45 430q-19 -192 96.5 -315.5t302.5 -123.5q234 0 353 143q23 25 5 53l-38 66q-10 18 -24.5 20t-31.5 -6q-101 -43 -217 -43q-70 0 -123 30.5t-63 83.5h434q65 0 104.5 35t46.5 97q8 76 -13 147.5t-66 128t-120.5 91t-169.5 34.5q-182 0 -319 -129.5t-157 -311.5z M305 1137l53 -108q7 -26 48 -10l387 170q15 7 20 22t-2 33l-79 155q-7 14 -23.5 14t-28.5 -11l-361 -224q-26 -18 -14 -41zM328 535q12 34 57 62t106 28q62 0 101 -28t41 -62h-305z" />
<glyph unicode="&#xea;" horiz-adv-x="954" d="M45 430q-19 -192 96.5 -315.5t302.5 -123.5q234 0 353 143q23 25 5 53l-38 66q-10 18 -24.5 20t-31.5 -6q-101 -43 -217 -43q-70 0 -123 30.5t-63 83.5h434q65 0 104.5 35t46.5 97q8 76 -13 147.5t-66 128t-120.5 91t-169.5 34.5q-182 0 -319 -129.5t-157 -311.5z M189 1047q-2 -25 14.5 -33t44.5 5l302 126l274 -126q27 -13 45.5 -5t20.5 33l16 144q2 18 -19 33l-286 185q-21 12 -46 0l-324 -185q-24 -14 -26 -33zM328 535q12 34 57 62t106 28q62 0 101 -28t41 -62h-305z" />
<glyph unicode="&#xeb;" horiz-adv-x="954" d="M45 430q-19 -192 96.5 -315.5t302.5 -123.5q234 0 353 143q23 25 5 53l-38 66q-10 18 -24.5 20t-31.5 -6q-101 -43 -217 -43q-70 0 -123 30.5t-63 83.5h434q65 0 104.5 35t46.5 97q8 76 -13 147.5t-66 128t-120.5 91t-169.5 34.5q-182 0 -319 -129.5t-157 -311.5z M165 1236q8 62 56 106.5t109 44.5q64 0 104 -44.5t33 -106.5q-7 -61 -56 -105.5t-112 -44.5q-62 0 -101.5 45t-32.5 105zM328 535q12 34 57 62t106 28q62 0 101 -28t41 -62h-305zM651 1236q7 63 55 107t111 44q62 0 101.5 -44.5t32.5 -106.5q-5 -60 -55 -105t-112 -45 q-61 0 -100.5 45t-32.5 105z" />
<glyph unicode="&#xec;" horiz-adv-x="546" d="M76 94q-4 -42 17 -68t63 -26h163q15 0 25.5 9.5t11.5 26.5l83 788q2 14 -7.5 24.5t-23.5 10.5h-217q-15 0 -25.5 -10t-12.5 -25zM104 1207.5q1 -15.5 14 -22.5l352 -170q35 -16 52 11l72 107q9 14 7 25t-11 17l-312 224q-12 11 -28 10.5t-28 -14.5l-107 -154 q-12 -18 -11 -33.5z" />
<glyph unicode="&#xed;" horiz-adv-x="546" d="M76 94q-4 -42 17 -68t63 -26h163q15 0 25.5 9.5t11.5 26.5l83 788q2 14 -7.5 24.5t-23.5 10.5h-217q-15 0 -25.5 -10t-12.5 -25zM106 1140l52 -107q7 -28 49 -11l387 170q14 7 19 22.5t-2 33.5l-78 154q-7 14 -23.5 14.5t-28.5 -10.5l-361 -224q-26 -19 -14 -42z" />
<glyph unicode="&#xee;" horiz-adv-x="546" d="M-10 1050q-2 -25 14.5 -33t44.5 5l302 127l274 -127q27 -13 45.5 -5t20.5 33l15 144q2 18 -19 33l-286 186q-21 12 -45 0l-325 -186q-24 -14 -26 -33zM76 94q-4 -42 17 -68t63 -26h163q15 0 25.5 9.5t11.5 26.5l83 788q2 14 -7.5 24.5t-23.5 10.5h-217q-15 0 -25.5 -10 t-12.5 -25z" />
<glyph unicode="&#xef;" horiz-adv-x="546" d="M-35 1239q8 62 56 106.5t109 44.5q64 0 104 -44.5t33 -106.5q-7 -61 -56 -105t-112 -44q-62 0 -101.5 44.5t-32.5 104.5zM76 94q-4 -42 17 -68t63 -26h163q15 0 25.5 9.5t11.5 26.5l83 788q2 14 -7.5 24.5t-23.5 10.5h-217q-15 0 -25.5 -10t-12.5 -25zM451 1239 q7 63 55.5 107t111.5 44q62 0 101.5 -44.5t32.5 -106.5q-5 -60 -55 -104.5t-112 -44.5q-61 0 -101 44.5t-33 104.5z" />
<glyph unicode="&#xf0;" horiz-adv-x="1037" d="M50 427q18 174 156 292t318 118q80 0 167 -42q-11 114 -73 186l-125 -65q-34 -16 -49 19l-19 39q-14 34 16 48l73 38q-59 25 -139 28q-19 0 -29.5 10.5t-8.5 27.5l45 212q4 18 11 24.5t24 6.5q218 -9 371 -166l99 50q14 7 27 2t18 -19l21 -40q17 -33 -14 -49l-75 -38 l6 -10q65 -101 87.5 -242t5.5 -288q-28 -265 -172 -423t-345 -158q-183 0 -298.5 129t-97.5 310zM335 410q-7 -62 33.5 -108.5t100.5 -46.5q67 0 120 46.5t64 113.5q13 62 -30 112.5t-108 50.5t-118.5 -50t-61.5 -118z" />
<glyph unicode="&#xf1;" horiz-adv-x="1053" d="M43 35l84 789q2 15 12 25t24 10h163q28 -19 63 -69q120 78 243 78q96 0 172.5 -39.5t119 -118.5t31.5 -184l-39 -366q-3 -59 2 -115q2 -17 -5.5 -31t-20.5 -14h-189q-42 0 -63 26t-17 66l38 373q7 62 -25.5 92.5t-88.5 30.5q-88 0 -165 -66l-52 -487q-2 -14 -13 -24.5 t-25 -10.5h-219q-14 0 -23 10.5t-7 24.5zM185 1188q1 15 11 27q1 1 10.5 12t21.5 23t30 29t39.5 31.5t46.5 27.5t54.5 20.5t59.5 7.5q51 0 94.5 -24t83 -48t79.5 -24q69 0 142 61q32 27 54 0l64 -104q17 -27 -5 -49l-12 -12q-13 -13 -24.5 -22.5t-31.5 -25.5t-41.5 -27.5 t-47 -23t-55 -18t-59.5 -6.5q-47 0 -83.5 14.5t-56 31.5t-51.5 31.5t-72 14.5q-63 0 -125 -62q-12 -12 -25 -12.5t-20 10.5l-75 95q-7 7 -6 22z" />
<glyph unicode="&#xf2;" horiz-adv-x="1017" d="M43 429q-19 -186 100 -313.5t305 -127.5q121 0 231 57.5t182 159.5t85 224q14 124 -37 226t-148 159t-219 57q-186 0 -332 -127t-167 -315zM318 427q8 73 64.5 126.5t131.5 53.5q76 0 121 -53.5t37 -126.5q-8 -72 -64 -124.5t-131 -52.5q-76 0 -121.5 52.5t-37.5 124.5z M341.5 1207.5q1.5 -15.5 14.5 -22.5l352 -170q35 -16 52 11l71 107q9 14 7.5 25t-10.5 17l-313 224q-12 11 -27.5 10.5t-27.5 -14.5l-108 -154q-12 -18 -10.5 -33.5z" />
<glyph unicode="&#xf3;" horiz-adv-x="1017" d="M43 429q-19 -186 100 -313.5t305 -127.5q121 0 231 57.5t182 159.5t85 224q14 124 -37 226t-148 159t-219 57q-186 0 -332 -127t-167 -315zM318 427q8 73 64.5 126.5t131.5 53.5q76 0 121 -53.5t37 -126.5q-8 -72 -64 -124.5t-131 -52.5q-76 0 -121.5 52.5t-37.5 124.5z M342 1140l52 -107q7 -28 49 -11l387 170q14 7 19 22.5t-2 33.5l-78 154q-7 14 -23.5 14.5t-28.5 -10.5l-361 -224q-26 -19 -14 -42z" />
<glyph unicode="&#xf4;" horiz-adv-x="1017" d="M43 429q-19 -186 100 -313.5t305 -127.5q121 0 231 57.5t182 159.5t85 224q14 124 -37 226t-148 159t-219 57q-186 0 -332 -127t-167 -315zM227 1050q-2 -25 14.5 -33t44.5 5l302 127l275 -127q27 -13 45.5 -5t20.5 33l15 144q2 18 -19 33l-286 186q-21 12 -45 0 l-325 -186q-24 -14 -26 -33zM318 427q8 73 64.5 126.5t131.5 53.5q76 0 121 -53.5t37 -126.5q-8 -72 -64 -124.5t-131 -52.5q-76 0 -121.5 52.5t-37.5 124.5z" />
<glyph unicode="&#xf5;" horiz-adv-x="1017" d="M43 429q-19 -186 100 -313.5t305 -127.5q121 0 231 57.5t182 159.5t85 224q14 124 -37 226t-148 159t-219 57q-186 0 -332 -127t-167 -315zM199 1188q-1 -15 6 -22l74 -95q7 -11 20.5 -10.5t25.5 12.5q62 62 125 62q40 0 72 -14.5t51.5 -31.5t56 -31.5t83.5 -14.5 q30 0 59.5 6.5t55 18t47 23t41.5 27.5t31.5 25.5t24.5 22.5l12 12q22 22 5 49l-64 104q-22 27 -54 0q-73 -61 -142 -61q-40 0 -79.5 24t-83 48t-94.5 24q-30 0 -59.5 -7.5t-54.5 -20.5t-46.5 -27.5t-39.5 -31.5t-30 -29t-21.5 -23t-10.5 -12q-10 -12 -11 -27zM318 427 q8 73 64.5 126.5t131.5 53.5q76 0 121 -53.5t37 -126.5q-8 -72 -64 -124.5t-131 -52.5q-76 0 -121.5 52.5t-37.5 124.5z" />
<glyph unicode="&#xf6;" horiz-adv-x="1017" d="M43 429q-19 -186 100 -313.5t305 -127.5q121 0 231 57.5t182 159.5t85 224q14 124 -37 226t-148 159t-219 57q-186 0 -332 -127t-167 -315zM203 1239q8 62 56 106.5t109 44.5q64 0 104 -44.5t33 -106.5q-7 -61 -56 -105t-112 -44q-62 0 -101.5 44.5t-32.5 104.5zM318 427 q8 73 64.5 126.5t131.5 53.5q76 0 121 -53.5t37 -126.5q-8 -72 -64 -124.5t-131 -52.5q-76 0 -121.5 52.5t-37.5 124.5zM689 1239q7 63 55.5 107t111.5 44q62 0 101 -44.5t32 -106.5q-5 -60 -54.5 -104.5t-111.5 -44.5q-61 0 -101 44.5t-33 104.5z" />
<glyph unicode="&#xf7;" horiz-adv-x="1084" d="M82 566l19 168q2 16 13 26.5t27 10.5h840q15 0 23.5 -10t7.5 -25l-19 -168q-2 -15 -13 -26t-25 -11h-840q-14 0 -24 10.5t-9 24.5zM338 245q7 68 62 117t124 49q67 0 111 -49t37 -117q-7 -69 -61.5 -118t-121.5 -49q-69 0 -113.5 49t-37.5 118zM422 1057q7 69 62.5 118 t124.5 49q68 0 111.5 -49t36.5 -118t-61 -118t-122 -49q-69 0 -114 49t-38 118z" />
<glyph unicode="&#xf8;" horiz-adv-x="1157" d="M95 40q-15 16 0 31l84 83q-83 119 -68 275q21 188 166.5 315t331.5 127q124 0 222 -60l104 104q18 15 33 0l94 -94q15 -15 0 -33l-102 -102q69 -114 54 -257q-13 -122 -85.5 -224t-182.5 -159.5t-231 -57.5q-114 0 -203 50l-92 -92q-16 -16 -31 0zM385 427q-3 -28 6 -61 l234 236q-23 5 -44 5q-75 0 -132 -53.5t-64 -126.5zM526 252l17 -2q76 0 132 52.5t64 124.5q3 19 0 38z" />
<glyph unicode="&#xf9;" horiz-adv-x="1050" d="M66 333l40 370q3 58 -2 114q-2 18 5 32t21 14h189q42 0 63 -26t17 -66l-40 -375q-6 -62 27.5 -93.5t89.5 -31.5q82 0 164 66l51 487q2 14 13 24.5t25 10.5h219q14 0 22.5 -10.5t6.5 -24.5l-83 -789q-2 -14 -12.5 -24.5t-24.5 -10.5h-173q-17 17 -51 69q-125 -79 -242 -79 q-95 0 -172 40t-120.5 119.5t-32.5 183.5zM340 1207.5q-1 15.5 11 33.5l107 154q12 14 28 14.5t28 -10.5l312 -224q9 -6 11 -17t-7 -25l-72 -107q-17 -27 -52 -11l-352 170q-13 7 -14 22.5z" />
<glyph unicode="&#xfa;" horiz-adv-x="1050" d="M66 333l40 370q3 58 -2 114q-2 18 5 32t21 14h189q42 0 63 -26t17 -66l-40 -375q-6 -62 27.5 -93.5t89.5 -31.5q82 0 164 66l51 487q2 14 13 24.5t25 10.5h219q14 0 22.5 -10.5t6.5 -24.5l-83 -789q-2 -14 -12.5 -24.5t-24.5 -10.5h-173q-17 17 -51 69q-125 -79 -242 -79 q-95 0 -172 40t-120.5 119.5t-32.5 183.5zM340 1140q-12 23 14 42l361 224q12 11 28.5 10.5t23.5 -14.5l78 -154q7 -18 2 -33.5t-19 -22.5l-387 -170q-42 -17 -49 11z" />
<glyph unicode="&#xfb;" horiz-adv-x="1050" d="M66 333l40 370q3 58 -2 114q-2 18 5 32t21 14h189q42 0 63 -26t17 -66l-40 -375q-6 -62 27.5 -93.5t89.5 -31.5q82 0 164 66l51 487q2 14 13 24.5t25 10.5h219q14 0 22.5 -10.5t6.5 -24.5l-83 -789q-2 -14 -12.5 -24.5t-24.5 -10.5h-173q-17 17 -51 69q-125 -79 -242 -79 q-95 0 -172 40t-120.5 119.5t-32.5 183.5zM224 1050l16 144q2 19 26 33l324 186q24 12 45 0l287 -186q21 -15 19 -33l-16 -144q-2 -25 -20.5 -33t-45.5 5l-274 127l-302 -127q-28 -13 -44.5 -5t-14.5 33z" />
<glyph unicode="&#xfc;" horiz-adv-x="1050" d="M66 333l40 370q3 58 -2 114q-2 18 5 32t21 14h189q42 0 63 -26t17 -66l-40 -375q-6 -62 27.5 -93.5t89.5 -31.5q82 0 164 66l51 487q2 14 13 24.5t25 10.5h219q14 0 22.5 -10.5t6.5 -24.5l-83 -789q-2 -14 -12.5 -24.5t-24.5 -10.5h-173q-17 17 -51 69q-125 -79 -242 -79 q-95 0 -172 40t-120.5 119.5t-32.5 183.5zM201 1239q8 62 56 106.5t109 44.5q64 0 104 -44.5t33 -106.5q-7 -61 -56 -105t-112 -44q-62 0 -101.5 44.5t-32.5 104.5zM687 1239q7 63 55.5 107t111.5 44q62 0 101.5 -44.5t32.5 -106.5q-5 -60 -55 -104.5t-112 -44.5 q-61 0 -101 44.5t-33 104.5z" />
<glyph unicode="&#xfd;" horiz-adv-x="1079" d="M-5 -403q-31 31 8 73q215 216 353 484l-285 663q-7 18 1.5 30t26.5 12h232q29 0 40 -26l157 -401l229 401q14 26 43 26h229q20 0 27.5 -12t-2.5 -30l-403 -678q-165 -277 -285 -440t-191 -230q-16 -12 -34 -9.5t-33 18.5zM382 1140l52 -107q7 -27 48 -11l388 170 q14 7 19 22.5t-2 33.5l-78 154q-7 14 -23.5 14.5t-28.5 -10.5l-361 -224q-26 -19 -14 -42z" />
<glyph unicode="&#xfe;" horiz-adv-x="1072" d="M14 -474l177 1682q2 43 2 57t-4 43t-5 35q-2 18 6 31.5t23 13.5h186q45 0 68 -24.5t19 -67.5l-50 -479q94 49 199 49q109 0 194.5 -53.5t129.5 -152.5t30 -223q-20 -188 -149 -318.5t-307 -130.5q-107 0 -179 50l-45 -432q-5 -50 -49 -83t-90 -33h-125q-16 0 -24.5 10 t-6.5 26zM380 283q61 -35 134 -35q77 0 133 51.5t65 137.5q10 81 -38 125t-115 44q-68 0 -149 -42z" />
<glyph unicode="&#xff;" horiz-adv-x="1079" d="M-5 -403q-31 31 8 73q215 216 353 484l-285 663q-7 18 1.5 30t26.5 12h232q29 0 40 -26l157 -401l229 401q14 26 43 26h229q20 0 27.5 -12t-2.5 -30l-403 -678q-165 -277 -285 -440t-191 -230q-16 -12 -34 -9.5t-33 18.5zM243 1239q8 62 56 106.5t109 44.5 q64 0 104 -44.5t33 -106.5q-7 -61 -56 -105t-112 -44q-62 0 -101.5 44.5t-32.5 104.5zM729 1239q7 63 55.5 107t111.5 44q62 0 101 -44.5t32 -106.5q-5 -60 -54.5 -104.5t-111.5 -44.5q-61 0 -101 44.5t-33 104.5z" />
<glyph unicode="&#x152;" horiz-adv-x="2245" d="M99 696q21 192 133 354.5t285 256.5t366 94q230 0 400 -134l8 87q2 15 12.5 24.5t25.5 9.5h849q14 0 24 -10t9 -24l-21 -207q-2 -16 -13.5 -25t-27.5 -9h-589l-31 -297h312q14 0 24 -10.5t9 -24.5l-22 -205q-1 -16 -12.5 -26t-27.5 -10h-311l-27 -264h586q15 0 25 -10.5 t8 -24.5l-21 -205q-1 -16 -12.5 -26t-27.5 -10h-847q-16 0 -25 10t-8 26l9 84q-199 -132 -427 -132q-145 0 -270 55.5t-210.5 149.5t-127.5 225.5t-27 277.5zM397 696q-17 -170 92.5 -296t275.5 -126q108 0 208.5 58t166.5 155.5t77 208.5q12 110 -33.5 206.5t-133.5 154 t-196 57.5q-166 0 -302.5 -125t-154.5 -293z" />
<glyph unicode="&#x153;" horiz-adv-x="1607" d="M43 429q21 188 167 315t332 127q181 0 300 -121q134 121 309 121q94 0 170 -34.5t121.5 -91t66.5 -128t13 -147.5q-7 -62 -47 -97t-104 -35h-434q9 -53 62.5 -83.5t123.5 -30.5q116 0 217 43q16 8 30.5 6t24.5 -20l39 -66q17 -26 -7 -53q-116 -143 -351 -143 q-183 0 -300 122q-144 -125 -328 -125q-186 0 -305 127.5t-100 313.5zM318 427q-8 -72 37.5 -124.5t121.5 -52.5q75 0 131 52.5t64 124.5q8 73 -37 126.5t-121 53.5q-75 0 -131.5 -53.5t-64.5 -126.5zM960 535h305q-2 34 -41 62t-101 28q-61 0 -107 -28.5t-56 -61.5z" />
<glyph unicode="&#x178;" horiz-adv-x="1331" d="M92 1349q-7 14 0 26.5t23 12.5h272q9 0 16 -5.5t10 -10.5t10 -18l261 -481l361 481q2 2 5.5 7.5t5.5 7.5t5 6t5.5 5.5t5.5 4t6.5 3t7.5 0.5h276q15 0 19.5 -12.5t-5.5 -26.5l-574 -761l-59 -552q-1 -17 -11.5 -26.5t-25.5 -9.5h-171q-42 0 -63 26t-17 68l52 491z M373 1690q8 62 56 106.5t109 44.5q64 0 104 -44.5t33 -106.5q-7 -61 -56 -105t-112 -44q-62 0 -101.5 44.5t-32.5 104.5zM859 1690q7 63 55.5 107t111.5 44q62 0 101 -44.5t32 -106.5q-5 -60 -54.5 -104.5t-111.5 -44.5q-61 0 -101 44.5t-33 104.5z" />
<glyph unicode="&#x2c6;" horiz-adv-x="841" d="M118 1067q-2 -25 14.5 -32.5t44.5 5.5l302 126l274 -126q27 -13 45.5 -5.5t20.5 32.5l16 144q2 18 -19 33l-287 186q-21 12 -45 0l-324 -186q-24 -14 -26 -33z" />
<glyph unicode="&#x2dc;" horiz-adv-x="933" d="M129.5 1188q-1.5 -15 5.5 -22l75 -95q7 -11 20 -10.5t25 12.5q62 62 125 62q40 0 72 -14.5t52 -31.5t56.5 -31.5t83.5 -14.5q30 0 59.5 6.5t55 18t47 23t41.5 27.5t31.5 25.5t23.5 22.5l13 12q22 22 5 49l-64 104q-22 27 -54 0q-73 -61 -142 -61q-40 0 -79.5 24t-83 48 t-94.5 24q-30 0 -59.5 -7.5t-54.5 -20.5t-46.5 -27.5t-39.5 -31.5t-30 -29t-21.5 -23t-10.5 -12q-10 -12 -11.5 -27z" />
<glyph unicode="&#x2000;" horiz-adv-x="950" />
<glyph unicode="&#x2001;" horiz-adv-x="1901" />
<glyph unicode="&#x2002;" horiz-adv-x="950" />
<glyph unicode="&#x2003;" horiz-adv-x="1901" />
<glyph unicode="&#x2004;" horiz-adv-x="633" />
<glyph unicode="&#x2005;" horiz-adv-x="475" />
<glyph unicode="&#x2006;" horiz-adv-x="316" />
<glyph unicode="&#x2007;" horiz-adv-x="316" />
<glyph unicode="&#x2008;" horiz-adv-x="237" />
<glyph unicode="&#x2009;" horiz-adv-x="380" />
<glyph unicode="&#x200a;" horiz-adv-x="105" />
<glyph unicode="&#x2010;" horiz-adv-x="728" d="M69 340v177q0 16 10.5 26.5t26.5 10.5h519q15 0 25 -10t10 -25v-177q0 -14 -10.5 -25.5t-24.5 -11.5h-519q-14 0 -25.5 10.5t-11.5 24.5z" />
<glyph unicode="&#x2011;" horiz-adv-x="728" d="M69 340v177q0 16 10.5 26.5t26.5 10.5h519q15 0 25 -10t10 -25v-177q0 -14 -10.5 -25.5t-24.5 -11.5h-519q-14 0 -25.5 10.5t-11.5 24.5z" />
<glyph unicode="&#x2012;" horiz-adv-x="728" d="M69 340v177q0 16 10.5 26.5t26.5 10.5h519q15 0 25 -10t10 -25v-177q0 -14 -10.5 -25.5t-24.5 -11.5h-519q-14 0 -25.5 10.5t-11.5 24.5z" />
<glyph unicode="&#x2013;" horiz-adv-x="1216" d="M139 460v135q0 16 10 26.5t26 10.5h868q15 0 25 -10t10 -25v-135q0 -14 -10.5 -25.5t-24.5 -11.5h-868q-14 0 -25 10.5t-11 24.5z" />
<glyph unicode="&#x2014;" horiz-adv-x="1603" d="M104 460v135q0 16 10.5 26.5t26.5 10.5h1324q15 0 25 -10t10 -25v-135q0 -14 -10.5 -25.5t-24.5 -11.5h-1324q-14 0 -25.5 10.5t-11.5 24.5z" />
<glyph unicode="&#x2018;" horiz-adv-x="442" d="M89 1010q-2 69 7.5 123.5t35.5 121.5q32 76 93 141t124 100q28 11 40 -3l33 -47q8 -14 -4 -23q-72 -52 -117.5 -110t-57.5 -143q22 7 50 7q69 0 114.5 -50.5t38.5 -119.5q-8 -69 -63 -119t-124 -50h-2q-72 0 -118 50t-50 122z" />
<glyph unicode="&#x2019;" horiz-adv-x="402" d="M68 1250q7 70 62.5 119t126.5 49q72 0 118 -49.5t48 -120.5q4 -124 -41 -245q-33 -77 -94 -141.5t-125 -101.5q-28 -12 -40 5l-31 46q-10 14 2 22q71 51 117.5 110.5t59.5 144.5q-24 -7 -52 -7q-69 0 -113.5 50t-37.5 119z" />
<glyph unicode="&#x201a;" horiz-adv-x="1029" d="M-3 137q7 70 61.5 120t123.5 50q74 0 123 -54q44 -49 47 -118q4 -118 -43 -244q-32 -77 -92.5 -142t-124.5 -100q-26 -15 -40 4l-31 45q-11 15 2 24q155 107 177 254q-40 -7 -54 -7q-69 0 -113 50t-36 118zM450 137q7 70 61.5 120t123.5 50q75 0 120 -50q45 -47 50 -122 q4 -116 -41 -244q-33 -77 -94.5 -142t-124.5 -100q-26 -15 -40 4l-31 45q-11 15 2 24q155 107 177 254q-40 -7 -54 -7q-67 0 -112 50t-37 118z" />
<glyph unicode="&#x201c;" horiz-adv-x="919" d="M94 932q-4 68 5.5 122t35.5 123q34 78 94.5 142.5t124.5 98.5q24 16 40 -3l31 -46q8 -16 -3 -24q-71 -49 -117.5 -109t-59.5 -146q31 9 54 9q69 0 113.5 -50.5t37.5 -118.5q-7 -70 -63 -120t-125 -50t-116 47q-49 49 -52 125zM547 932q-2 70 7.5 124t35.5 121 q32 78 92.5 142t124.5 99q25 14 40 -3l31 -46q8 -16 -3 -24q-71 -50 -118 -109.5t-58 -143.5q37 7 53 7q69 0 114 -50.5t37 -118.5q-7 -70 -62.5 -120t-123.5 -50q-63 0 -111 42q-54 48 -59 130z" />
<glyph unicode="&#x201d;" horiz-adv-x="923" d="M120 1250q7 70 62.5 119t126.5 49q72 0 118.5 -49.5t48.5 -120.5q4 -121 -42 -245q-33 -77 -94 -141.5t-125 -101.5q-28 -12 -40 5l-31 46q-10 14 2 22q71 51 117.5 110.5t59.5 144.5q-24 -7 -52 -7q-69 0 -113.5 50t-37.5 119zM573 1250q7 70 62.5 119t126.5 49h2h1h2h2 h2h1h2h2h2l1 -2h2h2h1h2h2h2h1v-1q61 -10 98.5 -57t39.5 -110q4 -121 -42 -245q-33 -76 -93.5 -141t-123.5 -102q-29 -12 -40 5l-33 46q-7 14 4 22q71 52 116.5 110.5t58.5 144.5q-24 -7 -52 -7q-69 0 -113.5 50t-37.5 119z" />
<glyph unicode="&#x201e;" horiz-adv-x="1034" d="M61 137q7 70 61.5 120t123.5 50q75 0 124 -54q44 -49 47 -118q4 -115 -44 -244q-32 -77 -92.5 -142t-124.5 -100q-26 -15 -40 4l-31 45q-11 15 2 24q155 107 177 254q-40 -7 -54 -7q-69 0 -113 50t-36 118zM514 137q7 70 61.5 120t123.5 50q75 0 120 -50q46 -48 51 -122 q4 -113 -42 -244q-33 -77 -94.5 -142t-124.5 -100q-26 -15 -40 4l-31 45q-11 15 2 24q155 107 177 254q-40 -7 -54 -7q-67 0 -112 50t-37 118z" />
<glyph unicode="&#x2022;" horiz-adv-x="723" d="M87 434q0 112 82.5 194t194.5 82q111 0 192 -82t81 -194t-80.5 -193t-192.5 -81t-194.5 81.5t-82.5 192.5z" />
<glyph unicode="&#x2026;" horiz-adv-x="1504" d="M87 154q0 71 50.5 122.5t121.5 51.5t121 -51t50 -123q0 -71 -50 -121t-121 -50t-121.5 50t-50.5 121zM581 154q0 71 51 122.5t121 51.5q71 0 121.5 -51.5t50.5 -122.5t-50.5 -121t-121.5 -50t-121.5 50.5t-50.5 120.5zM1074 154q0 71 50.5 122.5t121.5 51.5 q70 0 121 -51.5t51 -122.5q0 -70 -50.5 -120.5t-121.5 -50.5t-121.5 50t-50.5 121z" />
<glyph unicode="&#x202f;" horiz-adv-x="380" />
<glyph unicode="&#x2039;" horiz-adv-x="654" d="M69 373l188 -338q11 -19 29 -19h172q28 0 37.5 19t0.5 47l-104 319l177 304q17 30 10 49.5t-34 19.5h-160q-23 0 -41 -26l-269 -325q-19 -25 -6 -50z" />
<glyph unicode="&#x203a;" horiz-adv-x="654" d="M38 35.5q6 -19.5 33 -19.5h172q22 0 33 19l260 338q17 24 6 50l-200 325q-18 26 -38 26h-160q-27 0 -38 -19.5t0 -49.5l111 -304l-170 -319q-15 -27 -9 -46.5z" />
<glyph unicode="&#x205f;" horiz-adv-x="475" />
<glyph unicode="&#x20ac;" horiz-adv-x="1383" d="M0 448l19 173q2 15 13 26t25 11h49l3 41q1 6 3 19.5t3 19.5h-49q-15 0 -23.5 9.5t-7.5 24.5l19 174q2 14 13 25t25 11h104q105 193 295.5 313t407.5 120q139 0 259.5 -51.5t209.5 -143.5q19 -22 -7 -48l-181 -167q-26 -25 -48 0q-105 102 -259 102q-86 0 -166.5 -33 t-142.5 -92h253q15 0 24.5 -10t8.5 -24l-19 -174q-1 -16 -12.5 -26t-27.5 -10h-361l-5 -37q-1 -7 -1.5 -21.5t-1.5 -21.5h361q14 0 24 -10.5t9 -24.5l-18 -173q-2 -16 -13.5 -26.5t-27.5 -10.5h-248q105 -121 279 -121q82 0 147 24t132 76q27 25 49 0l144 -165 q21 -25 -3 -48q-108 -92 -239 -142.5t-270 -50.5q-217 0 -381.5 117.5t-227.5 309.5h-108q-15 0 -23.5 10t-7.5 25z" />
<glyph unicode="&#x2122;" horiz-adv-x="1117" d="M123 1284l9 80q3 24 26 24h333q12 0 18.5 -7t5.5 -17l-8 -80q-1 -12 -10 -19t-20 -7h-100l-39 -366q-2 -11 -9.5 -18.5t-17.5 -7.5h-78q-12 0 -19.5 8t-6.5 18l38 366h-101q-24 0 -21 26zM524 892l50 472q1 10 9 17t19 7h68q20 0 24 -13l136 -283l191 283q9 13 27 13h75 q11 0 17 -7t5 -17l-50 -472q-4 -26 -26 -26h-80q-11 0 -18 8t-6 18l21 207l-151 -216q-12 -15 -26 -15h-4q-17 0 -24 15l-104 216l-21 -207q-2 -11 -10 -18.5t-18 -7.5h-80q-11 0 -18 8t-6 18z" />
<glyph unicode="&#x25fc;" horiz-adv-x="859" d="M0 0v859h859v-859h-859z" />
<glyph unicode="&#xfb03;" horiz-adv-x="1853" d="M59 621l17 172q4 31 24 48.5t51 17.5h57l19 186q19 173 132 265t292 92q161 0 337 -112q110 107 291 107q65 0 129.5 -18t104.5 -48q10 -7 12.5 -21t-5.5 -27l-93 -164q-19 -33 -49 -17q-3 1 -17.5 6.5t-23.5 8t-24.5 5.5t-29.5 3q-42 0 -77.5 -26.5t-40.5 -74.5 l-18 -165h568q14 0 23.5 -10.5t7.5 -24.5l-83 -788q-1 -17 -11.5 -26.5t-25.5 -9.5h-163q-42 0 -63 26t-17 68l52 503h-316l-59 -561q-1 -15 -12.5 -25.5t-26.5 -10.5h-160q-41 0 -62.5 26.5t-17.5 67.5l54 503h-368l-59 -561q-1 -15 -13 -25.5t-27 -10.5h-160 q-41 0 -62.5 26.5t-17.5 67.5l53 503h-99q-26 0 -23 24zM493 859h368l21 189q-118 82 -229 82q-59 0 -97.5 -28.5t-45.5 -82.5z" />
<glyph unicode="&#xfb04;" horiz-adv-x="1864" d="M59 621l17 172q4 31 24 48.5t51 17.5h57l19 186q19 173 132 265t292 92q165 0 335 -112q112 112 314 112q111 0 229 -53v5q2 15 12.5 24.5t25.5 9.5h217q14 0 23 -10t8 -24l-138 -1318q-1 -17 -11.5 -26.5t-25.5 -9.5h-163q-42 0 -63 26t-17 68l103 975q-99 61 -198 61 q-59 0 -97.5 -28.5t-45.5 -82.5l-17 -160h154q11 0 18.5 -7.5t6.5 -18.5l-23 -210q-2 -11 -10.5 -18.5t-18.5 -7.5h-153l-59 -561q-1 -15 -13 -25.5t-27 -10.5h-160q-41 0 -62 26t-17 68l52 503h-363l-59 -561q-1 -15 -13 -25.5t-27 -10.5h-160q-41 0 -62.5 26.5t-17.5 67.5 l53 503h-99q-26 0 -23 24zM493 859h363l20 186v7q-113 78 -223 78q-59 0 -97.5 -28.5t-45.5 -82.5z" />
</font>
</defs>
</svg>
