<?xml version="1.0" standalone="no"?>
<!DOCTYPE svg PUBLIC "-//W3C//DTD SVG 1.1//EN" "http://www.w3.org/Graphics/SVG/1.1/DTD/svg11.dtd" >
<svg xmlns="http://www.w3.org/2000/svg" xmlns:xlink="http://www.w3.org/1999/xlink" version="1.1">
<metadata></metadata>
<defs>
<font id="venti_cfultra" horiz-adv-x="1058" >
<font-face units-per-em="2048" ascent="1638" descent="-410" />
<missing-glyph horiz-adv-x="539" />
<glyph unicode="&#xfb01;" horiz-adv-x="1263" d="M54 588v205q0 31 18.5 48.5t48.5 17.5h51v189q0 167 99.5 258t261.5 91q68 0 144.5 -21.5t117.5 -56.5q25 -22 10 -54l-92 -182q-17 -33 -47 -17q-32 17 -71 17q-38 0 -66.5 -22.5t-28.5 -67.5v-134h599q14 0 24 -10.5t10 -24.5v-788q0 -17 -9 -26.5t-24 -9.5h-204 q-42 0 -66.5 26.5t-24.5 67.5v470h-305v-528q0 -14 -11.5 -25t-25.5 -11h-196q-42 0 -68.5 26.5t-26.5 68.5v469h-92q-26 0 -26 24z" />
<glyph unicode="&#xfb02;" horiz-adv-x="1268" d="M54 588v205q0 31 18.5 48.5t48.5 17.5h51v189q0 170 105 262t289 92q120 0 253 -53v5q0 14 9.5 24t25.5 10h259q14 0 24 -10t10 -24v-1318q0 -17 -9 -26.5t-24 -9.5h-205q-42 0 -66 26t-24 68v939q-117 55 -198 55q-121 0 -121 -97v-132h146q11 0 18.5 -7t7.5 -19v-243 q0 -10 -8 -18t-18 -8h-146v-528q0 -14 -11.5 -25t-25.5 -11h-196q-42 0 -68.5 26.5t-26.5 68.5v469h-92q-26 0 -26 24z" />
<glyph horiz-adv-x="0" />
<glyph horiz-adv-x="682" />
<glyph unicode=" "  horiz-adv-x="539" />
<glyph unicode="&#x09;" horiz-adv-x="539" />
<glyph unicode="&#xa0;" horiz-adv-x="539" />
<glyph unicode="!" horiz-adv-x="600" d="M95 191q0 83 62 144.5t145 61.5t143 -61t60 -145q0 -83 -60 -143t-143 -60q-84 0 -145.5 60t-61.5 143zM116 1324v30q0 14 10 24t25 10h299q14 0 24 -10t10 -24v-30l-69 -737q-2 -16 -11.5 -26.5t-23.5 -10.5h-158q-33 0 -36 37z" />
<glyph unicode="&#x22;" horiz-adv-x="826" d="M52 904v413q0 14 10.5 25.5t24.5 11.5h236q16 0 27 -11t9 -26l-52 -413q-4 -34 -35 -34h-183q-15 0 -26 10t-11 24zM467 904v413q0 14 10.5 25.5t24.5 11.5h236q16 0 27 -11t9 -26l-52 -413q-4 -34 -35 -34h-184q-14 0 -25 10t-11 24z" />
<glyph unicode="#" horiz-adv-x="1148" d="M62 382v212q0 16 10.5 26t26.5 10h142l18 132h-94q-14 0 -25.5 10.5t-11.5 24.5v211q0 16 10.5 26.5t26.5 10.5h135l44 309q5 34 34 34h198q15 0 27 -10t10 -24l-44 -309h113l43 309q5 34 35 34h198q15 0 26.5 -10t9.5 -24l-43 -309h101q14 0 24 -9.5t10 -25.5v-212 q0 -14 -10 -25t-24 -11h-143l-17 -132h94q15 0 25 -10t10 -25v-211q0 -14 -10.5 -25.5t-24.5 -11.5h-136l-43 -311q-2 -15 -11.5 -25.5t-23.5 -10.5h-198q-16 0 -27 10.5t-9 25.5l43 311h-112l-44 -311q-6 -36 -34 -36h-198q-16 0 -27.5 10.5t-9.5 25.5l44 311h-101 q-14 0 -25.5 10.5t-11.5 24.5zM510 630h113l19 132h-113z" />
<glyph unicode="$" horiz-adv-x="1105" d="M72.5 197q-3.5 10 9.5 36l152 208q13 20 36 22t35 -10q3 -1 27.5 -20.5t51.5 -38t67 -34.5t75 -16q55 0 85.5 17.5t30.5 49.5q0 22 -2 32t-14.5 28.5t-44.5 38t-86 44.5q-50 23 -84.5 40.5t-81.5 44.5t-79 52t-66 59.5t-54.5 70t-34 81.5t-13.5 96q0 124 79 230.5 t217 153.5v142q0 35 35 35h280q32 0 32 -35v-132q26 -7 51.5 -16.5t47.5 -20.5t40 -21t36.5 -22.5t28.5 -19t24.5 -17.5t16.5 -13q37 -28 11 -64l-144 -198q-15 -21 -33.5 -29t-41.5 4q-1 1 -11.5 8t-19 12.5t-24 15t-29 17t-31.5 15.5t-34 13.5t-34 9t-34 3.5 q-47 0 -74.5 -21.5t-27.5 -51.5q0 -34 33 -59.5t157 -79.5q45 -19 74 -32.5t76.5 -39.5t79 -49.5t68.5 -60t58 -75t34 -89.5t11 -108q-7 -137 -89.5 -244t-219.5 -152v-128q0 -35 -32 -35h-280q-35 0 -35 35v123q-26 7 -50.5 16t-46.5 20t-40.5 20.5t-37 23t-30.5 22t-28 22 t-22 19t-19 17.5l-12 12q-16 13 -19.5 23z" />
<glyph unicode="%" horiz-adv-x="1258" d="M50 1126q0 102 74 175.5t178 73.5q101 0 173.5 -73.5t72.5 -175.5q0 -104 -72 -177t-174 -73q-104 0 -178 73t-74 177zM120 10.5q-7 10.5 0 24.5l734 1333q8 13 14 16.5t22 3.5h228q16 0 24 -12t0 -26l-729 -1327q-14 -23 -38 -23h-231q-17 0 -24 10.5zM712 250 q0 102 73.5 175t177.5 73q101 0 174.5 -73.5t73.5 -174.5q0 -104 -73 -177t-175 -73q-104 0 -177.5 73t-73.5 177z" />
<glyph unicode="&#x26;" horiz-adv-x="1164" d="M-28.5 396.5q2.5 67.5 25.5 134.5q25 74 82 130.5t145 105.5q-20 25 -97 125q-61 88 -60 191.5t58 186.5q56 83 135 120t188 37q113 0 193 -36t137 -127q39 -61 50.5 -133.5t-5 -145.5t-72.5 -141.5t-145 -116.5l128 -161q36 145 40 161q12 38 45 38h273q19 0 30 -12 t6 -29q-1 -5 -10.5 -33.5t-16.5 -51.5t-15.5 -58t-12.5 -64q-5 -29 -39 -29h-74q-14 -38 -42 -125q69 -74 167 -89q18 -2 30.5 -14.5t12.5 -28.5v-184q0 -41 -36 -44q-220 -13 -358 134q-44 -42 -80.5 -66.5t-94.5 -42.5q-88 -27 -176.5 -28.5t-176 31.5t-145.5 103 q-48 57 -70 126t-19.5 136.5zM282 445q-22 -63 15 -115q41 -52 123 -47q79 8 120 57l-169 200q-67 -32 -89 -95zM354 1086q-2 -35 19 -68.5t77 -95.5q97 87 97 154q0 43 -34 71t-81 21q-34 -7 -55 -28.5t-23 -53.5z" />
<glyph unicode="'" horiz-adv-x="395" d="M52 904v413q0 14 10.5 25.5t24.5 11.5h236q16 0 27 -11t9 -26l-52 -413q-4 -34 -35 -34h-183q-15 0 -26 10t-11 24z" />
<glyph unicode="(" horiz-adv-x="784" d="M78 661q0 780 599 859q14 1 22.5 -7t8.5 -22l7 -262q0 -30 -29 -33q-55 -7 -97 -27t-71 -54.5t-47.5 -77.5t-29 -104t-14.5 -124t-4 -148q0 -105 5 -176t21 -138t44.5 -107t76.5 -67.5t116 -35.5q29 -3 29 -33l-7 -269q0 -15 -9 -23t-24 -6q-299 40 -448 263t-149 592z " />
<glyph unicode=")" horiz-adv-x="784" d="M52 104q0 30 30 33q57 7 99.5 25.5t71 52t47 74t28 101t13 122.5t3.5 149q0 102 -5.5 175t-22 141t-45.5 110.5t-76 71.5t-113 37q-30 3 -30 33l7 262q0 14 8.5 22t22.5 7q599 -79 599 -859q0 -369 -149 -592t-448 -263q-15 -2 -24 6t-9 23z" />
<glyph unicode="*" horiz-adv-x="734" d="M61 949q-21 32 10 47l134 70l-134 69q-31 15 -10 47l66 109q21 33 47 11l105 -80l-10 132q-3 34 35 34h126q38 0 35 -34l-10 -132l106 80q26 21 46 -11l66 -109q21 -32 -10 -47l-134 -69l134 -70q31 -15 10 -47l-66 -109q-20 -31 -46 -10l-106 78l10 -130q3 -35 -35 -35 h-126q-38 0 -35 35l10 130l-105 -78q-27 -22 -47 10z" />
<glyph unicode="+" horiz-adv-x="1095" d="M121 522v217q0 16 10.5 26.5t26.5 10.5h245v246q0 15 9.5 25t24.5 10h219q14 0 25.5 -10.5t11.5 -24.5v-246h246q15 0 25 -10t10 -25v-219q0 -14 -10.5 -24t-24.5 -10h-246v-247q0 -14 -10.5 -25t-24.5 -11h-219q-16 0 -26 10t-10 26v247h-245q-15 0 -26 9.5t-11 24.5z " />
<glyph unicode="," horiz-adv-x="529" d="M56 181q0 83 58.5 141t140.5 58h5q80 0 139 -59l19 -19q40 -51 51 -115q9 -81 4.5 -134.5t-25.5 -132.5q-28 -85 -87.5 -156t-124.5 -111q-30 -16 -45 5l-42 50q-12 17 0 25q43 32 73 63.5t56 81.5t34 108q-34 -9 -57 -9q-81 0 -140 61t-59 143z" />
<glyph unicode="-" horiz-adv-x="748" d="M69 330v201q0 16 10.5 26.5t26.5 10.5h538q15 0 25 -10t10 -25v-202q0 -14 -10.5 -25t-24.5 -11h-538q-14 0 -25.5 10.5t-11.5 24.5z" />
<glyph unicode="." horiz-adv-x="550" d="M71 184q0 84 59.5 143.5t143.5 59.5q83 0 144 -60t61 -143q0 -85 -61 -146t-144 -61q-84 0 -143.5 61t-59.5 146z" />
<glyph unicode="/" horiz-adv-x="831" d="M43 36l389 1318q9 34 37 34h284q16 0 27.5 -10t7.5 -24l-389 -1318q-9 -36 -36 -36h-285q-14 0 -26.5 11.5t-8.5 24.5z" />
<glyph unicode="0" horiz-adv-x="1237" d="M71 661q0 143 36 268t103.5 220t172.5 150t235 55q131 0 236 -55t172.5 -150t103 -220t35.5 -268q0 -141 -35.5 -264t-103 -216.5t-172.5 -147.5t-236 -54q-130 0 -235 54t-172.5 147.5t-103.5 216.5t-36 264zM408 665q0 -108 21.5 -191.5t70.5 -136t120 -52.5 q72 0 120 53t68 135.5t20 191.5q0 110 -20 193.5t-68 136.5t-120 53q-71 0 -120 -53t-70.5 -137t-21.5 -193z" />
<glyph unicode="1" horiz-adv-x="730" d="M61 1088q-2 18 4 27.5t25 14.5q92 28 207 165l22 28q12 13 32 13h248q14 0 25 -10t11 -24v-1266q0 -14 -10 -25t-24 -11h-268q-16 0 -26 10t-10 26v860l-177 -33q-37 -5 -40 27z" />
<glyph unicode="2" horiz-adv-x="1084" d="M85 1093q98 135 206 201.5t264 66.5q81 0 159.5 -30t140 -82.5t99 -131t37.5 -168.5q0 -166 -113 -307l-260 -337h352q37 0 37 -34v-235q0 -14 -12.5 -25t-27.5 -11h-821q-14 0 -26 11t-12 25v66l437 568q61 79 88.5 133t27.5 105q0 56 -37 98t-100 42q-30 0 -59 -11.5 t-47.5 -22.5t-45 -39.5t-34 -38t-33.5 -42.5q-22 -27 -52 0l-164 151q-22 22 -4 48z" />
<glyph unicode="3" horiz-adv-x="1072" d="M90 213q-23 24 2 49l177 168q23 23 49 -3q123 -123 218 -123q57 0 90.5 39t33.5 84q0 44 -28.5 77.5t-74.5 33.5q-17 0 -42.5 -6t-32.5 -6q-16 0 -29 14l-120 163q-23 27 2 52l269 271h-436q-14 0 -25 10t-11 24v240q0 16 10 26t26 10h748q37 0 37 -36v-229 q0 -35 -26 -64l-219 -231q97 -28 167 -96q119 -114 119 -298q0 -110 -62 -202t-166 -144.5t-226 -52.5q-134 0 -243 57t-207 173z" />
<glyph unicode="4" horiz-adv-x="1065" d="M78 496q0 18 16 30q116 95 208 225t151 280q29 73 39.5 137t12.5 151q0 16 9.5 25.5t25.5 9.5h260q16 0 26.5 -10.5t10.5 -26.5q-4 -140 -37.5 -274.5t-89.5 -230.5q-105 -179 -203 -279h109v45q0 29 35 38l225 47q15 4 26 -8.5t11 -29.5v-92h40q35 0 35 -35v-232 q0 -14 -10.5 -25.5t-24.5 -11.5h-40v-194q0 -35 -35 -35h-225q-14 0 -25.5 10.5t-11.5 24.5v194h-500q-14 0 -25 10.5t-11 24.5z" />
<glyph unicode="5" horiz-adv-x="1083" d="M90 208q-21 25 2 51l177 185q24 27 52 -1q117 -115 221 -115q52 0 83 29.5t31 76.5q0 45 -29.5 76.5t-78.5 31.5q-35 0 -81 -20l-286 72q-17 4 -28.5 16.5t-11.5 26.5v656q0 19 10.5 31t30.5 11q259 -7 360 -7q98 0 357 7q43 3 43 -39v-223q0 -14 -10 -24.5t-23 -12.5 q-141 -14 -293 -14q-103 0 -151 4v-165q56 15 149 15q119 0 210 -65t136 -163.5t45 -210.5q0 -190 -134 -322t-340 -132q-249 0 -441 225z" />
<glyph unicode="6" horiz-adv-x="1074" d="M78 561q0 112 27.5 223t83 211.5t131.5 178.5t180.5 126.5t223.5 53.5q36 3 40 -38l12 -252q0 -15 -13 -26.5t-29 -11.5q-212 -3 -286 -205q43 14 118 14q86 0 164.5 -32.5t137 -88t93.5 -135t35 -168.5q0 -181 -130.5 -304.5t-322.5 -123.5q-141 0 -248 78.5t-162 208.5 t-55 291zM425 413q0 -50 34.5 -85.5t85.5 -35.5q48 0 83 36t35 85t-35.5 87t-82.5 38q-49 0 -84.5 -38t-35.5 -87z" />
<glyph unicode="7" horiz-adv-x="1041" d="M61 1052v246q0 16 11 27t27 11h838q35 0 35 -34v-63q0 -15 -9 -28l-472 -1178q-7 -13 -21 -23t-27 -10h-285q-16 0 -22 19.5t-1 32.5l410 963h-446q-14 0 -26 11.5t-12 25.5z" />
<glyph unicode="8" horiz-adv-x="1083" d="M78 361q0 -164 125 -271t335 -107q215 0 341 107t126 271q0 57 -16 106t-38 81.5t-56.5 61.5t-60 44.5t-58.5 32.5v7q39 22 66 43t59.5 56.5t49.5 86t17 113.5q0 157 -121 259t-309 102q-183 0 -302.5 -102t-119.5 -259q0 -199 188 -300v-6q-23 -12 -45 -25.5t-57 -44 t-60.5 -64t-44.5 -85t-19 -107.5zM415 378q0 44 35.5 79.5t91.5 35.5q58 0 92 -35.5t34 -79.5q0 -46 -37 -77.5t-89 -31.5t-89.5 32t-37.5 77zM430 967q0 41 32.5 70.5t75.5 29.5q48 0 80.5 -29t32.5 -71q0 -40 -31 -74t-78 -34q-49 0 -80.5 32.5t-31.5 75.5z" />
<glyph unicode="9" horiz-adv-x="1074" d="M78 925q0 181 130.5 305t322.5 124q141 0 248 -78.5t162 -208.5t55 -291q0 -112 -27.5 -223t-82.5 -211.5t-131.5 -178.5t-181.5 -126.5t-224 -53.5q-36 -3 -40 38l-10 251q-1 15 12 27t29 12q210 3 287 204q-43 -13 -118 -13q-176 0 -303.5 122t-127.5 301zM410 923 q0 -48 36 -86.5t82 -38.5q50 0 85.5 38t35.5 87q0 50 -35 86t-86 36q-47 0 -82.5 -36.5t-35.5 -85.5z" />
<glyph unicode=":" horiz-adv-x="579" d="M87 182q0 83 59 142.5t142 59.5q84 0 144.5 -59.5t60.5 -142.5t-61 -144t-144 -61t-142 60.5t-59 144.5zM87 682q0 83 59 142t142 59q84 0 144.5 -59t60.5 -142t-61 -144t-144 -61t-142 60.5t-59 144.5z" />
<glyph unicode=";" horiz-adv-x="548" d="M87 182q0 83 59 142.5t142 59.5q56 0 105 -29.5t76 -78.5q25 -39 33 -87q10 -80 5 -135.5t-25 -133.5q-30 -86 -89 -157.5t-124 -111.5q-29 -15 -47 5l-40 51q-12 17 0 26q143 107 163 253q-34 -9 -57 -9q-83 0 -142 60.5t-59 144.5zM87 682q0 83 59 142t142 59 q84 0 144.5 -59t60.5 -142t-61 -144t-144 -61t-142 60.5t-59 144.5z" />
<glyph unicode="&#x3c;" horiz-adv-x="864" d="M69 640q0 -21 18 -31l623 -382q18 -11 34 -1.5t16 31.5v239q0 21 -17 30l-236 120l236 119q17 13 17 30v239q0 22 -16.5 31.5t-33.5 -1.5l-623 -384q-7 -4 -12.5 -13.5t-5.5 -17.5v-9z" />
<glyph unicode="=" horiz-adv-x="1041" d="M95 326v202q0 16 10.5 26t26.5 10h779q15 0 25 -10t10 -25v-201q0 -14 -10.5 -25t-24.5 -11h-779q-15 0 -26 10t-11 24zM95 755v201q0 16 10.5 26.5t26.5 10.5h779q15 0 25 -10t10 -25v-201q0 -14 -10.5 -25.5t-24.5 -11.5h-779q-14 0 -25.5 10.5t-11.5 24.5z" />
<glyph unicode="&#x3e;" horiz-adv-x="864" d="M104 257q0 -22 16 -31.5t34 1.5l624 382q17 9 17 31v9q0 8 -5 17.5t-12 13.5l-624 384q-17 11 -33.5 1.5t-16.5 -31.5v-239q0 -17 17 -30l237 -119l-237 -120q-17 -9 -17 -30v-239z" />
<glyph unicode="?" horiz-adv-x="808" d="M35 1234q161 184 380 181q91 -3 179 -39q71 -29 119 -93t64 -138t-5 -152.5t-79 -135.5q-23 -22 -48 -46t-38 -34.5t-28 -27t-21 -21.5t-13 -20.5t-8.5 -20.5t-3.5 -25.5t-2 -32v-42.5q0 -14 -10.5 -25.5t-24.5 -11.5h-224q-16 0 -26 10.5t-10 26.5l-3 161q0 27 34 65 t75 71t75.5 71.5t35.5 66.5q1 49 -29 74t-72 25q-11 0 -21 -1.5t-21 -6.5t-17 -8t-18.5 -13t-17 -14t-20 -18.5t-20.5 -18.5q-23 -20 -43 0l-138 150q-20 20 -1 43zM174 191q0 83 61.5 144.5t144.5 61.5t143 -61t60 -145q0 -83 -60 -143t-143 -60q-84 0 -145 60t-61 143z " />
<glyph unicode="@" horiz-adv-x="2025" d="M104 491q0 151 45.5 291.5t130.5 254.5t199 199t259 132t303 47q157 0 298.5 -47.5t245.5 -127.5t181 -181.5t116 -213t39 -218.5q0 -74 -7 -142t-22.5 -143t-46 -135.5t-73 -110.5t-107.5 -77.5t-146 -27.5q-53 0 -94 16t-64 42t-36 51t-18 51q-48 -44 -111 -78 q-29 -17 -48.5 -26t-56.5 -19t-81 -12q-47 -3 -97.5 5t-101.5 28t-90.5 60t-52.5 94q-12 39 -10 76.5t13.5 72t44 67t83 61t130 55t184.5 48.5q0 13 -12 29t-30 21q-40 14 -117.5 4.5t-155.5 -40.5q-14 -7 -28 -2.5t-18 19.5l-47 158q-4 13 1.5 26.5t17.5 20.5 q170 79 328 77q70 -1 135 -21.5t117 -57t81.5 -95t25.5 -130.5q-3 -64 -3 -155q2 -76 23.5 -104t64.5 -28q21 0 35.5 6t24 23.5t15 36.5t8.5 57t3.5 73t0.5 96q0 97 -35 183.5t-102 154.5t-173.5 108t-239.5 40q-267 0 -431.5 -165t-164.5 -427q0 -150 64.5 -283.5 t181.5 -222t261 -108.5q24 -3 24 -37v-269q0 -28 -48 -24q-150 15 -282 76.5t-228.5 154t-166 209t-104.5 245.5t-35 259zM923.5 301q-5.5 -19 6 -35.5t35.5 -17.5q80 -10 139 49v76q-132 -34 -156 -45q-19 -8 -24.5 -27z" />
<glyph unicode="A" horiz-adv-x="1516" d="M74 11.5q-7 11.5 1 28.5l649 1338q10 17 28 17h13q18 0 28 -17l649 -1338q9 -17 1.5 -28.5t-25.5 -11.5h-285q-25 0 -36 23l-71 154h-535l-71 -154q-10 -23 -36 -23h-285q-18 0 -25 11.5zM630 476h257l-129 277z" />
<glyph unicode="B" horiz-adv-x="1187" d="M95 36v1318q0 14 9.5 24t25.5 10h502q87 0 162 -33t124 -85t76.5 -116t27.5 -127q0 -94 -32 -162t-108 -115q103 -64 160.5 -157t57.5 -197q0 -110 -59 -202t-155.5 -143t-206.5 -51h-547q-16 0 -26.5 10t-10.5 26zM432 305h174q50 0 85 25q35 26 43 62q4 19 5 37 q0 18 -4 35q-8 36 -42.5 61t-86.5 25h-174v-245zM432 838h129q48 0 80.5 25t40.5 61q4 19 4 37q0 17 -4 35q-8 36 -40.5 61.5t-80.5 25.5h-129v-245z" />
<glyph unicode="C" horiz-adv-x="1385" d="M78 694q0 144 56 275t151 225.5t227 150.5t278 56q144 0 276.5 -57.5t228.5 -159.5q24 -24 -2 -49l-213 -179q-25 -21 -49 0q-61 60 -117 88.5t-135 28.5q-140 0 -248.5 -114.5t-108.5 -262.5q0 -150 109 -265t250 -115q77 0 132 27t116 84q23 23 49 0l212 -175 q27 -25 3 -49q-97 -102 -228 -158.5t-275 -56.5q-146 0 -278 55.5t-227 150t-151 225.5t-56 275z" />
<glyph unicode="D" horiz-adv-x="1412" d="M104 36v1318q0 14 10 24t25 10h465q131 0 247.5 -40.5t200 -109t144.5 -157t91 -186t30 -194.5q0 -140 -49 -266t-138 -223.5t-225.5 -154.5t-300.5 -57h-463q-16 0 -26.5 10t-10.5 26zM448 335h156q114 0 200 55.5t127 137.5t41 173q0 147 -99 250t-269 103h-156v-719z " />
<glyph unicode="E" horiz-adv-x="1169" d="M130 36v1318q0 14 10 24t25 10h856q14 0 25 -10t11 -24v-235q0 -16 -10 -26t-26 -10h-554v-253h295q14 0 25 -10.5t11 -24.5v-234q0 -16 -10 -26.5t-26 -10.5h-295v-219h554q14 0 25 -10t11 -24v-235q0 -16 -10 -26t-26 -10h-854q-16 0 -26.5 10t-10.5 26z" />
<glyph unicode="F" horiz-adv-x="1048" d="M87 89v1265q0 15 9.5 24.5t24.5 9.5h839q14 0 25 -10t11 -24v-235q0 -16 -10 -26t-26 -10h-537v-253h276q14 0 25.5 -10.5t11.5 -24.5v-234q0 -16 -10.5 -26.5t-26.5 -10.5h-276v-488q0 -14 -10 -25t-24 -11h-214q-42 0 -65 23.5t-23 65.5z" />
<glyph unicode="G" horiz-adv-x="1385" d="M78 694q0 144 56 275t151 225.5t227 150.5t278 56q144 0 276.5 -57.5t228.5 -159.5q24 -24 -2 -49l-213 -179q-25 -21 -49 0q-61 60 -117 88.5t-135 28.5q-140 0 -248.5 -114.5t-108.5 -262.5q0 -150 109 -265t250 -115q72 0 124.5 23.5t106.5 71.5v40h-219q-36 0 -36 35 v234q0 37 34 37l478 -5q34 7 34 -30v-488q5 -16 -10 -31q-97 -102 -228 -158.5t-275 -56.5q-146 0 -278 55.5t-227 150t-151 225.5t-56 275z" />
<glyph unicode="H" horiz-adv-x="1449" d="M130 36v1318q0 14 10 24t25 10h267q15 0 26 -10t11 -24v-507h510v507q0 14 9.5 24t25.5 10h270q14 0 24.5 -10t10.5 -24v-1318q0 -17 -9 -26.5t-24 -9.5h-217q-42 0 -66 26t-24 68v413h-510v-471q0 -14 -10.5 -25t-24.5 -11h-267q-16 0 -26.5 10t-10.5 26z" />
<glyph unicode="I" horiz-adv-x="612" d="M139 36q0 -16 10 -26t26 -10h264q14 0 24.5 11t10.5 25v1318q0 14 -11 24t-26 10h-263q-16 0 -25.5 -10t-9.5 -24v-1318z" />
<glyph unicode="J" horiz-adv-x="636" d="M49 -337q-17 29 17 45q88 54 88 144v1380q-2 50 -15 111q-4 18 2 31.5t20 13.5h294q18 0 30.5 -12t12.5 -29v-1510q-4 -300 -271 -432q-31 -15 -46 14z" />
<glyph unicode="K" horiz-adv-x="1312" d="M97 1343q-4 18 2.5 31.5t20.5 13.5h286q18 0 31 -11t13 -28v-412l381 432q17 19 44 19h272q34 0 46.5 -26.5t-9.5 -51.5l-528 -590l578 -635q25 -27 13.5 -56t-48.5 -29h-267q-27 0 -42 17l-440 490v-471q0 -14 -10.5 -25t-24.5 -11h-266q-16 0 -26 10t-10 26v1196 q-2 44 -16 111z" />
<glyph unicode="L" horiz-adv-x="1088" d="M113 36v1318q0 14 9.5 24t25.5 10h265q15 0 26 -10t11 -24v-1049h508q15 0 25 -9.5t10 -24.5v-235q0 -14 -10.5 -25t-24.5 -11h-810q-14 0 -24.5 10t-10.5 26z" />
<glyph unicode="M" horiz-adv-x="1851" d="M130 36v1318q0 14 10 24t25 10h253q22 0 37 -24l465 -718l475 718q15 24 37 24h253q15 0 26 -10t11 -24v-1318q0 -14 -10.5 -25t-24.5 -11h-266q-16 0 -26 10t-10 26v676l-415 -618q-16 -26 -43 -26h-14q-26 0 -42 26l-404 616v-674q0 -14 -10.5 -25t-24.5 -11h-265 q-16 0 -26.5 10t-10.5 26z" />
<glyph unicode="N" horiz-adv-x="1475" d="M130 36v1318q0 14 10.5 24t24.5 10h163q26 0 50 -27l630 -721v712q0 14 10.5 24.5t24.5 10.5l266 1q15 0 25.5 -10.5t10.5 -25.5v-1317q0 -14 -10.5 -24.5t-24.5 -10.5h-92q-51 0 -94.5 27t-90.5 79l-568 639v-709q0 -14 -10.5 -25t-24.5 -11h-263q-16 0 -26.5 10 t-10.5 26z" />
<glyph unicode="O" horiz-adv-x="1624" d="M104 694q0 -144 56 -275t151 -225.5t226.5 -150t276.5 -55.5q192 0 354.5 94t257 256.5t94.5 355.5q0 144 -56 275t-150 225.5t-225 150.5t-275 56q-145 0 -276.5 -56t-226.5 -150.5t-151 -225.5t-56 -275zM448 696q0 98 49.5 185.5t134 139.5t180.5 52q148 0 256.5 -113 t108.5 -264q0 -99 -49.5 -186.5t-134 -140.5t-181.5 -53q-146 0 -255 114.5t-109 265.5z" />
<glyph unicode="P" horiz-adv-x="1190" d="M121 36v1318q0 14 9.5 24t25.5 10h493q99 0 191 -43t156.5 -110.5t103.5 -152t39 -167.5q0 -89 -39 -177t-103.5 -156t-156.5 -110t-191 -42h-191v-394q0 -14 -10.5 -25t-24.5 -11h-265q-16 0 -26.5 10t-10.5 26zM458 758h188q69 0 112.5 46t43.5 111q0 59 -44 102 t-112 43h-188v-302z" />
<glyph unicode="Q" horiz-adv-x="1598" d="M104 694q0 144 56 275t151 225.5t226.5 150.5t276.5 56q144 0 275 -56t225 -150.5t150 -225.5t56 -275q0 -143 -53.5 -271t-149.5 -225l75 -122q15 -24 30.5 -44.5t22.5 -28t24 -23t18 -16.5q16 -15 14 -31.5t-15 -24.5l-202 -123q-27 -16 -53 -16q-8 0 -16 1 q-34 7 -56 41l-135 208q-97 -31 -210 -31q-145 0 -276.5 55.5t-226.5 150t-151 225.5t-56 275zM448 696q0 -153 111 -269q-9 43 -9 68q0 95 78 160t179 65q185 0 292 -170l26 -43q52 90 52 189q0 151 -108.5 264t-256.5 113q-96 0 -180.5 -52t-134 -139.5t-49.5 -185.5z M670 368q0 -14 3 -21q63 -31 139 -31h19v2q-18 28 -24.5 38t-22 29t-29.5 26t-30 7q-25 0 -40 -14.5t-15 -35.5z" />
<glyph unicode="R" horiz-adv-x="1301" d="M104 36v1318q0 14 10 24t25 10h564q85 0 162 -29.5t133 -78t98 -110t63 -127t21 -127.5q0 -118 -62 -232.5t-170 -181.5l277 -460q11 -17 4 -29.5t-28 -12.5h-259q-35 0 -66 24t-46 51l-205 355h-184v-394q0 -14 -10.5 -25t-24.5 -11h-265q-16 0 -26.5 10t-10.5 26z M441 736h210q50 0 87.5 16.5t57.5 43.5t29.5 56t9.5 59t-9.5 58.5t-30 54.5t-57.5 42.5t-87 16.5h-210v-347z" />
<glyph unicode="S" horiz-adv-x="1115" d="M92 243l132 184q13 20 35.5 22t33.5 -10q3 -3 22.5 -19t29 -23.5t30 -22.5t37 -23t38 -17.5t44.5 -13.5t46 -4q63 0 108 27t45 70q0 30 -25 51t-80 50q-205 107 -261 142q-149 94 -198 196q-30 63 -30 141t33 150.5t92.5 130.5t153 93t205.5 35q197 0 390 -144q6 -5 9 -7 q16 -12 19.5 -30t-8.5 -36l-134 -185q-14 -19 -33.5 -25.5t-41.5 4.5q-39 25 -60.5 38.5t-76 34.5t-97.5 21q-44 0 -75.5 -23.5t-31.5 -55.5t20.5 -50t86.5 -50q183 -91 221 -113q168 -96 227 -208q40 -76 40 -169q0 -173 -138 -294.5t-348 -121.5q-43 0 -84.5 5t-77 15 t-66 20.5t-59 27t-49 28t-42.5 29.5t-32.5 26.5t-26.5 23.5t-18 16q-17 16 -17 34q0 14 12 30z" />
<glyph unicode="T" horiz-adv-x="1284" d="M85 1118v234q0 16 10 26t26 10h1042q15 0 25 -9.5t10 -24.5v-235q0 -14 -10.5 -25t-24.5 -11h-352v-1047q0 -17 -9 -26.5t-24 -9.5h-214q-42 0 -66 26t-24 68v989h-353q-14 0 -25 10.5t-11 24.5z" />
<glyph unicode="U" horiz-adv-x="1371" d="M121 500q1 -107 38.5 -199.5t107.5 -162.5t177 -110t238 -40t239 40t179 110t110 163t40 199v854q0 14 -10.5 24t-24.5 10h-267q-16 0 -25.5 -10t-9.5 -24v-804q0 -104 -56.5 -172.5t-174.5 -68.5t-171 68t-53 173v804q0 14 -10.5 24t-24.5 10h-267q-16 0 -25.5 -10 t-9.5 -24v-854z" />
<glyph unicode="V" horiz-adv-x="1470" d="M51.5 1376.5q9.5 11.5 28.5 11.5h286q24 0 45 -43l325 -722l323 722q21 43 45 43h286q20 0 29 -11.5t-1 -36.5l-634 -1317q-20 -37 -39 -37h-20q-19 0 -39 37l-634 1319q-10 23 -0.5 34.5z" />
<glyph unicode="W" horiz-adv-x="1994" d="M49.5 1376.5q9.5 11.5 28.5 11.5h286q24 0 46 -43l352 -722l68 151l-280 568q-10 23 -0.5 34.5t28.5 11.5h286q24 0 45 -43l91 -193l86 193q18 43 44 43h286q19 0 29.5 -12.5t0.5 -35.5l-271 -561l73 -156l338 722q18 43 44 43h286q19 0 29.5 -12.5t0.5 -35.5l-648 -1317 q-20 -37 -40 -37h-19q-20 0 -40 37l-196 399l-192 -399q-15 -37 -39 -37h-20q-20 0 -40 37l-662 1319q-10 23 -0.5 34.5z" />
<glyph unicode="X" horiz-adv-x="1346" d="M53.5 1378q5.5 10 21.5 10h321q7 0 12 -3t7.5 -6t7.5 -12t7 -13l242 -370l239 370q2 3 7.5 12.5t7.5 12t7.5 6t12.5 3.5h324q16 0 21.5 -10t-3.5 -24l-427 -661l427 -657q8 -12 1.5 -24t-20.5 -12h-325q-6 0 -10.5 2t-8.5 6t-6 7.5t-5.5 10.5t-5.5 10l-236 365l-236 -365 q-2 -3 -5.5 -10t-6 -10t-6.5 -7.5t-8.5 -6.5t-10.5 -2h-321q-14 0 -20.5 12t1.5 24l425 657l-427 661q-9 14 -3.5 24z" />
<glyph unicode="Y" horiz-adv-x="1358" d="M29 1377q5 11 21 11h320q5 0 9 -1.5t6.5 -3.5t6 -6t5.5 -7t5.5 -9t5.5 -9l272 -413l273 413q19 30 30 34q5 2 10 2h317q16 0 21.5 -11t-3.5 -25l-478 -727v-589q0 -17 -9 -26.5t-24 -9.5h-213q-42 0 -66 26t-24 68v526l-481 732q-9 14 -4 25z" />
<glyph unicode="Z" horiz-adv-x="1150" d="M61 35v50l50 92l460 871h-469q-14 0 -24 10t-10 25v269q0 14 10 25t24 11h952q14 0 25 -11t11 -23v-51v-1l-503 -962h461q15 0 25 -10t10 -25v-216q0 -41 -23.5 -65t-63.5 -24h-899q-14 0 -25 11.5t-11 23.5z" />
<glyph unicode="[" horiz-adv-x="697" d="M69 -316v1812q0 31 32 31h496q31 0 31 -31v-271q0 -31 -31 -31h-180v-1208h180q31 0 31 -31v-271q0 -31 -31 -31h-496q-32 0 -32 31z" />
<glyph unicode="\" horiz-adv-x="831" d="M43 1354q-4 14 7.5 24t27.5 10h285q27 0 36 -34l389 -1318q4 -13 -8.5 -24.5t-26.5 -11.5h-286q-25 0 -37 36z" />
<glyph unicode="]" horiz-adv-x="697" d="M69 -45q0 31 32 31h180v1208h-180q-32 0 -32 31v271q0 31 32 31h496q31 0 31 -31v-1812q0 -31 -31 -31h-496q-32 0 -32 31v271z" />
<glyph unicode="^" horiz-adv-x="1010" d="M48 789q10 -17 32 -17h238q15 0 29 18l158 236l158 -236q14 -18 31 -18h238q23 0 32.5 16t-2.5 36l-419 622q-13 17 -31 17h-9q-24 0 -33 -17l-420 -622q-12 -18 -2 -35z" />
<glyph unicode="_" horiz-adv-x="933" d="M69 -36q0 16 10.5 26t26.5 10h724q14 0 24 -10t10 -25v-194q0 -15 -10 -26t-24 -11h-724q-14 0 -25.5 10.5t-11.5 24.5v195z" />
<glyph unicode="`" horiz-adv-x="676" d="M71 1163.5q4 -14.5 18 -21.5l378 -153q38 -14 50 11l85 142q7 13 3.5 24.5t-11.5 17.5l-337 224q-12 11 -28.5 10.5t-25.5 -14.5l-125 -206q-11 -20 -7 -34.5z" />
<glyph unicode="a" horiz-adv-x="978" d="M78 231q0 -111 75 -175.5t211 -64.5q83 0 143 18t109 64q7 -33 23 -53t38 -20h170q19 0 28 12t7 30q-18 139 -18 320q0 103 6 219v14q0 63 -24 115q-27 56 -75.5 90.5t-108.5 52t-127 17.5q-193 0 -382 -89q-18 -9 -25 -24.5t0 -31.5l56 -140q7 -16 20.5 -22t29.5 1 q153 63 224 63q97 0 97 -70q-251 -41 -364 -120.5t-113 -205.5zM373 250q0 31 56.5 55t124.5 35v-80q-49 -52 -125 -52q-56 0 -56 42z" />
<glyph unicode="b" horiz-adv-x="1128" d="M106 1342q-4 19 4 32.5t25 13.5h217q104 0 104 -102v-460q79 42 179 42q179 0 292.5 -122.5t113.5 -309.5q0 -182 -118 -314t-293 -132q-120 0 -198 66q-42 -56 -104 -56h-161q-17 0 -28 11t-11 29v1159q0 24 -2.5 47t-5.5 36.5t-8 33.5t-6 26zM456 318q60 -33 118 -33 q64 0 109.5 42.5t45.5 106.5q0 63 -44.5 102.5t-108.5 39.5q-58 0 -120 -33v-225z" />
<glyph unicode="c" horiz-adv-x="911" d="M69 427q0 129 61 231.5t164 157.5t228 55q172 0 306 -119q26 -25 3 -53l-125 -152q-11 -15 -27 -15q-14 0 -32 11q-55 33 -111 33q-61 0 -104 -44t-43 -105q0 -58 43 -102t104 -44q52 0 115 37q16 12 29.5 11.5t25.5 -18.5l117 -165q19 -32 -6 -52q-133 -106 -295 -106 q-191 0 -322 123.5t-131 315.5z" />
<glyph unicode="d" horiz-adv-x="1096" d="M69 434q0 187 116 309.5t296 122.5q103 0 184 -45v378q0 31 -3.5 56t-11.5 55t-8 32q-4 19 4.5 32.5t26.5 13.5h216q104 0 104 -102v-1246q0 -18 -10.5 -29t-27.5 -11h-162q-66 0 -104 57q-81 -69 -203 -69q-116 0 -212.5 61.5t-150.5 164t-54 220.5zM382 432 q0 -66 47 -107.5t113 -41.5q63 0 123 36v221q-64 34 -125 34q-65 0 -111.5 -38t-46.5 -104z" />
<glyph unicode="e" horiz-adv-x="987" d="M68 430q0 -191 131.5 -315.5t322.5 -124.5q227 0 323 131q16 19 16 37q0 13 -9 26l-45 75q-14 24 -37 24q-11 0 -24 -5q-91 -38 -206 -38q-63 0 -114.5 25.5t-64.5 62.5h413q68 0 106 37t38 98q0 77 -29.5 150t-81.5 130.5t-132.5 92.5t-174.5 35q-120 0 -219.5 -60.5 t-156 -161.5t-56.5 -219zM358 533q8 28 45.5 53t94.5 25q58 0 96.5 -25t44.5 -53h-281z" />
<glyph unicode="f" horiz-adv-x="748" d="M54 588v205q0 31 18.5 48.5t48.5 17.5h51v189q0 167 99.5 258t261.5 91q68 0 144.5 -21.5t117.5 -56.5q25 -22 10 -54l-92 -182q-17 -33 -47 -17q-32 17 -71 17q-38 0 -66.5 -22.5t-28.5 -67.5v-134h146q11 0 18.5 -7t7.5 -19v-243q0 -10 -8 -18t-18 -8h-146v-528 q0 -14 -11.5 -25t-25.5 -11h-196q-42 0 -68.5 26.5t-26.5 68.5v469h-92q-26 0 -26 24z" />
<glyph unicode="g" d="M61 49v12q0 79 49 125q46 44 128 44q12 0 24 -1q-41 20 -82 86t-43 154v6q0 163 109 277q111 116 276 116q41 0 162 -13q88 -9 174 -9q32 0 65 1q15 2 25.5 -9t9.5 -26l-10 -137q-2 -20 -66 -35q38 -74 38 -178q0 -174 -112 -278q-105 -97 -263 -97h-21q-42 2 -137 24 q-28 8 -41.5 4.5t-17.5 -9t-3 -12.5q3 -27 90 -42q63 -10 141 -21t102 -15q96 -14 158.5 -35t107 -58t64 -91.5t19.5 -133.5q0 -107 -69 -179.5t-178 -103.5q-102 -29 -233 -29h-17q-194 2 -306 81q-100 70 -100 191q0 15 2 31q3 32 15.5 58.5t29 42.5t40.5 28.5t42.5 18.5 t42.5 12q-212 48 -215 200zM373 -271q0 -40 35 -57t116 -17q163 0 163 66q0 36 -54 50q-88 25 -175 38q-10 2 -18 2q-28 0 -45 -17q-22 -23 -22 -65zM423 477q0 -42 32 -72t74 -30q43 0 73 30t30 72q0 46 -30 77t-73 31t-74.5 -31t-31.5 -77z" />
<glyph unicode="h" horiz-adv-x="1114" d="M106 1342q-4 19 4 32.5t25 13.5h217q104 0 104 -102v-472q99 54 197 54q156 0 257.5 -96.5t101.5 -257.5v-351q0 -56 14 -118q4 -18 -2.5 -31.5t-20.5 -13.5h-231q-41 0 -64.5 26t-23.5 66v333q0 57 -29 88.5t-79 31.5q-69 0 -120 -45v-465q0 -15 -9.5 -25t-24.5 -10 h-259q-22 0 -31 21q-4 6 -4 14v1164q0 24 -2.5 47t-5.5 36.5t-8 33.5t-6 26z" />
<glyph unicode="i" horiz-adv-x="572" d="M121 1225q0 68 49 116.5t118 48.5q67 0 115 -48.5t48 -116.5q0 -69 -48 -117t-115 -48q-69 0 -118 48t-49 117zM123 94q0 -42 24 -68t66 -26h205q15 0 24 9.5t9 26.5v788q0 14 -10 24.5t-24 10.5h-259q-15 0 -25 -10t-10 -25v-730z" />
<glyph unicode="j" horiz-adv-x="579" d="M16 -340l132 -245q15 -29 46 -14q128 64 196 170.5t68 275.5v977q0 14 -11 24.5t-25 10.5h-257q-15 0 -25 -10t-10 -25v-975q0 -85 -97 -144q-34 -16 -17 -45zM125 1222q0 69 49 117.5t118 48.5q70 0 118 -48.5t48 -117.5q0 -70 -48 -119t-118 -49q-69 0 -118 49.5 t-49 118.5z" />
<glyph unicode="k" horiz-adv-x="1126" d="M106 1342q-4 19 4 32.5t25 13.5h217q104 0 104 -102v-679l202 230q19 22 47 22h248q35 0 46 -29.5t-13 -55.5l-281 -305l338 -387q22 -26 10 -53t-46 -27h-262q-28 0 -44 22l-245 297v-286q0 -15 -9.5 -25t-24.5 -10h-259q-14 0 -24.5 10.5t-10.5 24.5v1164q0 24 -2.5 47 t-5.5 36.5t-8 33.5t-6 26z" />
<glyph unicode="l" horiz-adv-x="579" d="M130 94q0 -42 24 -68t66 -26h205q15 0 24 9.5t9 26.5v1318q0 14 -10.5 24t-24.5 10h-258q-15 0 -25 -10t-10 -24v-1260z" />
<glyph unicode="m" horiz-adv-x="1652" d="M113 36v788q0 14 9.5 24.5t23.5 10.5h208q5 -45 42 -73q118 84 241 84q168 0 272 -115q134 115 283 115q154 0 256 -98t102 -258v-351q0 -56 14 -118q4 -18 -2.5 -31.5t-20.5 -13.5h-231q-41 0 -64.5 26t-23.5 66v330q0 58 -28.5 89t-80.5 31q-68 0 -117 -53v-326 q0 -56 14 -118q4 -18 -2 -31.5t-20 -13.5h-231q-42 0 -65.5 26t-23.5 66v330q0 58 -28.5 89t-80.5 31q-69 0 -118 -53v-453q0 -14 -10.5 -25t-24.5 -11h-258q-16 0 -25.5 10t-9.5 26z" />
<glyph unicode="n" horiz-adv-x="1089" d="M104 36v788q0 14 9.5 24.5t23.5 10.5h208q5 -45 42 -73q120 82 241 82q156 0 258 -96.5t102 -257.5v-351q0 -60 13 -118q4 -18 -2 -31.5t-20 -13.5h-231q-41 0 -64.5 26t-23.5 66v333q0 57 -29 88.5t-79 31.5q-69 0 -120 -45v-464q0 -14 -10.5 -25t-24.5 -11h-258 q-16 0 -25.5 10t-9.5 26z" />
<glyph unicode="o" d="M69 427q0 -121 63 -222.5t168.5 -159t228.5 -57.5q122 0 227.5 57.5t169 159t63.5 222.5q0 124 -63.5 227t-169 160t-227.5 57q-123 0 -228.5 -57t-168.5 -160t-63 -227zM382 427q0 59 42 104t105 45t105.5 -45t42.5 -104q0 -57 -42.5 -101.5t-105.5 -44.5t-105 44.5 t-42 101.5z" />
<glyph unicode="p" horiz-adv-x="1128" d="M106 812q-4 19 4 33t25 14h217q67 0 91 -42q83 51 197 51q176 0 288.5 -122.5t112.5 -309.5q0 -182 -118 -314t-293 -132q-103 0 -174 46v-413q0 -57 -39 -95t-89 -38h-161q-17 0 -28 11t-11 29v1140q0 24 -2.5 47t-5.5 36.5t-8 32.5t-6 26zM456 318q60 -33 118 -33 q64 0 109.5 42.5t45.5 106.5q0 63 -44.5 102.5t-108.5 39.5q-58 0 -120 -33v-225z" />
<glyph unicode="q" horiz-adv-x="1110" d="M87 434q0 187 113.5 309.5t292.5 122.5q117 0 206 -59q38 52 101 52h162q17 0 27.5 -11t10.5 -29v-1140q0 -24 2.5 -47t5.5 -36.5t8 -32.5t6 -26q4 -19 -4 -33t-25 -14h-217q-104 0 -104 102v443q-72 -47 -174 -47q-175 0 -293 132t-118 314zM399 432q0 -64 45.5 -106.5 t109.5 -42.5q58 0 118 33v226q-60 32 -120 32q-64 0 -108.5 -39.5t-44.5 -102.5z" />
<glyph unicode="r" horiz-adv-x="869" d="M104 36v788q0 14 9.5 24.5t23.5 10.5h208q8 -48 42 -73q110 80 220 80q115 0 202 -52q24 -14 24 -35q0 -12 -7 -26l-111 -199q-7 -14 -22 -16.5t-27 4.5q-41 17 -95 17q-79 0 -139 -64v-459q0 -14 -10.5 -25t-24.5 -11h-258q-16 0 -25.5 10t-9.5 26z" />
<glyph unicode="s" horiz-adv-x="838" d="M79.5 110q-3.5 13 2.5 22l90 144q15 23 35 23q10 0 20 -6q1 -1 11 -6.5t17 -9.5t21 -11.5t25 -13t26.5 -11.5t28.5 -10.5t27.5 -7.5t26.5 -3q29 -1 44.5 9t15.5 28q0 19 -22.5 31t-105.5 37q-118 34 -188 106q-71 73 -71 173q0 106 88 186q90 82 242 81q86 0 148 -21.5 t135 -65.5q36 -22 19 -46l-99 -151q-17 -25 -45 -11q-1 0 -12.5 7t-21 12.5t-26 13.5t-30.5 13t-31.5 9t-31.5 4q-59 0 -59 -40q0 -18 23 -29.5t80 -27.5q132 -36 215 -107.5t83 -178.5q0 -113 -97.5 -188.5t-252.5 -75.5q-92 0 -183 34.5t-135 67.5q-9 7 -12.5 20z" />
<glyph unicode="t" horiz-adv-x="852" d="M69 599v57q0 14 0.5 20t4 13t11.5 16q20 23 65.5 76t68.5 79.5t59 69.5t66.5 82.5t61.5 82.5q25 35 49 35h41q14 0 23.5 -10.5t9.5 -24.5v-236h153q16 0 26.5 -10t10.5 -26v-226q0 -14 -11.5 -24.5t-25.5 -10.5h-118q-26 0 -40 2v-186q0 -33 16 -53.5t41 -24.5 q6 -1 11 -1q26 0 57 15q32 15 45 -17l85 -193q9 -19 -12 -40q-39 -34 -101 -54t-119 -20q-161 0 -256 89t-95 256v227h-92q-14 0 -24.5 11.5t-10.5 25.5z" />
<glyph unicode="u" horiz-adv-x="1081" d="M89 821q-4 18 2 31.5t20 13.5h231q41 0 64.5 -26t23.5 -66v-337q0 -58 29 -88.5t81 -30.5q70 0 118 52v453q0 14 10.5 25t24.5 11h258q16 0 25.5 -10t9.5 -26v-788q0 -14 -9.5 -24.5t-23.5 -10.5h-212q-5 46 -38 73q-120 -83 -243 -83q-154 0 -256 97.5t-102 257.5v358 q0 60 -13 118z" />
<glyph unicode="v" horiz-adv-x="961" d="M47 823l387 -799q17 -33 36 -33h21q21 0 40 33l385 799q7 14 -2 25t-25 11h-264q-7 0 -12 -2.5t-9.5 -9t-6.5 -10t-7 -14.5l-109 -254l-110 254q-1 2 -2.5 5.5t-2.5 5.5l-2.5 5t-2.5 4.5l-3 4.5t-3.5 4t-3.5 2.5t-4 2.5t-4.5 1.5t-5.5 0.5h-262q-18 0 -26.5 -11t-1.5 -25 z" />
<glyph unicode="w" horiz-adv-x="1404" d="M47 817q-7 18 0 30t26 12h272q32 0 42 -26l102 -304l155 302q14 26 42 26h31q27 0 41 -26l155 -302l104 304q10 26 42 26h270q19 0 27 -12t1 -30l-314 -794q-10 -23 -35 -23h-85q-21 0 -34 23l-188 366l-187 -366q-13 -23 -35 -23h-83q-25 0 -35 23z" />
<glyph unicode="x" d="M91 20.5q-9 20.5 3 38.5l281 370l-281 373q-12 18 -3 37.5t27 19.5h269q26 0 42 -26l99 -147l100 147q10 15 17.5 20.5t22.5 5.5h271q20 0 29 -19.5t-3 -37.5l-285 -373l283 -370q14 -18 4.5 -38.5t-28.5 -20.5h-271q-15 0 -21.5 5t-18.5 21l-100 148l-99 -148 q-11 -16 -18.5 -21t-23.5 -5h-269q-18 0 -27 20.5z" />
<glyph unicode="y" horiz-adv-x="1128" d="M47 847q8 12 28 12h269q26 0 40 -26l182 -366l173 366q11 26 42 26h271q20 0 28 -12t-2 -30l-333 -680q-225 -455 -414 -684q-12 -14 -30.5 -13.5t-36.5 13.5l-156 144q-16 14 -16 32t17 40q209 246 297 479l-357 669q-10 18 -2 30z" />
<glyph unicode="z" horiz-adv-x="928" d="M87 42l3 66l276 423h-231q-15 0 -24.5 9.5t-9.5 25.5v257q0 14 10 25t24 11h669q15 0 26.5 -13.5t9.5 -26.5l-2 -66l-277 -425h232q15 0 25 -10t10 -25v-257q0 -14 -10.5 -25t-24.5 -11h-666q-17 0 -29.5 14t-10.5 28z" />
<glyph unicode="{" horiz-adv-x="831" d="M69 486q0 -14 10.5 -24.5t21.5 -10.5q28 -11 43.5 -18t41 -23.5t38 -39t12.5 -51.5v-165q0 -86 17 -158t45.5 -123t69.5 -91t84 -65.5t94 -43t94.5 -25.5t90.5 -12q11 0 21 10t10 24v238q0 23 -2 27t-15 4q-106 25 -139 73.5t-33 157.5v177q0 51 -16.5 94.5t-41.5 70.5 t-48 42.5t-44 23.5v17q6 0 22 9.5t38 30t42 47t34 65t14 79.5v177q0 111 32.5 158.5t139.5 72.5q11 0 14 7.5t3 25.5v234q0 16 -5.5 24.5t-10.5 9.5t-15 1q-65 0 -128.5 -13.5t-131.5 -50t-119 -92.5t-83.5 -149t-32.5 -212v-163q0 -55 -54.5 -94.5t-80.5 -39.5 q-11 0 -21.5 -10.5t-10.5 -22.5v-203z" />
<glyph unicode="|" horiz-adv-x="685" d="M174 -311v2036q0 15 9.5 25t24.5 10h268q14 0 25 -10.5t11 -24.5v-2036q0 -14 -10.5 -25t-24.5 -11h-267q-16 0 -26 10t-10 26z" />
<glyph unicode="}" horiz-adv-x="831" d="M69 -92v-238q0 -14 10.5 -24t21.5 -10q68 5 129 19.5t130.5 51t119 91t82.5 146.5t33 210v165q0 29 12.5 51.5t38.5 39t41 23.5t44 18q11 0 21 10.5t10 24.5v203q0 12 -10 22.5t-21 10.5q-9 0 -29.5 9.5t-45 25.5t-43 42.5t-18.5 56.5v163q0 119 -32.5 212t-83 149 t-118.5 92.5t-131.5 50t-128.5 13.5q-10 0 -15 -1t-11 -9.5t-6 -24.5v-234q0 -17 3 -25t15 -8q107 -25 139.5 -72.5t32.5 -158.5v-177q0 -41 13.5 -79.5t33 -65t41 -47t37.5 -30t22 -9.5v-17q-21 -8 -43.5 -23.5t-47 -42.5t-40.5 -70.5t-16 -94.5v-177q0 -109 -33 -157.5 t-139 -73.5q-13 0 -15.5 -4t-2.5 -27z" />
<glyph unicode="~" horiz-adv-x="836" d="M42 510q-14 -16 1 -41q49 -72 80 -127q8 -13 23 -11t22 16q22 34 46 53.5t62 19.5q54 0 109 -33q4 -3 19.5 -15t20.5 -15t18.5 -11.5t22 -11.5t22 -7.5t27.5 -6t30 -1.5q36 0 75.5 14.5t69.5 35.5t55 41.5t39 35.5l13 14q13 19 0 42l-77 140q-8 14 -24 12.5t-24 -14.5 q-52 -76 -127 -76q-7 0 -13.5 0.5t-12 1.5t-11.5 3t-10 3.5t-10 5t-8.5 4.5t-9 5.5t-8 6t-8.5 6.5t-8 6q-32 22 -50.5 32.5t-51 21t-66.5 10.5q-36 0 -73 -16.5t-65 -40t-51 -47t-35 -40.5z" />
<glyph unicode="&#xa1;" horiz-adv-x="600" d="M95 660q0 83 61.5 143t145.5 60q83 0 143 -60t60 -143q0 -84 -60 -145.5t-143 -61.5t-145 62t-62 145zM116 -474l70 738q3 36 36 36h158q14 0 23.5 -10t11.5 -26l69 -738v-29q0 -14 -10 -24.5t-24 -10.5h-299q-15 0 -25 10t-10 25v29z" />
<glyph unicode="&#xa2;" horiz-adv-x="959" d="M69 434q0 124 62 229t167.5 166t229.5 61q52 0 95 -10l26 78q5 16 18 22t29 1l56 -21q13 -5 18.5 -18t1.5 -26l-27 -83q60 -37 112 -97q11 -12 11 -29.5t-14 -19.5l-188 -152q-9 -12 -26 -6l-83 -241q49 10 89 50q20 24 40 7l190 -137q13 -2 14 -18.5t-8 -26.5 q-141 -186 -354 -186q-27 0 -75 6l-38 -113q-5 -16 -18 -22t-29 -1l-56 21q-13 5 -18.5 17.5t-1.5 25.5l38 112q-118 57 -189.5 167.5t-71.5 243.5zM382 434q0 -69 50 -111l89 262q-61 -4 -100 -47t-39 -104z" />
<glyph unicode="&#xa3;" horiz-adv-x="1017" d="M111 38v30q67 93 103 195t38 195h-52q-11 0 -19.5 8t-8.5 18v212q0 12 8 20.5t20 8.5h5l-12 61q-5 23 -24 95.5t-21 109.5q-5 97 28 177.5t93 133t138.5 81.5t165.5 30q44 0 83 -6t66 -12t58 -24.5t45 -26.5t42.5 -36t34.5 -34.5t35 -39.5q11 -11 11.5 -25t-11.5 -25 l-166 -150q-21 -20 -52 2q-20 18 -34.5 28.5t-40 19t-56.5 8.5q-49 0 -85 -31t-36 -89q1 -32 6 -55.5t17.5 -65.5t21.5 -79l12 -47h75q11 0 18.5 -7.5t7.5 -19.5v-212q0 -11 -8 -19.5t-18 -8.5h-57q-10 -84 -32 -139h353q36 0 36 -52v-229q0 -16 -10 -27t-26 -11h-714 q-16 0 -27 11t-11 27z" />
<glyph unicode="&#xa4;" horiz-adv-x="1234" d="M82 455q-24 24 0 48l114 115q-36 88 -36 180q0 96 36 177l-114 115q-24 24 0 49l196 196q24 24 48 0l115 -115q82 35 175 35q92 0 177 -35l115 115q24 24 48 0l195 -196q25 -25 0 -49l-115 -115q37 -83 37 -177q0 -90 -37 -180l115 -115q24 -24 0 -48l-195 -195 q-24 -24 -48 0l-117 117q-82 -35 -175 -35q-91 0 -173 35l-117 -117q-24 -24 -48 0zM496 798q0 -50 35.5 -85.5t86.5 -35.5q50 0 85.5 35.5t35.5 85.5q0 51 -35.5 86.5t-85.5 35.5q-51 0 -86.5 -35.5t-35.5 -86.5z" />
<glyph unicode="&#xa5;" horiz-adv-x="1306" d="M19 1378q5 10 21 10h318q6 0 10 -1.5t8 -5.5t5.5 -6.5l6 -10t6.5 -10.5l259 -413l260 413q2 3 7.5 12.5t7.5 12t7.5 6t12.5 3.5h317q16 0 21.5 -10t-3.5 -24l-353 -564h118q14 0 24.5 -10.5t10.5 -24.5v-250q0 -14 -10.5 -25t-24.5 -11h-224v-49h224q15 0 25 -10t10 -25 v-250q0 -14 -10.5 -24t-24.5 -10h-224v-65q0 -17 -9 -26.5t-24 -9.5h-217q-42 0 -66 26t-24 68v7h-222q-15 0 -25.5 9.5t-10.5 23.5v250q0 16 10 26t26 10h222v49h-222q-14 0 -25 10t-11 24v250q0 15 10.5 26t25.5 11h113l-352 564q-9 14 -4 24z" />
<glyph unicode="&#xa6;" horiz-adv-x="685" d="M174 -311v787q0 15 9.5 24.5t24.5 9.5h268q14 0 25 -10t11 -24v-787q0 -14 -10.5 -25t-24.5 -11h-267q-16 0 -26 10t-10 26zM174 939v786q0 15 9.5 25t24.5 10h268q14 0 25 -10.5t11 -24.5v-786q0 -14 -10.5 -25t-24.5 -11h-267q-16 0 -26 10t-10 26z" />
<glyph unicode="&#xa7;" horiz-adv-x="1107" d="M87 -302.5q0 11.5 10 26.5l148 208q13 20 35.5 22t33.5 -10q3 -1 21.5 -20t42 -40.5t62.5 -40t79 -18.5q57 0 92 23t35 60q0 18 -4 30.5t-19 30.5t-51 38t-93 42q-74 28 -140.5 71t-121.5 100t-87.5 132t-32.5 157q0 137 96 246q-96 119 -96 260q0 69 29.5 138t84 128 t144.5 95.5t199 36.5q43 0 84.5 -6t77.5 -18.5t65 -24t57.5 -29t44.5 -28t37 -26t24 -17.5q15 -11 18.5 -29t-7.5 -36l-143 -198q-14 -20 -32.5 -28t-41.5 4q-1 1 -22.5 19.5t-44 35.5t-59.5 32.5t-72 15.5q-47 0 -74 -23.5t-27 -55.5q0 -39 33.5 -71t129.5 -59 q77 -21 150.5 -65.5t134 -105.5t97.5 -143t37 -170q0 -134 -94 -243q94 -124 94 -264q0 -76 -34 -149t-93 -130.5t-148 -93t-192 -35.5q-247 0 -439 186l-7 7q-11 9 -16 15t-5 17.5zM436 495q0 -38 35 -71t131 -60l16 -5q29 21 29 56q0 18 -4 30.5t-19.5 30.5t-51.5 37.5 t-93 41.5l-5 2q-38 -25 -38 -62z" />
<glyph unicode="&#xa8;" horiz-adv-x="985" d="M66 1224q0 70 49 119t119 49q71 0 120.5 -49t49.5 -119q0 -68 -50 -119t-120 -51t-119 51t-49 119zM581 1224q0 71 49 119.5t120 48.5q70 0 121 -49t51 -119q0 -68 -51.5 -119t-120.5 -51q-70 0 -119.5 51t-49.5 119z" />
<glyph unicode="&#xa9;" horiz-adv-x="1568" d="M69 698q0 146 56.5 278.5t152 228t228 152t278.5 56.5t278.5 -56.5t228.5 -152t152.5 -228t56.5 -278.5t-56.5 -278.5t-152.5 -228t-228.5 -152t-278.5 -56.5t-278.5 56.5t-228 152t-152 228t-56.5 278.5zM323 698q0 -191 135 -326.5t326 -135.5q189 0 324 135.5 t135 326.5t-135 325.5t-324 134.5q-191 0 -326 -134.5t-135 -325.5zM474 698q0 131 94 224t225 93q139 0 231 -107q7 -7 7 -19.5t-10 -13.5l-131 -106q-11 -14 -26 3q-35 32 -67 32q-46 0 -77 -30.5t-31 -75.5q0 -43 31 -73.5t77 -30.5q41 0 79 36q14 19 28 5l132 -93 q10 -2 10 -14t-6 -19q-100 -131 -247 -131q-131 0 -225 94.5t-94 225.5z" />
<glyph unicode="&#xaa;" horiz-adv-x="978" d="M78 231q0 -111 75 -175.5t211 -64.5q83 0 143 18t109 64q7 -33 23 -53t38 -20h170q19 0 28 12t7 30q-28 219 -12 539q3 73 -24 129.5t-75.5 90.5t-108.5 51.5t-127 17.5q-193 0 -382 -89q-18 -9 -25 -24.5t0 -31.5l56 -140q7 -16 20.5 -22t29.5 1q153 63 224 63 q97 0 97 -70q-251 -41 -364 -120.5t-113 -205.5zM373 250q0 31 56.5 55t124.5 35v-80q-49 -52 -125 -52q-56 0 -56 42z" />
<glyph unicode="&#xab;" horiz-adv-x="1239" d="M83 370l229 -328q13 -26 35 -26h193q57 0 31 69l-123 309l125 311q13 32 4.5 50.5t-35.5 18.5h-193q-24 0 -37 -26l-229 -328q-15 -23 0 -50zM639 370l229 -328q13 -26 36 -26h191q28 0 36 19t-5 50l-125 309l125 311q27 69 -31 69h-194q-22 0 -35 -26l-227 -328 q-16 -22 0 -50z" />
<glyph unicode="&#xac;" horiz-adv-x="1039" d="M69 554v184q0 16 10.5 26t26.5 10h819q15 0 25 -10t10 -25v-498q0 -14 -10.5 -25t-24.5 -11h-184q-16 0 -26 10t-10 26v278h-599q-14 0 -25.5 10.5t-11.5 24.5z" />
<glyph unicode="&#xad;" horiz-adv-x="748" d="M69 330v201q0 16 10.5 26.5t26.5 10.5h538q15 0 25 -10t10 -25v-202q0 -14 -10.5 -25t-24.5 -11h-538q-14 0 -25.5 10.5t-11.5 24.5z" />
<glyph unicode="&#xae;" horiz-adv-x="1039" d="M26 1126q0 204 145 348.5t350 144.5t349 -144.5t144 -348.5q0 -135 -65.5 -248.5t-179 -179.5t-248.5 -66t-249 66t-180 179.5t-66 248.5zM213 1126q0 -126 90.5 -215.5t217.5 -89.5q126 0 215.5 89.5t89.5 215.5q0 127 -89.5 216.5t-215.5 89.5q-128 0 -218 -89.5 t-90 -216.5zM368 932v392q0 12 10 12h170q56 0 94 -39t38 -87q0 -35 -18 -65.5t-48 -47.5l79 -163q5 -11 -7 -11h-108q-8 0 -12 4l-70 153h-7v-148q0 -3 -3.5 -6t-6.5 -3h-101q-10 0 -10 9zM488 1180h24q17 0 24 13t0 25.5t-24 12.5h-24v-51z" />
<glyph unicode="&#xaf;" horiz-adv-x="888" d="M69 1090v198q0 14 10.5 24.5t24.5 10.5h680q14 0 24.5 -9.5t10.5 -23.5v-198q0 -14 -10.5 -25.5t-24.5 -11.5h-680q-13 0 -24 10.5t-11 24.5z" />
<glyph unicode="&#xb0;" horiz-adv-x="683" d="M69 1081q0 112 80.5 192.5t192.5 80.5q113 0 192.5 -80.5t79.5 -192.5q0 -113 -79.5 -193.5t-192.5 -80.5q-112 0 -192.5 80.5t-80.5 193.5zM272 1081q0 -28 20.5 -48.5t49.5 -20.5q28 0 48.5 20t20.5 49q0 27 -20.5 48.5t-48.5 21.5t-49 -21.5t-21 -48.5z" />
<glyph unicode="&#xb1;" horiz-adv-x="1025" d="M87 35v215q0 16 10 26t26 10h781q15 0 25 -9.5t10 -24.5v-216q0 -14 -10.5 -25t-24.5 -11h-781q-14 0 -25 10.5t-11 24.5zM87 679v218q0 16 10 26.5t26 10.5h245v246q0 15 10 25t25 10h218q14 0 25.5 -10.5t11.5 -24.5v-246h246q15 0 25 -10t10 -25v-219q0 -14 -10.5 -25 t-24.5 -11h-246v-245q0 -14 -10.5 -25t-24.5 -11h-219q-16 0 -26 10t-10 26v245h-245q-14 0 -25 10.5t-11 24.5z" />
<glyph unicode="&#xb2;" horiz-adv-x="1084" d="M85 1093q98 135 206 201.5t264 66.5q81 0 159.5 -30t140 -82.5t99 -131t37.5 -168.5q0 -166 -113 -307l-260 -337h352q37 0 37 -34v-235q0 -14 -12.5 -25t-27.5 -11h-821q-14 0 -26 11t-12 25v66l437 568q61 79 88.5 133t27.5 105q0 56 -37 98t-100 42q-30 0 -59 -11.5 t-47.5 -22.5t-45 -39.5t-34 -38t-33.5 -42.5q-22 -27 -52 0l-164 151q-22 22 -4 48z" />
<glyph unicode="&#xb3;" horiz-adv-x="1072" d="M90 213q-23 24 2 49l177 168q23 23 49 -3q123 -123 218 -123q57 0 90.5 39t33.5 84q0 44 -28.5 77.5t-74.5 33.5q-17 0 -42.5 -6t-32.5 -6q-16 0 -29 14l-120 163q-23 27 2 52l269 271h-436q-14 0 -25 10t-11 24v240q0 16 10 26t26 10h748q37 0 37 -36v-229 q0 -35 -26 -64l-219 -231q97 -28 167 -96q119 -114 119 -298q0 -110 -62 -202t-166 -144.5t-226 -52.5q-134 0 -243 57t-207 173z" />
<glyph unicode="&#xb4;" horiz-adv-x="676" d="M71.5 1182q-2.5 -11 3.5 -24l85 -143q13 -27 50 -10l378 153q14 7 18 21t-7 34l-125 207q-9 14 -25.5 14t-28.5 -11l-337 -224q-9 -6 -11.5 -17z" />
<glyph unicode="&#xb6;" horiz-adv-x="1565" d="M78 951q0 76 32.5 153.5t88 140.5t140 103t178.5 40h920q50 0 50 -50v-234q0 -50 -50 -50h-64v-1018q0 -14 -10.5 -25t-24.5 -11h-267q-16 0 -26.5 10t-10.5 26v1018h-92v-1018q0 -14 -10 -25t-24 -11h-269q-16 0 -26.5 10t-10.5 26v464h-85q-126 0 -228.5 67 t-156.5 169.5t-54 214.5zM437 975q-6 -33 0.5 -65.5t33.5 -55.5t67 -23h64v223h-64q-40 0 -67.5 -23t-33.5 -56z" />
<glyph unicode="&#xb7;" horiz-adv-x="583" d="M87 526q0 85 60 145t143 60q84 0 145 -60.5t61 -144.5q0 -83 -61.5 -144t-144.5 -61t-143 61t-60 144z" />
<glyph unicode="&#xb8;" horiz-adv-x="557" d="M73 -205l2 4l99 201h199l-55 -120q73 -21 120.5 -81t47.5 -136q0 -92 -69.5 -159.5t-164.5 -67.5q-103 0 -169 78q-11 15 4 30l80 78q13 13 31 0q32 -18 52 -18q28 0 45 17t17 42q0 24 -17 41.5t-45 17.5q-29 0 -57 -26q-4 -4 -12 -4.5t-13 3.5l-92 76q-9 9 -3 24z" />
<glyph unicode="&#xb9;" horiz-adv-x="730" d="M61 1088q-2 18 4 27.5t25 14.5q92 28 207 165l22 28q12 13 32 13h248q14 0 25 -10t11 -24v-1266q0 -14 -10 -25t-24 -11h-268q-16 0 -26 10t-10 26v860l-177 -33q-37 -5 -40 27z" />
<glyph unicode="&#xba;" d="M69 427q0 -121 63 -222.5t168.5 -159t228.5 -57.5q122 0 227.5 57.5t169 159t63.5 222.5q0 124 -63.5 227t-169 160t-227.5 57q-123 0 -228.5 -57t-168.5 -160t-63 -227zM382 427q0 59 42 104t105 45t105.5 -45t42.5 -104q0 -57 -42.5 -101.5t-105.5 -44.5t-105 44.5 t-42 101.5z" />
<glyph unicode="&#xbb;" horiz-adv-x="1239" d="M99 35q8 -19 36 -19h191q24 0 37 26l229 328q15 23 0 50l-228 328q-13 26 -34 26h-195q-57 0 -31 -69l125 -309l-125 -311q-13 -31 -5 -50zM654 755q-8 -19 4 -50l125 -309l-123 -311q-27 -69 31 -69h192q22 0 35 26l229 328q15 23 0 50l-231 328q-13 26 -34 26h-193 q-27 0 -35 -19z" />
<glyph unicode="&#xbc;" horiz-adv-x="1228" d="M87 1180v77q0 21 17 26q56 17 113 79l14 18q8 8 19 8h108q9 0 15.5 -6t6.5 -14v-566q0 -9 -6.5 -16t-15.5 -7h-117q-24 0 -24 23v368l-104 -7q-10 -2 -18 2.5t-8 14.5zM194 12q-7 12 2 30l689 1322q13 24 40 24h87q21 0 28 -11.5t-2 -29.5l-689 -1323q-13 -24 -40 -24 h-87q-21 0 -28 12zM722 246q0 9 7 16q115 90 165 217q24 64 24 127q0 17 17 17h106q7 0 11.5 -5t4.5 -12q-2 -105 -59 -228q-29 -55 -102 -112h64v13q0 18 15 18l101 8q7 0 12 -5.5t5 -13.5v-20h32q17 0 17 -18v-100q0 -7 -5 -11.5t-12 -4.5h-32v-116q0 -16 -15 -16h-101 q-17 0 -17 16v116h-221q-15 0 -15 16z" />
<glyph unicode="&#xbd;" horiz-adv-x="1296" d="M87 1180v77q0 21 17 26q56 17 113 79l14 18q8 8 19 8h108q9 0 15.5 -6t6.5 -14v-566q0 -9 -6.5 -16t-15.5 -7h-117q-24 0 -24 23v368l-104 -7q-10 -2 -18 2.5t-8 14.5zM194 12q-7 12 2 30l689 1322q13 24 40 24h87q21 0 28 -11.5t-2 -29.5l-689 -1323q-13 -24 -40 -24 h-87q-21 0 -28 12zM771 521q43 60 106 87.5t127 21t115 -44.5q65 -45 75 -136t-38 -157l-109 -148h147q16 0 16 -17v-108q0 -8 -4.5 -13.5t-11.5 -5.5h-380q-8 0 -13.5 6t-5.5 13v21l83 104l120 153q3 5 18 25.5t22 30.5t14 27t7 30q0 33 -25 56t-59 23q-30 0 -54.5 -15.5 t-56.5 -48.5q-12 -15 -24 0l-68 71q-11 11 -1 25z" />
<glyph unicode="&#xbe;" horiz-adv-x="1220" d="M75 864q-10 13 0 23l64 68q10 10 22 -2q17 -18 37 -33t45 -27t50.5 -10t46.5 20q25 22 28 49.5t-12 46t-40 28t-56 -4.5q-9 -9 -20 4l-54 66q-9 11 0 22l114 141h-189q-7 0 -12 4.5t-5 9.5v100q0 8 5 13.5t12 5.5h354q17 0 17 -17v-99q0 -5 -3 -8l-116 -129 q45 -10 79 -44t48.5 -77t8.5 -91.5t-36 -85.5q-81 -87 -192.5 -80t-195.5 107zM208 12q-7 12 2 30l689 1322q13 24 40 24h87q21 0 28 -11.5t-2 -29.5l-689 -1323q-13 -24 -40 -24h-87q-21 0 -28 12zM731 246q0 9 7 16q115 90 165 217q24 64 24 127q0 17 17 17h106 q7 0 11.5 -5t4.5 -12q-2 -105 -59 -228q-29 -53 -103 -112h64v13q0 7 4.5 12.5t11.5 5.5l101 8q7 0 12 -5.5t5 -13.5v-20h31q7 0 12.5 -5t5.5 -13v-100q0 -7 -5.5 -11.5t-12.5 -4.5h-31v-116q0 -16 -16 -16h-100q-18 0 -18 16v116h-220q-16 0 -16 16z" />
<glyph unicode="&#xbf;" horiz-adv-x="808" d="M32 -304q-16 74 5 152.5t79 135.5q27 26 59.5 57t44.5 40.5t27.5 30t18.5 25.5t7.5 28t4.5 37v53q0 15 10 26t24 11h224q16 0 26.5 -10.5t10.5 -26.5l3 -161q0 -27 -34 -65t-75 -71t-75.5 -72t-35.5 -67q-1 -48 29.5 -73t72.5 -25q25 0 49 11.5t38 23.5t49 43q25 22 43 0 l135 -148q21 -21 2 -43q-113 -130 -262 -167.5t-297 24.5q-71 29 -119 93t-64 138zM226 651q0 83 60 143t143 60q84 0 145 -60t61 -143t-61.5 -145t-144.5 -62t-143 61.5t-60 145.5z" />
<glyph unicode="&#xc0;" horiz-adv-x="1516" d="M74 11.5q-7 11.5 1 28.5l649 1338q10 17 28 17h13q18 0 28 -17l649 -1338q9 -17 1.5 -28.5t-25.5 -11.5h-285q-25 0 -36 23l-71 154h-535l-71 -154q-10 -23 -36 -23h-285q-18 0 -25 11.5zM491 1647.5q-4 14.5 7 34.5l125 206q9 14 25.5 14.5t28.5 -10.5l337 -224 q8 -6 11.5 -17.5t-3.5 -24.5l-85 -142q-11 -24 -50 -10l-378 152q-14 7 -18 21.5zM630 476h257l-129 277z" />
<glyph unicode="&#xc1;" horiz-adv-x="1516" d="M74 11.5q-7 11.5 1 28.5l649 1338q10 17 28 17h13q18 0 28 -17l649 -1338q9 -17 1.5 -28.5t-25.5 -11.5h-285q-25 0 -36 23l-71 154h-535l-71 -154q-10 -23 -36 -23h-285q-18 0 -25 11.5zM493 1667q3 11 12 17l337 223q12 11 28.5 11t25.5 -14l125 -207q11 -20 7 -34 t-18 -21l-378 -153q-38 -17 -51 11l-85 142q-6 14 -3 25zM630 476h257l-129 277z" />
<glyph unicode="&#xc2;" horiz-adv-x="1516" d="M74 11.5q-7 11.5 1 28.5l649 1338q10 17 28 17h13q18 0 28 -17l649 -1338q9 -17 1.5 -28.5t-25.5 -11.5h-285q-25 0 -36 23l-71 154h-535l-71 -154q-10 -23 -36 -23h-285q-18 0 -25 11.5zM387 1515v189q0 22 26 35l323 179q27 15 48 0l325 -179q26 -13 26 -35v-189 q0 -58 -69 -31l-306 121l-305 -121q-30 -13 -49 -5t-19 36zM630 476h257l-129 277z" />
<glyph unicode="&#xc3;" horiz-adv-x="1516" d="M74 11.5q-7 11.5 1 28.5l649 1338q10 17 28 17h13q18 0 28 -17l649 -1338q9 -17 1.5 -28.5t-25.5 -11.5h-285q-25 0 -36 23l-71 154h-535l-71 -154q-10 -23 -36 -23h-285q-18 0 -25 11.5zM358.5 1669.5q0.5 15.5 9.5 27.5l12 16q11 16 23 31.5t35 36t47.5 36t60 26.5 t72.5 11q42 0 81 -14.5t64 -32.5t59 -32.5t67 -14.5q31 0 59.5 11t38.5 18t32 25q36 33 61 1l86 -131q8 -13 6.5 -28t-11.5 -25q-15 -17 -21 -23.5t-34 -30.5t-52 -37t-64.5 -25t-83.5 -12q-53 0 -94 14t-62 30.5t-54.5 30.5t-74.5 14q-28 0 -52 -10.5t-35 -21t-27 -29.5 q-11 -12 -23.5 -11t-21.5 13l-96 112q-8 9 -7.5 24.5zM630 476h257l-129 277z" />
<glyph unicode="&#xc4;" horiz-adv-x="1516" d="M74 11.5q-7 11.5 1 28.5l649 1338q10 17 28 17h13q18 0 28 -17l649 -1338q9 -17 1.5 -28.5t-25.5 -11.5h-285q-25 0 -36 23l-71 154h-535l-71 -154q-10 -23 -36 -23h-285q-18 0 -25 11.5zM333 1708q0 70 49 119t120 49t120.5 -49t49.5 -119q0 -68 -50 -119t-120 -51 t-119.5 51t-49.5 119zM630 476h257l-129 277zM849 1708q0 71 48.5 119.5t119.5 48.5q70 0 121 -49t51 -119q0 -68 -51.5 -119t-120.5 -51q-70 0 -119 51t-49 119z" />
<glyph unicode="&#xc5;" horiz-adv-x="1516" d="M74 11.5q-7 11.5 1 28.5l649 1338q10 17 28 17h13q18 0 28 -17l649 -1338q9 -17 1.5 -28.5t-25.5 -11.5h-285q-25 0 -36 23l-71 154h-535l-71 -154q-10 -23 -36 -23h-285q-18 0 -25 11.5zM543 1666q0 90 64 153.5t153 63.5t153 -63.5t64 -153.5q0 -88 -64.5 -152.5 t-152.5 -64.5t-152.5 64.5t-64.5 152.5zM630 476h257l-129 277zM696 1666q0 -25 19 -43t45 -18q25 0 44.5 18.5t19.5 42.5q0 26 -19.5 45t-44.5 19q-26 0 -45 -19t-19 -45z" />
<glyph unicode="&#xc6;" horiz-adv-x="2034" d="M74 11.5q-8 11.5 2 28.5l811 1317q18 31 38 31h960q14 0 25 -10t11 -24v-235q0 -16 -10 -26t-26 -10h-552v-253h293q14 0 25.5 -10.5t11.5 -24.5v-234q0 -16 -10.5 -26.5t-26.5 -10.5h-291v-219h550q14 0 25 -10t11 -24v-235q0 -16 -10 -26t-26 -10h-854q-16 0 -26.5 10 t-10.5 26v122h-444l-83 -135q-14 -23 -38 -23h-328q-19 0 -27 11.5zM755 486h239v385z" />
<glyph unicode="&#xc7;" horiz-adv-x="1385" d="M78 694q0 144 56 275t151 225.5t227 150.5t278 56q144 0 276.5 -57.5t228.5 -159.5q24 -24 -2 -49l-213 -179q-25 -21 -49 0q-61 60 -117 88.5t-135 28.5q-140 0 -248.5 -114.5t-108.5 -262.5q0 -150 109 -265t250 -115q77 0 132 27t116 84q23 23 49 0l212 -175 q27 -25 3 -49q-168 -176 -406 -208l-54 -115q73 -21 120.5 -81t47.5 -136q0 -92 -69.5 -159.5t-164.5 -67.5q-102 0 -168 78q-12 15 3 30l80 78q13 13 31 0q32 -18 52 -18q28 0 45.5 17t17.5 42q0 24 -17.5 41.5t-45.5 17.5q-29 0 -57 -26q-11 -11 -24 -1l-92 76 q-10 10 -4 24l2 4l97 196q-129 18 -241.5 80t-193.5 153.5t-127.5 212.5t-46.5 253z" />
<glyph unicode="&#xc8;" horiz-adv-x="1169" d="M130 36v1318q0 14 10 24t25 10h856q14 0 25 -10t11 -24v-235q0 -16 -10 -26t-26 -10h-554v-253h295q14 0 25 -10.5t11 -24.5v-234q0 -16 -10 -26.5t-26 -10.5h-295v-219h554q14 0 25 -10t11 -24v-235q0 -16 -10 -26t-26 -10h-854q-16 0 -26.5 10t-10.5 26zM324 1611 q-4 14 7 34l125 207q9 14 25.5 14t28.5 -11l337 -224q23 -16 9 -41l-85 -143q-11 -24 -51 -10l-378 153q-14 7 -18 21z" />
<glyph unicode="&#xc9;" horiz-adv-x="1169" d="M130 36v1318q0 14 10 24t25 10h856q14 0 25 -10t11 -24v-235q0 -16 -10 -26t-26 -10h-554v-253h295q14 0 25 -10.5t11 -24.5v-234q0 -16 -10 -26.5t-26 -10.5h-295v-219h554q14 0 25 -10t11 -24v-235q0 -16 -10 -26t-26 -10h-854q-16 0 -26.5 10t-10.5 26zM326.5 1629.5 q3.5 11.5 11.5 17.5l337 224q12 11 28.5 10.5t25.5 -14.5l125 -206q11 -20 7 -34.5t-18 -21.5l-378 -152q-37 -17 -50 10l-85 142q-7 13 -3.5 24.5z" />
<glyph unicode="&#xca;" horiz-adv-x="1169" d="M130 36v1318q0 14 10 24t25 10h856q14 0 25 -10t11 -24v-235q0 -16 -10 -26t-26 -10h-554v-253h295q14 0 25 -10.5t11 -24.5v-234q0 -16 -10 -26.5t-26 -10.5h-295v-219h554q14 0 25 -10t11 -24v-235q0 -16 -10 -26t-26 -10h-854q-16 0 -26.5 10t-10.5 26zM219 1479v189 q0 22 26 35l323 178q27 15 48 0l325 -178q26 -13 26 -35v-189q0 -28 -19 -36.5t-51 4.5l-305 122l-306 -122q-30 -13 -48.5 -4.5t-18.5 36.5z" />
<glyph unicode="&#xcb;" horiz-adv-x="1169" d="M130 36v1318q0 14 10 24t25 10h856q14 0 25 -10t11 -24v-235q0 -16 -10 -26t-26 -10h-554v-253h295q14 0 25 -10.5t11 -24.5v-234q0 -16 -10 -26.5t-26 -10.5h-295v-219h554q14 0 25 -10t11 -24v-235q0 -16 -10 -26t-26 -10h-854q-16 0 -26.5 10t-10.5 26zM165 1671 q0 71 49 120t119 49q71 0 120.5 -49.5t49.5 -119.5q0 -68 -50 -119t-120 -51t-119 51t-49 119zM680 1671q0 71 49 120t120 49q70 0 121 -49.5t51 -119.5q0 -68 -51.5 -119t-120.5 -51q-70 0 -119.5 51t-49.5 119z" />
<glyph unicode="&#xcc;" horiz-adv-x="612" d="M39.5 1614.5q3.5 -14.5 17.5 -21.5l379 -152q39 -14 50 10l85 142q6 14 3 25t-12 17l-336 224q-12 11 -28.5 10.5t-25.5 -14.5l-125 -206q-11 -20 -7.5 -34.5zM139 36q0 -16 10 -26t26 -10h264q14 0 24.5 11t10.5 25v1318q0 14 -11 24t-26 10h-263q-16 0 -25.5 -10 t-9.5 -24v-1318z" />
<glyph unicode="&#xcd;" horiz-adv-x="612" d="M44 1634q-3 -11 3 -25l85 -142q13 -28 50 -11l379 153q33 18 10 55l-125 207q-9 14 -25.5 14t-28.5 -11l-336 -223q-9 -6 -12 -17zM139 36q0 -16 10 -26t26 -10h264q14 0 24.5 11t10.5 25v1318q0 14 -11 24t-26 10h-263q-16 0 -25.5 -10t-9.5 -24v-1318z" />
<glyph unicode="&#xce;" horiz-adv-x="612" d="M-64 1482q0 -28 18.5 -36t48.5 5l306 121l305 -121q32 -13 51 -5t19 36v189q0 22 -26 35l-325 179q-21 15 -48 0l-323 -179q-26 -13 -26 -35v-189zM139 36q0 -16 10 -26t26 -10h264q14 0 24.5 11t10.5 25v1318q0 14 -11 24t-26 10h-263q-16 0 -25.5 -10t-9.5 -24v-1318z " />
<glyph unicode="&#xcf;" horiz-adv-x="612" d="M-118 1675q0 71 49 119.5t119 48.5q71 0 120.5 -49t49.5 -119q0 -68 -50 -119t-120 -51t-119 51t-49 119zM139 36q0 -16 10 -26t26 -10h264q14 0 24.5 11t10.5 25v1318q0 14 -11 24t-26 10h-263q-16 0 -25.5 -10t-9.5 -24v-1318zM397 1675q0 71 49 119.5t120 48.5 q70 0 121 -49t51 -119q0 -68 -51.5 -119t-120.5 -51q-70 0 -119.5 51t-49.5 119z" />
<glyph unicode="&#xd0;" horiz-adv-x="1430" d="M35 576v235q0 14 10 25t24 11h52v507q0 14 9.5 24t25.5 10h465q131 0 247.5 -40.5t200 -109t145 -157t91.5 -186t30 -194.5q0 -111 -30.5 -215t-91.5 -192t-145.5 -154t-199.5 -103t-247 -37h-463q-16 0 -26.5 10t-10.5 26v506h-52q-15 0 -24.5 9.5t-9.5 24.5zM465 335 h156q114 0 200 55.5t127 137.5t41 173q0 147 -99 250t-269 103h-156v-207h172q14 0 25 -10.5t11 -24.5v-234q0 -16 -10 -26t-26 -10h-172v-207z" />
<glyph unicode="&#xd1;" horiz-adv-x="1475" d="M130 36v1318q0 14 10.5 24t24.5 10h163q26 0 50 -27l630 -721v712q0 14 10.5 24.5t24.5 10.5l266 1q15 0 25.5 -10.5t10.5 -25.5v-1317q0 -14 -10.5 -24.5t-24.5 -10.5h-92q-51 0 -94.5 27t-90.5 79l-568 639v-709q0 -14 -10.5 -25t-24.5 -11h-263q-16 0 -26.5 10 t-10.5 26zM329 1633.5q0 -15.5 8 -24.5l95 -113q9 -12 21.5 -13t23.5 11q16 19 27.5 29.5t35.5 21t52 10.5q34 0 61 -9t47.5 -22t42 -26t55.5 -22t78 -9q144 0 256 128q10 10 11.5 24.5t-6.5 27.5l-87 132q-24 32 -61 -2q-46 -37 -78 -47q-24 -7 -52 -7q-33 0 -67 14.5 t-59 32.5t-64 32.5t-81 14.5q-37 0 -72.5 -11t-60 -26t-47.5 -36t-35 -36t-23 -31l-12 -16q-9 -12 -9 -27.5z" />
<glyph unicode="&#xd2;" horiz-adv-x="1624" d="M104 694q0 -144 56 -275t151 -225.5t226.5 -150t276.5 -55.5q192 0 354.5 94t257 256.5t94.5 355.5q0 144 -56 275t-150 225.5t-225 150.5t-275 56q-145 0 -276.5 -56t-226.5 -150.5t-151 -225.5t-56 -275zM448 696q0 98 49.5 185.5t134 139.5t180.5 52q148 0 256.5 -113 t108.5 -264q0 -99 -49.5 -186.5t-134 -140.5t-181.5 -53q-146 0 -255 114.5t-109 265.5zM554 1659q-23 -37 10 -55l378 -153q40 -14 51 10l85 143q14 25 -9 41l-337 224q-12 11 -28 11t-25 -14z" />
<glyph unicode="&#xd3;" horiz-adv-x="1624" d="M104 694q0 -144 56 -275t151 -225.5t226.5 -150t276.5 -55.5q192 0 354.5 94t257 256.5t94.5 355.5q0 144 -56 275t-150 225.5t-225 150.5t-275 56q-145 0 -276.5 -56t-226.5 -150.5t-151 -225.5t-56 -275zM448 696q0 98 49.5 185.5t134 139.5t180.5 52q148 0 256.5 -113 t108.5 -264q0 -99 -49.5 -186.5t-134 -140.5t-181.5 -53q-146 0 -255 114.5t-109 265.5zM549 1644q-3 -11 3 -25l85 -142q13 -27 50 -10l379 152q14 7 17.5 21.5t-7.5 34.5l-125 206q-9 14 -25.5 14.5t-28.5 -10.5l-336 -224q-9 -6 -12 -17z" />
<glyph unicode="&#xd4;" horiz-adv-x="1624" d="M104 694q0 -144 56 -275t151 -225.5t226.5 -150t276.5 -55.5q192 0 354.5 94t257 256.5t94.5 355.5q0 144 -56 275t-150 225.5t-225 150.5t-275 56q-145 0 -276.5 -56t-226.5 -150.5t-151 -225.5t-56 -275zM441 1493q0 -28 19 -36.5t49 4.5l305 122l305 -122 q32 -13 51 -4.5t19 36.5v189q0 22 -26 35l-325 178q-21 15 -48 0l-323 -178q-26 -13 -26 -35v-189zM448 696q0 98 49.5 185.5t134 139.5t180.5 52q148 0 256.5 -113t108.5 -264q0 -99 -49.5 -186.5t-134 -140.5t-181.5 -53q-146 0 -255 114.5t-109 265.5z" />
<glyph unicode="&#xd5;" horiz-adv-x="1624" d="M104 694q0 -144 56 -275t151 -225.5t226.5 -150t276.5 -55.5q192 0 354.5 94t257 256.5t94.5 355.5q0 144 -56 275t-150 225.5t-225 150.5t-275 56q-145 0 -276.5 -56t-226.5 -150.5t-151 -225.5t-56 -275zM412.5 1647.5q-0.5 -15.5 7.5 -24.5l95 -113q9 -12 22 -13 t24 11q16 19 27 29.5t35 21t52 10.5q41 0 74.5 -14t54.5 -30.5t62 -30.5t94 -14q43 0 83.5 12.5t64.5 25t52.5 37t33.5 30.5t21 24q10 10 11.5 24.5t-6.5 27.5l-87 132q-24 31 -60 -2q-21 -17 -32 -24.5t-39.5 -18.5t-59.5 -11q-41 0 -83 23.5t-88 47t-99 23.5 q-37 0 -72.5 -11t-60 -26t-47.5 -36t-35 -36t-23 -31l-12 -16q-9 -12 -9.5 -27.5zM448 696q0 98 49.5 185.5t134 139.5t180.5 52q148 0 256.5 -113t108.5 -264q0 -99 -49.5 -186.5t-134 -140.5t-181.5 -53q-146 0 -255 114.5t-109 265.5z" />
<glyph unicode="&#xd6;" horiz-adv-x="1624" d="M104 694q0 -144 56 -275t151 -225.5t226.5 -150t276.5 -55.5q192 0 354.5 94t257 256.5t94.5 355.5q0 144 -56 275t-150 225.5t-225 150.5t-275 56q-145 0 -276.5 -56t-226.5 -150.5t-151 -225.5t-56 -275zM387 1685q0 71 49 120t119 49q71 0 120.5 -49.5t49.5 -119.5 q0 -68 -50 -119t-120 -51t-119 51t-49 119zM448 696q0 98 49.5 185.5t134 139.5t180.5 52q148 0 256.5 -113t108.5 -264q0 -99 -49.5 -186.5t-134 -140.5t-181.5 -53q-146 0 -255 114.5t-109 265.5zM903 1685q0 71 48.5 120t119.5 49q70 0 121 -49.5t51 -119.5 q0 -68 -51.5 -119t-120.5 -51q-70 0 -119 51t-49 119z" />
<glyph unicode="&#xd7;" horiz-adv-x="1072" d="M104 449q0 16 12 28l203 203l-203 205q-12 12 -12 28t11 28l159 159q13 12 29 12t28 -12l205 -203l205 205q11 11 26 11.5t28 -11.5l160 -160q12 -12 12 -28t-11 -27l-204 -207l204 -204q11 -11 11.5 -26.5t-11.5 -27.5l-159 -162q-12 -12 -28.5 -12t-27.5 11l-205 206 l-205 -205q-12 -12 -27.5 -12t-27.5 11l-160 161q-12 13 -12 29z" />
<glyph unicode="&#xd8;" horiz-adv-x="1716" d="M104 154q0 14 11 25l142 142q-106 168 -106 373q0 144 56 275t151 225.5t226.5 150.5t276.5 56q199 0 371 -105l146 146q24 24 49 0l177 -175q10 -11 10 -25t-10 -25l-146 -146q109 -172 109 -377q0 -193 -94.5 -355.5t-257 -256.5t-354.5 -94q-207 0 -379 107l-142 -142 q-10 -11 -25 -11t-25 11l-175 177q-11 10 -11 24zM495 696q0 -58 19 -118l470 470q-63 25 -125 25q-148 0 -256 -113t-108 -264zM729 342q61 -26 130 -26q146 0 254.5 114.5t108.5 265.5q0 63 -21 120z" />
<glyph unicode="&#xd9;" horiz-adv-x="1371" d="M121 500q1 -107 38.5 -199.5t107.5 -162.5t177 -110t238 -40t239 40t179 110t110 163t40 199v854q0 14 -10.5 24t-24.5 10h-267q-16 0 -25.5 -10t-9.5 -24v-804q0 -104 -56.5 -172.5t-174.5 -68.5t-171 68t-53 173v804q0 14 -10.5 24t-24.5 10h-267q-16 0 -25.5 -10 t-9.5 -24v-854zM418 1613q4 -14 18 -21l378 -153q39 -14 50 10l85 143q6 13 3.5 24t-11.5 17l-337 224q-12 11 -28.5 11t-25.5 -14l-125 -207q-11 -20 -7 -34z" />
<glyph unicode="&#xda;" horiz-adv-x="1371" d="M121 500q1 -107 38.5 -199.5t107.5 -162.5t177 -110t238 -40t239 40t179 110t110 163t40 199v854q0 14 -10.5 24t-24.5 10h-267q-16 0 -25.5 -10t-9.5 -24v-804q0 -104 -56.5 -172.5t-174.5 -68.5t-171 68t-53 173v804q0 14 -10.5 24t-24.5 10h-267q-16 0 -25.5 -10 t-9.5 -24v-854zM422 1632q-3 -11 3 -25l85 -142q13 -28 51 -11l378 153q14 7 17.5 21.5t-7.5 34.5l-125 206q-9 14 -25 14.5t-28 -10.5l-337 -224q-9 -6 -12 -17z" />
<glyph unicode="&#xdb;" horiz-adv-x="1371" d="M121 500q1 -107 38.5 -199.5t107.5 -162.5t177 -110t238 -40t239 40t179 110t110 163t40 199v854q0 14 -10.5 24t-24.5 10h-267q-16 0 -25.5 -10t-9.5 -24v-804q0 -104 -56.5 -172.5t-174.5 -68.5t-171 68t-53 173v804q0 14 -10.5 24t-24.5 10h-267q-16 0 -25.5 -10 t-9.5 -24v-854zM314 1480q0 -28 19 -36t49 5l305 122l306 -122q69 -27 69 31v190q0 21 -26 34l-324 179q-21 16 -49 0l-323 -179q-26 -13 -26 -34v-190z" />
<glyph unicode="&#xdc;" horiz-adv-x="1371" d="M121 500q1 -107 38.5 -199.5t107.5 -162.5t177 -110t238 -40t239 40t179 110t110 163t40 199v854q0 14 -10.5 24t-24.5 10h-267q-16 0 -25.5 -10t-9.5 -24v-804q0 -104 -56.5 -172.5t-174.5 -68.5t-171 68t-53 173v804q0 14 -10.5 24t-24.5 10h-267q-16 0 -25.5 -10 t-9.5 -24v-854zM260 1673q0 70 49 119t120 49t120.5 -49t49.5 -119q0 -68 -50 -119t-120 -51t-119.5 51t-49.5 119zM776 1673q0 71 48.5 119.5t119.5 48.5q70 0 121 -49t51 -119q0 -68 -51.5 -119t-120.5 -51q-70 0 -119 51t-49 119z" />
<glyph unicode="&#xdd;" horiz-adv-x="1358" d="M29 1377q5 11 21 11h320q5 0 9 -1.5t6.5 -3.5t6 -6t5.5 -7t5.5 -9t5.5 -9l272 -413l273 413q19 30 30 34q5 2 10 2h317q16 0 21.5 -11t-3.5 -25l-478 -727v-589q0 -17 -9 -26.5t-24 -9.5h-213q-42 0 -66 26t-24 68v526l-481 732q-9 14 -4 25zM418 1611l85 -143 q13 -28 51 -10l378 153q33 18 10 55l-125 207q-9 14 -25 14t-28 -11l-337 -224q-23 -16 -9 -41z" />
<glyph unicode="&#xde;" horiz-adv-x="1173" d="M121 36v1318q0 14 9.5 24t25.5 10h267q15 0 26 -10t11 -24v-184h191q95 0 183.5 -43t150.5 -110t99 -151t37 -165q0 -119 -62 -229.5t-171.5 -181t-236.5 -70.5h-191v-184q0 -14 -10.5 -25t-24.5 -11h-267q-16 0 -26.5 10t-10.5 26zM460 542h200q42 0 73 22.5t44.5 55.5 t14 72.5t-13.5 72.5t-45 55.5t-73 22.5h-200v-301z" />
<glyph unicode="&#xdf;" horiz-adv-x="1147" d="M87 36l2 884q0 205 129.5 339.5t329.5 134.5q121 0 227 -53t169.5 -144.5t63.5 -198.5q0 -88 -33.5 -150t-131.5 -114q105 -44 165.5 -135t60.5 -205q0 -162 -126 -278t-294 -116h-54q-41 0 -41 35v201q0 36 41 36q75 2 114 35t39 111q0 73 -47 104.5t-147 31.5v208 q0 38 24 42l54 10q27 6 44 18t24.5 32t9.5 39.5t2 51.5q0 58 -45.5 87t-107.5 29q-156 0 -156 -170l-2 -865q0 -14 -10.5 -25t-24.5 -11h-243q-16 0 -26 10t-10 26z" />
<glyph unicode="&#xe0;" horiz-adv-x="978" d="M78 231q0 -111 75 -175.5t211 -64.5q83 0 143 18t109 64q7 -33 23 -53t38 -20h170q19 0 28 12t7 30q-28 219 -12 539q3 73 -24 129.5t-75.5 90.5t-108.5 51.5t-127 17.5q-193 0 -382 -89q-18 -9 -25 -24.5t0 -31.5l56 -140q7 -16 20.5 -22t29.5 1q153 63 224 63 q97 0 97 -70q-251 -41 -364 -120.5t-113 -205.5zM232.5 1163.5q3.5 -14.5 17.5 -21.5l378 -153q39 -14 51 11l85 142q6 14 3 25t-12 17l-337 224q-12 11 -28.5 10.5t-25.5 -14.5l-124 -206q-11 -20 -7.5 -34.5zM373 250q0 31 56.5 55t124.5 35v-80q-49 -52 -125 -52 q-56 0 -56 42z" />
<glyph unicode="&#xe1;" horiz-adv-x="978" d="M78 231q0 -111 75 -175.5t211 -64.5q83 0 143 18t109 64q7 -33 23 -53t38 -20h170q19 0 28 12t7 30q-28 219 -12 539q3 73 -24 129.5t-75.5 90.5t-108.5 51.5t-127 17.5q-193 0 -382 -89q-18 -9 -25 -24.5t0 -31.5l56 -140q7 -16 20.5 -22t29.5 1q153 63 224 63 q97 0 97 -70q-251 -41 -364 -120.5t-113 -205.5zM236.5 1182q-2.5 -11 3.5 -24l85 -143q13 -27 50 -10l378 153q14 7 18 21t-7 34l-125 207q-9 14 -25.5 14t-28.5 -11l-337 -224q-9 -6 -11.5 -17zM373 250q0 31 56.5 55t124.5 35v-80q-49 -52 -125 -52q-56 0 -56 42z" />
<glyph unicode="&#xe2;" horiz-adv-x="978" d="M78 231q0 -111 75 -175.5t211 -64.5q83 0 143 18t109 64q7 -33 23 -53t38 -20h170q19 0 28 12t7 30q-28 219 -12 539q3 73 -24 129.5t-75.5 90.5t-108.5 51.5t-127 17.5q-193 0 -382 -89q-18 -9 -25 -24.5t0 -31.5l56 -140q7 -16 20.5 -22t29.5 1q153 63 224 63 q97 0 97 -70q-251 -41 -364 -120.5t-113 -205.5zM128 1031q0 -28 19 -36t49 5l306 121l305 -121q69 -27 69 31v189q0 22 -26 35l-324 179q-21 16 -49 0l-323 -179q-26 -13 -26 -35v-189zM373 250q0 31 56.5 55t124.5 35v-80q-49 -52 -125 -52q-56 0 -56 42z" />
<glyph unicode="&#xe3;" horiz-adv-x="978" d="M78 231q0 -111 75 -175.5t211 -64.5q83 0 143 18t109 64q7 -33 23 -53t38 -20h170q19 0 28 12t7 30q-28 219 -12 539q3 73 -24 129.5t-75.5 90.5t-108.5 51.5t-127 17.5q-193 0 -382 -89q-18 -9 -25 -24.5t0 -31.5l56 -140q7 -16 20.5 -22t29.5 1q153 63 224 63 q97 0 97 -70q-251 -41 -364 -120.5t-113 -205.5zM100 1185.5q0 -15.5 8 -24.5l95 -113q9 -12 21.5 -12.5t23.5 11.5q16 18 27.5 29t35.5 21t52 10q34 0 61 -9t47.5 -22t42 -26t55.5 -22t78 -9q144 0 256 128q10 10 11.5 24.5t-6.5 27.5l-87 132q-24 32 -61 -2 q-21 -17 -31.5 -24.5t-39 -18t-59.5 -10.5q-41 0 -83 23t-88.5 46.5t-99.5 23.5q-37 0 -72.5 -11t-60 -26t-47.5 -36t-35 -36t-24 -31l-11 -16q-9 -12 -9 -27.5zM373 250q0 31 56.5 55t124.5 35v-80q-49 -52 -125 -52q-56 0 -56 42z" />
<glyph unicode="&#xe4;" horiz-adv-x="978" d="M75 1224q0 70 48.5 119t119.5 49t120.5 -49t49.5 -119q0 -68 -50 -119t-120 -51t-119 51t-49 119zM78 231q0 -111 75 -175.5t211 -64.5q83 0 143 18t109 64q7 -33 23 -53t38 -20h170q19 0 28 12t7 30q-28 219 -12 539q3 73 -24 129.5t-75.5 90.5t-108.5 51.5t-127 17.5 q-193 0 -382 -89q-18 -9 -25 -24.5t0 -31.5l56 -140q7 -16 20.5 -22t29.5 1q153 63 224 63q97 0 97 -70q-251 -41 -364 -120.5t-113 -205.5zM373 250q0 31 56.5 55t124.5 35v-80q-49 -52 -125 -52q-56 0 -56 42zM590 1224q0 71 48.5 119.5t119.5 48.5q70 0 121 -49t51 -119 q0 -68 -51.5 -119t-120.5 -51q-70 0 -119 51t-49 119z" />
<glyph unicode="&#xe5;" horiz-adv-x="978" d="M78 231q0 -111 75 -175.5t211 -64.5q83 0 143 18t109 64q7 -33 23 -53t38 -20h170q19 0 28 12t7 30q-28 219 -12 539q3 73 -24 129.5t-75.5 90.5t-108.5 51.5t-127 17.5q-193 0 -382 -89q-18 -9 -25 -24.5t0 -31.5l56 -140q7 -16 20.5 -22t29.5 1q153 63 224 63 q97 0 97 -70q-251 -41 -364 -120.5t-113 -205.5zM285 1182q0 90 64 153.5t153 63.5t153 -63.5t64 -153.5q0 -88 -64.5 -152.5t-152.5 -64.5t-152.5 64.5t-64.5 152.5zM373 250q0 31 56.5 55t124.5 35v-80q-49 -52 -125 -52q-56 0 -56 42zM437 1182q0 -25 19.5 -43t45.5 -18 q25 0 44.5 18.5t19.5 42.5q0 26 -19.5 45t-44.5 19q-26 0 -45.5 -19t-19.5 -45z" />
<glyph unicode="&#xe6;" horiz-adv-x="1489" d="M78 231q0 126 113 205.5t364 120.5q0 70 -97 70q-71 0 -224 -63q-16 -7 -29.5 -1t-20.5 22l-56 140q-7 16 0 31.5t25 24.5q189 89 382 89q144 0 234 -68q106 69 232 69t224 -60t147 -152t49 -196q0 -61 -38 -98t-106 -37h-413q12 -37 63.5 -62.5t113.5 -25.5 q115 0 209 38q39 17 59 -19l45 -75q21 -32 -5 -63q-99 -131 -325 -131q-75 0 -149 22q-9 -12 -28 -12h-170q-22 0 -38 20t-23 53q-49 -46 -109 -64t-143 -18q-136 0 -211 64.5t-75 175.5zM373 250q0 -42 56 -42q76 0 125 52v80q-68 -11 -124.5 -35t-56.5 -55zM868 533h272 q-4 27 -43 52.5t-96 25.5q-48 0 -83 -18.5t-50 -42.5v-17z" />
<glyph unicode="&#xe7;" horiz-adv-x="911" d="M69 427q0 129 61 231.5t164 157.5t228 55q172 0 306 -119q26 -25 3 -53l-125 -152q-20 -27 -59 -4q-55 33 -111 33q-61 0 -104 -44t-43 -105q0 -58 43 -102t104 -44q52 0 115 37q16 12 29.5 11.5t25.5 -18.5l117 -165q19 -32 -6 -52q-113 -90 -237 -103l-52 -111 q73 -21 120.5 -81t47.5 -136q0 -92 -69.5 -159.5t-164.5 -67.5q-103 0 -169 78q-11 15 4 30l80 78q13 13 31 0q32 -18 52 -18q28 0 45 17t17 42q0 24 -17 41.5t-45 17.5q-29 0 -57 -26q-4 -4 -12 -4.5t-13 3.5l-92 76q-9 9 -3 24l2 4l99 201h27q-151 35 -246.5 150.5 t-95.5 276.5z" />
<glyph unicode="&#xe8;" horiz-adv-x="987" d="M68 430q0 -191 131.5 -315.5t322.5 -124.5q227 0 323 131q27 33 7 63l-45 75q-21 36 -61 19q-91 -38 -206 -38q-63 0 -114.5 25.5t-64.5 62.5h413q68 0 106 37t38 98q0 77 -29.5 150t-81.5 130.5t-132.5 92.5t-174.5 35q-120 0 -219.5 -60.5t-156 -161.5t-56.5 -219z M232.5 1156.5q3.5 -14.5 17.5 -21.5l378 -153q39 -14 51 11l85 142q6 14 3 25t-12 17l-337 224q-12 11 -28.5 10.5t-25.5 -14.5l-124 -206q-11 -20 -7.5 -34.5zM358 533q8 28 45.5 53t94.5 25q58 0 96.5 -25t44.5 -53h-281z" />
<glyph unicode="&#xe9;" horiz-adv-x="987" d="M68 430q0 -191 131.5 -315.5t322.5 -124.5q227 0 323 131q27 33 7 63l-45 75q-21 36 -61 19q-91 -38 -206 -38q-63 0 -114.5 25.5t-64.5 62.5h413q68 0 106 37t38 98q0 77 -29.5 150t-81.5 130.5t-132.5 92.5t-174.5 35q-120 0 -219.5 -60.5t-156 -161.5t-56.5 -219z M234.5 1175q-2.5 -11 3.5 -24l85 -143q13 -27 50 -10l379 153q33 18 10 55l-125 207q-9 14 -25.5 14t-28.5 -11l-337 -224q-9 -6 -11.5 -17zM358 533q8 28 45.5 53t94.5 25q58 0 96.5 -25t44.5 -53h-281z" />
<glyph unicode="&#xea;" horiz-adv-x="987" d="M68 430q0 -191 131.5 -315.5t322.5 -124.5q227 0 323 131q27 33 7 63l-45 75q-21 36 -61 19q-91 -38 -206 -38q-63 0 -114.5 25.5t-64.5 62.5h413q68 0 106 37t38 98q0 77 -29.5 150t-81.5 130.5t-132.5 92.5t-174.5 35q-120 0 -219.5 -60.5t-156 -161.5t-56.5 -219z M128 1024q0 -28 19 -36t49 5l306 121l305 -121q69 -27 69 31v189q0 22 -26 35l-324 179q-21 16 -49 0l-323 -179q-26 -13 -26 -35v-189zM358 533q8 28 45.5 53t94.5 25q58 0 96.5 -25t44.5 -53h-281z" />
<glyph unicode="&#xeb;" horiz-adv-x="987" d="M68 430q0 -191 131.5 -315.5t322.5 -124.5q227 0 323 131q27 33 7 63l-45 75q-21 36 -61 19q-91 -38 -206 -38q-63 0 -114.5 25.5t-64.5 62.5h413q68 0 106 37t38 98q0 77 -29.5 150t-81.5 130.5t-132.5 92.5t-174.5 35q-120 0 -219.5 -60.5t-156 -161.5t-56.5 -219z M75 1217q0 71 48.5 119.5t119.5 48.5t120.5 -49t49.5 -119q0 -68 -50 -119t-120 -51t-119 51t-49 119zM358 533q8 28 45.5 53t94.5 25q58 0 96.5 -25t44.5 -53h-281zM590 1217q0 71 48.5 119.5t119.5 48.5q70 0 121 -49t51 -119q0 -68 -51.5 -119t-120.5 -51q-70 0 -119 51 t-49 119z" />
<glyph unicode="&#xec;" horiz-adv-x="588" d="M27.5 1163.5q3.5 -14.5 17.5 -21.5l378 -153q39 -14 51 11l85 142q6 14 3 25t-12 17l-337 224q-12 11 -28 10.5t-25 -14.5l-125 -206q-11 -20 -7.5 -34.5zM130 94q0 -42 24 -68t66 -26h205q15 0 24 9.5t9 26.5v788q0 14 -10.5 24.5t-24.5 10.5h-258q-15 0 -25 -10 t-10 -25v-730z" />
<glyph unicode="&#xed;" horiz-adv-x="588" d="M33 1158l85 -143q13 -27 50 -10l379 153q33 18 10 55l-125 207q-9 14 -25.5 14t-28.5 -11l-336 -224q-23 -16 -9 -41zM130 94q0 -42 24 -68t66 -26h205q15 0 24 9.5t9 26.5v788q0 14 -10.5 24.5t-24.5 10.5h-258q-15 0 -25 -10t-10 -25v-730z" />
<glyph unicode="&#xee;" horiz-adv-x="588" d="M-78 1031q0 -28 19 -36t49 5l305 121l306 -121q69 -27 69 31v189q0 22 -26 35l-325 179q-21 15 -48 0l-323 -179q-26 -13 -26 -35v-189zM130 94q0 -42 24 -68t66 -26h205q15 0 24 9.5t9 26.5v788q0 14 -10.5 24.5t-24.5 10.5h-258q-15 0 -25 -10t-10 -25v-730z" />
<glyph unicode="&#xef;" horiz-adv-x="588" d="M-130 1224q0 70 49 119t119 49q71 0 120.5 -49t49.5 -119q0 -68 -50 -119t-120 -51t-119 51t-49 119zM130 94q0 -42 24 -68t66 -26h205q15 0 24 9.5t9 26.5v788q0 14 -10.5 24.5t-24.5 10.5h-258q-15 0 -25 -10t-10 -25v-730zM385 1224q0 71 49 119.5t120 48.5 q70 0 120.5 -49t50.5 -119q0 -68 -51 -119t-120 -51q-70 0 -119.5 51t-49.5 119z" />
<glyph unicode="&#xf0;" horiz-adv-x="1034" d="M69 420q0 177 128 297t310 120q53 0 111 -20q-21 71 -66 120l-109 -59q-32 -17 -49 14l-38 63q-18 31 15 48l40 23q-39 12 -100 15q-17 0 -26.5 10t-8.5 27l28 257q3 34 36 34q218 -9 391 -166l86 48q31 16 47 -12l40 -66q16 -30 -14 -48l-62 -35q69 -101 103 -236.5 t34 -277.5q0 -271 -128.5 -429.5t-331.5 -158.5q-118 0 -218.5 58t-159 157.5t-58.5 216.5zM396 415q0 -48 35 -84t81 -36q48 0 82 34t36 81q5 47 -32 86t-86 39q-46 0 -81 -36t-35 -84z" />
<glyph unicode="&#xf1;" horiz-adv-x="1089" d="M104 36v788q0 14 9.5 24.5t23.5 10.5h208q5 -45 42 -73q120 82 241 82q156 0 258 -96.5t102 -257.5v-351q0 -60 13 -118q4 -18 -2 -31.5t-20 -13.5h-231q-41 0 -64.5 26t-23.5 66v333q0 57 -29 88.5t-79 31.5q-69 0 -120 -45v-464q0 -14 -10.5 -25t-24.5 -11h-258 q-16 0 -25.5 10t-9.5 26zM131.5 1185.5q0.5 15.5 9.5 27.5l11 16q12 16 24 31t35 36t47.5 36t60 26t72.5 11q42 0 80.5 -14.5t63.5 -32t59 -32t67 -14.5q31 0 59.5 10.5t39 18t31.5 24.5q37 34 61 2l87 -132q8 -13 6.5 -27.5t-11.5 -24.5q-15 -17 -21 -23.5t-34 -30.5 t-52 -37t-64.5 -25t-83.5 -12q-44 0 -78 9t-56 22t-42.5 26t-47.5 22t-61 9q-28 0 -52 -10t-35.5 -21t-27.5 -29q-11 -12 -23.5 -11.5t-21.5 12.5l-95 113q-8 9 -7.5 24.5z" />
<glyph unicode="&#xf2;" d="M69 427q0 -121 63 -222.5t168.5 -159t228.5 -57.5q122 0 227.5 57.5t169 159t63.5 222.5q0 124 -63.5 227t-169 160t-227.5 57q-123 0 -228.5 -57t-168.5 -160t-63 -227zM260 1163.5q4 -14.5 18 -21.5l378 -153q38 -14 50 11l85 142q7 13 3.5 24.5t-11.5 17.5l-337 224 q-12 11 -28.5 10.5t-25.5 -14.5l-125 -206q-11 -20 -7 -34.5zM382 427q0 59 42 104t105 45t105.5 -45t42.5 -104q0 -57 -42.5 -101.5t-105.5 -44.5t-105 44.5t-42 101.5z" />
<glyph unicode="&#xf3;" d="M69 427q0 -121 63 -222.5t168.5 -159t228.5 -57.5q122 0 227.5 57.5t169 159t63.5 222.5q0 124 -63.5 227t-169 160t-227.5 57q-123 0 -228.5 -57t-168.5 -160t-63 -227zM267 1158l85 -143q13 -28 51 -10l378 153q33 18 10 55l-125 207q-9 14 -25 14t-28 -11l-337 -224 q-23 -16 -9 -41zM382 427q0 59 42 104t105 45t105.5 -45t42.5 -104q0 -57 -42.5 -101.5t-105.5 -44.5t-105 44.5t-42 101.5z" />
<glyph unicode="&#xf4;" d="M69 427q0 -121 63 -222.5t168.5 -159t228.5 -57.5q122 0 227.5 57.5t169 159t63.5 222.5q0 124 -63.5 227t-169 160t-227.5 57q-123 0 -228.5 -57t-168.5 -160t-63 -227zM156 1031q0 -28 19 -36t49 5l305 121l306 -121q69 -27 69 31v189q0 22 -26 35l-324 179 q-21 16 -49 0l-323 -179q-26 -13 -26 -35v-189zM382 427q0 59 42 104t105 45t105.5 -45t42.5 -104q0 -57 -42.5 -101.5t-105.5 -44.5t-105 44.5t-42 101.5z" />
<glyph unicode="&#xf5;" d="M69 427q0 -121 63 -222.5t168.5 -159t228.5 -57.5q122 0 227.5 57.5t169 159t63.5 222.5q0 124 -63.5 227t-169 160t-227.5 57q-123 0 -228.5 -57t-168.5 -160t-63 -227zM127.5 1185.5q-0.5 -15.5 7.5 -24.5l96 -113q9 -12 21.5 -12.5t23.5 11.5q16 18 27.5 29t35.5 21 t52 10q34 0 61 -9t47.5 -22t42 -26t55.5 -22t78 -9q43 0 83.5 12t64.5 25t52 37t34 30.5t21 23.5q10 10 11.5 24.5t-6.5 27.5l-86 132q-24 32 -61 -2q-21 -17 -31.5 -24.5t-39 -18t-59.5 -10.5q-41 0 -83 23t-88.5 46.5t-99.5 23.5q-37 0 -72.5 -11t-60 -26t-47.5 -36 t-35 -36t-24 -31l-11 -16q-9 -12 -9.5 -27.5zM382 427q0 59 42 104t105 45t105.5 -45t42.5 -104q0 -57 -42.5 -101.5t-105.5 -44.5t-105 44.5t-42 101.5z" />
<glyph unicode="&#xf6;" d="M69 427q0 -121 63 -222.5t168.5 -159t228.5 -57.5q122 0 227.5 57.5t169 159t63.5 222.5q0 124 -63.5 227t-169 160t-227.5 57q-123 0 -228.5 -57t-168.5 -160t-63 -227zM102 1224q0 70 49 119t120 49t120.5 -49t49.5 -119q0 -68 -50 -119t-120 -51t-119.5 51t-49.5 119z M382 427q0 59 42 104t105 45t105.5 -45t42.5 -104q0 -57 -42.5 -101.5t-105.5 -44.5t-105 44.5t-42 101.5zM618 1224q0 71 48.5 119.5t119.5 48.5q70 0 121 -49t51 -119q0 -68 -51.5 -119t-120.5 -51q-70 0 -119 51t-49 119z" />
<glyph unicode="&#xf7;" horiz-adv-x="1095" d="M87 552v186q0 16 10 26t26 10h851q14 0 24 -10t10 -25v-185q0 -15 -10 -26t-24 -11h-851q-14 0 -25 10.5t-11 24.5zM347 255q0 83 60.5 142t142.5 59t140 -59t58 -142q0 -81 -58.5 -140t-139.5 -59t-142 59t-61 140zM347 1033q0 83 60.5 142t142.5 59t140 -59t58 -142 q0 -81 -58.5 -140.5t-139.5 -59.5t-142 59.5t-61 140.5z" />
<glyph unicode="&#xf8;" horiz-adv-x="1157" d="M95 36q-16 16 0 32l117 116q-77 108 -77 243q0 124 63 227t168.5 160t228.5 57q131 0 238 -62l102 102q18 15 33 0l94 -94q15 -15 0 -33l-94 -93q87 -118 87 -264q0 -121 -63 -222.5t-168.5 -159t-228.5 -57.5q-140 0 -255 74l-120 -119q-16 -16 -31 0zM448 422l154 154 h-7q-63 0 -105 -45t-42 -104v-5zM562 285q20 -4 33 -4q63 0 105.5 44.5t42.5 101.5q0 11 -4 35z" />
<glyph unicode="&#xf9;" horiz-adv-x="1081" d="M89 821q-4 18 2 31.5t20 13.5h231q41 0 64.5 -26t23.5 -66v-337q0 -58 29 -88.5t81 -30.5q70 0 118 52v453q0 14 10.5 25t24.5 11h258q16 0 25.5 -10t9.5 -26v-788q0 -14 -9.5 -24.5t-23.5 -10.5h-212q-5 46 -38 73q-120 -83 -243 -83q-154 0 -256 97.5t-102 257.5v358 q0 60 -13 118zM253 1163.5q-4 14.5 7 34.5l125 206q9 14 25.5 14.5t28.5 -10.5l337 -224q8 -6 11.5 -17.5t-3.5 -24.5l-85 -142q-12 -25 -50 -11l-378 153q-14 7 -18 21.5z" />
<glyph unicode="&#xfa;" horiz-adv-x="1081" d="M89 821q-4 18 2 31.5t20 13.5h231q41 0 64.5 -26t23.5 -66v-337q0 -58 29 -88.5t81 -30.5q70 0 118 52v453q0 14 10.5 25t24.5 11h258q16 0 25.5 -10t9.5 -26v-788q0 -14 -9.5 -24.5t-23.5 -10.5h-212q-5 46 -38 73q-120 -83 -243 -83q-154 0 -256 97.5t-102 257.5v358 q0 60 -13 118zM255.5 1182q2.5 11 11.5 17l337 224q12 11 28.5 11t25.5 -14l125 -207q11 -20 7 -34t-18 -21l-378 -153q-37 -17 -50 10l-85 143q-6 13 -3.5 24z" />
<glyph unicode="&#xfb;" horiz-adv-x="1081" d="M89 821q-4 18 2 31.5t20 13.5h231q41 0 64.5 -26t23.5 -66v-337q0 -58 29 -88.5t81 -30.5q70 0 118 52v453q0 14 10.5 25t24.5 11h258q16 0 25.5 -10t9.5 -26v-788q0 -14 -9.5 -24.5t-23.5 -10.5h-212q-5 46 -38 73q-120 -83 -243 -83q-154 0 -256 97.5t-102 257.5v358 q0 60 -13 118zM149 1031v189q0 22 26 35l323 179q28 16 49 0l324 -179q26 -13 26 -35v-189q0 -58 -69 -31l-306 121l-305 -121q-30 -13 -49 -5t-19 36z" />
<glyph unicode="&#xfc;" horiz-adv-x="1081" d="M89 821q-4 18 2 31.5t20 13.5h231q41 0 64.5 -26t23.5 -66v-337q0 -58 29 -88.5t81 -30.5q70 0 118 52v453q0 14 10.5 25t24.5 11h258q16 0 25.5 -10t9.5 -26v-788q0 -14 -9.5 -24.5t-23.5 -10.5h-212q-5 46 -38 73q-120 -83 -243 -83q-154 0 -256 97.5t-102 257.5v358 q0 60 -13 118zM95 1224q0 70 49 119t120 49t120.5 -49t49.5 -119q0 -68 -50 -119t-120 -51t-119.5 51t-49.5 119zM611 1224q0 71 48.5 119.5t119.5 48.5q70 0 121 -49t51 -119q0 -68 -51.5 -119t-120.5 -51q-70 0 -119 51t-49 119z" />
<glyph unicode="&#xfd;" horiz-adv-x="1128" d="M47 847q8 12 28 12h269q26 0 40 -26l182 -366l173 366q11 26 42 26h271q20 0 28 -12t-2 -30l-333 -680q-225 -455 -414 -684q-12 -14 -30.5 -13.5t-36.5 13.5l-156 144q-33 29 1 72q209 246 297 479l-357 669q-10 18 -2 30zM309 1158l85 -143q13 -27 50 -10l379 153 q33 18 10 55l-125 207q-9 14 -25.5 14t-28.5 -11l-336 -224q-23 -16 -9 -41z" />
<glyph unicode="&#xfe;" horiz-adv-x="1124" d="M106 1342q-4 19 4 32.5t25 13.5h217q104 0 104 -102v-462q79 42 179 42q179 0 292.5 -122.5t113.5 -309.5q0 -182 -118 -314t-293 -132q-102 0 -174 47v-412q0 -57 -39 -95t-89 -38h-161q-17 0 -28 11t-11 29v1669q0 24 -2.5 47t-5.5 36.5t-8 33.5t-6 26zM456 316 q60 -33 118 -33q64 0 109.5 42.5t45.5 106.5q0 63 -44.5 102.5t-108.5 39.5q-60 0 -120 -32v-226z" />
<glyph unicode="&#xff;" horiz-adv-x="1128" d="M47 847q8 12 28 12h269q26 0 40 -26l182 -366l173 366q11 26 42 26h271q20 0 28 -12t-2 -30l-333 -680q-225 -455 -414 -684q-12 -14 -30.5 -13.5t-36.5 13.5l-156 144q-33 29 1 72q209 246 297 479l-357 669q-10 18 -2 30zM146 1224q0 70 49 119t119 49q71 0 120.5 -49 t49.5 -119q0 -68 -50 -119t-120 -51t-119 51t-49 119zM661 1224q0 71 49 119.5t120 48.5q70 0 120.5 -49t50.5 -119q0 -68 -51 -119t-120 -51q-70 0 -119.5 51t-49.5 119z" />
<glyph unicode="&#x152;" horiz-adv-x="2474" d="M104 694q0 144 56 275t151 225.5t226.5 150.5t276.5 56q198 0 363.5 -101t257.5 -269v323q0 14 9.5 24t25.5 10h856q14 0 25 -10t11 -24v-235q0 -16 -10 -26t-26 -10h-554v-253h295q14 0 25.5 -10.5t11.5 -24.5v-234q0 -16 -10.5 -26.5t-26.5 -10.5h-295v-219h554 q14 0 25 -10t11 -24v-235q0 -16 -10 -26t-26 -10h-854q-16 0 -26.5 10t-10.5 26v322q-92 -168 -257.5 -269t-363.5 -101q-145 0 -276.5 55.5t-226.5 150t-151 225.5t-56 275zM448 696q0 -151 109 -265.5t255 -114.5q97 0 181.5 53t134 140.5t49.5 186.5q0 151 -108.5 264 t-256.5 113q-96 0 -180.5 -52t-134 -139.5t-49.5 -185.5z" />
<glyph unicode="&#x153;" horiz-adv-x="1593" d="M69 427q0 124 63 227t168.5 160t228.5 57q169 0 301 -106q120 106 281 106q126 0 224 -60t147 -152t49 -196q0 -61 -38 -98t-106 -37h-410l-2 -7q16 -35 66.5 -58t109.5 -23q114 0 208 38q39 17 59 -19l45 -75q20 -30 -5 -63q-99 -131 -325 -131q-176 0 -302 107 q-130 -109 -302 -109q-123 0 -228.5 57.5t-168.5 159t-63 222.5zM382 427q0 -57 42 -101.5t105 -44.5t105.5 44.5t42.5 101.5q0 59 -42.5 104t-105.5 45t-105 -45t-42 -104zM974 543l3 -10h273q-4 27 -43 52.5t-96 25.5q-52 0 -88.5 -21t-48.5 -47z" />
<glyph unicode="&#x178;" horiz-adv-x="1358" d="M29 1377q5 11 21 11h320q5 0 9 -1.5t6.5 -3.5t6 -6t5.5 -7t5.5 -9t5.5 -9l272 -413l273 413q19 30 30 34q5 2 10 2h317q16 0 21.5 -11t-3.5 -25l-478 -727v-589q0 -17 -9 -26.5t-24 -9.5h-213q-42 0 -66 26t-24 68v526l-481 732q-9 14 -4 25zM253 1677q0 70 49 119 t120 49t120.5 -49t49.5 -119q0 -68 -50 -119.5t-120 -51.5t-119.5 51.5t-49.5 119.5zM769 1677q0 71 48.5 119.5t119.5 48.5q70 0 121 -49t51 -119q0 -68 -51.5 -119.5t-120.5 -51.5q-70 0 -119 51.5t-49 119.5z" />
<glyph unicode="&#x2c6;" horiz-adv-x="886" d="M69 1048q0 -28 19 -36t49 5l306 122l305 -122q69 -27 69 31v189q0 22 -26 35l-324 179q-21 16 -49 0l-323 -179q-26 -13 -26 -35v-189z" />
<glyph unicode="&#x2dc;" horiz-adv-x="952" d="M68.5 1185.5q-0.5 -15.5 7.5 -24.5l96 -113q9 -12 21.5 -12.5t23.5 11.5q16 18 27.5 28.5t35 21t51.5 10.5q34 0 61 -9t47.5 -22t42.5 -26t56 -22t78 -9q43 0 83.5 12t64.5 25t52 37t34 30.5t21 23.5q10 10 11.5 24.5t-6.5 27.5l-86 132q-24 32 -61 -2 q-21 -17 -31.5 -24.5t-39 -18t-59.5 -10.5q-41 0 -83 23t-88.5 46.5t-99.5 23.5q-37 0 -72.5 -11t-60 -26t-47.5 -36t-35 -36t-23 -31l-12 -16q-9 -12 -9.5 -27.5z" />
<glyph unicode="&#x2000;" horiz-adv-x="962" />
<glyph unicode="&#x2001;" horiz-adv-x="1925" />
<glyph unicode="&#x2002;" horiz-adv-x="962" />
<glyph unicode="&#x2003;" horiz-adv-x="1925" />
<glyph unicode="&#x2004;" horiz-adv-x="641" />
<glyph unicode="&#x2005;" horiz-adv-x="481" />
<glyph unicode="&#x2006;" horiz-adv-x="320" />
<glyph unicode="&#x2007;" horiz-adv-x="320" />
<glyph unicode="&#x2008;" horiz-adv-x="240" />
<glyph unicode="&#x2009;" horiz-adv-x="385" />
<glyph unicode="&#x200a;" horiz-adv-x="106" />
<glyph unicode="&#x2010;" horiz-adv-x="748" d="M69 330v201q0 16 10.5 26.5t26.5 10.5h538q15 0 25 -10t10 -25v-202q0 -14 -10.5 -25t-24.5 -11h-538q-14 0 -25.5 10.5t-11.5 24.5z" />
<glyph unicode="&#x2011;" horiz-adv-x="748" d="M69 330v201q0 16 10.5 26.5t26.5 10.5h538q15 0 25 -10t10 -25v-202q0 -14 -10.5 -25t-24.5 -11h-538q-14 0 -25.5 10.5t-11.5 24.5z" />
<glyph unicode="&#x2012;" horiz-adv-x="748" d="M69 330v201q0 16 10.5 26.5t26.5 10.5h538q15 0 25 -10t10 -25v-202q0 -14 -10.5 -25t-24.5 -11h-538q-14 0 -25.5 10.5t-11.5 24.5z" />
<glyph unicode="&#x2013;" horiz-adv-x="1213" d="M139 422v191q0 16 10 26t26 10h865q14 0 24 -9.5t10 -25.5v-191q0 -14 -10 -25t-24 -11h-865q-14 0 -25 10.5t-11 24.5z" />
<glyph unicode="&#x2014;" horiz-adv-x="1586" d="M104 422v191q0 16 10.5 26t26.5 10h1306q15 0 25 -10t10 -25v-191q0 -14 -10.5 -25t-24.5 -11h-1306q-14 0 -25.5 10.5t-11.5 24.5z" />
<glyph unicode="&#x2018;" horiz-adv-x="491" d="M37.5 1167q4.5 56 24.5 133q28 85 87.5 156t124.5 111q29 15 47 -5l40 -50q12 -17 0 -26q-140 -105 -161 -252q31 9 55 9q82 0 141 -61t59 -144q0 -82 -59 -141t-141 -59q-86 0 -144 61q-57 56 -68 134q-10 78 -5.5 134z" />
<glyph unicode="&#x2019;" horiz-adv-x="454" d="M0 1224q0 82 59 140.5t141 58.5q100 0 163 -78q39 -50 50 -114q9 -80 4.5 -135.5t-25.5 -132.5q-28 -85 -87 -156.5t-124 -112.5q-29 -12 -46 5l-40 53q-11 16 0 24q65 50 107.5 109.5t54.5 143.5q-30 -8 -57 -8q-82 0 -141 60t-59 143z" />
<glyph unicode="&#x201a;" horiz-adv-x="1117" d="M106 172q0 83 58.5 142t140.5 59q50 0 94 -23t71 -62q36 -47 47 -109q10 -79 5.5 -135t-24.5 -133q-28 -85 -87.5 -156t-124.5 -111q-30 -16 -45 5l-41 51q-12 17 0 26q66 49 108 107.5t55 143.5q-30 -8 -58 -8q-81 0 -140 60.5t-59 142.5zM594 172q0 83 59.5 142 t141.5 59q106 0 168 -88q37 -49 44 -106q10 -79 5.5 -135t-24.5 -133q-28 -85 -87.5 -156t-124.5 -111q-29 -15 -47 5l-40 51q-12 17 0 26q66 49 108 107.5t55 143.5q-30 -8 -57 -8q-82 0 -141.5 60.5t-59.5 142.5z" />
<glyph unicode="&#x201c;" horiz-adv-x="1013" d="M54.5 1023.5q4.5 53.5 25.5 132.5q28 85 87.5 156t124.5 111q27 15 45 -5l40 -50q12 -17 0 -26q-66 -50 -108 -109t-54 -143q31 9 56 9q83 0 142 -60.5t59 -142.5q0 -83 -59 -142.5t-142 -59.5q-57 0 -105.5 29.5t-75.5 78.5q-23 37 -31 87q-9 81 -4.5 134.5z M543.5 1023.5q4.5 51.5 24.5 132.5q30 86 88.5 157t122.5 110q29 15 47 -5l40 -50q12 -17 0 -26q-65 -49 -107.5 -108t-55.5 -144q34 9 57 9q83 0 142.5 -60.5t59.5 -142.5q0 -83 -59.5 -142.5t-142.5 -59.5q-105 0 -168 89q-37 49 -44 106q-9 83 -4.5 134.5z" />
<glyph unicode="&#x201d;" horiz-adv-x="1017" d="M52 1224q0 82 59 140.5t141 58.5q100 0 163 -78q39 -50 50 -114q9 -80 4.5 -135.5t-25.5 -132.5q-28 -85 -87 -156.5t-124 -112.5q-29 -12 -46 5l-39 53q-11 16 0 24q141 108 161 253q-30 -8 -57 -8q-82 0 -141 60t-59 143zM542 1224q0 82 58.5 140.5t140.5 58.5 q53 0 100 -25.5t74 -68.5q30 -48 40 -98q9 -80 4.5 -135.5t-25.5 -132.5q-28 -85 -87 -156.5t-125 -112.5q-28 -12 -45 5l-42 53q-11 16 0 24q143 107 163 253q-30 -8 -57 -8q-82 0 -140.5 60t-58.5 143z" />
<glyph unicode="&#x201e;" horiz-adv-x="1119" d="M106 172q0 83 58.5 142t140.5 59q50 0 94 -23t71 -62q36 -47 47 -109q10 -79 5.5 -135t-24.5 -133q-28 -85 -87.5 -156t-124.5 -111q-30 -16 -45 5l-41 51q-12 17 0 26q66 49 108 107.5t55 143.5q-30 -8 -58 -8q-81 0 -140 60.5t-59 142.5zM594 172q0 83 59.5 142 t141.5 59q106 0 168 -88q37 -49 44 -106q10 -79 5.5 -135t-24.5 -133q-28 -85 -87.5 -156t-124.5 -111q-29 -15 -47 5l-40 51q-12 17 0 26q66 49 108 107.5t55 143.5q-30 -8 -57 -8q-82 0 -141.5 60.5t-59.5 142.5z" />
<glyph unicode="&#x2022;" horiz-adv-x="793" d="M87 436q0 126 94 218t220 92q125 0 215 -92t90 -218t-90 -217.5t-215 -91.5q-126 0 -220 91.5t-94 217.5z" />
<glyph unicode="&#x2026;" horiz-adv-x="1655" d="M87 181q0 83 59 142t142 59t143 -59t60 -142q0 -82 -60 -143t-143 -61t-142 61t-59 143zM627 181q0 83 58.5 142t140.5 59q84 0 144.5 -59t60.5 -142q0 -82 -61 -143t-144 -61q-81 0 -140 61t-59 143zM1165 181q0 83 59 142t142 59q82 0 142.5 -59t60.5 -142 q0 -82 -60.5 -143t-142.5 -61q-83 0 -142 61t-59 143z" />
<glyph unicode="&#x202f;" horiz-adv-x="385" />
<glyph unicode="&#x2039;" horiz-adv-x="694" d="M94 373l224 -338q11 -19 31 -19h213q28 0 35.5 19t-3.5 47l-120 319l127 304q12 31 3.5 50t-35.5 19h-201q-22 0 -40 -26l-234 -325q-15 -25 0 -50z" />
<glyph unicode="&#x203a;" horiz-adv-x="694" d="M90 755q-9 -19 4 -50l128 -304l-121 -319q-24 -66 31 -66h213q21 0 32 19l224 338q15 25 0 50l-235 325q-18 26 -40 26h-201q-26 0 -35 -19z" />
<glyph unicode="&#x205f;" horiz-adv-x="481" />
<glyph unicode="&#x20ac;" horiz-adv-x="1374" d="M17 451v189q0 14 10.5 25.5t24.5 11.5h37v22v20h-37q-15 0 -25 9.5t-10 24.5v189q0 14 10.5 25.5t24.5 11.5h94q82 195 260.5 315.5t397.5 120.5q139 0 265 -51.5t224 -143.5q22 -22 -2 -48l-205 -209q-20 -23 -48 0q-58 51 -111 70t-132 19q-118 0 -210 -73h170 q14 0 25 -10.5t11 -24.5v-189q0 -16 -10 -26t-26 -10h-304v-18v-24h304q14 0 25 -10.5t11 -24.5v-189q0 -16 -10 -26t-26 -10h-165q93 -70 207 -70q78 0 129.5 18.5t111.5 68.5q28 23 48 0l204 -207q24 -25 1 -48q-98 -92 -223 -142.5t-264 -50.5q-218 0 -395.5 119 t-260.5 312h-96q-15 0 -25 9.5t-10 24.5z" />
<glyph unicode="&#x2122;" horiz-adv-x="1117" d="M52 1267v97q0 10 7 17t17 7h334q26 0 26 -24v-97q0 -12 -7.5 -19t-18.5 -7h-92v-349q0 -10 -8 -18t-18 -8h-96q-12 0 -20 7.5t-8 18.5v349h-92q-24 0 -24 26zM495 892v472q0 10 7.5 17t18.5 7h67q17 0 26 -13l165 -266l162 266q7 13 26 13h74q11 0 18 -7t7 -17v-472 q0 -11 -7.5 -18.5t-17.5 -7.5h-97q-10 0 -18 8t-8 18v174l-113 -183q-8 -15 -24 -15h-3q-18 0 -26 15l-108 183v-174q0 -10 -8 -18t-18 -8h-97q-11 0 -18.5 8t-7.5 18z" />
<glyph unicode="&#x25fc;" horiz-adv-x="859" d="M0 0v859h859v-859h-859z" />
<glyph unicode="&#xfb03;" horiz-adv-x="1945" d="M54 588v205q0 31 18.5 48.5t48.5 17.5h51v189q0 170 105 262t289 92q175 0 375 -109q96 104 276 104q66 0 141.5 -20.5t115.5 -55.5l3 -2q25 -22 10 -54l-92 -182q-17 -32 -46 -17q-32 17 -72 17q-37 0 -65 -23t-28 -67v-134h597q14 0 24 -10.5t10 -24.5v-788 q0 -17 -9 -26.5t-24 -9.5h-204q-42 0 -66.5 26.5t-24.5 67.5v470h-303v-528q0 -14 -11.5 -25t-25.5 -11h-198q-42 0 -68.5 26.5t-26.5 68.5v469h-354v-528q0 -14 -11.5 -25t-25.5 -11h-196q-42 0 -68.5 26.5t-26.5 68.5v469h-92q-26 0 -26 24zM500 859h354v155 q-138 74 -233 74q-121 0 -121 -97v-132z" />
<glyph unicode="&#xfb04;" horiz-adv-x="1950" d="M54 588v205q0 31 18.5 48.5t48.5 17.5h51v189q0 170 105 262t289 92q175 0 375 -109q104 109 307 109q120 0 253 -53v5q0 14 9.5 24t25.5 10h259q14 0 24 -10t10 -24v-1318q0 -17 -9 -26.5t-24 -9.5h-204q-42 0 -66.5 26.5t-24.5 67.5v939q-117 55 -198 55 q-121 0 -121 -97v-132h146q11 0 18.5 -7t7.5 -19v-243q0 -10 -8 -18t-18 -8h-146v-528q0 -14 -11.5 -25t-25.5 -11h-196q-42 0 -68.5 26.5t-26.5 68.5v469h-354v-528q0 -14 -11.5 -25t-25.5 -11h-196q-42 0 -68.5 26.5t-26.5 68.5v469h-92q-26 0 -26 24zM500 859h354v155 q-138 74 -233 74q-121 0 -121 -97v-132z" />
</font>
</defs>
</svg>
