<?xml version="1.0" standalone="no"?>
<!DOCTYPE svg PUBLIC "-//W3C//DTD SVG 1.1//EN" "http://www.w3.org/Graphics/SVG/1.1/DTD/svg11.dtd" >
<svg xmlns="http://www.w3.org/2000/svg" xmlns:xlink="http://www.w3.org/1999/xlink" version="1.1">
<metadata></metadata>
<defs>
<font id="venti_cfdemi_bold_oblique" horiz-adv-x="1003" >
<font-face units-per-em="2048" ascent="1638" descent="-410" />
<missing-glyph horiz-adv-x="477" />
<glyph unicode="&#xfb01;" horiz-adv-x="1103" d="M62 703l11 106q5 50 55 50h98l19 189q12 115 67.5 195t139 117t188.5 37q123 0 214 -59q21 -12 9 -36l-59 -108q-14 -22 -40 -14q-76 38 -137 38q-28 0 -57 -8t-59 -26t-51.5 -53.5t-25.5 -82.5l-21 -189h559q12 0 19 -8t5 -20l-85 -801q-3 -30 -28 -30h-97q-31 0 -46 19 t-13 50l64 615h-395l-70 -654q-4 -30 -31 -30h-95q-32 0 -47 19.5t-11 51.5l65 613h-125q-11 0 -16 5t-4 14z" />
<glyph unicode="&#xfb02;" horiz-adv-x="1136" d="M71 703l11 106q5 50 57 50h94l19 182q19 176 130 268.5t279 92.5q119 0 236 -71l4 30q0 12 8 19.5t21 7.5h134q12 0 18.5 -7.5t5.5 -19.5l-139 -1331q-3 -30 -31 -30h-94q-32 0 -47.5 19t-11.5 50l113 1073q-109 82 -229 82q-32 0 -63.5 -9t-63 -29t-53.5 -57.5 t-28 -87.5l-19 -182h206q24 0 21 -22l-14 -132q-2 -9 -8.5 -15t-15.5 -6h-208l-68 -654q-4 -30 -31 -30h-96q-62 0 -57 71l64 613h-125q-22 0 -19 19z" />
<glyph horiz-adv-x="0" />
<glyph horiz-adv-x="682" />
<glyph unicode=" "  horiz-adv-x="477" />
<glyph unicode="&#x09;" horiz-adv-x="477" />
<glyph unicode="&#xa0;" horiz-adv-x="477" />
<glyph unicode="!" horiz-adv-x="451" d="M45 118q7 52 48.5 89.5t93.5 37.5t86 -37.5t27 -89.5q-5 -52 -46.5 -89.5t-93.5 -37.5q-51 0 -85 37.5t-30 89.5zM149 578l51 765l1 19q4 26 30 26h154q11 0 17.5 -8t5.5 -18l-2 -19l-107 -765q-1 -12 -9 -20t-19 -8h-97q-12 0 -19 7.5t-6 20.5z" />
<glyph unicode="&#x22;" horiz-adv-x="617" d="M83 913l45 413q0 12 9 20t21 8h118q13 0 20.5 -8t5.5 -20l-80 -413q-5 -28 -31 -28h-82q-11 0 -18.5 8t-7.5 20zM423 913l44 413q0 12 8.5 20t20.5 8h120q12 0 19 -8t5 -20l-79 -413q-5 -28 -32 -28h-81q-11 0 -18.5 8t-6.5 20z" />
<glyph unicode="#" horiz-adv-x="1148" d="M47 451l7 71q4 28 29 28h210l80 321h-189q-11 0 -18 7t-6 19l7 71q2 12 9.5 20t19.5 8h208l91 365q8 27 31 27h69q13 0 21 -8t4 -19l-91 -365h259l90 365q8 27 31 27h70q13 0 20.5 -7.5t3.5 -19.5l-90 -365h187q12 0 19 -7.5t6 -20.5l-7 -69q-4 -28 -30 -28h-206 l-80 -321h186q11 0 18 -8t6 -20l-7 -69q-2 -12 -10 -20t-20 -8h-203l-99 -397q-5 -28 -29 -28h-71q-12 0 -19.5 8t-5.5 20l99 397h-258l-99 -397q-5 -28 -30 -28h-69q-13 0 -20.5 8t-5.5 20l99 397h-193q-11 0 -18 7t-6 19zM418 550h259l80 321h-259z" />
<glyph unicode="$" horiz-adv-x="1103" d="M50 234l85 89q31 31 58 8l31 -31q32 -30 51.5 -44t57 -38t79.5 -35t88 -11q126 0 204 57.5t87 145.5q4 41 -9 75t-35.5 57t-64.5 45t-78.5 36.5t-94.5 35.5q-5 1 -7.5 2t-7 3t-8.5 3q-78 29 -136 61t-110 79t-75.5 112t-15.5 145q7 61 33 120t71.5 112.5t118.5 93 t164 53.5l12 125q3 26 30 26h141q23 0 20 -26l-12 -125q178 -31 306 -162q28 -29 5 -52l-78 -90q-27 -35 -57 -12q-3 2 -25.5 21.5t-36 30t-42.5 29.5t-54 29t-59.5 18.5t-69.5 8.5q-114 0 -185 -58t-79 -142q-3 -31 2.5 -57t24.5 -48t39 -38t57.5 -34.5t67.5 -30.5t82 -31 q65 -24 114 -46.5t105 -60t90 -79t53.5 -102t12.5 -131.5q-14 -138 -132.5 -246.5t-289.5 -134.5l-14 -125q-3 -26 -28 -26h-139q-27 0 -24 26l14 126q-41 7 -78.5 19t-69 28.5t-56 31.5t-48 35.5t-35.5 31.5t-29.5 29.5t-18.5 19.5q-24 28 -2 48z" />
<glyph unicode="%" horiz-adv-x="1166" d="M43.5 12q-4.5 10 5.5 24l909 1314q14 23 36 23h119q18 0 23.5 -8.5t-4.5 -24.5l-910 -1314q-18 -24 -38 -24h-120q-16 0 -20.5 10zM137 1201q7 59 53.5 100.5t106.5 41.5q58 0 95.5 -41.5t32.5 -100.5q-7 -60 -53 -102t-105 -42q-60 0 -97.5 42t-32.5 102zM758 161 q5 58 52 101t106 43q58 0 96 -42.5t33 -101.5q-7 -60 -53 -102t-105 -42t-97.5 42t-31.5 102z" />
<glyph unicode="&#x26;" horiz-adv-x="1169" d="M-59 327.5q-4 108.5 45 200.5q67 135 266 239q-54 73 -87 125q-54 88 -45.5 191.5t73.5 186.5t144 119t184 38q236 3 307 -183q20 -51 23.5 -102.5t-13 -106.5t-54.5 -107.5t-104.5 -105.5t-157.5 -100l202 -269q58 98 130 279q12 33 45 33h212q14 0 21.5 -9t2.5 -22 q-1 -4 -10 -24.5t-16 -40.5t-14 -48q-5 -22 -33 -22h-66q-76 -170 -149 -292q22 -29 34 -43t37.5 -37t55.5 -36t66 -17q15 -1 23 -11t6 -22l-10 -105q-3 -30 -33 -33q-114 -5 -191.5 36t-136.5 112q-34 -31 -57.5 -49.5t-64 -40.5t-85.5 -35q-88 -26 -175 -27t-171.5 32.5 t-135.5 103.5q-64 84 -68 192.5zM168 283q31 -56 93 -80t133 -16q128 15 210 103l-255 345q-125 -52 -179.5 -155t-1.5 -197zM312 1109q-13 -56 14.5 -111t86.5 -122q10 -10 -2 -26q254 142 252 261q-2 84 -63 122.5t-145 19.5q-53 -13 -92 -52.5t-51 -91.5z" />
<glyph unicode="'" horiz-adv-x="277" d="M83 913l45 413q0 12 9 20t21 8h118q13 0 20.5 -8t5.5 -20l-80 -413q-5 -28 -31 -28h-82q-11 0 -18.5 8t-7.5 20z" />
<glyph unicode="(" horiz-adv-x="735" d="M83 661q39 375 203 595t446 264q12 1 18.5 -5.5t4.5 -18.5l-9 -127q-3 -21 -26 -24q-192 -28 -303 -204.5t-143 -479.5q-66 -624 304 -675q24 -3 21 -24l-19 -134q-4 -25 -30 -22q-270 44 -387.5 266.5t-79.5 588.5z" />
<glyph unicode=")" horiz-adv-x="735" d="M-24 -172l8 134q3 21 26 24q382 52 445 675q33 303 -41 479.5t-261 204.5q-24 3 -21 24l17 127q5 27 28 24q274 -44 391 -263.5t78 -595.5q-38 -366 -203 -588.5t-445 -266.5q-12 -1 -18 5t-4 17z" />
<glyph unicode="*" horiz-adv-x="704" d="M95 918q-13 24 14 38l200 110l-175 109q-24 13 -7 36l34 49q18 25 40 9l160 -115l14 207q4 27 31 27h56q28 0 24 -27l-26 -207l180 115q28 15 40 -9l25 -49q12 -22 -14 -36l-198 -109l175 -110q22 -14 5 -38l-33 -47q-17 -25 -41 -8l-158 112l-16 -204q-3 -28 -31 -28 h-56q-29 0 -26 28l30 206l-184 -114q-25 -15 -37 8z" />
<glyph unicode="+" horiz-adv-x="1091" d="M118 574l14 129q3 28 31 28h304l31 305q4 28 31 28h129q28 0 24 -28l-31 -305h304q29 0 26 -28l-14 -129q-3 -27 -32 -27h-305l-31 -304q-3 -28 -30 -28h-128q-29 0 -26 28l31 304h-302q-29 0 -26 27z" />
<glyph unicode="," horiz-adv-x="406" d="M24 -264q55 46 90.5 98.5t41.5 127.5l2 29q-15 -3 -30 -3q-48 0 -78.5 32t-23.5 82q5 52 40.5 85t86.5 33q83 0 102 -67q16 -26 16 -58q3 -94 -35 -204q-25 -64 -69 -116.5t-92 -85.5q-18 -13 -30 -1l-21 29q-10 9 0 19z" />
<glyph unicode="-" horiz-adv-x="722" d="M69 375v114q0 13 8.5 20.5t21.5 7.5h526q28 0 28 -28v-114q0 -12 -8 -20t-20 -8h-526q-12 0 -21 8t-9 20z" />
<glyph unicode="." horiz-adv-x="406" d="M78 115q0 51 37 88.5t88 37.5t88 -37.5t37 -88.5t-36.5 -88t-88.5 -37q-51 0 -88 37t-37 88z" />
<glyph unicode="/" horiz-adv-x="682" d="M-10 31l532 1328q12 29 35 29h127q15 0 22 -8.5t2 -20.5l-531 -1328q-11 -31 -35 -31h-126q-13 0 -21.5 9.5t-4.5 21.5z" />
<glyph unicode="0" horiz-adv-x="1211" d="M88.5 449.5q-5.5 101.5 3.5 213.5q15 144 58 266t113.5 218.5t178 151.5t242.5 55q134 0 230.5 -55t147 -151.5t67 -218.5t1.5 -266q-12 -114 -40.5 -214t-77.5 -187t-115 -149.5t-157.5 -98t-199.5 -35.5t-192.5 35.5t-136.5 98.5t-84.5 149t-38 187.5zM281 512 q0 -72 17.5 -135t48 -109.5t85.5 -73t130 -26.5q319 0 373 495q7 79 7 152.5t-17 137.5t-47 111t-84 74t-128 27q-324 0 -378 -502q-7 -79 -7 -151z" />
<glyph unicode="1" horiz-adv-x="564" d="M113 1102q0 25 26 31q107 37 222 183l3 8q9 12 28 12h123q12 0 20 -7.5t7 -19.5l-136 -1279q-4 -30 -31 -30h-137q-13 0 -20.5 8.5t-5.5 21.5l104 992l-170 -40q-25 -5 -28 21z" />
<glyph unicode="2" horiz-adv-x="1027" d="M28 28l5 47l574 602q83 83 128.5 149.5t52.5 140.5q9 88 -55.5 149t-166.5 61q-94 0 -168.5 -44t-147.5 -121q-9 -10 -21.5 -10t-20.5 10l-71 85q-16 21 5 42q88 111 207 168t246 57q111 0 203.5 -49.5t144 -141.5t39.5 -205q-16 -159 -158 -308l-456 -471h508 q27 0 23 -28l-14 -133q-1 -11 -20.5 -19.5t-33.5 -8.5h-777q-12 0 -19 8t-7 20z" />
<glyph unicode="3" horiz-adv-x="1060" d="M47 222q-15 21 5 38l106 91q12 10 19.5 9t18.5 -13q47 -73 126 -124t169 -51q115 0 187 72.5t80 161.5q9 85 -40.5 148.5t-139.5 63.5q-32 0 -89.5 -18.5t-59.5 -18.5q-14 -3 -26 13l-63 99q-13 21 5 39l431 415h-563q-13 0 -21 8t-8 20l14 132q1 13 11.5 21t23.5 8h758 q29 0 26 -27l-16 -137q-3 -30 -24 -51l-366 -347q90 0 161 -43q97 -40 148.5 -136.5t39.5 -209.5q-18 -167 -162 -284.5t-317 -117.5q-144 0 -249 59.5t-185 179.5z" />
<glyph unicode="4" horiz-adv-x="1050" d="M54 364l12 132q3 17 21 26q263 194 397 472q74 155 97 334q0 12 8 19t20 7h149q12 0 19 -8t6 -20q-17 -136 -64 -272.5t-110 -241.5q-94 -152 -253 -286h279l9 88q0 12 8.5 21t20.5 11l136 15q12 1 19 -7.5t5 -21.5l-10 -106h112q30 0 27 -30l-14 -130q-2 -12 -11 -20.5 t-21 -8.5h-114l-33 -309q-3 -28 -31 -28h-129q-13 0 -21 8t-7 20l33 309h-532q-12 0 -20.5 7.5t-7.5 19.5z" />
<glyph unicode="5" horiz-adv-x="1037" d="M45 210q-13 20 5 38l104 99q21 19 35 -3q44 -75 119.5 -123.5t170.5 -48.5q106 0 175 68.5t80 163.5q11 96 -49.5 166t-155.5 70q-98 0 -204 -72l-164 33q-26 3 -26 31l72 675q1 13 10.5 21t22.5 8q271 -7 350 -7q80 0 344 7q29 0 26 -27l-14 -131q-3 -26 -31 -29 q-143 -9 -311 -9q-124 0 -217 5l-42 -383q117 66 245 66q88 0 159 -36t115 -96t64 -136.5t11 -158.5q-18 -172 -157.5 -295t-321.5 -123q-125 0 -234 58.5t-181 168.5z" />
<glyph unicode="6" horiz-adv-x="1063" d="M73 555q13 118 50.5 231t101 214t145.5 178.5t190.5 124.5t229.5 51q13 2 20.5 -5.5t6.5 -20.5l-8 -129q-3 -21 -31 -21q-101 0 -190.5 -45t-150.5 -116.5t-101 -151.5t-55 -159q54 59 129 95t159 36q185 0 300 -123t96 -303q-18 -182 -158 -305t-337 -123 q-143 0 -240 74t-136 202t-21 296zM255 422q-12 -109 54.5 -187.5t176.5 -78.5q105 0 191.5 75t96.5 180q11 106 -55.5 180.5t-171.5 74.5q-106 0 -193.5 -74t-98.5 -170z" />
<glyph unicode="7" horiz-adv-x="1020" d="M64.5 13q-2.5 13 3.5 20l689 1114h-609q-12 0 -20 7.5t-8 18.5l15 134q0 12 9.5 20t22.5 8h834q28 0 25 -26l-5 -54q-3 -15 -14 -35l-740 -1206q-9 -14 -38 -14h-149q-13 0 -15.5 13z" />
<glyph unicode="8" horiz-adv-x="1036" d="M52 364q-16 -165 91.5 -273t307.5 -108q202 0 333.5 108.5t149.5 272.5q7 68 -12 127.5t-54.5 99t-74 65.5t-76.5 37l8 5q86 33 157 107t83 183q16 158 -89.5 262t-280.5 104t-300 -104t-141 -262q-12 -109 43 -184t134 -106l6 -5q-27 -6 -60.5 -23t-70.5 -47t-69 -67 t-55.5 -87.5t-29.5 -104.5zM238 368q10 94 86 163.5t193 69.5t179 -69.5t52 -163.5q-10 -99 -90 -160.5t-189 -61.5q-107 0 -174 62t-57 160zM328 991q9 83 82 142t170 59q95 0 156 -59.5t52 -141.5q-9 -79 -82 -140t-170 -61q-96 0 -156 61t-52 140z" />
<glyph unicode="9" horiz-adv-x="1063" d="M175 925q18 182 158 305.5t337 123.5q143 0 240 -74t136.5 -202.5t22.5 -296.5q-16 -148 -72.5 -287t-146 -252t-219.5 -183.5t-279 -75.5q-14 -1 -22.5 6t-6.5 20l8 128q3 21 32 21q82 0 156.5 30t130 78.5t100 111t71 126.5t38.5 126q-53 -59 -128 -94.5t-158 -35.5 q-185 0 -301 122.5t-97 302.5zM368 925q-12 -106 54 -180.5t172 -74.5t193 74.5t98 170.5q12 109 -54.5 187t-176.5 78q-105 0 -190.5 -75t-95.5 -180z" />
<glyph unicode=":" horiz-adv-x="475" d="M66 165q7 51 47.5 88t91.5 37q50 0 83 -37t28 -88t-46 -87t-91 -36q-51 0 -84.5 36t-28.5 87zM125 710q5 51 45.5 88t91.5 37t83.5 -37t27.5 -88t-45.5 -87t-91.5 -36t-83.5 36t-27.5 87z" />
<glyph unicode=";" horiz-adv-x="642" d="M71 165q7 54 44.5 87.5t91.5 33.5q85 0 107 -69q16 -27 16 -61q4 -106 -37 -215q-25 -66 -71 -120.5t-97 -89.5q-20 -15 -31 -2l-23 31q-11 9 0 20q59 50 96 104.5t43 132.5l2 28q-15 -3 -31 -3q-52 0 -83.5 34.5t-26.5 88.5zM125 710q5 51 45.5 88t91.5 37t83.5 -37 t27.5 -88t-45.5 -87t-91.5 -36t-83.5 36t-27.5 87z" />
<glyph unicode="&#x3c;" horiz-adv-x="869" d="M73 635q-3 -17 12 -24l602 -391q12 -9 25 -2t15 23l12 123q2 15 -12 25l-413 255l469 260q12 10 15 25l14 121q2 18 -9 25t-25 -2l-686 -400q-14 -8 -19 -24v-14z" />
<glyph unicode="=" horiz-adv-x="1041" d="M73 347l12 115q1 13 10.5 21t22.5 8h783q29 0 26 -29l-14 -115q0 -12 -9 -20t-22 -8h-781q-13 0 -21 8t-7 20zM123 817l11 115q2 13 11 21.5t22 8.5h782q13 0 20 -7.5t6 -20.5l-12 -115q-2 -13 -10 -21t-21 -8h-781q-13 0 -21 7.5t-7 19.5z" />
<glyph unicode="&#x3e;" horiz-adv-x="869" d="M66 241q-2 -16 9 -23t27 2l682 394q16 8 20 26l1 13q0 17 -12 26l-602 394q-13 8 -25.5 1.5t-14.5 -24.5l-12 -121q-2 -10 9 -25l414 -258l-467 -257q-15 -10 -17 -25z" />
<glyph unicode="?" horiz-adv-x="807" d="M97 1187q-13 15 4 35q173 189 401 189q86 -3 163 -33q71 -28 114.5 -92t52 -138.5t-19.5 -153.5t-92 -135q-47 -40 -94 -72.5t-70.5 -46.5t-45 -35t-31.5 -50.5t-16 -80.5q0 -13 -9 -21t-22 -8h-118q-13 0 -20 8t-6 21l7 94q4 40 39.5 79t84 71.5t97.5 66t86 75.5t44 87 q16 90 -35.5 144.5t-159.5 54.5q-34 0 -68 -10.5t-57 -22t-52.5 -35.5t-40.5 -34.5t-37 -36.5q-21 -18 -35 0zM196 118q7 52 49.5 90t94.5 38t85 -38t26 -90q-5 -52 -46 -89.5t-94 -37.5q-52 0 -86 37.5t-29 89.5z" />
<glyph unicode="@" horiz-adv-x="2025" d="M92 491q27 252 170.5 463.5t372 336t491.5 124.5q157 0 293.5 -47.5t232 -127.5t162 -181.5t93.5 -213t16 -218.5q-7 -73 -22.5 -141t-41 -140.5t-64.5 -132t-90 -107.5t-122.5 -74.5t-155.5 -26.5q-82 0 -126 36t-62 108l-14 16q-31 -42 -99 -85q-112 -67 -232 -73 q-49 -4 -95.5 3.5t-90.5 26.5t-73.5 58.5t-35.5 95.5q-5 41 1 75.5t17.5 62t37 51.5t50.5 42t69 35.5t80 29t95.5 25.5t104 22.5t116.5 22.5q10 65 -24.5 101t-107.5 40q-134 12 -295 -63q-32 -14 -40 12l-23 98q-7 22 23 38q169 89 361 85q161 -4 237 -90t56 -231 q-15 -108 -17 -143q-6 -77 0 -124.5t27 -68.5t41.5 -26.5t56.5 -5.5q63 0 112.5 34.5t81.5 97t52 137.5t30 168q9 85 -11.5 172t-72.5 167.5t-128 143.5t-187.5 100.5t-242.5 37.5q-159 0 -305 -57.5t-255 -157t-180 -237.5t-88 -294q-13 -133 22 -262t109.5 -232.5 t192.5 -173.5t261 -85q22 -4 17 -31l-12 -127q-2 -21 -47 -17q-150 15 -276 74.5t-213.5 150t-145.5 205t-79.5 241.5t-7.5 257zM776 223.5q11 -45.5 61 -60.5q69 -21 153 7t149 76q0 64 17 172q-15 -3 -57 -10.5t-64.5 -12t-60 -12.5t-61 -15t-50 -17t-43 -22t-25.5 -25 q-30 -35 -19 -80.5z" />
<glyph unicode="A" horiz-adv-x="1520" d="M11 9q-4 9 3 22l795 1351q11 15 26 15h21q16 0 22 -15l509 -1351q5 -13 -0.5 -22t-20.5 -9h-158q-21 0 -26 19l-83 226h-748l-131 -226q-11 -19 -33 -19h-159q-13 0 -17 9zM453 423h580l-226 615z" />
<glyph unicode="B" horiz-adv-x="1188" d="M45 30l141 1331q3 27 29 27h517q65 0 123 -21t100.5 -57.5t73 -83t43.5 -99.5q9 -38 9 -76q0 -15 -1 -29q-10 -92 -61 -165t-129 -118q104 -50 158 -144q43 -76 42 -164q0 -22 -2 -44q-12 -111 -81 -201t-168.5 -138t-206.5 -48h-561q-13 0 -20.5 8.5t-5.5 21.5zM260 189 h346q147 0 227 94q53 62 53 135q0 15 -2 30q-13 92 -100 136q-56 29 -135 29h-345zM323 797h310q125 0 194 91q47 61 47 130q0 17 -3 34q-13 90 -93 127q-43 20 -99 20h-315z" />
<glyph unicode="C" horiz-adv-x="1391" d="M83 691q21 193 133.5 357t284.5 258.5t362 94.5q152 0 278 -57.5t214 -161.5q22 -25 -1 -42l-122 -90q-23 -17 -40 2q-57 67 -145.5 113t-197.5 46q-113 0 -216 -44.5t-176 -118t-120 -166.5t-58 -191q-3 -26 -3 -52q0 -71 20 -139q28 -92 86 -164t152 -115.5t207 -43.5 q107 0 203.5 44.5t166.5 109.5q23 21 43 7l101 -90q19 -19 -7 -43q-109 -104 -245.5 -160.5t-289.5 -56.5q-142 0 -266.5 55t-209.5 149t-127 224q-31 96 -31 200q0 37 4 75z" />
<glyph unicode="D" horiz-adv-x="1402" d="M45 30l141 1331q3 27 29 27h465q134 0 246.5 -39.5t188.5 -107t126.5 -156t69.5 -186.5q12 -62 12 -125q0 -36 -4 -73q-11 -110 -51.5 -212.5t-109.5 -191t-159 -155t-209.5 -104.5t-253.5 -38h-465q-13 0 -20.5 8.5t-5.5 21.5zM259 189h300q117 0 219 43.5t172.5 115.5 t114 164t53.5 191q3 28 3 56q1 69 -17 131q-24 88 -79 157.5t-148 110.5t-211 41h-303z" />
<glyph unicode="E" horiz-adv-x="1161" d="M71 30l141 1331q3 27 31 27h856q13 0 20.5 -7.5t6.5 -19.5l-13 -134q-1 -13 -10.5 -20.5t-22.5 -7.5h-689l-44 -423h398q13 0 20.5 -8.5t6.5 -21.5l-14 -130q-3 -29 -33 -29h-399l-40 -398h686q13 0 21 -8t7 -21l-14 -130q-4 -30 -33 -30h-856q-13 0 -20.5 8.5t-5.5 21.5 z" />
<glyph unicode="F" horiz-adv-x="1037" d="M31 69l136 1292q0 12 8 19.5t21 7.5h842q13 0 20.5 -7.5t7.5 -19.5l-14 -134q-1 -13 -10.5 -20.5t-22.5 -7.5h-674l-45 -423h384q13 0 21 -8.5t7 -21.5l-14 -130q-3 -29 -33 -29h-384l-59 -557q-3 -30 -29 -30h-104q-31 0 -46.5 19t-11.5 50z" />
<glyph unicode="G" horiz-adv-x="1391" d="M83 691q21 193 133.5 357t284.5 258.5t362 94.5q152 0 278 -57.5t214 -161.5q22 -25 -1 -42l-122 -90q-23 -17 -40 2q-57 67 -145.5 113t-197.5 46q-113 0 -216 -44.5t-176 -118t-120 -166.5t-58 -191q-3 -26 -3 -52q0 -71 20 -139q28 -92 86 -164t152 -115.5t207 -43.5 q180 0 337 125l12 128h-318q-29 0 -26 28l14 129q3 31 30 31h486q29 0 26 -30l-37 -359h-1q-2 -10 -16 -24q-109 -104 -245.5 -160.5t-289.5 -56.5q-142 0 -266.5 55t-209.5 148.5t-127 224.5q-31 96 -31 200q0 37 4 75z" />
<glyph unicode="H" horiz-adv-x="1416" d="M69 30l141 1331q0 12 8.5 19.5t21.5 7.5h138q13 0 20.5 -7.5t7.5 -19.5l-61 -582h764l61 582q0 12 8 19.5t21 7.5h139q13 0 20.5 -7.5t7.5 -19.5l-141 -1331q-3 -30 -29 -30h-103q-32 0 -47.5 19t-11.5 50l54 514h-763l-59 -553q-2 -12 -11 -21t-21 -9h-139 q-13 0 -20.5 8.5t-5.5 21.5z" />
<glyph unicode="I" horiz-adv-x="472" d="M80 30q-2 -13 5.5 -21.5t20.5 -8.5h134q12 0 19.5 8.5t9.5 21.5l141 1331q1 12 -6.5 19.5t-19.5 7.5h-134q-27 0 -30 -27z" />
<glyph unicode="J" horiz-adv-x="520" d="M-57 -396q-11 26 17 37q132 71 146 210l149 1416q1 10 1 23q0 26 -3 64q-2 15 4.5 24.5t18.5 9.5h120q32 0 48 -19t12 -50l-154 -1473q-15 -125 -87 -223.5t-180 -153.5q-30 -14 -40 9z" />
<glyph unicode="K" horiz-adv-x="1235" d="M47 28l130 1232q1 10 1 24q0 28 -3 70q-2 15 4.5 24.5t18.5 9.5h120q31 0 47.5 -16.5t12.5 -45.5l-60 -580l638 627q15 15 37 15h149q26 0 32.5 -21t-11.5 -38l-621 -607l562 -658q18 -21 7 -42.5t-40 -21.5h-146q-22 0 -35 16l-578 683l-69 -671q-2 -12 -10.5 -20 t-20.5 -8h-141q-12 0 -19 8t-5 20z" />
<glyph unicode="L" horiz-adv-x="1067" d="M54 28l140 1333q0 12 8.5 19.5t21.5 7.5h140q12 0 19.5 -7.5t7.5 -19.5l-125 -1172h645q29 0 26 -29l-15 -132q-4 -28 -30 -28h-819q-23 0 -19 28z" />
<glyph unicode="M" horiz-adv-x="1848" d="M62 30l141 1331q3 27 31 27h118q22 0 32 -19l510 -1006l722 1006q14 19 36 19h117q12 0 19.5 -8t6.5 -21l-141 -1329q-2 -12 -10.5 -21t-20.5 -9h-137q-14 0 -21 8.5t-5 21.5l100 956l-661 -925q-15 -21 -35 -21h-8q-20 0 -30 21l-467 925l-100 -956q-2 -12 -11 -21 t-21 -9h-137q-14 0 -22 8.5t-6 21.5z" />
<glyph unicode="N" horiz-adv-x="1457" d="M69 30l141 1331q0 12 9 19.5t21 7.5h81q21 0 38 -22l748 -996l104 992q2 11 10 18.5t20 7.5h141q12 0 19 -7.5t7 -18.5l-141 -1336q-2 -11 -10 -18.5t-20 -7.5h-48q-53 0 -115 80l-706 925l-104 -975q-2 -12 -10.5 -20t-20.5 -8l-138 -2q-13 0 -20.5 8.5t-5.5 21.5z" />
<glyph unicode="O" horiz-adv-x="1610" d="M99 696q-4 -38 -4 -76q0 -106 31 -202q42 -132 127.5 -226t211.5 -149t271 -55q193 0 365.5 93.5t284.5 256.5t133 358q4 38 4 75q0 104 -31 200q-42 131 -127 225t-210.5 149.5t-269.5 55.5q-194 0 -367.5 -94t-285.5 -256t-133 -355zM295 696q15 138 97.5 257 t209 188.5t264.5 69.5q137 0 248 -69.5t168 -188.5q45 -94 45 -200q0 -28 -3 -57q-15 -140 -97 -260t-207.5 -189.5t-262.5 -69.5q-104 0 -195 41.5t-153 111.5q-61 69 -93 165q-23 71 -24 147q0 27 3 54z" />
<glyph unicode="P" horiz-adv-x="1190" d="M61 30l140 1331q0 12 8.5 19.5t21.5 7.5h514q87 0 162 -28t126 -75t85.5 -107.5t47.5 -125.5q8 -42 8 -84q0 -23 -2 -45q-9 -84 -50.5 -167t-107.5 -150.5t-162.5 -109t-205.5 -41.5h-344l-45 -425q-3 -30 -31 -30h-141q-27 0 -24 30zM321 644h330q136 0 225.5 83.5 t100.5 195.5q1 15 1 29q0 92 -61 164q-71 83 -207 83h-330z" />
<glyph unicode="Q" horiz-adv-x="1601" d="M35 696q21 193 133 355t285.5 256t367.5 94q144 0 269 -55.5t210 -149.5t127 -225q31 -97 31 -200q0 -37 -4 -75q-15 -152 -88 -285t-188 -232l68 -139q42 -79 83 -120q13 -14 9.5 -27t-15.5 -21l-112 -65q-29 -17 -54.5 -11t-37.5 32l-118 236q-158 -76 -329 -76 q-145 0 -271 55t-211.5 149.5t-127.5 225.5q-31 97 -31 202q0 38 4 76zM231 696q-3 -29 -3 -57q0 -107 44 -201q57 -119 167.5 -189.5t247.5 -71.5l-47 12q-59 45 -59 119q0 12 2 25q9 88 80.5 150t169.5 62q140 0 224 -134l33 -62q149 153 170 347q3 29 3 57q0 106 -45 200 q-57 119 -168 188.5t-248 69.5q-138 0 -264.5 -69.5t-209 -188.5t-97.5 -257zM666 252q-1 -6 -1 -11q0 -40 38 -64q112 3 215 50l-21 42q-42 83 -125 83q-42 0 -72 -29t-34 -71z" />
<glyph unicode="R" horiz-adv-x="1232" d="M45 30l141 1331q3 27 31 27h533q109 0 196 -43.5t136.5 -112t71.5 -149.5q16 -58 17 -115q0 -23 -3 -46q-13 -138 -106 -263.5t-239 -176.5l265 -449q7 -13 0 -23t-24 -10h-129q-25 0 -45.5 18t-30.5 38l-229 399h-344l-45 -425q-3 -30 -31 -30h-141q-27 0 -24 30z M305 644h344q140 0 226 83t97 198q2 16 2 31q0 92 -59 162q-68 80 -207 81h-344z" />
<glyph unicode="S" horiz-adv-x="1100" d="M47 238l85 87q17 17 33 17q12 0 24 -9l18 -17q18 -18 25.5 -25t29.5 -25t37 -27.5t40.5 -23.5t47.5 -21.5t50.5 -13t57.5 -5.5q128 0 207.5 55t88.5 143q3 23 0 43.5t-13 38t-19.5 31t-30.5 27.5l-34.5 23t-42 21.5t-44 18.5t-48.5 18.5t-47 18.5q-72 30 -124 56.5 t-103.5 63.5t-81.5 77t-46 94q-11 38 -11 79q0 18 2 38q6 55 27 107.5t61 102t94.5 86.5t132 59.5t167.5 22.5q74 0 144 -19t120 -49t80 -53t50 -44q28 -28 3 -54l-76 -88q-17 -20 -33 -20q-11 0 -22 9q-3 3 -21 18t-29.5 24t-33 24.5t-42 25t-46 20t-54.5 15.5t-59 5 q-112 0 -185 -55t-82 -137q-1 -9 -1 -18q1 -25 9 -47q12 -30 30 -50.5t55.5 -42.5t70.5 -36.5t89 -36.5q46 -19 76 -32.5t72.5 -34.5t70 -40t60 -44t52.5 -53t36 -60q16 -33 22 -72q3 -23 4 -47q0 -18 -2 -36q-16 -156 -163 -269.5t-348 -113.5q-71 0 -138.5 18.5t-109 39.5 t-86 57t-57.5 49.5t-36 38.5q-25 25 -3 47z" />
<glyph unicode="T" horiz-adv-x="1246" d="M144 1227l12 132q1 13 10.5 21t22.5 8h1033q27 0 24 -27l-14 -134q-4 -28 -31 -28h-418l-123 -1169q-3 -30 -30 -30h-101q-32 0 -47 19t-13 50l119 1130h-418q-13 0 -20 7.5t-6 20.5z" />
<glyph unicode="U" horiz-adv-x="1338" d="M111 509q-3 -33 -3 -64q0 -107 39 -199q51 -118 168.5 -188t283.5 -70q167 0 301.5 70.5t212 188t93.5 262.5l89 852q2 14 -5 21.5t-20 7.5h-140q-26 0 -31 -29l-89 -839q-12 -111 -69 -191t-139.5 -117t-181.5 -37q-148 -1 -238 89q-75 75 -75 205q0 25 2 51l88 839 q3 29 -26 29h-137q-30 0 -33 -29z" />
<glyph unicode="V" horiz-adv-x="1447" d="M125 1354q-6 15 3 24.5t23 9.5h175q8 0 14 -5t9 -10t7 -16l343 -975l551 975q15 26 26 30q4 1 8 1h176q14 0 21 -9.5t-2 -26.5l-780 -1338q-13 -23 -33 -23h-13q-10 0 -19 7t-11 16z" />
<glyph unicode="W" horiz-adv-x="1975" d="M125 1354q-6 15 3 24.5t23 9.5h175q19 0 28 -31l358 -980l175 312l-247 666q-6 15 3 25t23 10h176q3 0 5 -0.5l4 -1t3.5 -2l2.5 -2.5t2.5 -3t2.5 -3.5t2 -4.5t2 -4.5t2 -5t2 -4.5l151 -430l241 428q15 26 26 30q4 1 8 1h176q13 0 20 -9.5t-1 -26.5l-385 -663l109 -312 l562 982q16 31 35 31h175q13 0 20 -9.5t-1 -26.5l-791 -1338q-17 -23 -33 -23h-14q-21 0 -31 23l-165 446l-260 -448q-13 -23 -33 -23h-14q-10 0 -19 7t-11 16z" />
<glyph unicode="X" horiz-adv-x="1287" d="M-9 10q-2 10 6 20l538 664l-400 668q-6 10 -1.5 18t15.5 8h193q9 0 14.5 -5.5t13.5 -20.5l300 -501l404 501q16 26 32 26h192q12 0 15.5 -8t-4.5 -18l-540 -668l397 -664q7 -10 2 -20t-17 -10h-189q-3 0 -5.5 0.5t-4.5 1.5t-3.5 2t-3.5 3.5t-3.5 3.5t-3 4t-2.5 4.5 t-3 5.5t-3 5l-297 496l-400 -496q-3 -3 -9 -11t-9 -10.5t-8 -5.5t-11 -3h-191q-12 0 -14 10z" />
<glyph unicode="Y" horiz-adv-x="1303" d="M93.5 1378.5q5.5 9.5 17.5 9.5h175q15 0 28 -26l346 -600l470 600q19 26 33 26h177q11 0 15 -9.5t-3 -21.5l-616 -791l-57 -536q-3 -30 -30 -30h-101q-32 0 -47.5 19t-11.5 50l53 497l-448 791q-6 12 -0.5 21.5z" />
<glyph unicode="Z" horiz-adv-x="1131" d="M0 28l3 34l7 11l813 1121h-663q-13 0 -21.5 8t-6.5 20l14 137q3 29 33 29h940q29 0 26 -27l-3 -30l-3 -5h1l-815 -1130h673q29 0 26 -28l-10 -100q-4 -32 -25.5 -50t-53.5 -18h-911q-12 0 -18.5 7.5t-5.5 20.5z" />
<glyph unicode="[" horiz-adv-x="621" d="M-26 -302l16 146l164 1579l11 101q3 24 28 24h434q23 0 20 -24l-12 -123q-3 -23 -26 -23h-288l-161 -1534h288q24 0 21 -25l-13 -121q-3 -24 -27 -24h-434q-24 0 -21 24z" />
<glyph unicode="\" horiz-adv-x="676" d="M128 1359q-2 12 7.5 20.5t22.5 8.5h128q23 0 28 -29l254 -1328q1 -12 -9 -21.5t-23 -9.5h-128q-23 0 -28 31z" />
<glyph unicode="]" horiz-adv-x="621" d="M-26 -302l12 121q3 25 28 25h286l163 1534h-288q-25 0 -22 23l12 123q3 24 28 24h434q23 0 20 -24l-8 -92l-2 -9l-4 -45l-168 -1591l-9 -89q-3 -24 -27 -24h-434q-24 0 -21 24z" />
<glyph unicode="^" horiz-adv-x="1048" d="M66 788.5q7 -14.5 26 -14.5h109q18 0 28 14l361 446l266 -444q11 -16 26 -16h111q18 0 28 14.5t1 28.5l-369 636q-11 19 -26 19h-16q-15 0 -30 -19l-510 -636q-12 -14 -5 -28.5z" />
<glyph unicode="_" horiz-adv-x="940" d="M69 -30q0 13 8.5 21.5t21.5 8.5h743q13 0 21 -7.5t8 -20.5v-76q0 -13 -8 -21.5t-21 -8.5h-743q-12 0 -21 8t-9 20v76z" />
<glyph unicode="`" horiz-adv-x="593" d="M141 1286q2 -11 12 -17l343 -209q28 -13 40 9l40 61q16 23 -2 33l-322 236q-9 8 -23 7.5t-21 -11.5l-59 -85q-10 -13 -8 -24z" />
<glyph unicode="a" horiz-adv-x="914" d="M31 226q-2 -17 -2 -33q1 -91 59 -142q68 -60 200 -60q105 0 174.5 25.5t138.5 75.5q9 -92 48 -92h104q12 0 19.5 11.5t5.5 26.5q-1 28 -1 57q0 194 35 438q6 38 6 72q0 107 -56 175q-74 90 -231 90q-98 0 -200.5 -25.5t-174.5 -63.5q-28 -16 -21 -40l25 -87q7 -24 38 -12 q172 73 284 73q86 0 124 -44q29 -33 29 -89q0 -17 -3 -37q-93 -15 -157 -27.5t-137 -31.5t-121 -41.5t-91 -53.5t-66 -72.5t-29 -92.5zM219 229q2 22 15 41.5t30 34t46.5 28t54.5 22t66 18.5t68.5 15.5t73.5 14.5q9 2 14 3t13 2.5t14 2.5q-13 -84 -20 -196 q-49 -34 -120.5 -58.5t-135.5 -24.5q-57 0 -91 24q-29 21 -29 59q0 7 1 14z" />
<glyph unicode="b" horiz-adv-x="1032" d="M59 28l128 1211q1 9 1 25q0 31 -4 88q-2 15 4.5 25.5t18.5 10.5h118q30 0 46.5 -17.5t12.5 -44.5l-56 -526q121 68 248 68q159 0 266 -120q90 -101 90 -249q0 -28 -3 -58q-20 -193 -144.5 -322t-305.5 -129q-131 0 -229 74q-8 -29 -38 -46.5t-59 -17.5h-70q-12 0 -19 8 t-5 20zM269 222q96 -57 198 -57q108 0 185 74.5t91 201.5q2 19 2 36q1 41 -11 77q-16 50 -49.5 79.5t-73 44.5t-82.5 15q-102 0 -218 -68z" />
<glyph unicode="c" horiz-adv-x="869" d="M47 427q13 121 84.5 224t179.5 161.5t227 58.5q170 0 279 -121q16 -20 -1 -40l-77 -83q-17 -20 -41 -2q-64 69 -172 69q-120 0 -202 -78.5t-95 -186.5q-2 -15 -2 -30q0 -89 57 -157q66 -80 186 -79q103 0 193 80q26 20 43 -3l56 -84q16 -22 -5 -40q-146 -128 -313 -128 q-180 0 -298 128q-101 110 -102 261q0 25 3 50z" />
<glyph unicode="d" horiz-adv-x="1008" d="M52 439q13 125 82.5 224.5t166 151t199.5 51.5q134 0 236 -69l47 442q1 11 1 26q0 34 -5 87q-2 15 4.5 25.5t18.5 10.5h118q30 0 46.5 -17.5t14.5 -44.5l-138 -1298q-1 -12 -9.5 -20t-19.5 -8h-71q-28 0 -54 17.5t-29 46.5q-117 -76 -249 -76q-181 0 -281 129 q-82 107 -82 257q0 31 4 65zM238 439q-2 -20 -2 -39q0 -99 54 -162q64 -75 172 -75q101 0 213 59l42 399q-98 70 -208 70q-43 0 -86 -15t-82.5 -44t-67.5 -79.5t-35 -113.5z" />
<glyph unicode="e" horiz-adv-x="952" d="M45 430q-3 -27 -3 -54q0 -155 97 -261q113 -124 297 -124q114 0 208.5 43t157.5 120q17 17 2 39l-30 43q-12 21 -43 5q-47 -36 -116.5 -59.5t-140.5 -23.5q-105 0 -172.5 57.5t-72.5 145.5h542q106 0 116 102q3 24 3 48q0 79 -31 151q-40 92 -130 150.5t-212 58.5 q-180 0 -316 -128.5t-156 -312.5zM245 505q14 71 82.5 130t167.5 59t155 -60q53 -56 53 -122v-7h-458z" />
<glyph unicode="f" horiz-adv-x="735" d="M62 703l11 106q5 50 55 50h98l19 189q12 115 67.5 195t139 117t188.5 37q123 0 214 -59q21 -12 9 -36l-59 -108q-14 -22 -40 -14q-76 38 -137 38q-28 0 -57 -8t-59 -26t-51.5 -53.5t-25.5 -82.5l-21 -189h207q10 0 15.5 -6t4.5 -16l-13 -132q-1 -9 -8.5 -15t-16.5 -6 h-206l-70 -654q-4 -30 -31 -30h-95q-32 0 -47 19.5t-11 51.5l65 613h-125q-11 0 -16 5t-4 14z" />
<glyph unicode="g" horiz-adv-x="1062" d="M10 66q7 77 68 120q45 33 111 33q22 0 47 -4q-47 26 -82 99q-28 59 -28 125q0 15 1 31q13 168 137.5 283t290.5 115q51 0 161 -14q84 -10 176 -10q28 0 56 1q12 0 19 -7t5 -19l-16 -88q-16 -14 -111 -21q73 -75 73 -195q0 -22 -3 -46q-18 -169 -142 -273 q-118 -99 -269 -99h-15q-82 3 -177 38q-26 7 -49 7q-21 0 -39 -6q-40 -14 -40 -51q0 -34 39 -52q40 -18 117 -28q60 -8 150.5 -19t123.5 -16q35 -4 63 -9t58 -11.5t52 -15t44.5 -20.5t36.5 -26t28 -33t18 -41.5t7 -51t-5 -61.5q-13 -81 -65 -144t-127.5 -99.5t-161.5 -54.5 q-81 -17 -166 -17h-9q-120 3 -209.5 37.5t-135.5 106.5q-32 49 -32 113q0 27 6 57q16 73 73 117t133 62q-94 14 -156 61q-57 44 -57 112q0 7 1 14zM207 -292q-2 -14 -2 -26q0 -29 9 -50q14 -32 45.5 -48.5t71 -23t92.5 -6.5q121 0 202.5 36.5t91.5 114.5q1 9 1 17 q0 32 -22 52q-28 25 -95 37q-51 11 -243 36q-7 1 -13 1q-43 0 -84 -34q-47 -40 -54 -106zM309 477q-1 -12 -1 -23q0 -69 48 -121q57 -60 144 -62q96 0 159.5 58.5t72.5 147.5q2 15 2 29q0 75 -46 126q-53 61 -143 61t-158 -61.5t-78 -154.5z" />
<glyph unicode="h" horiz-adv-x="1025" d="M43 28q-2 -12 5 -20t20 -8h132q13 0 22 8t11 20l57 546q139 113 264 113q88 0 136 -46q40 -39 40 -105q0 -12 -1 -26l-47 -441q-2 -31 13 -50t48 -19h113q12 0 17 10.5t3 25.5q0 55 4 120l42 384q2 20 2 38q0 56 -18 104q-24 64 -71 104t-108.5 61t-129.5 21 q-146 0 -288 -104l59 562q2 28 -14 45t-47 17h-118q-12 0 -17.5 -10.5t-3.5 -25.5q0 -4 3 -30.5t2 -34.5t-3 -46z" />
<glyph unicode="i" horiz-adv-x="432" d="M45 69q-2 -31 13 -50t46 -19h96q26 0 29 30l85 801q2 12 -5.5 20t-20.5 8h-132q-28 0 -31 -28zM174 1283q5 43 38.5 73.5t75.5 30.5q43 0 71 -31q24 -26 23 -61v-12q-4 -44 -38 -74.5t-77 -30.5q-45 0 -71 30q-23 26 -23 63q0 6 1 12z" />
<glyph unicode="j" horiz-adv-x="393" d="M-146 -364l52 -129q7 -21 37 -10q203 95 229 329l104 1005q2 12 -5.5 20t-20.5 8h-132q-13 0 -21 -8t-10 -20l-104 -1005q-7 -59 -33 -94.5t-78 -59.5q-28 -13 -18 -36zM132 1283q5 43 38.5 73.5t77.5 30.5q43 0 70 -31q23 -25 23 -60q0 -6 -1 -13q-4 -44 -37.5 -74.5 t-76.5 -30.5t-70 30q-25 27 -25 64q0 5 1 11z" />
<glyph unicode="k" horiz-adv-x="1001" d="M59 28l128 1213q1 11 1 27q0 32 -4 84q-2 15 4.5 25.5t18.5 10.5h118q30 0 46.5 -17.5t12.5 -44.5l-89 -849l387 368q17 14 35 14h139q21 0 27 -20t-10 -37l-380 -349l368 -396q15 -18 5.5 -36.5t-33.5 -18.5h-140q-22 0 -33 15l-370 412l-42 -401q-2 -12 -10.5 -20 t-20.5 -8h-132q-13 0 -20.5 8t-5.5 20z" />
<glyph unicode="l" horiz-adv-x="442" d="M71 69q-2 -31 13 -50t46 -19h96q26 0 29 30l141 1331q1 12 -6 19.5t-20 7.5h-132q-28 0 -31 -27z" />
<glyph unicode="m" horiz-adv-x="1654" d="M43 28l85 803q2 12 10 20t18 8h96q29 0 45.5 -24t14.5 -51l-1 -19q142 105 288 105q92 0 169.5 -38.5t118.5 -109.5q180 148 345 148q68 0 129 -21.5t108 -61.5t71 -104q18 -48 17 -104q0 -19 -2 -39l-40 -384q-3 -49 -3 -120q2 -14 -4.5 -25t-18.5 -11h-113 q-31 0 -46 19t-13 50l45 441q1 14 1 26q0 66 -39 106q-47 47 -135 47q-133 0 -266 -116l-1 -33l-40 -384q-5 -48 -5 -87q0 -17 1 -33q2 -15 -4 -25.5t-18 -10.5h-113q-33 0 -48 19t-11 50l45 441q1 14 1 26q0 66 -40 106q-48 47 -136 47q-135 0 -264 -115l-57 -546 q-1 -12 -10 -20t-20 -8h-137q-12 0 -18.5 8t-4.5 20z" />
<glyph unicode="n" horiz-adv-x="1020" d="M43 28l85 803q2 12 10 20t18 8h96q29 0 45.5 -24t14.5 -51l-1 -19q145 103 288 103q68 0 129 -21t108 -61q46 -40 70 -104q18 -48 18 -103q0 -19 -2 -39l-40 -384q-5 -48 -5 -87q0 -17 1 -33q2 -15 -4 -25.5t-18 -10.5h-113q-33 0 -48 19t-11 50l45 441q1 14 1 26 q0 66 -40 105q-48 46 -136 46q-137 0 -264 -114l-57 -545q-1 -12 -10 -20t-20 -8h-137q-12 0 -18.5 8t-4.5 20z" />
<glyph unicode="o" d="M43 429q-3 -26 -3 -51q0 -152 101 -262q117 -128 302 -128q119 0 227 58t178.5 160t83.5 223q3 27 3 54q-1 93 -39 172q-50 102 -145.5 159t-215.5 57q-184 0 -327.5 -127t-164.5 -315zM227 427q12 110 95.5 188.5t194.5 78.5t177 -78q56 -66 56 -156q0 -16 -2 -33 q-11 -106 -93.5 -184t-192.5 -78q-111 0 -179 78q-58 66 -58 153q0 15 2 31z" />
<glyph unicode="p" horiz-adv-x="1032" d="M5 -482l127 1192q2 35 2 46.5t-3 35.5t-3 31q-2 15 4.5 25.5t18.5 10.5h118q29 0 45 -16.5t14 -42.5q117 68 248 68q159 0 266 -120q90 -100 90 -249q0 -28 -3 -58q-20 -193 -144.5 -322t-305.5 -129q-129 0 -227 72l-52 -494q-3 -35 -35.5 -56.5t-65.5 -21.5h-69 q-12 0 -19 8t-6 20zM267 222q96 -57 200 -57q108 0 185 74.5t91 201.5q2 19 2 36q0 42 -11 77q-17 51 -50 80t-72.5 44t-82.5 15q-104 0 -220 -68z" />
<glyph unicode="q" horiz-adv-x="1015" d="M69 439q14 125 81.5 224.5t163 151t198.5 51.5q132 0 234 -68q10 28 39 44.5t57 16.5h71q11 0 18 -8t6 -20l-125 -1192q-2 -38 -3 -46.5t2 -35.5t3 -31q2 -14 -4.5 -25t-18.5 -11h-118q-30 0 -46 17.5t-14 44.5l53 509q-115 -73 -243 -73q-181 0 -278 129 q-80 106 -80 255q0 33 4 67zM255 439q-2 -22 -2 -42q0 -98 51 -159q62 -75 170 -75q105 0 210 57l41 403q-97 68 -204 68q-43 0 -85.5 -15t-81 -44t-65.5 -79.5t-34 -113.5z" />
<glyph unicode="r" horiz-adv-x="767" d="M54 28l85 803q0 12 8 20t20 8h93q29 0 47 -24.5t16 -50.5l-2 -12q111 94 240 94q113 0 180 -50q26 -19 9 -42l-84 -104q-14 -17 -38 -12q-64 33 -121 33q-53 0 -110.5 -29.5t-97.5 -99.5l-56 -534q-2 -12 -10.5 -20t-20.5 -8h-136q-12 0 -18 8t-4 20z" />
<glyph unicode="s" horiz-adv-x="815" d="M26.5 107.5q-1.5 10.5 4.5 17.5l68 87q20 24 42 12q3 -4 29.5 -21t80 -36t105.5 -19q67 0 105 28.5t42 68.5v8q-1 39 -37 63q-40 26 -135 52q-235 63 -235 224q0 13 1 26q11 105 99 179t234 74q84 0 147 -22.5t126 -60.5q12 -8 15.5 -19.5t-3.5 -22.5l-75 -90 q-16 -21 -39 -10q-4 2 -22.5 11.5t-28 14t-29 13t-34 12.5t-34.5 7.5t-38 3.5q-67 0 -100.5 -28.5t-38.5 -66.5v-6q0 -38 36 -61q39 -25 117 -46q63 -18 108 -37t87 -48.5t62 -72.5q15 -33 14 -72q0 -12 -1 -25q-12 -112 -111.5 -184.5t-250.5 -72.5q-94 0 -177 34t-124 70 q-8 5 -9.5 15.5z" />
<glyph unicode="t" horiz-adv-x="697" d="M78 705l4 29q0 20 15 35q92 68 158.5 143.5t128.5 198.5q11 19 20 19h21q16 0 16 -23l-28 -248h184q12 0 19.5 -8t6.5 -21l-12 -125q-1 -12 -11 -20t-22 -8h-151q-21 0 -33 5l-38 -354q-3 -34 -3 -61q1 -13 1 -25q2 -35 22 -53.5t61 -18.5q33 0 84 11q31 7 36 -23 l12 -102q2 -15 -21 -32q-57 -33 -161 -33q-139 0 -189 75q-37 56 -37 165q0 37 4 80l40 366h-103q-12 0 -19 8t-5 20z" />
<glyph unicode="u" horiz-adv-x="1008" d="M61 319l41 384q3 46 3 81q0 21 -1 39q-2 15 3.5 25.5t17.5 10.5h113q33 0 49 -19t12 -50l-46 -441q-2 -15 -2 -28q0 -65 40 -104q48 -47 136 -47q134 0 266 115l55 545q1 13 10 21t21 8h136q25 0 22 -29l-85 -802q-2 -12 -10 -20t-18 -8h-107q-20 0 -34.5 24.5 t-12.5 48.5l2 21q-141 -104 -288 -104q-68 0 -129 21.5t-108 61.5q-47 39 -71 103q-18 47 -17 104q0 19 2 39z" />
<glyph unicode="v" horiz-adv-x="959" d="M64 833l313 -821q9 -21 29 -21h17q20 0 32 21l484 821q6 11 -1 18.5t-20 7.5h-151q-8 0 -13 -3.5t-7.5 -7.5t-8.5 -15l-290 -519l-184 519q-5 26 -24 26h-157q-27 0 -19 -26z" />
<glyph unicode="w" horiz-adv-x="1409" d="M71 828q-5 14 1.5 22.5t21.5 8.5h144q23 0 29 -19l139 -529l274 520q11 19 37 19h29q25 0 30 -19l166 -520l249 529q13 19 33 19h144q16 0 21 -8.5t-2 -22.5l-410 -809q-13 -19 -31 -19h-21q-19 0 -28 19l-198 523l-308 -523q-17 -19 -33 -19h-23q-18 0 -24 19z" />
<glyph unicode="x" horiz-adv-x="971" d="M28.5 15q-5.5 15 6.5 28l317 384l-237 389q-8 13 0 28t22 15h146q21 0 31 -21l165 -286l231 286q16 21 33 21h147q13 0 18.5 -14.5t-4.5 -28.5l-323 -389l242 -384q7 -14 -2 -28.5t-23 -14.5h-147q-16 0 -28 21l-170 283l-224 -283q-18 -21 -36 -21h-144q-15 0 -20.5 15z " />
<glyph unicode="y" d="M-30 -439q-22 22 7 55q98 98 204 237.5t182 280.5l-287 694q-7 13 -0.5 22t21.5 9h153q21 0 29 -19l202 -521l297 519q14 21 34 21h148q16 0 21.5 -9.5t-2.5 -23.5l-418 -706q-146 -246 -270 -410t-202 -234q-26 -19 -53 10z" />
<glyph unicode="z" horiz-adv-x="866" d="M31 25q-10 25 5 44l32 44l423 557h-361q-29 0 -26 28l14 133q4 28 31 28h613q22 0 31 -21.5t-2 -39.5l-26 -38l-435 -571h373q28 0 24 -28l-14 -133q-3 -28 -31 -28h-614q-27 0 -37 25z" />
<glyph unicode="{" horiz-adv-x="800" d="M64 569q0 -10 8 -18t17 -8q73 -29 98 -54q33 -33 28 -78l-22 -225q-10 -100 1.5 -181.5t41.5 -137.5t70.5 -97t93 -64.5t102.5 -35t105 -14.5q8 0 16.5 7.5t9.5 18.5l9 91q3 17 1.5 20.5t-11.5 3.5q-143 18 -214 117.5t-55 255.5l22 208q5 51 -9.5 93.5t-40 67t-49 39 t-43.5 19.5l2 19q11 0 38 14.5t59 40.5t58.5 70.5t31.5 95.5l24 218q17 159 107 252t239 111q7 0 10.5 3.5t4.5 7.5t2 13l9 87q1 13 -2.5 19.5t-7.5 7.5t-11 1q-66 0 -129.5 -13.5t-131.5 -50t-121 -92.5t-92.5 -149t-51.5 -212l-24 -235q-6 -55 -67.5 -94t-88.5 -39 q-9 0 -18 -8t-10 -18z" />
<glyph unicode="|" horiz-adv-x="534" d="M76 -318l216 2050q3 28 31 28h132q27 0 24 -28l-215 -2050q-3 -29 -31 -29h-132q-28 0 -25 29z" />
<glyph unicode="}" horiz-adv-x="800" d="M-28 -318q-1 -11 6 -18.5t15 -7.5q67 3 130 18.5t131.5 54t121.5 95t93 150t52 212.5l22 225q3 23 15.5 43.5t26.5 32.5t39.5 25t37.5 17.5t37 13.5q8 0 17 8t9 18l9 77q1 10 -6 18t-16 8q-13 0 -43.5 14.5t-59 47.5t-24.5 71l24 235q12 119 -8 212t-61 149t-101 92.5 t-120 50t-126 13.5q-7 0 -11 -1t-9 -7.5t-6 -19.5l-9 -87q-3 -10 -1 -17t11 -7q145 -18 216 -111t55 -252l-24 -218q-6 -51 11.5 -95.5t44 -70.5t50 -40.5t34.5 -14.5l-1 -19q-22 -6 -48 -20t-57 -38.5t-54 -67t-29 -93.5l-21 -208q-16 -156 -108 -255.5t-239 -117.5 q-10 0 -12.5 -3t-4.5 -21z" />
<glyph unicode="~" horiz-adv-x="840" d="M26 453l56 -62q6 -8 16.5 -7t16.5 12q1 2 9.5 12t12 13.5t12 13t14 14t15 12.5t17.5 11.5t18 8t20.5 6.5t21.5 2q20 0 40 -7.5t30.5 -15t29 -22.5t23.5 -19q4 -3 19 -16t21.5 -18t21.5 -14.5t27 -13.5t31 -7.5t40 -3.5q36 0 75.5 14.5t69.5 35.5t55 42.5t38 35.5l14 15 q17 19 0 31l-47 61q-7 8 -18.5 7.5t-18.5 -9.5q-74 -94 -152 -94q-22 0 -41.5 8t-29.5 16.5t-25.5 23.5t-20.5 20q-28 24 -45.5 36t-51 24.5t-69.5 12.5t-74 -15t-67.5 -37t-53.5 -44t-37 -37l-13 -15q-14 -14 0 -31z" />
<glyph unicode="&#xa1;" horiz-adv-x="451" d="M5 -507l2 19l109 766q5 27 32 27h97q21 0 21 -27l-51 -766l-2 -19q-2 -11 -10.5 -18.5t-18.5 -7.5h-154q-12 0 -19.5 7.5t-5.5 18.5zM113 738q5 52 46.5 89t93.5 37t85 -37t28 -89t-46.5 -89.5t-93.5 -37.5t-86 37.5t-27 89.5z" />
<glyph unicode="&#xa2;" horiz-adv-x="982" d="M56 434q21 189 168.5 322.5t334.5 133.5q47 0 83 -7l37 84q4 12 15 16t23 -1l43 -15q20 -12 12 -35l-34 -80q82 -43 137 -120q16 -22 -5 -39l-89 -77q-23 -19 -43 7q-34 42 -75 64l-236 -526q37 -8 69 -8q117 0 228 111q23 29 45 7l71 -68q14 -16 -2 -38 q-74 -85 -170 -136.5t-205 -51.5q-57 0 -111 14l-55 -119q-11 -26 -37 -18l-45 18q-21 9 -12 33l57 125q-105 58 -161 166t-43 238zM241 434q-7 -64 18 -127t78 -104l231 514h-13q-88 0 -158.5 -43.5t-109 -106.5t-46.5 -133z" />
<glyph unicode="&#xa3;" horiz-adv-x="1022" d="M54 26l2 23q91 112 148.5 228t62.5 204l2 29h-160q-27 0 -24 26l12 113q3 28 30 28h121l-3 9l-25 92q-2 8 -8.5 29.5t-8 28t-7 26t-6.5 24.5t-5 23.5t-4 22.5t-3 22t-1 22t0 22q10 124 81.5 221t171.5 145.5t207 48.5q253 0 373 -176q16 -19 -5 -32l-111 -80 q-12 -8 -20 -7.5t-20 12.5q-92 102 -221 102q-99 0 -177 -65t-85 -159q-3 -31 1.5 -64t11 -55t20 -61.5t19.5 -60.5q16 -49 25 -90h229q13 0 19.5 -7.5t4.5 -20.5l-12 -113q0 -26 -29 -26h-198v-7q-6 -65 -34.5 -135.5t-46 -99t-63.5 -100.5h513q12 0 19 -8t6 -21l-11 -109 q-2 -13 -10.5 -21.5t-20.5 -8.5h-736q-27 0 -24 26z" />
<glyph unicode="&#xa4;" horiz-adv-x="1187" d="M57 403q-16 16 4 36l137 125q-53 104 -40 234q13 127 88 235l-109 123q-15 17 4 36l133 122q21 18 37 -2l109 -121q117 64 241 64q126 0 228 -64l135 121q22 19 36 2l108 -122q16 -16 -3 -36l-136 -123q55 -108 42 -235q-14 -128 -90 -234l111 -125q16 -19 -4 -36 l-133 -122q-22 -19 -37 0l-113 125q-114 -64 -239 -64q-130 0 -228 64l-137 -125q-20 -20 -36 0zM351 800q-13 -112 55 -190.5t181 -78.5q110 0 196.5 78.5t98.5 190.5q10 110 -59.5 186t-178.5 76q-113 0 -198 -75.5t-95 -186.5z" />
<glyph unicode="&#xa5;" horiz-adv-x="1275" d="M100.5 1378.5q5.5 9.5 17.5 9.5h172q3 0 6 -1t5 -2.5t5 -4.5t4 -5t4 -6.5t4 -6.5l338 -600l460 600q2 2 6.5 8t6.5 7.5t5.5 5t7 4.5t7.5 1h174q11 0 15 -9.5t-3 -21.5l-554 -727h200q13 0 20 -7t6 -19l-13 -113q-2 -13 -10 -21t-21 -8h-241l-14 -127h241q13 0 20.5 -8 t5.5 -20l-12 -113q-3 -27 -31 -27h-243l-14 -137q-3 -30 -29 -30h-103q-31 0 -47 19t-14 50l11 98h-243q-27 0 -24 26l14 114q2 11 10 19.5t19 8.5h241l14 127h-243q-24 0 -24 29l12 111q2 12 10.5 20t20.5 8h200l-399 727q-6 12 -0.5 21.5z" />
<glyph unicode="&#xa6;" horiz-adv-x="534" d="M76 -318l85 802q0 28 30 28h132q26 0 26 -28l-85 -802q-3 -29 -31 -29h-132q-28 0 -25 29zM208 930l84 802q3 28 31 28h132q27 0 24 -28l-83 -802q-3 -27 -32 -27h-131q-28 0 -25 27z" />
<glyph unicode="&#xa7;" horiz-adv-x="1089" d="M0 -281l68 85q12 15 28.5 16.5t23.5 -7.5q2 -1 24 -24t47.5 -44t62 -45t83 -39t93.5 -15q69 0 133 25.5t109.5 76t52.5 115.5q3 32 -4 60t-19.5 49t-37.5 41.5t-47.5 34t-60 29t-64.5 25t-70 23.5q-363 116 -333 399q17 157 135 255q-99 102 -82 252q7 69 41 135.5 t92.5 122.5t151.5 90t205 34q33 0 65 -4t60.5 -12.5t53 -16.5t49 -21.5t40.5 -22.5t36.5 -24t28.5 -21.5t23.5 -20t16.5 -13.5q11 -8 12 -22t-9 -27l-71 -89q-33 -37 -59 -15q-1 1 -13.5 12.5t-21.5 19t-27.5 22t-34 24.5t-38.5 22.5t-44 20t-46.5 13t-50.5 5.5 q-107 0 -182 -63t-83 -147q-4 -38 7 -69t30 -52.5t57.5 -42.5t72 -35t90.5 -34q413 -147 385 -429q-15 -150 -136 -255q96 -111 82 -251q-16 -157 -157.5 -275t-338.5 -118q-250 0 -421 194l-6 6q-24 20 -2 47zM271 526q-5 -48 12 -84t59 -63.5t84.5 -45.5t113.5 -41 q92 -29 163 -70q76 56 88 148q5 52 -14.5 92t-71.5 72t-90 48.5t-117 44.5q-15 5 -22 8q-55 19 -105 44q-90 -55 -100 -153z" />
<glyph unicode="&#xa8;" horiz-adv-x="779" d="M120 1281q5 43 38.5 74.5t75.5 31.5q45 0 73 -31.5t23 -74.5q-4 -43 -38 -74.5t-80 -31.5q-42 0 -69 31.5t-23 74.5zM590 1281q5 43 40 74.5t78 31.5t70.5 -31.5t23.5 -74.5t-38.5 -74.5t-77.5 -31.5t-71.5 31.5t-24.5 74.5z" />
<glyph unicode="&#xa9;" horiz-adv-x="1572" d="M80 699q21 195 134 360.5t287.5 261t369.5 95.5q146 0 273 -56.5t213 -152.5t128.5 -229t27.5 -279t-86 -278.5t-177 -228.5t-245 -152.5t-285 -56.5t-272.5 56.5t-212 152.5t-128 228.5t-27.5 278.5zM236 699q-13 -115 20 -218.5t100 -178.5t166 -119t214 -44 q153 0 290 74.5t226 203.5t105 282t-45.5 281.5t-182.5 203t-273 74.5q-154 0 -291 -74.5t-225.5 -203t-103.5 -281.5zM460 699q16 143 126 243.5t252 100.5q151 0 238 -120q11 -16 -7 -31l-69 -57q-18 -15 -33 5q-56 68 -132 68q-94 0 -159.5 -64.5t-73.5 -144.5 q-8 -77 44 -141.5t145 -64.5q83 0 165 80q18 22 35 5l57 -52q12 -10 2 -28q-126 -142 -283 -142q-142 0 -231.5 100.5t-75.5 242.5z" />
<glyph unicode="&#xaa;" horiz-adv-x="914" d="M31 226q-12 -115 56.5 -175t200.5 -60q105 0 174.5 25.5t138.5 75.5q9 -92 48 -92h104q12 0 19.5 11.5t5.5 26.5q-6 215 34 495q24 156 -50 246.5t-231 90.5q-98 0 -200.5 -25.5t-174.5 -63.5q-28 -16 -21 -40l25 -87q7 -24 38 -12q172 73 284 73q86 0 124 -44t26 -126 q-93 -15 -157 -27.5t-137 -31.5t-121 -41.5t-91 -53.5t-66 -72.5t-29 -92.5zM219 229q2 22 15 41.5t30 34t46.5 28t54.5 22t66 18.5t68.5 15.5t73.5 14.5q9 2 14 3t13 2.5t14 2.5q-13 -84 -20 -196q-49 -34 -120.5 -58.5t-135.5 -24.5q-57 0 -91 24.5t-28 72.5z" />
<glyph unicode="&#xab;" horiz-adv-x="978" d="M61 373l206 -342q7 -15 23 -15h109q21 0 30 15t-2 33l-163 337l238 323q13 21 7.5 35.5t-25.5 14.5h-99q-22 0 -33 -19l-286 -332q-19 -25 -5 -50zM450 391.5q-1 -15.5 6 -23.5l214 -333q3 -6 12 -12.5t17 -6.5h99q22 0 31 15t1 35l-172 326l236 333q10 18 5.5 33.5 t-24.5 15.5h-106q-17 0 -31 -14l-276 -342q-11 -11 -12 -26.5z" />
<glyph unicode="&#xac;" horiz-adv-x="1032" d="M69 606l13 111q4 28 31 28h835q27 0 24 -26l-5 -51v-5l-42 -392q-1 -12 -9.5 -20t-19.5 -8h-113q-12 0 -19 8t-6 20l33 307h-696q-13 0 -20.5 8t-5.5 20z" />
<glyph unicode="&#xad;" horiz-adv-x="722" d="M69 375v114q0 13 8.5 20.5t21.5 7.5h526q28 0 28 -28v-114q0 -12 -8 -20t-20 -8h-526q-12 0 -21 8t-9 20z" />
<glyph unicode="&#xae;" horiz-adv-x="1039" d="M80 1126q23 204 182.5 348.5t364.5 144.5q135 0 241.5 -66t160 -179.5t38.5 -247.5q-14 -135 -91.5 -248.5t-198 -179.5t-255.5 -66t-241.5 66t-160.5 179.5t-40 248.5zM196 1126q-16 -156 83.5 -267t256.5 -111q156 0 278.5 111t138.5 267q17 157 -83 268t-256 111 q-157 0 -279 -110.5t-139 -268.5zM373 892l50 469q0 5 4 9.5t9 4.5h204q68 0 108 -46.5t33 -104.5q-4 -47 -35.5 -87t-79.5 -57l89 -184q8 -14 -9 -14h-83q-9 0 -12 5l-83 182h-79l-19 -177q0 -4 -4 -7t-8 -3h-73q-12 0 -12 10zM498 1158h108q39 0 58.5 30t6.5 60.5 t-53 30.5h-108z" />
<glyph unicode="&#xaf;" horiz-adv-x="888" d="M132 1203l10 99q4 21 25 21l703 1q10 0 17 -6.5t5 -15.5l-10 -99q-3 -23 -26 -23h-705q-22 0 -19 23z" />
<glyph unicode="&#xb0;" horiz-adv-x="683" d="M144 1106q10 103 91.5 176t184.5 73q106 0 172 -73t54 -176q-11 -104 -92.5 -179t-185.5 -75t-170 75t-54 179zM274 1106q-7 -51 25 -87.5t83 -36.5t90.5 36.5t46.5 87.5q5 50 -27 85.5t-84 35.5q-50 0 -90 -36t-44 -85z" />
<glyph unicode="&#xb1;" horiz-adv-x="1032" d="M31 28l12 114q2 13 11 21.5t22 8.5h792q12 0 18.5 -7.5t5.5 -20.5l-12 -114q-2 -13 -10.5 -21.5t-20.5 -8.5h-792q-12 0 -19.5 8t-6.5 20zM104 727l14 127q3 28 31 28h306l31 305q3 28 31 28h127q29 0 26 -28l-31 -305h302q29 0 26 -28l-14 -127q-3 -29 -31 -29h-304 l-31 -304q-4 -28 -32 -28h-128q-28 0 -24 28l31 304h-306q-27 0 -24 29z" />
<glyph unicode="&#xb2;" horiz-adv-x="1027" d="M28 28l5 47l574 602q83 83 128.5 149.5t52.5 140.5q9 88 -55.5 149t-166.5 61q-94 0 -168.5 -44t-147.5 -121q-9 -10 -21.5 -10t-20.5 10l-71 85q-16 21 5 42q88 111 207 168t246 57q111 0 203.5 -49.5t144 -141.5t39.5 -205q-16 -159 -158 -308l-456 -471h508 q27 0 23 -28l-14 -133q-1 -11 -20.5 -19.5t-33.5 -8.5h-777q-12 0 -19 8t-7 20z" />
<glyph unicode="&#xb3;" horiz-adv-x="1060" d="M47 222q-15 21 5 38l106 91q12 10 19.5 9t18.5 -13q47 -73 126 -124t169 -51q115 0 187 72.5t80 161.5q9 85 -40.5 148.5t-139.5 63.5q-32 0 -89.5 -18.5t-59.5 -18.5q-14 -3 -26 13l-63 99q-13 21 5 39l431 415h-563q-13 0 -21 8t-8 20l14 132q1 13 11.5 21t23.5 8h758 q29 0 26 -27l-16 -137q-3 -30 -24 -51l-366 -347q90 0 161 -43q97 -40 148.5 -136.5t39.5 -209.5q-18 -167 -162 -284.5t-317 -117.5q-144 0 -249 59.5t-185 179.5z" />
<glyph unicode="&#xb4;" horiz-adv-x="616" d="M126 1150q-3 -9 1 -20l29 -61q4 -24 38 -9l386 209q27 12 15 41l-43 85q-14 24 -42 4l-373 -236q-8 -4 -11 -13z" />
<glyph unicode="&#xb6;" horiz-adv-x="1565" d="M115 951q8 76 47.5 153t101 140.5t150 103.5t185.5 40h940q32 0 27 -29l-13 -123q-3 -30 -33 -30h-173l-123 -1176q-2 -13 -11 -21.5t-22 -8.5h-134q-12 0 -19 9t-5 21l125 1176h-228l-123 -1176q-2 -13 -11 -21.5t-22 -8.5h-134q-12 0 -19 9t-5 21l50 470h-161 q-97 0 -177 39t-128.5 103t-71 144.5t-13.5 164.5zM311 894q7 -114 90 -173q59 -41 144 -41h141l55 526h-139q-145 0 -229 -109q-70 -90 -62 -203z" />
<glyph unicode="&#xb7;" horiz-adv-x="423" d="M87 521q0 51 37 88t88 37q52 0 88.5 -37t36.5 -88t-36.5 -88t-88.5 -37q-51 0 -88 37t-37 88z" />
<glyph unicode="&#xb8;" horiz-adv-x="572" d="M-24 -481q-8 11 1 23l49 47q13 11 26 -2q43 -43 99 -43q59 0 95 34t42 85q6 49 -23.5 83.5t-85.5 34.5q-60 0 -111 -47q-18 -15 -28 -5l-40 45q-4 10 0 19l3 6l131 201h119l-69 -111h7q94 0 155.5 -65.5t52.5 -160.5q-11 -93 -86.5 -160t-170.5 -67q-108 0 -166 83z" />
<glyph unicode="&#xb9;" horiz-adv-x="564" d="M113 1102q0 25 26 31q107 37 222 183l3 8q9 12 28 12h123q12 0 20 -7.5t7 -19.5l-136 -1279q-4 -30 -31 -30h-137q-13 0 -20.5 8.5t-5.5 21.5l104 992l-170 -40q-25 -5 -28 21z" />
<glyph unicode="&#xba;" d="M43 429q-19 -185 98 -313t302 -128q119 0 227 58t178.5 160t83.5 223q14 124 -35.5 226t-145.5 159t-216 57q-184 0 -327.5 -127t-164.5 -315zM227 427q12 110 95.5 188.5t194.5 78.5q110 0 176.5 -78.5t54.5 -188.5q-11 -106 -93.5 -184t-192.5 -78q-111 0 -179 78 t-56 184z" />
<glyph unicode="&#xbb;" horiz-adv-x="978" d="M22 31q6 -15 27 -15h99q17 0 36 19l281 333q10 10 11.5 23.5t-6.5 26.5l-203 342q-8 14 -27 14h-108q-19 0 -27 -15t-1 -34l167 -333l-243 -326q-12 -20 -6 -35zM422 31q5 -15 26 -15h109q19 0 26 15l280 342q19 26 5 50l-215 332q-11 19 -30 19h-101q-18 0 -26.5 -14.5 t0.5 -35.5l167 -323l-233 -337q-13 -18 -8 -33z" />
<glyph unicode="&#xbc;" horiz-adv-x="1247" d="M87 1236q0 15 14 21q70 23 132 116l1 7q6 8 18 8h79q8 0 14 -5t6 -12v-573q0 -9 -6 -14t-14 -5h-86q-21 0 -21 19v384l-115 -19q-20 -4 -20 14zM205 9.5q-6 9.5 2 25.5l706 1331q12 22 33 22h64q17 0 23.5 -9t-0.5 -25l-708 -1331q-10 -23 -33 -23h-63q-18 0 -24 9.5z M748 240q0 4 5 12q113 83 163 210q26 76 26 147q0 14 14 14h84q12 0 12 -14q0 -114 -59 -236q-29 -58 -106 -120h102v28q0 14 12 14l82 9q12 0 12 -14v-37h52q14 0 14 -13v-79q0 -5 -4.5 -9t-9.5 -4h-52v-136q0 -12 -12 -12h-80q-14 0 -14 12v136h-227q-12 0 -12 13z" />
<glyph unicode="&#xbd;" horiz-adv-x="1293" d="M87 1236q0 15 14 21q70 23 132 116l1 7q6 8 18 8h79q8 0 14 -5t6 -12v-573q0 -9 -6 -14t-14 -5h-86q-21 0 -21 19v384l-115 -19q-20 -4 -20 14zM205 9.5q-6 9.5 2 25.5l706 1331q12 22 33 22h64q17 0 23.5 -9t-0.5 -25l-708 -1331q-10 -23 -33 -23h-63q-18 0 -24 9.5z M784 521q41 59 101.5 87t122.5 22t113 -43q67 -48 75 -135.5t-47 -154.5l-153 -184h196q13 0 13 -12v-85q0 -16 -13 -16h-376q-16 0 -16 16v22l63 75l161 187q2 3 14.5 18.5t16.5 20.5t13 18.5t12 21.5t6.5 20.5t3.5 23.5q0 40 -32 69t-76 29q-37 0 -65.5 -18.5t-59.5 -54.5 q-8 -12 -17 0l-54 55q-10 10 -2 18z" />
<glyph unicode="&#xbe;" horiz-adv-x="1235" d="M75 866q-9 10 0 19l50 52q9 9 17 -2q26 -33 63 -54.5t79.5 -21.5t73.5 30q25 24 27 58.5t-16 60.5t-51.5 39t-79.5 -6q-6 -8 -16 2l-43 52q-7 11 0 18l152 170h-227q-12 0 -12 12v78q0 15 12 15h358q14 0 14 -15v-78q0 -5 -4 -9l-142 -149q50 -4 89 -37.5t57 -78 t13 -95.5t-36 -89q-49 -55 -117.5 -72.5t-138.5 8.5t-122 93zM215 9.5q-6 9.5 2 25.5l706 1331q10 22 33 22h65q36 0 20 -34l-706 -1331q-13 -23 -33 -23h-64q-17 0 -23 9.5zM755 161v79q0 7 5 12q117 88 162 210q27 71 27 147q0 14 14 14h84q12 0 12 -14q-3 -111 -59 -236 q-29 -58 -106 -120h102v28q0 14 12 14l80 9q5 0 9.5 -4.5t4.5 -9.5v-37h50q14 0 14 -13v-79q0 -13 -14 -13h-50v-136q0 -12 -14 -12h-78q-14 0 -14 12v136h-229q-4 0 -8 4t-4 9z" />
<glyph unicode="&#xbf;" horiz-adv-x="805" d="M-56 -254.5q-9 74.5 19 153t91 134.5q55 48 113 85.5t80.5 52.5t40 49.5t23.5 98.5q2 12 10.5 20t20.5 8h120q12 0 19.5 -8t6.5 -20l-9 -95q-4 -40 -39 -78.5t-83.5 -71t-97.5 -65.5t-86.5 -75.5t-44.5 -87.5q-16 -89 36.5 -144.5t161.5 -55.5q53 0 103.5 23t77.5 45.5 t64 58.5l10 10q22 19 33 0l63 -76q13 -18 -4 -35q-120 -131 -271.5 -172.5t-290.5 16.5q-71 28 -114.5 91.5t-52.5 138zM323 774q5 53 46 91t94 38q52 0 86 -38t29 -91q-7 -51 -49 -89t-93 -38q-52 0 -86 38t-27 89z" />
<glyph unicode="&#xc0;" horiz-adv-x="1520" d="M11 9q-4 9 3 22l795 1351q11 15 26 15h21q16 0 22 -15l509 -1351q5 -13 -0.5 -22t-20.5 -9h-158q-21 0 -26 19l-83 226h-748l-131 -226q-11 -19 -33 -19h-159q-13 0 -17 9zM453 423h580l-226 615zM658 1765q-2 11 8 24l59 85q7 11 21 11.5t23 -7.5l323 -236q7 -4 7.5 -13 t-6.5 -20l-39 -61q-12 -22 -40 -9l-344 209q-10 6 -12 17z" />
<glyph unicode="&#xc1;" horiz-adv-x="1520" d="M11 9q-4 9 3 22l795 1351q11 15 26 15h21q16 0 22 -15l509 -1351q5 -13 -0.5 -22t-20.5 -9h-158q-21 0 -26 19l-83 226h-748l-131 -226q-11 -19 -33 -19h-159q-13 0 -17 9zM453 423h580l-226 615zM636 1629q3 9 11 13l374 236q28 20 41 -4l44 -85q5 -13 0.5 -24.5 t-16.5 -16.5l-385 -209q-35 -15 -39 9l-29 61q-4 11 -1 20z" />
<glyph unicode="&#xc2;" horiz-adv-x="1520" d="M11 9q-4 9 3 22l795 1351q11 15 26 15h21q16 0 22 -15l509 -1351q5 -13 -0.5 -22t-20.5 -9h-158q-21 0 -26 19l-83 226h-748l-131 -226q-11 -19 -33 -19h-159q-13 0 -17 9zM453 423h580l-226 615zM524 1550l7 83q3 15 19 26l325 212q9 7 22.5 7t22.5 -7l278 -212 q16 -9 13 -26l-8 -83q-2 -18 -15.5 -23.5t-31.5 4.5l-278 173l-312 -173q-21 -10 -32.5 -4.5t-9.5 23.5z" />
<glyph unicode="&#xc3;" horiz-adv-x="1520" d="M11 9q-4 9 3 22l795 1351q11 15 26 15h21q16 0 22 -15l509 -1351q5 -13 -0.5 -22t-20.5 -9h-158q-21 0 -26 19l-83 226h-748l-131 -226q-11 -19 -33 -19h-159q-13 0 -17 9zM453 423h580l-226 615zM495 1668q-13 17 3 36q8 10 24 26t50 44.5t80 47.5t93 19q45 0 85.5 -18 t65 -40t59.5 -40t71 -18q82 0 165 73q20 18 34 0l47 -62q15 -17 -3 -33q-46 -46 -76 -67q-90 -65 -179 -65q-49 0 -87.5 18t-60 39t-57.5 39t-80 18q-75 0 -149 -74q-21 -21 -35 -2z" />
<glyph unicode="&#xc4;" horiz-adv-x="1520" d="M11 9q-4 9 3 22l795 1351q11 15 26 15h21q16 0 22 -15l509 -1351q5 -13 -0.5 -22t-20.5 -9h-158q-21 0 -26 19l-83 226h-748l-131 -226q-11 -19 -33 -19h-159q-13 0 -17 9zM453 423h580l-226 615zM545 1760q5 43 39 74.5t76 31.5q45 0 72.5 -31.5t22.5 -74.5 q-4 -43 -38 -74.5t-80 -31.5q-42 0 -69 31.5t-23 74.5zM1015 1760q5 43 40 74.5t78 31.5t70.5 -31.5t23.5 -74.5t-38.5 -74.5t-77.5 -31.5t-71.5 31.5t-24.5 74.5z" />
<glyph unicode="&#xc5;" horiz-adv-x="1520" d="M11 9q-4 9 3 22l795 1351q11 15 26 15h21q16 0 22 -15l509 -1351q5 -13 -0.5 -22t-20.5 -9h-158q-21 0 -26 19l-83 226h-748l-131 -226q-11 -19 -33 -19h-159q-13 0 -17 9zM453 423h580l-226 615zM663 1666q9 88 78 151t156 63t143.5 -63t47.5 -151q-9 -87 -78.5 -149.5 t-155.5 -62.5q-88 0 -144 62.5t-47 149.5zM764 1666q-5 -46 24 -79.5t75 -33.5q48 0 84 33t41 80t-24 80t-77 33q-46 0 -82 -33t-41 -80z" />
<glyph unicode="&#xc6;" horiz-adv-x="2013" d="M-9 9q-4 9 6 22l966 1330q19 27 42 27h935q13 0 21 -7.5t7 -19.5l-14 -134q-3 -28 -33 -28h-689l-43 -423h397q13 0 21 -8.5t7 -21.5l-14 -130q-3 -29 -33 -29h-399l-40 -398h686q13 0 21 -8.5t6 -20.5l-13 -130q-4 -30 -33 -30h-858q-13 0 -21 8.5t-7 21.5l18 164h-590 l-129 -175q-16 -19 -34 -19h-164q-15 0 -19 9zM465 370h479l82 762z" />
<glyph unicode="&#xc7;" horiz-adv-x="1391" d="M83 691q21 193 133.5 357t284.5 258.5t362 94.5q152 0 278 -57.5t214 -161.5q22 -25 -1 -42l-122 -90q-23 -17 -40 2q-57 67 -145.5 113t-197.5 46q-113 0 -216 -44.5t-176 -118t-120 -166.5t-58 -191q-10 -98 17.5 -190.5t85.5 -164.5t152 -115.5t207 -43.5 q107 0 203.5 44.5t166.5 109.5q23 21 43 7l101 -90q19 -19 -7 -43q-109 -104 -245.5 -160.5t-289.5 -56.5q-36 0 -53 2l-65 -101h7q95 0 156.5 -65.5t52.5 -160.5q-11 -93 -86.5 -160t-170.5 -67q-109 0 -167 83q-8 10 2 23l48 47q13 11 26 -2q43 -43 99 -43q59 0 95 34 t42 85q6 49 -23.5 83.5t-85.5 34.5q-60 0 -111 -47q-18 -15 -28 -5l-40 45q-4 10 0 19l4 6l130 201h38q-158 30 -278 127t-180 245t-42 319z" />
<glyph unicode="&#xc8;" horiz-adv-x="1161" d="M71 30l141 1331q3 27 31 27h856q13 0 20.5 -7.5t6.5 -19.5l-13 -134q-1 -13 -10.5 -20.5t-22.5 -7.5h-689l-44 -423h398q13 0 20.5 -8.5t6.5 -21.5l-14 -130q-3 -29 -33 -29h-399l-40 -398h686q13 0 21 -8t7 -21l-14 -130q-4 -30 -33 -30h-856q-13 0 -20.5 8.5t-5.5 21.5 zM479.5 1740.5q-1.5 11.5 8.5 24.5l59 85q7 11 20.5 11.5t22.5 -7.5l323 -236q18 -10 2 -33l-40 -61q-12 -22 -40 -9l-344 208q-10 6 -11.5 17.5z" />
<glyph unicode="&#xc9;" horiz-adv-x="1161" d="M71 30l141 1331q3 27 31 27h856q13 0 20.5 -7.5t6.5 -19.5l-13 -134q-1 -13 -10.5 -20.5t-22.5 -7.5h-689l-44 -423h398q13 0 20.5 -8.5t6.5 -21.5l-14 -130q-3 -29 -33 -29h-399l-40 -398h686q13 0 21 -8t7 -21l-14 -130q-4 -30 -33 -30h-856q-13 0 -20.5 8.5t-5.5 21.5 zM457.5 1605q3.5 9 11.5 13l373 236q28 20 41 -4l44 -85q5 -13 0.5 -25t-16.5 -17l-385 -208q-34 -15 -38 9l-30 61q-4 11 -0.5 20z" />
<glyph unicode="&#xca;" horiz-adv-x="1161" d="M71 30l141 1331q3 27 31 27h856q13 0 20.5 -7.5t6.5 -19.5l-13 -134q-1 -13 -10.5 -20.5t-22.5 -7.5h-689l-44 -423h398q13 0 20.5 -8.5t6.5 -21.5l-14 -130q-3 -29 -33 -29h-399l-40 -398h686q13 0 21 -8t7 -21l-14 -130q-4 -30 -33 -30h-856q-13 0 -20.5 8.5t-5.5 21.5 zM347 1526l7 83q3 15 19 26l325 212q9 7 22.5 7t22.5 -7l278 -212q16 -9 13 -26l-8 -83q-2 -18 -15.5 -24t-31.5 4l-278 174l-312 -174q-21 -10 -32.5 -4t-9.5 24z" />
<glyph unicode="&#xcb;" horiz-adv-x="1161" d="M71 30l141 1331q3 27 31 27h856q13 0 20.5 -7.5t6.5 -19.5l-13 -134q-1 -13 -10.5 -20.5t-22.5 -7.5h-689l-44 -423h398q13 0 20.5 -8.5t6.5 -21.5l-14 -130q-3 -29 -33 -29h-399l-40 -398h686q13 0 21 -8t7 -21l-14 -130q-4 -30 -33 -30h-856q-13 0 -20.5 8.5t-5.5 21.5 zM366 1736q5 43 39 74t76 31q45 0 72.5 -31t22.5 -74q-4 -43 -38 -74.5t-80 -31.5q-42 0 -69 31.5t-23 74.5zM837 1736q5 43 40 74t78 31q42 0 69.5 -31t23.5 -74t-38.5 -74.5t-77.5 -31.5t-71 31.5t-24 74.5z" />
<glyph unicode="&#xcc;" horiz-adv-x="472" d="M80 30q-2 -13 5.5 -21.5t20.5 -8.5h134q12 0 19.5 8.5t9.5 21.5l141 1331q1 12 -6.5 19.5t-19.5 7.5h-134q-27 0 -30 -27zM129 1737.5q2 -11.5 12 -17.5l343 -208q28 -13 40 8l40 61q16 23 -2 33l-322 236q-10 8 -23.5 8t-20.5 -11l-59 -85q-10 -13 -8 -24.5z" />
<glyph unicode="&#xcd;" horiz-adv-x="472" d="M80 30q-2 -13 5.5 -21.5t20.5 -8.5h134q12 0 19.5 8.5t9.5 21.5l141 1331q1 12 -6.5 19.5t-19.5 7.5h-134q-27 0 -30 -27zM105 1601q-3 -9 1 -20l29 -61q4 -23 39 -8l385 208q27 12 15 42l-43 85q-6 11 -18 11t-24 -8l-373 -236q-8 -4 -11 -13z" />
<glyph unicode="&#xce;" horiz-adv-x="472" d="M-5 1522q-2 -18 9 -23.5t32 4.5l313 174l278 -174q18 -10 31 -4.5t15 23.5l9 83q3 16 -14 26l-277 212q-9 7 -23 7t-23 -7l-324 -212q-16 -12 -19 -26zM80 30q-2 -13 5.5 -21.5t20.5 -8.5h134q12 0 19.5 8.5t9.5 21.5l141 1331q1 12 -6.5 19.5t-19.5 7.5h-134 q-27 0 -30 -27z" />
<glyph unicode="&#xcf;" horiz-adv-x="472" d="M14 1732q5 43 38.5 74.5t75.5 31.5q45 0 73 -31.5t23 -74.5q-4 -43 -38 -74.5t-80 -31.5q-42 0 -69 31.5t-23 74.5zM80 30q-2 -13 5.5 -21.5t20.5 -8.5h134q12 0 19.5 8.5t9.5 21.5l141 1331q1 12 -6.5 19.5t-19.5 7.5h-134q-27 0 -30 -27zM484 1732q5 43 40 74.5 t78 31.5t70.5 -31.5t23.5 -74.5t-38.5 -74.5t-77.5 -31.5t-71.5 31.5t-24.5 74.5z" />
<glyph unicode="&#xd0;" horiz-adv-x="1419" d="M30 628l13 130q1 14 10 23t22 9h111l60 571q3 27 30 27h465q134 0 246.5 -39.5t188.5 -107t126.5 -156t69.5 -186.5t8 -198q-11 -110 -51.5 -212.5t-109.5 -191t-159 -155t-209.5 -104.5t-253.5 -38h-465q-13 0 -20.5 8.5t-5.5 21.5l61 571h-110q-13 0 -20.5 7.5 t-6.5 19.5zM319 189h301q117 0 219 43.5t172 115.5t113.5 164t53.5 191q8 78 -5 150.5t-48.5 135.5t-90 109.5t-133.5 73.5t-174 27h-304l-41 -409h208q12 0 18.5 -7.5t5.5 -20.5l-13 -132q0 -12 -9 -20.5t-21 -8.5h-210z" />
<glyph unicode="&#xd1;" horiz-adv-x="1457" d="M69 30l141 1331q0 12 9 19.5t21 7.5h81q21 0 38 -22l748 -996l104 992q2 11 10 18.5t20 7.5h141q12 0 19 -7.5t7 -18.5l-141 -1336q-2 -11 -10 -18.5t-20 -7.5h-48q-53 0 -115 80l-706 925l-104 -975q-2 -12 -10.5 -20t-20.5 -8l-138 -2q-13 0 -20.5 8.5t-5.5 21.5z M462 1628l50 -59q14 -19 35 2q74 74 149 74q44 0 80 -18t57.5 -39t60 -39t87.5 -18q131 0 252 129q2 1 3 2v1q18 16 3 33l-47 62q-14 18 -34 0q-83 -73 -165 -73q-36 0 -71 18.5t-59.5 40t-65 40t-85.5 18.5q-47 0 -93 -19t-80 -47.5t-50 -45t-24 -26.5q-16 -19 -3 -36z" />
<glyph unicode="&#xd2;" horiz-adv-x="1610" d="M99 696q-15 -146 27 -277.5t127.5 -226t211.5 -149.5t271 -55q193 0 365.5 93.5t284.5 256.5t133 358q15 144 -27 275t-127 225t-210.5 149.5t-269.5 55.5q-194 0 -367.5 -94t-285.5 -256t-133 -355zM295 696q15 138 97.5 257t209 188.5t264.5 69.5q137 0 248 -69.5 t168 -188.5t42 -257q-15 -140 -97 -260t-207.5 -189.5t-262.5 -69.5q-104 0 -195 41.5t-153 111t-93.5 165.5t-20.5 201zM691 1751.5q2 -11.5 12 -17.5l344 -208q27 -13 39 8l40 61q7 11 6.5 20t-7.5 13l-323 236q-10 8 -23.5 8t-20.5 -11l-59 -85q-10 -13 -8 -24.5z" />
<glyph unicode="&#xd3;" horiz-adv-x="1610" d="M99 696q-15 -146 27 -277.5t127.5 -226t211.5 -149.5t271 -55q193 0 365.5 93.5t284.5 256.5t133 358q15 144 -27 275t-127 225t-210.5 149.5t-269.5 55.5q-194 0 -367.5 -94t-285.5 -256t-133 -355zM295 696q15 138 97.5 257t209 188.5t264.5 69.5q137 0 248 -69.5 t168 -188.5t42 -257q-15 -140 -97 -260t-207.5 -189.5t-262.5 -69.5q-104 0 -195 41.5t-153 111t-93.5 165.5t-20.5 201zM669 1615q-3 -9 1 -20l29 -61q4 -23 39 -8l385 208q12 5 16.5 17t-0.5 25l-44 85q-13 23 -41 3l-374 -236q-8 -4 -11 -13z" />
<glyph unicode="&#xd4;" horiz-adv-x="1610" d="M99 696q-15 -146 27 -277.5t127.5 -226t211.5 -149.5t271 -55q193 0 365.5 93.5t284.5 256.5t133 358q15 144 -27 275t-127 225t-210.5 149.5t-269.5 55.5q-194 0 -367.5 -94t-285.5 -256t-133 -355zM295 696q15 138 97.5 257t209 188.5t264.5 69.5q137 0 248 -69.5 t168 -188.5t42 -257q-15 -140 -97 -260t-207.5 -189.5t-262.5 -69.5q-104 0 -195 41.5t-153 111t-93.5 165.5t-20.5 201zM557 1536q-2 -18 9.5 -23.5t32.5 4.5l312 173l278 -173q18 -10 31.5 -4.5t15.5 23.5l8 83q3 17 -13 26l-278 212q-9 7 -22.5 7t-22.5 -7l-325 -212 q-16 -11 -19 -26z" />
<glyph unicode="&#xd5;" horiz-adv-x="1610" d="M99 696q-15 -146 27 -277.5t127.5 -226t211.5 -149.5t271 -55q193 0 365.5 93.5t284.5 256.5t133 358q15 144 -27 275t-127 225t-210.5 149.5t-269.5 55.5q-194 0 -367.5 -94t-285.5 -256t-133 -355zM295 696q15 138 97.5 257t209 188.5t264.5 69.5q137 0 248 -69.5 t168 -188.5t42 -257q-15 -140 -97 -260t-207.5 -189.5t-262.5 -69.5q-104 0 -195 41.5t-153 111t-93.5 165.5t-20.5 201zM528 1654l50 -59q14 -19 35 2q74 74 149 74q44 0 80 -18t57.5 -39t60 -39t87.5 -18q131 0 252 129q2 1 3 2v1q18 16 3 33l-47 62q-14 18 -34 0 q-83 -73 -165 -73q-36 0 -71 18.5t-59.5 40t-65 40t-85.5 18.5q-47 0 -93 -19t-80 -47.5t-50 -45t-24 -26.5q-16 -19 -3 -36z" />
<glyph unicode="&#xd6;" horiz-adv-x="1610" d="M99 696q-15 -146 27 -277.5t127.5 -226t211.5 -149.5t271 -55q193 0 365.5 93.5t284.5 256.5t133 358q15 144 -27 275t-127 225t-210.5 149.5t-269.5 55.5q-194 0 -367.5 -94t-285.5 -256t-133 -355zM295 696q15 138 97.5 257t209 188.5t264.5 69.5q137 0 248 -69.5 t168 -188.5t42 -257q-15 -140 -97 -260t-207.5 -189.5t-262.5 -69.5q-104 0 -195 41.5t-153 111t-93.5 165.5t-20.5 201zM578 1746q5 43 39 74.5t76 31.5q45 0 72.5 -31.5t22.5 -74.5q-4 -43 -38 -74.5t-80 -31.5q-42 0 -69 31.5t-23 74.5zM1048 1746q5 43 40 74.5t78 31.5 t70.5 -31.5t23.5 -74.5t-38.5 -74.5t-77.5 -31.5t-71.5 31.5t-24.5 74.5z" />
<glyph unicode="&#xd7;" horiz-adv-x="944" d="M92 397q-17 20 5 39l259 234l-212 236q-15 18 5 38l92 85q23 15 38 0l212 -236l261 236q22 14 38 0l74 -85q18 -20 -3 -38l-260 -236l210 -234q21 -21 -4 -39l-92 -83q-20 -20 -38 0l-212 234l-258 -234q-24 -21 -39 0z" />
<glyph unicode="&#xd8;" horiz-adv-x="1688" d="M99 696q21 193 133 355t285.5 256t367.5 94q227 0 394 -129l163 163q18 21 40 2l101 -101q18 -22 0 -40l-167 -166q128 -192 103 -434q-21 -195 -133 -358t-284.5 -256.5t-365.5 -93.5q-200 0 -359 101l-129 -129q-20 -20 -40 0l-100 101q-20 20 0 40l121 121 q-158 200 -130 474zM295 696q-18 -184 83 -326l757 758q-120 83 -269 83q-138 0 -264.5 -69.5t-209 -188.5t-97.5 -257zM524 236q106 -59 233 -59q137 0 262.5 69.5t207.5 189.5t97 260q15 154 -57 285z" />
<glyph unicode="&#xd9;" horiz-adv-x="1338" d="M111 509q-15 -145 36 -262.5t168.5 -188t283.5 -70.5q167 0 301.5 70.5t212 188t93.5 262.5l89 852q2 14 -5 21.5t-20 7.5h-140q-26 0 -31 -29l-89 -839q-12 -111 -69 -191t-139.5 -117t-181.5 -37q-149 0 -238.5 89.5t-72.5 255.5l88 839q3 29 -26 29h-137 q-30 0 -33 -29zM554 1728.5q2 -11.5 12 -17.5l343 -208q28 -13 40 9l40 60q7 11 6.5 20t-7.5 13l-323 236q-10 8 -23.5 8t-20.5 -11l-59 -85q-10 -13 -8 -24.5z" />
<glyph unicode="&#xda;" horiz-adv-x="1338" d="M111 509q-15 -145 36 -262.5t168.5 -188t283.5 -70.5q167 0 301.5 70.5t212 188t93.5 262.5l89 852q2 14 -5 21.5t-20 7.5h-140q-26 0 -31 -29l-89 -839q-12 -111 -69 -191t-139.5 -117t-181.5 -37q-149 0 -238.5 89.5t-72.5 255.5l88 839q3 29 -26 29h-137 q-30 0 -33 -29zM532 1592q-3 -9 1 -20l29 -60q4 -24 39 -9l385 208q27 12 15 42l-43 85q-6 11 -18 11t-24 -8l-373 -236q-8 -4 -11 -13z" />
<glyph unicode="&#xdb;" horiz-adv-x="1338" d="M111 509q-15 -145 36 -262.5t168.5 -188t283.5 -70.5q167 0 301.5 70.5t212 188t93.5 262.5l89 852q2 14 -5 21.5t-20 7.5h-140q-26 0 -31 -29l-89 -839q-12 -111 -69 -191t-139.5 -117t-181.5 -37q-149 0 -238.5 89.5t-72.5 255.5l88 839q3 29 -26 29h-137 q-30 0 -33 -29zM420 1513q-2 -18 9.5 -23.5t32.5 4.5l312 174l278 -174q18 -10 31.5 -4.5t15.5 23.5l8 84q3 16 -14 26l-277 212q-9 7 -22.5 7t-22.5 -7l-325 -212q-16 -12 -19 -26z" />
<glyph unicode="&#xdc;" horiz-adv-x="1338" d="M111 509q-15 -145 36 -262.5t168.5 -188t283.5 -70.5q167 0 301.5 70.5t212 188t93.5 262.5l89 852q2 14 -5 21.5t-20 7.5h-140q-26 0 -31 -29l-89 -839q-12 -111 -69 -191t-139.5 -117t-181.5 -37q-149 0 -238.5 89.5t-72.5 255.5l88 839q3 29 -26 29h-137 q-30 0 -33 -29zM441 1723q5 43 38.5 74.5t75.5 31.5q45 0 73 -31.5t23 -74.5q-4 -43 -38 -74t-80 -31q-42 0 -69 31t-23 74zM911 1723q5 43 40 74.5t78 31.5t70.5 -31.5t23.5 -74.5t-38.5 -74t-77.5 -31t-71.5 31t-24.5 74z" />
<glyph unicode="&#xdd;" horiz-adv-x="1303" d="M93.5 1378.5q5.5 9.5 17.5 9.5h175q15 0 28 -26l346 -600l470 600q19 26 33 26h177q11 0 15 -9.5t-3 -21.5l-616 -791l-57 -536q-3 -30 -30 -30h-101q-32 0 -47.5 19t-11.5 50l53 497l-448 791q-6 12 -0.5 21.5zM514.5 1598q-3.5 -9 0.5 -20l30 -61q4 -24 38 -9l385 209 q12 5 16.5 16.5t-0.5 24.5l-43 85q-14 24 -42 4l-373 -236q-8 -4 -11.5 -13z" />
<glyph unicode="&#xde;" horiz-adv-x="1162" d="M62 30l141 1331q3 27 31 27h134q12 0 19.5 -7.5t6.5 -19.5l-23 -221h351q99 0 180.5 -40t130.5 -103.5t72.5 -140.5t15.5 -153q-9 -84 -49 -164.5t-103 -144.5t-152.5 -103t-188.5 -39h-350l-25 -222q-2 -13 -9.5 -21.5t-19.5 -8.5h-134q-14 0 -22 8.5t-6 21.5zM297 432 h335q144 -1 228 107q70 89 64 201q-7 114 -89 173q-60 43 -148 43h-335z" />
<glyph unicode="&#xdf;" horiz-adv-x="1117" d="M26 28l95 895q23 213 162.5 342t341.5 129q185 0 299 -114t97 -282q-8 -91 -52.5 -155t-154.5 -111q111 -49 162.5 -144t40.5 -201q-17 -163 -154.5 -275t-300.5 -112h-47q-27 0 -24 26l12 106q3 26 32 29q135 7 215 68t92 172q12 107 -70.5 182t-212.5 75l10 111 q4 26 23 31l52 7q171 28 187 191q9 89 -52 151t-175 62q-122 0 -201.5 -81t-95.5 -226l-94 -876q-1 -12 -9.5 -20t-19.5 -8h-134q-12 0 -19 8t-5 20z" />
<glyph unicode="&#xe0;" horiz-adv-x="914" d="M31 226q-12 -115 56.5 -175t200.5 -60q105 0 174.5 25.5t138.5 75.5q9 -92 48 -92h104q12 0 19.5 11.5t5.5 26.5q-6 215 34 495q24 156 -50 246.5t-231 90.5q-98 0 -200.5 -25.5t-174.5 -63.5q-28 -16 -21 -40l25 -87q7 -24 38 -12q172 73 284 73q86 0 124 -44t26 -126 q-93 -15 -157 -27.5t-137 -31.5t-121 -41.5t-91 -53.5t-66 -72.5t-29 -92.5zM219 229q2 22 15 41.5t30 34t46.5 28t54.5 22t66 18.5t68.5 15.5t73.5 14.5q9 2 14 3t13 2.5t14 2.5q-13 -84 -20 -196q-49 -34 -120.5 -58.5t-135.5 -24.5q-57 0 -91 24.5t-28 72.5zM319.5 1286 q1.5 -11 11.5 -17l344 -209q28 -13 40 9l40 61q16 23 -2 33l-323 236q-9 8 -22.5 7.5t-20.5 -11.5l-59 -85q-10 -13 -8.5 -24z" />
<glyph unicode="&#xe1;" horiz-adv-x="914" d="M31 226q-12 -115 56.5 -175t200.5 -60q105 0 174.5 25.5t138.5 75.5q9 -92 48 -92h104q12 0 19.5 11.5t5.5 26.5q-6 215 34 495q24 156 -50 246.5t-231 90.5q-98 0 -200.5 -25.5t-174.5 -63.5q-28 -16 -21 -40l25 -87q7 -24 38 -12q172 73 284 73q86 0 124 -44t26 -126 q-93 -15 -157 -27.5t-137 -31.5t-121 -41.5t-91 -53.5t-66 -72.5t-29 -92.5zM219 229q2 22 15 41.5t30 34t46.5 28t54.5 22t66 18.5t68.5 15.5t73.5 14.5q9 2 14 3t13 2.5t14 2.5q-13 -84 -20 -196q-49 -34 -120.5 -58.5t-135.5 -24.5q-57 0 -91 24.5t-28 72.5zM296 1150 q-3 -9 1 -20l29 -61q4 -24 38 -9l386 209q27 12 15 41l-43 85q-14 24 -42 4l-373 -236q-8 -4 -11 -13z" />
<glyph unicode="&#xe2;" horiz-adv-x="914" d="M31 226q-12 -115 56.5 -175t200.5 -60q105 0 174.5 25.5t138.5 75.5q9 -92 48 -92h104q12 0 19.5 11.5t5.5 26.5q-6 215 34 495q24 156 -50 246.5t-231 90.5q-98 0 -200.5 -25.5t-174.5 -63.5q-28 -16 -21 -40l25 -87q7 -24 38 -12q172 73 284 73q86 0 124 -44t26 -126 q-93 -15 -157 -27.5t-137 -31.5t-121 -41.5t-91 -53.5t-66 -72.5t-29 -92.5zM186 1071q-2 -18 9 -23.5t32 4.5l313 173l277 -173q18 -10 31.5 -4.5t15.5 23.5l9 83q3 16 -14 26l-278 212q-9 7 -22.5 7t-22.5 -7l-324 -212q-16 -12 -19 -26zM219 229q2 22 15 41.5t30 34 t46.5 28t54.5 22t66 18.5t68.5 15.5t73.5 14.5q9 2 14 3t13 2.5t14 2.5q-13 -84 -20 -196q-49 -34 -120.5 -58.5t-135.5 -24.5q-57 0 -91 24.5t-28 72.5z" />
<glyph unicode="&#xe3;" horiz-adv-x="914" d="M31 226q-12 -115 56.5 -175t200.5 -60q105 0 174.5 25.5t138.5 75.5q9 -92 48 -92h104q12 0 19.5 11.5t5.5 26.5q-6 215 34 495q24 156 -50 246.5t-231 90.5q-98 0 -200.5 -25.5t-174.5 -63.5q-28 -16 -21 -40l25 -87q7 -24 38 -12q172 73 284 73q86 0 124 -44t26 -126 q-93 -15 -157 -27.5t-137 -31.5t-121 -41.5t-91 -53.5t-66 -72.5t-29 -92.5zM154 1189l51 -59q14 -19 35 2q74 74 149 74q44 0 79.5 -18t57 -39t60 -39t87.5 -18q131 0 254 129q1 2 2 3q18 16 3 33l-47 62q-7 8 -17 7.5t-18 -7.5q-83 -73 -164 -73q-36 0 -71 18t-60 40 t-65.5 40t-85.5 18q-47 0 -93 -19t-79.5 -47.5t-49.5 -44.5t-24 -26q-17 -20 -4 -36zM219 229q2 22 15 41.5t30 34t46.5 28t54.5 22t66 18.5t68.5 15.5t73.5 14.5q9 2 14 3t13 2.5t14 2.5q-13 -84 -20 -196q-49 -34 -120.5 -58.5t-135.5 -24.5q-57 0 -91 24.5t-28 72.5z" />
<glyph unicode="&#xe4;" horiz-adv-x="914" d="M31 226q-12 -115 56.5 -175t200.5 -60q105 0 174.5 25.5t138.5 75.5q9 -92 48 -92h104q12 0 19.5 11.5t5.5 26.5q-6 215 34 495q24 156 -50 246.5t-231 90.5q-98 0 -200.5 -25.5t-174.5 -63.5q-28 -16 -21 -40l25 -87q7 -24 38 -12q172 73 284 73q86 0 124 -44t26 -126 q-93 -15 -157 -27.5t-137 -31.5t-121 -41.5t-91 -53.5t-66 -72.5t-29 -92.5zM205 1281q5 43 38.5 74.5t75.5 31.5q45 0 73 -31.5t23 -74.5q-4 -43 -38 -74.5t-80 -31.5q-42 0 -69 31.5t-23 74.5zM219 229q2 22 15 41.5t30 34t46.5 28t54.5 22t66 18.5t68.5 15.5t73.5 14.5 q9 2 14 3t13 2.5t14 2.5q-13 -84 -20 -196q-49 -34 -120.5 -58.5t-135.5 -24.5q-57 0 -91 24.5t-28 72.5zM675 1281q5 43 40 74.5t78 31.5t70.5 -31.5t23.5 -74.5t-38.5 -74.5t-77.5 -31.5t-71.5 31.5t-24.5 74.5z" />
<glyph unicode="&#xe5;" horiz-adv-x="914" d="M31 226q-12 -115 56.5 -175t200.5 -60q105 0 174.5 25.5t138.5 75.5q9 -92 48 -92h104q12 0 19.5 11.5t5.5 26.5q-6 215 34 495q24 156 -50 246.5t-231 90.5q-98 0 -200.5 -25.5t-174.5 -63.5q-28 -16 -21 -40l25 -87q7 -24 38 -12q172 73 284 73q86 0 124 -44t26 -126 q-93 -15 -157 -27.5t-137 -31.5t-121 -41.5t-91 -53.5t-66 -72.5t-29 -92.5zM219 229q2 22 15 41.5t30 34t46.5 28t54.5 22t66 18.5t68.5 15.5t73.5 14.5q9 2 14 3t13 2.5t14 2.5q-13 -84 -20 -196q-49 -34 -120.5 -58.5t-135.5 -24.5q-57 0 -91 24.5t-28 72.5zM325 1187 q9 88 78 151t156 63t143.5 -63t47.5 -151q-9 -87 -78.5 -149.5t-156.5 -62.5q-88 0 -143.5 62.5t-46.5 149.5zM425 1187q-5 -46 24 -79.5t75 -33.5q48 0 84 33t41 80t-24 80t-77 33q-46 0 -82 -33t-41 -80z" />
<glyph unicode="&#xe6;" horiz-adv-x="1546" d="M31 226q6 51 29 92.5t66 72.5t91 53.5t121 41.5t137 31.5t157 27.5q12 82 -26 126t-124 44q-112 0 -284 -73q-31 -12 -38 12l-25 87q-7 24 21 40q72 38 174.5 63.5t200.5 25.5q182 0 250 -118q132 119 307 119q122 0 212 -58.5t130 -151t28 -198.5q-10 -102 -116 -102 h-542q5 -88 72.5 -145.5t172.5 -57.5q71 0 140.5 23.5t116.5 59.5q31 16 43 -5l30 -43q15 -21 0 -39q-65 -77 -159.5 -120t-208.5 -43q-132 0 -229 66v-19q2 -15 -5.5 -26.5t-19.5 -11.5h-104q-39 0 -48 92q-69 -50 -138.5 -75.5t-174.5 -25.5q-132 0 -200.5 60t-56.5 175z M219 229q-6 -48 28 -72.5t91 -24.5q64 0 135.5 24.5t120.5 58.5q7 112 20 196q-14 -3 -41 -8q-49 -10 -74 -15t-68 -15t-66.5 -18.5t-54 -22t-47 -28t-29.5 -34t-15 -41.5zM817 505h459q2 70 -54 129.5t-156 59.5q-99 0 -167 -59.5t-82 -129.5z" />
<glyph unicode="&#xe7;" horiz-adv-x="869" d="M47 427q13 121 84.5 224t179.5 161.5t227 58.5q170 0 279 -121q16 -20 -1 -40l-77 -83q-17 -20 -41 -2q-64 69 -172 69q-120 0 -202 -78.5t-95 -186.5q-11 -107 55 -186.5t186 -79.5q103 0 193 80q26 20 43 -3l56 -84q16 -22 -5 -40q-116 -101 -248 -123l-66 -104h8 q95 0 156.5 -65.5t52.5 -160.5q-11 -93 -86.5 -160t-170.5 -67q-109 0 -167 83q-8 10 2 23l48 47q13 11 26 -2q43 -43 99 -43q59 0 95 34t42 85q6 49 -23.5 83.5t-85.5 34.5q-60 0 -111 -47q-18 -15 -28 -5l-40 45q-4 10 0 19l4 6l125 192q-161 21 -260.5 144.5t-81.5 291.5 z" />
<glyph unicode="&#xe8;" horiz-adv-x="952" d="M45 430q-19 -191 94 -315t297 -124q114 0 208.5 43t157.5 120q17 17 2 39l-30 43q-12 21 -43 5q-47 -36 -116.5 -59.5t-140.5 -23.5q-105 0 -172.5 57.5t-72.5 145.5h542q106 0 116 102q12 106 -28 198.5t-130 151t-212 58.5q-180 0 -316 -128.5t-156 -312.5zM245 505 q14 71 82.5 130t167.5 59q100 0 155.5 -59.5t52.5 -129.5h-458zM337 1286q2 -11 12 -17l344 -209q27 -13 39 9l40 61q7 11 6.5 20t-7.5 13l-323 236q-9 8 -23 7.5t-21 -11.5l-59 -85q-10 -13 -8 -24z" />
<glyph unicode="&#xe9;" horiz-adv-x="952" d="M45 430q-19 -191 94 -315t297 -124q114 0 208.5 43t157.5 120q17 17 2 39l-30 43q-12 21 -43 5q-47 -36 -116.5 -59.5t-140.5 -23.5q-105 0 -172.5 57.5t-72.5 145.5h542q106 0 116 102q12 106 -28 198.5t-130 151t-212 58.5q-180 0 -316 -128.5t-156 -312.5zM245 505 q14 71 82.5 130t167.5 59q100 0 155.5 -59.5t52.5 -129.5h-458zM315 1150q-3 -9 1 -20l29 -61q5 -24 39 -9l385 209q27 12 15 41l-43 85q-14 24 -42 4l-373 -236q-8 -4 -11 -13z" />
<glyph unicode="&#xea;" horiz-adv-x="952" d="M45 430q-19 -191 94 -315t297 -124q114 0 208.5 43t157.5 120q17 17 2 39l-30 43q-12 21 -43 5q-47 -36 -116.5 -59.5t-140.5 -23.5q-105 0 -172.5 57.5t-72.5 145.5h542q106 0 116 102q12 106 -28 198.5t-130 151t-212 58.5q-180 0 -316 -128.5t-156 -312.5zM203 1071 q-2 -18 9.5 -23.5t32.5 4.5l312 173l278 -173q18 -10 31.5 -4.5t15.5 23.5l8 83q3 16 -14 26l-277 212q-9 7 -22.5 7t-22.5 -7l-325 -212q-16 -12 -19 -26zM245 505q14 71 82.5 130t167.5 59q100 0 155.5 -59.5t52.5 -129.5h-458z" />
<glyph unicode="&#xeb;" horiz-adv-x="952" d="M45 430q-19 -191 94 -315t297 -124q114 0 208.5 43t157.5 120q17 17 2 39l-30 43q-12 21 -43 5q-47 -36 -116.5 -59.5t-140.5 -23.5q-105 0 -172.5 57.5t-72.5 145.5h542q106 0 116 102q12 106 -28 198.5t-130 151t-212 58.5q-180 0 -316 -128.5t-156 -312.5zM224 1281 q5 43 38.5 74.5t75.5 31.5q45 0 73 -31.5t23 -74.5q-4 -43 -38 -74.5t-80 -31.5q-42 0 -69 31.5t-23 74.5zM245 505q14 71 82.5 130t167.5 59q100 0 155.5 -59.5t52.5 -129.5h-458zM694 1281q5 43 40 74.5t78 31.5t70.5 -31.5t23.5 -74.5t-38.5 -74.5t-77.5 -31.5 t-71.5 31.5t-24.5 74.5z" />
<glyph unicode="&#xec;" horiz-adv-x="449" d="M75 69q-4 -31 11 -50t46 -19h97q27 0 30 30l83 801q2 12 -5 20t-19 8h-134q-13 0 -21.5 -8t-8.5 -20zM92.5 1286q1.5 -11 11.5 -17l344 -209q28 -13 40 9l40 61q16 23 -2 33l-323 236q-9 8 -22.5 7.5t-20.5 -11.5l-59 -85q-10 -13 -8.5 -24z" />
<glyph unicode="&#xed;" horiz-adv-x="449" d="M70.5 1150q-3.5 -9 0.5 -20l30 -61q4 -24 38 -9l385 209q12 5 16.5 16.5t-0.5 24.5l-44 85q-13 24 -41 4l-373 -236q-8 -4 -11.5 -13zM75 69q-4 -31 11 -50t46 -19h97q27 0 30 30l83 801q2 12 -5 20t-19 8h-134q-13 0 -21.5 -8t-8.5 -20z" />
<glyph unicode="&#xee;" horiz-adv-x="449" d="M-42 1071q-2 -18 9.5 -23.5t32.5 4.5l312 173l278 -173q18 -10 31.5 -4.5t15.5 23.5l9 83q3 16 -14 26l-278 212q-9 7 -22.5 7t-22.5 -7l-325 -212q-16 -12 -19 -26zM75 69q-4 -31 11 -50t46 -19h97q27 0 30 30l83 801q2 12 -5 20t-19 8h-134q-13 0 -21.5 -8t-8.5 -20z " />
<glyph unicode="&#xef;" horiz-adv-x="449" d="M-23 1281q5 43 39 74.5t76 31.5q45 0 72.5 -31.5t22.5 -74.5q-4 -43 -38 -74.5t-80 -31.5q-42 0 -69 31.5t-23 74.5zM75 69q-4 -31 11 -50t46 -19h97q27 0 30 30l83 801q2 12 -5 20t-19 8h-134q-13 0 -21.5 -8t-8.5 -20zM448 1281q5 43 40 74.5t78 31.5t70.5 -31.5 t23.5 -74.5t-39 -74.5t-78 -31.5t-71 31.5t-24 74.5z" />
<glyph unicode="&#xf0;" horiz-adv-x="1037" d="M56 427q13 174 145 292t309 118q83 0 157 -39t121 -99q2 106 -28 197.5t-88 157.5l-188 -99q-27 -14 -40 17l-8 16q-11 28 10 39l161 86q-104 74 -236 74q-17 0 -26 9t-7 22l26 129q4 22 25 22q219 -7 383 -171l104 55q12 6 22.5 1t16.5 -18l8 -18q14 -25 -8 -38l-89 -47 l17 -24q150 -209 120 -540q-21 -264 -157 -422.5t-341 -158.5q-121 0 -218 59.5t-148 160.5t-43 219zM245 408q-5 -98 64.5 -171.5t166.5 -73.5q103 0 183 75.5t89 179.5q11 96 -61 172t-175 76q-102 0 -181 -76.5t-86 -181.5z" />
<glyph unicode="&#xf1;" horiz-adv-x="1020" d="M43 28l85 803q2 12 10 20t18 8h96q29 0 45.5 -24t14.5 -51l-1 -19q145 103 288 103q68 0 129 -21t108 -61t70.5 -104t15.5 -142l-40 -384q-7 -68 -4 -120q2 -15 -4 -25.5t-18 -10.5h-113q-33 0 -48 19t-11 50l45 441q9 85 -38.5 131t-136.5 46q-137 0 -264 -114l-57 -545 q-1 -12 -10 -20t-20 -8h-137q-12 0 -18.5 8t-4.5 20zM181 1189q-13 17 3 36q8 10 24 26t49.5 44.5t79.5 47.5t93 19q45 0 85.5 -18t65.5 -40t60 -40t71 -18q81 0 164 73q8 7 18 7.5t17 -7.5l47 -62q15 -17 -3 -33q-51 -51 -89 -76q-85 -56 -167 -56q-49 0 -87.5 18t-60 39 t-57 39t-79.5 18q-75 0 -149 -74q-21 -21 -35 -2z" />
<glyph unicode="&#xf2;" d="M43 429q-19 -185 98 -313t302 -128q119 0 227 58t178.5 160t83.5 223q14 124 -35.5 226t-145.5 159t-216 57q-184 0 -327.5 -127t-164.5 -315zM227 427q12 110 95.5 188.5t194.5 78.5q110 0 176.5 -78.5t54.5 -188.5q-11 -106 -93.5 -184t-192.5 -78q-111 0 -179 78 t-56 184zM370 1286q2 -11 12 -17l343 -209q28 -13 40 9l40 61q7 11 6.5 20t-7.5 13l-323 236q-9 8 -23 7.5t-21 -11.5l-59 -85q-10 -13 -8 -24z" />
<glyph unicode="&#xf3;" d="M43 429q-19 -185 98 -313t302 -128q119 0 227 58t178.5 160t83.5 223q14 124 -35.5 226t-145.5 159t-216 57q-184 0 -327.5 -127t-164.5 -315zM227 427q12 110 95.5 188.5t194.5 78.5q110 0 176.5 -78.5t54.5 -188.5q-11 -106 -93.5 -184t-192.5 -78q-111 0 -179 78 t-56 184zM348 1150q-3 -9 1 -20l29 -61q4 -24 39 -9l385 209q27 12 15 41l-43 85q-14 24 -42 4l-373 -236q-8 -4 -11 -13z" />
<glyph unicode="&#xf4;" d="M43 429q-19 -185 98 -313t302 -128q119 0 227 58t178.5 160t83.5 223q14 124 -35.5 226t-145.5 159t-216 57q-184 0 -327.5 -127t-164.5 -315zM227 427q12 110 95.5 188.5t194.5 78.5q110 0 176.5 -78.5t54.5 -188.5q-11 -106 -93.5 -184t-192.5 -78q-111 0 -179 78 t-56 184zM238 1071q-2 -18 9 -23.5t32 4.5l313 173l278 -173q18 -10 31 -4.5t15 23.5l9 83q3 16 -14 26l-278 212q-9 7 -22.5 7t-22.5 -7l-324 -212q-16 -12 -19 -26z" />
<glyph unicode="&#xf5;" d="M43 429q-19 -185 98 -313t302 -128q119 0 227 58t178.5 160t83.5 223q14 124 -35.5 226t-145.5 159t-216 57q-184 0 -327.5 -127t-164.5 -315zM207 1189l50 -59q14 -19 35 2q74 74 149 74q44 0 79.5 -18t57 -39t60 -39t87.5 -18q131 0 254 129q1 2 2 3q18 16 3 33l-47 62 q-14 18 -34 0q-83 -73 -165 -73q-36 0 -71 18t-60 40t-65.5 40t-85.5 18q-47 0 -93 -19t-79.5 -47.5t-49.5 -44.5t-24 -26q-16 -19 -3 -36zM227 427q12 110 95.5 188.5t194.5 78.5q110 0 176.5 -78.5t54.5 -188.5q-11 -106 -93.5 -184t-192.5 -78q-111 0 -179 78t-56 184z " />
<glyph unicode="&#xf6;" d="M43 429q-19 -185 98 -313t302 -128q119 0 227 58t178.5 160t83.5 223q14 124 -35.5 226t-145.5 159t-216 57q-184 0 -327.5 -127t-164.5 -315zM227 427q12 110 95.5 188.5t194.5 78.5q110 0 176.5 -78.5t54.5 -188.5q-11 -106 -93.5 -184t-192.5 -78q-111 0 -179 78 t-56 184zM257 1281q5 43 38.5 74.5t75.5 31.5q45 0 73 -31.5t23 -74.5q-4 -43 -38 -74.5t-80 -31.5q-42 0 -69 31.5t-23 74.5zM727 1281q5 43 40 74.5t78 31.5t70.5 -31.5t23.5 -74.5t-38.5 -74.5t-77.5 -31.5t-71.5 31.5t-24.5 74.5z" />
<glyph unicode="&#xf7;" horiz-adv-x="1076" d="M82 597l12 115q2 13 10 21t21 8h850q13 0 20 -7.5t6 -20.5l-13 -114q-2 -12 -10 -21t-20 -9h-850q-13 0 -20.5 8t-5.5 20zM377 234q5 49 45 84.5t90 35.5q47 0 78 -36t26 -84q-5 -51 -43.5 -86t-86.5 -35q-51 0 -82.5 35t-26.5 86zM465 1076q5 48 45 84t91 36 q47 0 78 -36t26 -84q-5 -51 -44 -86t-87 -35q-50 0 -82 35t-27 86z" />
<glyph unicode="&#xf8;" horiz-adv-x="1143" d="M95 21q-14 12 0 26l91 90q-98 122 -80 292q21 188 164 315t327 127q141 0 243 -76l113 113q15 14 29 0l70 -70q12 -12 -2 -27l-115 -115q74 -115 59 -267q-13 -121 -83.5 -223t-178.5 -160t-227 -58q-123 0 -219 59l-95 -96q-15 -15 -26 0zM290 427q-11 -84 31 -153 l384 386q-52 34 -125 34q-111 0 -194.5 -78.5t-95.5 -188.5zM425 186q45 -21 99 -21q110 0 193 78t94 184q8 70 -16 127z" />
<glyph unicode="&#xf9;" horiz-adv-x="1008" d="M61 319l41 384q5 73 2 120q-2 15 3.5 25.5t17.5 10.5h113q33 0 49 -19t12 -50l-46 -441q-10 -85 38 -132t136 -47q134 0 266 115l55 545q1 13 10 21t21 8h136q25 0 22 -29l-85 -802q-2 -12 -10 -20t-18 -8h-107q-20 0 -34.5 24.5t-12.5 48.5l2 21q-141 -104 -288 -104 q-68 0 -129 21.5t-108 61.5t-70.5 103.5t-15.5 142.5zM359.5 1286q-1.5 11 8.5 24l59 85q7 11 20.5 11.5t22.5 -7.5l323 -236q18 -10 2 -33l-40 -61q-12 -22 -40 -9l-344 209q-10 6 -11.5 17z" />
<glyph unicode="&#xfa;" horiz-adv-x="1008" d="M61 319l41 384q5 73 2 120q-2 15 3.5 25.5t17.5 10.5h113q33 0 49 -19t12 -50l-46 -441q-10 -85 38 -132t136 -47q134 0 266 115l55 545q1 13 10 21t21 8h136q25 0 22 -29l-85 -802q-2 -12 -10 -20t-18 -8h-107q-20 0 -34.5 24.5t-12.5 48.5l2 21q-141 -104 -288 -104 q-68 0 -129 21.5t-108 61.5t-70.5 103.5t-15.5 142.5zM337.5 1150q3.5 9 11.5 13l373 236q28 20 42 -4l43 -85q5 -13 0.5 -24.5t-16.5 -16.5l-385 -209q-34 -15 -38 9l-30 61q-4 11 -0.5 20z" />
<glyph unicode="&#xfb;" horiz-adv-x="1008" d="M61 319l41 384q5 73 2 120q-2 15 3.5 25.5t17.5 10.5h113q33 0 49 -19t12 -50l-46 -441q-10 -85 38 -132t136 -47q134 0 266 115l55 545q1 13 10 21t21 8h136q25 0 22 -29l-85 -802q-2 -12 -10 -20t-18 -8h-107q-20 0 -34.5 24.5t-12.5 48.5l2 21q-141 -104 -288 -104 q-68 0 -129 21.5t-108 61.5t-70.5 103.5t-15.5 142.5zM226 1071l7 83q3 14 19 26l324 212q9 7 22.5 7t22.5 -7l278 -212q17 -10 14 -26l-9 -83q-2 -18 -15.5 -23.5t-31.5 4.5l-277 173l-313 -173q-21 -10 -32 -4.5t-9 23.5z" />
<glyph unicode="&#xfc;" horiz-adv-x="1008" d="M61 319l41 384q5 73 2 120q-2 15 3.5 25.5t17.5 10.5h113q33 0 49 -19t12 -50l-46 -441q-10 -85 38 -132t136 -47q134 0 266 115l55 545q1 13 10 21t21 8h136q25 0 22 -29l-85 -802q-2 -12 -10 -20t-18 -8h-107q-20 0 -34.5 24.5t-12.5 48.5l2 21q-141 -104 -288 -104 q-68 0 -129 21.5t-108 61.5t-70.5 103.5t-15.5 142.5zM246 1281q5 43 39 74.5t76 31.5q45 0 72.5 -31.5t22.5 -74.5q-4 -43 -38 -74.5t-80 -31.5q-42 0 -69 31.5t-23 74.5zM717 1281q5 43 40 74.5t78 31.5t70.5 -31.5t23.5 -74.5t-39 -74.5t-78 -31.5t-71 31.5t-24 74.5z " />
<glyph unicode="&#xfd;" d="M-30 -439q-22 22 7 55q98 98 204 237.5t182 280.5l-287 694q-7 13 -0.5 22t21.5 9h153q21 0 29 -19l202 -521l297 519q14 21 34 21h148q16 0 21.5 -9.5t-2.5 -23.5l-418 -706q-146 -246 -270 -410t-202 -234q-26 -19 -53 10zM360 1150q-3 -9 1 -20l30 -61q4 -24 38 -9 l385 209q12 5 16.5 16.5t-0.5 24.5l-44 85q-13 24 -41 4l-374 -236q-8 -4 -11 -13z" />
<glyph unicode="&#xfe;" horiz-adv-x="1015" d="M5 -482l182 1721q3 27 -3 113q-2 15 4.5 25.5t18.5 10.5h118q30 0 46.5 -17.5t12.5 -44.5l-56 -528q117 68 248 68q159 0 266 -119.5t87 -307.5q-20 -193 -145.5 -322t-306.5 -129q-128 0 -225 73l-52 -493q-3 -35 -35.5 -56.5t-65.5 -21.5h-69q-12 0 -19 8t-6 20z M267 220q96 -57 200 -57q108 0 185 74.5t91 201.5q7 63 -10 113.5t-50 79.5t-72.5 44t-82.5 15q-107 0 -219 -68z" />
<glyph unicode="&#xff;" d="M-30 -439q-22 22 7 55q98 98 204 237.5t182 280.5l-287 694q-7 13 -0.5 22t21.5 9h153q21 0 29 -19l202 -521l297 519q14 21 34 21h148q16 0 21.5 -9.5t-2.5 -23.5l-418 -706q-146 -246 -270 -410t-202 -234q-26 -19 -53 10zM267 1281q5 43 39 74.5t76 31.5 q45 0 72.5 -31.5t22.5 -74.5q-4 -43 -38 -74.5t-80 -31.5q-42 0 -69 31.5t-23 74.5zM738 1281q5 43 40 74.5t78 31.5q42 0 69.5 -31.5t23.5 -74.5t-38.5 -74.5t-77.5 -31.5t-71 31.5t-24 74.5z" />
<glyph unicode="&#x152;" horiz-adv-x="2344" d="M99 696q21 193 133 355t285.5 256t367.5 94q149 0 276 -58t215 -161l19 179q2 12 10.5 19.5t21.5 7.5h857q12 0 19.5 -7.5t6.5 -19.5l-14 -134q-3 -28 -33 -28h-689l-43 -423h399q12 0 19.5 -8.5t6.5 -21.5l-14 -130q-3 -29 -33 -29h-399l-40 -398h687q13 0 20.5 -8 t5.5 -21l-14 -130q-4 -30 -31 -30h-857q-13 0 -20.5 8.5t-5.5 21.5l19 177q-110 -103 -249.5 -161t-288.5 -58q-145 0 -271 55t-211.5 149.5t-127.5 226t-27 277.5zM295 696q-11 -105 20.5 -201t93.5 -165.5t153 -111t195 -41.5q137 0 262.5 69.5t207.5 189.5t97 260 q15 138 -42 257t-168 188.5t-248 69.5q-138 0 -264.5 -69.5t-209 -188.5t-97.5 -257z" />
<glyph unicode="&#x153;" horiz-adv-x="1681" d="M43 429q21 188 164.5 315t327.5 127q106 0 193.5 -44.5t139.5 -123.5q69 79 161 123.5t195 44.5q122 0 211 -58.5t129 -151t29 -198.5q-13 -102 -118 -102h-541q7 -88 74.5 -145.5t171.5 -57.5q71 0 139.5 23.5t115.5 59.5q31 15 45 -5l28 -43q15 -21 0 -39 q-65 -77 -159 -120t-207 -43q-106 0 -192.5 44.5t-137.5 124.5q-72 -81 -168 -126.5t-201 -45.5q-185 0 -302 128t-98 313zM227 427q-12 -106 56 -184t179 -78q110 0 192.5 78t93.5 184q12 110 -54.5 188.5t-176.5 78.5q-111 0 -194.5 -78.5t-95.5 -188.5zM951 505h458 q3 70 -52.5 129.5t-155.5 59.5q-99 0 -167.5 -59.5t-82.5 -129.5z" />
<glyph unicode="&#x178;" horiz-adv-x="1303" d="M93.5 1378.5q5.5 9.5 17.5 9.5h175q15 0 28 -26l346 -600l470 600q19 26 33 26h177q11 0 15 -9.5t-3 -21.5l-616 -791l-57 -536q-3 -30 -30 -30h-101q-32 0 -47.5 19t-11.5 50l53 497l-448 791q-6 12 -0.5 21.5zM422 1729q5 43 38.5 74.5t75.5 31.5q45 0 73 -31.5 t23 -74.5q-4 -43 -38 -74.5t-80 -31.5q-42 0 -69 31.5t-23 74.5zM892 1729q5 43 40 74.5t78 31.5t70.5 -31.5t23.5 -74.5t-38.5 -74.5t-77.5 -31.5t-71.5 31.5t-24.5 74.5z" />
<glyph unicode="&#x2c6;" horiz-adv-x="831" d="M127 1083q-2 -18 9 -23.5t32 4.5l313 173l277 -173q18 -10 31.5 -4.5t15.5 23.5l9 83q3 16 -14 26l-278 212q-9 7 -22.5 7t-22.5 -7l-324 -212q-16 -12 -19 -26z" />
<glyph unicode="&#x2dc;" horiz-adv-x="923" d="M137 1189l50 -59q14 -19 35 2q74 74 149 74q44 0 80 -18t57.5 -39t60 -39t87.5 -18q131 0 252 129q2 1 2 2l1 1q19 17 4 33l-47 62q-7 8 -17 7.5t-18 -7.5q-83 -73 -165 -73q-36 0 -71 18t-59.5 40t-65 40t-85.5 18q-47 0 -93 -19t-79.5 -47.5t-49.5 -44.5t-24 -26 q-17 -20 -4 -36z" />
<glyph unicode="&#x2000;" horiz-adv-x="943" />
<glyph unicode="&#x2001;" horiz-adv-x="1887" />
<glyph unicode="&#x2002;" horiz-adv-x="943" />
<glyph unicode="&#x2003;" horiz-adv-x="1887" />
<glyph unicode="&#x2004;" horiz-adv-x="629" />
<glyph unicode="&#x2005;" horiz-adv-x="471" />
<glyph unicode="&#x2006;" horiz-adv-x="314" />
<glyph unicode="&#x2007;" horiz-adv-x="314" />
<glyph unicode="&#x2008;" horiz-adv-x="235" />
<glyph unicode="&#x2009;" horiz-adv-x="377" />
<glyph unicode="&#x200a;" horiz-adv-x="104" />
<glyph unicode="&#x2010;" horiz-adv-x="722" d="M69 375v114q0 13 8.5 20.5t21.5 7.5h526q28 0 28 -28v-114q0 -12 -8 -20t-20 -8h-526q-12 0 -21 8t-9 20z" />
<glyph unicode="&#x2011;" horiz-adv-x="722" d="M69 375v114q0 13 8.5 20.5t21.5 7.5h526q28 0 28 -28v-114q0 -12 -8 -20t-20 -8h-526q-12 0 -21 8t-9 20z" />
<glyph unicode="&#x2012;" horiz-adv-x="722" d="M69 375v114q0 13 8.5 20.5t21.5 7.5h526q28 0 28 -28v-114q0 -12 -8 -20t-20 -8h-526q-12 0 -21 8t-9 20z" />
<glyph unicode="&#x2013;" horiz-adv-x="1216" d="M139 505v68q0 29 29 29h882q12 0 20 -7.5t8 -20.5v-67q0 -13 -8 -21.5t-20 -8.5h-882q-13 0 -21 8t-8 20z" />
<glyph unicode="&#x2014;" horiz-adv-x="1617" d="M104 505v68q0 29 30 29h1352q12 0 19.5 -7.5t7.5 -20.5v-67q0 -13 -7.5 -21.5t-19.5 -8.5h-1352q-13 0 -21.5 8t-8.5 20z" />
<glyph unicode="&#x2018;" horiz-adv-x="357" d="M99 1024q-3 100 36 205q23 62 66.5 114.5t91.5 86.5q23 11 32 2l22 -30q7 -10 -2 -19q-56 -47 -90.5 -99.5t-39.5 -125.5l-2 -30q18 4 28 4q49 0 79 -33t25 -84t-41 -83.5t-87 -32.5q-82 0 -104 69q-14 22 -14 56z" />
<glyph unicode="&#x2019;" horiz-adv-x="317" d="M87 915q-8 8 0 19q56 46 91 98t41 127l1 30q-18 -4 -29 -4q-47 0 -77 32.5t-25 82.5q5 52 40.5 85t87.5 33q82 0 101 -68q15 -24 15 -57q3 -98 -34 -205q-24 -63 -68 -115t-92 -86q-21 -12 -31 -2z" />
<glyph unicode="&#x201a;" horiz-adv-x="840" d="M-7 -283q36 31 59 57t46 72t27 98l2 28q-15 -3 -32 -3q-47 0 -77 33t-23 83q5 52 39.5 84t85.5 32q82 0 104 -67q16 -26 16 -56q2 -88 -35 -206q-25 -63 -69 -115t-93 -85q-16 -15 -29 -2l-21 30q-12 8 0 17zM364 -283q57 48 92 100t40 127l2 28q-15 -3 -29 -3 q-47 0 -77.5 33t-25.5 83q7 52 41.5 84t85.5 32q87 0 106 -71q12 -24 12 -52q4 -93 -35 -206q-46 -123 -159 -200q-19 -14 -32 -2l-21 30q-10 7 0 17z" />
<glyph unicode="&#x201c;" horiz-adv-x="742" d="M106 1007q-3 101 36 206q45 120 158 200q19 14 31 2l21 -30q10 -7 0 -17q-55 -47 -90.5 -100t-41.5 -128l-1 -27q15 3 29 3q49 0 79.5 -33t23.5 -83q-4 -51 -40 -84t-87 -33q-81 0 -103 68q-15 24 -15 56zM479 1007q-4 93 35 206q25 63 68 115.5t91 84.5q19 14 32 2 l20 -30q10 -7 0 -17q-56 -47 -91 -100t-40 -128l-2 -27q15 3 29 3q47 0 77.5 -33t25.5 -83q-5 -52 -40.5 -84.5t-86.5 -32.5q-87 0 -106 72q-12 24 -12 52z" />
<glyph unicode="&#x201d;" horiz-adv-x="742" d="M134 915q-8 8 0 19q56 46 91 98t41 127l1 30q-18 -4 -27 -4q-49 0 -79.5 32.5t-25.5 82.5q5 52 41 85t88 33q80 0 102 -69q14 -25 14 -56q3 -95 -35 -205q-48 -123 -159 -201q-22 -13 -30 -2zM505 915q-7 10 2 19q56 46 90.5 98t39.5 127l2 30q-18 -4 -28 -4 q-47 0 -77.5 32.5t-26.5 82.5q7 52 42 85t86 33q82 0 104 -68q14 -25 14 -57q3 -98 -34 -205q-24 -63 -68 -115t-92 -86q-21 -12 -31 -2z" />
<glyph unicode="&#x201e;" horiz-adv-x="848" d="M57 -283q36 31 59 57t46 72t27 98l2 28q-15 -3 -31 -3q-48 0 -78 33t-23 83q5 52 39.5 84t85.5 32q82 0 104 -67q16 -26 16 -56q2 -88 -35 -206q-25 -63 -69 -115t-92 -85q-17 -15 -30 -2l-21 30q-12 8 0 17zM429 -283q57 48 92 100t40 127l1 28q-15 -3 -29 -3 q-47 0 -77.5 33t-25.5 83q7 52 41.5 84t85.5 32q87 0 106 -71q12 -24 12 -52q4 -93 -35 -206q-46 -123 -159 -200q-18 -14 -31 -2l-21 30q-10 7 0 17z" />
<glyph unicode="&#x2022;" horiz-adv-x="564" d="M87 434q0 78 59.5 137t138.5 59t135.5 -58.5t56.5 -137.5q0 -81 -56.5 -138.5t-135.5 -57.5q-80 0 -139 58t-59 138z" />
<glyph unicode="&#x2026;" horiz-adv-x="1291" d="M87 102q0 47 33.5 81t79.5 34t78.5 -34t32.5 -81q0 -46 -32.5 -78.5t-78.5 -32.5q-47 0 -80 32.5t-33 78.5zM536 102q0 47 33.5 81t79.5 34t78.5 -34t32.5 -81q0 -46 -32.5 -78.5t-78.5 -32.5q-47 0 -80 32.5t-33 78.5zM981 102q0 47 33 81t79 34t79 -34t33 -81 q0 -46 -33 -78.5t-79 -32.5t-79 32.5t-33 78.5z" />
<glyph unicode="&#x202f;" horiz-adv-x="377" />
<glyph unicode="&#x2039;" horiz-adv-x="591" d="M69 373l207 -342q8 -15 23 -15h109q21 0 28.5 13.5t-0.5 34.5l-164 337l238 323q13 21 8 35.5t-25 14.5h-99q-22 0 -33 -19l-286 -332q-20 -26 -6 -50z" />
<glyph unicode="&#x203a;" horiz-adv-x="593" d="M34 29.5q4 -13.5 25 -13.5h109q18 0 26 15l280 342q19 26 5 50l-215 332q-11 19 -30 19h-99q-20 0 -28 -14.5t1 -35.5l166 -323l-232 -337q-12 -21 -8 -34.5z" />
<glyph unicode="&#x205f;" horiz-adv-x="471" />
<glyph unicode="&#x20ac;" horiz-adv-x="1393" d="M3 479l13 118q2 12 10.5 21t20.5 9h66q0 36 3 72q1 13 5.5 38.5t5.5 34.5h-65q-27 0 -24 26l12 118q2 12 10 21t20 9h106q98 207 295 338t425 131q139 0 259.5 -51.5t209.5 -143.5q19 -22 -2 -43l-103 -96q-21 -18 -39 2q-58 59 -142 98t-185 39q-155 0 -284 -75.5 t-209 -198.5h429q12 0 19.5 -8t6.5 -20l-12 -118q-3 -28 -31 -28h-488q-10 -49 -12 -71q-5 -39 -2 -74h486q12 0 19 -8t5 -20l-12 -118q-3 -28 -31 -28h-429q54 -124 168 -199t270 -75q185 0 350 135q26 23 42 4l81 -96q19 -19 -6 -43q-227 -193 -509 -193q-229 0 -398 130 t-223 337h-106q-11 0 -18.5 7t-6.5 19z" />
<glyph unicode="&#x2122;" horiz-adv-x="1135" d="M127 1317l5 51q3 20 22 20h348q23 0 20 -20l-5 -51q-3 -22 -26 -22h-125l-43 -406q-4 -23 -23 -23h-50q-10 0 -16.5 7t-4.5 16l42 406h-125q-22 0 -19 22zM538 889l50 479q3 20 23 20h54q18 0 22 -12l151 -342l224 342q7 12 24 12h59q20 0 20 -20l-52 -479 q-4 -23 -23 -23h-50q-9 0 -15 7t-4 16l29 295l-203 -299q-12 -15 -24 -15h-4q-13 0 -21 15l-135 299l-31 -295q-4 -23 -25 -23h-48q-10 0 -16.5 7t-4.5 16z" />
<glyph unicode="&#x25fc;" horiz-adv-x="859" d="M0 0v859h859v-859h-859z" />
<glyph unicode="&#xfb03;" horiz-adv-x="1714" d="M71 703l11 106q5 50 57 50h94l19 182q19 176 130 268.5t279 92.5q155 0 301 -112q107 107 289 107q123 0 214 -59q23 -14 9 -36l-59 -108q-11 -16 -28 -16q-7 0 -12 2q-76 38 -138 38q-39 0 -77 -13.5t-73.5 -54t-41.5 -102.5l-21 -189h559q12 0 19 -8t5 -20l-83 -801 q-3 -30 -30 -30h-97q-31 0 -46 19t-11 50l64 615h-397l-70 -654q-4 -30 -31 -30h-95q-32 0 -47 19.5t-11 51.5l64 613h-414l-68 -654q-4 -30 -31 -30h-96q-62 0 -57 71l64 613h-125q-22 0 -19 19zM422 859h415l19 189q4 46 19 96q-104 80 -226 80q-32 0 -63.5 -9t-63 -29 t-53.5 -57.5t-28 -87.5z" />
<glyph unicode="&#xfb04;" horiz-adv-x="1747" d="M71 703l11 106q5 50 57 50h94l19 182q19 176 130 268.5t279 92.5q155 0 306 -118q111 118 305 118q119 0 236 -71l4 30q3 27 31 27h132q13 0 20 -7.5t6 -19.5l-141 -1331q-3 -30 -29 -30h-96q-31 0 -46 19t-13 50l113 1073q-109 82 -229 82q-32 0 -63.5 -9t-63 -29 t-53.5 -57.5t-28 -87.5l-19 -182h206q24 0 21 -22l-14 -132q-4 -21 -24 -21h-208l-68 -654q-4 -30 -31 -30h-96q-62 0 -57 71l64 613h-423l-68 -654q-4 -30 -31 -30h-96q-62 0 -57 71l64 613h-125q-22 0 -19 19zM422 859h421l20 182q4 49 19 98q-106 85 -233 85 q-32 0 -63.5 -9t-63 -29t-53.5 -57.5t-28 -87.5z" />
</font>
</defs>
</svg>
